  0
SECTION
  2
HEADER
  9
$ACADVER
  1
AC1015
  9
$ACADMAINTVER
 70
6
  9
$DWGCODEPAGE
  3
ANSI_1252
  9
$INSBASE
 10
0.0
 20
0.0
 30
0.0
  9
$EXTMIN
 10
1e+20
 20
1e+20
 30
1e+20
  9
$EXTMAX
 10
-1e+20
 20
-1e+20
 30
-1e+20
  9
$LIMMIN
 10
0.0
 20
0.0
  9
$LIMMAX
 10
420.0
 20
297.0
  9
$ORTHOMODE
 70
0
  9
$REGENMODE
 70
1
  9
$FILLMODE
 70
1
  9
$QTEXTMODE
 70
0
  9
$MIRRTEXT
 70
1
  9
$LTSCALE
 40
1.0
  9
$ATTMODE
 70
1
  9
$TEXTSIZE
 40
2.5
  9
$TRACEWID
 40
1.0
  9
$TEXTSTYLE
  7
Standard
  9
$CLAYER
  8
0
  9
$CELTYPE
  6
ByLayer
  9
$CECOLOR
 62
256
  9
$CELTSCALE
 40
1.0
  9
$DISPSILH
 70
0
  9
$DIMSCALE
 40
1.0
  9
$DIMASZ
 40
2.5
  9
$DIMEXO
 40
0.625
  9
$DIMDLI
 40
3.75
  9
$DIMRND
 40
0.0
  9
$DIMDLE
 40
0.0
  9
$DIMEXE
 40
1.25
  9
$DIMTP
 40
0.0
  9
$DIMTM
 40
0.0
  9
$DIMTXT
 40
2.5
  9
$DIMCEN
 40
2.5
  9
$DIMTSZ
 40
0.0
  9
$DIMTOL
 70
0
  9
$DIMLIM
 70
0
  9
$DIMTIH
 70
0
  9
$DIMTOH
 70
0
  9
$DIMSE1
 70
0
  9
$DIMSE2
 70
0
  9
$DIMTAD
 70
1
  9
$DIMZIN
 70
8
  9
$DIMBLK
  1

  9
$DIMASO
 70
1
  9
$DIMSHO
 70
1
  9
$DIMPOST
  1

  9
$DIMAPOST
  1

  9
$DIMALT
 70
0
  9
$DIMALTD
 70
3
  9
$DIMALTF
 40
0.03937007874
  9
$DIMLFAC
 40
1.0
  9
$DIMTOFL
 70
1
  9
$DIMTVP
 40
0.0
  9
$DIMTIX
 70
0
  9
$DIMSOXD
 70
0
  9
$DIMSAH
 70
0
  9
$DIMBLK1
  1

  9
$DIMBLK2
  1

  9
$DIMSTYLE
  2
ISO-25
  9
$DIMCLRD
 70
0
  9
$DIMCLRE
 70
0
  9
$DIMCLRT
 70
0
  9
$DIMTFAC
 40
1.0
  9
$DIMGAP
 40
0.625
  9
$DIMJUST
 70
0
  9
$DIMSD1
 70
0
  9
$DIMSD2
 70
0
  9
$DIMTOLJ
 70
0
  9
$DIMTZIN
 70
8
  9
$DIMALTZ
 70
0
  9
$DIMALTTZ
 70
0
  9
$DIMUPT
 70
0
  9
$DIMDEC
 70
2
  9
$DIMTDEC
 70
2
  9
$DIMALTU
 70
2
  9
$DIMALTTD
 70
3
  9
$DIMTXSTY
  7
Standard
  9
$DIMAUNIT
 70
0
  9
$DIMADEC
 70
0
  9
$DIMALTRND
 40
0.0
  9
$DIMAZIN
 70
0
  9
$DIMDSEP
 70
44
  9
$DIMATFIT
 70
3
  9
$DIMFRAC
 70
0
  9
$DIMLDRBLK
  1

  9
$DIMLUNIT
 70
2
  9
$DIMLWD
 70
-2
  9
$DIMLWE
 70
-2
  9
$DIMTMOVE
 70
0
  9
$LUNITS
 70
2
  9
$LUPREC
 70
4
  9
$SKETCHINC
 40
1.0
  9
$FILLETRAD
 40
10.0
  9
$AUNITS
 70
0
  9
$AUPREC
 70
2
  9
$MENU
  1
.
  9
$ELEVATION
 40
0.0
  9
$PELEVATION
 40
0.0
  9
$THICKNESS
 40
0.0
  9
$LIMCHECK
 70
0
  9
$CHAMFERA
 40
0.0
  9
$CHAMFERB
 40
0.0
  9
$CHAMFERC
 40
0.0
  9
$CHAMFERD
 40
0.0
  9
$SKPOLY
 70
0
  9
$TDCREATE
 40
2461293.912916667
  9
$TDUCREATE
 40
2458532.153996898
  9
$TDUPDATE
 40
2461293.912916667
  9
$TDUUPDATE
 40
2458532.1544311
  9
$TDINDWG
 40
0.0
  9
$TDUSRTIMER
 40
0.0
  9
$USRTIMER
 70
1
  9
$ANGBASE
 50
0.0
  9
$ANGDIR
 70
0
  9
$PDMODE
 70
0
  9
$PDSIZE
 40
0.0
  9
$PLINEWID
 40
0.0
  9
$SPLFRAME
 70
0
  9
$SPLINETYPE
 70
6
  9
$SPLINESEGS
 70
8
  9
$HANDSEED
  5
11E
  9
$SURFTAB1
 70
6
  9
$SURFTAB2
 70
6
  9
$SURFTYPE
 70
6
  9
$SURFU
 70
6
  9
$SURFV
 70
6
  9
$UCSBASE
  2

  9
$UCSNAME
  2

  9
$UCSORG
 10
0.0
 20
0.0
 30
0.0
  9
$UCSXDIR
 10
1.0
 20
0.0
 30
0.0
  9
$UCSYDIR
 10
0.0
 20
1.0
 30
0.0
  9
$UCSORTHOREF
  2

  9
$UCSORTHOVIEW
 70
0
  9
$UCSORGTOP
 10
0.0
 20
0.0
 30
0.0
  9
$UCSORGBOTTOM
 10
0.0
 20
0.0
 30
0.0
  9
$UCSORGLEFT
 10
0.0
 20
0.0
 30
0.0
  9
$UCSORGRIGHT
 10
0.0
 20
0.0
 30
0.0
  9
$UCSORGFRONT
 10
0.0
 20
0.0
 30
0.0
  9
$UCSORGBACK
 10
0.0
 20
0.0
 30
0.0
  9
$PUCSBASE
  2

  9
$PUCSNAME
  2

  9
$PUCSORG
 10
0.0
 20
0.0
 30
0.0
  9
$PUCSXDIR
 10
1.0
 20
0.0
 30
0.0
  9
$PUCSYDIR
 10
0.0
 20
1.0
 30
0.0
  9
$PUCSORTHOREF
  2

  9
$PUCSORTHOVIEW
 70
0
  9
$PUCSORGTOP
 10
0.0
 20
0.0
 30
0.0
  9
$PUCSORGBOTTOM
 10
0.0
 20
0.0
 30
0.0
  9
$PUCSORGLEFT
 10
0.0
 20
0.0
 30
0.0
  9
$PUCSORGRIGHT
 10
0.0
 20
0.0
 30
0.0
  9
$PUCSORGFRONT
 10
0.0
 20
0.0
 30
0.0
  9
$PUCSORGBACK
 10
0.0
 20
0.0
 30
0.0
  9
$USERI1
 70
0
  9
$USERI2
 70
0
  9
$USERI3
 70
0
  9
$USERI4
 70
0
  9
$USERI5
 70
0
  9
$USERR1
 40
0.0
  9
$USERR2
 40
0.0
  9
$USERR3
 40
0.0
  9
$USERR4
 40
0.0
  9
$USERR5
 40
0.0
  9
$WORLDVIEW
 70
1
  9
$SHADEDGE
 70
3
  9
$SHADEDIF
 70
70
  9
$TILEMODE
 70
1
  9
$MAXACTVP
 70
64
  9
$PINSBASE
 10
0.0
 20
0.0
 30
0.0
  9
$PLIMCHECK
 70
0
  9
$PEXTMIN
 10
1e+20
 20
1e+20
 30
1e+20
  9
$PEXTMAX
 10
-1e+20
 20
-1e+20
 30
-1e+20
  9
$PLIMMIN
 10
0.0
 20
0.0
  9
$PLIMMAX
 10
420.0
 20
297.0
  9
$UNITMODE
 70
0
  9
$VISRETAIN
 70
1
  9
$PLINEGEN
 70
0
  9
$PSLTSCALE
 70
1
  9
$TREEDEPTH
 70
3020
  9
$CMLSTYLE
  2
Standard
  9
$CMLJUST
 70
0
  9
$CMLSCALE
 40
20.0
  9
$PROXYGRAPHICS
 70
1
  9
$MEASUREMENT
 70
1
  9
$CELWEIGHT
370
-1
  9
$ENDCAPS
280
0
  9
$JOINSTYLE
280
0
  9
$LWDISPLAY
290
0
  9
$INSUNITS
 70
4
  9
$HYPERLINKBASE
  1

  9
$STYLESHEET
  1

  9
$XEDIT
290
1
  9
$CEPSNTYPE
380
0
  9
$PSTYLEMODE
290
1
  9
$FINGERPRINTGUID
  2
{58BF2890-6338-439F-B626-206312D8E275}
  9
$VERSIONGUID
  2
{731DD3EA-C391-4262-B955-EC1A28AB12C2}
  9
$EXTNAMES
290
1
  9
$PSVPSCALE
 40
0.0
  9
$OLESTARTUP
290
0
  0
ENDSEC
  0
SECTION
  2
CLASSES
  0
CLASS
  1
ACDBDICTIONARYWDFLT
  2
AcDbDictionaryWithDefault
  3
ObjectDBX Classes
 90
0
280
0
281
0
  0
CLASS
  1
SUN
  2
AcDbSun
  3
SCENEOE
 90
1153
280
0
281
0
  0
CLASS
  1
VISUALSTYLE
  2
AcDbVisualStyle
  3
ObjectDBX Classes
 90
4095
280
0
281
0
  0
CLASS
  1
MATERIAL
  2
AcDbMaterial
  3
ObjectDBX Classes
 90
1153
280
0
281
0
  0
CLASS
  1
SCALE
  2
AcDbScale
  3
ObjectDBX Classes
 90
1153
280
0
281
0
  0
CLASS
  1
TABLESTYLE
  2
AcDbTableStyle
  3
ObjectDBX Classes
 90
4095
280
0
281
0
  0
CLASS
  1
MLEADERSTYLE
  2
AcDbMLeaderStyle
  3
ACDB_MLEADERSTYLE_CLASS
 90
4095
280
0
281
0
  0
CLASS
  1
DICTIONARYVAR
  2
AcDbDictionaryVar
  3
ObjectDBX Classes
 90
0
280
0
281
0
  0
CLASS
  1
CELLSTYLEMAP
  2
AcDbCellStyleMap
  3
ObjectDBX Classes
 90
1152
280
0
281
0
  0
CLASS
  1
MENTALRAYRENDERSETTINGS
  2
AcDbMentalRayRenderSettings
  3
SCENEOE
 90
1024
280
0
281
0
  0
CLASS
  1
ACDBDETAILVIEWSTYLE
  2
AcDbDetailViewStyle
  3
ObjectDBX Classes
 90
1025
280
0
281
0
  0
CLASS
  1
ACDBSECTIONVIEWSTYLE
  2
AcDbSectionViewStyle
  3
ObjectDBX Classes
 90
1025
280
0
281
0
  0
CLASS
  1
RASTERVARIABLES
  2
AcDbRasterVariables
  3
ISM
 90
0
280
0
281
0
  0
CLASS
  1
ACDBPLACEHOLDER
  2
AcDbPlaceHolder
  3
ObjectDBX Classes
 90
0
280
0
281
0
  0
CLASS
  1
LAYOUT
  2
AcDbLayout
  3
ObjectDBX Classes
 90
0
280
0
281
0
  0
ENDSEC
  0
SECTION
  2
TABLES
  0
TABLE
  2
VPORT
  5
8
330
0
100
AcDbSymbolTable
 70
1
  0
VPORT
  5
23
330
8
100
AcDbSymbolTableRecord
100
AcDbViewportTableRecord
  2
*Active
 70
0
 10
0.0
 20
0.0
 11
1.0
 21
1.0
 12
0.0
 22
0.0
 13
0.0
 23
0.0
 14
0.5
 24
0.5
 15
0.5
 25
0.5
 16
0.0
 26
0.0
 36
1.0
 17
0.0
 27
0.0
 37
0.0
 40
1000.0
 41
1.34
 42
50.0
 43
0.0
 44
0.0
 50
0.0
 51
0.0
 71
0
 72
1000
 73
1
 74
3
 75
0
 76
0
 77
0
 78
0
281
0
 65
0
146
0.0
  0
ENDTAB
  0
TABLE
  2
LTYPE
  5
2
330
0
100
AcDbSymbolTable
 70
3
  0
LTYPE
  5
24
330
2
100
AcDbSymbolTableRecord
100
AcDbLinetypeTableRecord
  2
ByBlock
 70
0
  3

 72
65
 73
0
 40
0.0
  0
LTYPE
  5
25
330
2
100
AcDbSymbolTableRecord
100
AcDbLinetypeTableRecord
  2
ByLayer
 70
0
  3

 72
65
 73
0
 40
0.0
  0
LTYPE
  5
26
330
2
100
AcDbSymbolTableRecord
100
AcDbLinetypeTableRecord
  2
Continuous
 70
0
  3

 72
65
 73
0
 40
0.0
  0
ENDTAB
  0
TABLE
  2
LAYER
  5
1
330
0
100
AcDbSymbolTable
 70
6
  0
LAYER
  5
27
330
1
100
AcDbSymbolTableRecord
100
AcDbLayerTableRecord
  2
0
 70
0
 62
7
  6
Continuous
370
-3
390
13
  0
LAYER
  5
28
330
1
100
AcDbSymbolTableRecord
100
AcDbLayerTableRecord
  2
Defpoints
 70
0
 62
7
  6
Continuous
290
0
370
-3
390
13
  0
LAYER
  5
2F
330
1
100
AcDbSymbolTableRecord
100
AcDbLayerTableRecord
  2
OUTLINE
 70
0
 62
7
  6
Continuous
370
-3
390
13
  0
LAYER
  5
30
330
1
100
AcDbSymbolTableRecord
100
AcDbLayerTableRecord
  2
HIDDEN
 70
0
 62
8
  6
Continuous
370
-3
390
13
  0
LAYER
  5
31
330
1
100
AcDbSymbolTableRecord
100
AcDbLayerTableRecord
  2
DIM
 70
0
 62
4
  6
Continuous
370
-3
390
13
  0
LAYER
  5
32
330
1
100
AcDbSymbolTableRecord
100
AcDbLayerTableRecord
  2
TEXT
 70
0
 62
7
  6
Continuous
370
-3
390
13
  0
ENDTAB
  0
TABLE
  2
STYLE
  5
5
330
0
100
AcDbSymbolTable
 70
1
  0
STYLE
  5
29
330
5
100
AcDbSymbolTableRecord
100
AcDbTextStyleTableRecord
  2
Standard
 70
0
 40
0.0
 41
1.0
 50
0.0
 71
0
 42
2.5
  3
txt
  4

  0
ENDTAB
  0
TABLE
  2
VIEW
  5
7
330
0
100
AcDbSymbolTable
 70
0
  0
ENDTAB
  0
TABLE
  2
UCS
  5
6
330
0
100
AcDbSymbolTable
 70
0
  0
ENDTAB
  0
TABLE
  2
APPID
  5
3
330
0
100
AcDbSymbolTable
 70
3
  0
APPID
  5
2A
330
3
100
AcDbSymbolTableRecord
100
AcDbRegAppTableRecord
  2
ACAD
 70
0
  0
APPID
  5
11B
330
3
100
AcDbSymbolTableRecord
100
AcDbRegAppTableRecord
  2
HATCHBACKGROUNDCOLOR
 70
0
  0
APPID
  5
11C
330
3
100
AcDbSymbolTableRecord
100
AcDbRegAppTableRecord
  2
EZDXF
 70
0
  0
ENDTAB
  0
TABLE
  2
DIMSTYLE
  5
4
330
0
100
AcDbSymbolTable
 70
1
100
AcDbDimStyleTable
  0
DIMSTYLE
105
2B
330
4
100
AcDbSymbolTableRecord
100
AcDbDimStyleTableRecord
  2
Standard
 70
0
  3

  4

 40
1.0
 41
2.5
 42
0.625
 43
3.75
 44
1.25
 45
0.0
 46
0.0
 47
0.0
 48
0.0
140
2.5
141
2.5
142
0.0
143
0.03937007874
144
1.0
145
0.0
146
1.0
147
0.625
148
0.0
 71
0
 72
0
 73
0
 74
0
 75
0
 76
0
 77
1
 78
8
 79
3
170
0
171
3
172
1
173
0
174
0
175
0
176
0
177
0
178
0
179
2
271
2
272
2
273
2
274
3
275
0
276
0
277
2
278
44
279
0
280
0
281
0
282
0
283
0
284
8
285
0
286
0
288
0
289
3
371
-2
372
-2
  0
ENDTAB
  0
TABLE
  2
BLOCK_RECORD
  5
9
330
0
100
AcDbSymbolTable
 70
2
  0
BLOCK_RECORD
  5
17
330
9
100
AcDbSymbolTableRecord
100
AcDbBlockTableRecord
  2
*Model_Space
340
1A
  0
BLOCK_RECORD
  5
1B
330
9
100
AcDbSymbolTableRecord
100
AcDbBlockTableRecord
  2
*Paper_Space
340
1E
  0
ENDTAB
  0
ENDSEC
  0
SECTION
  2
BLOCKS
  0
BLOCK
  5
18
330
17
100
AcDbEntity
  8
0
100
AcDbBlockBegin
  2
*Model_Space
 70
0
 10
0.0
 20
0.0
 30
0.0
  3
*Model_Space
  1

  0
ENDBLK
  5
19
330
17
100
AcDbEntity
  8
0
100
AcDbBlockEnd
  0
BLOCK
  5
1C
330
1B
100
AcDbEntity
  8
0
100
AcDbBlockBegin
  2
*Paper_Space
 70
0
 10
0.0
 20
0.0
 30
0.0
  3
*Paper_Space
  1

  0
ENDBLK
  5
1D
330
1B
100
AcDbEntity
  8
0
100
AcDbBlockEnd
  0
ENDSEC
  0
SECTION
  2
ENTITIES
  0
LWPOLYLINE
  5
33
330
17
100
AcDbEntity
  8
OUTLINE
100
AcDbPolyline
 90
5
 70
0
 10
8.0
 20
8.0
 10
412.0
 20
8.0
 10
412.0
 20
289.0
 10
8.0
 20
289.0
 10
8.0
 20
8.0
  0
TEXT
  5
34
330
17
100
AcDbEntity
  8
TEXT
100
AcDbText
 10
15.0
 20
278.0
 30
0.0
 40
5.0
  1
P02  |  P02 BLOCK1 CARRIAGE
100
AcDbText
  0
TEXT
  5
35
330
17
100
AcDbEntity
  8
TEXT
100
AcDbText
 10
15.0
 20
270.0
 30
0.0
 40
2.6
  1
Prototype Rev A | Units mm | Dimensions control; do not scale printed pages
100
AcDbText
  0
LWPOLYLINE
  5
36
330
17
100
AcDbEntity
  8
OUTLINE
100
AcDbPolyline
 90
2
 70
0
 10
8.0
 20
32.0
 10
412.0
 20
32.0
  0
TEXT
  5
37
330
17
100
AcDbEntity
  8
TEXT
100
AcDbText
 10
15.0
 20
22.0
 30
0.0
 40
3.0
  1
HF-01  /  MAGNET-SENSOR CHARACTERIZATION
100
AcDbText
  0
TEXT
  5
38
330
17
100
AcDbEntity
  8
TEXT
100
AcDbText
 10
15.0
 20
15.0
 30
0.0
 40
2.4
  1
REV A  |  2026-09-09  |  Printed parts + McMaster COTS  |  Room-temperature bench prototype
100
AcDbText
  0
TEXT
  5
39
330
17
100
AcDbEntity
  8
TEXT
100
AcDbText
 10
332.0
 20
20.0
 30
0.0
 40
3.0
  1
P02  |  A3  |  MM
100
AcDbText
  0
LWPOLYLINE
  5
3A
330
17
100
AcDbEntity
  8
HIDDEN
100
AcDbPolyline
 90
29
 70
0
 10
157.0
 20
225.0
 10
156.87463956090912
 20
226.11260466978158
 10
156.50484433951212
 20
227.16941869558778
 10
155.90915741234016
 20
228.11744900929367
 10
155.11744900929367
 20
228.90915741234016
 10
154.16941869558778
 20
229.5048443395121
 10
153.11260466978158
 20
229.87463956090912
 10
152.0
 20
230.0
 10
150.88739533021845
 20
229.87463956090912
 10
149.83058130441222
 20
229.5048443395121
 10
148.88255099070633
 20
228.90915741234016
 10
148.09084258765984
 20
228.11744900929367
 10
147.4951556604879
 20
227.16941869558778
 10
147.1253604390909
 20
226.11260466978158
 10
147.0
 20
225.0
 10
147.1253604390909
 20
223.88739533021842
 10
147.4951556604879
 20
222.83058130441222
 10
148.09084258765984
 20
221.88255099070633
 10
148.88255099070633
 20
221.09084258765986
 10
149.83058130441222
 20
220.4951556604879
 10
150.88739533021845
 20
220.12536043909088
 10
152.0
 20
220.0
 10
153.11260466978158
 20
220.12536043909088
 10
154.16941869558778
 20
220.4951556604879
 10
155.11744900929367
 20
221.09084258765986
 10
155.90915741234016
 20
221.88255099070633
 10
156.50484433951212
 20
222.83058130441222
 10
156.87463956090912
 20
223.88739533021842
 10
157.0
 20
225.0
  0
LWPOLYLINE
  5
3B
330
17
100
AcDbEntity
  8
HIDDEN
100
AcDbPolyline
 90
24
 70
0
 10
155.33333333333334
 20
225.0
 10
155.20972429115935
 20
225.89932257052342
 10
154.84806468182165
 20
226.7319465001181
 10
154.27517714406218
 20
227.4361198809271
 10
153.53355012577052
 20
227.95961739467458
 10
152.67818671017545
 20
228.26361362560775
 10
151.77252528878444
 20
228.32556256396848
 10
150.88373462609673
 20
228.14086974039606
 10
150.0777322596171
 20
227.72323297670147
 10
149.41429569765194
 20
227.10362648108685
 10
148.94262899498182
 20
226.3280036328208
 10
148.69771351321225
 20
225.45388883032084
 10
148.69771351321225
 20
224.5461111696792
 10
148.94262899498182
 20
223.6719963671792
 10
149.41429569765194
 20
222.89637351891315
 10
150.0777322596171
 20
222.27676702329853
 10
150.88373462609673
 20
221.85913025960394
 10
151.77252528878444
 20
221.67443743603152
 10
152.67818671017545
 20
221.73638637439225
 10
153.5335501257705
 20
222.04038260532542
 10
154.27517714406218
 20
222.5638801190729
 10
154.84806468182165
 20
223.2680534998819
 10
155.20972429115935
 20
224.10067742947658
 10
155.33333333333334
 20
225.0
  0
LWPOLYLINE
  5
3C
330
17
100
AcDbEntity
  8
HIDDEN
100
AcDbPolyline
 90
24
 70
0
 10
155.33333333333334
 20
225.0
 10
155.20972429115935
 20
225.89932257052342
 10
154.84806468182165
 20
226.7319465001181
 10
154.27517714406218
 20
227.4361198809271
 10
153.53355012577052
 20
227.95961739467458
 10
152.67818671017545
 20
228.26361362560775
 10
151.77252528878444
 20
228.32556256396848
 10
150.88373462609673
 20
228.14086974039606
 10
150.0777322596171
 20
227.72323297670147
 10
149.41429569765194
 20
227.10362648108685
 10
148.94262899498182
 20
226.3280036328208
 10
148.69771351321225
 20
225.45388883032084
 10
148.69771351321225
 20
224.5461111696792
 10
148.94262899498182
 20
223.6719963671792
 10
149.41429569765194
 20
222.89637351891315
 10
150.0777322596171
 20
222.27676702329853
 10
150.88373462609673
 20
221.85913025960394
 10
151.77252528878444
 20
221.67443743603152
 10
152.67818671017545
 20
221.73638637439225
 10
153.5335501257705
 20
222.04038260532542
 10
154.27517714406218
 20
222.5638801190729
 10
154.84806468182165
 20
223.2680534998819
 10
155.20972429115935
 20
224.10067742947658
 10
155.33333333333334
 20
225.0
  0
LWPOLYLINE
  5
3D
330
17
100
AcDbEntity
  8
HIDDEN
100
AcDbPolyline
 90
2
 70
0
 10
185.33333333333334
 20
220.0
 10
192.0
 20
220.0
  0
LWPOLYLINE
  5
3E
330
17
100
AcDbEntity
  8
HIDDEN
100
AcDbPolyline
 90
2
 70
0
 10
185.33333333333334
 20
200.0
 10
185.33333333333334
 20
220.0
  0
LWPOLYLINE
  5
3F
330
17
100
AcDbEntity
  8
HIDDEN
100
AcDbPolyline
 90
2
 70
0
 10
185.33333333333334
 20
200.0
 10
192.0
 20
200.0
  0
LWPOLYLINE
  5
40
330
17
100
AcDbEntity
  8
HIDDEN
100
AcDbPolyline
 90
2
 70
0
 10
22.0
 20
235.0
 10
192.0
 20
235.0
  0
LWPOLYLINE
  5
41
330
17
100
AcDbEntity
  8
HIDDEN
100
AcDbPolyline
 90
2
 70
0
 10
192.0
 20
185.0
 10
192.0
 20
235.0
  0
LWPOLYLINE
  5
42
330
17
100
AcDbEntity
  8
HIDDEN
100
AcDbPolyline
 90
2
 70
0
 10
22.0
 20
185.0
 10
22.0
 20
235.0
  0
LWPOLYLINE
  5
43
330
17
100
AcDbEntity
  8
HIDDEN
100
AcDbPolyline
 90
2
 70
0
 10
22.0
 20
185.0
 10
192.0
 20
185.0
  0
LWPOLYLINE
  5
44
330
17
100
AcDbEntity
  8
HIDDEN
100
AcDbPolyline
 90
22
 70
0
 10
38.16666666666667
 20
196.66666666666666
 10
38.040789616394065
 20
197.50180632749755
 10
37.67434319389532
 20
198.2627401645136
 10
37.099887771933076
 20
198.88185586699274
 10
36.36846623570479
 20
199.30414228782524
 10
35.545068598494865
 20
199.49207742534668
 10
34.70285735379044
 20
199.4289624178485
 10
33.916666666666664
 20
199.1204053107226
 10
33.25635302981549
 20
198.5938227570176
 10
32.78058820760981
 20
197.89600392749975
 10
32.53164599236214
 20
197.08895308749916
 10
32.53164599236214
 20
196.24438024583418
 10
32.78058820760981
 20
195.4373294058336
 10
33.25635302981549
 20
194.73951057631572
 10
33.916666666666664
 20
194.21292802261075
 10
34.70285735379044
 20
193.90437091548483
 10
35.545068598494865
 20
193.84125590798666
 10
36.36846623570479
 20
194.0291910455081
 10
37.09988777193308
 20
194.45147746634058
 10
37.674343193895325
 20
195.07059316881973
 10
38.040789616394065
 20
195.83152700583577
 10
38.16666666666667
 20
196.66666666666669
  0
LWPOLYLINE
  5
45
330
17
100
AcDbEntity
  8
HIDDEN
100
AcDbPolyline
 90
22
 70
0
 10
38.16666666666667
 20
223.33333333333334
 10
38.040789616394065
 20
224.16847299416423
 10
37.67434319389532
 20
224.92940683118027
 10
37.099887771933076
 20
225.54852253365942
 10
36.36846623570479
 20
225.9708089544919
 10
35.545068598494865
 20
226.15874409201334
 10
34.70285735379044
 20
226.09562908451517
 10
33.916666666666664
 20
225.78707197738925
 10
33.25635302981549
 20
225.26048942368428
 10
32.78058820760981
 20
224.5626705941664
 10
32.53164599236214
 20
223.75561975416582
 10
32.53164599236214
 20
222.91104691250084
 10
32.78058820760981
 20
222.10399607250025
 10
33.25635302981549
 20
221.4061772429824
 10
33.916666666666664
 20
220.8795946892774
 10
34.70285735379044
 20
220.5710375821515
 10
35.545068598494865
 20
220.50792257465332
 10
36.36846623570479
 20
220.69585771217476
 10
37.09988777193308
 20
221.11814413300726
 10
37.674343193895325
 20
221.7372598354864
 10
38.040789616394065
 20
222.49819367250245
 10
38.16666666666667
 20
223.33333333333334
  0
LWPOLYLINE
  5
46
330
17
100
AcDbEntity
  8
HIDDEN
100
AcDbPolyline
 90
2
 70
0
 10
32.542807032250145
 20
201.5
 10
38.123859634416526
 20
201.5
  0
LWPOLYLINE
  5
47
330
17
100
AcDbEntity
  8
HIDDEN
100
AcDbPolyline
 90
2
 70
0
 10
29.75228073116695
 20
196.66666666666666
 10
32.542807032250145
 20
201.5
  0
LWPOLYLINE
  5
48
330
17
100
AcDbEntity
  8
HIDDEN
100
AcDbPolyline
 90
2
 70
0
 10
38.123859634416526
 20
201.5
 10
40.914385935499716
 20
196.66666666666666
  0
LWPOLYLINE
  5
49
330
17
100
AcDbEntity
  8
HIDDEN
100
AcDbPolyline
 90
2
 70
0
 10
32.54280703225014
 20
191.83333333333334
 10
29.75228073116695
 20
196.66666666666666
  0
LWPOLYLINE
  5
4A
330
17
100
AcDbEntity
  8
HIDDEN
100
AcDbPolyline
 90
2
 70
0
 10
40.914385935499716
 20
196.66666666666666
 10
38.12385963441652
 20
191.83333333333334
  0
LWPOLYLINE
  5
4B
330
17
100
AcDbEntity
  8
HIDDEN
100
AcDbPolyline
 90
2
 70
0
 10
38.12385963441652
 20
191.83333333333334
 10
32.54280703225014
 20
191.83333333333334
  0
LWPOLYLINE
  5
4C
330
17
100
AcDbEntity
  8
HIDDEN
100
AcDbPolyline
 90
2
 70
0
 10
32.542807032250145
 20
228.16666666666666
 10
38.123859634416526
 20
228.16666666666666
  0
LWPOLYLINE
  5
4D
330
17
100
AcDbEntity
  8
HIDDEN
100
AcDbPolyline
 90
2
 70
0
 10
29.75228073116695
 20
223.33333333333334
 10
32.542807032250145
 20
228.16666666666669
  0
LWPOLYLINE
  5
4E
330
17
100
AcDbEntity
  8
HIDDEN
100
AcDbPolyline
 90
2
 70
0
 10
32.54280703225014
 20
218.5
 10
29.75228073116695
 20
223.33333333333334
  0
LWPOLYLINE
  5
4F
330
17
100
AcDbEntity
  8
HIDDEN
100
AcDbPolyline
 90
2
 70
0
 10
38.12385963441652
 20
218.5
 10
32.54280703225014
 20
218.5
  0
LWPOLYLINE
  5
50
330
17
100
AcDbEntity
  8
HIDDEN
100
AcDbPolyline
 90
2
 70
0
 10
40.914385935499716
 20
223.33333333333334
 10
38.12385963441652
 20
218.5
  0
LWPOLYLINE
  5
51
330
17
100
AcDbEntity
  8
HIDDEN
100
AcDbPolyline
 90
2
 70
0
 10
38.12385963441653
 20
228.16666666666666
 10
40.914385935499716
 20
223.33333333333334
  0
LWPOLYLINE
  5
52
330
17
100
AcDbEntity
  8
HIDDEN
100
AcDbPolyline
 90
2
 70
0
 10
40.914385935499716
 20
196.66666666666666
 10
38.123859634416526
 20
201.5
  0
LWPOLYLINE
  5
53
330
17
100
AcDbEntity
  8
HIDDEN
100
AcDbPolyline
 90
2
 70
0
 10
38.12385963441652
 20
191.83333333333334
 10
40.914385935499716
 20
196.66666666666666
  0
LWPOLYLINE
  5
54
330
17
100
AcDbEntity
  8
HIDDEN
100
AcDbPolyline
 90
2
 70
0
 10
38.123859634416526
 20
201.5
 10
32.542807032250145
 20
201.5
  0
LWPOLYLINE
  5
55
330
17
100
AcDbEntity
  8
HIDDEN
100
AcDbPolyline
 90
2
 70
0
 10
32.54280703225014
 20
191.83333333333334
 10
38.12385963441652
 20
191.83333333333334
  0
LWPOLYLINE
  5
56
330
17
100
AcDbEntity
  8
HIDDEN
100
AcDbPolyline
 90
2
 70
0
 10
32.542807032250145
 20
201.5
 10
29.75228073116695
 20
196.66666666666666
  0
LWPOLYLINE
  5
57
330
17
100
AcDbEntity
  8
HIDDEN
100
AcDbPolyline
 90
2
 70
0
 10
29.75228073116695
 20
196.66666666666666
 10
32.54280703225014
 20
191.83333333333334
  0
LWPOLYLINE
  5
58
330
17
100
AcDbEntity
  8
HIDDEN
100
AcDbPolyline
 90
2
 70
0
 10
40.914385935499716
 20
223.33333333333334
 10
38.123859634416526
 20
228.16666666666666
  0
LWPOLYLINE
  5
59
330
17
100
AcDbEntity
  8
HIDDEN
100
AcDbPolyline
 90
2
 70
0
 10
38.12385963441652
 20
218.5
 10
40.914385935499716
 20
223.33333333333334
  0
LWPOLYLINE
  5
5A
330
17
100
AcDbEntity
  8
HIDDEN
100
AcDbPolyline
 90
2
 70
0
 10
38.123859634416526
 20
228.16666666666666
 10
32.542807032250145
 20
228.16666666666666
  0
LWPOLYLINE
  5
5B
330
17
100
AcDbEntity
  8
HIDDEN
100
AcDbPolyline
 90
2
 70
0
 10
32.54280703225014
 20
218.5
 10
38.12385963441652
 20
218.5
  0
LWPOLYLINE
  5
5C
330
17
100
AcDbEntity
  8
HIDDEN
100
AcDbPolyline
 90
2
 70
0
 10
32.542807032250145
 20
228.16666666666666
 10
29.75228073116695
 20
223.33333333333334
  0
LWPOLYLINE
  5
5D
330
17
100
AcDbEntity
  8
HIDDEN
100
AcDbPolyline
 90
2
 70
0
 10
29.75228073116695
 20
223.33333333333334
 10
32.54280703225014
 20
218.5
  0
LWPOLYLINE
  5
5E
330
17
100
AcDbEntity
  8
OUTLINE
100
AcDbPolyline
 90
29
 70
0
 10
157.0
 20
225.0
 10
156.87463956090912
 20
226.11260466978158
 10
156.50484433951212
 20
227.16941869558778
 10
155.90915741234016
 20
228.11744900929367
 10
155.11744900929367
 20
228.90915741234016
 10
154.16941869558778
 20
229.5048443395121
 10
153.11260466978158
 20
229.87463956090912
 10
152.0
 20
230.0
 10
150.88739533021845
 20
229.87463956090912
 10
149.83058130441222
 20
229.5048443395121
 10
148.88255099070633
 20
228.90915741234016
 10
148.09084258765984
 20
228.11744900929367
 10
147.4951556604879
 20
227.16941869558778
 10
147.1253604390909
 20
226.11260466978158
 10
147.0
 20
225.0
 10
147.1253604390909
 20
223.88739533021842
 10
147.4951556604879
 20
222.83058130441222
 10
148.09084258765984
 20
221.88255099070633
 10
148.88255099070633
 20
221.09084258765986
 10
149.83058130441222
 20
220.4951556604879
 10
150.88739533021845
 20
220.12536043909088
 10
152.0
 20
220.0
 10
153.11260466978158
 20
220.12536043909088
 10
154.16941869558778
 20
220.4951556604879
 10
155.11744900929367
 20
221.09084258765986
 10
155.90915741234016
 20
221.88255099070633
 10
156.50484433951212
 20
222.83058130441222
 10
156.87463956090912
 20
223.88739533021842
 10
157.0
 20
225.0
  0
LWPOLYLINE
  5
5F
330
17
100
AcDbEntity
  8
OUTLINE
100
AcDbPolyline
 90
2
 70
0
 10
22.0
 20
235.0
 10
192.0
 20
235.0
  0
LWPOLYLINE
  5
60
330
17
100
AcDbEntity
  8
OUTLINE
100
AcDbPolyline
 90
2
 70
0
 10
192.0
 20
220.0
 10
192.0
 20
235.0
  0
LWPOLYLINE
  5
61
330
17
100
AcDbEntity
  8
OUTLINE
100
AcDbPolyline
 90
2
 70
0
 10
22.0
 20
185.0
 10
22.0
 20
235.0
  0
LWPOLYLINE
  5
62
330
17
100
AcDbEntity
  8
OUTLINE
100
AcDbPolyline
 90
2
 70
0
 10
22.0
 20
185.0
 10
192.0
 20
185.0
  0
LWPOLYLINE
  5
63
330
17
100
AcDbEntity
  8
OUTLINE
100
AcDbPolyline
 90
2
 70
0
 10
192.0
 20
185.0
 10
192.0
 20
200.0
  0
LWPOLYLINE
  5
64
330
17
100
AcDbEntity
  8
OUTLINE
100
AcDbPolyline
 90
22
 70
0
 10
38.16666666666667
 20
196.66666666666666
 10
38.040789616394065
 20
197.50180632749755
 10
37.67434319389532
 20
198.2627401645136
 10
37.099887771933076
 20
198.88185586699274
 10
36.36846623570479
 20
199.30414228782524
 10
35.545068598494865
 20
199.49207742534668
 10
34.70285735379044
 20
199.4289624178485
 10
33.916666666666664
 20
199.1204053107226
 10
33.25635302981549
 20
198.5938227570176
 10
32.78058820760981
 20
197.89600392749975
 10
32.53164599236214
 20
197.08895308749916
 10
32.53164599236214
 20
196.24438024583418
 10
32.78058820760981
 20
195.4373294058336
 10
33.25635302981549
 20
194.73951057631572
 10
33.916666666666664
 20
194.21292802261075
 10
34.70285735379044
 20
193.90437091548483
 10
35.545068598494865
 20
193.84125590798666
 10
36.36846623570479
 20
194.0291910455081
 10
37.09988777193308
 20
194.45147746634058
 10
37.674343193895325
 20
195.07059316881973
 10
38.040789616394065
 20
195.83152700583577
 10
38.16666666666667
 20
196.66666666666669
  0
LWPOLYLINE
  5
65
330
17
100
AcDbEntity
  8
OUTLINE
100
AcDbPolyline
 90
22
 70
0
 10
38.16666666666667
 20
223.33333333333334
 10
38.040789616394065
 20
224.16847299416423
 10
37.67434319389532
 20
224.92940683118027
 10
37.099887771933076
 20
225.54852253365942
 10
36.36846623570479
 20
225.9708089544919
 10
35.545068598494865
 20
226.15874409201334
 10
34.70285735379044
 20
226.09562908451517
 10
33.916666666666664
 20
225.78707197738925
 10
33.25635302981549
 20
225.26048942368428
 10
32.78058820760981
 20
224.5626705941664
 10
32.53164599236214
 20
223.75561975416582
 10
32.53164599236214
 20
222.91104691250084
 10
32.78058820760981
 20
222.10399607250025
 10
33.25635302981549
 20
221.4061772429824
 10
33.916666666666664
 20
220.8795946892774
 10
34.70285735379044
 20
220.5710375821515
 10
35.545068598494865
 20
220.50792257465332
 10
36.36846623570479
 20
220.69585771217476
 10
37.09988777193308
 20
221.11814413300726
 10
37.674343193895325
 20
221.7372598354864
 10
38.040789616394065
 20
222.49819367250245
 10
38.16666666666667
 20
223.33333333333334
  0
LWPOLYLINE
  5
66
330
17
100
AcDbEntity
  8
OUTLINE
100
AcDbPolyline
 90
2
 70
0
 10
192.0
 20
200.0
 10
192.0
 20
220.0
  0
LWPOLYLINE
  5
67
330
17
100
AcDbEntity
  8
OUTLINE
100
AcDbPolyline
 90
2
 70
0
 10
185.33333333333334
 20
220.0
 10
192.0
 20
220.0
  0
LWPOLYLINE
  5
68
330
17
100
AcDbEntity
  8
OUTLINE
100
AcDbPolyline
 90
2
 70
0
 10
185.33333333333334
 20
200.0
 10
185.33333333333334
 20
220.0
  0
LWPOLYLINE
  5
69
330
17
100
AcDbEntity
  8
OUTLINE
100
AcDbPolyline
 90
2
 70
0
 10
185.33333333333334
 20
200.0
 10
192.0
 20
200.0
  0
TEXT
  5
6A
330
17
100
AcDbEntity
  8
TEXT
100
AcDbText
 10
22.0
 20
165.0
 30
0.0
 40
2.6
  1
TOP  (view scale 1.67:1)
100
AcDbText
  0
LWPOLYLINE
  5
6B
330
17
100
AcDbEntity
  8
HIDDEN
100
AcDbPolyline
 90
15
 70
0
 10
157.0
 20
97.5
 10
156.87463956090912
 20
97.5
 10
156.50484433951212
 20
97.5
 10
155.90915741234016
 20
97.5
 10
155.11744900929367
 20
97.5
 10
154.16941869558778
 20
97.5
 10
153.11260466978158
 20
97.5
 10
152.0
 20
97.5
 10
150.88739533021845
 20
97.5
 10
149.83058130441222
 20
97.5
 10
148.88255099070633
 20
97.5
 10
148.09084258765984
 20
97.5
 10
147.4951556604879
 20
97.5
 10
147.1253604390909
 20
97.5
 10
147.0
 20
97.5
  0
LWPOLYLINE
  5
6C
330
17
100
AcDbEntity
  8
HIDDEN
100
AcDbPolyline
 90
15
 70
0
 10
157.0
 20
95.83333333333333
 10
156.87463956090912
 20
95.83333333333333
 10
156.50484433951212
 20
95.83333333333333
 10
155.90915741234016
 20
95.83333333333333
 10
155.11744900929367
 20
95.83333333333333
 10
154.16941869558778
 20
95.83333333333333
 10
153.11260466978158
 20
95.83333333333333
 10
152.0
 20
95.83333333333333
 10
150.88739533021845
 20
95.83333333333333
 10
149.83058130441222
 20
95.83333333333333
 10
148.88255099070633
 20
95.83333333333333
 10
148.09084258765984
 20
95.83333333333333
 10
147.4951556604879
 20
95.83333333333333
 10
147.1253604390909
 20
95.83333333333333
 10
147.0
 20
95.83333333333333
  0
LWPOLYLINE
  5
6D
330
17
100
AcDbEntity
  8
HIDDEN
100
AcDbPolyline
 90
15
 70
0
 10
155.33333333333334
 20
95.83333333333333
 10
155.24975970727277
 20
95.83333333333333
 10
155.00322955967474
 20
95.83333333333333
 10
154.6061049415601
 20
95.83333333333333
 10
154.0782993395291
 20
95.83333333333333
 10
153.44627913039187
 20
95.83333333333333
 10
152.74173644652106
 20
95.83333333333333
 10
152.0
 20
95.83333333333333
 10
151.25826355347894
 20
95.83333333333333
 10
150.55372086960813
 20
95.83333333333333
 10
149.9217006604709
 20
95.83333333333333
 10
149.3938950584399
 20
95.83333333333333
 10
148.99677044032526
 20
95.83333333333333
 10
148.75024029272726
 20
95.83333333333333
 10
148.66666666666669
 20
95.83333333333333
  0
LWPOLYLINE
  5
6E
330
17
100
AcDbEntity
  8
HIDDEN
100
AcDbPolyline
 90
15
 70
0
 10
148.66666666666669
 20
95.83333333333333
 10
148.75024029272726
 20
95.83333333333333
 10
148.99677044032526
 20
95.83333333333333
 10
149.3938950584399
 20
95.83333333333333
 10
149.9217006604709
 20
95.83333333333333
 10
150.55372086960813
 20
95.83333333333333
 10
151.25826355347894
 20
95.83333333333333
 10
152.0
 20
95.83333333333333
 10
152.74173644652103
 20
95.83333333333333
 10
153.44627913039184
 20
95.83333333333333
 10
154.0782993395291
 20
95.83333333333333
 10
154.6061049415601
 20
95.83333333333333
 10
155.00322955967474
 20
95.83333333333333
 10
155.24975970727277
 20
95.83333333333333
 10
155.33333333333334
 20
95.83333333333333
  0
LWPOLYLINE
  5
6F
330
17
100
AcDbEntity
  8
HIDDEN
100
AcDbPolyline
 90
15
 70
0
 10
155.33333333333334
 20
89.16666666666666
 10
155.24975970727277
 20
89.16666666666666
 10
155.00322955967474
 20
89.16666666666666
 10
154.6061049415601
 20
89.16666666666666
 10
154.0782993395291
 20
89.16666666666666
 10
153.44627913039187
 20
89.16666666666666
 10
152.74173644652106
 20
89.16666666666666
 10
152.0
 20
89.16666666666666
 10
151.25826355347894
 20
89.16666666666666
 10
150.55372086960813
 20
89.16666666666666
 10
149.9217006604709
 20
89.16666666666666
 10
149.3938950584399
 20
89.16666666666666
 10
148.99677044032526
 20
89.16666666666666
 10
148.75024029272726
 20
89.16666666666666
 10
148.66666666666669
 20
89.16666666666666
  0
LWPOLYLINE
  5
70
330
17
100
AcDbEntity
  8
HIDDEN
100
AcDbPolyline
 90
15
 70
0
 10
148.66666666666669
 20
89.16666666666666
 10
148.75024029272726
 20
89.16666666666666
 10
148.99677044032526
 20
89.16666666666666
 10
149.3938950584399
 20
89.16666666666666
 10
149.9217006604709
 20
89.16666666666666
 10
150.55372086960813
 20
89.16666666666666
 10
151.25826355347894
 20
89.16666666666666
 10
152.0
 20
89.16666666666666
 10
152.74173644652103
 20
89.16666666666666
 10
153.44627913039184
 20
89.16666666666666
 10
154.0782993395291
 20
89.16666666666666
 10
154.6061049415601
 20
89.16666666666666
 10
155.00322955967474
 20
89.16666666666666
 10
155.24975970727277
 20
89.16666666666666
 10
155.33333333333334
 20
89.16666666666666
  0
LWPOLYLINE
  5
71
330
17
100
AcDbEntity
  8
HIDDEN
100
AcDbPolyline
 90
2
 70
0
 10
22.0
 20
89.16666666666666
 10
192.0
 20
89.16666666666666
  0
LWPOLYLINE
  5
72
330
17
100
AcDbEntity
  8
HIDDEN
100
AcDbPolyline
 90
2
 70
0
 10
185.33333333333334
 20
89.16666666666666
 10
192.0
 20
89.16666666666666
  0
LWPOLYLINE
  5
73
330
17
100
AcDbEntity
  8
HIDDEN
100
AcDbPolyline
 90
2
 70
0
 10
185.33333333333334
 20
89.16666666666666
 10
192.0
 20
89.16666666666666
  0
LWPOLYLINE
  5
74
330
17
100
AcDbEntity
  8
HIDDEN
100
AcDbPolyline
 90
15
 70
0
 10
38.16666666666667
 20
89.16666666666666
 10
38.09562908451517
 20
89.16666666666666
 10
37.886078459056854
 20
89.16666666666666
 10
37.54852253365942
 20
89.16666666666666
 10
37.099887771933076
 20
89.16666666666666
 10
36.56267059416642
 20
89.16666666666666
 10
35.96380931287622
 20
89.16666666666666
 10
35.333333333333336
 20
89.16666666666666
 10
34.70285735379044
 20
89.16666666666666
 10
34.10399607250025
 20
89.16666666666666
 10
33.56677889473359
 20
89.16666666666666
 10
33.11814413300725
 20
89.16666666666666
 10
32.78058820760981
 20
89.16666666666666
 10
32.5710375821515
 20
89.16666666666666
 10
32.5
 20
89.16666666666666
  0
LWPOLYLINE
  5
75
330
17
100
AcDbEntity
  8
HIDDEN
100
AcDbPolyline
 90
15
 70
0
 10
32.5
 20
89.16666666666666
 10
32.5710375821515
 20
89.16666666666666
 10
32.78058820760981
 20
89.16666666666666
 10
33.11814413300725
 20
89.16666666666666
 10
33.56677889473359
 20
89.16666666666666
 10
34.10399607250025
 20
89.16666666666666
 10
34.70285735379044
 20
89.16666666666666
 10
35.333333333333336
 20
89.16666666666666
 10
35.96380931287622
 20
89.16666666666666
 10
36.56267059416642
 20
89.16666666666666
 10
37.099887771933076
 20
89.16666666666666
 10
37.54852253365942
 20
89.16666666666666
 10
37.886078459056854
 20
89.16666666666666
 10
38.09562908451517
 20
89.16666666666666
 10
38.166666666666664
 20
89.16666666666666
  0
LWPOLYLINE
  5
76
330
17
100
AcDbEntity
  8
HIDDEN
100
AcDbPolyline
 90
15
 70
0
 10
38.16666666666667
 20
89.16666666666666
 10
38.09562908451517
 20
89.16666666666666
 10
37.886078459056854
 20
89.16666666666666
 10
37.54852253365942
 20
89.16666666666666
 10
37.099887771933076
 20
89.16666666666666
 10
36.56267059416642
 20
89.16666666666666
 10
35.96380931287622
 20
89.16666666666666
 10
35.333333333333336
 20
89.16666666666666
 10
34.70285735379044
 20
89.16666666666666
 10
34.10399607250025
 20
89.16666666666666
 10
33.56677889473359
 20
89.16666666666666
 10
33.11814413300725
 20
89.16666666666666
 10
32.78058820760981
 20
89.16666666666666
 10
32.5710375821515
 20
89.16666666666666
 10
32.5
 20
89.16666666666666
  0
LWPOLYLINE
  5
77
330
17
100
AcDbEntity
  8
HIDDEN
100
AcDbPolyline
 90
15
 70
0
 10
32.5
 20
89.16666666666666
 10
32.5710375821515
 20
89.16666666666666
 10
32.78058820760981
 20
89.16666666666666
 10
33.11814413300725
 20
89.16666666666666
 10
33.56677889473359
 20
89.16666666666666
 10
34.10399607250025
 20
89.16666666666666
 10
34.70285735379044
 20
89.16666666666666
 10
35.333333333333336
 20
89.16666666666666
 10
35.96380931287622
 20
89.16666666666666
 10
36.56267059416642
 20
89.16666666666666
 10
37.099887771933076
 20
89.16666666666666
 10
37.54852253365942
 20
89.16666666666666
 10
37.886078459056854
 20
89.16666666666666
 10
38.09562908451517
 20
89.16666666666666
 10
38.166666666666664
 20
89.16666666666666
  0
LWPOLYLINE
  5
78
330
17
100
AcDbEntity
  8
HIDDEN
100
AcDbPolyline
 90
2
 70
0
 10
22.0
 20
75.83333333333333
 10
192.0
 20
75.83333333333333
  0
LWPOLYLINE
  5
79
330
17
100
AcDbEntity
  8
HIDDEN
100
AcDbPolyline
 90
2
 70
0
 10
192.0
 20
75.83333333333333
 10
192.0
 20
89.16666666666666
  0
LWPOLYLINE
  5
7A
330
17
100
AcDbEntity
  8
HIDDEN
100
AcDbPolyline
 90
2
 70
0
 10
22.0
 20
75.83333333333333
 10
22.0
 20
89.16666666666666
  0
LWPOLYLINE
  5
7B
330
17
100
AcDbEntity
  8
HIDDEN
100
AcDbPolyline
 90
2
 70
0
 10
192.0
 20
89.16666666666666
 10
192.0
 20
124.16666666666666
  0
LWPOLYLINE
  5
7C
330
17
100
AcDbEntity
  8
HIDDEN
100
AcDbPolyline
 90
2
 70
0
 10
185.33333333333334
 20
124.16666666666666
 10
192.0
 20
124.16666666666666
  0
LWPOLYLINE
  5
7D
330
17
100
AcDbEntity
  8
HIDDEN
100
AcDbPolyline
 90
2
 70
0
 10
185.33333333333334
 20
89.16666666666666
 10
185.33333333333334
 20
124.16666666666666
  0
LWPOLYLINE
  5
7E
330
17
100
AcDbEntity
  8
HIDDEN
100
AcDbPolyline
 90
2
 70
0
 10
38.16666666666667
 20
80.16666666666666
 10
38.16666666666667
 20
89.16666666666666
  0
LWPOLYLINE
  5
7F
330
17
100
AcDbEntity
  8
HIDDEN
100
AcDbPolyline
 90
15
 70
0
 10
38.16666666666667
 20
80.16666666666666
 10
38.09562908451517
 20
80.16666666666666
 10
37.886078459056854
 20
80.16666666666666
 10
37.54852253365942
 20
80.16666666666666
 10
37.099887771933076
 20
80.16666666666666
 10
36.56267059416642
 20
80.16666666666666
 10
35.96380931287622
 20
80.16666666666666
 10
35.333333333333336
 20
80.16666666666666
 10
34.70285735379044
 20
80.16666666666666
 10
34.10399607250025
 20
80.16666666666666
 10
33.56677889473359
 20
80.16666666666666
 10
33.11814413300725
 20
80.16666666666666
 10
32.78058820760981
 20
80.16666666666666
 10
32.5710375821515
 20
80.16666666666666
 10
32.5
 20
80.16666666666666
  0
LWPOLYLINE
  5
80
330
17
100
AcDbEntity
  8
HIDDEN
100
AcDbPolyline
 90
15
 70
0
 10
32.5
 20
80.16666666666666
 10
32.5710375821515
 20
80.16666666666666
 10
32.78058820760981
 20
80.16666666666666
 10
33.11814413300725
 20
80.16666666666666
 10
33.56677889473359
 20
80.16666666666666
 10
34.10399607250025
 20
80.16666666666666
 10
34.70285735379044
 20
80.16666666666666
 10
35.333333333333336
 20
80.16666666666666
 10
35.96380931287622
 20
80.16666666666666
 10
36.56267059416642
 20
80.16666666666666
 10
37.099887771933076
 20
80.16666666666666
 10
37.54852253365942
 20
80.16666666666666
 10
37.886078459056854
 20
80.16666666666666
 10
38.09562908451517
 20
80.16666666666666
 10
38.166666666666664
 20
80.16666666666666
  0
LWPOLYLINE
  5
81
330
17
100
AcDbEntity
  8
HIDDEN
100
AcDbPolyline
 90
2
 70
0
 10
38.16666666666667
 20
80.16666666666666
 10
38.16666666666667
 20
89.16666666666666
  0
LWPOLYLINE
  5
82
330
17
100
AcDbEntity
  8
HIDDEN
100
AcDbPolyline
 90
15
 70
0
 10
38.16666666666667
 20
80.16666666666666
 10
38.09562908451517
 20
80.16666666666666
 10
37.886078459056854
 20
80.16666666666666
 10
37.54852253365942
 20
80.16666666666666
 10
37.099887771933076
 20
80.16666666666666
 10
36.56267059416642
 20
80.16666666666666
 10
35.96380931287622
 20
80.16666666666666
 10
35.333333333333336
 20
80.16666666666666
 10
34.70285735379044
 20
80.16666666666666
 10
34.10399607250025
 20
80.16666666666666
 10
33.56677889473359
 20
80.16666666666666
 10
33.11814413300725
 20
80.16666666666666
 10
32.78058820760981
 20
80.16666666666666
 10
32.5710375821515
 20
80.16666666666666
 10
32.5
 20
80.16666666666666
  0
LWPOLYLINE
  5
83
330
17
100
AcDbEntity
  8
HIDDEN
100
AcDbPolyline
 90
15
 70
0
 10
32.5
 20
80.16666666666666
 10
32.5710375821515
 20
80.16666666666666
 10
32.78058820760981
 20
80.16666666666666
 10
33.11814413300725
 20
80.16666666666666
 10
33.56677889473359
 20
80.16666666666666
 10
34.10399607250025
 20
80.16666666666666
 10
34.70285735379044
 20
80.16666666666666
 10
35.333333333333336
 20
80.16666666666666
 10
35.96380931287622
 20
80.16666666666666
 10
36.56267059416642
 20
80.16666666666666
 10
37.099887771933076
 20
80.16666666666666
 10
37.54852253365942
 20
80.16666666666666
 10
37.886078459056854
 20
80.16666666666666
 10
38.09562908451517
 20
80.16666666666666
 10
38.166666666666664
 20
80.16666666666666
  0
LWPOLYLINE
  5
84
330
17
100
AcDbEntity
  8
HIDDEN
100
AcDbPolyline
 90
2
 70
0
 10
32.542807032250145
 20
75.83333333333333
 10
38.123859634416526
 20
75.83333333333333
  0
LWPOLYLINE
  5
85
330
17
100
AcDbEntity
  8
HIDDEN
100
AcDbPolyline
 90
2
 70
0
 10
29.75228073116695
 20
75.83333333333333
 10
32.542807032250145
 20
75.83333333333333
  0
LWPOLYLINE
  5
86
330
17
100
AcDbEntity
  8
HIDDEN
100
AcDbPolyline
 90
2
 70
0
 10
38.123859634416526
 20
75.83333333333333
 10
40.914385935499716
 20
75.83333333333333
  0
LWPOLYLINE
  5
87
330
17
100
AcDbEntity
  8
HIDDEN
100
AcDbPolyline
 90
2
 70
0
 10
32.54280703225014
 20
75.83333333333333
 10
29.75228073116695
 20
75.83333333333333
  0
LWPOLYLINE
  5
88
330
17
100
AcDbEntity
  8
HIDDEN
100
AcDbPolyline
 90
2
 70
0
 10
40.914385935499716
 20
75.83333333333333
 10
38.12385963441652
 20
75.83333333333333
  0
LWPOLYLINE
  5
89
330
17
100
AcDbEntity
  8
HIDDEN
100
AcDbPolyline
 90
2
 70
0
 10
38.12385963441652
 20
75.83333333333333
 10
32.54280703225014
 20
75.83333333333333
  0
LWPOLYLINE
  5
8A
330
17
100
AcDbEntity
  8
HIDDEN
100
AcDbPolyline
 90
2
 70
0
 10
32.542807032250145
 20
75.83333333333333
 10
38.123859634416526
 20
75.83333333333333
  0
LWPOLYLINE
  5
8B
330
17
100
AcDbEntity
  8
HIDDEN
100
AcDbPolyline
 90
2
 70
0
 10
29.75228073116695
 20
75.83333333333333
 10
32.542807032250145
 20
75.83333333333333
  0
LWPOLYLINE
  5
8C
330
17
100
AcDbEntity
  8
HIDDEN
100
AcDbPolyline
 90
2
 70
0
 10
32.54280703225014
 20
75.83333333333333
 10
29.75228073116695
 20
75.83333333333333
  0
LWPOLYLINE
  5
8D
330
17
100
AcDbEntity
  8
HIDDEN
100
AcDbPolyline
 90
2
 70
0
 10
38.12385963441652
 20
75.83333333333333
 10
32.54280703225014
 20
75.83333333333333
  0
LWPOLYLINE
  5
8E
330
17
100
AcDbEntity
  8
HIDDEN
100
AcDbPolyline
 90
2
 70
0
 10
40.914385935499716
 20
75.83333333333333
 10
38.12385963441652
 20
75.83333333333333
  0
LWPOLYLINE
  5
8F
330
17
100
AcDbEntity
  8
HIDDEN
100
AcDbPolyline
 90
2
 70
0
 10
38.12385963441653
 20
75.83333333333333
 10
40.914385935499716
 20
75.83333333333333
  0
LWPOLYLINE
  5
90
330
17
100
AcDbEntity
  8
HIDDEN
100
AcDbPolyline
 90
2
 70
0
 10
40.914385935499716
 20
80.16666666666666
 10
38.123859634416526
 20
80.16666666666666
  0
LWPOLYLINE
  5
91
330
17
100
AcDbEntity
  8
HIDDEN
100
AcDbPolyline
 90
2
 70
0
 10
38.12385963441652
 20
80.16666666666666
 10
40.914385935499716
 20
80.16666666666666
  0
LWPOLYLINE
  5
92
330
17
100
AcDbEntity
  8
HIDDEN
100
AcDbPolyline
 90
2
 70
0
 10
38.123859634416526
 20
80.16666666666666
 10
32.542807032250145
 20
80.16666666666666
  0
LWPOLYLINE
  5
93
330
17
100
AcDbEntity
  8
HIDDEN
100
AcDbPolyline
 90
2
 70
0
 10
32.54280703225014
 20
80.16666666666666
 10
38.12385963441652
 20
80.16666666666666
  0
LWPOLYLINE
  5
94
330
17
100
AcDbEntity
  8
HIDDEN
100
AcDbPolyline
 90
2
 70
0
 10
32.542807032250145
 20
80.16666666666666
 10
29.75228073116695
 20
80.16666666666666
  0
LWPOLYLINE
  5
95
330
17
100
AcDbEntity
  8
HIDDEN
100
AcDbPolyline
 90
2
 70
0
 10
29.75228073116695
 20
80.16666666666666
 10
32.54280703225014
 20
80.16666666666666
  0
LWPOLYLINE
  5
96
330
17
100
AcDbEntity
  8
HIDDEN
100
AcDbPolyline
 90
2
 70
0
 10
40.914385935499716
 20
80.16666666666666
 10
38.123859634416526
 20
80.16666666666666
  0
LWPOLYLINE
  5
97
330
17
100
AcDbEntity
  8
HIDDEN
100
AcDbPolyline
 90
2
 70
0
 10
38.12385963441652
 20
80.16666666666666
 10
40.914385935499716
 20
80.16666666666666
  0
LWPOLYLINE
  5
98
330
17
100
AcDbEntity
  8
HIDDEN
100
AcDbPolyline
 90
2
 70
0
 10
38.123859634416526
 20
80.16666666666666
 10
32.542807032250145
 20
80.16666666666666
  0
LWPOLYLINE
  5
99
330
17
100
AcDbEntity
  8
HIDDEN
100
AcDbPolyline
 90
2
 70
0
 10
32.54280703225014
 20
80.16666666666666
 10
38.12385963441652
 20
80.16666666666666
  0
LWPOLYLINE
  5
9A
330
17
100
AcDbEntity
  8
HIDDEN
100
AcDbPolyline
 90
2
 70
0
 10
32.542807032250145
 20
80.16666666666666
 10
29.75228073116695
 20
80.16666666666666
  0
LWPOLYLINE
  5
9B
330
17
100
AcDbEntity
  8
HIDDEN
100
AcDbPolyline
 90
2
 70
0
 10
29.75228073116695
 20
80.16666666666666
 10
32.54280703225014
 20
80.16666666666666
  0
LWPOLYLINE
  5
9C
330
17
100
AcDbEntity
  8
HIDDEN
100
AcDbPolyline
 90
2
 70
0
 10
32.542807032250145
 20
75.83333333333333
 10
32.542807032250145
 20
80.16666666666666
  0
LWPOLYLINE
  5
9D
330
17
100
AcDbEntity
  8
HIDDEN
100
AcDbPolyline
 90
2
 70
0
 10
38.123859634416526
 20
75.83333333333333
 10
38.123859634416526
 20
80.16666666666666
  0
LWPOLYLINE
  5
9E
330
17
100
AcDbEntity
  8
HIDDEN
100
AcDbPolyline
 90
2
 70
0
 10
29.75228073116695
 20
75.83333333333333
 10
29.75228073116695
 20
80.16666666666666
  0
LWPOLYLINE
  5
9F
330
17
100
AcDbEntity
  8
HIDDEN
100
AcDbPolyline
 90
2
 70
0
 10
40.914385935499716
 20
75.83333333333333
 10
40.914385935499716
 20
80.16666666666666
  0
LWPOLYLINE
  5
A0
330
17
100
AcDbEntity
  8
HIDDEN
100
AcDbPolyline
 90
2
 70
0
 10
32.54280703225014
 20
75.83333333333333
 10
32.54280703225014
 20
80.16666666666666
  0
LWPOLYLINE
  5
A1
330
17
100
AcDbEntity
  8
HIDDEN
100
AcDbPolyline
 90
2
 70
0
 10
38.12385963441652
 20
75.83333333333333
 10
38.12385963441652
 20
80.16666666666666
  0
LWPOLYLINE
  5
A2
330
17
100
AcDbEntity
  8
HIDDEN
100
AcDbPolyline
 90
2
 70
0
 10
32.542807032250145
 20
75.83333333333333
 10
32.542807032250145
 20
80.16666666666666
  0
LWPOLYLINE
  5
A3
330
17
100
AcDbEntity
  8
HIDDEN
100
AcDbPolyline
 90
2
 70
0
 10
38.123859634416526
 20
75.83333333333333
 10
38.123859634416526
 20
80.16666666666666
  0
LWPOLYLINE
  5
A4
330
17
100
AcDbEntity
  8
HIDDEN
100
AcDbPolyline
 90
2
 70
0
 10
29.75228073116695
 20
75.83333333333333
 10
29.75228073116695
 20
80.16666666666666
  0
LWPOLYLINE
  5
A5
330
17
100
AcDbEntity
  8
HIDDEN
100
AcDbPolyline
 90
2
 70
0
 10
32.54280703225014
 20
75.83333333333333
 10
32.54280703225014
 20
80.16666666666666
  0
LWPOLYLINE
  5
A6
330
17
100
AcDbEntity
  8
HIDDEN
100
AcDbPolyline
 90
2
 70
0
 10
38.12385963441652
 20
75.83333333333333
 10
38.12385963441652
 20
80.16666666666666
  0
LWPOLYLINE
  5
A7
330
17
100
AcDbEntity
  8
HIDDEN
100
AcDbPolyline
 90
2
 70
0
 10
40.914385935499716
 20
75.83333333333333
 10
40.914385935499716
 20
80.16666666666666
  0
LWPOLYLINE
  5
A8
330
17
100
AcDbEntity
  8
HIDDEN
100
AcDbPolyline
 90
2
 70
0
 10
32.5
 20
80.16666666666666
 10
32.5
 20
89.16666666666666
  0
LWPOLYLINE
  5
A9
330
17
100
AcDbEntity
  8
HIDDEN
100
AcDbPolyline
 90
2
 70
0
 10
32.5
 20
80.16666666666666
 10
32.5
 20
89.16666666666666
  0
LWPOLYLINE
  5
AA
330
17
100
AcDbEntity
  8
OUTLINE
100
AcDbPolyline
 90
15
 70
0
 10
147.0
 20
97.5
 10
147.1253604390909
 20
97.5
 10
147.4951556604879
 20
97.5
 10
148.09084258765984
 20
97.5
 10
148.88255099070633
 20
97.5
 10
149.83058130441222
 20
97.5
 10
150.88739533021845
 20
97.5
 10
152.0
 20
97.5
 10
153.11260466978158
 20
97.5
 10
154.16941869558778
 20
97.5
 10
155.11744900929367
 20
97.5
 10
155.90915741234016
 20
97.5
 10
156.50484433951212
 20
97.5
 10
156.87463956090912
 20
97.5
 10
157.0
 20
97.5
  0
LWPOLYLINE
  5
AB
330
17
100
AcDbEntity
  8
OUTLINE
100
AcDbPolyline
 90
2
 70
0
 10
157.0
 20
95.83333333333333
 10
157.0
 20
97.5
  0
LWPOLYLINE
  5
AC
330
17
100
AcDbEntity
  8
OUTLINE
100
AcDbPolyline
 90
15
 70
0
 10
147.0
 20
95.83333333333333
 10
147.1253604390909
 20
95.83333333333333
 10
147.4951556604879
 20
95.83333333333333
 10
148.09084258765984
 20
95.83333333333333
 10
148.88255099070633
 20
95.83333333333333
 10
149.83058130441222
 20
95.83333333333333
 10
150.88739533021845
 20
95.83333333333333
 10
152.0
 20
95.83333333333333
 10
153.11260466978158
 20
95.83333333333333
 10
154.16941869558778
 20
95.83333333333333
 10
155.11744900929367
 20
95.83333333333333
 10
155.90915741234016
 20
95.83333333333333
 10
156.50484433951212
 20
95.83333333333333
 10
156.87463956090912
 20
95.83333333333333
 10
157.0
 20
95.83333333333333
  0
LWPOLYLINE
  5
AD
330
17
100
AcDbEntity
  8
OUTLINE
100
AcDbPolyline
 90
2
 70
0
 10
155.33333333333334
 20
89.16666666666666
 10
155.33333333333334
 20
95.83333333333333
  0
LWPOLYLINE
  5
AE
330
17
100
AcDbEntity
  8
OUTLINE
100
AcDbPolyline
 90
2
 70
0
 10
22.0
 20
89.16666666666666
 10
192.0
 20
89.16666666666666
  0
LWPOLYLINE
  5
AF
330
17
100
AcDbEntity
  8
OUTLINE
100
AcDbPolyline
 90
2
 70
0
 10
192.0
 20
75.83333333333333
 10
192.0
 20
89.16666666666666
  0
LWPOLYLINE
  5
B0
330
17
100
AcDbEntity
  8
OUTLINE
100
AcDbPolyline
 90
2
 70
0
 10
192.0
 20
89.16666666666666
 10
192.0
 20
124.16666666666666
  0
LWPOLYLINE
  5
B1
330
17
100
AcDbEntity
  8
OUTLINE
100
AcDbPolyline
 90
2
 70
0
 10
22.0
 20
75.83333333333333
 10
22.0
 20
89.16666666666666
  0
LWPOLYLINE
  5
B2
330
17
100
AcDbEntity
  8
OUTLINE
100
AcDbPolyline
 90
2
 70
0
 10
22.0
 20
75.83333333333333
 10
192.0
 20
75.83333333333333
  0
LWPOLYLINE
  5
B3
330
17
100
AcDbEntity
  8
OUTLINE
100
AcDbPolyline
 90
2
 70
0
 10
185.33333333333334
 20
89.16666666666666
 10
185.33333333333334
 20
124.16666666666666
  0
LWPOLYLINE
  5
B4
330
17
100
AcDbEntity
  8
OUTLINE
100
AcDbPolyline
 90
2
 70
0
 10
185.33333333333334
 20
124.16666666666666
 10
192.0
 20
124.16666666666666
  0
LWPOLYLINE
  5
B5
330
17
100
AcDbEntity
  8
OUTLINE
100
AcDbPolyline
 90
2
 70
0
 10
147.0
 20
95.83333333333333
 10
147.0
 20
97.5
  0
LWPOLYLINE
  5
B6
330
17
100
AcDbEntity
  8
OUTLINE
100
AcDbPolyline
 90
2
 70
0
 10
148.66666666666669
 20
89.16666666666666
 10
148.66666666666669
 20
95.83333333333333
  0
TEXT
  5
B7
330
17
100
AcDbEntity
  8
TEXT
100
AcDbText
 10
22.0
 20
63.0
 30
0.0
 40
2.6
  1
FRONT  (view scale 1.67:1)
100
AcDbText
  0
LWPOLYLINE
  5
B8
330
17
100
AcDbEntity
  8
HIDDEN
100
AcDbPolyline
 90
15
 70
0
 10
278.1034482758621
 20
204.51724137931035
 10
277.21159331103917
 20
204.51724137931035
 10
276.3309539398652
 20
204.51724137931035
 10
275.4726047133916
 20
204.51724137931035
 10
274.64733987116705
 20
204.51724137931035
 10
273.8655375974123
 20
204.51724137931035
 10
273.13702950933214
 20
204.51724137931035
 10
272.4709770188244
 20
204.51724137931035
 10
271.8757561224098
 20
204.51724137931035
 10
271.3588520682161
 20
204.51724137931035
 10
270.9267652246393
 20
204.51724137931035
 10
270.58492933444023
 20
204.51724137931035
 10
270.3376431822758
 20
204.51724137931035
 10
270.1880165349883
 20
204.51724137931035
 10
270.13793103448273
 20
204.51724137931035
  0
LWPOLYLINE
  5
B9
330
17
100
AcDbEntity
  8
HIDDEN
100
AcDbPolyline
 90
15
 70
0
 10
286.0689655172414
 20
204.51724137931035
 10
286.0188800167358
 20
204.51724137931035
 10
285.8692533694483
 20
204.51724137931035
 10
285.6219672172839
 20
204.51724137931035
 10
285.2801313270848
 20
204.51724137931035
 10
284.84804448350803
 20
204.51724137931035
 10
284.3311404293143
 20
204.51724137931035
 10
283.73591953289974
 20
204.51724137931035
 10
283.069867042392
 20
204.51724137931035
 10
282.34135895431183
 20
204.51724137931035
 10
281.5595566805571
 20
204.51724137931035
 10
280.7342918383325
 20
204.51724137931035
 10
279.87594261185893
 20
204.51724137931035
 10
278.99530324068496
 20
204.51724137931035
 10
278.10344827586215
 20
204.51724137931035
  0
LWPOLYLINE
  5
BA
330
17
100
AcDbEntity
  8
HIDDEN
100
AcDbPolyline
 90
15
 70
0
 10
278.1034482758621
 20
201.86206896551724
 10
277.21159331103917
 20
201.86206896551724
 10
276.3309539398652
 20
201.86206896551724
 10
275.4726047133916
 20
201.86206896551724
 10
274.64733987116705
 20
201.86206896551724
 10
273.8655375974123
 20
201.86206896551724
 10
273.13702950933214
 20
201.86206896551724
 10
272.4709770188244
 20
201.86206896551724
 10
271.8757561224098
 20
201.86206896551724
 10
271.3588520682161
 20
201.86206896551724
 10
270.9267652246393
 20
201.86206896551724
 10
270.58492933444023
 20
201.86206896551724
 10
270.3376431822758
 20
201.86206896551724
 10
270.1880165349883
 20
201.86206896551724
 10
270.13793103448273
 20
201.86206896551724
  0
LWPOLYLINE
  5
BB
330
17
100
AcDbEntity
  8
HIDDEN
100
AcDbPolyline
 90
15
 70
0
 10
286.0689655172414
 20
201.86206896551724
 10
286.0188800167358
 20
201.86206896551724
 10
285.8692533694483
 20
201.86206896551724
 10
285.6219672172839
 20
201.86206896551724
 10
285.2801313270848
 20
201.86206896551724
 10
284.84804448350803
 20
201.86206896551724
 10
284.3311404293143
 20
201.86206896551724
 10
283.73591953289974
 20
201.86206896551724
 10
283.069867042392
 20
201.86206896551724
 10
282.34135895431183
 20
201.86206896551724
 10
281.5595566805571
 20
201.86206896551724
 10
280.7342918383325
 20
201.86206896551724
 10
279.87594261185893
 20
201.86206896551724
 10
278.99530324068496
 20
201.86206896551724
 10
278.10344827586215
 20
201.86206896551724
  0
LWPOLYLINE
  5
BC
330
17
100
AcDbEntity
  8
HIDDEN
100
AcDbPolyline
 90
15
 70
0
 10
278.1034482758621
 20
201.86206896551724
 10
277.50887829931344
 20
201.86206896551724
 10
276.9217853851975
 20
201.86206896551724
 10
276.3495525675484
 20
201.86206896551724
 10
275.79937600606536
 20
201.86206896551724
 10
275.2781744902289
 20
201.86206896551724
 10
274.7925024315088
 20
201.86206896551724
 10
274.348467437837
 20
201.86206896551724
 10
273.95165350689393
 20
201.86206896551724
 10
273.6070508040981
 20
201.86206896551724
 10
273.31899290838027
 20
201.86206896551724
 10
273.09110231491417
 20
201.86206896551724
 10
272.9262448801379
 20
201.86206896551724
 10
272.8264937819462
 20
201.86206896551724
 10
272.7931034482759
 20
201.86206896551724
  0
LWPOLYLINE
  5
BD
330
17
100
AcDbEntity
  8
HIDDEN
100
AcDbPolyline
 90
15
 70
0
 10
272.7931034482759
 20
201.86206896551724
 10
272.9262448801379
 20
201.86206896551724
 10
273.31899290838027
 20
201.86206896551724
 10
273.9516535068939
 20
201.86206896551724
 10
274.7925024315088
 20
201.86206896551724
 10
275.79937600606536
 20
201.86206896551724
 10
276.9217853851975
 20
201.86206896551724
 10
278.1034482758621
 20
201.86206896551724
 10
279.28511116652663
 20
201.86206896551724
 10
280.40752054565877
 20
201.86206896551724
 10
281.4143941202153
 20
201.86206896551724
 10
282.2552430448302
 20
201.86206896551724
 10
282.88790364334386
 20
201.86206896551724
 10
283.2806516715862
 20
201.86206896551724
 10
283.41379310344826
 20
201.86206896551724
  0
LWPOLYLINE
  5
BE
330
17
100
AcDbEntity
  8
HIDDEN
100
AcDbPolyline
 90
15
 70
0
 10
283.41379310344826
 20
201.86206896551724
 10
283.3804027697779
 20
201.86206896551724
 10
283.2806516715862
 20
201.86206896551724
 10
283.11579423680996
 20
201.86206896551724
 10
282.88790364334386
 20
201.86206896551724
 10
282.59984574762603
 20
201.86206896551724
 10
282.25524304483025
 20
201.86206896551724
 10
281.85842911388715
 20
201.86206896551724
 10
281.4143941202153
 20
201.86206896551724
 10
280.92872206149525
 20
201.86206896551724
 10
280.40752054565877
 20
201.86206896551724
 10
279.8573439841757
 20
201.86206896551724
 10
279.28511116652663
 20
201.86206896551724
 10
278.6980182524107
 20
201.86206896551724
 10
278.1034482758621
 20
201.86206896551724
  0
LWPOLYLINE
  5
BF
330
17
100
AcDbEntity
  8
HIDDEN
100
AcDbPolyline
 90
15
 70
0
 10
278.1034482758621
 20
191.24137931034483
 10
277.50887829931344
 20
191.24137931034483
 10
276.9217853851975
 20
191.24137931034483
 10
276.3495525675484
 20
191.24137931034483
 10
275.79937600606536
 20
191.24137931034483
 10
275.2781744902289
 20
191.24137931034483
 10
274.7925024315088
 20
191.24137931034483
 10
274.348467437837
 20
191.24137931034483
 10
273.95165350689393
 20
191.24137931034483
 10
273.6070508040981
 20
191.24137931034483
 10
273.31899290838027
 20
191.24137931034483
 10
273.09110231491417
 20
191.24137931034483
 10
272.9262448801379
 20
191.24137931034483
 10
272.8264937819462
 20
191.24137931034483
 10
272.7931034482759
 20
191.24137931034483
  0
LWPOLYLINE
  5
C0
330
17
100
AcDbEntity
  8
HIDDEN
100
AcDbPolyline
 90
15
 70
0
 10
272.7931034482759
 20
191.24137931034483
 10
272.9262448801379
 20
191.24137931034483
 10
273.31899290838027
 20
191.24137931034483
 10
273.9516535068939
 20
191.24137931034483
 10
274.7925024315088
 20
191.24137931034483
 10
275.79937600606536
 20
191.24137931034483
 10
276.9217853851975
 20
191.24137931034483
 10
278.1034482758621
 20
191.24137931034483
 10
279.28511116652663
 20
191.24137931034483
 10
280.40752054565877
 20
191.24137931034483
 10
281.4143941202153
 20
191.24137931034483
 10
282.2552430448302
 20
191.24137931034483
 10
282.88790364334386
 20
191.24137931034483
 10
283.2806516715862
 20
191.24137931034483
 10
283.41379310344826
 20
191.24137931034483
  0
LWPOLYLINE
  5
C1
330
17
100
AcDbEntity
  8
HIDDEN
100
AcDbPolyline
 90
15
 70
0
 10
283.41379310344826
 20
191.24137931034483
 10
283.3804027697779
 20
191.24137931034483
 10
283.2806516715862
 20
191.24137931034483
 10
283.11579423680996
 20
191.24137931034483
 10
282.88790364334386
 20
191.24137931034483
 10
282.59984574762603
 20
191.24137931034483
 10
282.25524304483025
 20
191.24137931034483
 10
281.85842911388715
 20
191.24137931034483
 10
281.4143941202153
 20
191.24137931034483
 10
280.92872206149525
 20
191.24137931034483
 10
280.40752054565877
 20
191.24137931034483
 10
279.8573439841757
 20
191.24137931034483
 10
279.28511116652663
 20
191.24137931034483
 10
278.6980182524107
 20
191.24137931034483
 10
278.1034482758621
 20
191.24137931034483
  0
LWPOLYLINE
  5
C2
330
17
100
AcDbEntity
  8
HIDDEN
100
AcDbPolyline
 90
2
 70
0
 10
286.0689655172414
 20
191.24137931034483
 10
262.17241379310343
 20
191.24137931034483
  0
LWPOLYLINE
  5
C3
330
17
100
AcDbEntity
  8
HIDDEN
100
AcDbPolyline
 90
2
 70
0
 10
317.9310344827586
 20
191.24137931034483
 10
286.0689655172414
 20
191.24137931034483
  0
LWPOLYLINE
  5
C4
330
17
100
AcDbEntity
  8
HIDDEN
100
AcDbPolyline
 90
2
 70
0
 10
341.82758620689657
 20
191.24137931034483
 10
317.9310344827586
 20
191.24137931034483
  0
LWPOLYLINE
  5
C5
330
17
100
AcDbEntity
  8
HIDDEN
100
AcDbPolyline
 90
15
 70
0
 10
323.2413793103448
 20
191.24137931034483
 10
322.7359948302785
 20
191.24137931034483
 10
322.23696585327997
 20
191.24137931034483
 10
321.7505679582782
 20
191.24137931034483
 10
321.2829178810176
 20
191.24137931034483
 10
320.8398965925566
 20
191.24137931034483
 10
320.42707534264457
 20
191.24137931034483
 10
320.04964559802346
 20
191.24137931034483
 10
319.7123537567219
 20
191.24137931034483
 10
319.4194414593454
 20
191.24137931034483
 10
319.1745922479853
 20
191.24137931034483
 10
318.98088524353915
 20
191.24137931034483
 10
318.8407564239793
 20
191.24137931034483
 10
318.75596799051635
 20
191.24137931034483
 10
318.72758620689655
 20
191.24137931034483
  0
LWPOLYLINE
  5
C6
330
17
100
AcDbEntity
  8
HIDDEN
100
AcDbPolyline
 90
15
 70
0
 10
318.72758620689655
 20
191.24137931034483
 10
318.8407564239793
 20
191.24137931034483
 10
319.1745922479853
 20
191.24137931034483
 10
319.7123537567219
 20
191.24137931034483
 10
320.42707534264457
 20
191.24137931034483
 10
321.2829178810176
 20
191.24137931034483
 10
322.23696585327997
 20
191.24137931034483
 10
323.2413793103448
 20
191.24137931034483
 10
324.24579276740974
 20
191.24137931034483
 10
325.199840739672
 20
191.24137931034483
 10
326.05568327804514
 20
191.24137931034483
 10
326.77040486396777
 20
191.24137931034483
 10
327.30816637270436
 20
191.24137931034483
 10
327.6420021967104
 20
191.24137931034483
 10
327.7551724137931
 20
191.24137931034483
  0
LWPOLYLINE
  5
C7
330
17
100
AcDbEntity
  8
HIDDEN
100
AcDbPolyline
 90
15
 70
0
 10
327.7551724137931
 20
191.24137931034483
 10
327.7267906301733
 20
191.24137931034483
 10
327.6420021967104
 20
191.24137931034483
 10
327.5018733771505
 20
191.24137931034483
 10
327.30816637270436
 20
191.24137931034483
 10
327.06331716134423
 20
191.24137931034483
 10
326.77040486396777
 20
191.24137931034483
 10
326.4331130226662
 20
191.24137931034483
 10
326.05568327804514
 20
191.24137931034483
 10
325.64286202813304
 20
191.24137931034483
 10
325.199840739672
 20
191.24137931034483
 10
324.7321906624114
 20
191.24137931034483
 10
324.24579276740974
 20
191.24137931034483
 10
323.74676379041114
 20
191.24137931034483
 10
323.2413793103449
 20
191.24137931034483
  0
LWPOLYLINE
  5
C8
330
17
100
AcDbEntity
  8
HIDDEN
100
AcDbPolyline
 90
15
 70
0
 10
280.7586206896552
 20
191.24137931034483
 10
280.25323620958886
 20
191.24137931034483
 10
279.75420723259026
 20
191.24137931034483
 10
279.2678093375886
 20
191.24137931034483
 10
278.800159260328
 20
191.24137931034483
 10
278.35713797186696
 20
191.24137931034483
 10
277.94431672195486
 20
191.24137931034483
 10
277.5668869773338
 20
191.24137931034483
 10
277.22959513603223
 20
191.24137931034483
 10
276.93668283865577
 20
191.24137931034483
 10
276.69183362729564
 20
191.24137931034483
 10
276.4981266228495
 20
191.24137931034483
 10
276.3579978032896
 20
191.24137931034483
 10
276.2732093698267
 20
191.24137931034483
 10
276.2448275862069
 20
191.24137931034483
  0
LWPOLYLINE
  5
C9
330
17
100
AcDbEntity
  8
HIDDEN
100
AcDbPolyline
 90
15
 70
0
 10
276.2448275862069
 20
191.24137931034483
 10
276.3579978032896
 20
191.24137931034483
 10
276.69183362729564
 20
191.24137931034483
 10
277.22959513603223
 20
191.24137931034483
 10
277.94431672195486
 20
191.24137931034483
 10
278.800159260328
 20
191.24137931034483
 10
279.75420723259026
 20
191.24137931034483
 10
280.7586206896552
 20
191.24137931034483
 10
281.76303414672003
 20
191.24137931034483
 10
282.7170821189824
 20
191.24137931034483
 10
283.57292465735543
 20
191.24137931034483
 10
284.2876462432781
 20
191.24137931034483
 10
284.8254077520147
 20
191.24137931034483
 10
285.1592435760207
 20
191.24137931034483
 10
285.27241379310345
 20
191.24137931034483
  0
LWPOLYLINE
  5
CA
330
17
100
AcDbEntity
  8
HIDDEN
100
AcDbPolyline
 90
15
 70
0
 10
285.27241379310345
 20
191.24137931034483
 10
285.24403200948365
 20
191.24137931034483
 10
285.1592435760207
 20
191.24137931034483
 10
285.01911475646085
 20
191.24137931034483
 10
284.8254077520147
 20
191.24137931034483
 10
284.5805585406546
 20
191.24137931034483
 10
284.2876462432781
 20
191.24137931034483
 10
283.95035440197654
 20
191.24137931034483
 10
283.57292465735543
 20
191.24137931034483
 10
283.1601034074434
 20
191.24137931034483
 10
282.7170821189824
 20
191.24137931034483
 10
282.2494320417218
 20
191.24137931034483
 10
281.76303414672003
 20
191.24137931034483
 10
281.2640051697215
 20
191.24137931034483
 10
280.75862068965523
 20
191.24137931034483
  0
LWPOLYLINE
  5
CB
330
17
100
AcDbEntity
  8
HIDDEN
100
AcDbPolyline
 90
2
 70
0
 10
262.17241379310343
 20
170.0
 10
262.17241379310343
 20
191.24137931034483
  0
LWPOLYLINE
  5
CC
330
17
100
AcDbEntity
  8
HIDDEN
100
AcDbPolyline
 90
2
 70
0
 10
341.82758620689657
 20
170.0
 10
341.82758620689657
 20
191.24137931034483
  0
LWPOLYLINE
  5
CD
330
17
100
AcDbEntity
  8
HIDDEN
100
AcDbPolyline
 90
2
 70
0
 10
341.82758620689657
 20
170.0
 10
262.17241379310343
 20
170.0
  0
LWPOLYLINE
  5
CE
330
17
100
AcDbEntity
  8
HIDDEN
100
AcDbPolyline
 90
2
 70
0
 10
286.0689655172414
 20
191.24137931034483
 10
286.0689655172414
 20
247.0
  0
LWPOLYLINE
  5
CF
330
17
100
AcDbEntity
  8
HIDDEN
100
AcDbPolyline
 90
2
 70
0
 10
317.9310344827586
 20
247.0
 10
286.0689655172414
 20
247.0
  0
LWPOLYLINE
  5
D0
330
17
100
AcDbEntity
  8
HIDDEN
100
AcDbPolyline
 90
2
 70
0
 10
317.9310344827586
 20
191.24137931034483
 10
317.9310344827586
 20
247.0
  0
LWPOLYLINE
  5
D1
330
17
100
AcDbEntity
  8
HIDDEN
100
AcDbPolyline
 90
2
 70
0
 10
286.0689655172414
 20
201.86206896551724
 10
286.0689655172414
 20
204.51724137931035
  0
LWPOLYLINE
  5
D2
330
17
100
AcDbEntity
  8
HIDDEN
100
AcDbPolyline
 90
15
 70
0
 10
323.2413793103448
 20
176.90344827586208
 10
322.7359948302785
 20
176.90344827586208
 10
322.23696585327997
 20
176.90344827586208
 10
321.7505679582782
 20
176.90344827586208
 10
321.2829178810176
 20
176.90344827586208
 10
320.8398965925566
 20
176.90344827586208
 10
320.42707534264457
 20
176.90344827586208
 10
320.04964559802346
 20
176.90344827586208
 10
319.7123537567219
 20
176.90344827586208
 10
319.4194414593454
 20
176.90344827586208
 10
319.1745922479853
 20
176.90344827586208
 10
318.98088524353915
 20
176.90344827586208
 10
318.8407564239793
 20
176.90344827586208
 10
318.75596799051635
 20
176.90344827586208
 10
318.72758620689655
 20
176.90344827586208
  0
LWPOLYLINE
  5
D3
330
17
100
AcDbEntity
  8
HIDDEN
100
AcDbPolyline
 90
15
 70
0
 10
318.72758620689655
 20
176.90344827586208
 10
318.8407564239793
 20
176.90344827586208
 10
319.1745922479853
 20
176.90344827586208
 10
319.7123537567219
 20
176.90344827586208
 10
320.42707534264457
 20
176.90344827586208
 10
321.2829178810176
 20
176.90344827586208
 10
322.23696585327997
 20
176.90344827586208
 10
323.2413793103448
 20
176.90344827586208
 10
324.24579276740974
 20
176.90344827586208
 10
325.199840739672
 20
176.90344827586208
 10
326.05568327804514
 20
176.90344827586208
 10
326.77040486396777
 20
176.90344827586208
 10
327.30816637270436
 20
176.90344827586208
 10
327.6420021967104
 20
176.90344827586208
 10
327.7551724137931
 20
176.90344827586208
  0
LWPOLYLINE
  5
D4
330
17
100
AcDbEntity
  8
HIDDEN
100
AcDbPolyline
 90
15
 70
0
 10
327.7551724137931
 20
176.90344827586208
 10
327.7267906301733
 20
176.90344827586208
 10
327.6420021967104
 20
176.90344827586208
 10
327.5018733771505
 20
176.90344827586208
 10
327.30816637270436
 20
176.90344827586208
 10
327.06331716134423
 20
176.90344827586208
 10
326.77040486396777
 20
176.90344827586208
 10
326.4331130226662
 20
176.90344827586208
 10
326.05568327804514
 20
176.90344827586208
 10
325.64286202813304
 20
176.90344827586208
 10
325.199840739672
 20
176.90344827586208
 10
324.7321906624114
 20
176.90344827586208
 10
324.24579276740974
 20
176.90344827586208
 10
323.74676379041114
 20
176.90344827586208
 10
323.2413793103449
 20
176.90344827586208
  0
LWPOLYLINE
  5
D5
330
17
100
AcDbEntity
  8
HIDDEN
100
AcDbPolyline
 90
15
 70
0
 10
280.7586206896552
 20
176.90344827586208
 10
280.25323620958886
 20
176.90344827586208
 10
279.75420723259026
 20
176.90344827586208
 10
279.2678093375886
 20
176.90344827586208
 10
278.800159260328
 20
176.90344827586208
 10
278.35713797186696
 20
176.90344827586208
 10
277.94431672195486
 20
176.90344827586208
 10
277.5668869773338
 20
176.90344827586208
 10
277.22959513603223
 20
176.90344827586208
 10
276.93668283865577
 20
176.90344827586208
 10
276.69183362729564
 20
176.90344827586208
 10
276.4981266228495
 20
176.90344827586208
 10
276.3579978032896
 20
176.90344827586208
 10
276.2732093698267
 20
176.90344827586208
 10
276.2448275862069
 20
176.90344827586208
  0
LWPOLYLINE
  5
D6
330
17
100
AcDbEntity
  8
HIDDEN
100
AcDbPolyline
 90
15
 70
0
 10
276.2448275862069
 20
176.90344827586208
 10
276.3579978032896
 20
176.90344827586208
 10
276.69183362729564
 20
176.90344827586208
 10
277.22959513603223
 20
176.90344827586208
 10
277.94431672195486
 20
176.90344827586208
 10
278.800159260328
 20
176.90344827586208
 10
279.75420723259026
 20
176.90344827586208
 10
280.7586206896552
 20
176.90344827586208
 10
281.76303414672003
 20
176.90344827586208
 10
282.7170821189824
 20
176.90344827586208
 10
283.57292465735543
 20
176.90344827586208
 10
284.2876462432781
 20
176.90344827586208
 10
284.8254077520147
 20
176.90344827586208
 10
285.1592435760207
 20
176.90344827586208
 10
285.27241379310345
 20
176.90344827586208
  0
LWPOLYLINE
  5
D7
330
17
100
AcDbEntity
  8
HIDDEN
100
AcDbPolyline
 90
15
 70
0
 10
285.27241379310345
 20
176.90344827586208
 10
285.24403200948365
 20
176.90344827586208
 10
285.1592435760207
 20
176.90344827586208
 10
285.01911475646085
 20
176.90344827586208
 10
284.8254077520147
 20
176.90344827586208
 10
284.5805585406546
 20
176.90344827586208
 10
284.2876462432781
 20
176.90344827586208
 10
283.95035440197654
 20
176.90344827586208
 10
283.57292465735543
 20
176.90344827586208
 10
283.1601034074434
 20
176.90344827586208
 10
282.7170821189824
 20
176.90344827586208
 10
282.2494320417218
 20
176.90344827586208
 10
281.76303414672003
 20
176.90344827586208
 10
281.2640051697215
 20
176.90344827586208
 10
280.75862068965523
 20
176.90344827586208
  0
LWPOLYLINE
  5
D8
330
17
100
AcDbEntity
  8
HIDDEN
100
AcDbPolyline
 90
2
 70
0
 10
323.2413793103448
 20
170.0
 10
315.54137931034484
 20
170.0
  0
LWPOLYLINE
  5
D9
330
17
100
AcDbEntity
  8
HIDDEN
100
AcDbPolyline
 90
2
 70
0
 10
315.54137931034484
 20
170.0
 10
323.2413793103448
 20
170.0
  0
LWPOLYLINE
  5
DA
330
17
100
AcDbEntity
  8
HIDDEN
100
AcDbPolyline
 90
2
 70
0
 10
330.9413793103448
 20
170.0
 10
323.2413793103448
 20
170.0
  0
LWPOLYLINE
  5
DB
330
17
100
AcDbEntity
  8
HIDDEN
100
AcDbPolyline
 90
2
 70
0
 10
323.2413793103448
 20
170.0
 10
330.9413793103448
 20
170.0
  0
LWPOLYLINE
  5
DC
330
17
100
AcDbEntity
  8
HIDDEN
100
AcDbPolyline
 90
2
 70
0
 10
280.7586206896552
 20
170.0
 10
273.0586206896552
 20
170.0
  0
LWPOLYLINE
  5
DD
330
17
100
AcDbEntity
  8
HIDDEN
100
AcDbPolyline
 90
2
 70
0
 10
288.45862068965516
 20
170.0
 10
280.7586206896552
 20
170.0
  0
LWPOLYLINE
  5
DE
330
17
100
AcDbEntity
  8
HIDDEN
100
AcDbPolyline
 90
2
 70
0
 10
280.7586206896552
 20
170.0
 10
288.45862068965516
 20
170.0
  0
LWPOLYLINE
  5
DF
330
17
100
AcDbEntity
  8
HIDDEN
100
AcDbPolyline
 90
2
 70
0
 10
273.0586206896552
 20
170.0
 10
280.7586206896552
 20
170.0
  0
LWPOLYLINE
  5
E0
330
17
100
AcDbEntity
  8
HIDDEN
100
AcDbPolyline
 90
2
 70
0
 10
323.2413793103448
 20
176.90344827586208
 10
315.54137931034484
 20
176.90344827586208
  0
LWPOLYLINE
  5
E1
330
17
100
AcDbEntity
  8
HIDDEN
100
AcDbPolyline
 90
2
 70
0
 10
330.9413793103448
 20
176.90344827586208
 10
323.2413793103448
 20
176.90344827586208
  0
LWPOLYLINE
  5
E2
330
17
100
AcDbEntity
  8
HIDDEN
100
AcDbPolyline
 90
2
 70
0
 10
315.54137931034484
 20
176.90344827586208
 10
323.2413793103448
 20
176.90344827586208
  0
LWPOLYLINE
  5
E3
330
17
100
AcDbEntity
  8
HIDDEN
100
AcDbPolyline
 90
2
 70
0
 10
323.2413793103448
 20
176.90344827586208
 10
330.9413793103448
 20
176.90344827586208
  0
LWPOLYLINE
  5
E4
330
17
100
AcDbEntity
  8
HIDDEN
100
AcDbPolyline
 90
2
 70
0
 10
280.7586206896552
 20
176.90344827586208
 10
273.0586206896552
 20
176.90344827586208
  0
LWPOLYLINE
  5
E5
330
17
100
AcDbEntity
  8
HIDDEN
100
AcDbPolyline
 90
2
 70
0
 10
288.45862068965516
 20
176.90344827586208
 10
280.7586206896552
 20
176.90344827586208
  0
LWPOLYLINE
  5
E6
330
17
100
AcDbEntity
  8
HIDDEN
100
AcDbPolyline
 90
2
 70
0
 10
273.0586206896552
 20
176.90344827586208
 10
280.7586206896552
 20
176.90344827586208
  0
LWPOLYLINE
  5
E7
330
17
100
AcDbEntity
  8
HIDDEN
100
AcDbPolyline
 90
2
 70
0
 10
280.7586206896552
 20
176.90344827586208
 10
288.45862068965516
 20
176.90344827586208
  0
LWPOLYLINE
  5
E8
330
17
100
AcDbEntity
  8
HIDDEN
100
AcDbPolyline
 90
2
 70
0
 10
315.54137931034484
 20
170.0
 10
315.54137931034484
 20
176.90344827586208
  0
LWPOLYLINE
  5
E9
330
17
100
AcDbEntity
  8
HIDDEN
100
AcDbPolyline
 90
2
 70
0
 10
315.54137931034484
 20
170.0
 10
315.54137931034484
 20
176.90344827586208
  0
LWPOLYLINE
  5
EA
330
17
100
AcDbEntity
  8
HIDDEN
100
AcDbPolyline
 90
2
 70
0
 10
323.2413793103448
 20
170.0
 10
323.2413793103448
 20
176.90344827586208
  0
LWPOLYLINE
  5
EB
330
17
100
AcDbEntity
  8
HIDDEN
100
AcDbPolyline
 90
2
 70
0
 10
323.2413793103448
 20
170.0
 10
323.2413793103448
 20
176.90344827586208
  0
LWPOLYLINE
  5
EC
330
17
100
AcDbEntity
  8
HIDDEN
100
AcDbPolyline
 90
2
 70
0
 10
330.9413793103448
 20
170.0
 10
330.9413793103448
 20
176.90344827586208
  0
LWPOLYLINE
  5
ED
330
17
100
AcDbEntity
  8
HIDDEN
100
AcDbPolyline
 90
2
 70
0
 10
330.9413793103448
 20
170.0
 10
330.9413793103448
 20
176.90344827586208
  0
LWPOLYLINE
  5
EE
330
17
100
AcDbEntity
  8
HIDDEN
100
AcDbPolyline
 90
2
 70
0
 10
273.0586206896552
 20
170.0
 10
273.0586206896552
 20
176.90344827586208
  0
LWPOLYLINE
  5
EF
330
17
100
AcDbEntity
  8
HIDDEN
100
AcDbPolyline
 90
2
 70
0
 10
273.0586206896552
 20
170.0
 10
273.0586206896552
 20
176.90344827586208
  0
LWPOLYLINE
  5
F0
330
17
100
AcDbEntity
  8
HIDDEN
100
AcDbPolyline
 90
2
 70
0
 10
280.7586206896552
 20
170.0
 10
280.7586206896552
 20
176.90344827586208
  0
LWPOLYLINE
  5
F1
330
17
100
AcDbEntity
  8
HIDDEN
100
AcDbPolyline
 90
2
 70
0
 10
288.45862068965516
 20
170.0
 10
288.45862068965516
 20
176.90344827586208
  0
LWPOLYLINE
  5
F2
330
17
100
AcDbEntity
  8
HIDDEN
100
AcDbPolyline
 90
2
 70
0
 10
288.45862068965516
 20
170.0
 10
288.45862068965516
 20
176.90344827586208
  0
LWPOLYLINE
  5
F3
330
17
100
AcDbEntity
  8
HIDDEN
100
AcDbPolyline
 90
2
 70
0
 10
280.7586206896552
 20
170.0
 10
280.7586206896552
 20
176.90344827586208
  0
LWPOLYLINE
  5
F4
330
17
100
AcDbEntity
  8
HIDDEN
100
AcDbPolyline
 90
2
 70
0
 10
327.7551724137931
 20
176.90344827586208
 10
327.7551724137931
 20
191.24137931034483
  0
LWPOLYLINE
  5
F5
330
17
100
AcDbEntity
  8
HIDDEN
100
AcDbPolyline
 90
2
 70
0
 10
318.72758620689655
 20
176.90344827586208
 10
318.72758620689655
 20
191.24137931034483
  0
LWPOLYLINE
  5
F6
330
17
100
AcDbEntity
  8
HIDDEN
100
AcDbPolyline
 90
2
 70
0
 10
285.27241379310345
 20
176.90344827586208
 10
285.27241379310345
 20
191.24137931034483
  0
LWPOLYLINE
  5
F7
330
17
100
AcDbEntity
  8
HIDDEN
100
AcDbPolyline
 90
2
 70
0
 10
276.2448275862069
 20
176.90344827586208
 10
276.2448275862069
 20
191.24137931034483
  0
LWPOLYLINE
  5
F8
330
17
100
AcDbEntity
  8
OUTLINE
100
AcDbPolyline
 90
15
 70
0
 10
270.13793103448273
 20
204.51724137931035
 10
270.3376431822758
 20
204.51724137931035
 10
270.9267652246393
 20
204.51724137931035
 10
271.8757561224098
 20
204.51724137931035
 10
273.13702950933214
 20
204.51724137931035
 10
274.64733987116705
 20
204.51724137931035
 10
276.3309539398652
 20
204.51724137931035
 10
278.1034482758621
 20
204.51724137931035
 10
279.87594261185893
 20
204.51724137931035
 10
281.5595566805571
 20
204.51724137931035
 10
283.069867042392
 20
204.51724137931035
 10
284.3311404293143
 20
204.51724137931035
 10
285.2801313270848
 20
204.51724137931035
 10
285.8692533694483
 20
204.51724137931035
 10
286.0689655172414
 20
204.51724137931035
  0
LWPOLYLINE
  5
F9
330
17
100
AcDbEntity
  8
OUTLINE
100
AcDbPolyline
 90
15
 70
0
 10
270.13793103448273
 20
201.86206896551724
 10
270.3376431822758
 20
201.86206896551724
 10
270.9267652246393
 20
201.86206896551724
 10
271.8757561224098
 20
201.86206896551724
 10
273.13702950933214
 20
201.86206896551724
 10
274.64733987116705
 20
201.86206896551724
 10
276.3309539398652
 20
201.86206896551724
 10
278.1034482758621
 20
201.86206896551724
 10
279.87594261185893
 20
201.86206896551724
 10
281.5595566805571
 20
201.86206896551724
 10
283.069867042392
 20
201.86206896551724
 10
284.3311404293143
 20
201.86206896551724
 10
285.2801313270848
 20
201.86206896551724
 10
285.8692533694483
 20
201.86206896551724
 10
286.0689655172414
 20
201.86206896551724
  0
LWPOLYLINE
  5
FA
330
17
100
AcDbEntity
  8
OUTLINE
100
AcDbPolyline
 90
2
 70
0
 10
341.82758620689657
 20
191.24137931034483
 10
262.17241379310343
 20
191.24137931034483
  0
LWPOLYLINE
  5
FB
330
17
100
AcDbEntity
  8
OUTLINE
100
AcDbPolyline
 90
2
 70
0
 10
262.17241379310343
 20
170.0
 10
262.17241379310343
 20
191.24137931034483
  0
LWPOLYLINE
  5
FC
330
17
100
AcDbEntity
  8
OUTLINE
100
AcDbPolyline
 90
2
 70
0
 10
341.82758620689657
 20
170.0
 10
341.82758620689657
 20
191.24137931034483
  0
LWPOLYLINE
  5
FD
330
17
100
AcDbEntity
  8
OUTLINE
100
AcDbPolyline
 90
2
 70
0
 10
341.82758620689657
 20
170.0
 10
262.17241379310343
 20
170.0
  0
LWPOLYLINE
  5
FE
330
17
100
AcDbEntity
  8
OUTLINE
100
AcDbPolyline
 90
2
 70
0
 10
286.0689655172414
 20
191.24137931034483
 10
286.0689655172414
 20
201.86206896551724
  0
LWPOLYLINE
  5
FF
330
17
100
AcDbEntity
  8
OUTLINE
100
AcDbPolyline
 90
2
 70
0
 10
286.0689655172414
 20
204.51724137931035
 10
286.0689655172414
 20
247.0
  0
LWPOLYLINE
  5
100
330
17
100
AcDbEntity
  8
OUTLINE
100
AcDbPolyline
 90
2
 70
0
 10
317.9310344827586
 20
191.24137931034483
 10
317.9310344827586
 20
247.0
  0
LWPOLYLINE
  5
101
330
17
100
AcDbEntity
  8
OUTLINE
100
AcDbPolyline
 90
2
 70
0
 10
317.9310344827586
 20
247.0
 10
286.0689655172414
 20
247.0
  0
LWPOLYLINE
  5
102
330
17
100
AcDbEntity
  8
OUTLINE
100
AcDbPolyline
 90
2
 70
0
 10
286.0689655172414
 20
201.86206896551724
 10
286.0689655172414
 20
204.51724137931035
  0
LWPOLYLINE
  5
103
330
17
100
AcDbEntity
  8
OUTLINE
100
AcDbPolyline
 90
2
 70
0
 10
270.13793103448273
 20
201.86206896551724
 10
270.13793103448273
 20
204.51724137931035
  0
LWPOLYLINE
  5
104
330
17
100
AcDbEntity
  8
OUTLINE
100
AcDbPolyline
 90
2
 70
0
 10
283.41379310344826
 20
191.24137931034483
 10
283.41379310344826
 20
201.86206896551724
  0
LWPOLYLINE
  5
105
330
17
100
AcDbEntity
  8
OUTLINE
100
AcDbPolyline
 90
2
 70
0
 10
272.7931034482759
 20
191.24137931034483
 10
272.7931034482759
 20
201.86206896551724
  0
TEXT
  5
106
330
17
100
AcDbEntity
  8
TEXT
100
AcDbText
 10
217.0
 20
163.0
 30
0.0
 40
2.6
  1
END  (view scale 2.66:1)
100
AcDbText
  0
LWPOLYLINE
  5
107
330
17
100
AcDbEntity
  8
DIM
100
AcDbPolyline
 90
2
 70
0
 10
22.0
 20
161.0
 10
192.0
 20
161.0
  0
LWPOLYLINE
  5
108
330
17
100
AcDbEntity
  8
DIM
100
AcDbPolyline
 90
2
 70
0
 10
21.0
 20
160.0
 10
23.0
 20
162.0
  0
LWPOLYLINE
  5
109
330
17
100
AcDbEntity
  8
DIM
100
AcDbPolyline
 90
2
 70
0
 10
191.0
 20
160.0
 10
193.0
 20
162.0
  0
TEXT
  5
10A
330
17
100
AcDbEntity
  8
DIM
100
AcDbText
 10
100.0
 20
163.0
 30
0.0
 40
2.8
  1
102.0000 X
100
AcDbText
  0
LWPOLYLINE
  5
10B
330
17
100
AcDbEntity
  8
DIM
100
AcDbPolyline
 90
2
 70
0
 10
202.0
 20
185.0
 10
202.0
 20
235.0
  0
LWPOLYLINE
  5
10C
330
17
100
AcDbEntity
  8
DIM
100
AcDbPolyline
 90
2
 70
0
 10
201.0
 20
184.0
 10
203.0
 20
186.0
  0
LWPOLYLINE
  5
10D
330
17
100
AcDbEntity
  8
DIM
100
AcDbPolyline
 90
2
 70
0
 10
201.0
 20
234.0
 10
203.0
 20
236.0
  0
TEXT
  5
10E
330
17
100
AcDbEntity
  8
DIM
100
AcDbText
 10
204.0
 20
210.0
 30
0.0
 40
2.8
  1
30.00 Y
100
AcDbText
  0
LWPOLYLINE
  5
10F
330
17
100
AcDbEntity
  8
DIM
100
AcDbPolyline
 90
2
 70
0
 10
202.0
 20
75.83333333333333
 10
202.0
 20
124.16666666666666
  0
LWPOLYLINE
  5
110
330
17
100
AcDbEntity
  8
DIM
100
AcDbPolyline
 90
2
 70
0
 10
201.0
 20
74.83333333333333
 10
203.0
 20
76.83333333333333
  0
LWPOLYLINE
  5
111
330
17
100
AcDbEntity
  8
DIM
100
AcDbPolyline
 90
2
 70
0
 10
201.0
 20
123.16666666666666
 10
203.0
 20
125.16666666666666
  0
TEXT
  5
112
330
17
100
AcDbEntity
  8
DIM
100
AcDbText
 10
204.0
 20
100.0
 30
0.0
 40
2.8
  1
29.00 Z
100
AcDbText
  0
TEXT
  5
113
330
17
100
AcDbEntity
  8
TEXT
100
AcDbText
 10
218.0
 20
128.0
 30
0.0
 40
2.8
  1
BODY 102 x30 x8; print flat with push tower up.
100
AcDbText
  0
TEXT
  5
114
330
17
100
AcDbEntity
  8
TEXT
100
AcDbText
 10
218.0
 20
117.0
 30
0.0
 40
2.8
  1
Cassette holes at X8 Y+/-8: DIA3.40 through.
100
AcDbText
  0
TEXT
  5
115
330
17
100
AcDbEntity
  8
TEXT
100
AcDbText
 10
218.0
 20
106.0
 30
0.0
 40
2.8
  1
Underside nut recess AF5.80 x2.60 at both holes.
100
AcDbText
  0
TEXT
  5
116
330
17
100
AcDbEntity
  8
TEXT
100
AcDbText
 10
218.0
 20
95.0
 30
0.0
 40
2.8
  1
Push face X102; micrometer contacts local Z24, Y0.
100
AcDbText
  0
TEXT
  5
117
330
17
100
AcDbEntity
  8
TEXT
100
AcDbText
 10
218.0
 20
84.0
 30
0.0
 40
2.8
  1
Slide width30.00 in30.60 channel; remove burrs only.
100
AcDbText
  0
TEXT
  5
118
330
17
100
AcDbEntity
  8
TEXT
100
AcDbText
 10
218.0
 20
73.0
 30
0.0
 40
2.8
  1
Assembled bottom Z6; top Z14. Check free motion.
100
AcDbText
  0
TEXT
  5
119
330
17
100
AcDbEntity
  8
TEXT
100
AcDbText
 10
218.0
 20
51.0
 30
0.0
 40
2.55
  1
General prototype target: +/-0.20mm unless called out.
100
AcDbText
  0
TEXT
  5
11A
330
17
100
AcDbEntity
  8
TEXT
100
AcDbText
 10
218.0
 20
41.0
 30
0.0
 40
2.55
  1
CAD is nominal. Fit, measure and qualify before calibration.
100
AcDbText
  0
ENDSEC
  0
SECTION
  2
OBJECTS
  0
DICTIONARY
  5
A
330
0
100
AcDbDictionary
281
1
  3
ACAD_COLOR
350
B
  3
ACAD_GROUP
350
C
  3
ACAD_LAYOUT
350
D
  3
ACAD_MATERIAL
350
E
  3
ACAD_MLEADERSTYLE
350
F
  3
ACAD_MLINESTYLE
350
10
  3
ACAD_PLOTSETTINGS
350
11
  3
ACAD_PLOTSTYLENAME
350
12
  3
ACAD_SCALELIST
350
14
  3
ACAD_TABLESTYLE
350
15
  3
ACAD_VISUALSTYLE
350
16
  3
EZDXF_META
350
2D
  0
DICTIONARY
  5
B
330
A
100
AcDbDictionary
281
1
  0
DICTIONARY
  5
C
330
A
100
AcDbDictionary
281
1
  0
DICTIONARY
  5
D
330
A
100
AcDbDictionary
281
1
  3
Model
350
1A
  3
Layout1
350
1E
  0
DICTIONARY
  5
E
330
A
100
AcDbDictionary
281
1
  3
ByBlock
350
1F
  3
ByLayer
350
20
  3
Global
350
21
  0
DICTIONARY
  5
F
330
A
100
AcDbDictionary
281
1
  3
Standard
350
2C
  0
DICTIONARY
  5
10
330
A
100
AcDbDictionary
281
1
  3
Standard
350
22
  0
DICTIONARY
  5
11
330
A
100
AcDbDictionary
281
1
  0
ACDBDICTIONARYWDFLT
  5
12
330
A
100
AcDbDictionary
281
1
  3
Normal
350
13
100
AcDbDictionaryWithDefault
340
13
  0
ACDBPLACEHOLDER
  5
13
330
12
  0
DICTIONARY
  5
14
330
A
100
AcDbDictionary
281
1
  0
DICTIONARY
  5
15
330
A
100
AcDbDictionary
281
1
  0
DICTIONARY
  5
16
330
A
100
AcDbDictionary
281
1
  0
LAYOUT
  5
1A
330
D
100
AcDbPlotSettings
  1

  4
A3
  6

 40
7.5
 41
20.0
 42
7.5
 43
20.0
 44
420.0
 45
297.0
 46
0.0
 47
0.0
 48
0.0
 49
0.0
140
0.0
141
0.0
142
1.0
143
1.0
 70
1024
 72
1
 73
0
 74
5
  7

 75
16
 76
0
 77
2
 78
300
147
1.0
148
0.0
149
0.0
100
AcDbLayout
  1
Model
 70
1
 71
0
 10
0.0
 20
0.0
 11
420.0
 21
297.0
 12
0.0
 22
0.0
 32
0.0
 14
1e+20
 24
1e+20
 34
1e+20
 15
-1e+20
 25
-1e+20
 35
-1e+20
146
0.0
 13
0.0
 23
0.0
 33
0.0
 16
1.0
 26
0.0
 36
0.0
 17
0.0
 27
1.0
 37
0.0
 76
1
330
17
  0
LAYOUT
  5
1E
330
D
100
AcDbPlotSettings
  1

  4
A3
  6

 40
7.5
 41
20.0
 42
7.5
 43
20.0
 44
420.0
 45
297.0
 46
0.0
 47
0.0
 48
0.0
 49
0.0
140
0.0
141
0.0
142
1.0
143
1.0
 70
0
 72
1
 73
0
 74
5
  7

 75
16
 76
0
 77
2
 78
300
147
1.0
148
0.0
149
0.0
100
AcDbLayout
  1
Layout1
 70
1
 71
1
 10
0.0
 20
0.0
 11
420.0
 21
297.0
 12
0.0
 22
0.0
 32
0.0
 14
1e+20
 24
1e+20
 34
1e+20
 15
-1e+20
 25
-1e+20
 35
-1e+20
146
0.0
 13
0.0
 23
0.0
 33
0.0
 16
1.0
 26
0.0
 36
0.0
 17
0.0
 27
1.0
 37
0.0
 76
1
330
1B
  0
MATERIAL
  5
1F
102
{ACAD_REACTORS
330
E
102
}
330
E
100
AcDbMaterial
  1
ByBlock
  2

 70
0
 40
1.0
 71
1
 41
1.0
 91
-1023410177
 42
1.0
 72
1
  3

 73
1
 74
1
 75
1
 44
0.5
 73
0
 45
1.0
 46
1.0
 77
1
  4

 78
1
 79
1
170
1
 48
1.0
171
1
  6

172
1
173
1
174
1
140
1.0
141
1.0
175
1
  7

176
1
177
1
178
1
143
1.0
179
1
  8

270
1
271
1
272
1
145
1.0
146
1.0
273
1
  9

274
1
275
1
276
1
 42
1.0
 72
1
  3

 73
1
 74
1
 75
1
 94
63
  0
MATERIAL
  5
20
102
{ACAD_REACTORS
330
E
102
}
330
E
100
AcDbMaterial
  1
ByLayer
  2

 70
0
 40
1.0
 71
1
 41
1.0
 91
-1023410177
 42
1.0
 72
1
  3

 73
1
 74
1
 75
1
 44
0.5
 73
0
 45
1.0
 46
1.0
 77
1
  4

 78
1
 79
1
170
1
 48
1.0
171
1
  6

172
1
173
1
174
1
140
1.0
141
1.0
175
1
  7

176
1
177
1
178
1
143
1.0
179
1
  8

270
1
271
1
272
1
145
1.0
146
1.0
273
1
  9

274
1
275
1
276
1
 42
1.0
 72
1
  3

 73
1
 74
1
 75
1
 94
63
  0
MATERIAL
  5
21
102
{ACAD_REACTORS
330
E
102
}
330
E
100
AcDbMaterial
  1
Global
  2

 70
0
 40
1.0
 71
1
 41
1.0
 91
-1023410177
 42
1.0
 72
1
  3

 73
1
 74
1
 75
1
 44
0.5
 73
0
 45
1.0
 46
1.0
 77
1
  4

 78
1
 79
1
170
1
 48
1.0
171
1
  6

172
1
173
1
174
1
140
1.0
141
1.0
175
1
  7

176
1
177
1
178
1
143
1.0
179
1
  8

270
1
271
1
272
1
145
1.0
146
1.0
273
1
  9

274
1
275
1
276
1
 42
1.0
 72
1
  3

 73
1
 74
1
 75
1
 94
63
  0
MLINESTYLE
  5
22
102
{ACAD_REACTORS
330
10
102
}
330
10
100
AcDbMlineStyle
  2
Standard
 70
0
  3

 62
256
 51
90.0
 52
90.0
 71
2
 49
0.5
 62
256
  6
BYLAYER
 49
-0.5
 62
256
  6
BYLAYER
  0
MLEADERSTYLE
  5
2C
102
{ACAD_REACTORS
330
F
102
}
330
F
100
AcDbMLeaderStyle
179
2
170
2
171
1
172
0
 90
2
 40
0.0
 41
0.0
173
1
 91
-1056964608
 92
-2
290
1
 42
2.0
291
1
 43
8.0
  3
Standard
 44
4.0
300

342
29
174
1
175
1
176
0
178
1
 93
-1056964608
 45
4.0
292
0
297
0
 46
4.0
 94
-1056964608
 47
1.0
 49
1.0
140
1.0
294
1
141
0.0
177
0
142
1.0
295
0
296
0
143
3.75
271
0
272
9
273
9
  0
DICTIONARY
  5
2D
330
A
100
AcDbDictionary
280
1
281
1
  3
CREATED_BY_EZDXF
350
2E
  3
WRITTEN_BY_EZDXF
350
11D
  0
DICTIONARYVAR
  5
2E
330
2D
100
DictionaryVariables
280
0
  1
1.4.4 @ 2026-09-10T02:54:36.529210+00:00
  0
DICTIONARYVAR
  5
11D
330
2D
100
DictionaryVariables
280
0
  1
1.4.4 @ 2026-09-10T02:54:36.584222+00:00
  0
ENDSEC
  0
EOF
