  0
SECTION
  2
HEADER
  9
$ACADVER
  1
AC1015
  9
$ACADMAINTVER
 70
6
  9
$DWGCODEPAGE
  3
ANSI_1252
  9
$INSBASE
 10
0.0
 20
0.0
 30
0.0
  9
$EXTMIN
 10
1e+20
 20
1e+20
 30
1e+20
  9
$EXTMAX
 10
-1e+20
 20
-1e+20
 30
-1e+20
  9
$LIMMIN
 10
0.0
 20
0.0
  9
$LIMMAX
 10
420.0
 20
297.0
  9
$ORTHOMODE
 70
0
  9
$REGENMODE
 70
1
  9
$FILLMODE
 70
1
  9
$QTEXTMODE
 70
0
  9
$MIRRTEXT
 70
1
  9
$LTSCALE
 40
1.0
  9
$ATTMODE
 70
1
  9
$TEXTSIZE
 40
2.5
  9
$TRACEWID
 40
1.0
  9
$TEXTSTYLE
  7
Standard
  9
$CLAYER
  8
0
  9
$CELTYPE
  6
ByLayer
  9
$CECOLOR
 62
256
  9
$CELTSCALE
 40
1.0
  9
$DISPSILH
 70
0
  9
$DIMSCALE
 40
1.0
  9
$DIMASZ
 40
2.5
  9
$DIMEXO
 40
0.625
  9
$DIMDLI
 40
3.75
  9
$DIMRND
 40
0.0
  9
$DIMDLE
 40
0.0
  9
$DIMEXE
 40
1.25
  9
$DIMTP
 40
0.0
  9
$DIMTM
 40
0.0
  9
$DIMTXT
 40
2.5
  9
$DIMCEN
 40
2.5
  9
$DIMTSZ
 40
0.0
  9
$DIMTOL
 70
0
  9
$DIMLIM
 70
0
  9
$DIMTIH
 70
0
  9
$DIMTOH
 70
0
  9
$DIMSE1
 70
0
  9
$DIMSE2
 70
0
  9
$DIMTAD
 70
1
  9
$DIMZIN
 70
8
  9
$DIMBLK
  1

  9
$DIMASO
 70
1
  9
$DIMSHO
 70
1
  9
$DIMPOST
  1

  9
$DIMAPOST
  1

  9
$DIMALT
 70
0
  9
$DIMALTD
 70
3
  9
$DIMALTF
 40
0.03937007874
  9
$DIMLFAC
 40
1.0
  9
$DIMTOFL
 70
1
  9
$DIMTVP
 40
0.0
  9
$DIMTIX
 70
0
  9
$DIMSOXD
 70
0
  9
$DIMSAH
 70
0
  9
$DIMBLK1
  1

  9
$DIMBLK2
  1

  9
$DIMSTYLE
  2
ISO-25
  9
$DIMCLRD
 70
0
  9
$DIMCLRE
 70
0
  9
$DIMCLRT
 70
0
  9
$DIMTFAC
 40
1.0
  9
$DIMGAP
 40
0.625
  9
$DIMJUST
 70
0
  9
$DIMSD1
 70
0
  9
$DIMSD2
 70
0
  9
$DIMTOLJ
 70
0
  9
$DIMTZIN
 70
8
  9
$DIMALTZ
 70
0
  9
$DIMALTTZ
 70
0
  9
$DIMUPT
 70
0
  9
$DIMDEC
 70
2
  9
$DIMTDEC
 70
2
  9
$DIMALTU
 70
2
  9
$DIMALTTD
 70
3
  9
$DIMTXSTY
  7
Standard
  9
$DIMAUNIT
 70
0
  9
$DIMADEC
 70
0
  9
$DIMALTRND
 40
0.0
  9
$DIMAZIN
 70
0
  9
$DIMDSEP
 70
44
  9
$DIMATFIT
 70
3
  9
$DIMFRAC
 70
0
  9
$DIMLDRBLK
  1

  9
$DIMLUNIT
 70
2
  9
$DIMLWD
 70
-2
  9
$DIMLWE
 70
-2
  9
$DIMTMOVE
 70
0
  9
$LUNITS
 70
2
  9
$LUPREC
 70
4
  9
$SKETCHINC
 40
1.0
  9
$FILLETRAD
 40
10.0
  9
$AUNITS
 70
0
  9
$AUPREC
 70
2
  9
$MENU
  1
.
  9
$ELEVATION
 40
0.0
  9
$PELEVATION
 40
0.0
  9
$THICKNESS
 40
0.0
  9
$LIMCHECK
 70
0
  9
$CHAMFERA
 40
0.0
  9
$CHAMFERB
 40
0.0
  9
$CHAMFERC
 40
0.0
  9
$CHAMFERD
 40
0.0
  9
$SKPOLY
 70
0
  9
$TDCREATE
 40
2461293.912916667
  9
$TDUCREATE
 40
2458532.153996898
  9
$TDUPDATE
 40
2461293.912916667
  9
$TDUUPDATE
 40
2458532.1544311
  9
$TDINDWG
 40
0.0
  9
$TDUSRTIMER
 40
0.0
  9
$USRTIMER
 70
1
  9
$ANGBASE
 50
0.0
  9
$ANGDIR
 70
0
  9
$PDMODE
 70
0
  9
$PDSIZE
 40
0.0
  9
$PLINEWID
 40
0.0
  9
$SPLFRAME
 70
0
  9
$SPLINETYPE
 70
6
  9
$SPLINESEGS
 70
8
  9
$HANDSEED
  5
13E
  9
$SURFTAB1
 70
6
  9
$SURFTAB2
 70
6
  9
$SURFTYPE
 70
6
  9
$SURFU
 70
6
  9
$SURFV
 70
6
  9
$UCSBASE
  2

  9
$UCSNAME
  2

  9
$UCSORG
 10
0.0
 20
0.0
 30
0.0
  9
$UCSXDIR
 10
1.0
 20
0.0
 30
0.0
  9
$UCSYDIR
 10
0.0
 20
1.0
 30
0.0
  9
$UCSORTHOREF
  2

  9
$UCSORTHOVIEW
 70
0
  9
$UCSORGTOP
 10
0.0
 20
0.0
 30
0.0
  9
$UCSORGBOTTOM
 10
0.0
 20
0.0
 30
0.0
  9
$UCSORGLEFT
 10
0.0
 20
0.0
 30
0.0
  9
$UCSORGRIGHT
 10
0.0
 20
0.0
 30
0.0
  9
$UCSORGFRONT
 10
0.0
 20
0.0
 30
0.0
  9
$UCSORGBACK
 10
0.0
 20
0.0
 30
0.0
  9
$PUCSBASE
  2

  9
$PUCSNAME
  2

  9
$PUCSORG
 10
0.0
 20
0.0
 30
0.0
  9
$PUCSXDIR
 10
1.0
 20
0.0
 30
0.0
  9
$PUCSYDIR
 10
0.0
 20
1.0
 30
0.0
  9
$PUCSORTHOREF
  2

  9
$PUCSORTHOVIEW
 70
0
  9
$PUCSORGTOP
 10
0.0
 20
0.0
 30
0.0
  9
$PUCSORGBOTTOM
 10
0.0
 20
0.0
 30
0.0
  9
$PUCSORGLEFT
 10
0.0
 20
0.0
 30
0.0
  9
$PUCSORGRIGHT
 10
0.0
 20
0.0
 30
0.0
  9
$PUCSORGFRONT
 10
0.0
 20
0.0
 30
0.0
  9
$PUCSORGBACK
 10
0.0
 20
0.0
 30
0.0
  9
$USERI1
 70
0
  9
$USERI2
 70
0
  9
$USERI3
 70
0
  9
$USERI4
 70
0
  9
$USERI5
 70
0
  9
$USERR1
 40
0.0
  9
$USERR2
 40
0.0
  9
$USERR3
 40
0.0
  9
$USERR4
 40
0.0
  9
$USERR5
 40
0.0
  9
$WORLDVIEW
 70
1
  9
$SHADEDGE
 70
3
  9
$SHADEDIF
 70
70
  9
$TILEMODE
 70
1
  9
$MAXACTVP
 70
64
  9
$PINSBASE
 10
0.0
 20
0.0
 30
0.0
  9
$PLIMCHECK
 70
0
  9
$PEXTMIN
 10
1e+20
 20
1e+20
 30
1e+20
  9
$PEXTMAX
 10
-1e+20
 20
-1e+20
 30
-1e+20
  9
$PLIMMIN
 10
0.0
 20
0.0
  9
$PLIMMAX
 10
420.0
 20
297.0
  9
$UNITMODE
 70
0
  9
$VISRETAIN
 70
1
  9
$PLINEGEN
 70
0
  9
$PSLTSCALE
 70
1
  9
$TREEDEPTH
 70
3020
  9
$CMLSTYLE
  2
Standard
  9
$CMLJUST
 70
0
  9
$CMLSCALE
 40
20.0
  9
$PROXYGRAPHICS
 70
1
  9
$MEASUREMENT
 70
1
  9
$CELWEIGHT
370
-1
  9
$ENDCAPS
280
0
  9
$JOINSTYLE
280
0
  9
$LWDISPLAY
290
0
  9
$INSUNITS
 70
4
  9
$HYPERLINKBASE
  1

  9
$STYLESHEET
  1

  9
$XEDIT
290
1
  9
$CEPSNTYPE
380
0
  9
$PSTYLEMODE
290
1
  9
$FINGERPRINTGUID
  2
{33CF0096-5C4D-4A4A-AE90-52591A33382D}
  9
$VERSIONGUID
  2
{887F270B-1EC8-4865-BC9F-B2FE47375C27}
  9
$EXTNAMES
290
1
  9
$PSVPSCALE
 40
0.0
  9
$OLESTARTUP
290
0
  0
ENDSEC
  0
SECTION
  2
CLASSES
  0
CLASS
  1
ACDBDICTIONARYWDFLT
  2
AcDbDictionaryWithDefault
  3
ObjectDBX Classes
 90
0
280
0
281
0
  0
CLASS
  1
SUN
  2
AcDbSun
  3
SCENEOE
 90
1153
280
0
281
0
  0
CLASS
  1
VISUALSTYLE
  2
AcDbVisualStyle
  3
ObjectDBX Classes
 90
4095
280
0
281
0
  0
CLASS
  1
MATERIAL
  2
AcDbMaterial
  3
ObjectDBX Classes
 90
1153
280
0
281
0
  0
CLASS
  1
SCALE
  2
AcDbScale
  3
ObjectDBX Classes
 90
1153
280
0
281
0
  0
CLASS
  1
TABLESTYLE
  2
AcDbTableStyle
  3
ObjectDBX Classes
 90
4095
280
0
281
0
  0
CLASS
  1
MLEADERSTYLE
  2
AcDbMLeaderStyle
  3
ACDB_MLEADERSTYLE_CLASS
 90
4095
280
0
281
0
  0
CLASS
  1
DICTIONARYVAR
  2
AcDbDictionaryVar
  3
ObjectDBX Classes
 90
0
280
0
281
0
  0
CLASS
  1
CELLSTYLEMAP
  2
AcDbCellStyleMap
  3
ObjectDBX Classes
 90
1152
280
0
281
0
  0
CLASS
  1
MENTALRAYRENDERSETTINGS
  2
AcDbMentalRayRenderSettings
  3
SCENEOE
 90
1024
280
0
281
0
  0
CLASS
  1
ACDBDETAILVIEWSTYLE
  2
AcDbDetailViewStyle
  3
ObjectDBX Classes
 90
1025
280
0
281
0
  0
CLASS
  1
ACDBSECTIONVIEWSTYLE
  2
AcDbSectionViewStyle
  3
ObjectDBX Classes
 90
1025
280
0
281
0
  0
CLASS
  1
RASTERVARIABLES
  2
AcDbRasterVariables
  3
ISM
 90
0
280
0
281
0
  0
CLASS
  1
ACDBPLACEHOLDER
  2
AcDbPlaceHolder
  3
ObjectDBX Classes
 90
0
280
0
281
0
  0
CLASS
  1
LAYOUT
  2
AcDbLayout
  3
ObjectDBX Classes
 90
0
280
0
281
0
  0
ENDSEC
  0
SECTION
  2
TABLES
  0
TABLE
  2
VPORT
  5
8
330
0
100
AcDbSymbolTable
 70
1
  0
VPORT
  5
23
330
8
100
AcDbSymbolTableRecord
100
AcDbViewportTableRecord
  2
*Active
 70
0
 10
0.0
 20
0.0
 11
1.0
 21
1.0
 12
0.0
 22
0.0
 13
0.0
 23
0.0
 14
0.5
 24
0.5
 15
0.5
 25
0.5
 16
0.0
 26
0.0
 36
1.0
 17
0.0
 27
0.0
 37
0.0
 40
1000.0
 41
1.34
 42
50.0
 43
0.0
 44
0.0
 50
0.0
 51
0.0
 71
0
 72
1000
 73
1
 74
3
 75
0
 76
0
 77
0
 78
0
281
0
 65
0
146
0.0
  0
ENDTAB
  0
TABLE
  2
LTYPE
  5
2
330
0
100
AcDbSymbolTable
 70
3
  0
LTYPE
  5
24
330
2
100
AcDbSymbolTableRecord
100
AcDbLinetypeTableRecord
  2
ByBlock
 70
0
  3

 72
65
 73
0
 40
0.0
  0
LTYPE
  5
25
330
2
100
AcDbSymbolTableRecord
100
AcDbLinetypeTableRecord
  2
ByLayer
 70
0
  3

 72
65
 73
0
 40
0.0
  0
LTYPE
  5
26
330
2
100
AcDbSymbolTableRecord
100
AcDbLinetypeTableRecord
  2
Continuous
 70
0
  3

 72
65
 73
0
 40
0.0
  0
ENDTAB
  0
TABLE
  2
LAYER
  5
1
330
0
100
AcDbSymbolTable
 70
6
  0
LAYER
  5
27
330
1
100
AcDbSymbolTableRecord
100
AcDbLayerTableRecord
  2
0
 70
0
 62
7
  6
Continuous
370
-3
390
13
  0
LAYER
  5
28
330
1
100
AcDbSymbolTableRecord
100
AcDbLayerTableRecord
  2
Defpoints
 70
0
 62
7
  6
Continuous
290
0
370
-3
390
13
  0
LAYER
  5
2F
330
1
100
AcDbSymbolTableRecord
100
AcDbLayerTableRecord
  2
OUTLINE
 70
0
 62
7
  6
Continuous
370
-3
390
13
  0
LAYER
  5
30
330
1
100
AcDbSymbolTableRecord
100
AcDbLayerTableRecord
  2
HIDDEN
 70
0
 62
8
  6
Continuous
370
-3
390
13
  0
LAYER
  5
31
330
1
100
AcDbSymbolTableRecord
100
AcDbLayerTableRecord
  2
DIM
 70
0
 62
4
  6
Continuous
370
-3
390
13
  0
LAYER
  5
32
330
1
100
AcDbSymbolTableRecord
100
AcDbLayerTableRecord
  2
TEXT
 70
0
 62
7
  6
Continuous
370
-3
390
13
  0
ENDTAB
  0
TABLE
  2
STYLE
  5
5
330
0
100
AcDbSymbolTable
 70
1
  0
STYLE
  5
29
330
5
100
AcDbSymbolTableRecord
100
AcDbTextStyleTableRecord
  2
Standard
 70
0
 40
0.0
 41
1.0
 50
0.0
 71
0
 42
2.5
  3
txt
  4

  0
ENDTAB
  0
TABLE
  2
VIEW
  5
7
330
0
100
AcDbSymbolTable
 70
0
  0
ENDTAB
  0
TABLE
  2
UCS
  5
6
330
0
100
AcDbSymbolTable
 70
0
  0
ENDTAB
  0
TABLE
  2
APPID
  5
3
330
0
100
AcDbSymbolTable
 70
3
  0
APPID
  5
2A
330
3
100
AcDbSymbolTableRecord
100
AcDbRegAppTableRecord
  2
ACAD
 70
0
  0
APPID
  5
13B
330
3
100
AcDbSymbolTableRecord
100
AcDbRegAppTableRecord
  2
HATCHBACKGROUNDCOLOR
 70
0
  0
APPID
  5
13C
330
3
100
AcDbSymbolTableRecord
100
AcDbRegAppTableRecord
  2
EZDXF
 70
0
  0
ENDTAB
  0
TABLE
  2
DIMSTYLE
  5
4
330
0
100
AcDbSymbolTable
 70
1
100
AcDbDimStyleTable
  0
DIMSTYLE
105
2B
330
4
100
AcDbSymbolTableRecord
100
AcDbDimStyleTableRecord
  2
Standard
 70
0
  3

  4

 40
1.0
 41
2.5
 42
0.625
 43
3.75
 44
1.25
 45
0.0
 46
0.0
 47
0.0
 48
0.0
140
2.5
141
2.5
142
0.0
143
0.03937007874
144
1.0
145
0.0
146
1.0
147
0.625
148
0.0
 71
0
 72
0
 73
0
 74
0
 75
0
 76
0
 77
1
 78
8
 79
3
170
0
171
3
172
1
173
0
174
0
175
0
176
0
177
0
178
0
179
2
271
2
272
2
273
2
274
3
275
0
276
0
277
2
278
44
279
0
280
0
281
0
282
0
283
0
284
8
285
0
286
0
288
0
289
3
371
-2
372
-2
  0
ENDTAB
  0
TABLE
  2
BLOCK_RECORD
  5
9
330
0
100
AcDbSymbolTable
 70
2
  0
BLOCK_RECORD
  5
17
330
9
100
AcDbSymbolTableRecord
100
AcDbBlockTableRecord
  2
*Model_Space
340
1A
  0
BLOCK_RECORD
  5
1B
330
9
100
AcDbSymbolTableRecord
100
AcDbBlockTableRecord
  2
*Paper_Space
340
1E
  0
ENDTAB
  0
ENDSEC
  0
SECTION
  2
BLOCKS
  0
BLOCK
  5
18
330
17
100
AcDbEntity
  8
0
100
AcDbBlockBegin
  2
*Model_Space
 70
0
 10
0.0
 20
0.0
 30
0.0
  3
*Model_Space
  1

  0
ENDBLK
  5
19
330
17
100
AcDbEntity
  8
0
100
AcDbBlockEnd
  0
BLOCK
  5
1C
330
1B
100
AcDbEntity
  8
0
100
AcDbBlockBegin
  2
*Paper_Space
 70
0
 10
0.0
 20
0.0
 30
0.0
  3
*Paper_Space
  1

  0
ENDBLK
  5
1D
330
1B
100
AcDbEntity
  8
0
100
AcDbBlockEnd
  0
ENDSEC
  0
SECTION
  2
ENTITIES
  0
LWPOLYLINE
  5
33
330
17
100
AcDbEntity
  8
OUTLINE
100
AcDbPolyline
 90
5
 70
0
 10
8.0
 20
8.0
 10
412.0
 20
8.0
 10
412.0
 20
289.0
 10
8.0
 20
289.0
 10
8.0
 20
8.0
  0
TEXT
  5
34
330
17
100
AcDbEntity
  8
TEXT
100
AcDbText
 10
15.0
 20
278.0
 30
0.0
 40
5.0
  1
P04  |  P04 BLOCK2 SENSOR MOUNT
100
AcDbText
  0
TEXT
  5
35
330
17
100
AcDbEntity
  8
TEXT
100
AcDbText
 10
15.0
 20
270.0
 30
0.0
 40
2.6
  1
Prototype Rev A | Units mm | Dimensions control; do not scale printed pages
100
AcDbText
  0
LWPOLYLINE
  5
36
330
17
100
AcDbEntity
  8
OUTLINE
100
AcDbPolyline
 90
2
 70
0
 10
8.0
 20
32.0
 10
412.0
 20
32.0
  0
TEXT
  5
37
330
17
100
AcDbEntity
  8
TEXT
100
AcDbText
 10
15.0
 20
22.0
 30
0.0
 40
3.0
  1
HF-01  /  MAGNET-SENSOR CHARACTERIZATION
100
AcDbText
  0
TEXT
  5
38
330
17
100
AcDbEntity
  8
TEXT
100
AcDbText
 10
15.0
 20
15.0
 30
0.0
 40
2.4
  1
REV A  |  2026-09-09  |  Printed parts + McMaster COTS  |  Room-temperature bench prototype
100
AcDbText
  0
TEXT
  5
39
330
17
100
AcDbEntity
  8
TEXT
100
AcDbText
 10
332.0
 20
20.0
 30
0.0
 40
3.0
  1
P04  |  A3  |  MM
100
AcDbText
  0
LWPOLYLINE
  5
3A
330
17
100
AcDbEntity
  8
HIDDEN
100
AcDbPolyline
 90
2
 70
0
 10
94.74193548387098
 20
172.0
 10
94.74193548387098
 20
248.0
  0
LWPOLYLINE
  5
3B
330
17
100
AcDbEntity
  8
HIDDEN
100
AcDbPolyline
 90
2
 70
0
 10
94.74193548387098
 20
248.0
 10
119.25806451612904
 20
248.0
  0
LWPOLYLINE
  5
3C
330
17
100
AcDbEntity
  8
HIDDEN
100
AcDbPolyline
 90
2
 70
0
 10
119.25806451612904
 20
229.0
 10
119.25806451612904
 20
248.0
  0
LWPOLYLINE
  5
3D
330
17
100
AcDbEntity
  8
HIDDEN
100
AcDbPolyline
 90
2
 70
0
 10
119.25806451612904
 20
229.0
 10
109.45161290322581
 20
229.0
  0
LWPOLYLINE
  5
3E
330
17
100
AcDbEntity
  8
HIDDEN
100
AcDbPolyline
 90
2
 70
0
 10
94.74193548387098
 20
172.0
 10
119.25806451612904
 20
172.0
  0
LWPOLYLINE
  5
3F
330
17
100
AcDbEntity
  8
HIDDEN
100
AcDbPolyline
 90
2
 70
0
 10
109.45161290322581
 20
191.0
 10
109.45161290322581
 20
229.0
  0
LWPOLYLINE
  5
40
330
17
100
AcDbEntity
  8
HIDDEN
100
AcDbPolyline
 90
2
 70
0
 10
119.25806451612904
 20
172.0
 10
119.25806451612904
 20
191.0
  0
LWPOLYLINE
  5
41
330
17
100
AcDbEntity
  8
HIDDEN
100
AcDbPolyline
 90
2
 70
0
 10
119.25806451612904
 20
191.0
 10
109.45161290322581
 20
191.0
  0
LWPOLYLINE
  5
42
330
17
100
AcDbEntity
  8
HIDDEN
100
AcDbPolyline
 90
22
 70
0
 10
107.85806451612903
 20
178.1290322580645
 10
107.76548397592855
 20
178.7432640086111
 10
107.49596854260689
 20
179.30291857261
 10
107.0734658451637
 20
179.75826818604628
 10
106.53551710238933
 20
180.06885303749726
 10
105.92992142082849
 20
180.2070762999324
 10
105.31048863440071
 20
180.16065622990146
 10
104.73225806451613
 20
179.93371745433788
 10
104.24660803483205
 20
179.5464244793549
 10
103.89669068172593
 20
179.0331899853869
 10
103.7135976976083
 20
178.43961710951552
 10
103.7135976976083
 20
177.81844740661353
 10
103.89669068172593
 20
177.2248745307421
 10
104.24660803483204
 20
176.71164003677416
 10
104.73225806451613
 20
176.32434706179114
 10
105.31048863440071
 20
176.09740828622756
 10
105.92992142082849
 20
176.05098821619663
 10
106.53551710238933
 20
176.18921147863176
 10
107.0734658451637
 20
176.49979633008275
 10
107.49596854260689
 20
176.95514594351903
 10
107.76548397592855
 20
177.51480050751792
 10
107.85806451612903
 20
178.1290322580645
  0
LWPOLYLINE
  5
43
330
17
100
AcDbEntity
  8
HIDDEN
100
AcDbPolyline
 90
22
 70
0
 10
107.85806451612903
 20
241.8709677419355
 10
107.76548397592855
 20
242.48519949248208
 10
107.49596854260689
 20
243.04485405648097
 10
107.0734658451637
 20
243.50020366991725
 10
106.53551710238933
 20
243.81078852136824
 10
105.92992142082849
 20
243.94901178380337
 10
105.31048863440071
 20
243.90259171377244
 10
104.73225806451613
 20
243.67565293820886
 10
104.24660803483205
 20
243.28835996322584
 10
103.89669068172593
 20
242.7751254692579
 10
103.7135976976083
 20
242.18155259338647
 10
103.7135976976083
 20
241.5603828904845
 10
103.89669068172593
 20
240.9668100146131
 10
104.24660803483204
 20
240.45357552064513
 10
104.73225806451613
 20
240.06628254566212
 10
105.31048863440071
 20
239.83934377009854
 10
105.92992142082849
 20
239.7929237000676
 10
106.53551710238933
 20
239.93114696250274
 10
107.0734658451637
 20
240.24173181395372
 10
107.49596854260689
 20
240.69708142739
 10
107.76548397592855
 20
241.2567359913889
 10
107.85806451612903
 20
241.8709677419355
  0
LWPOLYLINE
  5
44
330
17
100
AcDbEntity
  8
HIDDEN
100
AcDbPolyline
 90
2
 70
0
 10
109.45161290322581
 20
191.0
 10
109.45161290322581
 20
229.0
  0
LWPOLYLINE
  5
45
330
17
100
AcDbEntity
  8
HIDDEN
100
AcDbPolyline
 90
2
 70
0
 10
114.35483870967742
 20
229.0
 10
109.45161290322581
 20
229.0
  0
LWPOLYLINE
  5
46
330
17
100
AcDbEntity
  8
HIDDEN
100
AcDbPolyline
 90
2
 70
0
 10
97.19354838709678
 20
181.80645161290323
 10
97.19354838709678
 20
189.16129032258064
  0
LWPOLYLINE
  5
47
330
17
100
AcDbEntity
  8
HIDDEN
100
AcDbPolyline
 90
2
 70
0
 10
97.19354838709678
 20
189.16129032258064
 10
109.45161290322581
 20
189.16129032258064
  0
LWPOLYLINE
  5
48
330
17
100
AcDbEntity
  8
HIDDEN
100
AcDbPolyline
 90
2
 70
0
 10
97.19354838709678
 20
181.80645161290323
 10
109.45161290322581
 20
181.80645161290323
  0
LWPOLYLINE
  5
49
330
17
100
AcDbEntity
  8
HIDDEN
100
AcDbPolyline
 90
2
 70
0
 10
109.45161290322581
 20
181.80645161290323
 10
109.45161290322581
 20
189.16129032258064
  0
LWPOLYLINE
  5
4A
330
17
100
AcDbEntity
  8
HIDDEN
100
AcDbPolyline
 90
2
 70
0
 10
97.19354838709678
 20
230.83870967741936
 10
97.19354838709678
 20
238.19354838709677
  0
LWPOLYLINE
  5
4B
330
17
100
AcDbEntity
  8
HIDDEN
100
AcDbPolyline
 90
2
 70
0
 10
97.19354838709678
 20
230.83870967741936
 10
109.45161290322581
 20
230.83870967741936
  0
LWPOLYLINE
  5
4C
330
17
100
AcDbEntity
  8
HIDDEN
100
AcDbPolyline
 90
2
 70
0
 10
109.45161290322581
 20
230.83870967741936
 10
109.45161290322581
 20
238.19354838709677
  0
LWPOLYLINE
  5
4D
330
17
100
AcDbEntity
  8
HIDDEN
100
AcDbPolyline
 90
2
 70
0
 10
97.19354838709678
 20
238.19354838709677
 10
109.45161290322581
 20
238.19354838709677
  0
LWPOLYLINE
  5
4E
330
17
100
AcDbEntity
  8
HIDDEN
100
AcDbPolyline
 90
2
 70
0
 10
109.45161290322581
 20
216.34148909730933
 10
109.45161290322581
 20
229.0
  0
LWPOLYLINE
  5
4F
330
17
100
AcDbEntity
  8
HIDDEN
100
AcDbPolyline
 90
15
 70
0
 10
114.35483870967742
 20
214.29032258064515
 10
114.35483870967742
 20
214.05700305947505
 10
114.35483870967742
 20
213.8266176666588
 10
114.35483870967742
 20
213.60206363218376
 10
114.35483870967742
 20
213.38616485332275
 10
114.35483870967742
 20
213.1816363824874
 10
114.35483870967742
 20
212.9910502838686
 10
114.35483870967742
 20
212.81680328823705
 10
114.35483870967742
 20
212.66108665266339
 10
114.35483870967742
 20
212.5258586041888
 10
114.35483870967742
 20
212.412819713984
 10
114.35483870967742
 20
212.32339151167997
 10
114.35483870967742
 20
212.2586986088082
 10
114.35483870967742
 20
212.21955455615796
 10
114.35483870967742
 20
212.20645161290324
  0
LWPOLYLINE
  5
50
330
17
100
AcDbEntity
  8
HIDDEN
100
AcDbPolyline
 90
15
 70
0
 10
114.35483870967742
 20
212.20645161290324
 10
114.35483870967742
 20
212.2586986088082
 10
114.35483870967742
 20
212.412819713984
 10
114.35483870967742
 20
212.66108665266339
 10
114.35483870967742
 20
212.9910502838686
 10
114.35483870967742
 20
213.38616485332275
 10
114.35483870967742
 20
213.82661766665876
 10
114.35483870967742
 20
214.29032258064515
 10
114.35483870967742
 20
214.75402749463154
 10
114.35483870967742
 20
215.19448030796755
 10
114.35483870967742
 20
215.58959487742175
 10
114.35483870967742
 20
215.91955850862692
 10
114.35483870967742
 20
216.16782544730634
 10
114.35483870967742
 20
216.32194655248213
 10
114.35483870967742
 20
216.3741935483871
  0
LWPOLYLINE
  5
51
330
17
100
AcDbEntity
  8
HIDDEN
100
AcDbPolyline
 90
15
 70
0
 10
114.35483870967742
 20
216.3741935483871
 10
114.35483870967742
 20
216.36109060513238
 10
114.35483870967742
 20
216.32194655248213
 10
114.35483870967742
 20
216.25725364961033
 10
114.35483870967742
 20
216.16782544730634
 10
114.35483870967742
 20
216.05478655710152
 10
114.35483870967742
 20
215.91955850862692
 10
114.35483870967742
 20
215.76384187305325
 10
114.35483870967742
 20
215.58959487742175
 10
114.35483870967742
 20
215.39900877880294
 10
114.35483870967742
 20
215.19448030796755
 10
114.35483870967742
 20
214.97858152910658
 10
114.35483870967742
 20
214.75402749463154
 10
114.35483870967742
 20
214.52364210181528
 10
114.35483870967742
 20
214.29032258064518
  0
LWPOLYLINE
  5
52
330
17
100
AcDbEntity
  8
HIDDEN
100
AcDbPolyline
 90
15
 70
0
 10
109.45161290322581
 20
216.34148909730933
 10
109.45161290322581
 20
216.29479781992845
 10
109.45161290322581
 20
216.22826681709026
 10
109.45161290322581
 20
216.14255459372657
 10
109.45161290322581
 20
216.03850950503107
 10
109.45161290322581
 20
215.91716135968113
 10
109.45161290322581
 20
215.77971122708442
 10
109.45161290322581
 20
215.627519549536
 10
109.45161290322581
 20
215.4620926769474
 10
109.45161290322581
 20
215.28506795742405
 10
109.45161290322581
 20
215.0981975312597
 10
109.45161290322581
 20
214.9033309887503
 10
109.45161290322581
 20
214.70239706347587
 10
109.45161290322581
 20
214.4973845422442
 10
109.45161290322581
 20
214.29032258064518
  0
LWPOLYLINE
  5
53
330
17
100
AcDbEntity
  8
HIDDEN
100
AcDbPolyline
 90
15
 70
0
 10
104.5483870967742
 20
212.23915606398097
 10
104.5483870967742
 20
212.23466105334464
 10
104.5483870967742
 20
212.2304961043229
 10
104.5483870967742
 20
212.22666188564924
 10
104.5483870967742
 20
212.2231590129544
 10
104.5483870967742
 20
212.2199880486675
 10
104.5483870967742
 20
212.21714950192563
 10
104.5483870967742
 20
212.2146438284922
 10
104.5483870967742
 20
212.21247143068376
 10
104.5483870967742
 20
212.21063265730535
 10
104.5483870967742
 20
212.20912780359455
 10
104.5483870967742
 20
212.20795711117404
 10
104.5483870967742
 20
212.20712076801277
 10
104.5483870967742
 20
212.20661890839594
 10
104.5483870967742
 20
212.20645161290324
  0
LWPOLYLINE
  5
54
330
17
100
AcDbEntity
  8
HIDDEN
100
AcDbPolyline
 90
15
 70
0
 10
104.5483870967742
 20
212.20645161290324
 10
104.5483870967742
 20
212.20661890839594
 10
104.5483870967742
 20
212.20712076801277
 10
104.5483870967742
 20
212.20795711117404
 10
104.5483870967742
 20
212.20912780359455
 10
104.5483870967742
 20
212.21063265730535
 10
104.5483870967742
 20
212.21247143068376
 10
104.5483870967742
 20
212.2146438284922
 10
104.5483870967742
 20
212.21714950192563
 10
104.5483870967742
 20
212.2199880486675
 10
104.5483870967742
 20
212.2231590129544
 10
104.5483870967742
 20
212.22666188564924
 10
104.5483870967742
 20
212.2304961043229
 10
104.5483870967742
 20
212.23466105334464
 10
104.5483870967742
 20
212.23915606398097
  0
LWPOLYLINE
  5
55
330
17
100
AcDbEntity
  8
HIDDEN
100
AcDbPolyline
 90
15
 70
0
 10
104.5483870967742
 20
216.34148909730933
 10
104.5483870967742
 20
216.34598410794567
 10
104.5483870967742
 20
216.35014905696744
 10
104.5483870967742
 20
216.3539832756411
 10
104.5483870967742
 20
216.3574861483359
 10
104.5483870967742
 20
216.36065711262282
 10
104.5483870967742
 20
216.3634956593647
 10
104.5483870967742
 20
216.36600133279813
 10
104.5483870967742
 20
216.36817373060657
 10
104.5483870967742
 20
216.37001250398498
 10
104.5483870967742
 20
216.37151735769578
 10
104.5483870967742
 20
216.3726880501163
 10
104.5483870967742
 20
216.37352439327753
 10
104.5483870967742
 20
216.37402625289437
 10
104.5483870967742
 20
216.3741935483871
  0
LWPOLYLINE
  5
56
330
17
100
AcDbEntity
  8
HIDDEN
100
AcDbPolyline
 90
15
 70
0
 10
104.5483870967742
 20
216.3741935483871
 10
104.5483870967742
 20
216.37402625289437
 10
104.5483870967742
 20
216.37352439327753
 10
104.5483870967742
 20
216.3726880501163
 10
104.5483870967742
 20
216.37151735769578
 10
104.5483870967742
 20
216.37001250398498
 10
104.5483870967742
 20
216.36817373060657
 10
104.5483870967742
 20
216.36600133279813
 10
104.5483870967742
 20
216.3634956593647
 10
104.5483870967742
 20
216.36065711262282
 10
104.5483870967742
 20
216.3574861483359
 10
104.5483870967742
 20
216.3539832756411
 10
104.5483870967742
 20
216.35014905696744
 10
104.5483870967742
 20
216.34598410794567
 10
104.5483870967742
 20
216.34148909730936
  0
LWPOLYLINE
  5
57
330
17
100
AcDbEntity
  8
HIDDEN
100
AcDbPolyline
 90
15
 70
0
 10
109.45161290322581
 20
214.29032258064515
 10
109.45161290322581
 20
214.08326061904611
 10
109.45161290322581
 20
213.87824809781446
 10
109.45161290322581
 20
213.67731417254004
 10
109.45161290322581
 20
213.48244763003063
 10
109.45161290322581
 20
213.2955772038663
 10
109.45161290322581
 20
213.11855248434293
 10
109.45161290322581
 20
212.95312561175433
 10
109.45161290322581
 20
212.8009339342059
 10
109.45161290322581
 20
212.6634838016092
 10
109.45161290322581
 20
212.54213565625923
 10
109.45161290322581
 20
212.43809056756376
 10
109.45161290322581
 20
212.35237834420008
 10
109.45161290322581
 20
212.2858473413619
 10
109.45161290322581
 20
212.23915606398097
  0
LWPOLYLINE
  5
58
330
17
100
AcDbEntity
  8
HIDDEN
100
AcDbPolyline
 90
2
 70
0
 10
109.45161290322581
 20
199.58064516129033
 10
109.45161290322581
 20
212.239156063981
  0
LWPOLYLINE
  5
59
330
17
100
AcDbEntity
  8
HIDDEN
100
AcDbPolyline
 90
2
 70
0
 10
114.35483870967742
 20
199.58064516129033
 10
114.35483870967742
 20
229.0
  0
LWPOLYLINE
  5
5A
330
17
100
AcDbEntity
  8
HIDDEN
100
AcDbPolyline
 90
15
 70
0
 10
114.35483870967742
 20
214.29032258064515
 10
114.35483870967742
 20
214.05700305947505
 10
114.35483870967742
 20
213.8266176666588
 10
114.35483870967742
 20
213.60206363218376
 10
114.35483870967742
 20
213.38616485332275
 10
114.35483870967742
 20
213.1816363824874
 10
114.35483870967742
 20
212.9910502838686
 10
114.35483870967742
 20
212.81680328823705
 10
114.35483870967742
 20
212.66108665266339
 10
114.35483870967742
 20
212.5258586041888
 10
114.35483870967742
 20
212.412819713984
 10
114.35483870967742
 20
212.32339151167997
 10
114.35483870967742
 20
212.2586986088082
 10
114.35483870967742
 20
212.21955455615796
 10
114.35483870967742
 20
212.20645161290324
  0
LWPOLYLINE
  5
5B
330
17
100
AcDbEntity
  8
HIDDEN
100
AcDbPolyline
 90
15
 70
0
 10
114.35483870967742
 20
212.20645161290324
 10
114.35483870967742
 20
212.2586986088082
 10
114.35483870967742
 20
212.412819713984
 10
114.35483870967742
 20
212.66108665266339
 10
114.35483870967742
 20
212.9910502838686
 10
114.35483870967742
 20
213.38616485332275
 10
114.35483870967742
 20
213.82661766665876
 10
114.35483870967742
 20
214.29032258064515
 10
114.35483870967742
 20
214.75402749463154
 10
114.35483870967742
 20
215.19448030796755
 10
114.35483870967742
 20
215.58959487742175
 10
114.35483870967742
 20
215.91955850862692
 10
114.35483870967742
 20
216.16782544730634
 10
114.35483870967742
 20
216.32194655248213
 10
114.35483870967742
 20
216.3741935483871
  0
LWPOLYLINE
  5
5C
330
17
100
AcDbEntity
  8
HIDDEN
100
AcDbPolyline
 90
15
 70
0
 10
114.35483870967742
 20
216.3741935483871
 10
114.35483870967742
 20
216.36109060513238
 10
114.35483870967742
 20
216.32194655248213
 10
114.35483870967742
 20
216.25725364961033
 10
114.35483870967742
 20
216.16782544730634
 10
114.35483870967742
 20
216.05478655710152
 10
114.35483870967742
 20
215.91955850862692
 10
114.35483870967742
 20
215.76384187305325
 10
114.35483870967742
 20
215.58959487742175
 10
114.35483870967742
 20
215.39900877880294
 10
114.35483870967742
 20
215.19448030796755
 10
114.35483870967742
 20
214.97858152910658
 10
114.35483870967742
 20
214.75402749463154
 10
114.35483870967742
 20
214.52364210181528
 10
114.35483870967742
 20
214.29032258064518
  0
LWPOLYLINE
  5
5D
330
17
100
AcDbEntity
  8
HIDDEN
100
AcDbPolyline
 90
15
 70
0
 10
109.45161290322581
 20
214.29032258064515
 10
109.45161290322581
 20
214.05700305947505
 10
109.45161290322581
 20
213.8266176666588
 10
109.45161290322581
 20
213.60206363218376
 10
109.45161290322581
 20
213.38616485332275
 10
109.45161290322581
 20
213.1816363824874
 10
109.45161290322581
 20
212.9910502838686
 10
109.45161290322581
 20
212.81680328823705
 10
109.45161290322581
 20
212.66108665266339
 10
109.45161290322581
 20
212.5258586041888
 10
109.45161290322581
 20
212.412819713984
 10
109.45161290322581
 20
212.32339151167997
 10
109.45161290322581
 20
212.2586986088082
 10
109.45161290322581
 20
212.21955455615796
 10
109.45161290322581
 20
212.20645161290324
  0
LWPOLYLINE
  5
5E
330
17
100
AcDbEntity
  8
HIDDEN
100
AcDbPolyline
 90
15
 70
0
 10
109.45161290322581
 20
212.20645161290324
 10
109.45161290322581
 20
212.2586986088082
 10
109.45161290322581
 20
212.412819713984
 10
109.45161290322581
 20
212.66108665266339
 10
109.45161290322581
 20
212.9910502838686
 10
109.45161290322581
 20
213.38616485332275
 10
109.45161290322581
 20
213.82661766665876
 10
109.45161290322581
 20
214.29032258064515
 10
109.45161290322581
 20
214.75402749463154
 10
109.45161290322581
 20
215.19448030796755
 10
109.45161290322581
 20
215.58959487742175
 10
109.45161290322581
 20
215.91955850862692
 10
109.45161290322581
 20
216.16782544730634
 10
109.45161290322581
 20
216.32194655248213
 10
109.45161290322581
 20
216.3741935483871
  0
LWPOLYLINE
  5
5F
330
17
100
AcDbEntity
  8
HIDDEN
100
AcDbPolyline
 90
15
 70
0
 10
109.45161290322581
 20
216.3741935483871
 10
109.45161290322581
 20
216.36109060513238
 10
109.45161290322581
 20
216.32194655248213
 10
109.45161290322581
 20
216.25725364961033
 10
109.45161290322581
 20
216.16782544730634
 10
109.45161290322581
 20
216.05478655710152
 10
109.45161290322581
 20
215.91955850862692
 10
109.45161290322581
 20
215.76384187305325
 10
109.45161290322581
 20
215.58959487742175
 10
109.45161290322581
 20
215.39900877880294
 10
109.45161290322581
 20
215.19448030796755
 10
109.45161290322581
 20
214.97858152910658
 10
109.45161290322581
 20
214.75402749463154
 10
109.45161290322581
 20
214.52364210181528
 10
109.45161290322581
 20
214.29032258064518
  0
LWPOLYLINE
  5
60
330
17
100
AcDbEntity
  8
HIDDEN
100
AcDbPolyline
 90
2
 70
0
 10
109.45161290322581
 20
229.0
 10
114.35483870967742
 20
229.0
  0
LWPOLYLINE
  5
61
330
17
100
AcDbEntity
  8
HIDDEN
100
AcDbPolyline
 90
2
 70
0
 10
104.5483870967742
 20
189.16129032258064
 10
104.5483870967742
 20
230.83870967741936
  0
LWPOLYLINE
  5
62
330
17
100
AcDbEntity
  8
HIDDEN
100
AcDbPolyline
 90
2
 70
0
 10
104.5483870967742
 20
189.16129032258064
 10
109.45161290322581
 20
189.16129032258064
  0
LWPOLYLINE
  5
63
330
17
100
AcDbEntity
  8
HIDDEN
100
AcDbPolyline
 90
2
 70
0
 10
109.45161290322581
 20
189.16129032258064
 10
109.45161290322581
 20
199.58064516129033
  0
LWPOLYLINE
  5
64
330
17
100
AcDbEntity
  8
HIDDEN
100
AcDbPolyline
 90
2
 70
0
 10
109.45161290322581
 20
199.58064516129033
 10
114.35483870967742
 20
199.58064516129033
  0
LWPOLYLINE
  5
65
330
17
100
AcDbEntity
  8
HIDDEN
100
AcDbPolyline
 90
2
 70
0
 10
109.45161290322581
 20
229.0
 10
109.45161290322581
 20
230.83870967741936
  0
LWPOLYLINE
  5
66
330
17
100
AcDbEntity
  8
HIDDEN
100
AcDbPolyline
 90
2
 70
0
 10
104.5483870967742
 20
230.83870967741936
 10
109.45161290322581
 20
230.83870967741936
  0
LWPOLYLINE
  5
67
330
17
100
AcDbEntity
  8
HIDDEN
100
AcDbPolyline
 90
2
 70
0
 10
104.5483870967742
 20
230.83870967741936
 10
104.5483870967742
 20
238.19354838709677
  0
LWPOLYLINE
  5
68
330
17
100
AcDbEntity
  8
HIDDEN
100
AcDbPolyline
 90
2
 70
0
 10
104.5483870967742
 20
181.80645161290323
 10
104.5483870967742
 20
189.16129032258064
  0
LWPOLYLINE
  5
69
330
17
100
AcDbEntity
  8
HIDDEN
100
AcDbPolyline
 90
2
 70
0
 10
104.5483870967742
 20
212.20645161290324
 10
114.35483870967742
 20
212.20645161290324
  0
LWPOLYLINE
  5
6A
330
17
100
AcDbEntity
  8
HIDDEN
100
AcDbPolyline
 90
2
 70
0
 10
104.5483870967742
 20
216.3741935483871
 10
114.35483870967742
 20
216.3741935483871
  0
LWPOLYLINE
  5
6B
330
17
100
AcDbEntity
  8
HIDDEN
100
AcDbPolyline
 90
2
 70
0
 10
109.45161290322581
 20
212.20645161290324
 10
114.35483870967742
 20
212.20645161290324
  0
LWPOLYLINE
  5
6C
330
17
100
AcDbEntity
  8
HIDDEN
100
AcDbPolyline
 90
2
 70
0
 10
109.45161290322581
 20
216.3741935483871
 10
114.35483870967742
 20
216.3741935483871
  0
LWPOLYLINE
  5
6D
330
17
100
AcDbEntity
  8
OUTLINE
100
AcDbPolyline
 90
2
 70
0
 10
94.74193548387098
 20
172.0
 10
94.74193548387098
 20
248.0
  0
LWPOLYLINE
  5
6E
330
17
100
AcDbEntity
  8
OUTLINE
100
AcDbPolyline
 90
22
 70
0
 10
107.85806451612903
 20
241.8709677419355
 10
107.76548397592855
 20
242.48519949248208
 10
107.49596854260689
 20
243.04485405648097
 10
107.0734658451637
 20
243.50020366991725
 10
106.53551710238933
 20
243.81078852136824
 10
105.92992142082849
 20
243.94901178380337
 10
105.31048863440071
 20
243.90259171377244
 10
104.73225806451613
 20
243.67565293820886
 10
104.24660803483205
 20
243.28835996322584
 10
103.89669068172593
 20
242.7751254692579
 10
103.7135976976083
 20
242.18155259338647
 10
103.7135976976083
 20
241.5603828904845
 10
103.89669068172593
 20
240.9668100146131
 10
104.24660803483204
 20
240.45357552064513
 10
104.73225806451613
 20
240.06628254566212
 10
105.31048863440071
 20
239.83934377009854
 10
105.92992142082849
 20
239.7929237000676
 10
106.53551710238933
 20
239.93114696250274
 10
107.0734658451637
 20
240.24173181395372
 10
107.49596854260689
 20
240.69708142739
 10
107.76548397592855
 20
241.2567359913889
 10
107.85806451612903
 20
241.8709677419355
  0
LWPOLYLINE
  5
6F
330
17
100
AcDbEntity
  8
OUTLINE
100
AcDbPolyline
 90
22
 70
0
 10
107.85806451612903
 20
178.1290322580645
 10
107.76548397592855
 20
178.7432640086111
 10
107.49596854260689
 20
179.30291857261
 10
107.0734658451637
 20
179.75826818604628
 10
106.53551710238933
 20
180.06885303749726
 10
105.92992142082849
 20
180.2070762999324
 10
105.31048863440071
 20
180.16065622990146
 10
104.73225806451613
 20
179.93371745433788
 10
104.24660803483205
 20
179.5464244793549
 10
103.89669068172593
 20
179.0331899853869
 10
103.7135976976083
 20
178.43961710951552
 10
103.7135976976083
 20
177.81844740661353
 10
103.89669068172593
 20
177.2248745307421
 10
104.24660803483204
 20
176.71164003677416
 10
104.73225806451613
 20
176.32434706179114
 10
105.31048863440071
 20
176.09740828622756
 10
105.92992142082849
 20
176.05098821619663
 10
106.53551710238933
 20
176.18921147863176
 10
107.0734658451637
 20
176.49979633008275
 10
107.49596854260689
 20
176.95514594351903
 10
107.76548397592855
 20
177.51480050751792
 10
107.85806451612903
 20
178.1290322580645
  0
LWPOLYLINE
  5
70
330
17
100
AcDbEntity
  8
OUTLINE
100
AcDbPolyline
 90
2
 70
0
 10
119.25806451612904
 20
191.0
 10
109.45161290322581
 20
191.0
  0
LWPOLYLINE
  5
71
330
17
100
AcDbEntity
  8
OUTLINE
100
AcDbPolyline
 90
2
 70
0
 10
119.25806451612904
 20
172.0
 10
119.25806451612904
 20
191.0
  0
LWPOLYLINE
  5
72
330
17
100
AcDbEntity
  8
OUTLINE
100
AcDbPolyline
 90
2
 70
0
 10
119.25806451612904
 20
229.0
 10
114.35483870967742
 20
229.0
  0
LWPOLYLINE
  5
73
330
17
100
AcDbEntity
  8
OUTLINE
100
AcDbPolyline
 90
2
 70
0
 10
119.25806451612904
 20
229.0
 10
119.25806451612904
 20
248.0
  0
LWPOLYLINE
  5
74
330
17
100
AcDbEntity
  8
OUTLINE
100
AcDbPolyline
 90
2
 70
0
 10
94.74193548387098
 20
248.0
 10
119.25806451612904
 20
248.0
  0
LWPOLYLINE
  5
75
330
17
100
AcDbEntity
  8
OUTLINE
100
AcDbPolyline
 90
2
 70
0
 10
94.74193548387098
 20
172.0
 10
119.25806451612904
 20
172.0
  0
LWPOLYLINE
  5
76
330
17
100
AcDbEntity
  8
OUTLINE
100
AcDbPolyline
 90
2
 70
0
 10
97.19354838709678
 20
238.19354838709677
 10
104.5483870967742
 20
238.19354838709677
  0
LWPOLYLINE
  5
77
330
17
100
AcDbEntity
  8
OUTLINE
100
AcDbPolyline
 90
2
 70
0
 10
104.5483870967742
 20
238.19354838709677
 10
109.45161290322581
 20
238.19354838709677
  0
LWPOLYLINE
  5
78
330
17
100
AcDbEntity
  8
OUTLINE
100
AcDbPolyline
 90
2
 70
0
 10
104.5483870967742
 20
216.34148909730933
 10
104.5483870967742
 20
238.19354838709677
  0
LWPOLYLINE
  5
79
330
17
100
AcDbEntity
  8
OUTLINE
100
AcDbPolyline
 90
2
 70
0
 10
109.45161290322581
 20
229.0
 10
109.45161290322581
 20
238.19354838709677
  0
LWPOLYLINE
  5
7A
330
17
100
AcDbEntity
  8
OUTLINE
100
AcDbPolyline
 90
2
 70
0
 10
104.5483870967742
 20
216.34148909730933
 10
109.45161290322581
 20
216.34148909730933
  0
LWPOLYLINE
  5
7B
330
17
100
AcDbEntity
  8
OUTLINE
100
AcDbPolyline
 90
15
 70
0
 10
104.5483870967742
 20
212.23915606398097
 10
104.5483870967742
 20
212.35237834420008
 10
104.5483870967742
 20
212.54213565625923
 10
104.5483870967742
 20
212.8009339342059
 10
104.5483870967742
 20
213.11855248434293
 10
104.5483870967742
 20
213.48244763003063
 10
104.5483870967742
 20
213.87824809781446
 10
104.5483870967742
 20
214.29032258064515
 10
104.5483870967742
 20
214.70239706347587
 10
104.5483870967742
 20
215.09819753125967
 10
104.5483870967742
 20
215.46209267694738
 10
104.5483870967742
 20
215.77971122708442
 10
104.5483870967742
 20
216.03850950503107
 10
104.5483870967742
 20
216.22826681709026
 10
104.5483870967742
 20
216.34148909730933
  0
LWPOLYLINE
  5
7C
330
17
100
AcDbEntity
  8
OUTLINE
100
AcDbPolyline
 90
2
 70
0
 10
104.5483870967742
 20
212.23915606398097
 10
109.45161290322581
 20
212.23915606398097
  0
LWPOLYLINE
  5
7D
330
17
100
AcDbEntity
  8
OUTLINE
100
AcDbPolyline
 90
2
 70
0
 10
104.5483870967742
 20
181.80645161290323
 10
104.5483870967742
 20
212.239156063981
  0
LWPOLYLINE
  5
7E
330
17
100
AcDbEntity
  8
OUTLINE
100
AcDbPolyline
 90
2
 70
0
 10
109.45161290322581
 20
181.80645161290323
 10
109.45161290322581
 20
199.58064516129033
  0
LWPOLYLINE
  5
7F
330
17
100
AcDbEntity
  8
OUTLINE
100
AcDbPolyline
 90
2
 70
0
 10
104.5483870967742
 20
181.80645161290323
 10
109.45161290322581
 20
181.80645161290323
  0
LWPOLYLINE
  5
80
330
17
100
AcDbEntity
  8
OUTLINE
100
AcDbPolyline
 90
2
 70
0
 10
114.35483870967742
 20
199.58064516129033
 10
114.35483870967742
 20
229.0
  0
LWPOLYLINE
  5
81
330
17
100
AcDbEntity
  8
OUTLINE
100
AcDbPolyline
 90
2
 70
0
 10
109.45161290322581
 20
229.0
 10
114.35483870967742
 20
229.0
  0
LWPOLYLINE
  5
82
330
17
100
AcDbEntity
  8
OUTLINE
100
AcDbPolyline
 90
2
 70
0
 10
109.45161290322581
 20
199.58064516129033
 10
109.45161290322581
 20
229.0
  0
LWPOLYLINE
  5
83
330
17
100
AcDbEntity
  8
OUTLINE
100
AcDbPolyline
 90
2
 70
0
 10
109.45161290322581
 20
199.58064516129033
 10
114.35483870967742
 20
199.58064516129033
  0
LWPOLYLINE
  5
84
330
17
100
AcDbEntity
  8
OUTLINE
100
AcDbPolyline
 90
2
 70
0
 10
97.19354838709678
 20
189.16129032258064
 10
104.5483870967742
 20
189.16129032258064
  0
LWPOLYLINE
  5
85
330
17
100
AcDbEntity
  8
OUTLINE
100
AcDbPolyline
 90
2
 70
0
 10
97.19354838709678
 20
181.80645161290323
 10
104.5483870967742
 20
181.80645161290323
  0
LWPOLYLINE
  5
86
330
17
100
AcDbEntity
  8
OUTLINE
100
AcDbPolyline
 90
2
 70
0
 10
97.19354838709678
 20
181.80645161290323
 10
97.19354838709678
 20
189.16129032258064
  0
LWPOLYLINE
  5
87
330
17
100
AcDbEntity
  8
OUTLINE
100
AcDbPolyline
 90
2
 70
0
 10
97.19354838709678
 20
230.83870967741936
 10
104.5483870967742
 20
230.83870967741936
  0
LWPOLYLINE
  5
88
330
17
100
AcDbEntity
  8
OUTLINE
100
AcDbPolyline
 90
2
 70
0
 10
97.19354838709678
 20
230.83870967741936
 10
97.19354838709678
 20
238.19354838709677
  0
TEXT
  5
89
330
17
100
AcDbEntity
  8
TEXT
100
AcDbText
 10
22.0
 20
165.0
 30
0.0
 40
2.6
  1
TOP  (view scale 1.23:1)
100
AcDbText
  0
LWPOLYLINE
  5
8A
330
17
100
AcDbEntity
  8
HIDDEN
100
AcDbPolyline
 90
2
 70
0
 10
92.0
 20
70.0
 10
92.0
 20
76.0
  0
LWPOLYLINE
  5
8B
330
17
100
AcDbEntity
  8
HIDDEN
100
AcDbPolyline
 90
2
 70
0
 10
92.0
 20
70.0
 10
122.0
 20
70.0
  0
LWPOLYLINE
  5
8C
330
17
100
AcDbEntity
  8
HIDDEN
100
AcDbPolyline
 90
2
 70
0
 10
122.0
 20
70.0
 10
110.0
 20
70.0
  0
LWPOLYLINE
  5
8D
330
17
100
AcDbEntity
  8
HIDDEN
100
AcDbPolyline
 90
2
 70
0
 10
122.0
 20
70.0
 10
110.0
 20
70.0
  0
LWPOLYLINE
  5
8E
330
17
100
AcDbEntity
  8
HIDDEN
100
AcDbPolyline
 90
15
 70
0
 10
108.05
 20
70.0
 10
107.98606617606364
 20
70.0
 10
107.79747061315118
 20
70.0
 10
107.49367028029349
 20
70.0
 10
107.08989899473977
 20
70.0
 10
106.60640353474977
 20
70.0
 10
106.0674283815886
 20
70.0
 10
105.5
 20
70.0
 10
104.9325716184114
 20
70.0
 10
104.39359646525023
 20
70.0
 10
103.91010100526023
 20
70.0
 10
103.50632971970651
 20
70.0
 10
103.20252938684882
 20
70.0
 10
103.01393382393636
 20
70.0
 10
102.95
 20
70.0
  0
LWPOLYLINE
  5
8F
330
17
100
AcDbEntity
  8
HIDDEN
100
AcDbPolyline
 90
15
 70
0
 10
102.95
 20
70.0
 10
103.01393382393636
 20
70.0
 10
103.20252938684882
 20
70.0
 10
103.50632971970651
 20
70.0
 10
103.91010100526023
 20
70.0
 10
104.39359646525023
 20
70.0
 10
104.9325716184114
 20
70.0
 10
105.5
 20
70.0
 10
106.0674283815886
 20
70.0
 10
106.60640353474977
 20
70.0
 10
107.08989899473977
 20
70.0
 10
107.49367028029349
 20
70.0
 10
107.79747061315118
 20
70.0
 10
107.98606617606364
 20
70.0
 10
108.05
 20
70.0
  0
LWPOLYLINE
  5
90
330
17
100
AcDbEntity
  8
HIDDEN
100
AcDbPolyline
 90
15
 70
0
 10
108.05
 20
70.0
 10
107.98606617606364
 20
70.0
 10
107.79747061315118
 20
70.0
 10
107.49367028029349
 20
70.0
 10
107.08989899473977
 20
70.0
 10
106.60640353474977
 20
70.0
 10
106.0674283815886
 20
70.0
 10
105.5
 20
70.0
 10
104.9325716184114
 20
70.0
 10
104.39359646525023
 20
70.0
 10
103.91010100526023
 20
70.0
 10
103.50632971970651
 20
70.0
 10
103.20252938684882
 20
70.0
 10
103.01393382393636
 20
70.0
 10
102.95
 20
70.0
  0
LWPOLYLINE
  5
91
330
17
100
AcDbEntity
  8
HIDDEN
100
AcDbPolyline
 90
15
 70
0
 10
102.95
 20
70.0
 10
103.01393382393636
 20
70.0
 10
103.20252938684882
 20
70.0
 10
103.50632971970651
 20
70.0
 10
103.91010100526023
 20
70.0
 10
104.39359646525023
 20
70.0
 10
104.9325716184114
 20
70.0
 10
105.5
 20
70.0
 10
106.0674283815886
 20
70.0
 10
106.60640353474977
 20
70.0
 10
107.08989899473977
 20
70.0
 10
107.49367028029349
 20
70.0
 10
107.79747061315118
 20
70.0
 10
107.98606617606364
 20
70.0
 10
108.05
 20
70.0
  0
LWPOLYLINE
  5
92
330
17
100
AcDbEntity
  8
HIDDEN
100
AcDbPolyline
 90
15
 70
0
 10
108.05
 20
76.0
 10
107.98606617606364
 20
76.0
 10
107.79747061315118
 20
76.0
 10
107.49367028029349
 20
76.0
 10
107.08989899473977
 20
76.0
 10
106.60640353474977
 20
76.0
 10
106.0674283815886
 20
76.0
 10
105.5
 20
76.0
 10
104.9325716184114
 20
76.0
 10
104.39359646525023
 20
76.0
 10
103.91010100526023
 20
76.0
 10
103.50632971970651
 20
76.0
 10
103.20252938684882
 20
76.0
 10
103.01393382393636
 20
76.0
 10
102.95
 20
76.0
  0
LWPOLYLINE
  5
93
330
17
100
AcDbEntity
  8
HIDDEN
100
AcDbPolyline
 90
15
 70
0
 10
102.95
 20
76.0
 10
103.01393382393636
 20
76.0
 10
103.20252938684882
 20
76.0
 10
103.50632971970651
 20
76.0
 10
103.91010100526023
 20
76.0
 10
104.39359646525023
 20
76.0
 10
104.9325716184114
 20
76.0
 10
105.5
 20
76.0
 10
106.0674283815886
 20
76.0
 10
106.60640353474977
 20
76.0
 10
107.08989899473977
 20
76.0
 10
107.49367028029349
 20
76.0
 10
107.79747061315118
 20
76.0
 10
107.98606617606364
 20
76.0
 10
108.05
 20
76.0
  0
LWPOLYLINE
  5
94
330
17
100
AcDbEntity
  8
HIDDEN
100
AcDbPolyline
 90
2
 70
0
 10
108.05
 20
70.0
 10
108.05
 20
76.0
  0
LWPOLYLINE
  5
95
330
17
100
AcDbEntity
  8
HIDDEN
100
AcDbPolyline
 90
15
 70
0
 10
108.05
 20
76.0
 10
107.98606617606364
 20
76.0
 10
107.79747061315118
 20
76.0
 10
107.49367028029349
 20
76.0
 10
107.08989899473977
 20
76.0
 10
106.60640353474977
 20
76.0
 10
106.0674283815886
 20
76.0
 10
105.5
 20
76.0
 10
104.9325716184114
 20
76.0
 10
104.39359646525023
 20
76.0
 10
103.91010100526023
 20
76.0
 10
103.50632971970651
 20
76.0
 10
103.20252938684882
 20
76.0
 10
103.01393382393636
 20
76.0
 10
102.95
 20
76.0
  0
LWPOLYLINE
  5
96
330
17
100
AcDbEntity
  8
HIDDEN
100
AcDbPolyline
 90
15
 70
0
 10
102.95
 20
76.0
 10
103.01393382393636
 20
76.0
 10
103.20252938684882
 20
76.0
 10
103.50632971970651
 20
76.0
 10
103.91010100526023
 20
76.0
 10
104.39359646525023
 20
76.0
 10
104.9325716184114
 20
76.0
 10
105.5
 20
76.0
 10
106.0674283815886
 20
76.0
 10
106.60640353474977
 20
76.0
 10
107.08989899473977
 20
76.0
 10
107.49367028029349
 20
76.0
 10
107.79747061315118
 20
76.0
 10
107.98606617606364
 20
76.0
 10
108.05
 20
76.0
  0
LWPOLYLINE
  5
97
330
17
100
AcDbEntity
  8
HIDDEN
100
AcDbPolyline
 90
2
 70
0
 10
108.05
 20
70.0
 10
108.05
 20
76.0
  0
LWPOLYLINE
  5
98
330
17
100
AcDbEntity
  8
HIDDEN
100
AcDbPolyline
 90
2
 70
0
 10
122.0
 20
70.0
 10
122.0
 20
76.0
  0
LWPOLYLINE
  5
99
330
17
100
AcDbEntity
  8
HIDDEN
100
AcDbPolyline
 90
2
 70
0
 10
122.0
 20
76.0
 10
110.0
 20
76.0
  0
LWPOLYLINE
  5
9A
330
17
100
AcDbEntity
  8
HIDDEN
100
AcDbPolyline
 90
2
 70
0
 10
110.0
 20
70.0
 10
110.0
 20
76.0
  0
LWPOLYLINE
  5
9B
330
17
100
AcDbEntity
  8
HIDDEN
100
AcDbPolyline
 90
2
 70
0
 10
110.0
 20
70.0
 10
110.0
 20
76.0
  0
LWPOLYLINE
  5
9C
330
17
100
AcDbEntity
  8
HIDDEN
100
AcDbPolyline
 90
2
 70
0
 10
122.0
 20
70.0
 10
122.0
 20
76.0
  0
LWPOLYLINE
  5
9D
330
17
100
AcDbEntity
  8
HIDDEN
100
AcDbPolyline
 90
2
 70
0
 10
122.0
 20
76.0
 10
110.0
 20
76.0
  0
LWPOLYLINE
  5
9E
330
17
100
AcDbEntity
  8
HIDDEN
100
AcDbPolyline
 90
2
 70
0
 10
122.0
 20
70.0
 10
122.0
 20
76.0
  0
LWPOLYLINE
  5
9F
330
17
100
AcDbEntity
  8
HIDDEN
100
AcDbPolyline
 90
2
 70
0
 10
92.0
 20
76.0
 10
122.0
 20
76.0
  0
LWPOLYLINE
  5
A0
330
17
100
AcDbEntity
  8
HIDDEN
100
AcDbPolyline
 90
2
 70
0
 10
95.0
 20
76.0
 10
110.0
 20
76.0
  0
LWPOLYLINE
  5
A1
330
17
100
AcDbEntity
  8
HIDDEN
100
AcDbPolyline
 90
2
 70
0
 10
95.0
 20
76.0
 10
110.0
 20
76.0
  0
LWPOLYLINE
  5
A2
330
17
100
AcDbEntity
  8
HIDDEN
100
AcDbPolyline
 90
2
 70
0
 10
95.0
 20
76.0
 10
110.0
 20
76.0
  0
LWPOLYLINE
  5
A3
330
17
100
AcDbEntity
  8
HIDDEN
100
AcDbPolyline
 90
2
 70
0
 10
95.0
 20
76.0
 10
110.0
 20
76.0
  0
LWPOLYLINE
  5
A4
330
17
100
AcDbEntity
  8
HIDDEN
100
AcDbPolyline
 90
2
 70
0
 10
110.0
 20
76.0
 10
110.0
 20
94.0
  0
LWPOLYLINE
  5
A5
330
17
100
AcDbEntity
  8
HIDDEN
100
AcDbPolyline
 90
2
 70
0
 10
95.0
 20
76.0
 10
95.0
 20
92.5
  0
LWPOLYLINE
  5
A6
330
17
100
AcDbEntity
  8
HIDDEN
100
AcDbPolyline
 90
2
 70
0
 10
95.0
 20
92.5
 10
104.0
 20
92.5
  0
LWPOLYLINE
  5
A7
330
17
100
AcDbEntity
  8
HIDDEN
100
AcDbPolyline
 90
2
 70
0
 10
104.0
 20
92.5
 10
104.0
 20
94.0
  0
LWPOLYLINE
  5
A8
330
17
100
AcDbEntity
  8
HIDDEN
100
AcDbPolyline
 90
2
 70
0
 10
104.0
 20
94.0
 10
110.0
 20
94.0
  0
LWPOLYLINE
  5
A9
330
17
100
AcDbEntity
  8
HIDDEN
100
AcDbPolyline
 90
2
 70
0
 10
104.0
 20
94.0
 10
110.0
 20
94.0
  0
LWPOLYLINE
  5
AA
330
17
100
AcDbEntity
  8
HIDDEN
100
AcDbPolyline
 90
15
 70
0
 10
116.0
 20
96.1
 10
116.0
 20
96.03606617606366
 10
116.0
 20
95.84747061315116
 10
116.0
 20
95.54367028029347
 10
116.0
 20
95.13989899473978
 10
116.0
 20
94.65640353474977
 10
116.0
 20
94.11742838158861
 10
116.0
 20
93.55
 10
116.0
 20
92.9825716184114
 10
116.0
 20
92.44359646525022
 10
116.0
 20
91.96010100526023
 10
116.0
 20
91.55632971970653
 10
116.0
 20
91.25252938684883
 10
116.0
 20
91.06393382393635
 10
116.0
 20
91.0
  0
LWPOLYLINE
  5
AB
330
17
100
AcDbEntity
  8
HIDDEN
100
AcDbPolyline
 90
15
 70
0
 10
116.0
 20
91.0
 10
116.0
 20
91.06393382393635
 10
116.0
 20
91.25252938684883
 10
116.0
 20
91.55632971970653
 10
116.0
 20
91.96010100526023
 10
116.0
 20
92.44359646525022
 10
116.0
 20
92.9825716184114
 10
116.0
 20
93.55
 10
116.0
 20
94.11742838158861
 10
116.0
 20
94.65640353474977
 10
116.0
 20
95.13989899473977
 10
116.0
 20
95.54367028029347
 10
116.0
 20
95.84747061315116
 10
116.0
 20
96.03606617606366
 10
116.0
 20
96.1
  0
LWPOLYLINE
  5
AC
330
17
100
AcDbEntity
  8
HIDDEN
100
AcDbPolyline
 90
2
 70
0
 10
110.0
 20
96.1
 10
116.0
 20
96.1
  0
LWPOLYLINE
  5
AD
330
17
100
AcDbEntity
  8
HIDDEN
100
AcDbPolyline
 90
15
 70
0
 10
110.0
 20
94.0
 10
110.0
 20
94.24717492370179
 10
110.0
 20
94.4874494084204
 10
110.0
 20
94.71844528568673
 10
110.0
 20
94.93787622404756
 10
110.0
 20
95.1435703585237
 10
110.0
 20
95.33349178711134
 10
110.0
 20
95.50576072156079
 10
110.0
 20
95.65867209298554
 10
110.0
 20
95.79071242814882
 10
110.0
 20
95.90057482939109
 10
110.0
 20
95.98717190993096
 10
110.0
 20
96.04964655651027
 10
110.0
 20
96.08738041285704
 10
110.0
 20
96.1
  0
LWPOLYLINE
  5
AE
330
17
100
AcDbEntity
  8
HIDDEN
100
AcDbPolyline
 90
15
 70
0
 10
104.0
 20
92.5
 10
104.0
 20
92.31344462239677
 10
104.0
 20
92.13517614635721
 10
104.0
 20
91.96638925619517
 10
104.0
 20
91.80821509441293
 10
104.0
 20
91.66171368123467
 10
104.0
 20
91.52786681077326
 10
104.0
 20
91.40757147143714
 10
104.0
 20
91.30163383467138
 10
104.0
 20
91.21076385231771
 10
104.0
 20
91.13557049880016
 10
104.0
 20
91.07655769002105
 10
104.0
 20
91.03412090631727
 10
104.0
 20
91.0085445421087
 10
104.0
 20
91.0
  0
LWPOLYLINE
  5
AF
330
17
100
AcDbEntity
  8
HIDDEN
100
AcDbPolyline
 90
15
 70
0
 10
104.0
 20
91.0
 10
104.0
 20
91.01985500167419
 10
104.0
 20
91.0791108136838
 10
104.0
 20
91.17684467191383
 10
104.0
 20
91.31153461093777
 10
104.0
 20
91.48108316490088
 10
104.0
 20
91.68285003041272
 10
104.0
 20
91.91369318280465
 10
104.0
 20
92.17001780546707
 10
104.0
 20
92.44783227031206
 10
104.0
 20
92.74281029760272
 10
104.0
 20
93.05035832716196
 10
104.0
 20
93.36568705181979
 10
104.0
 20
93.68388599914013
 10
104.0
 20
93.99999999999997
  0
LWPOLYLINE
  5
B0
330
17
100
AcDbEntity
  8
HIDDEN
100
AcDbPolyline
 90
2
 70
0
 10
104.0
 20
94.0
 10
110.0
 20
94.0
  0
LWPOLYLINE
  5
B1
330
17
100
AcDbEntity
  8
HIDDEN
100
AcDbPolyline
 90
15
 70
0
 10
110.0
 20
96.1
 10
110.0
 20
96.08738041285704
 10
110.0
 20
96.04964655651027
 10
110.0
 20
95.98717190993096
 10
110.0
 20
95.90057482939109
 10
110.0
 20
95.79071242814884
 10
110.0
 20
95.65867209298554
 10
110.0
 20
95.50576072156079
 10
110.0
 20
95.33349178711134
 10
110.0
 20
95.1435703585237
 10
110.0
 20
94.93787622404757
 10
110.0
 20
94.71844528568673
 10
110.0
 20
94.4874494084204
 10
110.0
 20
94.24717492370179
 10
110.0
 20
94.00000000000001
  0
LWPOLYLINE
  5
B2
330
17
100
AcDbEntity
  8
HIDDEN
100
AcDbPolyline
 90
2
 70
0
 10
116.0
 20
86.5
 10
116.0
 20
130.0
  0
LWPOLYLINE
  5
B3
330
17
100
AcDbEntity
  8
HIDDEN
100
AcDbPolyline
 90
15
 70
0
 10
116.0
 20
121.0
 10
116.0
 20
120.93606617606365
 10
116.0
 20
120.74747061315117
 10
116.0
 20
120.44367028029347
 10
116.0
 20
120.03989899473977
 10
116.0
 20
119.55640353474976
 10
116.0
 20
119.0174283815886
 10
116.0
 20
118.44999999999999
 10
116.0
 20
117.88257161841139
 10
116.0
 20
117.34359646525022
 10
116.0
 20
116.86010100526022
 10
116.0
 20
116.45632971970653
 10
116.0
 20
116.15252938684883
 10
116.0
 20
115.96393382393634
 10
116.0
 20
115.89999999999999
  0
LWPOLYLINE
  5
B4
330
17
100
AcDbEntity
  8
HIDDEN
100
AcDbPolyline
 90
15
 70
0
 10
116.0
 20
115.89999999999999
 10
116.0
 20
115.96393382393634
 10
116.0
 20
116.15252938684883
 10
116.0
 20
116.45632971970653
 10
116.0
 20
116.86010100526022
 10
116.0
 20
117.34359646525022
 10
116.0
 20
117.88257161841139
 10
116.0
 20
118.44999999999999
 10
116.0
 20
119.0174283815886
 10
116.0
 20
119.55640353474976
 10
116.0
 20
120.03989899473977
 10
116.0
 20
120.44367028029347
 10
116.0
 20
120.74747061315117
 10
116.0
 20
120.93606617606365
 10
116.0
 20
121.0
  0
LWPOLYLINE
  5
B5
330
17
100
AcDbEntity
  8
HIDDEN
100
AcDbPolyline
 90
2
 70
0
 10
110.0
 20
121.0
 10
116.0
 20
121.0
  0
LWPOLYLINE
  5
B6
330
17
100
AcDbEntity
  8
HIDDEN
100
AcDbPolyline
 90
15
 70
0
 10
110.0
 20
121.0
 10
110.0
 20
120.93606617606365
 10
110.0
 20
120.74747061315117
 10
110.0
 20
120.44367028029347
 10
110.0
 20
120.03989899473977
 10
110.0
 20
119.55640353474976
 10
110.0
 20
119.0174283815886
 10
110.0
 20
118.44999999999999
 10
110.0
 20
117.88257161841139
 10
110.0
 20
117.34359646525022
 10
110.0
 20
116.86010100526022
 10
110.0
 20
116.45632971970653
 10
110.0
 20
116.15252938684883
 10
110.0
 20
115.96393382393634
 10
110.0
 20
115.89999999999999
  0
LWPOLYLINE
  5
B7
330
17
100
AcDbEntity
  8
HIDDEN
100
AcDbPolyline
 90
15
 70
0
 10
110.0
 20
115.89999999999999
 10
110.0
 20
115.96393382393634
 10
110.0
 20
116.15252938684883
 10
110.0
 20
116.45632971970653
 10
110.0
 20
116.86010100526022
 10
110.0
 20
117.34359646525022
 10
110.0
 20
117.88257161841139
 10
110.0
 20
118.44999999999999
 10
110.0
 20
119.0174283815886
 10
110.0
 20
119.55640353474976
 10
110.0
 20
120.03989899473977
 10
110.0
 20
120.44367028029347
 10
110.0
 20
120.74747061315117
 10
110.0
 20
120.93606617606365
 10
110.0
 20
121.0
  0
LWPOLYLINE
  5
B8
330
17
100
AcDbEntity
  8
HIDDEN
100
AcDbPolyline
 90
2
 70
0
 10
110.0
 20
86.5
 10
116.0
 20
86.5
  0
LWPOLYLINE
  5
B9
330
17
100
AcDbEntity
  8
HIDDEN
100
AcDbPolyline
 90
2
 70
0
 10
110.0
 20
130.0
 10
116.0
 20
130.0
  0
LWPOLYLINE
  5
BA
330
17
100
AcDbEntity
  8
HIDDEN
100
AcDbPolyline
 90
2
 70
0
 10
110.0
 20
86.5
 10
110.0
 20
94.0
  0
LWPOLYLINE
  5
BB
330
17
100
AcDbEntity
  8
HIDDEN
100
AcDbPolyline
 90
2
 70
0
 10
110.0
 20
94.0
 10
110.0
 20
130.0
  0
LWPOLYLINE
  5
BC
330
17
100
AcDbEntity
  8
HIDDEN
100
AcDbPolyline
 90
2
 70
0
 10
104.0
 20
86.5
 10
110.0
 20
86.5
  0
LWPOLYLINE
  5
BD
330
17
100
AcDbEntity
  8
HIDDEN
100
AcDbPolyline
 90
2
 70
0
 10
104.0
 20
86.5
 10
110.0
 20
86.5
  0
LWPOLYLINE
  5
BE
330
17
100
AcDbEntity
  8
HIDDEN
100
AcDbPolyline
 90
2
 70
0
 10
110.0
 20
86.5
 10
110.0
 20
94.0
  0
LWPOLYLINE
  5
BF
330
17
100
AcDbEntity
  8
HIDDEN
100
AcDbPolyline
 90
2
 70
0
 10
104.0
 20
92.5
 10
104.0
 20
86.5
  0
LWPOLYLINE
  5
C0
330
17
100
AcDbEntity
  8
HIDDEN
100
AcDbPolyline
 90
2
 70
0
 10
104.0
 20
92.5
 10
104.0
 20
86.5
  0
LWPOLYLINE
  5
C1
330
17
100
AcDbEntity
  8
HIDDEN
100
AcDbPolyline
 90
2
 70
0
 10
95.0
 20
92.5
 10
104.0
 20
92.5
  0
LWPOLYLINE
  5
C2
330
17
100
AcDbEntity
  8
HIDDEN
100
AcDbPolyline
 90
2
 70
0
 10
95.0
 20
92.5
 10
104.0
 20
92.5
  0
LWPOLYLINE
  5
C3
330
17
100
AcDbEntity
  8
HIDDEN
100
AcDbPolyline
 90
2
 70
0
 10
110.0
 20
76.0
 10
110.0
 20
86.5
  0
LWPOLYLINE
  5
C4
330
17
100
AcDbEntity
  8
HIDDEN
100
AcDbPolyline
 90
2
 70
0
 10
95.0
 20
76.0
 10
95.0
 20
92.5
  0
LWPOLYLINE
  5
C5
330
17
100
AcDbEntity
  8
HIDDEN
100
AcDbPolyline
 90
2
 70
0
 10
110.0
 20
76.0
 10
110.0
 20
86.5
  0
LWPOLYLINE
  5
C6
330
17
100
AcDbEntity
  8
HIDDEN
100
AcDbPolyline
 90
2
 70
0
 10
95.0
 20
76.0
 10
95.0
 20
92.5
  0
LWPOLYLINE
  5
C7
330
17
100
AcDbEntity
  8
HIDDEN
100
AcDbPolyline
 90
2
 70
0
 10
102.95
 20
70.0
 10
102.95
 20
76.0
  0
LWPOLYLINE
  5
C8
330
17
100
AcDbEntity
  8
HIDDEN
100
AcDbPolyline
 90
2
 70
0
 10
102.95
 20
70.0
 10
102.95
 20
76.0
  0
LWPOLYLINE
  5
C9
330
17
100
AcDbEntity
  8
HIDDEN
100
AcDbPolyline
 90
2
 70
0
 10
104.0
 20
91.0
 10
116.0
 20
91.0
  0
LWPOLYLINE
  5
CA
330
17
100
AcDbEntity
  8
HIDDEN
100
AcDbPolyline
 90
2
 70
0
 10
110.0
 20
115.89999999999999
 10
116.0
 20
115.89999999999999
  0
LWPOLYLINE
  5
CB
330
17
100
AcDbEntity
  8
OUTLINE
100
AcDbPolyline
 90
2
 70
0
 10
92.0
 20
70.0
 10
92.0
 20
76.0
  0
LWPOLYLINE
  5
CC
330
17
100
AcDbEntity
  8
OUTLINE
100
AcDbPolyline
 90
2
 70
0
 10
92.0
 20
70.0
 10
122.0
 20
70.0
  0
LWPOLYLINE
  5
CD
330
17
100
AcDbEntity
  8
OUTLINE
100
AcDbPolyline
 90
2
 70
0
 10
122.0
 20
70.0
 10
122.0
 20
76.0
  0
LWPOLYLINE
  5
CE
330
17
100
AcDbEntity
  8
OUTLINE
100
AcDbPolyline
 90
2
 70
0
 10
92.0
 20
76.0
 10
122.0
 20
76.0
  0
LWPOLYLINE
  5
CF
330
17
100
AcDbEntity
  8
OUTLINE
100
AcDbPolyline
 90
15
 70
0
 10
104.0
 20
94.0
 10
104.0
 20
93.89172618178418
 10
104.0
 20
93.78282105126532
 10
104.0
 20
93.67348580212541
 10
104.0
 20
93.56392242265693
 10
104.0
 20
93.45433332260518
 10
104.0
 20
93.34492095923224
 10
104.0
 20
93.23588746329307
 10
104.0
 20
93.12743426561472
 10
104.0
 20
93.01976172496879
 10
104.0
 20
92.91306875792425
 10
104.0
 20
92.80755247136474
 10
104.0
 20
92.70340779834905
 10
104.0
 20
92.60082713798755
 10
104.0
 20
92.5
  0
LWPOLYLINE
  5
D0
330
17
100
AcDbEntity
  8
OUTLINE
100
AcDbPolyline
 90
2
 70
0
 10
104.0
 20
94.0
 10
110.0
 20
94.0
  0
LWPOLYLINE
  5
D1
330
17
100
AcDbEntity
  8
OUTLINE
100
AcDbPolyline
 90
2
 70
0
 10
116.0
 20
86.5
 10
116.0
 20
130.0
  0
LWPOLYLINE
  5
D2
330
17
100
AcDbEntity
  8
OUTLINE
100
AcDbPolyline
 90
2
 70
0
 10
110.0
 20
86.5
 10
116.0
 20
86.5
  0
LWPOLYLINE
  5
D3
330
17
100
AcDbEntity
  8
OUTLINE
100
AcDbPolyline
 90
2
 70
0
 10
110.0
 20
130.0
 10
116.0
 20
130.0
  0
LWPOLYLINE
  5
D4
330
17
100
AcDbEntity
  8
OUTLINE
100
AcDbPolyline
 90
2
 70
0
 10
110.0
 20
94.0
 10
110.0
 20
130.0
  0
LWPOLYLINE
  5
D5
330
17
100
AcDbEntity
  8
OUTLINE
100
AcDbPolyline
 90
2
 70
0
 10
104.0
 20
92.5
 10
104.0
 20
94.0
  0
LWPOLYLINE
  5
D6
330
17
100
AcDbEntity
  8
OUTLINE
100
AcDbPolyline
 90
2
 70
0
 10
95.0
 20
92.5
 10
104.0
 20
92.5
  0
LWPOLYLINE
  5
D7
330
17
100
AcDbEntity
  8
OUTLINE
100
AcDbPolyline
 90
2
 70
0
 10
110.0
 20
76.0
 10
110.0
 20
94.0
  0
LWPOLYLINE
  5
D8
330
17
100
AcDbEntity
  8
OUTLINE
100
AcDbPolyline
 90
2
 70
0
 10
95.0
 20
76.0
 10
95.0
 20
92.5
  0
TEXT
  5
D9
330
17
100
AcDbEntity
  8
TEXT
100
AcDbText
 10
22.0
 20
63.0
 30
0.0
 40
2.6
  1
FRONT  (view scale 1.50:1)
100
AcDbText
  0
LWPOLYLINE
  5
DA
330
17
100
AcDbEntity
  8
HIDDEN
100
AcDbPolyline
 90
2
 70
0
 10
272.1625
 20
170.0
 10
242.325
 20
170.0
  0
LWPOLYLINE
  5
DB
330
17
100
AcDbEntity
  8
HIDDEN
100
AcDbPolyline
 90
2
 70
0
 10
331.8375
 20
170.0
 10
272.1625
 20
170.0
  0
LWPOLYLINE
  5
DC
330
17
100
AcDbEntity
  8
HIDDEN
100
AcDbPolyline
 90
2
 70
0
 10
361.675
 20
170.0
 10
331.8375
 20
170.0
  0
LWPOLYLINE
  5
DD
330
17
100
AcDbEntity
  8
HIDDEN
100
AcDbPolyline
 90
15
 70
0
 10
352.05
 20
170.0
 10
351.68359625195194
 20
170.0
 10
351.321800243628
 20
170.0
 10
350.96916176975174
 20
170.0
 10
350.6301154637378
 20
170.0
 10
350.30892502960353
 20
170.0
 10
350.0096296234173
 20
170.0
 10
349.73599305856703
 20
170.0
 10
349.4914564736234
 20
170.0
 10
349.27909505802546
 20
170.0
 10
349.1015793797893
 20
170.0
 10
348.9611418015659
 20
170.0
 10
348.859548407385
 20
170.0
 10
348.7980767931244
 20
170.0
 10
348.77750000000003
 20
170.0
  0
LWPOLYLINE
  5
DE
330
17
100
AcDbEntity
  8
HIDDEN
100
AcDbPolyline
 90
15
 70
0
 10
348.77750000000003
 20
170.0
 10
348.859548407385
 20
170.0
 10
349.1015793797893
 20
170.0
 10
349.4914564736234
 20
170.0
 10
350.0096296234173
 20
170.0
 10
350.6301154637378
 20
170.0
 10
351.321800243628
 20
170.0
 10
352.05
 20
170.0
 10
352.77819975637203
 20
170.0
 10
353.4698845362622
 20
170.0
 10
354.0903703765827
 20
170.0
 10
354.60854352637665
 20
170.0
 10
354.99842062021065
 20
170.0
 10
355.24045159261505
 20
170.0
 10
355.3225
 20
170.0
  0
LWPOLYLINE
  5
DF
330
17
100
AcDbEntity
  8
HIDDEN
100
AcDbPolyline
 90
15
 70
0
 10
355.3225
 20
170.0
 10
355.30192320687564
 20
170.0
 10
355.24045159261505
 20
170.0
 10
355.13885819843415
 20
170.0
 10
354.99842062021065
 20
170.0
 10
354.82090494197456
 20
170.0
 10
354.60854352637665
 20
170.0
 10
354.364006941433
 20
170.0
 10
354.0903703765827
 20
170.0
 10
353.79107497039644
 20
170.0
 10
353.4698845362622
 20
170.0
 10
353.1308382302483
 20
170.0
 10
352.77819975637203
 20
170.0
 10
352.4164037480481
 20
170.0
 10
352.05
 20
170.0
  0
LWPOLYLINE
  5
E0
330
17
100
AcDbEntity
  8
HIDDEN
100
AcDbPolyline
 90
15
 70
0
 10
251.95
 20
170.0
 10
251.58359625195192
 20
170.0
 10
251.22180024362797
 20
170.0
 10
250.8691617697517
 20
170.0
 10
250.5301154637378
 20
170.0
 10
250.20892502960356
 20
170.0
 10
249.9096296234173
 20
170.0
 10
249.635993058567
 20
170.0
 10
249.39145647362338
 20
170.0
 10
249.17909505802544
 20
170.0
 10
249.00157937978935
 20
170.0
 10
248.86114180156585
 20
170.0
 10
248.75954840738498
 20
170.0
 10
248.69807679312436
 20
170.0
 10
248.6775
 20
170.0
  0
LWPOLYLINE
  5
E1
330
17
100
AcDbEntity
  8
HIDDEN
100
AcDbPolyline
 90
15
 70
0
 10
248.6775
 20
170.0
 10
248.75954840738498
 20
170.0
 10
249.00157937978935
 20
170.0
 10
249.39145647362338
 20
170.0
 10
249.9096296234173
 20
170.0
 10
250.5301154637378
 20
170.0
 10
251.22180024362797
 20
170.0
 10
251.95
 20
170.0
 10
252.67819975637204
 20
170.0
 10
253.3698845362622
 20
170.0
 10
253.9903703765827
 20
170.0
 10
254.50854352637663
 20
170.0
 10
254.89842062021066
 20
170.0
 10
255.14045159261502
 20
170.0
 10
255.2225
 20
170.0
  0
LWPOLYLINE
  5
E2
330
17
100
AcDbEntity
  8
HIDDEN
100
AcDbPolyline
 90
15
 70
0
 10
255.2225
 20
170.0
 10
255.20192320687562
 20
170.0
 10
255.14045159261502
 20
170.0
 10
255.03885819843413
 20
170.0
 10
254.89842062021066
 20
170.0
 10
254.72090494197457
 20
170.0
 10
254.50854352637663
 20
170.0
 10
254.26400694143297
 20
170.0
 10
253.99037037658272
 20
170.0
 10
253.69107497039644
 20
170.0
 10
253.3698845362622
 20
170.0
 10
253.0308382302483
 20
170.0
 10
252.67819975637204
 20
170.0
 10
252.31640374804806
 20
170.0
 10
251.95000000000002
 20
170.0
  0
LWPOLYLINE
  5
E3
330
17
100
AcDbEntity
  8
HIDDEN
100
AcDbPolyline
 90
15
 70
0
 10
251.95
 20
177.7
 10
251.58359625195192
 20
177.7
 10
251.22180024362797
 20
177.7
 10
250.8691617697517
 20
177.7
 10
250.5301154637378
 20
177.7
 10
250.20892502960356
 20
177.7
 10
249.9096296234173
 20
177.7
 10
249.635993058567
 20
177.7
 10
249.39145647362338
 20
177.7
 10
249.17909505802544
 20
177.7
 10
249.00157937978935
 20
177.7
 10
248.86114180156585
 20
177.7
 10
248.75954840738498
 20
177.7
 10
248.69807679312436
 20
177.7
 10
248.6775
 20
177.7
  0
LWPOLYLINE
  5
E4
330
17
100
AcDbEntity
  8
HIDDEN
100
AcDbPolyline
 90
15
 70
0
 10
248.6775
 20
177.7
 10
248.75954840738498
 20
177.7
 10
249.00157937978935
 20
177.7
 10
249.39145647362338
 20
177.7
 10
249.9096296234173
 20
177.7
 10
250.5301154637378
 20
177.7
 10
251.22180024362797
 20
177.7
 10
251.95
 20
177.7
 10
252.67819975637204
 20
177.7
 10
253.3698845362622
 20
177.7
 10
253.9903703765827
 20
177.7
 10
254.50854352637663
 20
177.7
 10
254.89842062021066
 20
177.7
 10
255.14045159261502
 20
177.7
 10
255.2225
 20
177.7
  0
LWPOLYLINE
  5
E5
330
17
100
AcDbEntity
  8
HIDDEN
100
AcDbPolyline
 90
15
 70
0
 10
255.2225
 20
177.7
 10
255.20192320687562
 20
177.7
 10
255.14045159261502
 20
177.7
 10
255.03885819843413
 20
177.7
 10
254.89842062021066
 20
177.7
 10
254.72090494197457
 20
177.7
 10
254.50854352637663
 20
177.7
 10
254.26400694143297
 20
177.7
 10
253.99037037658272
 20
177.7
 10
253.69107497039644
 20
177.7
 10
253.3698845362622
 20
177.7
 10
253.0308382302483
 20
177.7
 10
252.67819975637204
 20
177.7
 10
252.31640374804806
 20
177.7
 10
251.95000000000002
 20
177.7
  0
LWPOLYLINE
  5
E6
330
17
100
AcDbEntity
  8
HIDDEN
100
AcDbPolyline
 90
15
 70
0
 10
352.05
 20
177.7
 10
351.68359625195194
 20
177.7
 10
351.321800243628
 20
177.7
 10
350.96916176975174
 20
177.7
 10
350.6301154637378
 20
177.7
 10
350.30892502960353
 20
177.7
 10
350.0096296234173
 20
177.7
 10
349.73599305856703
 20
177.7
 10
349.4914564736234
 20
177.7
 10
349.27909505802546
 20
177.7
 10
349.1015793797893
 20
177.7
 10
348.9611418015659
 20
177.7
 10
348.859548407385
 20
177.7
 10
348.7980767931244
 20
177.7
 10
348.77750000000003
 20
177.7
  0
LWPOLYLINE
  5
E7
330
17
100
AcDbEntity
  8
HIDDEN
100
AcDbPolyline
 90
15
 70
0
 10
348.77750000000003
 20
177.7
 10
348.859548407385
 20
177.7
 10
349.1015793797893
 20
177.7
 10
349.4914564736234
 20
177.7
 10
350.0096296234173
 20
177.7
 10
350.6301154637378
 20
177.7
 10
351.321800243628
 20
177.7
 10
352.05
 20
177.7
 10
352.77819975637203
 20
177.7
 10
353.4698845362622
 20
177.7
 10
354.0903703765827
 20
177.7
 10
354.60854352637665
 20
177.7
 10
354.99842062021065
 20
177.7
 10
355.24045159261505
 20
177.7
 10
355.3225
 20
177.7
  0
LWPOLYLINE
  5
E8
330
17
100
AcDbEntity
  8
HIDDEN
100
AcDbPolyline
 90
15
 70
0
 10
355.3225
 20
177.7
 10
355.30192320687564
 20
177.7
 10
355.24045159261505
 20
177.7
 10
355.13885819843415
 20
177.7
 10
354.99842062021065
 20
177.7
 10
354.82090494197456
 20
177.7
 10
354.60854352637665
 20
177.7
 10
354.364006941433
 20
177.7
 10
354.0903703765827
 20
177.7
 10
353.79107497039644
 20
177.7
 10
353.4698845362622
 20
177.7
 10
353.1308382302483
 20
177.7
 10
352.77819975637203
 20
177.7
 10
352.4164037480481
 20
177.7
 10
352.05
 20
177.7
  0
LWPOLYLINE
  5
E9
330
17
100
AcDbEntity
  8
HIDDEN
100
AcDbPolyline
 90
2
 70
0
 10
331.8375
 20
170.0
 10
331.8375
 20
177.7
  0
LWPOLYLINE
  5
EA
330
17
100
AcDbEntity
  8
HIDDEN
100
AcDbPolyline
 90
2
 70
0
 10
331.8375
 20
170.0
 10
331.8375
 20
177.7
  0
LWPOLYLINE
  5
EB
330
17
100
AcDbEntity
  8
HIDDEN
100
AcDbPolyline
 90
2
 70
0
 10
361.675
 20
177.7
 10
331.8375
 20
177.7
  0
LWPOLYLINE
  5
EC
330
17
100
AcDbEntity
  8
HIDDEN
100
AcDbPolyline
 90
2
 70
0
 10
361.675
 20
170.0
 10
361.675
 20
177.7
  0
LWPOLYLINE
  5
ED
330
17
100
AcDbEntity
  8
HIDDEN
100
AcDbPolyline
 90
2
 70
0
 10
331.8375
 20
177.7
 10
272.1625
 20
177.7
  0
LWPOLYLINE
  5
EE
330
17
100
AcDbEntity
  8
HIDDEN
100
AcDbPolyline
 90
2
 70
0
 10
272.1625
 20
170.0
 10
272.1625
 20
177.7
  0
LWPOLYLINE
  5
EF
330
17
100
AcDbEntity
  8
HIDDEN
100
AcDbPolyline
 90
2
 70
0
 10
272.1625
 20
170.0
 10
272.1625
 20
177.7
  0
LWPOLYLINE
  5
F0
330
17
100
AcDbEntity
  8
HIDDEN
100
AcDbPolyline
 90
2
 70
0
 10
272.1625
 20
177.7
 10
242.325
 20
177.7
  0
LWPOLYLINE
  5
F1
330
17
100
AcDbEntity
  8
HIDDEN
100
AcDbPolyline
 90
2
 70
0
 10
242.325
 20
170.0
 10
242.325
 20
177.7
  0
LWPOLYLINE
  5
F2
330
17
100
AcDbEntity
  8
HIDDEN
100
AcDbPolyline
 90
2
 70
0
 10
346.275
 20
177.7
 10
334.725
 20
177.7
  0
LWPOLYLINE
  5
F3
330
17
100
AcDbEntity
  8
HIDDEN
100
AcDbPolyline
 90
2
 70
0
 10
346.275
 20
177.7
 10
334.725
 20
177.7
  0
LWPOLYLINE
  5
F4
330
17
100
AcDbEntity
  8
HIDDEN
100
AcDbPolyline
 90
2
 70
0
 10
269.275
 20
177.7
 10
257.725
 20
177.7
  0
LWPOLYLINE
  5
F5
330
17
100
AcDbEntity
  8
HIDDEN
100
AcDbPolyline
 90
2
 70
0
 10
269.275
 20
177.7
 10
257.725
 20
177.7
  0
LWPOLYLINE
  5
F6
330
17
100
AcDbEntity
  8
HIDDEN
100
AcDbPolyline
 90
2
 70
0
 10
257.725
 20
177.7
 10
257.725
 20
200.79999999999998
  0
LWPOLYLINE
  5
F7
330
17
100
AcDbEntity
  8
HIDDEN
100
AcDbPolyline
 90
2
 70
0
 10
272.1625
 20
200.79999999999998
 10
257.725
 20
200.79999999999998
  0
LWPOLYLINE
  5
F8
330
17
100
AcDbEntity
  8
HIDDEN
100
AcDbPolyline
 90
2
 70
0
 10
292.04135889784385
 20
200.79999999999998
 10
272.1625
 20
200.79999999999998
  0
LWPOLYLINE
  5
F9
330
17
100
AcDbEntity
  8
HIDDEN
100
AcDbPolyline
 90
22
 70
0
 10
295.2625
 20
203.495
 10
296.2270863082597
 20
203.34961200693513
 10
297.1059648900132
 20
202.92636638894908
 10
297.8210435263766
 20
202.2628703765827
 10
298.3087843424382
 20
201.418078502239
 10
298.5258494262754
 20
200.46705423126156
 10
298.452951592615
 20
199.49430024362795
 10
298.0965681338846
 20
198.58624999999998
 10
297.4883652843553
 20
197.82358774943688
 10
296.6823845362622
 20
197.27407937978933
 10
295.75024081606153
 20
196.98655112117825
 10
294.77475918393844
 20
196.98655112117825
 10
293.8426154637378
 20
197.27407937978933
 10
293.03663471564465
 20
197.82358774943688
 10
292.42843186611543
 20
198.58624999999998
 10
292.07204840738495
 20
199.49430024362795
 10
291.9991505737246
 20
200.46705423126156
 10
292.21621565756186
 20
201.418078502239
 10
292.70395647362335
 20
202.2628703765827
 10
293.4190351099868
 20
202.92636638894908
 10
294.2979136917403
 20
203.34961200693513
 10
295.2625
 20
203.495
  0
LWPOLYLINE
  5
FA
330
17
100
AcDbEntity
  8
HIDDEN
100
AcDbPolyline
 90
2
 70
0
 10
318.3625
 20
200.79999999999998
 10
298.4836411021562
 20
200.79999999999998
  0
LWPOLYLINE
  5
FB
330
17
100
AcDbEntity
  8
HIDDEN
100
AcDbPolyline
 90
2
 70
0
 10
346.275
 20
200.79999999999998
 10
318.3625
 20
200.79999999999998
  0
LWPOLYLINE
  5
FC
330
17
100
AcDbEntity
  8
HIDDEN
100
AcDbPolyline
 90
2
 70
0
 10
318.3625
 20
191.17499999999998
 10
318.3625
 20
247.0
  0
LWPOLYLINE
  5
FD
330
17
100
AcDbEntity
  8
HIDDEN
100
AcDbPolyline
 90
2
 70
0
 10
318.3625
 20
247.0
 10
272.1625
 20
247.0
  0
LWPOLYLINE
  5
FE
330
17
100
AcDbEntity
  8
HIDDEN
100
AcDbPolyline
 90
2
 70
0
 10
318.3625
 20
191.17499999999998
 10
272.1625
 20
191.17499999999998
  0
LWPOLYLINE
  5
FF
330
17
100
AcDbEntity
  8
HIDDEN
100
AcDbPolyline
 90
2
 70
0
 10
272.1625
 20
191.17499999999998
 10
272.1625
 20
247.0
  0
LWPOLYLINE
  5
100
330
17
100
AcDbEntity
  8
HIDDEN
100
AcDbPolyline
 90
22
 70
0
 10
295.2625
 20
235.45
 10
296.2270863082597
 20
235.30461200693514
 10
297.1059648900132
 20
234.88136638894906
 10
297.8210435263766
 20
234.2178703765827
 10
298.3087843424382
 20
233.37307850223903
 10
298.5258494262754
 20
232.42205423126154
 10
298.452951592615
 20
231.44930024362793
 10
298.0965681338846
 20
230.54125
 10
297.4883652843553
 20
229.7785877494369
 10
296.6823845362622
 20
229.2290793797893
 10
295.75024081606153
 20
228.94155112117824
 10
294.77475918393844
 20
228.94155112117824
 10
293.8426154637378
 20
229.2290793797893
 10
293.03663471564465
 20
229.7785877494369
 10
292.42843186611543
 20
230.54125
 10
292.07204840738495
 20
231.44930024362793
 10
291.9991505737246
 20
232.42205423126154
 10
292.21621565756186
 20
233.37307850223903
 10
292.70395647362335
 20
234.2178703765827
 10
293.4190351099868
 20
234.88136638894906
 10
294.2979136917403
 20
235.30461200693514
 10
295.2625
 20
235.45
  0
LWPOLYLINE
  5
101
330
17
100
AcDbEntity
  8
HIDDEN
100
AcDbPolyline
 90
2
 70
0
 10
272.1625
 20
191.17499999999998
 10
272.1625
 20
200.79999999999998
  0
LWPOLYLINE
  5
102
330
17
100
AcDbEntity
  8
HIDDEN
100
AcDbPolyline
 90
2
 70
0
 10
334.725
 20
191.17499999999998
 10
318.3625
 20
191.17499999999998
  0
LWPOLYLINE
  5
103
330
17
100
AcDbEntity
  8
HIDDEN
100
AcDbPolyline
 90
2
 70
0
 10
272.1625
 20
191.17499999999998
 10
269.275
 20
191.17499999999998
  0
LWPOLYLINE
  5
104
330
17
100
AcDbEntity
  8
HIDDEN
100
AcDbPolyline
 90
2
 70
0
 10
318.3625
 20
191.17499999999998
 10
318.3625
 20
200.79999999999998
  0
LWPOLYLINE
  5
105
330
17
100
AcDbEntity
  8
HIDDEN
100
AcDbPolyline
 90
2
 70
0
 10
269.275
 20
198.875
 10
257.725
 20
198.875
  0
LWPOLYLINE
  5
106
330
17
100
AcDbEntity
  8
HIDDEN
100
AcDbPolyline
 90
2
 70
0
 10
269.275
 20
198.875
 10
269.275
 20
191.17499999999998
  0
LWPOLYLINE
  5
107
330
17
100
AcDbEntity
  8
HIDDEN
100
AcDbPolyline
 90
2
 70
0
 10
334.725
 20
198.875
 10
334.725
 20
191.17499999999998
  0
LWPOLYLINE
  5
108
330
17
100
AcDbEntity
  8
HIDDEN
100
AcDbPolyline
 90
2
 70
0
 10
346.275
 20
198.875
 10
334.725
 20
198.875
  0
LWPOLYLINE
  5
109
330
17
100
AcDbEntity
  8
HIDDEN
100
AcDbPolyline
 90
2
 70
0
 10
269.275
 20
177.7
 10
269.275
 20
191.17499999999998
  0
LWPOLYLINE
  5
10A
330
17
100
AcDbEntity
  8
HIDDEN
100
AcDbPolyline
 90
2
 70
0
 10
346.275
 20
177.7
 10
346.275
 20
200.79999999999998
  0
LWPOLYLINE
  5
10B
330
17
100
AcDbEntity
  8
HIDDEN
100
AcDbPolyline
 90
2
 70
0
 10
334.725
 20
177.7
 10
334.725
 20
191.17499999999998
  0
LWPOLYLINE
  5
10C
330
17
100
AcDbEntity
  8
HIDDEN
100
AcDbPolyline
 90
2
 70
0
 10
255.2225
 20
170.0
 10
255.2225
 20
177.7
  0
LWPOLYLINE
  5
10D
330
17
100
AcDbEntity
  8
HIDDEN
100
AcDbPolyline
 90
2
 70
0
 10
248.6775
 20
170.0
 10
248.6775
 20
177.7
  0
LWPOLYLINE
  5
10E
330
17
100
AcDbEntity
  8
HIDDEN
100
AcDbPolyline
 90
2
 70
0
 10
355.3225
 20
170.0
 10
355.3225
 20
177.7
  0
LWPOLYLINE
  5
10F
330
17
100
AcDbEntity
  8
HIDDEN
100
AcDbPolyline
 90
2
 70
0
 10
348.77750000000003
 20
170.0
 10
348.77750000000003
 20
177.7
  0
LWPOLYLINE
  5
110
330
17
100
AcDbEntity
  8
OUTLINE
100
AcDbPolyline
 90
2
 70
0
 10
361.675
 20
170.0
 10
361.675
 20
177.7
  0
LWPOLYLINE
  5
111
330
17
100
AcDbEntity
  8
OUTLINE
100
AcDbPolyline
 90
2
 70
0
 10
361.675
 20
177.7
 10
242.325
 20
177.7
  0
LWPOLYLINE
  5
112
330
17
100
AcDbEntity
  8
OUTLINE
100
AcDbPolyline
 90
2
 70
0
 10
242.325
 20
170.0
 10
242.325
 20
177.7
  0
LWPOLYLINE
  5
113
330
17
100
AcDbEntity
  8
OUTLINE
100
AcDbPolyline
 90
2
 70
0
 10
361.675
 20
170.0
 10
242.325
 20
170.0
  0
LWPOLYLINE
  5
114
330
17
100
AcDbEntity
  8
OUTLINE
100
AcDbPolyline
 90
2
 70
0
 10
257.725
 20
177.7
 10
257.725
 20
198.875
  0
LWPOLYLINE
  5
115
330
17
100
AcDbEntity
  8
OUTLINE
100
AcDbPolyline
 90
2
 70
0
 10
257.725
 20
198.875
 10
257.725
 20
200.79999999999998
  0
LWPOLYLINE
  5
116
330
17
100
AcDbEntity
  8
OUTLINE
100
AcDbPolyline
 90
2
 70
0
 10
292.04135889784385
 20
200.79999999999998
 10
257.725
 20
200.79999999999998
  0
LWPOLYLINE
  5
117
330
17
100
AcDbEntity
  8
OUTLINE
100
AcDbPolyline
 90
6
 70
0
 10
292.0413588978438
 20
200.79999999999998
 10
292.32449417604255
 20
201.66381121843696
 10
292.83432850609114
 20
202.41640962579785
 10
293.53152263335636
 20
202.99972408281496
 10
294.36228046039093
 20
203.3687455451706
 10
295.2625
 20
203.495
  0
LWPOLYLINE
  5
118
330
17
100
AcDbEntity
  8
OUTLINE
100
AcDbPolyline
 90
13
 70
0
 10
298.4836411021562
 20
200.8
 10
298.5137708266345
 20
199.85035182806428
 10
298.26983385854487
 20
198.93207397993925
 10
297.772392926003
 20
198.12257291793262
 10
297.06337993760707
 20
197.49008573779076
 10
296.20256132164883
 20
197.0879281055398
 10
295.2625
 20
196.95
 10
294.32243867835115
 20
197.0879281055398
 10
293.4616200623929
 20
197.49008573779076
 10
292.75260707399696
 20
198.12257291793262
 10
292.25516614145516
 20
198.93207397993925
 10
292.01122917336545
 20
199.85035182806428
 10
292.0413588978438
 20
200.79999999999998
  0
LWPOLYLINE
  5
119
330
17
100
AcDbEntity
  8
OUTLINE
100
AcDbPolyline
 90
6
 70
0
 10
295.2625
 20
203.495
 10
296.1627195396091
 20
203.3687455451706
 10
296.9934773666436
 20
202.99972408281496
 10
297.69067149390884
 20
202.41640962579785
 10
298.2005058239574
 20
201.66381121843696
 10
298.4836411021562
 20
200.8
  0
LWPOLYLINE
  5
11A
330
17
100
AcDbEntity
  8
OUTLINE
100
AcDbPolyline
 90
2
 70
0
 10
346.275
 20
200.79999999999998
 10
298.4836411021562
 20
200.79999999999998
  0
LWPOLYLINE
  5
11B
330
17
100
AcDbEntity
  8
OUTLINE
100
AcDbPolyline
 90
22
 70
0
 10
295.2625
 20
235.45
 10
296.2270863082597
 20
235.30461200693514
 10
297.1059648900132
 20
234.88136638894906
 10
297.8210435263766
 20
234.2178703765827
 10
298.3087843424382
 20
233.37307850223903
 10
298.5258494262754
 20
232.42205423126154
 10
298.452951592615
 20
231.44930024362793
 10
298.0965681338846
 20
230.54125
 10
297.4883652843553
 20
229.7785877494369
 10
296.6823845362622
 20
229.2290793797893
 10
295.75024081606153
 20
228.94155112117824
 10
294.77475918393844
 20
228.94155112117824
 10
293.8426154637378
 20
229.2290793797893
 10
293.03663471564465
 20
229.7785877494369
 10
292.42843186611543
 20
230.54125
 10
292.07204840738495
 20
231.44930024362793
 10
291.9991505737246
 20
232.42205423126154
 10
292.21621565756186
 20
233.37307850223903
 10
292.70395647362335
 20
234.2178703765827
 10
293.4190351099868
 20
234.88136638894906
 10
294.2979136917403
 20
235.30461200693514
 10
295.2625
 20
235.45
  0
LWPOLYLINE
  5
11C
330
17
100
AcDbEntity
  8
OUTLINE
100
AcDbPolyline
 90
2
 70
0
 10
272.1625
 20
200.79999999999998
 10
272.1625
 20
247.0
  0
LWPOLYLINE
  5
11D
330
17
100
AcDbEntity
  8
OUTLINE
100
AcDbPolyline
 90
2
 70
0
 10
334.725
 20
191.17499999999998
 10
269.275
 20
191.17499999999998
  0
LWPOLYLINE
  5
11E
330
17
100
AcDbEntity
  8
OUTLINE
100
AcDbPolyline
 90
2
 70
0
 10
318.3625
 20
247.0
 10
272.1625
 20
247.0
  0
LWPOLYLINE
  5
11F
330
17
100
AcDbEntity
  8
OUTLINE
100
AcDbPolyline
 90
2
 70
0
 10
318.3625
 20
200.79999999999998
 10
318.3625
 20
247.0
  0
LWPOLYLINE
  5
120
330
17
100
AcDbEntity
  8
OUTLINE
100
AcDbPolyline
 90
2
 70
0
 10
346.275
 20
198.875
 10
346.275
 20
200.79999999999998
  0
LWPOLYLINE
  5
121
330
17
100
AcDbEntity
  8
OUTLINE
100
AcDbPolyline
 90
2
 70
0
 10
346.275
 20
198.875
 10
334.725
 20
198.875
  0
LWPOLYLINE
  5
122
330
17
100
AcDbEntity
  8
OUTLINE
100
AcDbPolyline
 90
2
 70
0
 10
269.275
 20
198.875
 10
257.725
 20
198.875
  0
LWPOLYLINE
  5
123
330
17
100
AcDbEntity
  8
OUTLINE
100
AcDbPolyline
 90
2
 70
0
 10
269.275
 20
177.7
 10
269.275
 20
198.875
  0
LWPOLYLINE
  5
124
330
17
100
AcDbEntity
  8
OUTLINE
100
AcDbPolyline
 90
2
 70
0
 10
346.275
 20
177.7
 10
346.275
 20
198.875
  0
LWPOLYLINE
  5
125
330
17
100
AcDbEntity
  8
OUTLINE
100
AcDbPolyline
 90
2
 70
0
 10
334.725
 20
177.7
 10
334.725
 20
198.875
  0
TEXT
  5
126
330
17
100
AcDbEntity
  8
TEXT
100
AcDbText
 10
217.0
 20
163.0
 30
0.0
 40
2.6
  1
END  (view scale 1.93:1)
100
AcDbText
  0
LWPOLYLINE
  5
127
330
17
100
AcDbEntity
  8
DIM
100
AcDbPolyline
 90
2
 70
0
 10
94.74193548387098
 20
161.0
 10
119.25806451612904
 20
161.0
  0
LWPOLYLINE
  5
128
330
17
100
AcDbEntity
  8
DIM
100
AcDbPolyline
 90
2
 70
0
 10
93.74193548387098
 20
160.0
 10
95.74193548387098
 20
162.0
  0
LWPOLYLINE
  5
129
330
17
100
AcDbEntity
  8
DIM
100
AcDbPolyline
 90
2
 70
0
 10
118.25806451612904
 20
160.0
 10
120.25806451612904
 20
162.0
  0
TEXT
  5
12A
330
17
100
AcDbEntity
  8
DIM
100
AcDbText
 10
100.7
 20
163.0
 30
0.0
 40
2.8
  1
20.0000 X
100
AcDbText
  0
LWPOLYLINE
  5
12B
330
17
100
AcDbEntity
  8
DIM
100
AcDbPolyline
 90
2
 70
0
 10
202.0
 20
172.0
 10
202.0
 20
248.0
  0
LWPOLYLINE
  5
12C
330
17
100
AcDbEntity
  8
DIM
100
AcDbPolyline
 90
2
 70
0
 10
201.0
 20
171.0
 10
203.0
 20
173.0
  0
LWPOLYLINE
  5
12D
330
17
100
AcDbEntity
  8
DIM
100
AcDbPolyline
 90
2
 70
0
 10
201.0
 20
247.0
 10
203.0
 20
249.0
  0
TEXT
  5
12E
330
17
100
AcDbEntity
  8
DIM
100
AcDbText
 10
204.0
 20
210.0
 30
0.0
 40
2.8
  1
62.00 Y
100
AcDbText
  0
LWPOLYLINE
  5
12F
330
17
100
AcDbEntity
  8
DIM
100
AcDbPolyline
 90
2
 70
0
 10
202.0
 20
70.0
 10
202.0
 20
130.0
  0
LWPOLYLINE
  5
130
330
17
100
AcDbEntity
  8
DIM
100
AcDbPolyline
 90
2
 70
0
 10
201.0
 20
69.0
 10
203.0
 20
71.0
  0
LWPOLYLINE
  5
131
330
17
100
AcDbEntity
  8
DIM
100
AcDbPolyline
 90
2
 70
0
 10
201.0
 20
129.0
 10
203.0
 20
131.0
  0
TEXT
  5
132
330
17
100
AcDbEntity
  8
DIM
100
AcDbText
 10
204.0
 20
100.0
 30
0.0
 40
2.8
  1
40.00 Z
100
AcDbText
  0
TEXT
  5
133
330
17
100
AcDbEntity
  8
TEXT
100
AcDbText
 10
218.0
 20
128.0
 30
0.0
 40
2.8
  1
Flange20 x62 x4 at X13 Y-31 Z6; print base flat.
100
AcDbText
  0
TEXT
  5
134
330
17
100
AcDbEntity
  8
TEXT
100
AcDbText
 10
218.0
 20
117.0
 30
0.0
 40
2.8
  1
Sensor back seating face X29; support plate4 thick.
100
AcDbText
  0
TEXT
  5
135
330
17
100
AcDbEntity
  8
TEXT
100
AcDbText
 10
218.0
 20
106.0
 30
0.0
 40
2.8
  1
DIA3.40 sensor holes: Y3.50; Z21.70 and38.30.
100
AcDbText
  0
TEXT
  5
136
330
17
100
AcDbEntity
  8
TEXT
100
AcDbText
 10
218.0
 20
95.0
 30
0.0
 40
2.8
  1
Sensor nominal3 thick; illustrated active housing face X32.
100
AcDbText
  0
TEXT
  5
137
330
17
100
AcDbEntity
  8
TEXT
100
AcDbText
 10
218.0
 20
84.0
 30
0.0
 40
2.8
  1
Center sensitivityY0,Z30; housingcenterY3.50,Z30.
100
AcDbText
  0
TEXT
  5
138
330
17
100
AcDbEntity
  8
TEXT
100
AcDbText
 10
218.0
 20
73.0
 30
0.0
 40
2.8
  1
Cable exits+Y. Verify correct active face/polarity on bench.
100
AcDbText
  0
TEXT
  5
139
330
17
100
AcDbEntity
  8
TEXT
100
AcDbText
 10
218.0
 20
51.0
 30
0.0
 40
2.55
  1
General prototype target: +/-0.20mm unless called out.
100
AcDbText
  0
TEXT
  5
13A
330
17
100
AcDbEntity
  8
TEXT
100
AcDbText
 10
218.0
 20
41.0
 30
0.0
 40
2.55
  1
CAD is nominal. Fit, measure and qualify before calibration.
100
AcDbText
  0
ENDSEC
  0
SECTION
  2
OBJECTS
  0
DICTIONARY
  5
A
330
0
100
AcDbDictionary
281
1
  3
ACAD_COLOR
350
B
  3
ACAD_GROUP
350
C
  3
ACAD_LAYOUT
350
D
  3
ACAD_MATERIAL
350
E
  3
ACAD_MLEADERSTYLE
350
F
  3
ACAD_MLINESTYLE
350
10
  3
ACAD_PLOTSETTINGS
350
11
  3
ACAD_PLOTSTYLENAME
350
12
  3
ACAD_SCALELIST
350
14
  3
ACAD_TABLESTYLE
350
15
  3
ACAD_VISUALSTYLE
350
16
  3
EZDXF_META
350
2D
  0
DICTIONARY
  5
B
330
A
100
AcDbDictionary
281
1
  0
DICTIONARY
  5
C
330
A
100
AcDbDictionary
281
1
  0
DICTIONARY
  5
D
330
A
100
AcDbDictionary
281
1
  3
Model
350
1A
  3
Layout1
350
1E
  0
DICTIONARY
  5
E
330
A
100
AcDbDictionary
281
1
  3
ByBlock
350
1F
  3
ByLayer
350
20
  3
Global
350
21
  0
DICTIONARY
  5
F
330
A
100
AcDbDictionary
281
1
  3
Standard
350
2C
  0
DICTIONARY
  5
10
330
A
100
AcDbDictionary
281
1
  3
Standard
350
22
  0
DICTIONARY
  5
11
330
A
100
AcDbDictionary
281
1
  0
ACDBDICTIONARYWDFLT
  5
12
330
A
100
AcDbDictionary
281
1
  3
Normal
350
13
100
AcDbDictionaryWithDefault
340
13
  0
ACDBPLACEHOLDER
  5
13
330
12
  0
DICTIONARY
  5
14
330
A
100
AcDbDictionary
281
1
  0
DICTIONARY
  5
15
330
A
100
AcDbDictionary
281
1
  0
DICTIONARY
  5
16
330
A
100
AcDbDictionary
281
1
  0
LAYOUT
  5
1A
330
D
100
AcDbPlotSettings
  1

  4
A3
  6

 40
7.5
 41
20.0
 42
7.5
 43
20.0
 44
420.0
 45
297.0
 46
0.0
 47
0.0
 48
0.0
 49
0.0
140
0.0
141
0.0
142
1.0
143
1.0
 70
1024
 72
1
 73
0
 74
5
  7

 75
16
 76
0
 77
2
 78
300
147
1.0
148
0.0
149
0.0
100
AcDbLayout
  1
Model
 70
1
 71
0
 10
0.0
 20
0.0
 11
420.0
 21
297.0
 12
0.0
 22
0.0
 32
0.0
 14
1e+20
 24
1e+20
 34
1e+20
 15
-1e+20
 25
-1e+20
 35
-1e+20
146
0.0
 13
0.0
 23
0.0
 33
0.0
 16
1.0
 26
0.0
 36
0.0
 17
0.0
 27
1.0
 37
0.0
 76
1
330
17
  0
LAYOUT
  5
1E
330
D
100
AcDbPlotSettings
  1

  4
A3
  6

 40
7.5
 41
20.0
 42
7.5
 43
20.0
 44
420.0
 45
297.0
 46
0.0
 47
0.0
 48
0.0
 49
0.0
140
0.0
141
0.0
142
1.0
143
1.0
 70
0
 72
1
 73
0
 74
5
  7

 75
16
 76
0
 77
2
 78
300
147
1.0
148
0.0
149
0.0
100
AcDbLayout
  1
Layout1
 70
1
 71
1
 10
0.0
 20
0.0
 11
420.0
 21
297.0
 12
0.0
 22
0.0
 32
0.0
 14
1e+20
 24
1e+20
 34
1e+20
 15
-1e+20
 25
-1e+20
 35
-1e+20
146
0.0
 13
0.0
 23
0.0
 33
0.0
 16
1.0
 26
0.0
 36
0.0
 17
0.0
 27
1.0
 37
0.0
 76
1
330
1B
  0
MATERIAL
  5
1F
102
{ACAD_REACTORS
330
E
102
}
330
E
100
AcDbMaterial
  1
ByBlock
  2

 70
0
 40
1.0
 71
1
 41
1.0
 91
-1023410177
 42
1.0
 72
1
  3

 73
1
 74
1
 75
1
 44
0.5
 73
0
 45
1.0
 46
1.0
 77
1
  4

 78
1
 79
1
170
1
 48
1.0
171
1
  6

172
1
173
1
174
1
140
1.0
141
1.0
175
1
  7

176
1
177
1
178
1
143
1.0
179
1
  8

270
1
271
1
272
1
145
1.0
146
1.0
273
1
  9

274
1
275
1
276
1
 42
1.0
 72
1
  3

 73
1
 74
1
 75
1
 94
63
  0
MATERIAL
  5
20
102
{ACAD_REACTORS
330
E
102
}
330
E
100
AcDbMaterial
  1
ByLayer
  2

 70
0
 40
1.0
 71
1
 41
1.0
 91
-1023410177
 42
1.0
 72
1
  3

 73
1
 74
1
 75
1
 44
0.5
 73
0
 45
1.0
 46
1.0
 77
1
  4

 78
1
 79
1
170
1
 48
1.0
171
1
  6

172
1
173
1
174
1
140
1.0
141
1.0
175
1
  7

176
1
177
1
178
1
143
1.0
179
1
  8

270
1
271
1
272
1
145
1.0
146
1.0
273
1
  9

274
1
275
1
276
1
 42
1.0
 72
1
  3

 73
1
 74
1
 75
1
 94
63
  0
MATERIAL
  5
21
102
{ACAD_REACTORS
330
E
102
}
330
E
100
AcDbMaterial
  1
Global
  2

 70
0
 40
1.0
 71
1
 41
1.0
 91
-1023410177
 42
1.0
 72
1
  3

 73
1
 74
1
 75
1
 44
0.5
 73
0
 45
1.0
 46
1.0
 77
1
  4

 78
1
 79
1
170
1
 48
1.0
171
1
  6

172
1
173
1
174
1
140
1.0
141
1.0
175
1
  7

176
1
177
1
178
1
143
1.0
179
1
  8

270
1
271
1
272
1
145
1.0
146
1.0
273
1
  9

274
1
275
1
276
1
 42
1.0
 72
1
  3

 73
1
 74
1
 75
1
 94
63
  0
MLINESTYLE
  5
22
102
{ACAD_REACTORS
330
10
102
}
330
10
100
AcDbMlineStyle
  2
Standard
 70
0
  3

 62
256
 51
90.0
 52
90.0
 71
2
 49
0.5
 62
256
  6
BYLAYER
 49
-0.5
 62
256
  6
BYLAYER
  0
MLEADERSTYLE
  5
2C
102
{ACAD_REACTORS
330
F
102
}
330
F
100
AcDbMLeaderStyle
179
2
170
2
171
1
172
0
 90
2
 40
0.0
 41
0.0
173
1
 91
-1056964608
 92
-2
290
1
 42
2.0
291
1
 43
8.0
  3
Standard
 44
4.0
300

342
29
174
1
175
1
176
0
178
1
 93
-1056964608
 45
4.0
292
0
297
0
 46
4.0
 94
-1056964608
 47
1.0
 49
1.0
140
1.0
294
1
141
0.0
177
0
142
1.0
295
0
296
0
143
3.75
271
0
272
9
273
9
  0
DICTIONARY
  5
2D
330
A
100
AcDbDictionary
280
1
281
1
  3
CREATED_BY_EZDXF
350
2E
  3
WRITTEN_BY_EZDXF
350
13D
  0
DICTIONARYVAR
  5
2E
330
2D
100
DictionaryVariables
280
0
  1
1.4.4 @ 2026-09-10T02:54:36.644236+00:00
  0
DICTIONARYVAR
  5
13D
330
2D
100
DictionaryVariables
280
0
  1
1.4.4 @ 2026-09-10T02:54:36.709250+00:00
  0
ENDSEC
  0
EOF
