  0
SECTION
  2
HEADER
  9
$ACADVER
  1
AC1015
  9
$ACADMAINTVER
 70
6
  9
$DWGCODEPAGE
  3
ANSI_1252
  9
$INSBASE
 10
0.0
 20
0.0
 30
0.0
  9
$EXTMIN
 10
1e+20
 20
1e+20
 30
1e+20
  9
$EXTMAX
 10
-1e+20
 20
-1e+20
 30
-1e+20
  9
$LIMMIN
 10
0.0
 20
0.0
  9
$LIMMAX
 10
420.0
 20
297.0
  9
$ORTHOMODE
 70
0
  9
$REGENMODE
 70
1
  9
$FILLMODE
 70
1
  9
$QTEXTMODE
 70
0
  9
$MIRRTEXT
 70
1
  9
$LTSCALE
 40
1.0
  9
$ATTMODE
 70
1
  9
$TEXTSIZE
 40
2.5
  9
$TRACEWID
 40
1.0
  9
$TEXTSTYLE
  7
Standard
  9
$CLAYER
  8
0
  9
$CELTYPE
  6
ByLayer
  9
$CECOLOR
 62
256
  9
$CELTSCALE
 40
1.0
  9
$DISPSILH
 70
0
  9
$DIMSCALE
 40
1.0
  9
$DIMASZ
 40
2.5
  9
$DIMEXO
 40
0.625
  9
$DIMDLI
 40
3.75
  9
$DIMRND
 40
0.0
  9
$DIMDLE
 40
0.0
  9
$DIMEXE
 40
1.25
  9
$DIMTP
 40
0.0
  9
$DIMTM
 40
0.0
  9
$DIMTXT
 40
2.5
  9
$DIMCEN
 40
2.5
  9
$DIMTSZ
 40
0.0
  9
$DIMTOL
 70
0
  9
$DIMLIM
 70
0
  9
$DIMTIH
 70
0
  9
$DIMTOH
 70
0
  9
$DIMSE1
 70
0
  9
$DIMSE2
 70
0
  9
$DIMTAD
 70
1
  9
$DIMZIN
 70
8
  9
$DIMBLK
  1

  9
$DIMASO
 70
1
  9
$DIMSHO
 70
1
  9
$DIMPOST
  1

  9
$DIMAPOST
  1

  9
$DIMALT
 70
0
  9
$DIMALTD
 70
3
  9
$DIMALTF
 40
0.03937007874
  9
$DIMLFAC
 40
1.0
  9
$DIMTOFL
 70
1
  9
$DIMTVP
 40
0.0
  9
$DIMTIX
 70
0
  9
$DIMSOXD
 70
0
  9
$DIMSAH
 70
0
  9
$DIMBLK1
  1

  9
$DIMBLK2
  1

  9
$DIMSTYLE
  2
ISO-25
  9
$DIMCLRD
 70
0
  9
$DIMCLRE
 70
0
  9
$DIMCLRT
 70
0
  9
$DIMTFAC
 40
1.0
  9
$DIMGAP
 40
0.625
  9
$DIMJUST
 70
0
  9
$DIMSD1
 70
0
  9
$DIMSD2
 70
0
  9
$DIMTOLJ
 70
0
  9
$DIMTZIN
 70
8
  9
$DIMALTZ
 70
0
  9
$DIMALTTZ
 70
0
  9
$DIMUPT
 70
0
  9
$DIMDEC
 70
2
  9
$DIMTDEC
 70
2
  9
$DIMALTU
 70
2
  9
$DIMALTTD
 70
3
  9
$DIMTXSTY
  7
Standard
  9
$DIMAUNIT
 70
0
  9
$DIMADEC
 70
0
  9
$DIMALTRND
 40
0.0
  9
$DIMAZIN
 70
0
  9
$DIMDSEP
 70
44
  9
$DIMATFIT
 70
3
  9
$DIMFRAC
 70
0
  9
$DIMLDRBLK
  1

  9
$DIMLUNIT
 70
2
  9
$DIMLWD
 70
-2
  9
$DIMLWE
 70
-2
  9
$DIMTMOVE
 70
0
  9
$LUNITS
 70
2
  9
$LUPREC
 70
4
  9
$SKETCHINC
 40
1.0
  9
$FILLETRAD
 40
10.0
  9
$AUNITS
 70
0
  9
$AUPREC
 70
2
  9
$MENU
  1
.
  9
$ELEVATION
 40
0.0
  9
$PELEVATION
 40
0.0
  9
$THICKNESS
 40
0.0
  9
$LIMCHECK
 70
0
  9
$CHAMFERA
 40
0.0
  9
$CHAMFERB
 40
0.0
  9
$CHAMFERC
 40
0.0
  9
$CHAMFERD
 40
0.0
  9
$SKPOLY
 70
0
  9
$TDCREATE
 40
2461293.912916667
  9
$TDUCREATE
 40
2458532.153996898
  9
$TDUPDATE
 40
2461293.912916667
  9
$TDUUPDATE
 40
2458532.1544311
  9
$TDINDWG
 40
0.0
  9
$TDUSRTIMER
 40
0.0
  9
$USRTIMER
 70
1
  9
$ANGBASE
 50
0.0
  9
$ANGDIR
 70
0
  9
$PDMODE
 70
0
  9
$PDSIZE
 40
0.0
  9
$PLINEWID
 40
0.0
  9
$SPLFRAME
 70
0
  9
$SPLINETYPE
 70
6
  9
$SPLINESEGS
 70
8
  9
$HANDSEED
  5
114
  9
$SURFTAB1
 70
6
  9
$SURFTAB2
 70
6
  9
$SURFTYPE
 70
6
  9
$SURFU
 70
6
  9
$SURFV
 70
6
  9
$UCSBASE
  2

  9
$UCSNAME
  2

  9
$UCSORG
 10
0.0
 20
0.0
 30
0.0
  9
$UCSXDIR
 10
1.0
 20
0.0
 30
0.0
  9
$UCSYDIR
 10
0.0
 20
1.0
 30
0.0
  9
$UCSORTHOREF
  2

  9
$UCSORTHOVIEW
 70
0
  9
$UCSORGTOP
 10
0.0
 20
0.0
 30
0.0
  9
$UCSORGBOTTOM
 10
0.0
 20
0.0
 30
0.0
  9
$UCSORGLEFT
 10
0.0
 20
0.0
 30
0.0
  9
$UCSORGRIGHT
 10
0.0
 20
0.0
 30
0.0
  9
$UCSORGFRONT
 10
0.0
 20
0.0
 30
0.0
  9
$UCSORGBACK
 10
0.0
 20
0.0
 30
0.0
  9
$PUCSBASE
  2

  9
$PUCSNAME
  2

  9
$PUCSORG
 10
0.0
 20
0.0
 30
0.0
  9
$PUCSXDIR
 10
1.0
 20
0.0
 30
0.0
  9
$PUCSYDIR
 10
0.0
 20
1.0
 30
0.0
  9
$PUCSORTHOREF
  2

  9
$PUCSORTHOVIEW
 70
0
  9
$PUCSORGTOP
 10
0.0
 20
0.0
 30
0.0
  9
$PUCSORGBOTTOM
 10
0.0
 20
0.0
 30
0.0
  9
$PUCSORGLEFT
 10
0.0
 20
0.0
 30
0.0
  9
$PUCSORGRIGHT
 10
0.0
 20
0.0
 30
0.0
  9
$PUCSORGFRONT
 10
0.0
 20
0.0
 30
0.0
  9
$PUCSORGBACK
 10
0.0
 20
0.0
 30
0.0
  9
$USERI1
 70
0
  9
$USERI2
 70
0
  9
$USERI3
 70
0
  9
$USERI4
 70
0
  9
$USERI5
 70
0
  9
$USERR1
 40
0.0
  9
$USERR2
 40
0.0
  9
$USERR3
 40
0.0
  9
$USERR4
 40
0.0
  9
$USERR5
 40
0.0
  9
$WORLDVIEW
 70
1
  9
$SHADEDGE
 70
3
  9
$SHADEDIF
 70
70
  9
$TILEMODE
 70
1
  9
$MAXACTVP
 70
64
  9
$PINSBASE
 10
0.0
 20
0.0
 30
0.0
  9
$PLIMCHECK
 70
0
  9
$PEXTMIN
 10
1e+20
 20
1e+20
 30
1e+20
  9
$PEXTMAX
 10
-1e+20
 20
-1e+20
 30
-1e+20
  9
$PLIMMIN
 10
0.0
 20
0.0
  9
$PLIMMAX
 10
420.0
 20
297.0
  9
$UNITMODE
 70
0
  9
$VISRETAIN
 70
1
  9
$PLINEGEN
 70
0
  9
$PSLTSCALE
 70
1
  9
$TREEDEPTH
 70
3020
  9
$CMLSTYLE
  2
Standard
  9
$CMLJUST
 70
0
  9
$CMLSCALE
 40
20.0
  9
$PROXYGRAPHICS
 70
1
  9
$MEASUREMENT
 70
1
  9
$CELWEIGHT
370
-1
  9
$ENDCAPS
280
0
  9
$JOINSTYLE
280
0
  9
$LWDISPLAY
290
0
  9
$INSUNITS
 70
4
  9
$HYPERLINKBASE
  1

  9
$STYLESHEET
  1

  9
$XEDIT
290
1
  9
$CEPSNTYPE
380
0
  9
$PSTYLEMODE
290
1
  9
$FINGERPRINTGUID
  2
{BC70D9E4-E150-46E8-922A-772712CDF6D1}
  9
$VERSIONGUID
  2
{20B3F973-9EC2-46FB-8237-729E2E34CF8B}
  9
$EXTNAMES
290
1
  9
$PSVPSCALE
 40
0.0
  9
$OLESTARTUP
290
0
  0
ENDSEC
  0
SECTION
  2
CLASSES
  0
CLASS
  1
ACDBDICTIONARYWDFLT
  2
AcDbDictionaryWithDefault
  3
ObjectDBX Classes
 90
0
280
0
281
0
  0
CLASS
  1
SUN
  2
AcDbSun
  3
SCENEOE
 90
1153
280
0
281
0
  0
CLASS
  1
VISUALSTYLE
  2
AcDbVisualStyle
  3
ObjectDBX Classes
 90
4095
280
0
281
0
  0
CLASS
  1
MATERIAL
  2
AcDbMaterial
  3
ObjectDBX Classes
 90
1153
280
0
281
0
  0
CLASS
  1
SCALE
  2
AcDbScale
  3
ObjectDBX Classes
 90
1153
280
0
281
0
  0
CLASS
  1
TABLESTYLE
  2
AcDbTableStyle
  3
ObjectDBX Classes
 90
4095
280
0
281
0
  0
CLASS
  1
MLEADERSTYLE
  2
AcDbMLeaderStyle
  3
ACDB_MLEADERSTYLE_CLASS
 90
4095
280
0
281
0
  0
CLASS
  1
DICTIONARYVAR
  2
AcDbDictionaryVar
  3
ObjectDBX Classes
 90
0
280
0
281
0
  0
CLASS
  1
CELLSTYLEMAP
  2
AcDbCellStyleMap
  3
ObjectDBX Classes
 90
1152
280
0
281
0
  0
CLASS
  1
MENTALRAYRENDERSETTINGS
  2
AcDbMentalRayRenderSettings
  3
SCENEOE
 90
1024
280
0
281
0
  0
CLASS
  1
ACDBDETAILVIEWSTYLE
  2
AcDbDetailViewStyle
  3
ObjectDBX Classes
 90
1025
280
0
281
0
  0
CLASS
  1
ACDBSECTIONVIEWSTYLE
  2
AcDbSectionViewStyle
  3
ObjectDBX Classes
 90
1025
280
0
281
0
  0
CLASS
  1
RASTERVARIABLES
  2
AcDbRasterVariables
  3
ISM
 90
0
280
0
281
0
  0
CLASS
  1
ACDBPLACEHOLDER
  2
AcDbPlaceHolder
  3
ObjectDBX Classes
 90
0
280
0
281
0
  0
CLASS
  1
LAYOUT
  2
AcDbLayout
  3
ObjectDBX Classes
 90
0
280
0
281
0
  0
ENDSEC
  0
SECTION
  2
TABLES
  0
TABLE
  2
VPORT
  5
8
330
0
100
AcDbSymbolTable
 70
1
  0
VPORT
  5
23
330
8
100
AcDbSymbolTableRecord
100
AcDbViewportTableRecord
  2
*Active
 70
0
 10
0.0
 20
0.0
 11
1.0
 21
1.0
 12
0.0
 22
0.0
 13
0.0
 23
0.0
 14
0.5
 24
0.5
 15
0.5
 25
0.5
 16
0.0
 26
0.0
 36
1.0
 17
0.0
 27
0.0
 37
0.0
 40
1000.0
 41
1.34
 42
50.0
 43
0.0
 44
0.0
 50
0.0
 51
0.0
 71
0
 72
1000
 73
1
 74
3
 75
0
 76
0
 77
0
 78
0
281
0
 65
0
146
0.0
  0
ENDTAB
  0
TABLE
  2
LTYPE
  5
2
330
0
100
AcDbSymbolTable
 70
3
  0
LTYPE
  5
24
330
2
100
AcDbSymbolTableRecord
100
AcDbLinetypeTableRecord
  2
ByBlock
 70
0
  3

 72
65
 73
0
 40
0.0
  0
LTYPE
  5
25
330
2
100
AcDbSymbolTableRecord
100
AcDbLinetypeTableRecord
  2
ByLayer
 70
0
  3

 72
65
 73
0
 40
0.0
  0
LTYPE
  5
26
330
2
100
AcDbSymbolTableRecord
100
AcDbLinetypeTableRecord
  2
Continuous
 70
0
  3

 72
65
 73
0
 40
0.0
  0
ENDTAB
  0
TABLE
  2
LAYER
  5
1
330
0
100
AcDbSymbolTable
 70
6
  0
LAYER
  5
27
330
1
100
AcDbSymbolTableRecord
100
AcDbLayerTableRecord
  2
0
 70
0
 62
7
  6
Continuous
370
-3
390
13
  0
LAYER
  5
28
330
1
100
AcDbSymbolTableRecord
100
AcDbLayerTableRecord
  2
Defpoints
 70
0
 62
7
  6
Continuous
290
0
370
-3
390
13
  0
LAYER
  5
2F
330
1
100
AcDbSymbolTableRecord
100
AcDbLayerTableRecord
  2
OUTLINE
 70
0
 62
7
  6
Continuous
370
-3
390
13
  0
LAYER
  5
30
330
1
100
AcDbSymbolTableRecord
100
AcDbLayerTableRecord
  2
HIDDEN
 70
0
 62
8
  6
Continuous
370
-3
390
13
  0
LAYER
  5
31
330
1
100
AcDbSymbolTableRecord
100
AcDbLayerTableRecord
  2
DIM
 70
0
 62
4
  6
Continuous
370
-3
390
13
  0
LAYER
  5
32
330
1
100
AcDbSymbolTableRecord
100
AcDbLayerTableRecord
  2
TEXT
 70
0
 62
7
  6
Continuous
370
-3
390
13
  0
ENDTAB
  0
TABLE
  2
STYLE
  5
5
330
0
100
AcDbSymbolTable
 70
1
  0
STYLE
  5
29
330
5
100
AcDbSymbolTableRecord
100
AcDbTextStyleTableRecord
  2
Standard
 70
0
 40
0.0
 41
1.0
 50
0.0
 71
0
 42
2.5
  3
txt
  4

  0
ENDTAB
  0
TABLE
  2
VIEW
  5
7
330
0
100
AcDbSymbolTable
 70
0
  0
ENDTAB
  0
TABLE
  2
UCS
  5
6
330
0
100
AcDbSymbolTable
 70
0
  0
ENDTAB
  0
TABLE
  2
APPID
  5
3
330
0
100
AcDbSymbolTable
 70
3
  0
APPID
  5
2A
330
3
100
AcDbSymbolTableRecord
100
AcDbRegAppTableRecord
  2
ACAD
 70
0
  0
APPID
  5
111
330
3
100
AcDbSymbolTableRecord
100
AcDbRegAppTableRecord
  2
HATCHBACKGROUNDCOLOR
 70
0
  0
APPID
  5
112
330
3
100
AcDbSymbolTableRecord
100
AcDbRegAppTableRecord
  2
EZDXF
 70
0
  0
ENDTAB
  0
TABLE
  2
DIMSTYLE
  5
4
330
0
100
AcDbSymbolTable
 70
1
100
AcDbDimStyleTable
  0
DIMSTYLE
105
2B
330
4
100
AcDbSymbolTableRecord
100
AcDbDimStyleTableRecord
  2
Standard
 70
0
  3

  4

 40
1.0
 41
2.5
 42
0.625
 43
3.75
 44
1.25
 45
0.0
 46
0.0
 47
0.0
 48
0.0
140
2.5
141
2.5
142
0.0
143
0.03937007874
144
1.0
145
0.0
146
1.0
147
0.625
148
0.0
 71
0
 72
0
 73
0
 74
0
 75
0
 76
0
 77
1
 78
8
 79
3
170
0
171
3
172
1
173
0
174
0
175
0
176
0
177
0
178
0
179
2
271
2
272
2
273
2
274
3
275
0
276
0
277
2
278
44
279
0
280
0
281
0
282
0
283
0
284
8
285
0
286
0
288
0
289
3
371
-2
372
-2
  0
ENDTAB
  0
TABLE
  2
BLOCK_RECORD
  5
9
330
0
100
AcDbSymbolTable
 70
2
  0
BLOCK_RECORD
  5
17
330
9
100
AcDbSymbolTableRecord
100
AcDbBlockTableRecord
  2
*Model_Space
340
1A
  0
BLOCK_RECORD
  5
1B
330
9
100
AcDbSymbolTableRecord
100
AcDbBlockTableRecord
  2
*Paper_Space
340
1E
  0
ENDTAB
  0
ENDSEC
  0
SECTION
  2
BLOCKS
  0
BLOCK
  5
18
330
17
100
AcDbEntity
  8
0
100
AcDbBlockBegin
  2
*Model_Space
 70
0
 10
0.0
 20
0.0
 30
0.0
  3
*Model_Space
  1

  0
ENDBLK
  5
19
330
17
100
AcDbEntity
  8
0
100
AcDbBlockEnd
  0
BLOCK
  5
1C
330
1B
100
AcDbEntity
  8
0
100
AcDbBlockBegin
  2
*Paper_Space
 70
0
 10
0.0
 20
0.0
 30
0.0
  3
*Paper_Space
  1

  0
ENDBLK
  5
1D
330
1B
100
AcDbEntity
  8
0
100
AcDbBlockEnd
  0
ENDSEC
  0
SECTION
  2
ENTITIES
  0
LWPOLYLINE
  5
33
330
17
100
AcDbEntity
  8
OUTLINE
100
AcDbPolyline
 90
5
 70
0
 10
8.0
 20
8.0
 10
412.0
 20
8.0
 10
412.0
 20
289.0
 10
8.0
 20
289.0
 10
8.0
 20
8.0
  0
TEXT
  5
34
330
17
100
AcDbEntity
  8
TEXT
100
AcDbText
 10
15.0
 20
278.0
 30
0.0
 40
5.0
  1
P05  |  P05 SPACER 3MM
100
AcDbText
  0
TEXT
  5
35
330
17
100
AcDbEntity
  8
TEXT
100
AcDbText
 10
15.0
 20
270.0
 30
0.0
 40
2.6
  1
Prototype Rev A | Units mm | Dimensions control; do not scale printed pages
100
AcDbText
  0
LWPOLYLINE
  5
36
330
17
100
AcDbEntity
  8
OUTLINE
100
AcDbPolyline
 90
2
 70
0
 10
8.0
 20
32.0
 10
412.0
 20
32.0
  0
TEXT
  5
37
330
17
100
AcDbEntity
  8
TEXT
100
AcDbText
 10
15.0
 20
22.0
 30
0.0
 40
3.0
  1
HF-01  /  MAGNET-SENSOR CHARACTERIZATION
100
AcDbText
  0
TEXT
  5
38
330
17
100
AcDbEntity
  8
TEXT
100
AcDbText
 10
15.0
 20
15.0
 30
0.0
 40
2.4
  1
REV A  |  2026-09-09  |  Printed parts + McMaster COTS  |  Room-temperature bench prototype
100
AcDbText
  0
TEXT
  5
39
330
17
100
AcDbEntity
  8
TEXT
100
AcDbText
 10
332.0
 20
20.0
 30
0.0
 40
3.0
  1
P05  |  A3  |  MM
100
AcDbText
  0
LWPOLYLINE
  5
3A
330
17
100
AcDbEntity
  8
HIDDEN
100
AcDbPolyline
 90
2
 70
0
 10
103.6470588235294
 20
172.0
 10
103.6470588235294
 20
183.1764705882353
  0
LWPOLYLINE
  5
3B
330
17
100
AcDbEntity
  8
HIDDEN
100
AcDbPolyline
 90
2
 70
0
 10
103.6470588235294
 20
183.1764705882353
 10
103.6470588235294
 20
190.3294117647059
  0
LWPOLYLINE
  5
3C
330
17
100
AcDbEntity
  8
HIDDEN
100
AcDbPolyline
 90
2
 70
0
 10
103.6470588235294
 20
193.90588235294118
 10
103.6470588235294
 20
190.3294117647059
  0
LWPOLYLINE
  5
3D
330
17
100
AcDbEntity
  8
HIDDEN
100
AcDbPolyline
 90
2
 70
0
 10
103.6470588235294
 20
193.90588235294115
 10
103.6470588235294
 20
226.09411764705885
  0
LWPOLYLINE
  5
3E
330
17
100
AcDbEntity
  8
HIDDEN
100
AcDbPolyline
 90
2
 70
0
 10
103.6470588235294
 20
229.6705882352941
 10
103.6470588235294
 20
226.09411764705882
  0
LWPOLYLINE
  5
3F
330
17
100
AcDbEntity
  8
HIDDEN
100
AcDbPolyline
 90
2
 70
0
 10
103.6470588235294
 20
229.6705882352941
 10
103.6470588235294
 20
236.8235294117647
  0
LWPOLYLINE
  5
40
330
17
100
AcDbEntity
  8
HIDDEN
100
AcDbPolyline
 90
2
 70
0
 10
103.6470588235294
 20
236.8235294117647
 10
103.6470588235294
 20
248.0
  0
LWPOLYLINE
  5
41
330
17
100
AcDbEntity
  8
HIDDEN
100
AcDbPolyline
 90
15
 70
0
 10
103.6470588235294
 20
241.29411764705884
 10
103.6470588235294
 20
240.86865263786626
 10
103.6470588235294
 20
240.44853809802484
 10
103.6470588235294
 20
240.0390572116292
 10
103.6470588235294
 20
239.6453594384121
 10
103.6470588235294
 20
239.27239575630054
 10
103.6470588235294
 20
238.92485639999563
 10
103.6470588235294
 20
238.60711187854994
 10
103.6470588235294
 20
238.3231580136803
 10
103.6470588235294
 20
238.07656568999136
 10
103.6470588235294
 20
237.87043594902963
 10
103.6470588235294
 20
237.70736099188701
 10
103.6470588235294
 20
237.58939158076788
 10
103.6470588235294
 20
237.5180112494645
 10
103.6470588235294
 20
237.49411764705883
  0
LWPOLYLINE
  5
42
330
17
100
AcDbEntity
  8
HIDDEN
100
AcDbPolyline
 90
15
 70
0
 10
103.6470588235294
 20
237.49411764705883
 10
103.6470588235294
 20
237.58939158076788
 10
103.6470588235294
 20
237.87043594902963
 10
103.6470588235294
 20
238.3231580136803
 10
103.6470588235294
 20
238.92485639999563
 10
103.6470588235294
 20
239.6453594384121
 10
103.6470588235294
 20
240.44853809802484
 10
103.6470588235294
 20
241.29411764705884
 10
103.6470588235294
 20
242.1396971960928
 10
103.6470588235294
 20
242.94287585570555
 10
103.6470588235294
 20
243.66337889412202
 10
103.6470588235294
 20
244.26507728043734
 10
103.6470588235294
 20
244.71779934508803
 10
103.6470588235294
 20
244.99884371334974
 10
103.6470588235294
 20
245.09411764705882
  0
LWPOLYLINE
  5
43
330
17
100
AcDbEntity
  8
HIDDEN
100
AcDbPolyline
 90
15
 70
0
 10
103.6470588235294
 20
245.09411764705882
 10
103.6470588235294
 20
245.07022404465314
 10
103.6470588235294
 20
244.99884371334974
 10
103.6470588235294
 20
244.8808743022306
 10
103.6470588235294
 20
244.71779934508803
 10
103.6470588235294
 20
244.5116696041263
 10
103.6470588235294
 20
244.26507728043734
 10
103.6470588235294
 20
243.9811234155677
 10
103.6470588235294
 20
243.66337889412202
 10
103.6470588235294
 20
243.3158395378171
 10
103.6470588235294
 20
242.94287585570555
 10
103.6470588235294
 20
242.54917808248845
 10
103.6470588235294
 20
242.1396971960928
 10
103.6470588235294
 20
241.7195826562514
 10
103.6470588235294
 20
241.29411764705884
  0
LWPOLYLINE
  5
44
330
17
100
AcDbEntity
  8
HIDDEN
100
AcDbPolyline
 90
15
 70
0
 10
103.6470588235294
 20
178.70588235294116
 10
103.6470588235294
 20
178.2804173437486
 10
103.6470588235294
 20
177.8603028039072
 10
103.6470588235294
 20
177.45082191751155
 10
103.6470588235294
 20
177.05712414429445
 10
103.6470588235294
 20
176.6841604621829
 10
103.6470588235294
 20
176.33662110587798
 10
103.6470588235294
 20
176.0188765844323
 10
103.6470588235294
 20
175.73492271956266
 10
103.6470588235294
 20
175.4883303958737
 10
103.6470588235294
 20
175.28220065491197
 10
103.6470588235294
 20
175.1191256977694
 10
103.6470588235294
 20
175.00115628665026
 10
103.6470588235294
 20
174.92977595534686
 10
103.6470588235294
 20
174.90588235294118
  0
LWPOLYLINE
  5
45
330
17
100
AcDbEntity
  8
HIDDEN
100
AcDbPolyline
 90
15
 70
0
 10
103.6470588235294
 20
174.90588235294118
 10
103.6470588235294
 20
175.00115628665026
 10
103.6470588235294
 20
175.28220065491197
 10
103.6470588235294
 20
175.73492271956266
 10
103.6470588235294
 20
176.33662110587798
 10
103.6470588235294
 20
177.05712414429445
 10
103.6470588235294
 20
177.8603028039072
 10
103.6470588235294
 20
178.70588235294116
 10
103.6470588235294
 20
179.55146190197516
 10
103.6470588235294
 20
180.3546405615879
 10
103.6470588235294
 20
181.07514360000437
 10
103.6470588235294
 20
181.6768419863197
 10
103.6470588235294
 20
182.12956405097037
 10
103.6470588235294
 20
182.41060841923212
 10
103.6470588235294
 20
182.50588235294117
  0
LWPOLYLINE
  5
46
330
17
100
AcDbEntity
  8
HIDDEN
100
AcDbPolyline
 90
15
 70
0
 10
103.6470588235294
 20
182.50588235294117
 10
103.6470588235294
 20
182.4819887505355
 10
103.6470588235294
 20
182.41060841923212
 10
103.6470588235294
 20
182.29263900811299
 10
103.6470588235294
 20
182.12956405097037
 10
103.6470588235294
 20
181.92343431000864
 10
103.6470588235294
 20
181.6768419863197
 10
103.6470588235294
 20
181.39288812145006
 10
103.6470588235294
 20
181.07514360000437
 10
103.6470588235294
 20
180.72760424369946
 10
103.6470588235294
 20
180.3546405615879
 10
103.6470588235294
 20
179.9609427883708
 10
103.6470588235294
 20
179.55146190197516
 10
103.6470588235294
 20
179.13134736213374
 10
103.6470588235294
 20
178.70588235294122
  0
LWPOLYLINE
  5
47
330
17
100
AcDbEntity
  8
HIDDEN
100
AcDbPolyline
 90
2
 70
0
 10
103.6470588235294
 20
172.0
 10
110.3529411764706
 20
172.0
  0
LWPOLYLINE
  5
48
330
17
100
AcDbEntity
  8
HIDDEN
100
AcDbPolyline
 90
2
 70
0
 10
103.6470588235294
 20
183.1764705882353
 10
110.3529411764706
 20
183.1764705882353
  0
LWPOLYLINE
  5
49
330
17
100
AcDbEntity
  8
HIDDEN
100
AcDbPolyline
 90
2
 70
0
 10
110.3529411764706
 20
172.0
 10
110.3529411764706
 20
183.1764705882353
  0
LWPOLYLINE
  5
4A
330
17
100
AcDbEntity
  8
HIDDEN
100
AcDbPolyline
 90
2
 70
0
 10
103.6470588235294
 20
248.0
 10
110.3529411764706
 20
248.0
  0
LWPOLYLINE
  5
4B
330
17
100
AcDbEntity
  8
HIDDEN
100
AcDbPolyline
 90
2
 70
0
 10
110.3529411764706
 20
236.8235294117647
 10
110.3529411764706
 20
248.0
  0
LWPOLYLINE
  5
4C
330
17
100
AcDbEntity
  8
HIDDEN
100
AcDbPolyline
 90
2
 70
0
 10
103.6470588235294
 20
236.8235294117647
 10
110.3529411764706
 20
236.8235294117647
  0
LWPOLYLINE
  5
4D
330
17
100
AcDbEntity
  8
HIDDEN
100
AcDbPolyline
 90
15
 70
0
 10
110.3529411764706
 20
241.29411764705884
 10
110.3529411764706
 20
240.86865263786626
 10
110.3529411764706
 20
240.44853809802484
 10
110.3529411764706
 20
240.0390572116292
 10
110.3529411764706
 20
239.6453594384121
 10
110.3529411764706
 20
239.27239575630054
 10
110.3529411764706
 20
238.92485639999563
 10
110.3529411764706
 20
238.60711187854994
 10
110.3529411764706
 20
238.3231580136803
 10
110.3529411764706
 20
238.07656568999136
 10
110.3529411764706
 20
237.87043594902963
 10
110.3529411764706
 20
237.70736099188701
 10
110.3529411764706
 20
237.58939158076788
 10
110.3529411764706
 20
237.5180112494645
 10
110.3529411764706
 20
237.49411764705883
  0
LWPOLYLINE
  5
4E
330
17
100
AcDbEntity
  8
HIDDEN
100
AcDbPolyline
 90
15
 70
0
 10
110.3529411764706
 20
237.49411764705883
 10
110.3529411764706
 20
237.58939158076788
 10
110.3529411764706
 20
237.87043594902963
 10
110.3529411764706
 20
238.3231580136803
 10
110.3529411764706
 20
238.92485639999563
 10
110.3529411764706
 20
239.6453594384121
 10
110.3529411764706
 20
240.44853809802484
 10
110.3529411764706
 20
241.29411764705884
 10
110.3529411764706
 20
242.1396971960928
 10
110.3529411764706
 20
242.94287585570555
 10
110.3529411764706
 20
243.66337889412202
 10
110.3529411764706
 20
244.26507728043734
 10
110.3529411764706
 20
244.71779934508803
 10
110.3529411764706
 20
244.99884371334974
 10
110.3529411764706
 20
245.09411764705882
  0
LWPOLYLINE
  5
4F
330
17
100
AcDbEntity
  8
HIDDEN
100
AcDbPolyline
 90
15
 70
0
 10
110.3529411764706
 20
245.09411764705882
 10
110.3529411764706
 20
245.07022404465314
 10
110.3529411764706
 20
244.99884371334974
 10
110.3529411764706
 20
244.8808743022306
 10
110.3529411764706
 20
244.71779934508803
 10
110.3529411764706
 20
244.5116696041263
 10
110.3529411764706
 20
244.26507728043734
 10
110.3529411764706
 20
243.9811234155677
 10
110.3529411764706
 20
243.66337889412202
 10
110.3529411764706
 20
243.3158395378171
 10
110.3529411764706
 20
242.94287585570555
 10
110.3529411764706
 20
242.54917808248845
 10
110.3529411764706
 20
242.1396971960928
 10
110.3529411764706
 20
241.7195826562514
 10
110.3529411764706
 20
241.29411764705884
  0
LWPOLYLINE
  5
50
330
17
100
AcDbEntity
  8
HIDDEN
100
AcDbPolyline
 90
15
 70
0
 10
110.3529411764706
 20
178.70588235294116
 10
110.3529411764706
 20
178.2804173437486
 10
110.3529411764706
 20
177.8603028039072
 10
110.3529411764706
 20
177.45082191751155
 10
110.3529411764706
 20
177.05712414429445
 10
110.3529411764706
 20
176.6841604621829
 10
110.3529411764706
 20
176.33662110587798
 10
110.3529411764706
 20
176.0188765844323
 10
110.3529411764706
 20
175.73492271956266
 10
110.3529411764706
 20
175.4883303958737
 10
110.3529411764706
 20
175.28220065491197
 10
110.3529411764706
 20
175.1191256977694
 10
110.3529411764706
 20
175.00115628665026
 10
110.3529411764706
 20
174.92977595534686
 10
110.3529411764706
 20
174.90588235294118
  0
LWPOLYLINE
  5
51
330
17
100
AcDbEntity
  8
HIDDEN
100
AcDbPolyline
 90
15
 70
0
 10
110.3529411764706
 20
174.90588235294118
 10
110.3529411764706
 20
175.00115628665026
 10
110.3529411764706
 20
175.28220065491197
 10
110.3529411764706
 20
175.73492271956266
 10
110.3529411764706
 20
176.33662110587798
 10
110.3529411764706
 20
177.05712414429445
 10
110.3529411764706
 20
177.8603028039072
 10
110.3529411764706
 20
178.70588235294116
 10
110.3529411764706
 20
179.55146190197516
 10
110.3529411764706
 20
180.3546405615879
 10
110.3529411764706
 20
181.07514360000437
 10
110.3529411764706
 20
181.6768419863197
 10
110.3529411764706
 20
182.12956405097037
 10
110.3529411764706
 20
182.41060841923212
 10
110.3529411764706
 20
182.50588235294117
  0
LWPOLYLINE
  5
52
330
17
100
AcDbEntity
  8
HIDDEN
100
AcDbPolyline
 90
15
 70
0
 10
110.3529411764706
 20
182.50588235294117
 10
110.3529411764706
 20
182.4819887505355
 10
110.3529411764706
 20
182.41060841923212
 10
110.3529411764706
 20
182.29263900811299
 10
110.3529411764706
 20
182.12956405097037
 10
110.3529411764706
 20
181.92343431000864
 10
110.3529411764706
 20
181.6768419863197
 10
110.3529411764706
 20
181.39288812145006
 10
110.3529411764706
 20
181.07514360000437
 10
110.3529411764706
 20
180.72760424369946
 10
110.3529411764706
 20
180.3546405615879
 10
110.3529411764706
 20
179.9609427883708
 10
110.3529411764706
 20
179.55146190197516
 10
110.3529411764706
 20
179.13134736213374
 10
110.3529411764706
 20
178.70588235294122
  0
LWPOLYLINE
  5
53
330
17
100
AcDbEntity
  8
HIDDEN
100
AcDbPolyline
 90
2
 70
0
 10
110.3529411764706
 20
183.1764705882353
 10
110.3529411764706
 20
190.3294117647059
  0
LWPOLYLINE
  5
54
330
17
100
AcDbEntity
  8
HIDDEN
100
AcDbPolyline
 90
2
 70
0
 10
110.3529411764706
 20
193.90588235294118
 10
110.3529411764706
 20
190.32941176470587
  0
LWPOLYLINE
  5
55
330
17
100
AcDbEntity
  8
HIDDEN
100
AcDbPolyline
 90
2
 70
0
 10
110.3529411764706
 20
193.90588235294115
 10
110.3529411764706
 20
226.09411764705885
  0
LWPOLYLINE
  5
56
330
17
100
AcDbEntity
  8
HIDDEN
100
AcDbPolyline
 90
2
 70
0
 10
110.3529411764706
 20
229.67058823529413
 10
110.3529411764706
 20
226.09411764705882
  0
LWPOLYLINE
  5
57
330
17
100
AcDbEntity
  8
HIDDEN
100
AcDbPolyline
 90
2
 70
0
 10
110.3529411764706
 20
229.6705882352941
 10
110.3529411764706
 20
236.8235294117647
  0
LWPOLYLINE
  5
58
330
17
100
AcDbEntity
  8
HIDDEN
100
AcDbPolyline
 90
2
 70
0
 10
89.11764705882354
 20
183.1764705882353
 10
124.88235294117646
 20
183.1764705882353
  0
LWPOLYLINE
  5
59
330
17
100
AcDbEntity
  8
HIDDEN
100
AcDbPolyline
 90
2
 70
0
 10
89.11764705882354
 20
236.8235294117647
 10
124.88235294117646
 20
236.8235294117647
  0
LWPOLYLINE
  5
5A
330
17
100
AcDbEntity
  8
HIDDEN
100
AcDbPolyline
 90
9
 70
0
 10
110.3529411764706
 20
229.67058823529413
 10
109.75393941284592
 20
230.50071458739225
 10
108.9550838706246
 20
231.14082605888413
 10
108.01434761120409
 20
231.54446966837736
 10
107.0
 20
231.68235294117648
 10
105.98565238879591
 20
231.54446966837736
 10
105.0449161293754
 20
231.14082605888413
 10
104.24606058715408
 20
230.50071458739225
 10
103.6470588235294
 20
229.6705882352941
  0
LWPOLYLINE
  5
5B
330
17
100
AcDbEntity
  8
HIDDEN
100
AcDbPolyline
 90
9
 70
0
 10
103.6470588235294
 20
226.09411764705882
 10
104.24606058715408
 20
225.26399129496068
 10
105.0449161293754
 20
224.6238798234688
 10
105.98565238879591
 20
224.22023621397557
 10
107.0
 20
224.08235294117648
 10
108.01434761120407
 20
224.22023621397557
 10
108.95508387062459
 20
224.6238798234688
 10
109.75393941284592
 20
225.26399129496068
 10
110.35294117647058
 20
226.09411764705882
  0
LWPOLYLINE
  5
5C
330
17
100
AcDbEntity
  8
HIDDEN
100
AcDbPolyline
 90
22
 70
0
 10
110.8
 20
227.88235294117646
 10
110.63117666198734
 20
229.0024226039379
 10
110.13970734240078
 20
230.02296916181822
 10
109.36926124706319
 20
230.853312574555
 10
108.3882958925923
 20
231.41967318602445
 10
107.28397435562842
 20
231.67172737046496
 10
106.154420450966
 20
231.5870790074674
 10
105.1
 20
231.17324947555733
 10
104.21440288704666
 20
230.46700934470596
 10
103.5763183019708
 20
229.5311111498232
 10
103.24244286034451
 20
228.44871355264593
 10
103.24244286034451
 20
227.315992329707
 10
103.5763183019708
 20
226.23359473252975
 10
104.21440288704666
 20
225.29769653764697
 10
105.1
 20
224.5914564067956
 10
106.154420450966
 20
224.17762687488553
 10
107.28397435562842
 20
224.092978511888
 10
108.3882958925923
 20
224.3450326963285
 10
109.36926124706319
 20
224.91139330779797
 10
110.13970734240078
 20
225.7417367205347
 10
110.63117666198734
 20
226.76228327841505
 10
110.8
 20
227.88235294117646
  0
LWPOLYLINE
  5
5D
330
17
100
AcDbEntity
  8
HIDDEN
100
AcDbPolyline
 90
9
 70
0
 10
110.3529411764706
 20
193.90588235294118
 10
109.75393941284592
 20
194.73600870503932
 10
108.9550838706246
 20
195.3761201765312
 10
108.01434761120409
 20
195.77976378602443
 10
107.0
 20
195.91764705882352
 10
105.98565238879591
 20
195.77976378602443
 10
105.0449161293754
 20
195.3761201765312
 10
104.24606058715408
 20
194.73600870503932
 10
103.6470588235294
 20
193.90588235294118
  0
LWPOLYLINE
  5
5E
330
17
100
AcDbEntity
  8
HIDDEN
100
AcDbPolyline
 90
9
 70
0
 10
103.6470588235294
 20
190.3294117647059
 10
104.24606058715408
 20
189.49928541260775
 10
105.0449161293754
 20
188.85917394111587
 10
105.98565238879591
 20
188.45553033162264
 10
107.0
 20
188.31764705882352
 10
108.01434761120407
 20
188.45553033162264
 10
108.95508387062459
 20
188.85917394111587
 10
109.75393941284592
 20
189.49928541260775
 10
110.35294117647058
 20
190.32941176470587
  0
LWPOLYLINE
  5
5F
330
17
100
AcDbEntity
  8
HIDDEN
100
AcDbPolyline
 90
22
 70
0
 10
110.8
 20
192.11764705882354
 10
110.63117666198734
 20
193.23771672158497
 10
110.13970734240078
 20
194.2582632794653
 10
109.36926124706319
 20
195.08860669220203
 10
108.3882958925923
 20
195.6549673036715
 10
107.28397435562842
 20
195.907021488112
 10
106.154420450966
 20
195.82237312511447
 10
105.1
 20
195.4085435932044
 10
104.21440288704666
 20
194.70230346235303
 10
103.5763183019708
 20
193.76640526747025
 10
103.24244286034451
 20
192.684007670293
 10
103.24244286034451
 20
191.55128644735407
 10
103.5763183019708
 20
190.46888885017682
 10
104.21440288704666
 20
189.53299065529404
 10
105.1
 20
188.82675052444267
 10
106.154420450966
 20
188.4129209925326
 10
107.28397435562842
 20
188.32827262953504
 10
108.3882958925923
 20
188.58032681397555
 10
109.36926124706319
 20
189.146687425445
 10
110.13970734240078
 20
189.97703083818178
 10
110.63117666198734
 20
190.9975773960621
 10
110.8
 20
192.11764705882354
  0
LWPOLYLINE
  5
60
330
17
100
AcDbEntity
  8
HIDDEN
100
AcDbPolyline
 90
2
 70
0
 10
89.11764705882354
 20
183.1764705882353
 10
89.11764705882354
 20
236.8235294117647
  0
LWPOLYLINE
  5
61
330
17
100
AcDbEntity
  8
HIDDEN
100
AcDbPolyline
 90
2
 70
0
 10
124.88235294117646
 20
183.1764705882353
 10
124.88235294117646
 20
236.8235294117647
  0
LWPOLYLINE
  5
62
330
17
100
AcDbEntity
  8
HIDDEN
100
AcDbPolyline
 90
2
 70
0
 10
103.6470588235294
 20
237.49411764705883
 10
110.3529411764706
 20
237.49411764705883
  0
LWPOLYLINE
  5
63
330
17
100
AcDbEntity
  8
HIDDEN
100
AcDbPolyline
 90
2
 70
0
 10
103.6470588235294
 20
245.09411764705882
 10
110.3529411764706
 20
245.09411764705882
  0
LWPOLYLINE
  5
64
330
17
100
AcDbEntity
  8
HIDDEN
100
AcDbPolyline
 90
2
 70
0
 10
103.6470588235294
 20
174.90588235294118
 10
110.3529411764706
 20
174.90588235294118
  0
LWPOLYLINE
  5
65
330
17
100
AcDbEntity
  8
HIDDEN
100
AcDbPolyline
 90
2
 70
0
 10
103.6470588235294
 20
182.50588235294117
 10
110.3529411764706
 20
182.50588235294117
  0
LWPOLYLINE
  5
66
330
17
100
AcDbEntity
  8
OUTLINE
100
AcDbPolyline
 90
2
 70
0
 10
103.6470588235294
 20
172.0
 10
103.6470588235294
 20
248.0
  0
LWPOLYLINE
  5
67
330
17
100
AcDbEntity
  8
OUTLINE
100
AcDbPolyline
 90
2
 70
0
 10
103.6470588235294
 20
172.0
 10
110.3529411764706
 20
172.0
  0
LWPOLYLINE
  5
68
330
17
100
AcDbEntity
  8
OUTLINE
100
AcDbPolyline
 90
2
 70
0
 10
103.6470588235294
 20
248.0
 10
110.3529411764706
 20
248.0
  0
LWPOLYLINE
  5
69
330
17
100
AcDbEntity
  8
OUTLINE
100
AcDbPolyline
 90
2
 70
0
 10
110.3529411764706
 20
172.0
 10
110.3529411764706
 20
248.0
  0
LWPOLYLINE
  5
6A
330
17
100
AcDbEntity
  8
OUTLINE
100
AcDbPolyline
 90
2
 70
0
 10
110.3529411764706
 20
183.1764705882353
 10
124.88235294117646
 20
183.1764705882353
  0
LWPOLYLINE
  5
6B
330
17
100
AcDbEntity
  8
OUTLINE
100
AcDbPolyline
 90
2
 70
0
 10
89.11764705882354
 20
183.1764705882353
 10
103.6470588235294
 20
183.1764705882353
  0
LWPOLYLINE
  5
6C
330
17
100
AcDbEntity
  8
OUTLINE
100
AcDbPolyline
 90
2
 70
0
 10
110.3529411764706
 20
236.8235294117647
 10
124.88235294117646
 20
236.8235294117647
  0
LWPOLYLINE
  5
6D
330
17
100
AcDbEntity
  8
OUTLINE
100
AcDbPolyline
 90
2
 70
0
 10
89.11764705882354
 20
236.8235294117647
 10
103.6470588235294
 20
236.8235294117647
  0
LWPOLYLINE
  5
6E
330
17
100
AcDbEntity
  8
OUTLINE
100
AcDbPolyline
 90
5
 70
0
 10
103.6470588235294
 20
229.6705882352941
 10
103.31345849944773
 20
228.80398831631453
 10
103.2
 20
227.88235294117646
 10
103.31345849944773
 20
226.96071756603843
 10
103.6470588235294
 20
226.09411764705885
  0
LWPOLYLINE
  5
6F
330
17
100
AcDbEntity
  8
OUTLINE
100
AcDbPolyline
 90
5
 70
0
 10
103.6470588235294
 20
193.90588235294115
 10
103.31345849944773
 20
193.03928243396157
 10
103.2
 20
192.11764705882354
 10
103.31345849944773
 20
191.19601168368547
 10
103.6470588235294
 20
190.3294117647059
  0
LWPOLYLINE
  5
70
330
17
100
AcDbEntity
  8
OUTLINE
100
AcDbPolyline
 90
2
 70
0
 10
89.11764705882354
 20
183.1764705882353
 10
89.11764705882354
 20
236.8235294117647
  0
LWPOLYLINE
  5
71
330
17
100
AcDbEntity
  8
OUTLINE
100
AcDbPolyline
 90
3
 70
0
 10
110.3529411764706
 20
226.09411764705885
 10
110.68654150055227
 20
226.96071756603843
 10
110.8
 20
227.88235294117646
  0
LWPOLYLINE
  5
72
330
17
100
AcDbEntity
  8
OUTLINE
100
AcDbPolyline
 90
3
 70
0
 10
110.8
 20
227.88235294117646
 10
110.68654150055227
 20
228.80398831631453
 10
110.3529411764706
 20
229.6705882352941
  0
LWPOLYLINE
  5
73
330
17
100
AcDbEntity
  8
OUTLINE
100
AcDbPolyline
 90
3
 70
0
 10
110.3529411764706
 20
190.3294117647059
 10
110.68654150055227
 20
191.19601168368547
 10
110.8
 20
192.11764705882354
  0
LWPOLYLINE
  5
74
330
17
100
AcDbEntity
  8
OUTLINE
100
AcDbPolyline
 90
3
 70
0
 10
110.8
 20
192.11764705882354
 10
110.68654150055227
 20
193.03928243396157
 10
110.3529411764706
 20
193.90588235294115
  0
LWPOLYLINE
  5
75
330
17
100
AcDbEntity
  8
OUTLINE
100
AcDbPolyline
 90
2
 70
0
 10
124.88235294117646
 20
183.1764705882353
 10
124.88235294117646
 20
236.8235294117647
  0
TEXT
  5
76
330
17
100
AcDbEntity
  8
TEXT
100
AcDbText
 10
22.0
 20
165.0
 30
0.0
 40
2.6
  1
TOP  (view scale 2.24:1)
100
AcDbText
  0
LWPOLYLINE
  5
77
330
17
100
AcDbEntity
  8
HIDDEN
100
AcDbPolyline
 90
2
 70
0
 10
103.78571428571429
 20
75.35714285714286
 10
103.78571428571429
 20
76.42857142857143
  0
LWPOLYLINE
  5
78
330
17
100
AcDbEntity
  8
HIDDEN
100
AcDbPolyline
 90
2
 70
0
 10
103.78571428571429
 20
75.35714285714286
 10
103.78571428571429
 20
76.42857142857143
  0
LWPOLYLINE
  5
79
330
17
100
AcDbEntity
  8
HIDDEN
100
AcDbPolyline
 90
2
 70
0
 10
103.78571428571429
 20
75.35714285714286
 10
103.78571428571429
 20
76.42857142857143
  0
LWPOLYLINE
  5
7A
330
17
100
AcDbEntity
  8
HIDDEN
100
AcDbPolyline
 90
2
 70
0
 10
103.78571428571429
 20
75.35714285714286
 10
103.78571428571429
 20
76.42857142857143
  0
LWPOLYLINE
  5
7B
330
17
100
AcDbEntity
  8
HIDDEN
100
AcDbPolyline
 90
2
 70
0
 10
103.78571428571429
 20
75.35714285714286
 10
103.78571428571429
 20
78.57142857142857
  0
LWPOLYLINE
  5
7C
330
17
100
AcDbEntity
  8
HIDDEN
100
AcDbPolyline
 90
2
 70
0
 10
103.78571428571429
 20
78.57142857142857
 10
103.78571428571429
 20
130.0
  0
LWPOLYLINE
  5
7D
330
17
100
AcDbEntity
  8
HIDDEN
100
AcDbPolyline
 90
15
 70
0
 10
103.78571428571429
 20
107.92857142857143
 10
103.78571428571429
 20
107.83723739437664
 10
103.78571428571429
 20
107.56781516164452
 10
103.78571428571429
 20
107.13381468613353
 10
103.78571428571429
 20
106.55699856391396
 10
103.78571428571429
 20
105.86629076392825
 10
103.78571428571429
 20
105.0963262594123
 10
103.78571428571429
 20
104.28571428571428
 10
103.78571428571429
 20
103.47510231201628
 10
103.78571428571429
 20
102.70513780750032
 10
103.78571428571429
 20
102.0144300075146
 10
103.78571428571429
 20
101.43761388529504
 10
103.78571428571429
 20
101.00361340978404
 10
103.78571428571429
 20
100.73419117705193
 10
103.78571428571429
 20
100.64285714285714
  0
LWPOLYLINE
  5
7E
330
17
100
AcDbEntity
  8
HIDDEN
100
AcDbPolyline
 90
15
 70
0
 10
103.78571428571429
 20
100.64285714285714
 10
103.78571428571429
 20
100.73419117705193
 10
103.78571428571429
 20
101.00361340978404
 10
103.78571428571429
 20
101.43761388529504
 10
103.78571428571429
 20
102.0144300075146
 10
103.78571428571429
 20
102.70513780750032
 10
103.78571428571429
 20
103.47510231201628
 10
103.78571428571429
 20
104.28571428571428
 10
103.78571428571429
 20
105.0963262594123
 10
103.78571428571429
 20
105.86629076392825
 10
103.78571428571429
 20
106.55699856391395
 10
103.78571428571429
 20
107.13381468613353
 10
103.78571428571429
 20
107.56781516164452
 10
103.78571428571429
 20
107.83723739437664
 10
103.78571428571429
 20
107.92857142857143
  0
LWPOLYLINE
  5
7F
330
17
100
AcDbEntity
  8
HIDDEN
100
AcDbPolyline
 90
15
 70
0
 10
103.78571428571429
 20
107.92857142857143
 10
103.78571428571429
 20
107.83723739437664
 10
103.78571428571429
 20
107.56781516164452
 10
103.78571428571429
 20
107.13381468613353
 10
103.78571428571429
 20
106.55699856391396
 10
103.78571428571429
 20
105.86629076392825
 10
103.78571428571429
 20
105.0963262594123
 10
103.78571428571429
 20
104.28571428571428
 10
103.78571428571429
 20
103.47510231201628
 10
103.78571428571429
 20
102.70513780750032
 10
103.78571428571429
 20
102.0144300075146
 10
103.78571428571429
 20
101.43761388529504
 10
103.78571428571429
 20
101.00361340978404
 10
103.78571428571429
 20
100.73419117705193
 10
103.78571428571429
 20
100.64285714285714
  0
LWPOLYLINE
  5
80
330
17
100
AcDbEntity
  8
HIDDEN
100
AcDbPolyline
 90
15
 70
0
 10
103.78571428571429
 20
100.64285714285714
 10
103.78571428571429
 20
100.73419117705193
 10
103.78571428571429
 20
101.00361340978404
 10
103.78571428571429
 20
101.43761388529504
 10
103.78571428571429
 20
102.0144300075146
 10
103.78571428571429
 20
102.70513780750032
 10
103.78571428571429
 20
103.47510231201628
 10
103.78571428571429
 20
104.28571428571428
 10
103.78571428571429
 20
105.0963262594123
 10
103.78571428571429
 20
105.86629076392825
 10
103.78571428571429
 20
106.55699856391395
 10
103.78571428571429
 20
107.13381468613353
 10
103.78571428571429
 20
107.56781516164452
 10
103.78571428571429
 20
107.83723739437664
 10
103.78571428571429
 20
107.92857142857143
  0
LWPOLYLINE
  5
81
330
17
100
AcDbEntity
  8
HIDDEN
100
AcDbPolyline
 90
2
 70
0
 10
103.78571428571429
 20
130.0
 10
110.21428571428571
 20
130.0
  0
LWPOLYLINE
  5
82
330
17
100
AcDbEntity
  8
HIDDEN
100
AcDbPolyline
 90
2
 70
0
 10
103.78571428571429
 20
78.57142857142857
 10
110.21428571428571
 20
78.57142857142857
  0
LWPOLYLINE
  5
83
330
17
100
AcDbEntity
  8
HIDDEN
100
AcDbPolyline
 90
2
 70
0
 10
103.78571428571429
 20
78.57142857142857
 10
110.21428571428571
 20
78.57142857142857
  0
LWPOLYLINE
  5
84
330
17
100
AcDbEntity
  8
HIDDEN
100
AcDbPolyline
 90
2
 70
0
 10
110.21428571428571
 20
78.57142857142857
 10
110.21428571428571
 20
130.0
  0
LWPOLYLINE
  5
85
330
17
100
AcDbEntity
  8
HIDDEN
100
AcDbPolyline
 90
2
 70
0
 10
103.78571428571429
 20
78.57142857142857
 10
110.21428571428571
 20
78.57142857142857
  0
LWPOLYLINE
  5
86
330
17
100
AcDbEntity
  8
HIDDEN
100
AcDbPolyline
 90
15
 70
0
 10
110.21428571428571
 20
107.92857142857143
 10
110.21428571428571
 20
107.83723739437664
 10
110.21428571428571
 20
107.56781516164452
 10
110.21428571428571
 20
107.13381468613353
 10
110.21428571428571
 20
106.55699856391396
 10
110.21428571428571
 20
105.86629076392825
 10
110.21428571428571
 20
105.0963262594123
 10
110.21428571428571
 20
104.28571428571428
 10
110.21428571428571
 20
103.47510231201628
 10
110.21428571428571
 20
102.70513780750032
 10
110.21428571428571
 20
102.0144300075146
 10
110.21428571428571
 20
101.43761388529504
 10
110.21428571428571
 20
101.00361340978404
 10
110.21428571428571
 20
100.73419117705193
 10
110.21428571428571
 20
100.64285714285714
  0
LWPOLYLINE
  5
87
330
17
100
AcDbEntity
  8
HIDDEN
100
AcDbPolyline
 90
15
 70
0
 10
110.21428571428571
 20
100.64285714285714
 10
110.21428571428571
 20
100.73419117705193
 10
110.21428571428571
 20
101.00361340978404
 10
110.21428571428571
 20
101.43761388529504
 10
110.21428571428571
 20
102.0144300075146
 10
110.21428571428571
 20
102.70513780750032
 10
110.21428571428571
 20
103.47510231201628
 10
110.21428571428571
 20
104.28571428571428
 10
110.21428571428571
 20
105.0963262594123
 10
110.21428571428571
 20
105.86629076392825
 10
110.21428571428571
 20
106.55699856391395
 10
110.21428571428571
 20
107.13381468613353
 10
110.21428571428571
 20
107.56781516164452
 10
110.21428571428571
 20
107.83723739437664
 10
110.21428571428571
 20
107.92857142857143
  0
LWPOLYLINE
  5
88
330
17
100
AcDbEntity
  8
HIDDEN
100
AcDbPolyline
 90
2
 70
0
 10
103.78571428571429
 20
107.92857142857143
 10
110.21428571428571
 20
107.92857142857143
  0
LWPOLYLINE
  5
89
330
17
100
AcDbEntity
  8
HIDDEN
100
AcDbPolyline
 90
15
 70
0
 10
110.21428571428571
 20
107.92857142857143
 10
110.21428571428571
 20
107.83723739437664
 10
110.21428571428571
 20
107.56781516164452
 10
110.21428571428571
 20
107.13381468613353
 10
110.21428571428571
 20
106.55699856391396
 10
110.21428571428571
 20
105.86629076392825
 10
110.21428571428571
 20
105.0963262594123
 10
110.21428571428571
 20
104.28571428571428
 10
110.21428571428571
 20
103.47510231201628
 10
110.21428571428571
 20
102.70513780750032
 10
110.21428571428571
 20
102.0144300075146
 10
110.21428571428571
 20
101.43761388529504
 10
110.21428571428571
 20
101.00361340978404
 10
110.21428571428571
 20
100.73419117705193
 10
110.21428571428571
 20
100.64285714285714
  0
LWPOLYLINE
  5
8A
330
17
100
AcDbEntity
  8
HIDDEN
100
AcDbPolyline
 90
15
 70
0
 10
110.21428571428571
 20
100.64285714285714
 10
110.21428571428571
 20
100.73419117705193
 10
110.21428571428571
 20
101.00361340978404
 10
110.21428571428571
 20
101.43761388529504
 10
110.21428571428571
 20
102.0144300075146
 10
110.21428571428571
 20
102.70513780750032
 10
110.21428571428571
 20
103.47510231201628
 10
110.21428571428571
 20
104.28571428571428
 10
110.21428571428571
 20
105.0963262594123
 10
110.21428571428571
 20
105.86629076392825
 10
110.21428571428571
 20
106.55699856391395
 10
110.21428571428571
 20
107.13381468613353
 10
110.21428571428571
 20
107.56781516164452
 10
110.21428571428571
 20
107.83723739437664
 10
110.21428571428571
 20
107.92857142857143
  0
LWPOLYLINE
  5
8B
330
17
100
AcDbEntity
  8
HIDDEN
100
AcDbPolyline
 90
2
 70
0
 10
103.78571428571429
 20
107.92857142857143
 10
110.21428571428571
 20
107.92857142857143
  0
LWPOLYLINE
  5
8C
330
17
100
AcDbEntity
  8
HIDDEN
100
AcDbPolyline
 90
2
 70
0
 10
110.21428571428571
 20
75.35714285714286
 10
110.21428571428571
 20
76.42857142857143
  0
LWPOLYLINE
  5
8D
330
17
100
AcDbEntity
  8
HIDDEN
100
AcDbPolyline
 90
2
 70
0
 10
110.21428571428571
 20
75.35714285714286
 10
110.21428571428571
 20
76.42857142857143
  0
LWPOLYLINE
  5
8E
330
17
100
AcDbEntity
  8
HIDDEN
100
AcDbPolyline
 90
2
 70
0
 10
110.21428571428571
 20
75.35714285714286
 10
110.21428571428571
 20
76.42857142857143
  0
LWPOLYLINE
  5
8F
330
17
100
AcDbEntity
  8
HIDDEN
100
AcDbPolyline
 90
2
 70
0
 10
110.21428571428571
 20
75.35714285714286
 10
110.21428571428571
 20
76.42857142857143
  0
LWPOLYLINE
  5
90
330
17
100
AcDbEntity
  8
HIDDEN
100
AcDbPolyline
 90
2
 70
0
 10
110.21428571428571
 20
75.35714285714286
 10
110.21428571428571
 20
78.57142857142857
  0
LWPOLYLINE
  5
91
330
17
100
AcDbEntity
  8
HIDDEN
100
AcDbPolyline
 90
2
 70
0
 10
110.21428571428571
 20
75.35714285714286
 10
124.14285714285714
 20
75.35714285714286
  0
LWPOLYLINE
  5
92
330
17
100
AcDbEntity
  8
HIDDEN
100
AcDbPolyline
 90
2
 70
0
 10
124.14285714285714
 20
70.0
 10
124.14285714285714
 20
75.35714285714286
  0
LWPOLYLINE
  5
93
330
17
100
AcDbEntity
  8
HIDDEN
100
AcDbPolyline
 90
2
 70
0
 10
89.85714285714286
 20
70.0
 10
124.14285714285714
 20
70.0
  0
LWPOLYLINE
  5
94
330
17
100
AcDbEntity
  8
HIDDEN
100
AcDbPolyline
 90
2
 70
0
 10
89.85714285714286
 20
70.0
 10
89.85714285714286
 20
75.35714285714286
  0
LWPOLYLINE
  5
95
330
17
100
AcDbEntity
  8
HIDDEN
100
AcDbPolyline
 90
2
 70
0
 10
89.85714285714286
 20
75.35714285714286
 10
103.78571428571429
 20
75.35714285714286
  0
LWPOLYLINE
  5
96
330
17
100
AcDbEntity
  8
HIDDEN
100
AcDbPolyline
 90
15
 70
0
 10
103.78571428571428
 20
75.35714285714286
 10
103.72769996332329
 20
75.35714285714286
 10
103.67369310125243
 20
75.35714285714286
 10
103.62375983963379
 20
75.35714285714286
 10
103.57796132981733
 20
75.35714285714286
 10
103.53635365948104
 20
75.35714285714286
 10
103.49898778394258
 20
75.35714285714286
 10
103.46590946375629
 20
75.35714285714286
 10
103.4371592086719
 20
75.35714285714286
 10
103.41277222802387
 20
75.35714285714286
 10
103.39277838761186
 20
75.35714285714286
 10
103.3772021731252
 20
75.35714285714286
 10
103.3660626601562
 20
75.35714285714286
 10
103.35937349083908
 20
75.35714285714286
 10
103.35714285714286
 20
75.35714285714286
  0
LWPOLYLINE
  5
97
330
17
100
AcDbEntity
  8
HIDDEN
100
AcDbPolyline
 90
15
 70
0
 10
103.35714285714286
 20
75.35714285714286
 10
103.35937349083908
 20
75.35714285714286
 10
103.3660626601562
 20
75.35714285714286
 10
103.3772021731252
 20
75.35714285714286
 10
103.39277838761186
 20
75.35714285714286
 10
103.41277222802387
 20
75.35714285714286
 10
103.4371592086719
 20
75.35714285714286
 10
103.46590946375629
 20
75.35714285714286
 10
103.49898778394258
 20
75.35714285714286
 10
103.53635365948104
 20
75.35714285714286
 10
103.57796132981733
 20
75.35714285714286
 10
103.62375983963379
 20
75.35714285714286
 10
103.67369310125243
 20
75.35714285714286
 10
103.72769996332329
 20
75.35714285714286
 10
103.78571428571426
 20
75.35714285714286
  0
LWPOLYLINE
  5
98
330
17
100
AcDbEntity
  8
HIDDEN
100
AcDbPolyline
 90
15
 70
0
 10
103.78571428571428
 20
75.35714285714286
 10
103.72769996332329
 20
75.35714285714286
 10
103.67369310125243
 20
75.35714285714286
 10
103.62375983963379
 20
75.35714285714286
 10
103.57796132981733
 20
75.35714285714286
 10
103.53635365948104
 20
75.35714285714286
 10
103.49898778394258
 20
75.35714285714286
 10
103.46590946375629
 20
75.35714285714286
 10
103.4371592086719
 20
75.35714285714286
 10
103.41277222802387
 20
75.35714285714286
 10
103.39277838761186
 20
75.35714285714286
 10
103.37720217312518
 20
75.35714285714286
 10
103.3660626601562
 20
75.35714285714286
 10
103.35937349083908
 20
75.35714285714286
 10
103.35714285714286
 20
75.35714285714286
  0
LWPOLYLINE
  5
99
330
17
100
AcDbEntity
  8
HIDDEN
100
AcDbPolyline
 90
15
 70
0
 10
103.35714285714286
 20
75.35714285714286
 10
103.35937349083908
 20
75.35714285714286
 10
103.3660626601562
 20
75.35714285714286
 10
103.3772021731252
 20
75.35714285714286
 10
103.39277838761186
 20
75.35714285714286
 10
103.41277222802387
 20
75.35714285714286
 10
103.4371592086719
 20
75.35714285714286
 10
103.46590946375629
 20
75.35714285714286
 10
103.49898778394258
 20
75.35714285714286
 10
103.53635365948104
 20
75.35714285714286
 10
103.57796132981733
 20
75.35714285714286
 10
103.6237598396338
 20
75.35714285714286
 10
103.67369310125243
 20
75.35714285714286
 10
103.72769996332329
 20
75.35714285714286
 10
103.78571428571428
 20
75.35714285714286
  0
LWPOLYLINE
  5
9A
330
17
100
AcDbEntity
  8
HIDDEN
100
AcDbPolyline
 90
15
 70
0
 10
110.21428571428571
 20
76.42857142857143
 10
109.91240100787279
 20
76.42857142857143
 10
109.54121935499393
 20
76.42857142857143
 10
109.10957255973764
 20
76.42857142857143
 10
108.62773111877735
 20
76.42857142857143
 10
108.10715984772364
 20
76.42857142857143
 10
107.56024509014813
 20
76.42857142857143
 10
107.0
 20
76.42857142857143
 10
106.43975490985187
 20
76.42857142857143
 10
105.89284015227636
 20
76.42857142857143
 10
105.37226888122265
 20
76.42857142857143
 10
104.89042744026236
 20
76.42857142857143
 10
104.45878064500607
 20
76.42857142857143
 10
104.08759899212721
 20
76.42857142857143
 10
103.78571428571429
 20
76.42857142857143
  0
LWPOLYLINE
  5
9B
330
17
100
AcDbEntity
  8
HIDDEN
100
AcDbPolyline
 90
15
 70
0
 10
103.78571428571428
 20
76.42857142857143
 10
104.08759899212721
 20
76.42857142857143
 10
104.45878064500607
 20
76.42857142857143
 10
104.89042744026236
 20
76.42857142857143
 10
105.37226888122265
 20
76.42857142857143
 10
105.89284015227636
 20
76.42857142857143
 10
106.43975490985187
 20
76.42857142857143
 10
107.0
 20
76.42857142857143
 10
107.56024509014813
 20
76.42857142857143
 10
108.10715984772364
 20
76.42857142857143
 10
108.62773111877735
 20
76.42857142857143
 10
109.10957255973764
 20
76.42857142857143
 10
109.54121935499393
 20
76.42857142857143
 10
109.91240100787279
 20
76.42857142857143
 10
110.2142857142857
 20
76.42857142857143
  0
LWPOLYLINE
  5
9C
330
17
100
AcDbEntity
  8
HIDDEN
100
AcDbPolyline
 90
15
 70
0
 10
110.21428571428572
 20
75.35714285714286
 10
110.27230003667671
 20
75.35714285714286
 10
110.32630689874757
 20
75.35714285714286
 10
110.37624016036621
 20
75.35714285714286
 10
110.42203867018267
 20
75.35714285714286
 10
110.46364634051896
 20
75.35714285714286
 10
110.50101221605742
 20
75.35714285714286
 10
110.53409053624371
 20
75.35714285714286
 10
110.5628407913281
 20
75.35714285714286
 10
110.58722777197613
 20
75.35714285714286
 10
110.60722161238814
 20
75.35714285714286
 10
110.62279782687482
 20
75.35714285714286
 10
110.6339373398438
 20
75.35714285714286
 10
110.64062650916092
 20
75.35714285714286
 10
110.64285714285714
 20
75.35714285714286
  0
LWPOLYLINE
  5
9D
330
17
100
AcDbEntity
  8
HIDDEN
100
AcDbPolyline
 90
2
 70
0
 10
110.64285714285714
 20
70.0
 10
110.64285714285714
 20
75.35714285714286
  0
LWPOLYLINE
  5
9E
330
17
100
AcDbEntity
  8
HIDDEN
100
AcDbPolyline
 90
15
 70
0
 10
110.64285714285714
 20
70.0
 10
110.55152310866235
 20
70.0
 10
110.28210087593024
 20
70.0
 10
109.84810040041926
 20
70.0
 10
109.27128427819967
 20
70.0
 10
108.58057647821396
 20
70.0
 10
107.810611973698
 20
70.0
 10
107.0
 20
70.0
 10
106.189388026302
 20
70.0
 10
105.41942352178604
 20
70.0
 10
104.72871572180033
 20
70.0
 10
104.15189959958074
 20
70.0
 10
103.71789912406976
 20
70.0
 10
103.44847689133765
 20
70.0
 10
103.35714285714286
 20
70.0
  0
LWPOLYLINE
  5
9F
330
17
100
AcDbEntity
  8
HIDDEN
100
AcDbPolyline
 90
15
 70
0
 10
103.35714285714286
 20
70.0
 10
103.44847689133765
 20
70.0
 10
103.71789912406976
 20
70.0
 10
104.15189959958074
 20
70.0
 10
104.72871572180033
 20
70.0
 10
105.41942352178604
 20
70.0
 10
106.189388026302
 20
70.0
 10
107.0
 20
70.0
 10
107.810611973698
 20
70.0
 10
108.58057647821396
 20
70.0
 10
109.27128427819967
 20
70.0
 10
109.84810040041926
 20
70.0
 10
110.28210087593024
 20
70.0
 10
110.55152310866235
 20
70.0
 10
110.64285714285714
 20
70.0
  0
LWPOLYLINE
  5
A0
330
17
100
AcDbEntity
  8
HIDDEN
100
AcDbPolyline
 90
15
 70
0
 10
110.64285714285714
 20
75.35714285714286
 10
110.64062650916092
 20
75.35714285714286
 10
110.6339373398438
 20
75.35714285714286
 10
110.6227978268748
 20
75.35714285714286
 10
110.60722161238814
 20
75.35714285714286
 10
110.58722777197613
 20
75.35714285714286
 10
110.5628407913281
 20
75.35714285714286
 10
110.53409053624371
 20
75.35714285714286
 10
110.50101221605742
 20
75.35714285714286
 10
110.46364634051896
 20
75.35714285714286
 10
110.42203867018267
 20
75.35714285714286
 10
110.37624016036621
 20
75.35714285714286
 10
110.32630689874757
 20
75.35714285714286
 10
110.27230003667671
 20
75.35714285714286
 10
110.21428571428572
 20
75.35714285714286
  0
LWPOLYLINE
  5
A1
330
17
100
AcDbEntity
  8
HIDDEN
100
AcDbPolyline
 90
15
 70
0
 10
110.21428571428571
 20
76.42857142857143
 10
109.91240100787279
 20
76.42857142857143
 10
109.54121935499393
 20
76.42857142857143
 10
109.10957255973764
 20
76.42857142857143
 10
108.62773111877735
 20
76.42857142857143
 10
108.10715984772364
 20
76.42857142857143
 10
107.56024509014813
 20
76.42857142857143
 10
107.0
 20
76.42857142857143
 10
106.43975490985187
 20
76.42857142857143
 10
105.89284015227636
 20
76.42857142857143
 10
105.37226888122265
 20
76.42857142857143
 10
104.89042744026236
 20
76.42857142857143
 10
104.45878064500607
 20
76.42857142857143
 10
104.08759899212721
 20
76.42857142857143
 10
103.78571428571429
 20
76.42857142857143
  0
LWPOLYLINE
  5
A2
330
17
100
AcDbEntity
  8
HIDDEN
100
AcDbPolyline
 90
15
 70
0
 10
103.78571428571428
 20
76.42857142857143
 10
104.08759899212721
 20
76.42857142857143
 10
104.45878064500607
 20
76.42857142857143
 10
104.89042744026236
 20
76.42857142857143
 10
105.37226888122265
 20
76.42857142857143
 10
105.89284015227636
 20
76.42857142857143
 10
106.43975490985187
 20
76.42857142857143
 10
107.0
 20
76.42857142857143
 10
107.56024509014813
 20
76.42857142857143
 10
108.10715984772364
 20
76.42857142857143
 10
108.62773111877735
 20
76.42857142857143
 10
109.10957255973764
 20
76.42857142857143
 10
109.54121935499393
 20
76.42857142857143
 10
109.91240100787279
 20
76.42857142857143
 10
110.2142857142857
 20
76.42857142857143
  0
LWPOLYLINE
  5
A3
330
17
100
AcDbEntity
  8
HIDDEN
100
AcDbPolyline
 90
15
 70
0
 10
110.21428571428572
 20
75.35714285714286
 10
110.27230003667671
 20
75.35714285714286
 10
110.32630689874757
 20
75.35714285714286
 10
110.37624016036621
 20
75.35714285714286
 10
110.42203867018267
 20
75.35714285714286
 10
110.46364634051896
 20
75.35714285714286
 10
110.50101221605742
 20
75.35714285714286
 10
110.53409053624371
 20
75.35714285714286
 10
110.5628407913281
 20
75.35714285714286
 10
110.58722777197613
 20
75.35714285714286
 10
110.60722161238814
 20
75.35714285714286
 10
110.62279782687482
 20
75.35714285714286
 10
110.6339373398438
 20
75.35714285714286
 10
110.64062650916092
 20
75.35714285714286
 10
110.64285714285714
 20
75.35714285714286
  0
LWPOLYLINE
  5
A4
330
17
100
AcDbEntity
  8
HIDDEN
100
AcDbPolyline
 90
2
 70
0
 10
110.64285714285714
 20
70.0
 10
110.64285714285714
 20
75.35714285714286
  0
LWPOLYLINE
  5
A5
330
17
100
AcDbEntity
  8
HIDDEN
100
AcDbPolyline
 90
15
 70
0
 10
110.64285714285714
 20
70.0
 10
110.55152310866235
 20
70.0
 10
110.28210087593024
 20
70.0
 10
109.84810040041926
 20
70.0
 10
109.27128427819967
 20
70.0
 10
108.58057647821396
 20
70.0
 10
107.810611973698
 20
70.0
 10
107.0
 20
70.0
 10
106.189388026302
 20
70.0
 10
105.41942352178604
 20
70.0
 10
104.72871572180033
 20
70.0
 10
104.15189959958074
 20
70.0
 10
103.71789912406976
 20
70.0
 10
103.44847689133765
 20
70.0
 10
103.35714285714286
 20
70.0
  0
LWPOLYLINE
  5
A6
330
17
100
AcDbEntity
  8
HIDDEN
100
AcDbPolyline
 90
15
 70
0
 10
103.35714285714286
 20
70.0
 10
103.44847689133765
 20
70.0
 10
103.71789912406976
 20
70.0
 10
104.15189959958074
 20
70.0
 10
104.72871572180033
 20
70.0
 10
105.41942352178604
 20
70.0
 10
106.189388026302
 20
70.0
 10
107.0
 20
70.0
 10
107.810611973698
 20
70.0
 10
108.58057647821396
 20
70.0
 10
109.27128427819967
 20
70.0
 10
109.84810040041926
 20
70.0
 10
110.28210087593024
 20
70.0
 10
110.55152310866235
 20
70.0
 10
110.64285714285714
 20
70.0
  0
LWPOLYLINE
  5
A7
330
17
100
AcDbEntity
  8
HIDDEN
100
AcDbPolyline
 90
15
 70
0
 10
110.64285714285714
 20
75.35714285714286
 10
110.64062650916092
 20
75.35714285714286
 10
110.6339373398438
 20
75.35714285714286
 10
110.6227978268748
 20
75.35714285714286
 10
110.60722161238814
 20
75.35714285714286
 10
110.58722777197613
 20
75.35714285714286
 10
110.5628407913281
 20
75.35714285714286
 10
110.53409053624371
 20
75.35714285714286
 10
110.50101221605742
 20
75.35714285714286
 10
110.46364634051896
 20
75.35714285714286
 10
110.42203867018267
 20
75.35714285714286
 10
110.37624016036621
 20
75.35714285714286
 10
110.32630689874757
 20
75.35714285714286
 10
110.27230003667671
 20
75.35714285714286
 10
110.21428571428572
 20
75.35714285714286
  0
LWPOLYLINE
  5
A8
330
17
100
AcDbEntity
  8
HIDDEN
100
AcDbPolyline
 90
2
 70
0
 10
103.78571428571429
 20
100.64285714285714
 10
110.21428571428571
 20
100.64285714285714
  0
LWPOLYLINE
  5
A9
330
17
100
AcDbEntity
  8
HIDDEN
100
AcDbPolyline
 90
2
 70
0
 10
103.78571428571429
 20
100.64285714285714
 10
110.21428571428571
 20
100.64285714285714
  0
LWPOLYLINE
  5
AA
330
17
100
AcDbEntity
  8
HIDDEN
100
AcDbPolyline
 90
2
 70
0
 10
103.35714285714286
 20
70.0
 10
103.35714285714286
 20
75.35714285714286
  0
LWPOLYLINE
  5
AB
330
17
100
AcDbEntity
  8
HIDDEN
100
AcDbPolyline
 90
2
 70
0
 10
103.35714285714286
 20
70.0
 10
103.35714285714286
 20
75.35714285714286
  0
LWPOLYLINE
  5
AC
330
17
100
AcDbEntity
  8
OUTLINE
100
AcDbPolyline
 90
2
 70
0
 10
103.78571428571429
 20
78.57142857142857
 10
103.78571428571429
 20
130.0
  0
LWPOLYLINE
  5
AD
330
17
100
AcDbEntity
  8
OUTLINE
100
AcDbPolyline
 90
2
 70
0
 10
103.78571428571429
 20
75.35714285714286
 10
103.78571428571429
 20
78.57142857142857
  0
LWPOLYLINE
  5
AE
330
17
100
AcDbEntity
  8
OUTLINE
100
AcDbPolyline
 90
2
 70
0
 10
103.78571428571429
 20
78.57142857142857
 10
110.21428571428571
 20
78.57142857142857
  0
LWPOLYLINE
  5
AF
330
17
100
AcDbEntity
  8
OUTLINE
100
AcDbPolyline
 90
2
 70
0
 10
110.21428571428571
 20
78.57142857142857
 10
110.21428571428571
 20
130.0
  0
LWPOLYLINE
  5
B0
330
17
100
AcDbEntity
  8
OUTLINE
100
AcDbPolyline
 90
2
 70
0
 10
103.78571428571429
 20
130.0
 10
110.21428571428571
 20
130.0
  0
LWPOLYLINE
  5
B1
330
17
100
AcDbEntity
  8
OUTLINE
100
AcDbPolyline
 90
2
 70
0
 10
110.21428571428571
 20
75.35714285714286
 10
110.21428571428571
 20
78.57142857142857
  0
LWPOLYLINE
  5
B2
330
17
100
AcDbEntity
  8
OUTLINE
100
AcDbPolyline
 90
2
 70
0
 10
110.21428571428571
 20
75.35714285714286
 10
124.14285714285714
 20
75.35714285714286
  0
LWPOLYLINE
  5
B3
330
17
100
AcDbEntity
  8
OUTLINE
100
AcDbPolyline
 90
2
 70
0
 10
124.14285714285714
 20
70.0
 10
124.14285714285714
 20
75.35714285714286
  0
LWPOLYLINE
  5
B4
330
17
100
AcDbEntity
  8
OUTLINE
100
AcDbPolyline
 90
2
 70
0
 10
89.85714285714286
 20
70.0
 10
124.14285714285714
 20
70.0
  0
LWPOLYLINE
  5
B5
330
17
100
AcDbEntity
  8
OUTLINE
100
AcDbPolyline
 90
2
 70
0
 10
89.85714285714286
 20
70.0
 10
89.85714285714286
 20
75.35714285714286
  0
LWPOLYLINE
  5
B6
330
17
100
AcDbEntity
  8
OUTLINE
100
AcDbPolyline
 90
2
 70
0
 10
89.85714285714286
 20
75.35714285714286
 10
103.78571428571429
 20
75.35714285714286
  0
TEXT
  5
B7
330
17
100
AcDbEntity
  8
TEXT
100
AcDbText
 10
22.0
 20
63.0
 30
0.0
 40
2.6
  1
FRONT  (view scale 2.14:1)
100
AcDbText
  0
LWPOLYLINE
  5
B8
330
17
100
AcDbEntity
  8
HIDDEN
100
AcDbPolyline
 90
2
 70
0
 10
335.0
 20
176.875
 10
326.2
 20
176.875
  0
LWPOLYLINE
  5
B9
330
17
100
AcDbEntity
  8
HIDDEN
100
AcDbPolyline
 90
2
 70
0
 10
321.8
 20
176.875
 10
282.2
 20
176.875
  0
LWPOLYLINE
  5
BA
330
17
100
AcDbEntity
  8
HIDDEN
100
AcDbPolyline
 90
2
 70
0
 10
277.8
 20
176.875
 10
269.0
 20
176.875
  0
LWPOLYLINE
  5
BB
330
17
100
AcDbEntity
  8
HIDDEN
100
AcDbPolyline
 90
2
 70
0
 10
348.75
 20
181.0
 10
348.75
 20
247.0
  0
LWPOLYLINE
  5
BC
330
17
100
AcDbEntity
  8
HIDDEN
100
AcDbPolyline
 90
2
 70
0
 10
348.75
 20
247.0
 10
255.25
 20
247.0
  0
LWPOLYLINE
  5
BD
330
17
100
AcDbEntity
  8
HIDDEN
100
AcDbPolyline
 90
2
 70
0
 10
348.75
 20
181.0
 10
335.0
 20
181.0
  0
LWPOLYLINE
  5
BE
330
17
100
AcDbEntity
  8
HIDDEN
100
AcDbPolyline
 90
2
 70
0
 10
255.25
 20
181.0
 10
255.25
 20
247.0
  0
LWPOLYLINE
  5
BF
330
17
100
AcDbEntity
  8
HIDDEN
100
AcDbPolyline
 90
2
 70
0
 10
269.0
 20
181.0
 10
255.25
 20
181.0
  0
LWPOLYLINE
  5
C0
330
17
100
AcDbEntity
  8
HIDDEN
100
AcDbPolyline
 90
22
 70
0
 10
263.5
 20
218.675
 10
264.87798044037095
 20
218.4673028670502
 10
266.1335212714474
 20
217.86266626992727
 10
267.15506218053804
 20
216.9148148236896
 10
267.85183477491165
 20
215.7079692889129
 10
268.161927751822
 20
214.34936318751653
 10
268.05778798945005
 20
212.95971463375423
 10
267.5486687626923
 20
211.6625
 10
266.67980754907904
 20
210.57298249919558
 10
265.5284064803746
 20
209.7879705425562
 10
264.1967725943736
 20
209.37721588739754
 10
262.8032274056264
 20
209.37721588739754
 10
261.4715935196254
 20
209.7879705425562
 10
260.32019245092096
 20
210.57298249919558
 10
259.4513312373077
 20
211.6625
 10
258.94221201054995
 20
212.95971463375423
 10
258.838072248178
 20
214.34936318751653
 10
259.14816522508835
 20
215.7079692889129
 10
259.84493781946196
 20
216.9148148236896
 10
260.8664787285526
 20
217.86266626992727
 10
262.12201955962905
 20
218.4673028670502
 10
263.5
 20
218.675
  0
LWPOLYLINE
  5
C1
330
17
100
AcDbEntity
  8
HIDDEN
100
AcDbPolyline
 90
22
 70
0
 10
340.5
 20
218.675
 10
341.87798044037095
 20
218.4673028670502
 10
343.1335212714474
 20
217.86266626992727
 10
344.15506218053804
 20
216.9148148236896
 10
344.85183477491165
 20
215.7079692889129
 10
345.161927751822
 20
214.34936318751653
 10
345.05778798945005
 20
212.95971463375423
 10
344.5486687626923
 20
211.6625
 10
343.67980754907904
 20
210.57298249919558
 10
342.5284064803746
 20
209.7879705425562
 10
341.1967725943736
 20
209.37721588739754
 10
339.8032274056264
 20
209.37721588739754
 10
338.4715935196254
 20
209.7879705425562
 10
337.32019245092096
 20
210.57298249919558
 10
336.4513312373077
 20
211.6625
 10
335.94221201054995
 20
212.95971463375423
 10
335.838072248178
 20
214.34936318751653
 10
336.14816522508835
 20
215.7079692889129
 10
336.84493781946196
 20
216.9148148236896
 10
337.8664787285526
 20
217.86266626992727
 10
339.12201955962905
 20
218.4673028670502
 10
340.5
 20
218.675
  0
LWPOLYLINE
  5
C2
330
17
100
AcDbEntity
  8
HIDDEN
100
AcDbPolyline
 90
2
 70
0
 10
335.0
 20
176.875
 10
335.0
 20
181.0
  0
LWPOLYLINE
  5
C3
330
17
100
AcDbEntity
  8
HIDDEN
100
AcDbPolyline
 90
2
 70
0
 10
335.0
 20
176.875
 10
326.2
 20
176.875
  0
LWPOLYLINE
  5
C4
330
17
100
AcDbEntity
  8
HIDDEN
100
AcDbPolyline
 90
2
 70
0
 10
326.2
 20
176.875
 10
326.2
 20
178.25
  0
LWPOLYLINE
  5
C5
330
17
100
AcDbEntity
  8
HIDDEN
100
AcDbPolyline
 90
2
 70
0
 10
321.8
 20
178.25
 10
326.2
 20
178.25
  0
LWPOLYLINE
  5
C6
330
17
100
AcDbEntity
  8
HIDDEN
100
AcDbPolyline
 90
2
 70
0
 10
321.8
 20
176.875
 10
321.8
 20
178.25
  0
LWPOLYLINE
  5
C7
330
17
100
AcDbEntity
  8
HIDDEN
100
AcDbPolyline
 90
2
 70
0
 10
321.8
 20
176.875
 10
282.2
 20
176.875
  0
LWPOLYLINE
  5
C8
330
17
100
AcDbEntity
  8
HIDDEN
100
AcDbPolyline
 90
2
 70
0
 10
282.2
 20
176.875
 10
282.2
 20
178.25
  0
LWPOLYLINE
  5
C9
330
17
100
AcDbEntity
  8
HIDDEN
100
AcDbPolyline
 90
2
 70
0
 10
277.8
 20
178.25
 10
282.2
 20
178.25
  0
LWPOLYLINE
  5
CA
330
17
100
AcDbEntity
  8
HIDDEN
100
AcDbPolyline
 90
2
 70
0
 10
277.8
 20
176.875
 10
277.8
 20
178.25
  0
LWPOLYLINE
  5
CB
330
17
100
AcDbEntity
  8
HIDDEN
100
AcDbPolyline
 90
2
 70
0
 10
277.8
 20
176.875
 10
269.0
 20
176.875
  0
LWPOLYLINE
  5
CC
330
17
100
AcDbEntity
  8
HIDDEN
100
AcDbPolyline
 90
2
 70
0
 10
269.0
 20
176.875
 10
269.0
 20
181.0
  0
LWPOLYLINE
  5
CD
330
17
100
AcDbEntity
  8
HIDDEN
100
AcDbPolyline
 90
2
 70
0
 10
335.0
 20
170.0
 10
335.0
 20
176.875
  0
LWPOLYLINE
  5
CE
330
17
100
AcDbEntity
  8
HIDDEN
100
AcDbPolyline
 90
2
 70
0
 10
269.0
 20
170.0
 10
269.0
 20
176.875
  0
LWPOLYLINE
  5
CF
330
17
100
AcDbEntity
  8
HIDDEN
100
AcDbPolyline
 90
15
 70
0
 10
277.8
 20
176.875
 10
278.09387602124565
 20
176.875
 10
278.3970866113436
 20
176.875
 10
278.70814690353717
 20
176.875
 10
279.0255335899267
 20
176.875
 10
279.3476923813316
 20
176.875
 10
279.67304561887295
 20
176.875
 10
280.0
 20
176.875
 10
280.32695438112705
 20
176.875
 10
280.6523076186684
 20
176.875
 10
280.9744664100733
 20
176.875
 10
281.29185309646283
 20
176.875
 10
281.6029133886564
 20
176.875
 10
281.90612397875435
 20
176.875
 10
282.19999999999993
 20
176.875
  0
LWPOLYLINE
  5
D0
330
17
100
AcDbEntity
  8
HIDDEN
100
AcDbPolyline
 90
15
 70
0
 10
321.8
 20
176.875
 10
322.09387602124565
 20
176.875
 10
322.3970866113436
 20
176.875
 10
322.70814690353717
 20
176.875
 10
323.0255335899267
 20
176.875
 10
323.3476923813316
 20
176.875
 10
323.67304561887295
 20
176.875
 10
324.0
 20
176.875
 10
324.32695438112705
 20
176.875
 10
324.6523076186684
 20
176.875
 10
324.9744664100733
 20
176.875
 10
325.29185309646283
 20
176.875
 10
325.6029133886564
 20
176.875
 10
325.90612397875435
 20
176.875
 10
326.2
 20
176.875
  0
LWPOLYLINE
  5
D1
330
17
100
AcDbEntity
  8
HIDDEN
100
AcDbPolyline
 90
15
 70
0
 10
277.8
 20
178.25
 10
277.4884078086032
 20
178.25
 10
277.1917779512738
 20
178.25
 10
276.9118775441206
 20
178.25
 10
276.6503740407261
 20
178.25
 10
276.4088252986083
 20
178.25
 10
276.18867029858006
 20
178.25
 10
275.99122057229386
 20
178.25
 10
275.81765238904063
 20
178.25
 10
275.6689997483488
 20
178.25
 10
275.546148220128
 20
178.25
 10
275.4498296690544
 20
178.25
 10
275.38061789462586
 20
178.25
 10
275.33892521286003
 20
178.25
 10
275.325
 20
178.25
  0
LWPOLYLINE
  5
D2
330
17
100
AcDbEntity
  8
HIDDEN
100
AcDbPolyline
 90
15
 70
0
 10
275.325
 20
178.25
 10
275.33892521286003
 20
178.25
 10
275.38061789462586
 20
178.25
 10
275.4498296690544
 20
178.25
 10
275.546148220128
 20
178.25
 10
275.6689997483488
 20
178.25
 10
275.81765238904063
 20
178.25
 10
275.99122057229386
 20
178.25
 10
276.18867029858006
 20
178.25
 10
276.4088252986083
 20
178.25
 10
276.6503740407261
 20
178.25
 10
276.91187754412067
 20
178.25
 10
277.1917779512738
 20
178.25
 10
277.4884078086032
 20
178.25
 10
277.79999999999995
 20
178.25
  0
LWPOLYLINE
  5
D3
330
17
100
AcDbEntity
  8
HIDDEN
100
AcDbPolyline
 90
15
 70
0
 10
282.2
 20
178.25
 10
282.5115921913968
 20
178.25
 10
282.8082220487262
 20
178.25
 10
283.08812245587933
 20
178.25
 10
283.3496259592739
 20
178.25
 10
283.5911747013917
 20
178.25
 10
283.81132970141994
 20
178.25
 10
284.00877942770614
 20
178.25
 10
284.18234761095937
 20
178.25
 10
284.3310002516512
 20
178.25
 10
284.453851779872
 20
178.25
 10
284.5501703309456
 20
178.25
 10
284.61938210537414
 20
178.25
 10
284.66107478713997
 20
178.25
 10
284.675
 20
178.25
  0
LWPOLYLINE
  5
D4
330
17
100
AcDbEntity
  8
HIDDEN
100
AcDbPolyline
 90
15
 70
0
 10
284.675
 20
178.25
 10
284.66107478713997
 20
178.25
 10
284.61938210537414
 20
178.25
 10
284.5501703309456
 20
178.25
 10
284.453851779872
 20
178.25
 10
284.3310002516512
 20
178.25
 10
284.18234761095937
 20
178.25
 10
284.00877942770614
 20
178.25
 10
283.81132970141994
 20
178.25
 10
283.5911747013917
 20
178.25
 10
283.3496259592739
 20
178.25
 10
283.08812245587933
 20
178.25
 10
282.8082220487262
 20
178.25
 10
282.5115921913968
 20
178.25
 10
282.20000000000005
 20
178.25
  0
LWPOLYLINE
  5
D5
330
17
100
AcDbEntity
  8
HIDDEN
100
AcDbPolyline
 90
15
 70
0
 10
282.2
 20
176.875
 10
282.05431991277095
 20
176.875
 10
281.90612397875435
 20
176.875
 10
281.7555936878253
 20
176.875
 10
281.6029133886564
 20
176.875
 10
281.4482700629528
 20
176.875
 10
281.29185309646283
 20
176.875
 10
281.13385404704485
 20
176.875
 10
280.9744664100733
 20
176.875
 10
280.8138853814727
 20
176.875
 10
280.6523076186683
 20
176.875
 10
280.4899309997478
 20
176.875
 10
280.32695438112705
 20
176.875
 10
280.16357735401857
 20
176.875
 10
280.00000000000006
 20
176.875
  0
LWPOLYLINE
  5
D6
330
17
100
AcDbEntity
  8
HIDDEN
100
AcDbPolyline
 90
15
 70
0
 10
280.0
 20
170.0
 10
279.47656607421703
 20
170.0
 10
278.95971463375423
 20
170.0
 10
278.4559453853596
 20
170.0
 10
277.9715935196254
 20
170.0
 10
277.5127500422908
 20
170.0
 10
277.0851851763104
 20
170.0
 10
276.6942757979529
 20
170.0
 10
276.34493781946196
 20
170.0
 10
276.0415643686078
 20
170.0
 10
275.7879705425562
 20
170.0
 10
275.5873454308084
 20
170.0
 10
275.44221201054995
 20
170.0
 10
275.3543954187491
 20
170.0
 10
275.325
 20
170.0
  0
LWPOLYLINE
  5
D7
330
17
100
AcDbEntity
  8
HIDDEN
100
AcDbPolyline
 90
15
 70
0
 10
275.325
 20
170.0
 10
275.44221201054995
 20
170.0
 10
275.7879705425562
 20
170.0
 10
276.34493781946196
 20
170.0
 10
277.0851851763104
 20
170.0
 10
277.9715935196254
 20
170.0
 10
278.95971463375423
 20
170.0
 10
280.0
 20
170.0
 10
281.04028536624577
 20
170.0
 10
282.0284064803746
 20
170.0
 10
282.9148148236896
 20
170.0
 10
283.65506218053804
 20
170.0
 10
284.2120294574438
 20
170.0
 10
284.55778798945005
 20
170.0
 10
284.675
 20
170.0
  0
LWPOLYLINE
  5
D8
330
17
100
AcDbEntity
  8
HIDDEN
100
AcDbPolyline
 90
15
 70
0
 10
284.675
 20
170.0
 10
284.6456045812509
 20
170.0
 10
284.55778798945005
 20
170.0
 10
284.4126545691916
 20
170.0
 10
284.2120294574438
 20
170.0
 10
283.9584356313922
 20
170.0
 10
283.65506218053804
 20
170.0
 10
283.3057242020471
 20
170.0
 10
282.9148148236896
 20
170.0
 10
282.4872499577092
 20
170.0
 10
282.0284064803746
 20
170.0
 10
281.5440546146404
 20
170.0
 10
281.04028536624577
 20
170.0
 10
280.52343392578297
 20
170.0
 10
280.00000000000006
 20
170.0
  0
LWPOLYLINE
  5
D9
330
17
100
AcDbEntity
  8
HIDDEN
100
AcDbPolyline
 90
15
 70
0
 10
280.0
 20
176.875
 10
279.8364226459814
 20
176.875
 10
279.67304561887295
 20
176.875
 10
279.5100690002522
 20
176.875
 10
279.3476923813316
 20
176.875
 10
279.1861146185273
 20
176.875
 10
279.0255335899267
 20
176.875
 10
278.86614595295515
 20
176.875
 10
278.70814690353717
 20
176.875
 10
278.5517299370472
 20
176.875
 10
278.3970866113436
 20
176.875
 10
278.24440631217465
 20
176.875
 10
278.09387602124565
 20
176.875
 10
277.94568008722905
 20
176.875
 10
277.8
 20
176.875
  0
LWPOLYLINE
  5
DA
330
17
100
AcDbEntity
  8
HIDDEN
100
AcDbPolyline
 90
15
 70
0
 10
321.8
 20
178.25
 10
321.4884078086032
 20
178.25
 10
321.1917779512738
 20
178.25
 10
320.91187754412067
 20
178.25
 10
320.6503740407261
 20
178.25
 10
320.4088252986083
 20
178.25
 10
320.18867029858006
 20
178.25
 10
319.99122057229386
 20
178.25
 10
319.81765238904063
 20
178.25
 10
319.6689997483488
 20
178.25
 10
319.546148220128
 20
178.25
 10
319.4498296690544
 20
178.25
 10
319.38061789462586
 20
178.25
 10
319.33892521286003
 20
178.25
 10
319.325
 20
178.25
  0
LWPOLYLINE
  5
DB
330
17
100
AcDbEntity
  8
HIDDEN
100
AcDbPolyline
 90
15
 70
0
 10
319.325
 20
178.25
 10
319.33892521286003
 20
178.25
 10
319.38061789462586
 20
178.25
 10
319.4498296690544
 20
178.25
 10
319.546148220128
 20
178.25
 10
319.6689997483488
 20
178.25
 10
319.81765238904063
 20
178.25
 10
319.99122057229386
 20
178.25
 10
320.18867029858006
 20
178.25
 10
320.4088252986083
 20
178.25
 10
320.6503740407261
 20
178.25
 10
320.91187754412067
 20
178.25
 10
321.1917779512738
 20
178.25
 10
321.4884078086032
 20
178.25
 10
321.79999999999995
 20
178.25
  0
LWPOLYLINE
  5
DC
330
17
100
AcDbEntity
  8
HIDDEN
100
AcDbPolyline
 90
15
 70
0
 10
326.2
 20
178.25
 10
326.5115921913968
 20
178.25
 10
326.8082220487262
 20
178.25
 10
327.08812245587933
 20
178.25
 10
327.3496259592739
 20
178.25
 10
327.5911747013917
 20
178.25
 10
327.81132970141994
 20
178.25
 10
328.00877942770614
 20
178.25
 10
328.18234761095937
 20
178.25
 10
328.3310002516512
 20
178.25
 10
328.453851779872
 20
178.25
 10
328.5501703309456
 20
178.25
 10
328.61938210537414
 20
178.25
 10
328.66107478713997
 20
178.25
 10
328.675
 20
178.25
  0
LWPOLYLINE
  5
DD
330
17
100
AcDbEntity
  8
HIDDEN
100
AcDbPolyline
 90
15
 70
0
 10
328.675
 20
178.25
 10
328.66107478713997
 20
178.25
 10
328.61938210537414
 20
178.25
 10
328.5501703309456
 20
178.25
 10
328.453851779872
 20
178.25
 10
328.3310002516512
 20
178.25
 10
328.18234761095937
 20
178.25
 10
328.00877942770614
 20
178.25
 10
327.81132970141994
 20
178.25
 10
327.5911747013917
 20
178.25
 10
327.3496259592739
 20
178.25
 10
327.08812245587933
 20
178.25
 10
326.8082220487262
 20
178.25
 10
326.5115921913968
 20
178.25
 10
326.20000000000005
 20
178.25
  0
LWPOLYLINE
  5
DE
330
17
100
AcDbEntity
  8
HIDDEN
100
AcDbPolyline
 90
15
 70
0
 10
326.2
 20
176.875
 10
326.05431991277095
 20
176.875
 10
325.90612397875435
 20
176.875
 10
325.75559368782535
 20
176.875
 10
325.6029133886564
 20
176.875
 10
325.4482700629528
 20
176.875
 10
325.29185309646283
 20
176.875
 10
325.13385404704485
 20
176.875
 10
324.9744664100733
 20
176.875
 10
324.8138853814727
 20
176.875
 10
324.6523076186683
 20
176.875
 10
324.4899309997478
 20
176.875
 10
324.32695438112705
 20
176.875
 10
324.16357735401857
 20
176.875
 10
324.00000000000006
 20
176.875
  0
LWPOLYLINE
  5
DF
330
17
100
AcDbEntity
  8
HIDDEN
100
AcDbPolyline
 90
15
 70
0
 10
324.0
 20
170.0
 10
323.47656607421703
 20
170.0
 10
322.95971463375423
 20
170.0
 10
322.4559453853596
 20
170.0
 10
321.9715935196254
 20
170.0
 10
321.5127500422908
 20
170.0
 10
321.0851851763104
 20
170.0
 10
320.6942757979529
 20
170.0
 10
320.34493781946196
 20
170.0
 10
320.0415643686078
 20
170.0
 10
319.7879705425562
 20
170.0
 10
319.5873454308084
 20
170.0
 10
319.44221201054995
 20
170.0
 10
319.3543954187491
 20
170.0
 10
319.325
 20
170.0
  0
LWPOLYLINE
  5
E0
330
17
100
AcDbEntity
  8
HIDDEN
100
AcDbPolyline
 90
15
 70
0
 10
319.325
 20
170.0
 10
319.44221201054995
 20
170.0
 10
319.7879705425562
 20
170.0
 10
320.34493781946196
 20
170.0
 10
321.0851851763104
 20
170.0
 10
321.9715935196254
 20
170.0
 10
322.95971463375423
 20
170.0
 10
324.0
 20
170.0
 10
325.04028536624577
 20
170.0
 10
326.0284064803746
 20
170.0
 10
326.9148148236896
 20
170.0
 10
327.65506218053804
 20
170.0
 10
328.2120294574438
 20
170.0
 10
328.55778798945005
 20
170.0
 10
328.675
 20
170.0
  0
LWPOLYLINE
  5
E1
330
17
100
AcDbEntity
  8
HIDDEN
100
AcDbPolyline
 90
15
 70
0
 10
328.675
 20
170.0
 10
328.6456045812509
 20
170.0
 10
328.55778798945005
 20
170.0
 10
328.4126545691916
 20
170.0
 10
328.2120294574438
 20
170.0
 10
327.9584356313922
 20
170.0
 10
327.65506218053804
 20
170.0
 10
327.3057242020471
 20
170.0
 10
326.9148148236896
 20
170.0
 10
326.4872499577092
 20
170.0
 10
326.0284064803746
 20
170.0
 10
325.5440546146404
 20
170.0
 10
325.04028536624577
 20
170.0
 10
324.52343392578297
 20
170.0
 10
324.00000000000006
 20
170.0
  0
LWPOLYLINE
  5
E2
330
17
100
AcDbEntity
  8
HIDDEN
100
AcDbPolyline
 90
15
 70
0
 10
324.0
 20
176.875
 10
323.8364226459814
 20
176.875
 10
323.67304561887295
 20
176.875
 10
323.5100690002522
 20
176.875
 10
323.3476923813316
 20
176.875
 10
323.1861146185273
 20
176.875
 10
323.0255335899267
 20
176.875
 10
322.86614595295515
 20
176.875
 10
322.70814690353717
 20
176.875
 10
322.5517299370472
 20
176.875
 10
322.3970866113436
 20
176.875
 10
322.24440631217465
 20
176.875
 10
322.09387602124565
 20
176.875
 10
321.94568008722905
 20
176.875
 10
321.8
 20
176.875
  0
LWPOLYLINE
  5
E3
330
17
100
AcDbEntity
  8
HIDDEN
100
AcDbPolyline
 90
2
 70
0
 10
335.0
 20
176.875
 10
269.0
 20
176.875
  0
LWPOLYLINE
  5
E4
330
17
100
AcDbEntity
  8
HIDDEN
100
AcDbPolyline
 90
2
 70
0
 10
335.0
 20
170.0
 10
269.0
 20
170.0
  0
LWPOLYLINE
  5
E5
330
17
100
AcDbEntity
  8
HIDDEN
100
AcDbPolyline
 90
2
 70
0
 10
284.675
 20
170.0
 10
284.675
 20
178.25
  0
LWPOLYLINE
  5
E6
330
17
100
AcDbEntity
  8
HIDDEN
100
AcDbPolyline
 90
2
 70
0
 10
275.325
 20
170.0
 10
275.325
 20
178.25
  0
LWPOLYLINE
  5
E7
330
17
100
AcDbEntity
  8
HIDDEN
100
AcDbPolyline
 90
2
 70
0
 10
328.675
 20
170.0
 10
328.675
 20
178.25
  0
LWPOLYLINE
  5
E8
330
17
100
AcDbEntity
  8
HIDDEN
100
AcDbPolyline
 90
2
 70
0
 10
319.325
 20
170.0
 10
319.325
 20
178.25
  0
LWPOLYLINE
  5
E9
330
17
100
AcDbEntity
  8
OUTLINE
100
AcDbPolyline
 90
2
 70
0
 10
348.75
 20
181.0
 10
348.75
 20
247.0
  0
LWPOLYLINE
  5
EA
330
17
100
AcDbEntity
  8
OUTLINE
100
AcDbPolyline
 90
2
 70
0
 10
348.75
 20
181.0
 10
335.0
 20
181.0
  0
LWPOLYLINE
  5
EB
330
17
100
AcDbEntity
  8
OUTLINE
100
AcDbPolyline
 90
2
 70
0
 10
335.0
 20
176.875
 10
335.0
 20
181.0
  0
LWPOLYLINE
  5
EC
330
17
100
AcDbEntity
  8
OUTLINE
100
AcDbPolyline
 90
2
 70
0
 10
326.2
 20
176.875
 10
326.2
 20
178.25
  0
LWPOLYLINE
  5
ED
330
17
100
AcDbEntity
  8
OUTLINE
100
AcDbPolyline
 90
2
 70
0
 10
321.8
 20
178.25
 10
326.2
 20
178.25
  0
LWPOLYLINE
  5
EE
330
17
100
AcDbEntity
  8
OUTLINE
100
AcDbPolyline
 90
2
 70
0
 10
321.8
 20
176.875
 10
321.8
 20
178.25
  0
LWPOLYLINE
  5
EF
330
17
100
AcDbEntity
  8
OUTLINE
100
AcDbPolyline
 90
2
 70
0
 10
282.2
 20
176.875
 10
282.2
 20
178.25
  0
LWPOLYLINE
  5
F0
330
17
100
AcDbEntity
  8
OUTLINE
100
AcDbPolyline
 90
2
 70
0
 10
277.8
 20
178.25
 10
282.2
 20
178.25
  0
LWPOLYLINE
  5
F1
330
17
100
AcDbEntity
  8
OUTLINE
100
AcDbPolyline
 90
2
 70
0
 10
277.8
 20
176.875
 10
277.8
 20
178.25
  0
LWPOLYLINE
  5
F2
330
17
100
AcDbEntity
  8
OUTLINE
100
AcDbPolyline
 90
2
 70
0
 10
269.0
 20
176.875
 10
269.0
 20
181.0
  0
LWPOLYLINE
  5
F3
330
17
100
AcDbEntity
  8
OUTLINE
100
AcDbPolyline
 90
2
 70
0
 10
269.0
 20
181.0
 10
255.25
 20
181.0
  0
LWPOLYLINE
  5
F4
330
17
100
AcDbEntity
  8
OUTLINE
100
AcDbPolyline
 90
2
 70
0
 10
255.25
 20
181.0
 10
255.25
 20
247.0
  0
LWPOLYLINE
  5
F5
330
17
100
AcDbEntity
  8
OUTLINE
100
AcDbPolyline
 90
2
 70
0
 10
348.75
 20
247.0
 10
255.25
 20
247.0
  0
LWPOLYLINE
  5
F6
330
17
100
AcDbEntity
  8
OUTLINE
100
AcDbPolyline
 90
22
 70
0
 10
263.5
 20
218.675
 10
264.87798044037095
 20
218.4673028670502
 10
266.1335212714474
 20
217.86266626992727
 10
267.15506218053804
 20
216.9148148236896
 10
267.85183477491165
 20
215.7079692889129
 10
268.161927751822
 20
214.34936318751653
 10
268.05778798945005
 20
212.95971463375423
 10
267.5486687626923
 20
211.6625
 10
266.67980754907904
 20
210.57298249919558
 10
265.5284064803746
 20
209.7879705425562
 10
264.1967725943736
 20
209.37721588739754
 10
262.8032274056264
 20
209.37721588739754
 10
261.4715935196254
 20
209.7879705425562
 10
260.32019245092096
 20
210.57298249919558
 10
259.4513312373077
 20
211.6625
 10
258.94221201054995
 20
212.95971463375423
 10
258.838072248178
 20
214.34936318751653
 10
259.14816522508835
 20
215.7079692889129
 10
259.84493781946196
 20
216.9148148236896
 10
260.8664787285526
 20
217.86266626992727
 10
262.12201955962905
 20
218.4673028670502
 10
263.5
 20
218.675
  0
LWPOLYLINE
  5
F7
330
17
100
AcDbEntity
  8
OUTLINE
100
AcDbPolyline
 90
22
 70
0
 10
340.5
 20
218.675
 10
341.87798044037095
 20
218.4673028670502
 10
343.1335212714474
 20
217.86266626992727
 10
344.15506218053804
 20
216.9148148236896
 10
344.85183477491165
 20
215.7079692889129
 10
345.161927751822
 20
214.34936318751653
 10
345.05778798945005
 20
212.95971463375423
 10
344.5486687626923
 20
211.6625
 10
343.67980754907904
 20
210.57298249919558
 10
342.5284064803746
 20
209.7879705425562
 10
341.1967725943736
 20
209.37721588739754
 10
339.8032274056264
 20
209.37721588739754
 10
338.4715935196254
 20
209.7879705425562
 10
337.32019245092096
 20
210.57298249919558
 10
336.4513312373077
 20
211.6625
 10
335.94221201054995
 20
212.95971463375423
 10
335.838072248178
 20
214.34936318751653
 10
336.14816522508835
 20
215.7079692889129
 10
336.84493781946196
 20
216.9148148236896
 10
337.8664787285526
 20
217.86266626992727
 10
339.12201955962905
 20
218.4673028670502
 10
340.5
 20
218.675
  0
LWPOLYLINE
  5
F8
330
17
100
AcDbEntity
  8
OUTLINE
100
AcDbPolyline
 90
2
 70
0
 10
335.0
 20
170.0
 10
335.0
 20
176.875
  0
LWPOLYLINE
  5
F9
330
17
100
AcDbEntity
  8
OUTLINE
100
AcDbPolyline
 90
2
 70
0
 10
269.0
 20
170.0
 10
269.0
 20
176.875
  0
LWPOLYLINE
  5
FA
330
17
100
AcDbEntity
  8
OUTLINE
100
AcDbPolyline
 90
2
 70
0
 10
335.0
 20
176.875
 10
269.0
 20
176.875
  0
LWPOLYLINE
  5
FB
330
17
100
AcDbEntity
  8
OUTLINE
100
AcDbPolyline
 90
2
 70
0
 10
335.0
 20
170.0
 10
269.0
 20
170.0
  0
TEXT
  5
FC
330
17
100
AcDbEntity
  8
TEXT
100
AcDbText
 10
217.0
 20
163.0
 30
0.0
 40
2.6
  1
END  (view scale 2.75:1)
100
AcDbText
  0
LWPOLYLINE
  5
FD
330
17
100
AcDbEntity
  8
DIM
100
AcDbPolyline
 90
2
 70
0
 10
89.11764705882354
 20
161.0
 10
124.88235294117646
 20
161.0
  0
LWPOLYLINE
  5
FE
330
17
100
AcDbEntity
  8
DIM
100
AcDbPolyline
 90
2
 70
0
 10
88.11764705882354
 20
160.0
 10
90.11764705882354
 20
162.0
  0
LWPOLYLINE
  5
FF
330
17
100
AcDbEntity
  8
DIM
100
AcDbPolyline
 90
2
 70
0
 10
123.88235294117646
 20
160.0
 10
125.88235294117646
 20
162.0
  0
TEXT
  5
100
330
17
100
AcDbEntity
  8
DIM
100
AcDbText
 10
100.7
 20
163.0
 30
0.0
 40
2.8
  1
16.0000 X
100
AcDbText
  0
LWPOLYLINE
  5
101
330
17
100
AcDbEntity
  8
DIM
100
AcDbPolyline
 90
2
 70
0
 10
202.0
 20
172.0
 10
202.0
 20
248.0
  0
LWPOLYLINE
  5
102
330
17
100
AcDbEntity
  8
DIM
100
AcDbPolyline
 90
2
 70
0
 10
201.0
 20
171.0
 10
203.0
 20
173.0
  0
LWPOLYLINE
  5
103
330
17
100
AcDbEntity
  8
DIM
100
AcDbPolyline
 90
2
 70
0
 10
201.0
 20
247.0
 10
203.0
 20
249.0
  0
TEXT
  5
104
330
17
100
AcDbEntity
  8
DIM
100
AcDbText
 10
204.0
 20
210.0
 30
0.0
 40
2.8
  1
34.00 Y
100
AcDbText
  0
LWPOLYLINE
  5
105
330
17
100
AcDbEntity
  8
DIM
100
AcDbPolyline
 90
2
 70
0
 10
202.0
 20
70.0
 10
202.0
 20
130.0
  0
LWPOLYLINE
  5
106
330
17
100
AcDbEntity
  8
DIM
100
AcDbPolyline
 90
2
 70
0
 10
201.0
 20
69.0
 10
203.0
 20
71.0
  0
LWPOLYLINE
  5
107
330
17
100
AcDbEntity
  8
DIM
100
AcDbPolyline
 90
2
 70
0
 10
201.0
 20
129.0
 10
203.0
 20
131.0
  0
TEXT
  5
108
330
17
100
AcDbEntity
  8
DIM
100
AcDbText
 10
204.0
 20
100.0
 30
0.0
 40
2.8
  1
28.00 Z
100
AcDbText
  0
TEXT
  5
109
330
17
100
AcDbEntity
  8
TEXT
100
AcDbText
 10
218.0
 20
128.0
 30
0.0
 40
2.8
  1
SPACER 3.00 thick; controls nominal inner-face separation.
100
AcDbText
  0
TEXT
  5
10A
330
17
100
AcDbEntity
  8
TEXT
100
AcDbText
 10
218.0
 20
117.0
 30
0.0
 40
2.8
  1
Plate34 wide; Z18 to42; magnetaxisY0,Z30.
100
AcDbText
  0
TEXT
  5
10B
330
17
100
AcDbEntity
  8
TEXT
100
AcDbText
 10
218.0
 20
106.0
 30
0.0
 40
2.8
  1
Foot16 x24 x2.50; bottomZ14; neck24 wide toZ18.
100
AcDbText
  0
TEXT
  5
10C
330
17
100
AcDbEntity
  8
TEXT
100
AcDbText
 10
218.0
 20
95.0
 30
0.0
 40
2.8
  1
Foot DIA3.40 holes at X0,Y+/-8. Use M3x10 screws.
100
AcDbText
  0
TEXT
  5
10D
330
17
100
AcDbEntity
  8
TEXT
100
AcDbText
 10
218.0
 20
84.0
 30
0.0
 40
2.8
  1
Cup clamp DIA3.40 holes alongX atY+/-14,Z30.
100
AcDbText
  0
TEXT
  5
10E
330
17
100
AcDbEntity
  8
TEXT
100
AcDbText
 10
218.0
 20
73.0
 30
0.0
 40
2.8
  1
Printed proxy for static tests; measure actual seated spacing.
100
AcDbText
  0
TEXT
  5
10F
330
17
100
AcDbEntity
  8
TEXT
100
AcDbText
 10
218.0
 20
51.0
 30
0.0
 40
2.55
  1
General prototype target: +/-0.20mm unless called out.
100
AcDbText
  0
TEXT
  5
110
330
17
100
AcDbEntity
  8
TEXT
100
AcDbText
 10
218.0
 20
41.0
 30
0.0
 40
2.55
  1
CAD is nominal. Fit, measure and qualify before calibration.
100
AcDbText
  0
ENDSEC
  0
SECTION
  2
OBJECTS
  0
DICTIONARY
  5
A
330
0
100
AcDbDictionary
281
1
  3
ACAD_COLOR
350
B
  3
ACAD_GROUP
350
C
  3
ACAD_LAYOUT
350
D
  3
ACAD_MATERIAL
350
E
  3
ACAD_MLEADERSTYLE
350
F
  3
ACAD_MLINESTYLE
350
10
  3
ACAD_PLOTSETTINGS
350
11
  3
ACAD_PLOTSTYLENAME
350
12
  3
ACAD_SCALELIST
350
14
  3
ACAD_TABLESTYLE
350
15
  3
ACAD_VISUALSTYLE
350
16
  3
EZDXF_META
350
2D
  0
DICTIONARY
  5
B
330
A
100
AcDbDictionary
281
1
  0
DICTIONARY
  5
C
330
A
100
AcDbDictionary
281
1
  0
DICTIONARY
  5
D
330
A
100
AcDbDictionary
281
1
  3
Model
350
1A
  3
Layout1
350
1E
  0
DICTIONARY
  5
E
330
A
100
AcDbDictionary
281
1
  3
ByBlock
350
1F
  3
ByLayer
350
20
  3
Global
350
21
  0
DICTIONARY
  5
F
330
A
100
AcDbDictionary
281
1
  3
Standard
350
2C
  0
DICTIONARY
  5
10
330
A
100
AcDbDictionary
281
1
  3
Standard
350
22
  0
DICTIONARY
  5
11
330
A
100
AcDbDictionary
281
1
  0
ACDBDICTIONARYWDFLT
  5
12
330
A
100
AcDbDictionary
281
1
  3
Normal
350
13
100
AcDbDictionaryWithDefault
340
13
  0
ACDBPLACEHOLDER
  5
13
330
12
  0
DICTIONARY
  5
14
330
A
100
AcDbDictionary
281
1
  0
DICTIONARY
  5
15
330
A
100
AcDbDictionary
281
1
  0
DICTIONARY
  5
16
330
A
100
AcDbDictionary
281
1
  0
LAYOUT
  5
1A
330
D
100
AcDbPlotSettings
  1

  4
A3
  6

 40
7.5
 41
20.0
 42
7.5
 43
20.0
 44
420.0
 45
297.0
 46
0.0
 47
0.0
 48
0.0
 49
0.0
140
0.0
141
0.0
142
1.0
143
1.0
 70
1024
 72
1
 73
0
 74
5
  7

 75
16
 76
0
 77
2
 78
300
147
1.0
148
0.0
149
0.0
100
AcDbLayout
  1
Model
 70
1
 71
0
 10
0.0
 20
0.0
 11
420.0
 21
297.0
 12
0.0
 22
0.0
 32
0.0
 14
1e+20
 24
1e+20
 34
1e+20
 15
-1e+20
 25
-1e+20
 35
-1e+20
146
0.0
 13
0.0
 23
0.0
 33
0.0
 16
1.0
 26
0.0
 36
0.0
 17
0.0
 27
1.0
 37
0.0
 76
1
330
17
  0
LAYOUT
  5
1E
330
D
100
AcDbPlotSettings
  1

  4
A3
  6

 40
7.5
 41
20.0
 42
7.5
 43
20.0
 44
420.0
 45
297.0
 46
0.0
 47
0.0
 48
0.0
 49
0.0
140
0.0
141
0.0
142
1.0
143
1.0
 70
0
 72
1
 73
0
 74
5
  7

 75
16
 76
0
 77
2
 78
300
147
1.0
148
0.0
149
0.0
100
AcDbLayout
  1
Layout1
 70
1
 71
1
 10
0.0
 20
0.0
 11
420.0
 21
297.0
 12
0.0
 22
0.0
 32
0.0
 14
1e+20
 24
1e+20
 34
1e+20
 15
-1e+20
 25
-1e+20
 35
-1e+20
146
0.0
 13
0.0
 23
0.0
 33
0.0
 16
1.0
 26
0.0
 36
0.0
 17
0.0
 27
1.0
 37
0.0
 76
1
330
1B
  0
MATERIAL
  5
1F
102
{ACAD_REACTORS
330
E
102
}
330
E
100
AcDbMaterial
  1
ByBlock
  2

 70
0
 40
1.0
 71
1
 41
1.0
 91
-1023410177
 42
1.0
 72
1
  3

 73
1
 74
1
 75
1
 44
0.5
 73
0
 45
1.0
 46
1.0
 77
1
  4

 78
1
 79
1
170
1
 48
1.0
171
1
  6

172
1
173
1
174
1
140
1.0
141
1.0
175
1
  7

176
1
177
1
178
1
143
1.0
179
1
  8

270
1
271
1
272
1
145
1.0
146
1.0
273
1
  9

274
1
275
1
276
1
 42
1.0
 72
1
  3

 73
1
 74
1
 75
1
 94
63
  0
MATERIAL
  5
20
102
{ACAD_REACTORS
330
E
102
}
330
E
100
AcDbMaterial
  1
ByLayer
  2

 70
0
 40
1.0
 71
1
 41
1.0
 91
-1023410177
 42
1.0
 72
1
  3

 73
1
 74
1
 75
1
 44
0.5
 73
0
 45
1.0
 46
1.0
 77
1
  4

 78
1
 79
1
170
1
 48
1.0
171
1
  6

172
1
173
1
174
1
140
1.0
141
1.0
175
1
  7

176
1
177
1
178
1
143
1.0
179
1
  8

270
1
271
1
272
1
145
1.0
146
1.0
273
1
  9

274
1
275
1
276
1
 42
1.0
 72
1
  3

 73
1
 74
1
 75
1
 94
63
  0
MATERIAL
  5
21
102
{ACAD_REACTORS
330
E
102
}
330
E
100
AcDbMaterial
  1
Global
  2

 70
0
 40
1.0
 71
1
 41
1.0
 91
-1023410177
 42
1.0
 72
1
  3

 73
1
 74
1
 75
1
 44
0.5
 73
0
 45
1.0
 46
1.0
 77
1
  4

 78
1
 79
1
170
1
 48
1.0
171
1
  6

172
1
173
1
174
1
140
1.0
141
1.0
175
1
  7

176
1
177
1
178
1
143
1.0
179
1
  8

270
1
271
1
272
1
145
1.0
146
1.0
273
1
  9

274
1
275
1
276
1
 42
1.0
 72
1
  3

 73
1
 74
1
 75
1
 94
63
  0
MLINESTYLE
  5
22
102
{ACAD_REACTORS
330
10
102
}
330
10
100
AcDbMlineStyle
  2
Standard
 70
0
  3

 62
256
 51
90.0
 52
90.0
 71
2
 49
0.5
 62
256
  6
BYLAYER
 49
-0.5
 62
256
  6
BYLAYER
  0
MLEADERSTYLE
  5
2C
102
{ACAD_REACTORS
330
F
102
}
330
F
100
AcDbMLeaderStyle
179
2
170
2
171
1
172
0
 90
2
 40
0.0
 41
0.0
173
1
 91
-1056964608
 92
-2
290
1
 42
2.0
291
1
 43
8.0
  3
Standard
 44
4.0
300

342
29
174
1
175
1
176
0
178
1
 93
-1056964608
 45
4.0
292
0
297
0
 46
4.0
 94
-1056964608
 47
1.0
 49
1.0
140
1.0
294
1
141
0.0
177
0
142
1.0
295
0
296
0
143
3.75
271
0
272
9
273
9
  0
DICTIONARY
  5
2D
330
A
100
AcDbDictionary
280
1
281
1
  3
CREATED_BY_EZDXF
350
2E
  3
WRITTEN_BY_EZDXF
350
113
  0
DICTIONARYVAR
  5
2E
330
2D
100
DictionaryVariables
280
0
  1
1.4.4 @ 2026-09-10T02:54:36.732256+00:00
  0
DICTIONARYVAR
  5
113
330
2D
100
DictionaryVariables
280
0
  1
1.4.4 @ 2026-09-10T02:54:36.793269+00:00
  0
ENDSEC
  0
EOF
