  0
SECTION
  2
HEADER
  9
$ACADVER
  1
AC1015
  9
$ACADMAINTVER
 70
6
  9
$DWGCODEPAGE
  3
ANSI_1252
  9
$INSBASE
 10
0.0
 20
0.0
 30
0.0
  9
$EXTMIN
 10
1e+20
 20
1e+20
 30
1e+20
  9
$EXTMAX
 10
-1e+20
 20
-1e+20
 30
-1e+20
  9
$LIMMIN
 10
0.0
 20
0.0
  9
$LIMMAX
 10
420.0
 20
297.0
  9
$ORTHOMODE
 70
0
  9
$REGENMODE
 70
1
  9
$FILLMODE
 70
1
  9
$QTEXTMODE
 70
0
  9
$MIRRTEXT
 70
1
  9
$LTSCALE
 40
1.0
  9
$ATTMODE
 70
1
  9
$TEXTSIZE
 40
2.5
  9
$TRACEWID
 40
1.0
  9
$TEXTSTYLE
  7
Standard
  9
$CLAYER
  8
0
  9
$CELTYPE
  6
ByLayer
  9
$CECOLOR
 62
256
  9
$CELTSCALE
 40
1.0
  9
$DISPSILH
 70
0
  9
$DIMSCALE
 40
1.0
  9
$DIMASZ
 40
2.5
  9
$DIMEXO
 40
0.625
  9
$DIMDLI
 40
3.75
  9
$DIMRND
 40
0.0
  9
$DIMDLE
 40
0.0
  9
$DIMEXE
 40
1.25
  9
$DIMTP
 40
0.0
  9
$DIMTM
 40
0.0
  9
$DIMTXT
 40
2.5
  9
$DIMCEN
 40
2.5
  9
$DIMTSZ
 40
0.0
  9
$DIMTOL
 70
0
  9
$DIMLIM
 70
0
  9
$DIMTIH
 70
0
  9
$DIMTOH
 70
0
  9
$DIMSE1
 70
0
  9
$DIMSE2
 70
0
  9
$DIMTAD
 70
1
  9
$DIMZIN
 70
8
  9
$DIMBLK
  1

  9
$DIMASO
 70
1
  9
$DIMSHO
 70
1
  9
$DIMPOST
  1

  9
$DIMAPOST
  1

  9
$DIMALT
 70
0
  9
$DIMALTD
 70
3
  9
$DIMALTF
 40
0.03937007874
  9
$DIMLFAC
 40
1.0
  9
$DIMTOFL
 70
1
  9
$DIMTVP
 40
0.0
  9
$DIMTIX
 70
0
  9
$DIMSOXD
 70
0
  9
$DIMSAH
 70
0
  9
$DIMBLK1
  1

  9
$DIMBLK2
  1

  9
$DIMSTYLE
  2
ISO-25
  9
$DIMCLRD
 70
0
  9
$DIMCLRE
 70
0
  9
$DIMCLRT
 70
0
  9
$DIMTFAC
 40
1.0
  9
$DIMGAP
 40
0.625
  9
$DIMJUST
 70
0
  9
$DIMSD1
 70
0
  9
$DIMSD2
 70
0
  9
$DIMTOLJ
 70
0
  9
$DIMTZIN
 70
8
  9
$DIMALTZ
 70
0
  9
$DIMALTTZ
 70
0
  9
$DIMUPT
 70
0
  9
$DIMDEC
 70
2
  9
$DIMTDEC
 70
2
  9
$DIMALTU
 70
2
  9
$DIMALTTD
 70
3
  9
$DIMTXSTY
  7
Standard
  9
$DIMAUNIT
 70
0
  9
$DIMADEC
 70
0
  9
$DIMALTRND
 40
0.0
  9
$DIMAZIN
 70
0
  9
$DIMDSEP
 70
44
  9
$DIMATFIT
 70
3
  9
$DIMFRAC
 70
0
  9
$DIMLDRBLK
  1

  9
$DIMLUNIT
 70
2
  9
$DIMLWD
 70
-2
  9
$DIMLWE
 70
-2
  9
$DIMTMOVE
 70
0
  9
$LUNITS
 70
2
  9
$LUPREC
 70
4
  9
$SKETCHINC
 40
1.0
  9
$FILLETRAD
 40
10.0
  9
$AUNITS
 70
0
  9
$AUPREC
 70
2
  9
$MENU
  1
.
  9
$ELEVATION
 40
0.0
  9
$PELEVATION
 40
0.0
  9
$THICKNESS
 40
0.0
  9
$LIMCHECK
 70
0
  9
$CHAMFERA
 40
0.0
  9
$CHAMFERB
 40
0.0
  9
$CHAMFERC
 40
0.0
  9
$CHAMFERD
 40
0.0
  9
$SKPOLY
 70
0
  9
$TDCREATE
 40
2461293.912916667
  9
$TDUCREATE
 40
2458532.153996898
  9
$TDUPDATE
 40
2461293.912928241
  9
$TDUUPDATE
 40
2458532.1544311
  9
$TDINDWG
 40
0.0
  9
$TDUSRTIMER
 40
0.0
  9
$USRTIMER
 70
1
  9
$ANGBASE
 50
0.0
  9
$ANGDIR
 70
0
  9
$PDMODE
 70
0
  9
$PDSIZE
 40
0.0
  9
$PLINEWID
 40
0.0
  9
$SPLFRAME
 70
0
  9
$SPLINETYPE
 70
6
  9
$SPLINESEGS
 70
8
  9
$HANDSEED
  5
111
  9
$SURFTAB1
 70
6
  9
$SURFTAB2
 70
6
  9
$SURFTYPE
 70
6
  9
$SURFU
 70
6
  9
$SURFV
 70
6
  9
$UCSBASE
  2

  9
$UCSNAME
  2

  9
$UCSORG
 10
0.0
 20
0.0
 30
0.0
  9
$UCSXDIR
 10
1.0
 20
0.0
 30
0.0
  9
$UCSYDIR
 10
0.0
 20
1.0
 30
0.0
  9
$UCSORTHOREF
  2

  9
$UCSORTHOVIEW
 70
0
  9
$UCSORGTOP
 10
0.0
 20
0.0
 30
0.0
  9
$UCSORGBOTTOM
 10
0.0
 20
0.0
 30
0.0
  9
$UCSORGLEFT
 10
0.0
 20
0.0
 30
0.0
  9
$UCSORGRIGHT
 10
0.0
 20
0.0
 30
0.0
  9
$UCSORGFRONT
 10
0.0
 20
0.0
 30
0.0
  9
$UCSORGBACK
 10
0.0
 20
0.0
 30
0.0
  9
$PUCSBASE
  2

  9
$PUCSNAME
  2

  9
$PUCSORG
 10
0.0
 20
0.0
 30
0.0
  9
$PUCSXDIR
 10
1.0
 20
0.0
 30
0.0
  9
$PUCSYDIR
 10
0.0
 20
1.0
 30
0.0
  9
$PUCSORTHOREF
  2

  9
$PUCSORTHOVIEW
 70
0
  9
$PUCSORGTOP
 10
0.0
 20
0.0
 30
0.0
  9
$PUCSORGBOTTOM
 10
0.0
 20
0.0
 30
0.0
  9
$PUCSORGLEFT
 10
0.0
 20
0.0
 30
0.0
  9
$PUCSORGRIGHT
 10
0.0
 20
0.0
 30
0.0
  9
$PUCSORGFRONT
 10
0.0
 20
0.0
 30
0.0
  9
$PUCSORGBACK
 10
0.0
 20
0.0
 30
0.0
  9
$USERI1
 70
0
  9
$USERI2
 70
0
  9
$USERI3
 70
0
  9
$USERI4
 70
0
  9
$USERI5
 70
0
  9
$USERR1
 40
0.0
  9
$USERR2
 40
0.0
  9
$USERR3
 40
0.0
  9
$USERR4
 40
0.0
  9
$USERR5
 40
0.0
  9
$WORLDVIEW
 70
1
  9
$SHADEDGE
 70
3
  9
$SHADEDIF
 70
70
  9
$TILEMODE
 70
1
  9
$MAXACTVP
 70
64
  9
$PINSBASE
 10
0.0
 20
0.0
 30
0.0
  9
$PLIMCHECK
 70
0
  9
$PEXTMIN
 10
1e+20
 20
1e+20
 30
1e+20
  9
$PEXTMAX
 10
-1e+20
 20
-1e+20
 30
-1e+20
  9
$PLIMMIN
 10
0.0
 20
0.0
  9
$PLIMMAX
 10
420.0
 20
297.0
  9
$UNITMODE
 70
0
  9
$VISRETAIN
 70
1
  9
$PLINEGEN
 70
0
  9
$PSLTSCALE
 70
1
  9
$TREEDEPTH
 70
3020
  9
$CMLSTYLE
  2
Standard
  9
$CMLJUST
 70
0
  9
$CMLSCALE
 40
20.0
  9
$PROXYGRAPHICS
 70
1
  9
$MEASUREMENT
 70
1
  9
$CELWEIGHT
370
-1
  9
$ENDCAPS
280
0
  9
$JOINSTYLE
280
0
  9
$LWDISPLAY
290
0
  9
$INSUNITS
 70
4
  9
$HYPERLINKBASE
  1

  9
$STYLESHEET
  1

  9
$XEDIT
290
1
  9
$CEPSNTYPE
380
0
  9
$PSTYLEMODE
290
1
  9
$FINGERPRINTGUID
  2
{3C928CAE-CEBB-4F5F-A6F3-9D5100105A7C}
  9
$VERSIONGUID
  2
{E37933C1-2888-4D4C-BCE2-1460C880E02A}
  9
$EXTNAMES
290
1
  9
$PSVPSCALE
 40
0.0
  9
$OLESTARTUP
290
0
  0
ENDSEC
  0
SECTION
  2
CLASSES
  0
CLASS
  1
ACDBDICTIONARYWDFLT
  2
AcDbDictionaryWithDefault
  3
ObjectDBX Classes
 90
0
280
0
281
0
  0
CLASS
  1
SUN
  2
AcDbSun
  3
SCENEOE
 90
1153
280
0
281
0
  0
CLASS
  1
VISUALSTYLE
  2
AcDbVisualStyle
  3
ObjectDBX Classes
 90
4095
280
0
281
0
  0
CLASS
  1
MATERIAL
  2
AcDbMaterial
  3
ObjectDBX Classes
 90
1153
280
0
281
0
  0
CLASS
  1
SCALE
  2
AcDbScale
  3
ObjectDBX Classes
 90
1153
280
0
281
0
  0
CLASS
  1
TABLESTYLE
  2
AcDbTableStyle
  3
ObjectDBX Classes
 90
4095
280
0
281
0
  0
CLASS
  1
MLEADERSTYLE
  2
AcDbMLeaderStyle
  3
ACDB_MLEADERSTYLE_CLASS
 90
4095
280
0
281
0
  0
CLASS
  1
DICTIONARYVAR
  2
AcDbDictionaryVar
  3
ObjectDBX Classes
 90
0
280
0
281
0
  0
CLASS
  1
CELLSTYLEMAP
  2
AcDbCellStyleMap
  3
ObjectDBX Classes
 90
1152
280
0
281
0
  0
CLASS
  1
MENTALRAYRENDERSETTINGS
  2
AcDbMentalRayRenderSettings
  3
SCENEOE
 90
1024
280
0
281
0
  0
CLASS
  1
ACDBDETAILVIEWSTYLE
  2
AcDbDetailViewStyle
  3
ObjectDBX Classes
 90
1025
280
0
281
0
  0
CLASS
  1
ACDBSECTIONVIEWSTYLE
  2
AcDbSectionViewStyle
  3
ObjectDBX Classes
 90
1025
280
0
281
0
  0
CLASS
  1
RASTERVARIABLES
  2
AcDbRasterVariables
  3
ISM
 90
0
280
0
281
0
  0
CLASS
  1
ACDBPLACEHOLDER
  2
AcDbPlaceHolder
  3
ObjectDBX Classes
 90
0
280
0
281
0
  0
CLASS
  1
LAYOUT
  2
AcDbLayout
  3
ObjectDBX Classes
 90
0
280
0
281
0
  0
ENDSEC
  0
SECTION
  2
TABLES
  0
TABLE
  2
VPORT
  5
8
330
0
100
AcDbSymbolTable
 70
1
  0
VPORT
  5
23
330
8
100
AcDbSymbolTableRecord
100
AcDbViewportTableRecord
  2
*Active
 70
0
 10
0.0
 20
0.0
 11
1.0
 21
1.0
 12
0.0
 22
0.0
 13
0.0
 23
0.0
 14
0.5
 24
0.5
 15
0.5
 25
0.5
 16
0.0
 26
0.0
 36
1.0
 17
0.0
 27
0.0
 37
0.0
 40
1000.0
 41
1.34
 42
50.0
 43
0.0
 44
0.0
 50
0.0
 51
0.0
 71
0
 72
1000
 73
1
 74
3
 75
0
 76
0
 77
0
 78
0
281
0
 65
0
146
0.0
  0
ENDTAB
  0
TABLE
  2
LTYPE
  5
2
330
0
100
AcDbSymbolTable
 70
3
  0
LTYPE
  5
24
330
2
100
AcDbSymbolTableRecord
100
AcDbLinetypeTableRecord
  2
ByBlock
 70
0
  3

 72
65
 73
0
 40
0.0
  0
LTYPE
  5
25
330
2
100
AcDbSymbolTableRecord
100
AcDbLinetypeTableRecord
  2
ByLayer
 70
0
  3

 72
65
 73
0
 40
0.0
  0
LTYPE
  5
26
330
2
100
AcDbSymbolTableRecord
100
AcDbLinetypeTableRecord
  2
Continuous
 70
0
  3

 72
65
 73
0
 40
0.0
  0
ENDTAB
  0
TABLE
  2
LAYER
  5
1
330
0
100
AcDbSymbolTable
 70
6
  0
LAYER
  5
27
330
1
100
AcDbSymbolTableRecord
100
AcDbLayerTableRecord
  2
0
 70
0
 62
7
  6
Continuous
370
-3
390
13
  0
LAYER
  5
28
330
1
100
AcDbSymbolTableRecord
100
AcDbLayerTableRecord
  2
Defpoints
 70
0
 62
7
  6
Continuous
290
0
370
-3
390
13
  0
LAYER
  5
2F
330
1
100
AcDbSymbolTableRecord
100
AcDbLayerTableRecord
  2
OUTLINE
 70
0
 62
7
  6
Continuous
370
-3
390
13
  0
LAYER
  5
30
330
1
100
AcDbSymbolTableRecord
100
AcDbLayerTableRecord
  2
HIDDEN
 70
0
 62
8
  6
Continuous
370
-3
390
13
  0
LAYER
  5
31
330
1
100
AcDbSymbolTableRecord
100
AcDbLayerTableRecord
  2
DIM
 70
0
 62
4
  6
Continuous
370
-3
390
13
  0
LAYER
  5
32
330
1
100
AcDbSymbolTableRecord
100
AcDbLayerTableRecord
  2
TEXT
 70
0
 62
7
  6
Continuous
370
-3
390
13
  0
ENDTAB
  0
TABLE
  2
STYLE
  5
5
330
0
100
AcDbSymbolTable
 70
1
  0
STYLE
  5
29
330
5
100
AcDbSymbolTableRecord
100
AcDbTextStyleTableRecord
  2
Standard
 70
0
 40
0.0
 41
1.0
 50
0.0
 71
0
 42
2.5
  3
txt
  4

  0
ENDTAB
  0
TABLE
  2
VIEW
  5
7
330
0
100
AcDbSymbolTable
 70
0
  0
ENDTAB
  0
TABLE
  2
UCS
  5
6
330
0
100
AcDbSymbolTable
 70
0
  0
ENDTAB
  0
TABLE
  2
APPID
  5
3
330
0
100
AcDbSymbolTable
 70
3
  0
APPID
  5
2A
330
3
100
AcDbSymbolTableRecord
100
AcDbRegAppTableRecord
  2
ACAD
 70
0
  0
APPID
  5
10E
330
3
100
AcDbSymbolTableRecord
100
AcDbRegAppTableRecord
  2
HATCHBACKGROUNDCOLOR
 70
0
  0
APPID
  5
10F
330
3
100
AcDbSymbolTableRecord
100
AcDbRegAppTableRecord
  2
EZDXF
 70
0
  0
ENDTAB
  0
TABLE
  2
DIMSTYLE
  5
4
330
0
100
AcDbSymbolTable
 70
1
100
AcDbDimStyleTable
  0
DIMSTYLE
105
2B
330
4
100
AcDbSymbolTableRecord
100
AcDbDimStyleTableRecord
  2
Standard
 70
0
  3

  4

 40
1.0
 41
2.5
 42
0.625
 43
3.75
 44
1.25
 45
0.0
 46
0.0
 47
0.0
 48
0.0
140
2.5
141
2.5
142
0.0
143
0.03937007874
144
1.0
145
0.0
146
1.0
147
0.625
148
0.0
 71
0
 72
0
 73
0
 74
0
 75
0
 76
0
 77
1
 78
8
 79
3
170
0
171
3
172
1
173
0
174
0
175
0
176
0
177
0
178
0
179
2
271
2
272
2
273
2
274
3
275
0
276
0
277
2
278
44
279
0
280
0
281
0
282
0
283
0
284
8
285
0
286
0
288
0
289
3
371
-2
372
-2
  0
ENDTAB
  0
TABLE
  2
BLOCK_RECORD
  5
9
330
0
100
AcDbSymbolTable
 70
2
  0
BLOCK_RECORD
  5
17
330
9
100
AcDbSymbolTableRecord
100
AcDbBlockTableRecord
  2
*Model_Space
340
1A
  0
BLOCK_RECORD
  5
1B
330
9
100
AcDbSymbolTableRecord
100
AcDbBlockTableRecord
  2
*Paper_Space
340
1E
  0
ENDTAB
  0
ENDSEC
  0
SECTION
  2
BLOCKS
  0
BLOCK
  5
18
330
17
100
AcDbEntity
  8
0
100
AcDbBlockBegin
  2
*Model_Space
 70
0
 10
0.0
 20
0.0
 30
0.0
  3
*Model_Space
  1

  0
ENDBLK
  5
19
330
17
100
AcDbEntity
  8
0
100
AcDbBlockEnd
  0
BLOCK
  5
1C
330
1B
100
AcDbEntity
  8
0
100
AcDbBlockBegin
  2
*Paper_Space
 70
0
 10
0.0
 20
0.0
 30
0.0
  3
*Paper_Space
  1

  0
ENDBLK
  5
1D
330
1B
100
AcDbEntity
  8
0
100
AcDbBlockEnd
  0
ENDSEC
  0
SECTION
  2
ENTITIES
  0
LWPOLYLINE
  5
33
330
17
100
AcDbEntity
  8
OUTLINE
100
AcDbPolyline
 90
5
 70
0
 10
8.0
 20
8.0
 10
412.0
 20
8.0
 10
412.0
 20
289.0
 10
8.0
 20
289.0
 10
8.0
 20
8.0
  0
TEXT
  5
34
330
17
100
AcDbEntity
  8
TEXT
100
AcDbText
 10
15.0
 20
278.0
 30
0.0
 40
5.0
  1
P05A  |  P05A SPACER 1MM OPTION
100
AcDbText
  0
TEXT
  5
35
330
17
100
AcDbEntity
  8
TEXT
100
AcDbText
 10
15.0
 20
270.0
 30
0.0
 40
2.6
  1
Prototype Rev A | Units mm | Dimensions control; do not scale printed pages
100
AcDbText
  0
LWPOLYLINE
  5
36
330
17
100
AcDbEntity
  8
OUTLINE
100
AcDbPolyline
 90
2
 70
0
 10
8.0
 20
32.0
 10
412.0
 20
32.0
  0
TEXT
  5
37
330
17
100
AcDbEntity
  8
TEXT
100
AcDbText
 10
15.0
 20
22.0
 30
0.0
 40
3.0
  1
HF-01  /  MAGNET-SENSOR CHARACTERIZATION
100
AcDbText
  0
TEXT
  5
38
330
17
100
AcDbEntity
  8
TEXT
100
AcDbText
 10
15.0
 20
15.0
 30
0.0
 40
2.4
  1
REV A  |  2026-09-09  |  Printed parts + McMaster COTS  |  Room-temperature bench prototype
100
AcDbText
  0
TEXT
  5
39
330
17
100
AcDbEntity
  8
TEXT
100
AcDbText
 10
332.0
 20
20.0
 30
0.0
 40
3.0
  1
P05A  |  A3  |  MM
100
AcDbText
  0
LWPOLYLINE
  5
3A
330
17
100
AcDbEntity
  8
HIDDEN
100
AcDbPolyline
 90
2
 70
0
 10
105.88235294117646
 20
172.0
 10
105.88235294117646
 20
183.1764705882353
  0
LWPOLYLINE
  5
3B
330
17
100
AcDbEntity
  8
HIDDEN
100
AcDbPolyline
 90
2
 70
0
 10
105.88235294117646
 20
183.1764705882353
 10
105.88235294117646
 20
188.48572400733923
  0
LWPOLYLINE
  5
3C
330
17
100
AcDbEntity
  8
HIDDEN
100
AcDbPolyline
 90
2
 70
0
 10
105.88235294117646
 20
195.74957011030784
 10
105.88235294117646
 20
188.48572400733923
  0
LWPOLYLINE
  5
3D
330
17
100
AcDbEntity
  8
HIDDEN
100
AcDbPolyline
 90
2
 70
0
 10
105.88235294117646
 20
195.74957011030784
 10
105.88235294117646
 20
224.25042988969216
  0
LWPOLYLINE
  5
3E
330
17
100
AcDbEntity
  8
HIDDEN
100
AcDbPolyline
 90
2
 70
0
 10
105.88235294117646
 20
231.51427599266077
 10
105.88235294117646
 20
224.25042988969216
  0
LWPOLYLINE
  5
3F
330
17
100
AcDbEntity
  8
HIDDEN
100
AcDbPolyline
 90
2
 70
0
 10
105.88235294117646
 20
231.51427599266077
 10
105.88235294117646
 20
236.8235294117647
  0
LWPOLYLINE
  5
40
330
17
100
AcDbEntity
  8
HIDDEN
100
AcDbPolyline
 90
2
 70
0
 10
105.88235294117646
 20
236.8235294117647
 10
105.88235294117646
 20
248.0
  0
LWPOLYLINE
  5
41
330
17
100
AcDbEntity
  8
HIDDEN
100
AcDbPolyline
 90
15
 70
0
 10
105.88235294117646
 20
241.29411764705884
 10
105.88235294117646
 20
240.86865263786626
 10
105.88235294117646
 20
240.44853809802484
 10
105.88235294117646
 20
240.0390572116292
 10
105.88235294117646
 20
239.6453594384121
 10
105.88235294117646
 20
239.27239575630054
 10
105.88235294117646
 20
238.92485639999563
 10
105.88235294117646
 20
238.60711187854994
 10
105.88235294117646
 20
238.3231580136803
 10
105.88235294117646
 20
238.07656568999136
 10
105.88235294117646
 20
237.87043594902963
 10
105.88235294117646
 20
237.70736099188701
 10
105.88235294117646
 20
237.58939158076788
 10
105.88235294117646
 20
237.5180112494645
 10
105.88235294117646
 20
237.49411764705883
  0
LWPOLYLINE
  5
42
330
17
100
AcDbEntity
  8
HIDDEN
100
AcDbPolyline
 90
15
 70
0
 10
105.88235294117646
 20
237.49411764705883
 10
105.88235294117646
 20
237.58939158076788
 10
105.88235294117646
 20
237.87043594902963
 10
105.88235294117646
 20
238.3231580136803
 10
105.88235294117646
 20
238.92485639999563
 10
105.88235294117646
 20
239.6453594384121
 10
105.88235294117646
 20
240.44853809802484
 10
105.88235294117646
 20
241.29411764705884
 10
105.88235294117646
 20
242.1396971960928
 10
105.88235294117646
 20
242.94287585570555
 10
105.88235294117646
 20
243.66337889412202
 10
105.88235294117646
 20
244.26507728043734
 10
105.88235294117646
 20
244.71779934508803
 10
105.88235294117646
 20
244.99884371334974
 10
105.88235294117646
 20
245.09411764705882
  0
LWPOLYLINE
  5
43
330
17
100
AcDbEntity
  8
HIDDEN
100
AcDbPolyline
 90
15
 70
0
 10
105.88235294117646
 20
245.09411764705882
 10
105.88235294117646
 20
245.07022404465314
 10
105.88235294117646
 20
244.99884371334974
 10
105.88235294117646
 20
244.8808743022306
 10
105.88235294117646
 20
244.71779934508803
 10
105.88235294117646
 20
244.5116696041263
 10
105.88235294117646
 20
244.26507728043734
 10
105.88235294117646
 20
243.9811234155677
 10
105.88235294117646
 20
243.66337889412202
 10
105.88235294117646
 20
243.3158395378171
 10
105.88235294117646
 20
242.94287585570555
 10
105.88235294117646
 20
242.54917808248845
 10
105.88235294117646
 20
242.1396971960928
 10
105.88235294117646
 20
241.7195826562514
 10
105.88235294117646
 20
241.29411764705884
  0
LWPOLYLINE
  5
44
330
17
100
AcDbEntity
  8
HIDDEN
100
AcDbPolyline
 90
15
 70
0
 10
105.88235294117646
 20
178.70588235294116
 10
105.88235294117646
 20
178.2804173437486
 10
105.88235294117646
 20
177.8603028039072
 10
105.88235294117646
 20
177.45082191751155
 10
105.88235294117646
 20
177.05712414429445
 10
105.88235294117646
 20
176.6841604621829
 10
105.88235294117646
 20
176.33662110587798
 10
105.88235294117646
 20
176.0188765844323
 10
105.88235294117646
 20
175.73492271956266
 10
105.88235294117646
 20
175.4883303958737
 10
105.88235294117646
 20
175.28220065491197
 10
105.88235294117646
 20
175.1191256977694
 10
105.88235294117646
 20
175.00115628665026
 10
105.88235294117646
 20
174.92977595534686
 10
105.88235294117646
 20
174.90588235294118
  0
LWPOLYLINE
  5
45
330
17
100
AcDbEntity
  8
HIDDEN
100
AcDbPolyline
 90
15
 70
0
 10
105.88235294117646
 20
174.90588235294118
 10
105.88235294117646
 20
175.00115628665026
 10
105.88235294117646
 20
175.28220065491197
 10
105.88235294117646
 20
175.73492271956266
 10
105.88235294117646
 20
176.33662110587798
 10
105.88235294117646
 20
177.05712414429445
 10
105.88235294117646
 20
177.8603028039072
 10
105.88235294117646
 20
178.70588235294116
 10
105.88235294117646
 20
179.55146190197516
 10
105.88235294117646
 20
180.3546405615879
 10
105.88235294117646
 20
181.07514360000437
 10
105.88235294117646
 20
181.6768419863197
 10
105.88235294117646
 20
182.12956405097037
 10
105.88235294117646
 20
182.41060841923212
 10
105.88235294117646
 20
182.50588235294117
  0
LWPOLYLINE
  5
46
330
17
100
AcDbEntity
  8
HIDDEN
100
AcDbPolyline
 90
15
 70
0
 10
105.88235294117646
 20
182.50588235294117
 10
105.88235294117646
 20
182.4819887505355
 10
105.88235294117646
 20
182.41060841923212
 10
105.88235294117646
 20
182.29263900811299
 10
105.88235294117646
 20
182.12956405097037
 10
105.88235294117646
 20
181.92343431000864
 10
105.88235294117646
 20
181.6768419863197
 10
105.88235294117646
 20
181.39288812145006
 10
105.88235294117646
 20
181.07514360000437
 10
105.88235294117646
 20
180.72760424369946
 10
105.88235294117646
 20
180.3546405615879
 10
105.88235294117646
 20
179.9609427883708
 10
105.88235294117646
 20
179.55146190197516
 10
105.88235294117646
 20
179.13134736213374
 10
105.88235294117646
 20
178.70588235294122
  0
LWPOLYLINE
  5
47
330
17
100
AcDbEntity
  8
HIDDEN
100
AcDbPolyline
 90
2
 70
0
 10
105.88235294117646
 20
172.0
 10
108.11764705882354
 20
172.0
  0
LWPOLYLINE
  5
48
330
17
100
AcDbEntity
  8
HIDDEN
100
AcDbPolyline
 90
2
 70
0
 10
105.88235294117646
 20
183.1764705882353
 10
108.11764705882354
 20
183.1764705882353
  0
LWPOLYLINE
  5
49
330
17
100
AcDbEntity
  8
HIDDEN
100
AcDbPolyline
 90
2
 70
0
 10
108.11764705882354
 20
172.0
 10
108.11764705882354
 20
183.1764705882353
  0
LWPOLYLINE
  5
4A
330
17
100
AcDbEntity
  8
HIDDEN
100
AcDbPolyline
 90
2
 70
0
 10
105.88235294117646
 20
248.0
 10
108.11764705882354
 20
248.0
  0
LWPOLYLINE
  5
4B
330
17
100
AcDbEntity
  8
HIDDEN
100
AcDbPolyline
 90
2
 70
0
 10
108.11764705882354
 20
236.8235294117647
 10
108.11764705882354
 20
248.0
  0
LWPOLYLINE
  5
4C
330
17
100
AcDbEntity
  8
HIDDEN
100
AcDbPolyline
 90
2
 70
0
 10
105.88235294117646
 20
236.8235294117647
 10
108.11764705882354
 20
236.8235294117647
  0
LWPOLYLINE
  5
4D
330
17
100
AcDbEntity
  8
HIDDEN
100
AcDbPolyline
 90
15
 70
0
 10
108.11764705882354
 20
241.29411764705884
 10
108.11764705882354
 20
240.86865263786626
 10
108.11764705882354
 20
240.44853809802484
 10
108.11764705882354
 20
240.0390572116292
 10
108.11764705882354
 20
239.6453594384121
 10
108.11764705882354
 20
239.27239575630054
 10
108.11764705882354
 20
238.92485639999563
 10
108.11764705882354
 20
238.60711187854994
 10
108.11764705882354
 20
238.3231580136803
 10
108.11764705882354
 20
238.07656568999136
 10
108.11764705882354
 20
237.87043594902963
 10
108.11764705882354
 20
237.70736099188701
 10
108.11764705882354
 20
237.58939158076788
 10
108.11764705882354
 20
237.5180112494645
 10
108.11764705882354
 20
237.49411764705883
  0
LWPOLYLINE
  5
4E
330
17
100
AcDbEntity
  8
HIDDEN
100
AcDbPolyline
 90
15
 70
0
 10
108.11764705882354
 20
237.49411764705883
 10
108.11764705882354
 20
237.58939158076788
 10
108.11764705882354
 20
237.87043594902963
 10
108.11764705882354
 20
238.3231580136803
 10
108.11764705882354
 20
238.92485639999563
 10
108.11764705882354
 20
239.6453594384121
 10
108.11764705882354
 20
240.44853809802484
 10
108.11764705882354
 20
241.29411764705884
 10
108.11764705882354
 20
242.1396971960928
 10
108.11764705882354
 20
242.94287585570555
 10
108.11764705882354
 20
243.66337889412202
 10
108.11764705882354
 20
244.26507728043734
 10
108.11764705882354
 20
244.71779934508803
 10
108.11764705882354
 20
244.99884371334974
 10
108.11764705882354
 20
245.09411764705882
  0
LWPOLYLINE
  5
4F
330
17
100
AcDbEntity
  8
HIDDEN
100
AcDbPolyline
 90
15
 70
0
 10
108.11764705882354
 20
245.09411764705882
 10
108.11764705882354
 20
245.07022404465314
 10
108.11764705882354
 20
244.99884371334974
 10
108.11764705882354
 20
244.8808743022306
 10
108.11764705882354
 20
244.71779934508803
 10
108.11764705882354
 20
244.5116696041263
 10
108.11764705882354
 20
244.26507728043734
 10
108.11764705882354
 20
243.9811234155677
 10
108.11764705882354
 20
243.66337889412202
 10
108.11764705882354
 20
243.3158395378171
 10
108.11764705882354
 20
242.94287585570555
 10
108.11764705882354
 20
242.54917808248845
 10
108.11764705882354
 20
242.1396971960928
 10
108.11764705882354
 20
241.7195826562514
 10
108.11764705882354
 20
241.29411764705884
  0
LWPOLYLINE
  5
50
330
17
100
AcDbEntity
  8
HIDDEN
100
AcDbPolyline
 90
15
 70
0
 10
108.11764705882354
 20
178.70588235294116
 10
108.11764705882354
 20
178.2804173437486
 10
108.11764705882354
 20
177.8603028039072
 10
108.11764705882354
 20
177.45082191751155
 10
108.11764705882354
 20
177.05712414429445
 10
108.11764705882354
 20
176.6841604621829
 10
108.11764705882354
 20
176.33662110587798
 10
108.11764705882354
 20
176.0188765844323
 10
108.11764705882354
 20
175.73492271956266
 10
108.11764705882354
 20
175.4883303958737
 10
108.11764705882354
 20
175.28220065491197
 10
108.11764705882354
 20
175.1191256977694
 10
108.11764705882354
 20
175.00115628665026
 10
108.11764705882354
 20
174.92977595534686
 10
108.11764705882354
 20
174.90588235294118
  0
LWPOLYLINE
  5
51
330
17
100
AcDbEntity
  8
HIDDEN
100
AcDbPolyline
 90
15
 70
0
 10
108.11764705882354
 20
174.90588235294118
 10
108.11764705882354
 20
175.00115628665026
 10
108.11764705882354
 20
175.28220065491197
 10
108.11764705882354
 20
175.73492271956266
 10
108.11764705882354
 20
176.33662110587798
 10
108.11764705882354
 20
177.05712414429445
 10
108.11764705882354
 20
177.8603028039072
 10
108.11764705882354
 20
178.70588235294116
 10
108.11764705882354
 20
179.55146190197516
 10
108.11764705882354
 20
180.3546405615879
 10
108.11764705882354
 20
181.07514360000437
 10
108.11764705882354
 20
181.6768419863197
 10
108.11764705882354
 20
182.12956405097037
 10
108.11764705882354
 20
182.41060841923212
 10
108.11764705882354
 20
182.50588235294117
  0
LWPOLYLINE
  5
52
330
17
100
AcDbEntity
  8
HIDDEN
100
AcDbPolyline
 90
15
 70
0
 10
108.11764705882354
 20
182.50588235294117
 10
108.11764705882354
 20
182.4819887505355
 10
108.11764705882354
 20
182.41060841923212
 10
108.11764705882354
 20
182.29263900811299
 10
108.11764705882354
 20
182.12956405097037
 10
108.11764705882354
 20
181.92343431000864
 10
108.11764705882354
 20
181.6768419863197
 10
108.11764705882354
 20
181.39288812145006
 10
108.11764705882354
 20
181.07514360000437
 10
108.11764705882354
 20
180.72760424369946
 10
108.11764705882354
 20
180.3546405615879
 10
108.11764705882354
 20
179.9609427883708
 10
108.11764705882354
 20
179.55146190197516
 10
108.11764705882354
 20
179.13134736213374
 10
108.11764705882354
 20
178.70588235294122
  0
LWPOLYLINE
  5
53
330
17
100
AcDbEntity
  8
HIDDEN
100
AcDbPolyline
 90
2
 70
0
 10
108.11764705882354
 20
183.1764705882353
 10
108.11764705882354
 20
188.48572400733923
  0
LWPOLYLINE
  5
54
330
17
100
AcDbEntity
  8
HIDDEN
100
AcDbPolyline
 90
2
 70
0
 10
108.11764705882354
 20
195.74957011030784
 10
108.11764705882354
 20
188.48572400733923
  0
LWPOLYLINE
  5
55
330
17
100
AcDbEntity
  8
HIDDEN
100
AcDbPolyline
 90
2
 70
0
 10
108.11764705882354
 20
195.74957011030784
 10
108.11764705882354
 20
224.25042988969216
  0
LWPOLYLINE
  5
56
330
17
100
AcDbEntity
  8
HIDDEN
100
AcDbPolyline
 90
2
 70
0
 10
108.11764705882354
 20
231.51427599266077
 10
108.11764705882354
 20
224.25042988969216
  0
LWPOLYLINE
  5
57
330
17
100
AcDbEntity
  8
HIDDEN
100
AcDbPolyline
 90
2
 70
0
 10
108.11764705882354
 20
231.51427599266077
 10
108.11764705882354
 20
236.8235294117647
  0
LWPOLYLINE
  5
58
330
17
100
AcDbEntity
  8
HIDDEN
100
AcDbPolyline
 90
2
 70
0
 10
89.11764705882354
 20
183.1764705882353
 10
124.88235294117646
 20
183.1764705882353
  0
LWPOLYLINE
  5
59
330
17
100
AcDbEntity
  8
HIDDEN
100
AcDbPolyline
 90
2
 70
0
 10
89.11764705882354
 20
236.8235294117647
 10
124.88235294117646
 20
236.8235294117647
  0
LWPOLYLINE
  5
5A
330
17
100
AcDbEntity
  8
HIDDEN
100
AcDbPolyline
 90
3
 70
0
 10
108.11764705882354
 20
231.51427599266077
 10
107.0
 20
231.68235294117648
 10
105.88235294117648
 20
231.51427599266077
  0
LWPOLYLINE
  5
5B
330
17
100
AcDbEntity
  8
HIDDEN
100
AcDbPolyline
 90
3
 70
0
 10
105.88235294117646
 20
224.25042988969216
 10
107.0
 20
224.08235294117648
 10
108.11764705882354
 20
224.25042988969216
  0
LWPOLYLINE
  5
5C
330
17
100
AcDbEntity
  8
HIDDEN
100
AcDbPolyline
 90
22
 70
0
 10
110.8
 20
227.88235294117646
 10
110.63117666198734
 20
229.0024226039379
 10
110.13970734240078
 20
230.02296916181822
 10
109.36926124706319
 20
230.853312574555
 10
108.3882958925923
 20
231.41967318602445
 10
107.28397435562842
 20
231.67172737046496
 10
106.154420450966
 20
231.5870790074674
 10
105.1
 20
231.17324947555733
 10
104.21440288704666
 20
230.46700934470596
 10
103.5763183019708
 20
229.5311111498232
 10
103.24244286034451
 20
228.44871355264593
 10
103.24244286034451
 20
227.315992329707
 10
103.5763183019708
 20
226.23359473252975
 10
104.21440288704666
 20
225.29769653764697
 10
105.1
 20
224.5914564067956
 10
106.154420450966
 20
224.17762687488553
 10
107.28397435562842
 20
224.092978511888
 10
108.3882958925923
 20
224.3450326963285
 10
109.36926124706319
 20
224.91139330779797
 10
110.13970734240078
 20
225.7417367205347
 10
110.63117666198734
 20
226.76228327841505
 10
110.8
 20
227.88235294117646
  0
LWPOLYLINE
  5
5D
330
17
100
AcDbEntity
  8
HIDDEN
100
AcDbPolyline
 90
3
 70
0
 10
108.11764705882354
 20
195.74957011030784
 10
107.0
 20
195.91764705882352
 10
105.88235294117648
 20
195.74957011030784
  0
LWPOLYLINE
  5
5E
330
17
100
AcDbEntity
  8
HIDDEN
100
AcDbPolyline
 90
3
 70
0
 10
105.88235294117646
 20
188.48572400733923
 10
107.0
 20
188.31764705882352
 10
108.11764705882354
 20
188.48572400733923
  0
LWPOLYLINE
  5
5F
330
17
100
AcDbEntity
  8
HIDDEN
100
AcDbPolyline
 90
22
 70
0
 10
110.8
 20
192.11764705882354
 10
110.63117666198734
 20
193.23771672158497
 10
110.13970734240078
 20
194.2582632794653
 10
109.36926124706319
 20
195.08860669220203
 10
108.3882958925923
 20
195.6549673036715
 10
107.28397435562842
 20
195.907021488112
 10
106.154420450966
 20
195.82237312511447
 10
105.1
 20
195.4085435932044
 10
104.21440288704666
 20
194.70230346235303
 10
103.5763183019708
 20
193.76640526747025
 10
103.24244286034451
 20
192.684007670293
 10
103.24244286034451
 20
191.55128644735407
 10
103.5763183019708
 20
190.46888885017682
 10
104.21440288704666
 20
189.53299065529404
 10
105.1
 20
188.82675052444267
 10
106.154420450966
 20
188.4129209925326
 10
107.28397435562842
 20
188.32827262953504
 10
108.3882958925923
 20
188.58032681397555
 10
109.36926124706319
 20
189.146687425445
 10
110.13970734240078
 20
189.97703083818178
 10
110.63117666198734
 20
190.9975773960621
 10
110.8
 20
192.11764705882354
  0
LWPOLYLINE
  5
60
330
17
100
AcDbEntity
  8
HIDDEN
100
AcDbPolyline
 90
2
 70
0
 10
89.11764705882354
 20
183.1764705882353
 10
89.11764705882354
 20
236.8235294117647
  0
LWPOLYLINE
  5
61
330
17
100
AcDbEntity
  8
HIDDEN
100
AcDbPolyline
 90
2
 70
0
 10
124.88235294117646
 20
183.1764705882353
 10
124.88235294117646
 20
236.8235294117647
  0
LWPOLYLINE
  5
62
330
17
100
AcDbEntity
  8
HIDDEN
100
AcDbPolyline
 90
2
 70
0
 10
105.88235294117646
 20
237.49411764705883
 10
108.11764705882354
 20
237.49411764705883
  0
LWPOLYLINE
  5
63
330
17
100
AcDbEntity
  8
HIDDEN
100
AcDbPolyline
 90
2
 70
0
 10
105.88235294117646
 20
245.09411764705882
 10
108.11764705882354
 20
245.09411764705882
  0
LWPOLYLINE
  5
64
330
17
100
AcDbEntity
  8
HIDDEN
100
AcDbPolyline
 90
2
 70
0
 10
105.88235294117646
 20
174.90588235294118
 10
108.11764705882354
 20
174.90588235294118
  0
LWPOLYLINE
  5
65
330
17
100
AcDbEntity
  8
HIDDEN
100
AcDbPolyline
 90
2
 70
0
 10
105.88235294117646
 20
182.50588235294117
 10
108.11764705882354
 20
182.50588235294117
  0
LWPOLYLINE
  5
66
330
17
100
AcDbEntity
  8
OUTLINE
100
AcDbPolyline
 90
2
 70
0
 10
105.88235294117646
 20
172.0
 10
105.88235294117646
 20
248.0
  0
LWPOLYLINE
  5
67
330
17
100
AcDbEntity
  8
OUTLINE
100
AcDbPolyline
 90
2
 70
0
 10
105.88235294117646
 20
172.0
 10
108.11764705882354
 20
172.0
  0
LWPOLYLINE
  5
68
330
17
100
AcDbEntity
  8
OUTLINE
100
AcDbPolyline
 90
2
 70
0
 10
105.88235294117646
 20
248.0
 10
108.11764705882354
 20
248.0
  0
LWPOLYLINE
  5
69
330
17
100
AcDbEntity
  8
OUTLINE
100
AcDbPolyline
 90
2
 70
0
 10
108.11764705882354
 20
172.0
 10
108.11764705882354
 20
248.0
  0
LWPOLYLINE
  5
6A
330
17
100
AcDbEntity
  8
OUTLINE
100
AcDbPolyline
 90
2
 70
0
 10
108.11764705882354
 20
183.1764705882353
 10
124.88235294117646
 20
183.1764705882353
  0
LWPOLYLINE
  5
6B
330
17
100
AcDbEntity
  8
OUTLINE
100
AcDbPolyline
 90
2
 70
0
 10
89.11764705882354
 20
183.1764705882353
 10
105.88235294117646
 20
183.1764705882353
  0
LWPOLYLINE
  5
6C
330
17
100
AcDbEntity
  8
OUTLINE
100
AcDbPolyline
 90
2
 70
0
 10
108.11764705882354
 20
236.8235294117647
 10
124.88235294117646
 20
236.8235294117647
  0
LWPOLYLINE
  5
6D
330
17
100
AcDbEntity
  8
OUTLINE
100
AcDbPolyline
 90
2
 70
0
 10
89.11764705882354
 20
236.8235294117647
 10
105.88235294117646
 20
236.8235294117647
  0
LWPOLYLINE
  5
6E
330
17
100
AcDbEntity
  8
OUTLINE
100
AcDbPolyline
 90
10
 70
0
 10
105.88235294117646
 20
231.51427599266077
 10
104.9135134527208
 20
231.0582896357633
 10
104.11034641637012
 20
230.35012565490337
 10
103.53662538126885
 20
229.44601410982165
 10
103.23790528801001
 20
228.41774380588834
 10
103.23790528801001
 20
227.3469620764646
 10
103.53662538126885
 20
226.31869177253128
 10
104.11034641637012
 20
225.4145802274496
 10
104.9135134527208
 20
224.70641624658967
 10
105.88235294117646
 20
224.25042988969216
  0
LWPOLYLINE
  5
6F
330
17
100
AcDbEntity
  8
OUTLINE
100
AcDbPolyline
 90
10
 70
0
 10
105.88235294117646
 20
195.74957011030784
 10
104.9135134527208
 20
195.29358375341033
 10
104.11034641637012
 20
194.5854197725504
 10
103.53662538126885
 20
193.68130822746872
 10
103.23790528801001
 20
192.6530379235354
 10
103.23790528801001
 20
191.58225619411166
 10
103.53662538126885
 20
190.55398589017835
 10
104.11034641637012
 20
189.64987434509663
 10
104.9135134527208
 20
188.94171036423674
 10
105.88235294117646
 20
188.48572400733923
  0
LWPOLYLINE
  5
70
330
17
100
AcDbEntity
  8
OUTLINE
100
AcDbPolyline
 90
2
 70
0
 10
89.11764705882354
 20
183.1764705882353
 10
89.11764705882354
 20
236.8235294117647
  0
LWPOLYLINE
  5
71
330
17
100
AcDbEntity
  8
OUTLINE
100
AcDbPolyline
 90
6
 70
0
 10
108.11764705882354
 20
224.25042988969216
 10
108.9958728775079
 20
224.6487030750301
 10
109.74556916588921
 20
225.25521572448633
 10
110.31845724204261
 20
226.03090984652437
 10
110.67764445805749
 20
226.92583255973182
 10
110.8
 20
227.88235294117646
  0
LWPOLYLINE
  5
72
330
17
100
AcDbEntity
  8
OUTLINE
100
AcDbPolyline
 90
6
 70
0
 10
110.8
 20
227.88235294117646
 10
110.67764445805749
 20
228.83887332262114
 10
110.31845724204261
 20
229.7337960358286
 10
109.74556916588921
 20
230.5094901578666
 10
108.9958728775079
 20
231.11600280732281
 10
108.11764705882354
 20
231.51427599266077
  0
LWPOLYLINE
  5
73
330
17
100
AcDbEntity
  8
OUTLINE
100
AcDbPolyline
 90
6
 70
0
 10
108.11764705882354
 20
188.48572400733923
 10
108.9958728775079
 20
188.88399719267719
 10
109.74556916588921
 20
189.4905098421334
 10
110.31845724204261
 20
190.2662039641714
 10
110.67764445805749
 20
191.16112667737886
 10
110.8
 20
192.11764705882354
  0
LWPOLYLINE
  5
74
330
17
100
AcDbEntity
  8
OUTLINE
100
AcDbPolyline
 90
6
 70
0
 10
110.8
 20
192.11764705882354
 10
110.67764445805749
 20
193.07416744026818
 10
110.31845724204261
 20
193.96909015347563
 10
109.74556916588921
 20
194.74478427551367
 10
108.9958728775079
 20
195.3512969249699
 10
108.11764705882354
 20
195.74957011030784
  0
LWPOLYLINE
  5
75
330
17
100
AcDbEntity
  8
OUTLINE
100
AcDbPolyline
 90
2
 70
0
 10
124.88235294117646
 20
183.1764705882353
 10
124.88235294117646
 20
236.8235294117647
  0
TEXT
  5
76
330
17
100
AcDbEntity
  8
TEXT
100
AcDbText
 10
22.0
 20
165.0
 30
0.0
 40
2.6
  1
TOP  (view scale 2.24:1)
100
AcDbText
  0
LWPOLYLINE
  5
77
330
17
100
AcDbEntity
  8
HIDDEN
100
AcDbPolyline
 90
2
 70
0
 10
105.92857142857143
 20
75.35714285714286
 10
105.92857142857143
 20
76.42857142857143
  0
LWPOLYLINE
  5
78
330
17
100
AcDbEntity
  8
HIDDEN
100
AcDbPolyline
 90
2
 70
0
 10
105.92857142857143
 20
75.35714285714286
 10
105.92857142857143
 20
76.42857142857143
  0
LWPOLYLINE
  5
79
330
17
100
AcDbEntity
  8
HIDDEN
100
AcDbPolyline
 90
2
 70
0
 10
105.92857142857143
 20
75.35714285714286
 10
105.92857142857143
 20
76.42857142857143
  0
LWPOLYLINE
  5
7A
330
17
100
AcDbEntity
  8
HIDDEN
100
AcDbPolyline
 90
2
 70
0
 10
105.92857142857143
 20
75.35714285714286
 10
105.92857142857143
 20
76.42857142857143
  0
LWPOLYLINE
  5
7B
330
17
100
AcDbEntity
  8
HIDDEN
100
AcDbPolyline
 90
2
 70
0
 10
105.92857142857143
 20
75.35714285714286
 10
105.92857142857143
 20
78.57142857142857
  0
LWPOLYLINE
  5
7C
330
17
100
AcDbEntity
  8
HIDDEN
100
AcDbPolyline
 90
2
 70
0
 10
105.92857142857143
 20
78.57142857142857
 10
105.92857142857143
 20
130.0
  0
LWPOLYLINE
  5
7D
330
17
100
AcDbEntity
  8
HIDDEN
100
AcDbPolyline
 90
15
 70
0
 10
105.92857142857143
 20
107.92857142857143
 10
105.92857142857143
 20
107.83723739437664
 10
105.92857142857143
 20
107.56781516164452
 10
105.92857142857143
 20
107.13381468613353
 10
105.92857142857143
 20
106.55699856391396
 10
105.92857142857143
 20
105.86629076392825
 10
105.92857142857143
 20
105.0963262594123
 10
105.92857142857143
 20
104.28571428571428
 10
105.92857142857143
 20
103.47510231201628
 10
105.92857142857143
 20
102.70513780750032
 10
105.92857142857143
 20
102.0144300075146
 10
105.92857142857143
 20
101.43761388529504
 10
105.92857142857143
 20
101.00361340978404
 10
105.92857142857143
 20
100.73419117705193
 10
105.92857142857143
 20
100.64285714285714
  0
LWPOLYLINE
  5
7E
330
17
100
AcDbEntity
  8
HIDDEN
100
AcDbPolyline
 90
15
 70
0
 10
105.92857142857143
 20
100.64285714285714
 10
105.92857142857143
 20
100.73419117705193
 10
105.92857142857143
 20
101.00361340978404
 10
105.92857142857143
 20
101.43761388529504
 10
105.92857142857143
 20
102.0144300075146
 10
105.92857142857143
 20
102.70513780750032
 10
105.92857142857143
 20
103.47510231201628
 10
105.92857142857143
 20
104.28571428571428
 10
105.92857142857143
 20
105.0963262594123
 10
105.92857142857143
 20
105.86629076392825
 10
105.92857142857143
 20
106.55699856391395
 10
105.92857142857143
 20
107.13381468613353
 10
105.92857142857143
 20
107.56781516164452
 10
105.92857142857143
 20
107.83723739437664
 10
105.92857142857143
 20
107.92857142857143
  0
LWPOLYLINE
  5
7F
330
17
100
AcDbEntity
  8
HIDDEN
100
AcDbPolyline
 90
15
 70
0
 10
105.92857142857143
 20
107.92857142857143
 10
105.92857142857143
 20
107.83723739437664
 10
105.92857142857143
 20
107.56781516164452
 10
105.92857142857143
 20
107.13381468613353
 10
105.92857142857143
 20
106.55699856391396
 10
105.92857142857143
 20
105.86629076392825
 10
105.92857142857143
 20
105.0963262594123
 10
105.92857142857143
 20
104.28571428571428
 10
105.92857142857143
 20
103.47510231201628
 10
105.92857142857143
 20
102.70513780750032
 10
105.92857142857143
 20
102.0144300075146
 10
105.92857142857143
 20
101.43761388529504
 10
105.92857142857143
 20
101.00361340978404
 10
105.92857142857143
 20
100.73419117705193
 10
105.92857142857143
 20
100.64285714285714
  0
LWPOLYLINE
  5
80
330
17
100
AcDbEntity
  8
HIDDEN
100
AcDbPolyline
 90
15
 70
0
 10
105.92857142857143
 20
100.64285714285714
 10
105.92857142857143
 20
100.73419117705193
 10
105.92857142857143
 20
101.00361340978404
 10
105.92857142857143
 20
101.43761388529504
 10
105.92857142857143
 20
102.0144300075146
 10
105.92857142857143
 20
102.70513780750032
 10
105.92857142857143
 20
103.47510231201628
 10
105.92857142857143
 20
104.28571428571428
 10
105.92857142857143
 20
105.0963262594123
 10
105.92857142857143
 20
105.86629076392825
 10
105.92857142857143
 20
106.55699856391395
 10
105.92857142857143
 20
107.13381468613353
 10
105.92857142857143
 20
107.56781516164452
 10
105.92857142857143
 20
107.83723739437664
 10
105.92857142857143
 20
107.92857142857143
  0
LWPOLYLINE
  5
81
330
17
100
AcDbEntity
  8
HIDDEN
100
AcDbPolyline
 90
2
 70
0
 10
105.92857142857143
 20
130.0
 10
108.07142857142857
 20
130.0
  0
LWPOLYLINE
  5
82
330
17
100
AcDbEntity
  8
HIDDEN
100
AcDbPolyline
 90
2
 70
0
 10
105.92857142857143
 20
78.57142857142857
 10
108.07142857142857
 20
78.57142857142857
  0
LWPOLYLINE
  5
83
330
17
100
AcDbEntity
  8
HIDDEN
100
AcDbPolyline
 90
2
 70
0
 10
105.92857142857143
 20
78.57142857142857
 10
108.07142857142857
 20
78.57142857142857
  0
LWPOLYLINE
  5
84
330
17
100
AcDbEntity
  8
HIDDEN
100
AcDbPolyline
 90
2
 70
0
 10
108.07142857142857
 20
78.57142857142857
 10
108.07142857142857
 20
130.0
  0
LWPOLYLINE
  5
85
330
17
100
AcDbEntity
  8
HIDDEN
100
AcDbPolyline
 90
2
 70
0
 10
105.92857142857143
 20
78.57142857142857
 10
108.07142857142857
 20
78.57142857142857
  0
LWPOLYLINE
  5
86
330
17
100
AcDbEntity
  8
HIDDEN
100
AcDbPolyline
 90
15
 70
0
 10
108.07142857142857
 20
107.92857142857143
 10
108.07142857142857
 20
107.83723739437664
 10
108.07142857142857
 20
107.56781516164452
 10
108.07142857142857
 20
107.13381468613353
 10
108.07142857142857
 20
106.55699856391396
 10
108.07142857142857
 20
105.86629076392825
 10
108.07142857142857
 20
105.0963262594123
 10
108.07142857142857
 20
104.28571428571428
 10
108.07142857142857
 20
103.47510231201628
 10
108.07142857142857
 20
102.70513780750032
 10
108.07142857142857
 20
102.0144300075146
 10
108.07142857142857
 20
101.43761388529504
 10
108.07142857142857
 20
101.00361340978404
 10
108.07142857142857
 20
100.73419117705193
 10
108.07142857142857
 20
100.64285714285714
  0
LWPOLYLINE
  5
87
330
17
100
AcDbEntity
  8
HIDDEN
100
AcDbPolyline
 90
15
 70
0
 10
108.07142857142857
 20
100.64285714285714
 10
108.07142857142857
 20
100.73419117705193
 10
108.07142857142857
 20
101.00361340978404
 10
108.07142857142857
 20
101.43761388529504
 10
108.07142857142857
 20
102.0144300075146
 10
108.07142857142857
 20
102.70513780750032
 10
108.07142857142857
 20
103.47510231201628
 10
108.07142857142857
 20
104.28571428571428
 10
108.07142857142857
 20
105.0963262594123
 10
108.07142857142857
 20
105.86629076392825
 10
108.07142857142857
 20
106.55699856391395
 10
108.07142857142857
 20
107.13381468613353
 10
108.07142857142857
 20
107.56781516164452
 10
108.07142857142857
 20
107.83723739437664
 10
108.07142857142857
 20
107.92857142857143
  0
LWPOLYLINE
  5
88
330
17
100
AcDbEntity
  8
HIDDEN
100
AcDbPolyline
 90
2
 70
0
 10
105.92857142857143
 20
107.92857142857143
 10
108.07142857142857
 20
107.92857142857143
  0
LWPOLYLINE
  5
89
330
17
100
AcDbEntity
  8
HIDDEN
100
AcDbPolyline
 90
15
 70
0
 10
108.07142857142857
 20
107.92857142857143
 10
108.07142857142857
 20
107.83723739437664
 10
108.07142857142857
 20
107.56781516164452
 10
108.07142857142857
 20
107.13381468613353
 10
108.07142857142857
 20
106.55699856391396
 10
108.07142857142857
 20
105.86629076392825
 10
108.07142857142857
 20
105.0963262594123
 10
108.07142857142857
 20
104.28571428571428
 10
108.07142857142857
 20
103.47510231201628
 10
108.07142857142857
 20
102.70513780750032
 10
108.07142857142857
 20
102.0144300075146
 10
108.07142857142857
 20
101.43761388529504
 10
108.07142857142857
 20
101.00361340978404
 10
108.07142857142857
 20
100.73419117705193
 10
108.07142857142857
 20
100.64285714285714
  0
LWPOLYLINE
  5
8A
330
17
100
AcDbEntity
  8
HIDDEN
100
AcDbPolyline
 90
15
 70
0
 10
108.07142857142857
 20
100.64285714285714
 10
108.07142857142857
 20
100.73419117705193
 10
108.07142857142857
 20
101.00361340978404
 10
108.07142857142857
 20
101.43761388529504
 10
108.07142857142857
 20
102.0144300075146
 10
108.07142857142857
 20
102.70513780750032
 10
108.07142857142857
 20
103.47510231201628
 10
108.07142857142857
 20
104.28571428571428
 10
108.07142857142857
 20
105.0963262594123
 10
108.07142857142857
 20
105.86629076392825
 10
108.07142857142857
 20
106.55699856391395
 10
108.07142857142857
 20
107.13381468613353
 10
108.07142857142857
 20
107.56781516164452
 10
108.07142857142857
 20
107.83723739437664
 10
108.07142857142857
 20
107.92857142857143
  0
LWPOLYLINE
  5
8B
330
17
100
AcDbEntity
  8
HIDDEN
100
AcDbPolyline
 90
2
 70
0
 10
105.92857142857143
 20
107.92857142857143
 10
108.07142857142857
 20
107.92857142857143
  0
LWPOLYLINE
  5
8C
330
17
100
AcDbEntity
  8
HIDDEN
100
AcDbPolyline
 90
2
 70
0
 10
108.07142857142857
 20
75.35714285714286
 10
108.07142857142857
 20
76.42857142857143
  0
LWPOLYLINE
  5
8D
330
17
100
AcDbEntity
  8
HIDDEN
100
AcDbPolyline
 90
2
 70
0
 10
108.07142857142857
 20
75.35714285714286
 10
108.07142857142857
 20
76.42857142857143
  0
LWPOLYLINE
  5
8E
330
17
100
AcDbEntity
  8
HIDDEN
100
AcDbPolyline
 90
2
 70
0
 10
108.07142857142857
 20
75.35714285714286
 10
108.07142857142857
 20
76.42857142857143
  0
LWPOLYLINE
  5
8F
330
17
100
AcDbEntity
  8
HIDDEN
100
AcDbPolyline
 90
2
 70
0
 10
108.07142857142857
 20
75.35714285714286
 10
108.07142857142857
 20
76.42857142857143
  0
LWPOLYLINE
  5
90
330
17
100
AcDbEntity
  8
HIDDEN
100
AcDbPolyline
 90
2
 70
0
 10
108.07142857142857
 20
75.35714285714286
 10
108.07142857142857
 20
78.57142857142857
  0
LWPOLYLINE
  5
91
330
17
100
AcDbEntity
  8
HIDDEN
100
AcDbPolyline
 90
2
 70
0
 10
108.07142857142857
 20
75.35714285714286
 10
124.14285714285714
 20
75.35714285714286
  0
LWPOLYLINE
  5
92
330
17
100
AcDbEntity
  8
HIDDEN
100
AcDbPolyline
 90
2
 70
0
 10
124.14285714285714
 20
70.0
 10
124.14285714285714
 20
75.35714285714286
  0
LWPOLYLINE
  5
93
330
17
100
AcDbEntity
  8
HIDDEN
100
AcDbPolyline
 90
2
 70
0
 10
89.85714285714286
 20
70.0
 10
124.14285714285714
 20
70.0
  0
LWPOLYLINE
  5
94
330
17
100
AcDbEntity
  8
HIDDEN
100
AcDbPolyline
 90
2
 70
0
 10
89.85714285714286
 20
70.0
 10
89.85714285714286
 20
75.35714285714286
  0
LWPOLYLINE
  5
95
330
17
100
AcDbEntity
  8
HIDDEN
100
AcDbPolyline
 90
2
 70
0
 10
89.85714285714286
 20
75.35714285714286
 10
105.92857142857143
 20
75.35714285714286
  0
LWPOLYLINE
  5
96
330
17
100
AcDbEntity
  8
HIDDEN
100
AcDbPolyline
 90
15
 70
0
 10
105.92857142857143
 20
75.35714285714286
 10
105.61702208310784
 20
75.35714285714286
 10
105.31688613225907
 20
75.35714285714286
 10
105.0306405281176
 20
75.35714285714286
 10
104.76064758897999
 20
75.35714285714286
 10
104.50913550368423
 20
75.35714285714286
 10
104.27817994288624
 20
75.35714285714286
 10
104.06968692903342
 20
75.35714285714286
 10
103.8853771064054
 20
75.35714285714286
 10
103.72677154103751
 20
75.35714285714286
 10
103.59517916771719
 20
75.35714285714286
 10
103.49168598765
 20
75.35714285714286
 10
103.41714610594462
 20
75.35714285714286
 10
103.37217468288243
 20
75.35714285714286
 10
103.35714285714286
 20
75.35714285714286
  0
LWPOLYLINE
  5
97
330
17
100
AcDbEntity
  8
HIDDEN
100
AcDbPolyline
 90
15
 70
0
 10
103.35714285714286
 20
75.35714285714286
 10
103.37217468288243
 20
75.35714285714286
 10
103.41714610594462
 20
75.35714285714286
 10
103.49168598764999
 20
75.35714285714286
 10
103.59517916771719
 20
75.35714285714286
 10
103.72677154103751
 20
75.35714285714286
 10
103.88537710640539
 20
75.35714285714286
 10
104.06968692903342
 20
75.35714285714286
 10
104.27817994288624
 20
75.35714285714286
 10
104.50913550368423
 20
75.35714285714286
 10
104.76064758897999
 20
75.35714285714286
 10
105.03064052811759
 20
75.35714285714286
 10
105.31688613225907
 20
75.35714285714286
 10
105.61702208310784
 20
75.35714285714286
 10
105.9285714285714
 20
75.35714285714286
  0
LWPOLYLINE
  5
98
330
17
100
AcDbEntity
  8
HIDDEN
100
AcDbPolyline
 90
15
 70
0
 10
105.92857142857143
 20
75.35714285714286
 10
105.61702208310784
 20
75.35714285714286
 10
105.31688613225907
 20
75.35714285714286
 10
105.0306405281176
 20
75.35714285714286
 10
104.76064758897999
 20
75.35714285714286
 10
104.50913550368423
 20
75.35714285714286
 10
104.27817994288624
 20
75.35714285714286
 10
104.06968692903342
 20
75.35714285714286
 10
103.8853771064054
 20
75.35714285714286
 10
103.72677154103751
 20
75.35714285714286
 10
103.59517916771719
 20
75.35714285714286
 10
103.49168598765
 20
75.35714285714286
 10
103.41714610594462
 20
75.35714285714286
 10
103.37217468288243
 20
75.35714285714286
 10
103.35714285714286
 20
75.35714285714286
  0
LWPOLYLINE
  5
99
330
17
100
AcDbEntity
  8
HIDDEN
100
AcDbPolyline
 90
15
 70
0
 10
103.35714285714286
 20
75.35714285714286
 10
103.37217468288243
 20
75.35714285714286
 10
103.41714610594462
 20
75.35714285714286
 10
103.49168598764999
 20
75.35714285714286
 10
103.59517916771719
 20
75.35714285714286
 10
103.72677154103751
 20
75.35714285714286
 10
103.88537710640539
 20
75.35714285714286
 10
104.06968692903342
 20
75.35714285714286
 10
104.27817994288624
 20
75.35714285714286
 10
104.50913550368423
 20
75.35714285714286
 10
104.76064758897999
 20
75.35714285714286
 10
105.03064052811759
 20
75.35714285714286
 10
105.31688613225907
 20
75.35714285714286
 10
105.61702208310784
 20
75.35714285714286
 10
105.9285714285714
 20
75.35714285714286
  0
LWPOLYLINE
  5
9A
330
17
100
AcDbEntity
  8
HIDDEN
100
AcDbPolyline
 90
15
 70
0
 10
108.07142857142857
 20
76.42857142857143
 10
107.92201240303048
 20
76.42857142857143
 10
107.7709195274533
 20
76.42857142857143
 10
107.61842471161812
 20
76.42857142857143
 10
107.4648052719164
 20
76.42857142857143
 10
107.31034056990178
 20
76.42857142857143
 10
107.15531150426277
 20
76.42857142857143
 10
107.0
 20
76.42857142857143
 10
106.84468849573723
 20
76.42857142857143
 10
106.68965943009822
 20
76.42857142857143
 10
106.5351947280836
 20
76.42857142857143
 10
106.38157528838188
 20
76.42857142857143
 10
106.2290804725467
 20
76.42857142857143
 10
106.07798759696952
 20
76.42857142857143
 10
105.92857142857143
 20
76.42857142857143
  0
LWPOLYLINE
  5
9B
330
17
100
AcDbEntity
  8
HIDDEN
100
AcDbPolyline
 90
15
 70
0
 10
105.92857142857143
 20
76.42857142857143
 10
106.07798759696952
 20
76.42857142857143
 10
106.2290804725467
 20
76.42857142857143
 10
106.38157528838188
 20
76.42857142857143
 10
106.53519472808361
 20
76.42857142857143
 10
106.68965943009822
 20
76.42857142857143
 10
106.84468849573724
 20
76.42857142857143
 10
107.00000000000001
 20
76.42857142857143
 10
107.15531150426278
 20
76.42857142857143
 10
107.3103405699018
 20
76.42857142857143
 10
107.46480527191642
 20
76.42857142857143
 10
107.61842471161813
 20
76.42857142857143
 10
107.77091952745332
 20
76.42857142857143
 10
107.9220124030305
 20
76.42857142857143
 10
108.07142857142854
 20
76.42857142857143
  0
LWPOLYLINE
  5
9C
330
17
100
AcDbEntity
  8
HIDDEN
100
AcDbPolyline
 90
15
 70
0
 10
108.07142857142857
 20
75.35714285714286
 10
108.38297791689216
 20
75.35714285714286
 10
108.68311386774093
 20
75.35714285714286
 10
108.9693594718824
 20
75.35714285714286
 10
109.23935241102001
 20
75.35714285714286
 10
109.49086449631577
 20
75.35714285714286
 10
109.72182005711376
 20
75.35714285714286
 10
109.93031307096658
 20
75.35714285714286
 10
110.11462289359461
 20
75.35714285714286
 10
110.27322845896249
 20
75.35714285714286
 10
110.40482083228281
 20
75.35714285714286
 10
110.50831401235001
 20
75.35714285714286
 10
110.58285389405538
 20
75.35714285714286
 10
110.62782531711757
 20
75.35714285714286
 10
110.64285714285714
 20
75.35714285714286
  0
LWPOLYLINE
  5
9D
330
17
100
AcDbEntity
  8
HIDDEN
100
AcDbPolyline
 90
2
 70
0
 10
110.64285714285714
 20
70.0
 10
110.64285714285714
 20
75.35714285714286
  0
LWPOLYLINE
  5
9E
330
17
100
AcDbEntity
  8
HIDDEN
100
AcDbPolyline
 90
15
 70
0
 10
110.64285714285714
 20
70.0
 10
110.55152310866235
 20
70.0
 10
110.28210087593024
 20
70.0
 10
109.84810040041926
 20
70.0
 10
109.27128427819967
 20
70.0
 10
108.58057647821396
 20
70.0
 10
107.810611973698
 20
70.0
 10
107.0
 20
70.0
 10
106.189388026302
 20
70.0
 10
105.41942352178604
 20
70.0
 10
104.72871572180033
 20
70.0
 10
104.15189959958074
 20
70.0
 10
103.71789912406976
 20
70.0
 10
103.44847689133765
 20
70.0
 10
103.35714285714286
 20
70.0
  0
LWPOLYLINE
  5
9F
330
17
100
AcDbEntity
  8
HIDDEN
100
AcDbPolyline
 90
15
 70
0
 10
103.35714285714286
 20
70.0
 10
103.44847689133765
 20
70.0
 10
103.71789912406976
 20
70.0
 10
104.15189959958074
 20
70.0
 10
104.72871572180033
 20
70.0
 10
105.41942352178604
 20
70.0
 10
106.189388026302
 20
70.0
 10
107.0
 20
70.0
 10
107.810611973698
 20
70.0
 10
108.58057647821396
 20
70.0
 10
109.27128427819967
 20
70.0
 10
109.84810040041926
 20
70.0
 10
110.28210087593024
 20
70.0
 10
110.55152310866235
 20
70.0
 10
110.64285714285714
 20
70.0
  0
LWPOLYLINE
  5
A0
330
17
100
AcDbEntity
  8
HIDDEN
100
AcDbPolyline
 90
15
 70
0
 10
110.64285714285714
 20
75.35714285714286
 10
110.62782531711757
 20
75.35714285714286
 10
110.58285389405538
 20
75.35714285714286
 10
110.50831401235001
 20
75.35714285714286
 10
110.40482083228281
 20
75.35714285714286
 10
110.27322845896249
 20
75.35714285714286
 10
110.1146228935946
 20
75.35714285714286
 10
109.93031307096658
 20
75.35714285714286
 10
109.72182005711376
 20
75.35714285714286
 10
109.49086449631577
 20
75.35714285714286
 10
109.23935241102001
 20
75.35714285714286
 10
108.9693594718824
 20
75.35714285714286
 10
108.68311386774093
 20
75.35714285714286
 10
108.38297791689216
 20
75.35714285714286
 10
108.07142857142858
 20
75.35714285714286
  0
LWPOLYLINE
  5
A1
330
17
100
AcDbEntity
  8
HIDDEN
100
AcDbPolyline
 90
15
 70
0
 10
108.07142857142857
 20
76.42857142857143
 10
107.92201240303048
 20
76.42857142857143
 10
107.7709195274533
 20
76.42857142857143
 10
107.61842471161812
 20
76.42857142857143
 10
107.4648052719164
 20
76.42857142857143
 10
107.31034056990178
 20
76.42857142857143
 10
107.15531150426277
 20
76.42857142857143
 10
107.0
 20
76.42857142857143
 10
106.84468849573723
 20
76.42857142857143
 10
106.68965943009822
 20
76.42857142857143
 10
106.5351947280836
 20
76.42857142857143
 10
106.38157528838188
 20
76.42857142857143
 10
106.2290804725467
 20
76.42857142857143
 10
106.07798759696952
 20
76.42857142857143
 10
105.92857142857143
 20
76.42857142857143
  0
LWPOLYLINE
  5
A2
330
17
100
AcDbEntity
  8
HIDDEN
100
AcDbPolyline
 90
15
 70
0
 10
105.92857142857143
 20
76.42857142857143
 10
106.07798759696952
 20
76.42857142857143
 10
106.2290804725467
 20
76.42857142857143
 10
106.38157528838188
 20
76.42857142857143
 10
106.53519472808361
 20
76.42857142857143
 10
106.68965943009822
 20
76.42857142857143
 10
106.84468849573724
 20
76.42857142857143
 10
107.00000000000001
 20
76.42857142857143
 10
107.15531150426278
 20
76.42857142857143
 10
107.3103405699018
 20
76.42857142857143
 10
107.46480527191642
 20
76.42857142857143
 10
107.61842471161813
 20
76.42857142857143
 10
107.77091952745332
 20
76.42857142857143
 10
107.9220124030305
 20
76.42857142857143
 10
108.07142857142854
 20
76.42857142857143
  0
LWPOLYLINE
  5
A3
330
17
100
AcDbEntity
  8
HIDDEN
100
AcDbPolyline
 90
15
 70
0
 10
108.07142857142857
 20
75.35714285714286
 10
108.38297791689216
 20
75.35714285714286
 10
108.68311386774093
 20
75.35714285714286
 10
108.9693594718824
 20
75.35714285714286
 10
109.23935241102001
 20
75.35714285714286
 10
109.49086449631577
 20
75.35714285714286
 10
109.72182005711376
 20
75.35714285714286
 10
109.93031307096658
 20
75.35714285714286
 10
110.11462289359461
 20
75.35714285714286
 10
110.27322845896249
 20
75.35714285714286
 10
110.40482083228281
 20
75.35714285714286
 10
110.50831401235001
 20
75.35714285714286
 10
110.58285389405538
 20
75.35714285714286
 10
110.62782531711757
 20
75.35714285714286
 10
110.64285714285714
 20
75.35714285714286
  0
LWPOLYLINE
  5
A4
330
17
100
AcDbEntity
  8
HIDDEN
100
AcDbPolyline
 90
2
 70
0
 10
110.64285714285714
 20
70.0
 10
110.64285714285714
 20
75.35714285714286
  0
LWPOLYLINE
  5
A5
330
17
100
AcDbEntity
  8
HIDDEN
100
AcDbPolyline
 90
15
 70
0
 10
110.64285714285714
 20
70.0
 10
110.55152310866235
 20
70.0
 10
110.28210087593024
 20
70.0
 10
109.84810040041926
 20
70.0
 10
109.27128427819967
 20
70.0
 10
108.58057647821396
 20
70.0
 10
107.810611973698
 20
70.0
 10
107.0
 20
70.0
 10
106.189388026302
 20
70.0
 10
105.41942352178604
 20
70.0
 10
104.72871572180033
 20
70.0
 10
104.15189959958074
 20
70.0
 10
103.71789912406976
 20
70.0
 10
103.44847689133765
 20
70.0
 10
103.35714285714286
 20
70.0
  0
LWPOLYLINE
  5
A6
330
17
100
AcDbEntity
  8
HIDDEN
100
AcDbPolyline
 90
15
 70
0
 10
103.35714285714286
 20
70.0
 10
103.44847689133765
 20
70.0
 10
103.71789912406976
 20
70.0
 10
104.15189959958074
 20
70.0
 10
104.72871572180033
 20
70.0
 10
105.41942352178604
 20
70.0
 10
106.189388026302
 20
70.0
 10
107.0
 20
70.0
 10
107.810611973698
 20
70.0
 10
108.58057647821396
 20
70.0
 10
109.27128427819967
 20
70.0
 10
109.84810040041926
 20
70.0
 10
110.28210087593024
 20
70.0
 10
110.55152310866235
 20
70.0
 10
110.64285714285714
 20
70.0
  0
LWPOLYLINE
  5
A7
330
17
100
AcDbEntity
  8
HIDDEN
100
AcDbPolyline
 90
15
 70
0
 10
110.64285714285714
 20
75.35714285714286
 10
110.62782531711757
 20
75.35714285714286
 10
110.58285389405538
 20
75.35714285714286
 10
110.50831401235001
 20
75.35714285714286
 10
110.40482083228281
 20
75.35714285714286
 10
110.27322845896249
 20
75.35714285714286
 10
110.1146228935946
 20
75.35714285714286
 10
109.93031307096658
 20
75.35714285714286
 10
109.72182005711376
 20
75.35714285714286
 10
109.49086449631577
 20
75.35714285714286
 10
109.23935241102001
 20
75.35714285714286
 10
108.9693594718824
 20
75.35714285714286
 10
108.68311386774093
 20
75.35714285714286
 10
108.38297791689216
 20
75.35714285714286
 10
108.07142857142858
 20
75.35714285714286
  0
LWPOLYLINE
  5
A8
330
17
100
AcDbEntity
  8
HIDDEN
100
AcDbPolyline
 90
2
 70
0
 10
105.92857142857143
 20
100.64285714285714
 10
108.07142857142857
 20
100.64285714285714
  0
LWPOLYLINE
  5
A9
330
17
100
AcDbEntity
  8
HIDDEN
100
AcDbPolyline
 90
2
 70
0
 10
105.92857142857143
 20
100.64285714285714
 10
108.07142857142857
 20
100.64285714285714
  0
LWPOLYLINE
  5
AA
330
17
100
AcDbEntity
  8
HIDDEN
100
AcDbPolyline
 90
2
 70
0
 10
103.35714285714286
 20
70.0
 10
103.35714285714286
 20
75.35714285714286
  0
LWPOLYLINE
  5
AB
330
17
100
AcDbEntity
  8
HIDDEN
100
AcDbPolyline
 90
2
 70
0
 10
103.35714285714286
 20
70.0
 10
103.35714285714286
 20
75.35714285714286
  0
LWPOLYLINE
  5
AC
330
17
100
AcDbEntity
  8
OUTLINE
100
AcDbPolyline
 90
2
 70
0
 10
105.92857142857143
 20
78.57142857142857
 10
105.92857142857143
 20
130.0
  0
LWPOLYLINE
  5
AD
330
17
100
AcDbEntity
  8
OUTLINE
100
AcDbPolyline
 90
2
 70
0
 10
105.92857142857143
 20
75.35714285714286
 10
105.92857142857143
 20
78.57142857142857
  0
LWPOLYLINE
  5
AE
330
17
100
AcDbEntity
  8
OUTLINE
100
AcDbPolyline
 90
2
 70
0
 10
105.92857142857143
 20
78.57142857142857
 10
108.07142857142857
 20
78.57142857142857
  0
LWPOLYLINE
  5
AF
330
17
100
AcDbEntity
  8
OUTLINE
100
AcDbPolyline
 90
2
 70
0
 10
108.07142857142857
 20
78.57142857142857
 10
108.07142857142857
 20
130.0
  0
LWPOLYLINE
  5
B0
330
17
100
AcDbEntity
  8
OUTLINE
100
AcDbPolyline
 90
2
 70
0
 10
105.92857142857143
 20
130.0
 10
108.07142857142857
 20
130.0
  0
LWPOLYLINE
  5
B1
330
17
100
AcDbEntity
  8
OUTLINE
100
AcDbPolyline
 90
2
 70
0
 10
108.07142857142857
 20
75.35714285714286
 10
108.07142857142857
 20
78.57142857142857
  0
LWPOLYLINE
  5
B2
330
17
100
AcDbEntity
  8
OUTLINE
100
AcDbPolyline
 90
2
 70
0
 10
108.07142857142857
 20
75.35714285714286
 10
124.14285714285714
 20
75.35714285714286
  0
LWPOLYLINE
  5
B3
330
17
100
AcDbEntity
  8
OUTLINE
100
AcDbPolyline
 90
2
 70
0
 10
124.14285714285714
 20
70.0
 10
124.14285714285714
 20
75.35714285714286
  0
LWPOLYLINE
  5
B4
330
17
100
AcDbEntity
  8
OUTLINE
100
AcDbPolyline
 90
2
 70
0
 10
89.85714285714286
 20
70.0
 10
124.14285714285714
 20
70.0
  0
LWPOLYLINE
  5
B5
330
17
100
AcDbEntity
  8
OUTLINE
100
AcDbPolyline
 90
2
 70
0
 10
89.85714285714286
 20
70.0
 10
89.85714285714286
 20
75.35714285714286
  0
LWPOLYLINE
  5
B6
330
17
100
AcDbEntity
  8
OUTLINE
100
AcDbPolyline
 90
2
 70
0
 10
89.85714285714286
 20
75.35714285714286
 10
105.92857142857143
 20
75.35714285714286
  0
TEXT
  5
B7
330
17
100
AcDbEntity
  8
TEXT
100
AcDbText
 10
22.0
 20
63.0
 30
0.0
 40
2.6
  1
FRONT  (view scale 2.14:1)
100
AcDbText
  0
LWPOLYLINE
  5
B8
330
17
100
AcDbEntity
  8
HIDDEN
100
AcDbPolyline
 90
2
 70
0
 10
335.0
 20
176.875
 10
328.4682211225498
 20
176.875
  0
LWPOLYLINE
  5
B9
330
17
100
AcDbEntity
  8
HIDDEN
100
AcDbPolyline
 90
2
 70
0
 10
319.5317788774502
 20
176.875
 10
284.4682211225498
 20
176.875
  0
LWPOLYLINE
  5
BA
330
17
100
AcDbEntity
  8
HIDDEN
100
AcDbPolyline
 90
2
 70
0
 10
275.5317788774502
 20
176.875
 10
269.0
 20
176.875
  0
LWPOLYLINE
  5
BB
330
17
100
AcDbEntity
  8
HIDDEN
100
AcDbPolyline
 90
2
 70
0
 10
348.75
 20
181.0
 10
348.75
 20
247.0
  0
LWPOLYLINE
  5
BC
330
17
100
AcDbEntity
  8
HIDDEN
100
AcDbPolyline
 90
2
 70
0
 10
348.75
 20
247.0
 10
255.25
 20
247.0
  0
LWPOLYLINE
  5
BD
330
17
100
AcDbEntity
  8
HIDDEN
100
AcDbPolyline
 90
2
 70
0
 10
348.75
 20
181.0
 10
335.0
 20
181.0
  0
LWPOLYLINE
  5
BE
330
17
100
AcDbEntity
  8
HIDDEN
100
AcDbPolyline
 90
2
 70
0
 10
255.25
 20
181.0
 10
255.25
 20
247.0
  0
LWPOLYLINE
  5
BF
330
17
100
AcDbEntity
  8
HIDDEN
100
AcDbPolyline
 90
2
 70
0
 10
269.0
 20
181.0
 10
255.25
 20
181.0
  0
LWPOLYLINE
  5
C0
330
17
100
AcDbEntity
  8
HIDDEN
100
AcDbPolyline
 90
22
 70
0
 10
263.5
 20
218.675
 10
264.87798044037095
 20
218.4673028670502
 10
266.1335212714474
 20
217.86266626992727
 10
267.15506218053804
 20
216.9148148236896
 10
267.85183477491165
 20
215.7079692889129
 10
268.161927751822
 20
214.34936318751653
 10
268.05778798945005
 20
212.95971463375423
 10
267.5486687626923
 20
211.6625
 10
266.67980754907904
 20
210.57298249919558
 10
265.5284064803746
 20
209.7879705425562
 10
264.1967725943736
 20
209.37721588739754
 10
262.8032274056264
 20
209.37721588739754
 10
261.4715935196254
 20
209.7879705425562
 10
260.32019245092096
 20
210.57298249919558
 10
259.4513312373077
 20
211.6625
 10
258.94221201054995
 20
212.95971463375423
 10
258.838072248178
 20
214.34936318751653
 10
259.14816522508835
 20
215.7079692889129
 10
259.84493781946196
 20
216.9148148236896
 10
260.8664787285526
 20
217.86266626992727
 10
262.12201955962905
 20
218.4673028670502
 10
263.5
 20
218.675
  0
LWPOLYLINE
  5
C1
330
17
100
AcDbEntity
  8
HIDDEN
100
AcDbPolyline
 90
22
 70
0
 10
340.5
 20
218.675
 10
341.87798044037095
 20
218.4673028670502
 10
343.1335212714474
 20
217.86266626992727
 10
344.15506218053804
 20
216.9148148236896
 10
344.85183477491165
 20
215.7079692889129
 10
345.161927751822
 20
214.34936318751653
 10
345.05778798945005
 20
212.95971463375423
 10
344.5486687626923
 20
211.6625
 10
343.67980754907904
 20
210.57298249919558
 10
342.5284064803746
 20
209.7879705425562
 10
341.1967725943736
 20
209.37721588739754
 10
339.8032274056264
 20
209.37721588739754
 10
338.4715935196254
 20
209.7879705425562
 10
337.32019245092096
 20
210.57298249919558
 10
336.4513312373077
 20
211.6625
 10
335.94221201054995
 20
212.95971463375423
 10
335.838072248178
 20
214.34936318751653
 10
336.14816522508835
 20
215.7079692889129
 10
336.84493781946196
 20
216.9148148236896
 10
337.8664787285526
 20
217.86266626992727
 10
339.12201955962905
 20
218.4673028670502
 10
340.5
 20
218.675
  0
LWPOLYLINE
  5
C2
330
17
100
AcDbEntity
  8
HIDDEN
100
AcDbPolyline
 90
2
 70
0
 10
335.0
 20
176.875
 10
335.0
 20
181.0
  0
LWPOLYLINE
  5
C3
330
17
100
AcDbEntity
  8
HIDDEN
100
AcDbPolyline
 90
2
 70
0
 10
335.0
 20
176.875
 10
328.4682211225498
 20
176.875
  0
LWPOLYLINE
  5
C4
330
17
100
AcDbEntity
  8
HIDDEN
100
AcDbPolyline
 90
2
 70
0
 10
328.4682211225498
 20
176.875
 10
328.4682211225498
 20
178.25
  0
LWPOLYLINE
  5
C5
330
17
100
AcDbEntity
  8
HIDDEN
100
AcDbPolyline
 90
2
 70
0
 10
319.5317788774502
 20
178.25
 10
328.4682211225498
 20
178.25
  0
LWPOLYLINE
  5
C6
330
17
100
AcDbEntity
  8
HIDDEN
100
AcDbPolyline
 90
2
 70
0
 10
319.5317788774502
 20
176.875
 10
319.5317788774502
 20
178.25
  0
LWPOLYLINE
  5
C7
330
17
100
AcDbEntity
  8
HIDDEN
100
AcDbPolyline
 90
2
 70
0
 10
319.5317788774502
 20
176.875
 10
284.4682211225498
 20
176.875
  0
LWPOLYLINE
  5
C8
330
17
100
AcDbEntity
  8
HIDDEN
100
AcDbPolyline
 90
2
 70
0
 10
284.4682211225498
 20
176.875
 10
284.4682211225498
 20
178.25
  0
LWPOLYLINE
  5
C9
330
17
100
AcDbEntity
  8
HIDDEN
100
AcDbPolyline
 90
2
 70
0
 10
275.5317788774502
 20
178.25
 10
284.4682211225498
 20
178.25
  0
LWPOLYLINE
  5
CA
330
17
100
AcDbEntity
  8
HIDDEN
100
AcDbPolyline
 90
2
 70
0
 10
275.5317788774502
 20
176.875
 10
275.5317788774502
 20
178.25
  0
LWPOLYLINE
  5
CB
330
17
100
AcDbEntity
  8
HIDDEN
100
AcDbPolyline
 90
2
 70
0
 10
275.5317788774502
 20
176.875
 10
269.0
 20
176.875
  0
LWPOLYLINE
  5
CC
330
17
100
AcDbEntity
  8
HIDDEN
100
AcDbPolyline
 90
2
 70
0
 10
269.0
 20
176.875
 10
269.0
 20
181.0
  0
LWPOLYLINE
  5
CD
330
17
100
AcDbEntity
  8
HIDDEN
100
AcDbPolyline
 90
2
 70
0
 10
335.0
 20
170.0
 10
335.0
 20
176.875
  0
LWPOLYLINE
  5
CE
330
17
100
AcDbEntity
  8
HIDDEN
100
AcDbPolyline
 90
2
 70
0
 10
269.0
 20
170.0
 10
269.0
 20
176.875
  0
LWPOLYLINE
  5
CF
330
17
100
AcDbEntity
  8
HIDDEN
100
AcDbPolyline
 90
15
 70
0
 10
275.5317788774502
 20
176.875
 10
275.8539124807562
 20
176.875
 10
276.31263047988944
 20
176.875
 10
276.89282134609516
 20
176.875
 10
277.57537187480233
 20
176.875
 10
278.3377968311593
 20
176.875
 10
279.15497968022953
 20
176.875
 10
280.0
 20
176.875
 10
280.84502031977047
 20
176.875
 10
281.6622031688407
 20
176.875
 10
282.42462812519767
 20
176.875
 10
283.10717865390484
 20
176.875
 10
283.68736952011056
 20
176.875
 10
284.1460875192438
 20
176.875
 10
284.4682211225498
 20
176.875
  0
LWPOLYLINE
  5
D0
330
17
100
AcDbEntity
  8
HIDDEN
100
AcDbPolyline
 90
15
 70
0
 10
319.5317788774502
 20
176.875
 10
319.8539124807562
 20
176.875
 10
320.31263047988944
 20
176.875
 10
320.89282134609516
 20
176.875
 10
321.57537187480233
 20
176.875
 10
322.3377968311593
 20
176.875
 10
323.15497968022953
 20
176.875
 10
324.0
 20
176.875
 10
324.84502031977047
 20
176.875
 10
325.6622031688407
 20
176.875
 10
326.42462812519767
 20
176.875
 10
327.10717865390484
 20
176.875
 10
327.68736952011056
 20
176.875
 10
328.1460875192438
 20
176.875
 10
328.4682211225498
 20
176.875
  0
LWPOLYLINE
  5
D1
330
17
100
AcDbEntity
  8
HIDDEN
100
AcDbPolyline
 90
15
 70
0
 10
275.5317788774502
 20
178.25
 10
275.503476787198
 20
178.25
 10
275.47721919489135
 20
178.25
 10
275.45301803944204
 20
178.25
 10
275.43088432473246
 20
178.25
 10
275.4108281146124
 20
178.25
 10
275.3928585283232
 20
178.25
 10
275.37698373635135
 20
178.25
 10
275.36321095671354
 20
178.25
 10
275.3515464516747
 20
178.25
 10
275.34199552490077
 20
178.25
 10
275.33456251904687
 20
178.25
 10
275.32925081378323
 20
178.25
 10
275.32606282425814
 20
178.25
 10
275.325
 20
178.25
  0
LWPOLYLINE
  5
D2
330
17
100
AcDbEntity
  8
HIDDEN
100
AcDbPolyline
 90
15
 70
0
 10
275.325
 20
178.25
 10
275.32606282425814
 20
178.25
 10
275.32925081378323
 20
178.25
 10
275.33456251904687
 20
178.25
 10
275.34199552490077
 20
178.25
 10
275.3515464516747
 20
178.25
 10
275.36321095671354
 20
178.25
 10
275.37698373635135
 20
178.25
 10
275.3928585283232
 20
178.25
 10
275.4108281146124
 20
178.25
 10
275.43088432473246
 20
178.25
 10
275.45301803944204
 20
178.25
 10
275.47721919489135
 20
178.25
 10
275.503476787198
 20
178.25
 10
275.5317788774502
 20
178.25
  0
LWPOLYLINE
  5
D3
330
17
100
AcDbEntity
  8
HIDDEN
100
AcDbPolyline
 90
15
 70
0
 10
284.4682211225498
 20
178.25
 10
284.496523212802
 20
178.25
 10
284.52278080510865
 20
178.25
 10
284.54698196055796
 20
178.25
 10
284.56911567526754
 20
178.25
 10
284.5891718853876
 20
178.25
 10
284.6071414716768
 20
178.25
 10
284.62301626364865
 20
178.25
 10
284.63678904328646
 20
178.25
 10
284.6484535483253
 20
178.25
 10
284.65800447509923
 20
178.25
 10
284.66543748095313
 20
178.25
 10
284.67074918621677
 20
178.25
 10
284.67393717574186
 20
178.25
 10
284.675
 20
178.25
  0
LWPOLYLINE
  5
D4
330
17
100
AcDbEntity
  8
HIDDEN
100
AcDbPolyline
 90
15
 70
0
 10
284.675
 20
178.25
 10
284.67393717574186
 20
178.25
 10
284.67074918621677
 20
178.25
 10
284.66543748095313
 20
178.25
 10
284.65800447509923
 20
178.25
 10
284.6484535483253
 20
178.25
 10
284.63678904328646
 20
178.25
 10
284.62301626364865
 20
178.25
 10
284.6071414716768
 20
178.25
 10
284.5891718853876
 20
178.25
 10
284.56911567526754
 20
178.25
 10
284.54698196055796
 20
178.25
 10
284.52278080510865
 20
178.25
 10
284.496523212802
 20
178.25
 10
284.4682211225498
 20
178.25
  0
LWPOLYLINE
  5
D5
330
17
100
AcDbEntity
  8
HIDDEN
100
AcDbPolyline
 90
15
 70
0
 10
284.4682211225498
 20
176.875
 10
284.32500093354366
 20
176.875
 10
284.1460875192438
 20
176.875
 10
283.9329574103846
 20
176.875
 10
283.68736952011056
 20
176.875
 10
283.4113506280761
 20
176.875
 10
283.10717865390484
 20
176.875
 10
282.77736385804957
 20
176.875
 10
282.42462812519767
 20
176.875
 10
282.0518825011906
 20
176.875
 10
281.6622031688407
 20
176.875
 10
281.25880606091073
 20
176.875
 10
280.84502031977047
 20
176.875
 10
280.4242608227594
 20
176.875
 10
280.00000000000006
 20
176.875
  0
LWPOLYLINE
  5
D6
330
17
100
AcDbEntity
  8
HIDDEN
100
AcDbPolyline
 90
15
 70
0
 10
280.0
 20
170.0
 10
279.47656607421703
 20
170.0
 10
278.95971463375423
 20
170.0
 10
278.4559453853596
 20
170.0
 10
277.9715935196254
 20
170.0
 10
277.5127500422908
 20
170.0
 10
277.0851851763104
 20
170.0
 10
276.6942757979529
 20
170.0
 10
276.34493781946196
 20
170.0
 10
276.0415643686078
 20
170.0
 10
275.7879705425562
 20
170.0
 10
275.5873454308084
 20
170.0
 10
275.44221201054995
 20
170.0
 10
275.3543954187491
 20
170.0
 10
275.325
 20
170.0
  0
LWPOLYLINE
  5
D7
330
17
100
AcDbEntity
  8
HIDDEN
100
AcDbPolyline
 90
15
 70
0
 10
275.325
 20
170.0
 10
275.44221201054995
 20
170.0
 10
275.7879705425562
 20
170.0
 10
276.34493781946196
 20
170.0
 10
277.0851851763104
 20
170.0
 10
277.9715935196254
 20
170.0
 10
278.95971463375423
 20
170.0
 10
280.0
 20
170.0
 10
281.04028536624577
 20
170.0
 10
282.0284064803746
 20
170.0
 10
282.9148148236896
 20
170.0
 10
283.65506218053804
 20
170.0
 10
284.2120294574438
 20
170.0
 10
284.55778798945005
 20
170.0
 10
284.675
 20
170.0
  0
LWPOLYLINE
  5
D8
330
17
100
AcDbEntity
  8
HIDDEN
100
AcDbPolyline
 90
15
 70
0
 10
284.675
 20
170.0
 10
284.6456045812509
 20
170.0
 10
284.55778798945005
 20
170.0
 10
284.4126545691916
 20
170.0
 10
284.2120294574438
 20
170.0
 10
283.9584356313922
 20
170.0
 10
283.65506218053804
 20
170.0
 10
283.3057242020471
 20
170.0
 10
282.9148148236896
 20
170.0
 10
282.4872499577092
 20
170.0
 10
282.0284064803746
 20
170.0
 10
281.5440546146404
 20
170.0
 10
281.04028536624577
 20
170.0
 10
280.52343392578297
 20
170.0
 10
280.00000000000006
 20
170.0
  0
LWPOLYLINE
  5
D9
330
17
100
AcDbEntity
  8
HIDDEN
100
AcDbPolyline
 90
15
 70
0
 10
280.0
 20
176.875
 10
279.5757391772406
 20
176.875
 10
279.15497968022953
 20
176.875
 10
278.7411939390892
 20
176.875
 10
278.3377968311593
 20
176.875
 10
277.9481174988094
 20
176.875
 10
277.57537187480233
 20
176.875
 10
277.22263614195043
 20
176.875
 10
276.89282134609516
 20
176.875
 10
276.5886493719239
 20
176.875
 10
276.31263047988944
 20
176.875
 10
276.0670425896154
 20
176.875
 10
275.8539124807562
 20
176.875
 10
275.67499906645634
 20
176.875
 10
275.5317788774502
 20
176.875
  0
LWPOLYLINE
  5
DA
330
17
100
AcDbEntity
  8
HIDDEN
100
AcDbPolyline
 90
15
 70
0
 10
319.5317788774502
 20
178.25
 10
319.503476787198
 20
178.25
 10
319.47721919489135
 20
178.25
 10
319.45301803944204
 20
178.25
 10
319.43088432473246
 20
178.25
 10
319.4108281146124
 20
178.25
 10
319.3928585283232
 20
178.25
 10
319.37698373635135
 20
178.25
 10
319.36321095671354
 20
178.25
 10
319.3515464516747
 20
178.25
 10
319.34199552490077
 20
178.25
 10
319.33456251904687
 20
178.25
 10
319.32925081378323
 20
178.25
 10
319.32606282425814
 20
178.25
 10
319.325
 20
178.25
  0
LWPOLYLINE
  5
DB
330
17
100
AcDbEntity
  8
HIDDEN
100
AcDbPolyline
 90
15
 70
0
 10
319.325
 20
178.25
 10
319.32606282425814
 20
178.25
 10
319.32925081378323
 20
178.25
 10
319.33456251904687
 20
178.25
 10
319.34199552490077
 20
178.25
 10
319.3515464516747
 20
178.25
 10
319.36321095671354
 20
178.25
 10
319.37698373635135
 20
178.25
 10
319.3928585283232
 20
178.25
 10
319.4108281146124
 20
178.25
 10
319.43088432473246
 20
178.25
 10
319.45301803944204
 20
178.25
 10
319.47721919489135
 20
178.25
 10
319.503476787198
 20
178.25
 10
319.5317788774502
 20
178.25
  0
LWPOLYLINE
  5
DC
330
17
100
AcDbEntity
  8
HIDDEN
100
AcDbPolyline
 90
15
 70
0
 10
328.4682211225498
 20
178.25
 10
328.496523212802
 20
178.25
 10
328.52278080510865
 20
178.25
 10
328.54698196055796
 20
178.25
 10
328.56911567526754
 20
178.25
 10
328.5891718853876
 20
178.25
 10
328.6071414716768
 20
178.25
 10
328.62301626364865
 20
178.25
 10
328.63678904328646
 20
178.25
 10
328.6484535483253
 20
178.25
 10
328.65800447509923
 20
178.25
 10
328.66543748095313
 20
178.25
 10
328.67074918621677
 20
178.25
 10
328.67393717574186
 20
178.25
 10
328.675
 20
178.25
  0
LWPOLYLINE
  5
DD
330
17
100
AcDbEntity
  8
HIDDEN
100
AcDbPolyline
 90
15
 70
0
 10
328.675
 20
178.25
 10
328.67393717574186
 20
178.25
 10
328.67074918621677
 20
178.25
 10
328.66543748095313
 20
178.25
 10
328.65800447509923
 20
178.25
 10
328.6484535483253
 20
178.25
 10
328.63678904328646
 20
178.25
 10
328.62301626364865
 20
178.25
 10
328.6071414716768
 20
178.25
 10
328.5891718853876
 20
178.25
 10
328.56911567526754
 20
178.25
 10
328.54698196055796
 20
178.25
 10
328.52278080510865
 20
178.25
 10
328.496523212802
 20
178.25
 10
328.4682211225498
 20
178.25
  0
LWPOLYLINE
  5
DE
330
17
100
AcDbEntity
  8
HIDDEN
100
AcDbPolyline
 90
15
 70
0
 10
328.4682211225498
 20
176.875
 10
328.32500093354366
 20
176.875
 10
328.1460875192438
 20
176.875
 10
327.9329574103846
 20
176.875
 10
327.68736952011056
 20
176.875
 10
327.4113506280761
 20
176.875
 10
327.10717865390484
 20
176.875
 10
326.77736385804957
 20
176.875
 10
326.42462812519767
 20
176.875
 10
326.0518825011906
 20
176.875
 10
325.6622031688407
 20
176.875
 10
325.25880606091073
 20
176.875
 10
324.84502031977047
 20
176.875
 10
324.4242608227594
 20
176.875
 10
324.00000000000006
 20
176.875
  0
LWPOLYLINE
  5
DF
330
17
100
AcDbEntity
  8
HIDDEN
100
AcDbPolyline
 90
15
 70
0
 10
324.0
 20
170.0
 10
323.47656607421703
 20
170.0
 10
322.95971463375423
 20
170.0
 10
322.4559453853596
 20
170.0
 10
321.9715935196254
 20
170.0
 10
321.5127500422908
 20
170.0
 10
321.0851851763104
 20
170.0
 10
320.6942757979529
 20
170.0
 10
320.34493781946196
 20
170.0
 10
320.0415643686078
 20
170.0
 10
319.7879705425562
 20
170.0
 10
319.5873454308084
 20
170.0
 10
319.44221201054995
 20
170.0
 10
319.3543954187491
 20
170.0
 10
319.325
 20
170.0
  0
LWPOLYLINE
  5
E0
330
17
100
AcDbEntity
  8
HIDDEN
100
AcDbPolyline
 90
15
 70
0
 10
319.325
 20
170.0
 10
319.44221201054995
 20
170.0
 10
319.7879705425562
 20
170.0
 10
320.34493781946196
 20
170.0
 10
321.0851851763104
 20
170.0
 10
321.9715935196254
 20
170.0
 10
322.95971463375423
 20
170.0
 10
324.0
 20
170.0
 10
325.04028536624577
 20
170.0
 10
326.0284064803746
 20
170.0
 10
326.9148148236896
 20
170.0
 10
327.65506218053804
 20
170.0
 10
328.2120294574438
 20
170.0
 10
328.55778798945005
 20
170.0
 10
328.675
 20
170.0
  0
LWPOLYLINE
  5
E1
330
17
100
AcDbEntity
  8
HIDDEN
100
AcDbPolyline
 90
15
 70
0
 10
328.675
 20
170.0
 10
328.6456045812509
 20
170.0
 10
328.55778798945005
 20
170.0
 10
328.4126545691916
 20
170.0
 10
328.2120294574438
 20
170.0
 10
327.9584356313922
 20
170.0
 10
327.65506218053804
 20
170.0
 10
327.3057242020471
 20
170.0
 10
326.9148148236896
 20
170.0
 10
326.4872499577092
 20
170.0
 10
326.0284064803746
 20
170.0
 10
325.5440546146404
 20
170.0
 10
325.04028536624577
 20
170.0
 10
324.52343392578297
 20
170.0
 10
324.00000000000006
 20
170.0
  0
LWPOLYLINE
  5
E2
330
17
100
AcDbEntity
  8
HIDDEN
100
AcDbPolyline
 90
15
 70
0
 10
324.0
 20
176.875
 10
323.5757391772406
 20
176.875
 10
323.15497968022953
 20
176.875
 10
322.7411939390892
 20
176.875
 10
322.3377968311593
 20
176.875
 10
321.9481174988094
 20
176.875
 10
321.57537187480233
 20
176.875
 10
321.22263614195043
 20
176.875
 10
320.89282134609516
 20
176.875
 10
320.5886493719239
 20
176.875
 10
320.31263047988944
 20
176.875
 10
320.0670425896154
 20
176.875
 10
319.8539124807562
 20
176.875
 10
319.67499906645634
 20
176.875
 10
319.5317788774502
 20
176.875
  0
LWPOLYLINE
  5
E3
330
17
100
AcDbEntity
  8
HIDDEN
100
AcDbPolyline
 90
2
 70
0
 10
335.0
 20
176.875
 10
269.0
 20
176.875
  0
LWPOLYLINE
  5
E4
330
17
100
AcDbEntity
  8
HIDDEN
100
AcDbPolyline
 90
2
 70
0
 10
335.0
 20
170.0
 10
269.0
 20
170.0
  0
LWPOLYLINE
  5
E5
330
17
100
AcDbEntity
  8
HIDDEN
100
AcDbPolyline
 90
2
 70
0
 10
284.675
 20
170.0
 10
284.675
 20
178.25
  0
LWPOLYLINE
  5
E6
330
17
100
AcDbEntity
  8
HIDDEN
100
AcDbPolyline
 90
2
 70
0
 10
275.325
 20
170.0
 10
275.325
 20
178.25
  0
LWPOLYLINE
  5
E7
330
17
100
AcDbEntity
  8
HIDDEN
100
AcDbPolyline
 90
2
 70
0
 10
328.675
 20
170.0
 10
328.675
 20
178.25
  0
LWPOLYLINE
  5
E8
330
17
100
AcDbEntity
  8
HIDDEN
100
AcDbPolyline
 90
2
 70
0
 10
319.325
 20
170.0
 10
319.325
 20
178.25
  0
LWPOLYLINE
  5
E9
330
17
100
AcDbEntity
  8
OUTLINE
100
AcDbPolyline
 90
2
 70
0
 10
348.75
 20
181.0
 10
348.75
 20
247.0
  0
LWPOLYLINE
  5
EA
330
17
100
AcDbEntity
  8
OUTLINE
100
AcDbPolyline
 90
2
 70
0
 10
348.75
 20
181.0
 10
335.0
 20
181.0
  0
LWPOLYLINE
  5
EB
330
17
100
AcDbEntity
  8
OUTLINE
100
AcDbPolyline
 90
2
 70
0
 10
335.0
 20
176.875
 10
335.0
 20
181.0
  0
LWPOLYLINE
  5
EC
330
17
100
AcDbEntity
  8
OUTLINE
100
AcDbPolyline
 90
2
 70
0
 10
328.4682211225498
 20
176.875
 10
328.4682211225498
 20
178.25
  0
LWPOLYLINE
  5
ED
330
17
100
AcDbEntity
  8
OUTLINE
100
AcDbPolyline
 90
2
 70
0
 10
319.5317788774502
 20
178.25
 10
328.4682211225498
 20
178.25
  0
LWPOLYLINE
  5
EE
330
17
100
AcDbEntity
  8
OUTLINE
100
AcDbPolyline
 90
2
 70
0
 10
319.5317788774502
 20
176.875
 10
319.5317788774502
 20
178.25
  0
LWPOLYLINE
  5
EF
330
17
100
AcDbEntity
  8
OUTLINE
100
AcDbPolyline
 90
2
 70
0
 10
284.4682211225498
 20
176.875
 10
284.4682211225498
 20
178.25
  0
LWPOLYLINE
  5
F0
330
17
100
AcDbEntity
  8
OUTLINE
100
AcDbPolyline
 90
2
 70
0
 10
275.5317788774502
 20
178.25
 10
284.4682211225498
 20
178.25
  0
LWPOLYLINE
  5
F1
330
17
100
AcDbEntity
  8
OUTLINE
100
AcDbPolyline
 90
2
 70
0
 10
275.5317788774502
 20
176.875
 10
275.5317788774502
 20
178.25
  0
LWPOLYLINE
  5
F2
330
17
100
AcDbEntity
  8
OUTLINE
100
AcDbPolyline
 90
2
 70
0
 10
269.0
 20
176.875
 10
269.0
 20
181.0
  0
LWPOLYLINE
  5
F3
330
17
100
AcDbEntity
  8
OUTLINE
100
AcDbPolyline
 90
2
 70
0
 10
269.0
 20
181.0
 10
255.25
 20
181.0
  0
LWPOLYLINE
  5
F4
330
17
100
AcDbEntity
  8
OUTLINE
100
AcDbPolyline
 90
2
 70
0
 10
255.25
 20
181.0
 10
255.25
 20
247.0
  0
LWPOLYLINE
  5
F5
330
17
100
AcDbEntity
  8
OUTLINE
100
AcDbPolyline
 90
2
 70
0
 10
348.75
 20
247.0
 10
255.25
 20
247.0
  0
LWPOLYLINE
  5
F6
330
17
100
AcDbEntity
  8
OUTLINE
100
AcDbPolyline
 90
22
 70
0
 10
263.5
 20
218.675
 10
264.87798044037095
 20
218.4673028670502
 10
266.1335212714474
 20
217.86266626992727
 10
267.15506218053804
 20
216.9148148236896
 10
267.85183477491165
 20
215.7079692889129
 10
268.161927751822
 20
214.34936318751653
 10
268.05778798945005
 20
212.95971463375423
 10
267.5486687626923
 20
211.6625
 10
266.67980754907904
 20
210.57298249919558
 10
265.5284064803746
 20
209.7879705425562
 10
264.1967725943736
 20
209.37721588739754
 10
262.8032274056264
 20
209.37721588739754
 10
261.4715935196254
 20
209.7879705425562
 10
260.32019245092096
 20
210.57298249919558
 10
259.4513312373077
 20
211.6625
 10
258.94221201054995
 20
212.95971463375423
 10
258.838072248178
 20
214.34936318751653
 10
259.14816522508835
 20
215.7079692889129
 10
259.84493781946196
 20
216.9148148236896
 10
260.8664787285526
 20
217.86266626992727
 10
262.12201955962905
 20
218.4673028670502
 10
263.5
 20
218.675
  0
LWPOLYLINE
  5
F7
330
17
100
AcDbEntity
  8
OUTLINE
100
AcDbPolyline
 90
22
 70
0
 10
340.5
 20
218.675
 10
341.87798044037095
 20
218.4673028670502
 10
343.1335212714474
 20
217.86266626992727
 10
344.15506218053804
 20
216.9148148236896
 10
344.85183477491165
 20
215.7079692889129
 10
345.161927751822
 20
214.34936318751653
 10
345.05778798945005
 20
212.95971463375423
 10
344.5486687626923
 20
211.6625
 10
343.67980754907904
 20
210.57298249919558
 10
342.5284064803746
 20
209.7879705425562
 10
341.1967725943736
 20
209.37721588739754
 10
339.8032274056264
 20
209.37721588739754
 10
338.4715935196254
 20
209.7879705425562
 10
337.32019245092096
 20
210.57298249919558
 10
336.4513312373077
 20
211.6625
 10
335.94221201054995
 20
212.95971463375423
 10
335.838072248178
 20
214.34936318751653
 10
336.14816522508835
 20
215.7079692889129
 10
336.84493781946196
 20
216.9148148236896
 10
337.8664787285526
 20
217.86266626992727
 10
339.12201955962905
 20
218.4673028670502
 10
340.5
 20
218.675
  0
LWPOLYLINE
  5
F8
330
17
100
AcDbEntity
  8
OUTLINE
100
AcDbPolyline
 90
2
 70
0
 10
335.0
 20
170.0
 10
335.0
 20
176.875
  0
LWPOLYLINE
  5
F9
330
17
100
AcDbEntity
  8
OUTLINE
100
AcDbPolyline
 90
2
 70
0
 10
269.0
 20
170.0
 10
269.0
 20
176.875
  0
LWPOLYLINE
  5
FA
330
17
100
AcDbEntity
  8
OUTLINE
100
AcDbPolyline
 90
2
 70
0
 10
335.0
 20
176.875
 10
269.0
 20
176.875
  0
LWPOLYLINE
  5
FB
330
17
100
AcDbEntity
  8
OUTLINE
100
AcDbPolyline
 90
2
 70
0
 10
335.0
 20
170.0
 10
269.0
 20
170.0
  0
TEXT
  5
FC
330
17
100
AcDbEntity
  8
TEXT
100
AcDbText
 10
217.0
 20
163.0
 30
0.0
 40
2.6
  1
END  (view scale 2.75:1)
100
AcDbText
  0
LWPOLYLINE
  5
FD
330
17
100
AcDbEntity
  8
DIM
100
AcDbPolyline
 90
2
 70
0
 10
89.11764705882354
 20
161.0
 10
124.88235294117646
 20
161.0
  0
LWPOLYLINE
  5
FE
330
17
100
AcDbEntity
  8
DIM
100
AcDbPolyline
 90
2
 70
0
 10
88.11764705882354
 20
160.0
 10
90.11764705882354
 20
162.0
  0
LWPOLYLINE
  5
FF
330
17
100
AcDbEntity
  8
DIM
100
AcDbPolyline
 90
2
 70
0
 10
123.88235294117646
 20
160.0
 10
125.88235294117646
 20
162.0
  0
TEXT
  5
100
330
17
100
AcDbEntity
  8
DIM
100
AcDbText
 10
100.7
 20
163.0
 30
0.0
 40
2.8
  1
16.0000 X
100
AcDbText
  0
LWPOLYLINE
  5
101
330
17
100
AcDbEntity
  8
DIM
100
AcDbPolyline
 90
2
 70
0
 10
202.0
 20
172.0
 10
202.0
 20
248.0
  0
LWPOLYLINE
  5
102
330
17
100
AcDbEntity
  8
DIM
100
AcDbPolyline
 90
2
 70
0
 10
201.0
 20
171.0
 10
203.0
 20
173.0
  0
LWPOLYLINE
  5
103
330
17
100
AcDbEntity
  8
DIM
100
AcDbPolyline
 90
2
 70
0
 10
201.0
 20
247.0
 10
203.0
 20
249.0
  0
TEXT
  5
104
330
17
100
AcDbEntity
  8
DIM
100
AcDbText
 10
204.0
 20
210.0
 30
0.0
 40
2.8
  1
34.00 Y
100
AcDbText
  0
LWPOLYLINE
  5
105
330
17
100
AcDbEntity
  8
DIM
100
AcDbPolyline
 90
2
 70
0
 10
202.0
 20
70.0
 10
202.0
 20
130.0
  0
LWPOLYLINE
  5
106
330
17
100
AcDbEntity
  8
DIM
100
AcDbPolyline
 90
2
 70
0
 10
201.0
 20
69.0
 10
203.0
 20
71.0
  0
LWPOLYLINE
  5
107
330
17
100
AcDbEntity
  8
DIM
100
AcDbPolyline
 90
2
 70
0
 10
201.0
 20
129.0
 10
203.0
 20
131.0
  0
TEXT
  5
108
330
17
100
AcDbEntity
  8
DIM
100
AcDbText
 10
204.0
 20
100.0
 30
0.0
 40
2.8
  1
28.00 Z
100
AcDbText
  0
TEXT
  5
109
330
17
100
AcDbEntity
  8
TEXT
100
AcDbText
 10
218.0
 20
128.0
 30
0.0
 40
2.8
  1
OPTIONAL spacer1.00 thick; all other dims P05.
100
AcDbText
  0
TEXT
  5
10A
330
17
100
AcDbEntity
  8
TEXT
100
AcDbText
 10
218.0
 20
117.0
 30
0.0
 40
2.8
  1
Regenerate assembly if selected; measure actual seating.
100
AcDbText
  0
TEXT
  5
10B
330
17
100
AcDbEntity
  8
TEXT
100
AcDbText
 10
218.0
 20
106.0
 30
0.0
 40
2.8
  1
Use with both south poles outward.
100
AcDbText
  0
TEXT
  5
10C
330
17
100
AcDbEntity
  8
TEXT
100
AcDbText
 10
218.0
 20
51.0
 30
0.0
 40
2.55
  1
General prototype target: +/-0.20mm unless called out.
100
AcDbText
  0
TEXT
  5
10D
330
17
100
AcDbEntity
  8
TEXT
100
AcDbText
 10
218.0
 20
41.0
 30
0.0
 40
2.55
  1
CAD is nominal. Fit, measure and qualify before calibration.
100
AcDbText
  0
ENDSEC
  0
SECTION
  2
OBJECTS
  0
DICTIONARY
  5
A
330
0
100
AcDbDictionary
281
1
  3
ACAD_COLOR
350
B
  3
ACAD_GROUP
350
C
  3
ACAD_LAYOUT
350
D
  3
ACAD_MATERIAL
350
E
  3
ACAD_MLEADERSTYLE
350
F
  3
ACAD_MLINESTYLE
350
10
  3
ACAD_PLOTSETTINGS
350
11
  3
ACAD_PLOTSTYLENAME
350
12
  3
ACAD_SCALELIST
350
14
  3
ACAD_TABLESTYLE
350
15
  3
ACAD_VISUALSTYLE
350
16
  3
EZDXF_META
350
2D
  0
DICTIONARY
  5
B
330
A
100
AcDbDictionary
281
1
  0
DICTIONARY
  5
C
330
A
100
AcDbDictionary
281
1
  0
DICTIONARY
  5
D
330
A
100
AcDbDictionary
281
1
  3
Model
350
1A
  3
Layout1
350
1E
  0
DICTIONARY
  5
E
330
A
100
AcDbDictionary
281
1
  3
ByBlock
350
1F
  3
ByLayer
350
20
  3
Global
350
21
  0
DICTIONARY
  5
F
330
A
100
AcDbDictionary
281
1
  3
Standard
350
2C
  0
DICTIONARY
  5
10
330
A
100
AcDbDictionary
281
1
  3
Standard
350
22
  0
DICTIONARY
  5
11
330
A
100
AcDbDictionary
281
1
  0
ACDBDICTIONARYWDFLT
  5
12
330
A
100
AcDbDictionary
281
1
  3
Normal
350
13
100
AcDbDictionaryWithDefault
340
13
  0
ACDBPLACEHOLDER
  5
13
330
12
  0
DICTIONARY
  5
14
330
A
100
AcDbDictionary
281
1
  0
DICTIONARY
  5
15
330
A
100
AcDbDictionary
281
1
  0
DICTIONARY
  5
16
330
A
100
AcDbDictionary
281
1
  0
LAYOUT
  5
1A
330
D
100
AcDbPlotSettings
  1

  4
A3
  6

 40
7.5
 41
20.0
 42
7.5
 43
20.0
 44
420.0
 45
297.0
 46
0.0
 47
0.0
 48
0.0
 49
0.0
140
0.0
141
0.0
142
1.0
143
1.0
 70
1024
 72
1
 73
0
 74
5
  7

 75
16
 76
0
 77
2
 78
300
147
1.0
148
0.0
149
0.0
100
AcDbLayout
  1
Model
 70
1
 71
0
 10
0.0
 20
0.0
 11
420.0
 21
297.0
 12
0.0
 22
0.0
 32
0.0
 14
1e+20
 24
1e+20
 34
1e+20
 15
-1e+20
 25
-1e+20
 35
-1e+20
146
0.0
 13
0.0
 23
0.0
 33
0.0
 16
1.0
 26
0.0
 36
0.0
 17
0.0
 27
1.0
 37
0.0
 76
1
330
17
  0
LAYOUT
  5
1E
330
D
100
AcDbPlotSettings
  1

  4
A3
  6

 40
7.5
 41
20.0
 42
7.5
 43
20.0
 44
420.0
 45
297.0
 46
0.0
 47
0.0
 48
0.0
 49
0.0
140
0.0
141
0.0
142
1.0
143
1.0
 70
0
 72
1
 73
0
 74
5
  7

 75
16
 76
0
 77
2
 78
300
147
1.0
148
0.0
149
0.0
100
AcDbLayout
  1
Layout1
 70
1
 71
1
 10
0.0
 20
0.0
 11
420.0
 21
297.0
 12
0.0
 22
0.0
 32
0.0
 14
1e+20
 24
1e+20
 34
1e+20
 15
-1e+20
 25
-1e+20
 35
-1e+20
146
0.0
 13
0.0
 23
0.0
 33
0.0
 16
1.0
 26
0.0
 36
0.0
 17
0.0
 27
1.0
 37
0.0
 76
1
330
1B
  0
MATERIAL
  5
1F
102
{ACAD_REACTORS
330
E
102
}
330
E
100
AcDbMaterial
  1
ByBlock
  2

 70
0
 40
1.0
 71
1
 41
1.0
 91
-1023410177
 42
1.0
 72
1
  3

 73
1
 74
1
 75
1
 44
0.5
 73
0
 45
1.0
 46
1.0
 77
1
  4

 78
1
 79
1
170
1
 48
1.0
171
1
  6

172
1
173
1
174
1
140
1.0
141
1.0
175
1
  7

176
1
177
1
178
1
143
1.0
179
1
  8

270
1
271
1
272
1
145
1.0
146
1.0
273
1
  9

274
1
275
1
276
1
 42
1.0
 72
1
  3

 73
1
 74
1
 75
1
 94
63
  0
MATERIAL
  5
20
102
{ACAD_REACTORS
330
E
102
}
330
E
100
AcDbMaterial
  1
ByLayer
  2

 70
0
 40
1.0
 71
1
 41
1.0
 91
-1023410177
 42
1.0
 72
1
  3

 73
1
 74
1
 75
1
 44
0.5
 73
0
 45
1.0
 46
1.0
 77
1
  4

 78
1
 79
1
170
1
 48
1.0
171
1
  6

172
1
173
1
174
1
140
1.0
141
1.0
175
1
  7

176
1
177
1
178
1
143
1.0
179
1
  8

270
1
271
1
272
1
145
1.0
146
1.0
273
1
  9

274
1
275
1
276
1
 42
1.0
 72
1
  3

 73
1
 74
1
 75
1
 94
63
  0
MATERIAL
  5
21
102
{ACAD_REACTORS
330
E
102
}
330
E
100
AcDbMaterial
  1
Global
  2

 70
0
 40
1.0
 71
1
 41
1.0
 91
-1023410177
 42
1.0
 72
1
  3

 73
1
 74
1
 75
1
 44
0.5
 73
0
 45
1.0
 46
1.0
 77
1
  4

 78
1
 79
1
170
1
 48
1.0
171
1
  6

172
1
173
1
174
1
140
1.0
141
1.0
175
1
  7

176
1
177
1
178
1
143
1.0
179
1
  8

270
1
271
1
272
1
145
1.0
146
1.0
273
1
  9

274
1
275
1
276
1
 42
1.0
 72
1
  3

 73
1
 74
1
 75
1
 94
63
  0
MLINESTYLE
  5
22
102
{ACAD_REACTORS
330
10
102
}
330
10
100
AcDbMlineStyle
  2
Standard
 70
0
  3

 62
256
 51
90.0
 52
90.0
 71
2
 49
0.5
 62
256
  6
BYLAYER
 49
-0.5
 62
256
  6
BYLAYER
  0
MLEADERSTYLE
  5
2C
102
{ACAD_REACTORS
330
F
102
}
330
F
100
AcDbMLeaderStyle
179
2
170
2
171
1
172
0
 90
2
 40
0.0
 41
0.0
173
1
 91
-1056964608
 92
-2
290
1
 42
2.0
291
1
 43
8.0
  3
Standard
 44
4.0
300

342
29
174
1
175
1
176
0
178
1
 93
-1056964608
 45
4.0
292
0
297
0
 46
4.0
 94
-1056964608
 47
1.0
 49
1.0
140
1.0
294
1
141
0.0
177
0
142
1.0
295
0
296
0
143
3.75
271
0
272
9
273
9
  0
DICTIONARY
  5
2D
330
A
100
AcDbDictionary
280
1
281
1
  3
CREATED_BY_EZDXF
350
2E
  3
WRITTEN_BY_EZDXF
350
110
  0
DICTIONARYVAR
  5
2E
330
2D
100
DictionaryVariables
280
0
  1
1.4.4 @ 2026-09-10T02:54:36.971310+00:00
  0
DICTIONARYVAR
  5
110
330
2D
100
DictionaryVariables
280
0
  1
1.4.4 @ 2026-09-10T02:54:37.032323+00:00
  0
ENDSEC
  0
EOF
