  0
SECTION
  2
HEADER
  9
$ACADVER
  1
AC1015
  9
$ACADMAINTVER
 70
6
  9
$DWGCODEPAGE
  3
ANSI_1252
  9
$INSBASE
 10
0.0
 20
0.0
 30
0.0
  9
$EXTMIN
 10
1e+20
 20
1e+20
 30
1e+20
  9
$EXTMAX
 10
-1e+20
 20
-1e+20
 30
-1e+20
  9
$LIMMIN
 10
0.0
 20
0.0
  9
$LIMMAX
 10
420.0
 20
297.0
  9
$ORTHOMODE
 70
0
  9
$REGENMODE
 70
1
  9
$FILLMODE
 70
1
  9
$QTEXTMODE
 70
0
  9
$MIRRTEXT
 70
1
  9
$LTSCALE
 40
1.0
  9
$ATTMODE
 70
1
  9
$TEXTSIZE
 40
2.5
  9
$TRACEWID
 40
1.0
  9
$TEXTSTYLE
  7
Standard
  9
$CLAYER
  8
0
  9
$CELTYPE
  6
ByLayer
  9
$CECOLOR
 62
256
  9
$CELTSCALE
 40
1.0
  9
$DISPSILH
 70
0
  9
$DIMSCALE
 40
1.0
  9
$DIMASZ
 40
2.5
  9
$DIMEXO
 40
0.625
  9
$DIMDLI
 40
3.75
  9
$DIMRND
 40
0.0
  9
$DIMDLE
 40
0.0
  9
$DIMEXE
 40
1.25
  9
$DIMTP
 40
0.0
  9
$DIMTM
 40
0.0
  9
$DIMTXT
 40
2.5
  9
$DIMCEN
 40
2.5
  9
$DIMTSZ
 40
0.0
  9
$DIMTOL
 70
0
  9
$DIMLIM
 70
0
  9
$DIMTIH
 70
0
  9
$DIMTOH
 70
0
  9
$DIMSE1
 70
0
  9
$DIMSE2
 70
0
  9
$DIMTAD
 70
1
  9
$DIMZIN
 70
8
  9
$DIMBLK
  1

  9
$DIMASO
 70
1
  9
$DIMSHO
 70
1
  9
$DIMPOST
  1

  9
$DIMAPOST
  1

  9
$DIMALT
 70
0
  9
$DIMALTD
 70
3
  9
$DIMALTF
 40
0.03937007874
  9
$DIMLFAC
 40
1.0
  9
$DIMTOFL
 70
1
  9
$DIMTVP
 40
0.0
  9
$DIMTIX
 70
0
  9
$DIMSOXD
 70
0
  9
$DIMSAH
 70
0
  9
$DIMBLK1
  1

  9
$DIMBLK2
  1

  9
$DIMSTYLE
  2
ISO-25
  9
$DIMCLRD
 70
0
  9
$DIMCLRE
 70
0
  9
$DIMCLRT
 70
0
  9
$DIMTFAC
 40
1.0
  9
$DIMGAP
 40
0.625
  9
$DIMJUST
 70
0
  9
$DIMSD1
 70
0
  9
$DIMSD2
 70
0
  9
$DIMTOLJ
 70
0
  9
$DIMTZIN
 70
8
  9
$DIMALTZ
 70
0
  9
$DIMALTTZ
 70
0
  9
$DIMUPT
 70
0
  9
$DIMDEC
 70
2
  9
$DIMTDEC
 70
2
  9
$DIMALTU
 70
2
  9
$DIMALTTD
 70
3
  9
$DIMTXSTY
  7
Standard
  9
$DIMAUNIT
 70
0
  9
$DIMADEC
 70
0
  9
$DIMALTRND
 40
0.0
  9
$DIMAZIN
 70
0
  9
$DIMDSEP
 70
44
  9
$DIMATFIT
 70
3
  9
$DIMFRAC
 70
0
  9
$DIMLDRBLK
  1

  9
$DIMLUNIT
 70
2
  9
$DIMLWD
 70
-2
  9
$DIMLWE
 70
-2
  9
$DIMTMOVE
 70
0
  9
$LUNITS
 70
2
  9
$LUPREC
 70
4
  9
$SKETCHINC
 40
1.0
  9
$FILLETRAD
 40
10.0
  9
$AUNITS
 70
0
  9
$AUPREC
 70
2
  9
$MENU
  1
.
  9
$ELEVATION
 40
0.0
  9
$PELEVATION
 40
0.0
  9
$THICKNESS
 40
0.0
  9
$LIMCHECK
 70
0
  9
$CHAMFERA
 40
0.0
  9
$CHAMFERB
 40
0.0
  9
$CHAMFERC
 40
0.0
  9
$CHAMFERD
 40
0.0
  9
$SKPOLY
 70
0
  9
$TDCREATE
 40
2461293.912916667
  9
$TDUCREATE
 40
2458532.153996898
  9
$TDUPDATE
 40
2461293.912916667
  9
$TDUUPDATE
 40
2458532.1544311
  9
$TDINDWG
 40
0.0
  9
$TDUSRTIMER
 40
0.0
  9
$USRTIMER
 70
1
  9
$ANGBASE
 50
0.0
  9
$ANGDIR
 70
0
  9
$PDMODE
 70
0
  9
$PDSIZE
 40
0.0
  9
$PLINEWID
 40
0.0
  9
$SPLFRAME
 70
0
  9
$SPLINETYPE
 70
6
  9
$SPLINESEGS
 70
8
  9
$HANDSEED
  5
EC
  9
$SURFTAB1
 70
6
  9
$SURFTAB2
 70
6
  9
$SURFTYPE
 70
6
  9
$SURFU
 70
6
  9
$SURFV
 70
6
  9
$UCSBASE
  2

  9
$UCSNAME
  2

  9
$UCSORG
 10
0.0
 20
0.0
 30
0.0
  9
$UCSXDIR
 10
1.0
 20
0.0
 30
0.0
  9
$UCSYDIR
 10
0.0
 20
1.0
 30
0.0
  9
$UCSORTHOREF
  2

  9
$UCSORTHOVIEW
 70
0
  9
$UCSORGTOP
 10
0.0
 20
0.0
 30
0.0
  9
$UCSORGBOTTOM
 10
0.0
 20
0.0
 30
0.0
  9
$UCSORGLEFT
 10
0.0
 20
0.0
 30
0.0
  9
$UCSORGRIGHT
 10
0.0
 20
0.0
 30
0.0
  9
$UCSORGFRONT
 10
0.0
 20
0.0
 30
0.0
  9
$UCSORGBACK
 10
0.0
 20
0.0
 30
0.0
  9
$PUCSBASE
  2

  9
$PUCSNAME
  2

  9
$PUCSORG
 10
0.0
 20
0.0
 30
0.0
  9
$PUCSXDIR
 10
1.0
 20
0.0
 30
0.0
  9
$PUCSYDIR
 10
0.0
 20
1.0
 30
0.0
  9
$PUCSORTHOREF
  2

  9
$PUCSORTHOVIEW
 70
0
  9
$PUCSORGTOP
 10
0.0
 20
0.0
 30
0.0
  9
$PUCSORGBOTTOM
 10
0.0
 20
0.0
 30
0.0
  9
$PUCSORGLEFT
 10
0.0
 20
0.0
 30
0.0
  9
$PUCSORGRIGHT
 10
0.0
 20
0.0
 30
0.0
  9
$PUCSORGFRONT
 10
0.0
 20
0.0
 30
0.0
  9
$PUCSORGBACK
 10
0.0
 20
0.0
 30
0.0
  9
$USERI1
 70
0
  9
$USERI2
 70
0
  9
$USERI3
 70
0
  9
$USERI4
 70
0
  9
$USERI5
 70
0
  9
$USERR1
 40
0.0
  9
$USERR2
 40
0.0
  9
$USERR3
 40
0.0
  9
$USERR4
 40
0.0
  9
$USERR5
 40
0.0
  9
$WORLDVIEW
 70
1
  9
$SHADEDGE
 70
3
  9
$SHADEDIF
 70
70
  9
$TILEMODE
 70
1
  9
$MAXACTVP
 70
64
  9
$PINSBASE
 10
0.0
 20
0.0
 30
0.0
  9
$PLIMCHECK
 70
0
  9
$PEXTMIN
 10
1e+20
 20
1e+20
 30
1e+20
  9
$PEXTMAX
 10
-1e+20
 20
-1e+20
 30
-1e+20
  9
$PLIMMIN
 10
0.0
 20
0.0
  9
$PLIMMAX
 10
420.0
 20
297.0
  9
$UNITMODE
 70
0
  9
$VISRETAIN
 70
1
  9
$PLINEGEN
 70
0
  9
$PSLTSCALE
 70
1
  9
$TREEDEPTH
 70
3020
  9
$CMLSTYLE
  2
Standard
  9
$CMLJUST
 70
0
  9
$CMLSCALE
 40
20.0
  9
$PROXYGRAPHICS
 70
1
  9
$MEASUREMENT
 70
1
  9
$CELWEIGHT
370
-1
  9
$ENDCAPS
280
0
  9
$JOINSTYLE
280
0
  9
$LWDISPLAY
290
0
  9
$INSUNITS
 70
4
  9
$HYPERLINKBASE
  1

  9
$STYLESHEET
  1

  9
$XEDIT
290
1
  9
$CEPSNTYPE
380
0
  9
$PSTYLEMODE
290
1
  9
$FINGERPRINTGUID
  2
{363DA5FD-A4CE-4005-86DD-4CB0546338F2}
  9
$VERSIONGUID
  2
{F47A8C92-1A28-4C60-8385-1C6A86239636}
  9
$EXTNAMES
290
1
  9
$PSVPSCALE
 40
0.0
  9
$OLESTARTUP
290
0
  0
ENDSEC
  0
SECTION
  2
CLASSES
  0
CLASS
  1
ACDBDICTIONARYWDFLT
  2
AcDbDictionaryWithDefault
  3
ObjectDBX Classes
 90
0
280
0
281
0
  0
CLASS
  1
SUN
  2
AcDbSun
  3
SCENEOE
 90
1153
280
0
281
0
  0
CLASS
  1
VISUALSTYLE
  2
AcDbVisualStyle
  3
ObjectDBX Classes
 90
4095
280
0
281
0
  0
CLASS
  1
MATERIAL
  2
AcDbMaterial
  3
ObjectDBX Classes
 90
1153
280
0
281
0
  0
CLASS
  1
SCALE
  2
AcDbScale
  3
ObjectDBX Classes
 90
1153
280
0
281
0
  0
CLASS
  1
TABLESTYLE
  2
AcDbTableStyle
  3
ObjectDBX Classes
 90
4095
280
0
281
0
  0
CLASS
  1
MLEADERSTYLE
  2
AcDbMLeaderStyle
  3
ACDB_MLEADERSTYLE_CLASS
 90
4095
280
0
281
0
  0
CLASS
  1
DICTIONARYVAR
  2
AcDbDictionaryVar
  3
ObjectDBX Classes
 90
0
280
0
281
0
  0
CLASS
  1
CELLSTYLEMAP
  2
AcDbCellStyleMap
  3
ObjectDBX Classes
 90
1152
280
0
281
0
  0
CLASS
  1
MENTALRAYRENDERSETTINGS
  2
AcDbMentalRayRenderSettings
  3
SCENEOE
 90
1024
280
0
281
0
  0
CLASS
  1
ACDBDETAILVIEWSTYLE
  2
AcDbDetailViewStyle
  3
ObjectDBX Classes
 90
1025
280
0
281
0
  0
CLASS
  1
ACDBSECTIONVIEWSTYLE
  2
AcDbSectionViewStyle
  3
ObjectDBX Classes
 90
1025
280
0
281
0
  0
CLASS
  1
RASTERVARIABLES
  2
AcDbRasterVariables
  3
ISM
 90
0
280
0
281
0
  0
CLASS
  1
ACDBPLACEHOLDER
  2
AcDbPlaceHolder
  3
ObjectDBX Classes
 90
0
280
0
281
0
  0
CLASS
  1
LAYOUT
  2
AcDbLayout
  3
ObjectDBX Classes
 90
0
280
0
281
0
  0
ENDSEC
  0
SECTION
  2
TABLES
  0
TABLE
  2
VPORT
  5
8
330
0
100
AcDbSymbolTable
 70
1
  0
VPORT
  5
23
330
8
100
AcDbSymbolTableRecord
100
AcDbViewportTableRecord
  2
*Active
 70
0
 10
0.0
 20
0.0
 11
1.0
 21
1.0
 12
0.0
 22
0.0
 13
0.0
 23
0.0
 14
0.5
 24
0.5
 15
0.5
 25
0.5
 16
0.0
 26
0.0
 36
1.0
 17
0.0
 27
0.0
 37
0.0
 40
1000.0
 41
1.34
 42
50.0
 43
0.0
 44
0.0
 50
0.0
 51
0.0
 71
0
 72
1000
 73
1
 74
3
 75
0
 76
0
 77
0
 78
0
281
0
 65
0
146
0.0
  0
ENDTAB
  0
TABLE
  2
LTYPE
  5
2
330
0
100
AcDbSymbolTable
 70
3
  0
LTYPE
  5
24
330
2
100
AcDbSymbolTableRecord
100
AcDbLinetypeTableRecord
  2
ByBlock
 70
0
  3

 72
65
 73
0
 40
0.0
  0
LTYPE
  5
25
330
2
100
AcDbSymbolTableRecord
100
AcDbLinetypeTableRecord
  2
ByLayer
 70
0
  3

 72
65
 73
0
 40
0.0
  0
LTYPE
  5
26
330
2
100
AcDbSymbolTableRecord
100
AcDbLinetypeTableRecord
  2
Continuous
 70
0
  3

 72
65
 73
0
 40
0.0
  0
ENDTAB
  0
TABLE
  2
LAYER
  5
1
330
0
100
AcDbSymbolTable
 70
6
  0
LAYER
  5
27
330
1
100
AcDbSymbolTableRecord
100
AcDbLayerTableRecord
  2
0
 70
0
 62
7
  6
Continuous
370
-3
390
13
  0
LAYER
  5
28
330
1
100
AcDbSymbolTableRecord
100
AcDbLayerTableRecord
  2
Defpoints
 70
0
 62
7
  6
Continuous
290
0
370
-3
390
13
  0
LAYER
  5
2F
330
1
100
AcDbSymbolTableRecord
100
AcDbLayerTableRecord
  2
OUTLINE
 70
0
 62
7
  6
Continuous
370
-3
390
13
  0
LAYER
  5
30
330
1
100
AcDbSymbolTableRecord
100
AcDbLayerTableRecord
  2
HIDDEN
 70
0
 62
8
  6
Continuous
370
-3
390
13
  0
LAYER
  5
31
330
1
100
AcDbSymbolTableRecord
100
AcDbLayerTableRecord
  2
DIM
 70
0
 62
4
  6
Continuous
370
-3
390
13
  0
LAYER
  5
32
330
1
100
AcDbSymbolTableRecord
100
AcDbLayerTableRecord
  2
TEXT
 70
0
 62
7
  6
Continuous
370
-3
390
13
  0
ENDTAB
  0
TABLE
  2
STYLE
  5
5
330
0
100
AcDbSymbolTable
 70
1
  0
STYLE
  5
29
330
5
100
AcDbSymbolTableRecord
100
AcDbTextStyleTableRecord
  2
Standard
 70
0
 40
0.0
 41
1.0
 50
0.0
 71
0
 42
2.5
  3
txt
  4

  0
ENDTAB
  0
TABLE
  2
VIEW
  5
7
330
0
100
AcDbSymbolTable
 70
0
  0
ENDTAB
  0
TABLE
  2
UCS
  5
6
330
0
100
AcDbSymbolTable
 70
0
  0
ENDTAB
  0
TABLE
  2
APPID
  5
3
330
0
100
AcDbSymbolTable
 70
3
  0
APPID
  5
2A
330
3
100
AcDbSymbolTableRecord
100
AcDbRegAppTableRecord
  2
ACAD
 70
0
  0
APPID
  5
E9
330
3
100
AcDbSymbolTableRecord
100
AcDbRegAppTableRecord
  2
HATCHBACKGROUNDCOLOR
 70
0
  0
APPID
  5
EA
330
3
100
AcDbSymbolTableRecord
100
AcDbRegAppTableRecord
  2
EZDXF
 70
0
  0
ENDTAB
  0
TABLE
  2
DIMSTYLE
  5
4
330
0
100
AcDbSymbolTable
 70
1
100
AcDbDimStyleTable
  0
DIMSTYLE
105
2B
330
4
100
AcDbSymbolTableRecord
100
AcDbDimStyleTableRecord
  2
Standard
 70
0
  3

  4

 40
1.0
 41
2.5
 42
0.625
 43
3.75
 44
1.25
 45
0.0
 46
0.0
 47
0.0
 48
0.0
140
2.5
141
2.5
142
0.0
143
0.03937007874
144
1.0
145
0.0
146
1.0
147
0.625
148
0.0
 71
0
 72
0
 73
0
 74
0
 75
0
 76
0
 77
1
 78
8
 79
3
170
0
171
3
172
1
173
0
174
0
175
0
176
0
177
0
178
0
179
2
271
2
272
2
273
2
274
3
275
0
276
0
277
2
278
44
279
0
280
0
281
0
282
0
283
0
284
8
285
0
286
0
288
0
289
3
371
-2
372
-2
  0
ENDTAB
  0
TABLE
  2
BLOCK_RECORD
  5
9
330
0
100
AcDbSymbolTable
 70
2
  0
BLOCK_RECORD
  5
17
330
9
100
AcDbSymbolTableRecord
100
AcDbBlockTableRecord
  2
*Model_Space
340
1A
  0
BLOCK_RECORD
  5
1B
330
9
100
AcDbSymbolTableRecord
100
AcDbBlockTableRecord
  2
*Paper_Space
340
1E
  0
ENDTAB
  0
ENDSEC
  0
SECTION
  2
BLOCKS
  0
BLOCK
  5
18
330
17
100
AcDbEntity
  8
0
100
AcDbBlockBegin
  2
*Model_Space
 70
0
 10
0.0
 20
0.0
 30
0.0
  3
*Model_Space
  1

  0
ENDBLK
  5
19
330
17
100
AcDbEntity
  8
0
100
AcDbBlockEnd
  0
BLOCK
  5
1C
330
1B
100
AcDbEntity
  8
0
100
AcDbBlockBegin
  2
*Paper_Space
 70
0
 10
0.0
 20
0.0
 30
0.0
  3
*Paper_Space
  1

  0
ENDBLK
  5
1D
330
1B
100
AcDbEntity
  8
0
100
AcDbBlockEnd
  0
ENDSEC
  0
SECTION
  2
ENTITIES
  0
LWPOLYLINE
  5
33
330
17
100
AcDbEntity
  8
OUTLINE
100
AcDbPolyline
 90
5
 70
0
 10
8.0
 20
8.0
 10
412.0
 20
8.0
 10
412.0
 20
289.0
 10
8.0
 20
289.0
 10
8.0
 20
8.0
  0
TEXT
  5
34
330
17
100
AcDbEntity
  8
TEXT
100
AcDbText
 10
15.0
 20
278.0
 30
0.0
 40
5.0
  1
P06  |  P06 MAGNET CUP QTY2
100
AcDbText
  0
TEXT
  5
35
330
17
100
AcDbEntity
  8
TEXT
100
AcDbText
 10
15.0
 20
270.0
 30
0.0
 40
2.6
  1
Prototype Rev A | Units mm | Dimensions control; do not scale printed pages
100
AcDbText
  0
LWPOLYLINE
  5
36
330
17
100
AcDbEntity
  8
OUTLINE
100
AcDbPolyline
 90
2
 70
0
 10
8.0
 20
32.0
 10
412.0
 20
32.0
  0
TEXT
  5
37
330
17
100
AcDbEntity
  8
TEXT
100
AcDbText
 10
15.0
 20
22.0
 30
0.0
 40
3.0
  1
HF-01  /  MAGNET-SENSOR CHARACTERIZATION
100
AcDbText
  0
TEXT
  5
38
330
17
100
AcDbEntity
  8
TEXT
100
AcDbText
 10
15.0
 20
15.0
 30
0.0
 40
2.4
  1
REV A  |  2026-09-09  |  Printed parts + McMaster COTS  |  Room-temperature bench prototype
100
AcDbText
  0
TEXT
  5
39
330
17
100
AcDbEntity
  8
TEXT
100
AcDbText
 10
332.0
 20
20.0
 30
0.0
 40
3.0
  1
P06  |  A3  |  MM
100
AcDbText
  0
LWPOLYLINE
  5
3A
330
17
100
AcDbEntity
  8
HIDDEN
100
AcDbPolyline
 90
2
 70
0
 10
104.77867647058824
 20
172.0
 10
104.77867647058824
 20
248.0
  0
LWPOLYLINE
  5
3B
330
17
100
AcDbEntity
  8
HIDDEN
100
AcDbPolyline
 90
15
 70
0
 10
104.77867647058824
 20
217.8235294117647
 10
104.77867647058824
 20
217.0226541003434
 10
104.77867647058824
 20
216.2318502606419
 10
104.77867647058824
 20
215.4610627097795
 10
104.77867647058824
 20
214.7199845484297
 10
104.77867647058824
 20
214.017935264455
 10
104.77867647058824
 20
213.36374353493989
 10
104.77867647058824
 20
212.76563620045388
 10
104.77867647058824
 20
212.23113480775808
 10
104.77867647058824
 20
211.76696102199062
 10
104.77867647058824
 20
211.3789520978274
 10
104.77867647058824
 20
211.0719874726178
 10
104.77867647058824
 20
210.84992740462883
 10
104.77867647058824
 20
210.71556442805775
 10
104.77867647058824
 20
210.6705882352941
  0
LWPOLYLINE
  5
3C
330
17
100
AcDbEntity
  8
HIDDEN
100
AcDbPolyline
 90
15
 70
0
 10
104.77867647058824
 20
210.6705882352941
 10
104.77867647058824
 20
210.84992740462883
 10
104.77867647058824
 20
211.3789520978274
 10
104.77867647058824
 20
212.23113480775808
 10
104.77867647058824
 20
213.36374353493989
 10
104.77867647058824
 20
214.7199845484297
 10
104.77867647058824
 20
216.2318502606419
 10
104.77867647058824
 20
217.8235294117647
 10
104.77867647058824
 20
219.41520856288753
 10
104.77867647058824
 20
220.9270742750997
 10
104.77867647058824
 20
222.28331528858953
 10
104.77867647058824
 20
223.4159240157713
 10
104.77867647058824
 20
224.268106725702
 10
104.77867647058824
 20
224.79713141890056
 10
104.77867647058824
 20
224.9764705882353
  0
LWPOLYLINE
  5
3D
330
17
100
AcDbEntity
  8
HIDDEN
100
AcDbPolyline
 90
15
 70
0
 10
104.77867647058824
 20
224.9764705882353
 10
104.77867647058824
 20
224.93149439547167
 10
104.77867647058824
 20
224.79713141890056
 10
104.77867647058824
 20
224.57507135091163
 10
104.77867647058824
 20
224.268106725702
 10
104.77867647058824
 20
223.8800978015388
 10
104.77867647058824
 20
223.4159240157713
 10
104.77867647058824
 20
222.88142262307554
 10
104.77867647058824
 20
222.28331528858953
 10
104.77867647058824
 20
221.6291235590744
 10
104.77867647058824
 20
220.9270742750997
 10
104.77867647058824
 20
220.1859961137499
 10
104.77867647058824
 20
219.41520856288753
 10
104.77867647058824
 20
218.62440472318602
 10
104.77867647058824
 20
217.82352941176478
  0
LWPOLYLINE
  5
3E
330
17
100
AcDbEntity
  8
HIDDEN
100
AcDbPolyline
 90
15
 70
0
 10
104.77867647058824
 20
241.29411764705884
 10
104.77867647058824
 20
240.86865263786626
 10
104.77867647058824
 20
240.44853809802484
 10
104.77867647058824
 20
240.0390572116292
 10
104.77867647058824
 20
239.6453594384121
 10
104.77867647058824
 20
239.27239575630054
 10
104.77867647058824
 20
238.92485639999563
 10
104.77867647058824
 20
238.60711187854994
 10
104.77867647058824
 20
238.3231580136803
 10
104.77867647058824
 20
238.07656568999136
 10
104.77867647058824
 20
237.87043594902963
 10
104.77867647058824
 20
237.70736099188701
 10
104.77867647058824
 20
237.58939158076788
 10
104.77867647058824
 20
237.5180112494645
 10
104.77867647058824
 20
237.49411764705883
  0
LWPOLYLINE
  5
3F
330
17
100
AcDbEntity
  8
HIDDEN
100
AcDbPolyline
 90
15
 70
0
 10
104.77867647058824
 20
237.49411764705883
 10
104.77867647058824
 20
237.58939158076788
 10
104.77867647058824
 20
237.87043594902963
 10
104.77867647058824
 20
238.3231580136803
 10
104.77867647058824
 20
238.92485639999563
 10
104.77867647058824
 20
239.6453594384121
 10
104.77867647058824
 20
240.44853809802484
 10
104.77867647058824
 20
241.29411764705884
 10
104.77867647058824
 20
242.1396971960928
 10
104.77867647058824
 20
242.94287585570555
 10
104.77867647058824
 20
243.66337889412202
 10
104.77867647058824
 20
244.26507728043734
 10
104.77867647058824
 20
244.71779934508803
 10
104.77867647058824
 20
244.99884371334974
 10
104.77867647058824
 20
245.09411764705882
  0
LWPOLYLINE
  5
40
330
17
100
AcDbEntity
  8
HIDDEN
100
AcDbPolyline
 90
15
 70
0
 10
104.77867647058824
 20
245.09411764705882
 10
104.77867647058824
 20
245.07022404465314
 10
104.77867647058824
 20
244.99884371334974
 10
104.77867647058824
 20
244.8808743022306
 10
104.77867647058824
 20
244.71779934508803
 10
104.77867647058824
 20
244.5116696041263
 10
104.77867647058824
 20
244.26507728043734
 10
104.77867647058824
 20
243.9811234155677
 10
104.77867647058824
 20
243.66337889412202
 10
104.77867647058824
 20
243.3158395378171
 10
104.77867647058824
 20
242.94287585570555
 10
104.77867647058824
 20
242.54917808248845
 10
104.77867647058824
 20
242.1396971960928
 10
104.77867647058824
 20
241.7195826562514
 10
104.77867647058824
 20
241.29411764705884
  0
LWPOLYLINE
  5
41
330
17
100
AcDbEntity
  8
HIDDEN
100
AcDbPolyline
 90
15
 70
0
 10
104.77867647058824
 20
217.8235294117647
 10
104.77867647058824
 20
217.0226541003434
 10
104.77867647058824
 20
216.2318502606419
 10
104.77867647058824
 20
215.4610627097795
 10
104.77867647058824
 20
214.7199845484297
 10
104.77867647058824
 20
214.017935264455
 10
104.77867647058824
 20
213.36374353493989
 10
104.77867647058824
 20
212.76563620045388
 10
104.77867647058824
 20
212.23113480775808
 10
104.77867647058824
 20
211.76696102199062
 10
104.77867647058824
 20
211.3789520978274
 10
104.77867647058824
 20
211.0719874726178
 10
104.77867647058824
 20
210.84992740462883
 10
104.77867647058824
 20
210.71556442805775
 10
104.77867647058824
 20
210.6705882352941
  0
LWPOLYLINE
  5
42
330
17
100
AcDbEntity
  8
HIDDEN
100
AcDbPolyline
 90
15
 70
0
 10
104.77867647058824
 20
210.6705882352941
 10
104.77867647058824
 20
210.84992740462883
 10
104.77867647058824
 20
211.3789520978274
 10
104.77867647058824
 20
212.23113480775808
 10
104.77867647058824
 20
213.36374353493989
 10
104.77867647058824
 20
214.7199845484297
 10
104.77867647058824
 20
216.2318502606419
 10
104.77867647058824
 20
217.8235294117647
 10
104.77867647058824
 20
219.41520856288753
 10
104.77867647058824
 20
220.9270742750997
 10
104.77867647058824
 20
222.28331528858953
 10
104.77867647058824
 20
223.4159240157713
 10
104.77867647058824
 20
224.268106725702
 10
104.77867647058824
 20
224.79713141890056
 10
104.77867647058824
 20
224.9764705882353
  0
LWPOLYLINE
  5
43
330
17
100
AcDbEntity
  8
HIDDEN
100
AcDbPolyline
 90
15
 70
0
 10
104.77867647058824
 20
224.9764705882353
 10
104.77867647058824
 20
224.93149439547167
 10
104.77867647058824
 20
224.79713141890056
 10
104.77867647058824
 20
224.57507135091163
 10
104.77867647058824
 20
224.268106725702
 10
104.77867647058824
 20
223.8800978015388
 10
104.77867647058824
 20
223.4159240157713
 10
104.77867647058824
 20
222.88142262307554
 10
104.77867647058824
 20
222.28331528858953
 10
104.77867647058824
 20
221.6291235590744
 10
104.77867647058824
 20
220.9270742750997
 10
104.77867647058824
 20
220.1859961137499
 10
104.77867647058824
 20
219.41520856288753
 10
104.77867647058824
 20
218.62440472318602
 10
104.77867647058824
 20
217.82352941176478
  0
LWPOLYLINE
  5
44
330
17
100
AcDbEntity
  8
HIDDEN
100
AcDbPolyline
 90
15
 70
0
 10
104.77867647058824
 20
202.1764705882353
 10
104.77867647058824
 20
201.37559527681398
 10
104.77867647058824
 20
200.58479143711247
 10
104.77867647058824
 20
199.8140038862501
 10
104.77867647058824
 20
199.0729257249003
 10
104.77867647058824
 20
198.3708764409256
 10
104.77867647058824
 20
197.71668471141047
 10
104.77867647058824
 20
197.11857737692446
 10
104.77867647058824
 20
196.5840759842287
 10
104.77867647058824
 20
196.1199021984612
 10
104.77867647058824
 20
195.731893274298
 10
104.77867647058824
 20
195.42492864908837
 10
104.77867647058824
 20
195.20286858109944
 10
104.77867647058824
 20
195.06850560452833
 10
104.77867647058824
 20
195.0235294117647
  0
LWPOLYLINE
  5
45
330
17
100
AcDbEntity
  8
HIDDEN
100
AcDbPolyline
 90
15
 70
0
 10
104.77867647058824
 20
195.0235294117647
 10
104.77867647058824
 20
195.20286858109944
 10
104.77867647058824
 20
195.731893274298
 10
104.77867647058824
 20
196.5840759842287
 10
104.77867647058824
 20
197.71668471141047
 10
104.77867647058824
 20
199.0729257249003
 10
104.77867647058824
 20
200.58479143711247
 10
104.77867647058824
 20
202.1764705882353
 10
104.77867647058824
 20
203.7681497393581
 10
104.77867647058824
 20
205.2800154515703
 10
104.77867647058824
 20
206.63625646506011
 10
104.77867647058824
 20
207.76886519224192
 10
104.77867647058824
 20
208.6210479021726
 10
104.77867647058824
 20
209.15007259537117
 10
104.77867647058824
 20
209.32941176470587
  0
LWPOLYLINE
  5
46
330
17
100
AcDbEntity
  8
HIDDEN
100
AcDbPolyline
 90
15
 70
0
 10
104.77867647058824
 20
209.3294117647059
 10
104.77867647058824
 20
209.28443557194225
 10
104.77867647058824
 20
209.15007259537117
 10
104.77867647058824
 20
208.9280125273822
 10
104.77867647058824
 20
208.6210479021726
 10
104.77867647058824
 20
208.23303897800938
 10
104.77867647058824
 20
207.76886519224192
 10
104.77867647058824
 20
207.23436379954612
 10
104.77867647058824
 20
206.63625646506011
 10
104.77867647058824
 20
205.982064735545
 10
104.77867647058824
 20
205.2800154515703
 10
104.77867647058824
 20
204.5389372902205
 10
104.77867647058824
 20
203.7681497393581
 10
104.77867647058824
 20
202.9773458996566
 10
104.77867647058824
 20
202.17647058823536
  0
LWPOLYLINE
  5
47
330
17
100
AcDbEntity
  8
HIDDEN
100
AcDbPolyline
 90
15
 70
0
 10
104.77867647058824
 20
210.0
 10
104.77867647058824
 20
209.16784049672628
 10
104.77867647058824
 20
208.34614588203644
 10
104.77867647058824
 20
207.5452494424685
 10
104.77867647058824
 20
206.77522291544096
 10
104.77867647058824
 20
206.045749831311
 10
104.77867647058824
 20
205.3660037373617
 10
104.77867647058824
 20
204.74453283512233
 10
104.77867647058824
 20
204.18915248177439
 10
104.77867647058824
 20
203.70684690750036
 10
104.77867647058824
 20
203.30368138473702
 10
104.77867647058824
 20
202.98472595385516
 10
104.77867647058824
 20
202.7539916644604
 10
104.77867647058824
 20
202.614380134117
 10
104.77867647058824
 20
202.56764705882352
  0
LWPOLYLINE
  5
48
330
17
100
AcDbEntity
  8
HIDDEN
100
AcDbPolyline
 90
15
 70
0
 10
104.77867647058824
 20
202.56764705882352
 10
104.77867647058824
 20
202.7539916644604
 10
104.77867647058824
 20
203.30368138473702
 10
104.77867647058824
 20
204.18915248177439
 10
104.77867647058824
 20
205.3660037373617
 10
104.77867647058824
 20
206.77522291544096
 10
104.77867647058824
 20
208.34614588203644
 10
104.77867647058824
 20
210.0
 10
104.77867647058824
 20
211.65385411796356
 10
104.77867647058824
 20
213.22477708455904
 10
104.77867647058824
 20
214.6339962626383
 10
104.77867647058824
 20
215.81084751822561
 10
104.77867647058824
 20
216.69631861526298
 10
104.77867647058824
 20
217.2460083355396
 10
104.77867647058824
 20
217.43235294117648
  0
LWPOLYLINE
  5
49
330
17
100
AcDbEntity
  8
HIDDEN
100
AcDbPolyline
 90
15
 70
0
 10
104.77867647058824
 20
217.43235294117648
 10
104.77867647058824
 20
217.385619865883
 10
104.77867647058824
 20
217.2460083355396
 10
104.77867647058824
 20
217.01527404614484
 10
104.77867647058824
 20
216.69631861526298
 10
104.77867647058824
 20
216.29315309249964
 10
104.77867647058824
 20
215.81084751822561
 10
104.77867647058824
 20
215.25546716487767
 10
104.77867647058824
 20
214.6339962626383
 10
104.77867647058824
 20
213.954250168689
 10
104.77867647058824
 20
213.22477708455904
 10
104.77867647058824
 20
212.4547505575315
 10
104.77867647058824
 20
211.65385411796356
 10
104.77867647058824
 20
210.83215950327372
 10
104.77867647058824
 20
210.00000000000006
  0
LWPOLYLINE
  5
4A
330
17
100
AcDbEntity
  8
HIDDEN
100
AcDbPolyline
 90
15
 70
0
 10
104.77867647058824
 20
202.1764705882353
 10
104.77867647058824
 20
201.37559527681398
 10
104.77867647058824
 20
200.58479143711247
 10
104.77867647058824
 20
199.8140038862501
 10
104.77867647058824
 20
199.0729257249003
 10
104.77867647058824
 20
198.3708764409256
 10
104.77867647058824
 20
197.71668471141047
 10
104.77867647058824
 20
197.11857737692446
 10
104.77867647058824
 20
196.5840759842287
 10
104.77867647058824
 20
196.1199021984612
 10
104.77867647058824
 20
195.731893274298
 10
104.77867647058824
 20
195.42492864908837
 10
104.77867647058824
 20
195.20286858109944
 10
104.77867647058824
 20
195.06850560452833
 10
104.77867647058824
 20
195.0235294117647
  0
LWPOLYLINE
  5
4B
330
17
100
AcDbEntity
  8
HIDDEN
100
AcDbPolyline
 90
15
 70
0
 10
104.77867647058824
 20
195.0235294117647
 10
104.77867647058824
 20
195.20286858109944
 10
104.77867647058824
 20
195.731893274298
 10
104.77867647058824
 20
196.5840759842287
 10
104.77867647058824
 20
197.71668471141047
 10
104.77867647058824
 20
199.0729257249003
 10
104.77867647058824
 20
200.58479143711247
 10
104.77867647058824
 20
202.1764705882353
 10
104.77867647058824
 20
203.7681497393581
 10
104.77867647058824
 20
205.2800154515703
 10
104.77867647058824
 20
206.63625646506011
 10
104.77867647058824
 20
207.76886519224192
 10
104.77867647058824
 20
208.6210479021726
 10
104.77867647058824
 20
209.15007259537117
 10
104.77867647058824
 20
209.32941176470587
  0
LWPOLYLINE
  5
4C
330
17
100
AcDbEntity
  8
HIDDEN
100
AcDbPolyline
 90
15
 70
0
 10
104.77867647058824
 20
209.3294117647059
 10
104.77867647058824
 20
209.28443557194225
 10
104.77867647058824
 20
209.15007259537117
 10
104.77867647058824
 20
208.9280125273822
 10
104.77867647058824
 20
208.6210479021726
 10
104.77867647058824
 20
208.23303897800938
 10
104.77867647058824
 20
207.76886519224192
 10
104.77867647058824
 20
207.23436379954612
 10
104.77867647058824
 20
206.63625646506011
 10
104.77867647058824
 20
205.982064735545
 10
104.77867647058824
 20
205.2800154515703
 10
104.77867647058824
 20
204.5389372902205
 10
104.77867647058824
 20
203.7681497393581
 10
104.77867647058824
 20
202.9773458996566
 10
104.77867647058824
 20
202.17647058823536
  0
LWPOLYLINE
  5
4D
330
17
100
AcDbEntity
  8
HIDDEN
100
AcDbPolyline
 90
15
 70
0
 10
104.77867647058824
 20
178.70588235294116
 10
104.77867647058824
 20
178.2804173437486
 10
104.77867647058824
 20
177.8603028039072
 10
104.77867647058824
 20
177.45082191751155
 10
104.77867647058824
 20
177.05712414429445
 10
104.77867647058824
 20
176.6841604621829
 10
104.77867647058824
 20
176.33662110587798
 10
104.77867647058824
 20
176.0188765844323
 10
104.77867647058824
 20
175.73492271956266
 10
104.77867647058824
 20
175.4883303958737
 10
104.77867647058824
 20
175.28220065491197
 10
104.77867647058824
 20
175.1191256977694
 10
104.77867647058824
 20
175.00115628665026
 10
104.77867647058824
 20
174.92977595534686
 10
104.77867647058824
 20
174.90588235294118
  0
LWPOLYLINE
  5
4E
330
17
100
AcDbEntity
  8
HIDDEN
100
AcDbPolyline
 90
15
 70
0
 10
104.77867647058824
 20
174.90588235294118
 10
104.77867647058824
 20
175.00115628665026
 10
104.77867647058824
 20
175.28220065491197
 10
104.77867647058824
 20
175.73492271956266
 10
104.77867647058824
 20
176.33662110587798
 10
104.77867647058824
 20
177.05712414429445
 10
104.77867647058824
 20
177.8603028039072
 10
104.77867647058824
 20
178.70588235294116
 10
104.77867647058824
 20
179.55146190197516
 10
104.77867647058824
 20
180.3546405615879
 10
104.77867647058824
 20
181.07514360000437
 10
104.77867647058824
 20
181.6768419863197
 10
104.77867647058824
 20
182.12956405097037
 10
104.77867647058824
 20
182.41060841923212
 10
104.77867647058824
 20
182.50588235294117
  0
LWPOLYLINE
  5
4F
330
17
100
AcDbEntity
  8
HIDDEN
100
AcDbPolyline
 90
15
 70
0
 10
104.77867647058824
 20
182.50588235294117
 10
104.77867647058824
 20
182.4819887505355
 10
104.77867647058824
 20
182.41060841923212
 10
104.77867647058824
 20
182.29263900811299
 10
104.77867647058824
 20
182.12956405097037
 10
104.77867647058824
 20
181.92343431000864
 10
104.77867647058824
 20
181.6768419863197
 10
104.77867647058824
 20
181.39288812145006
 10
104.77867647058824
 20
181.07514360000437
 10
104.77867647058824
 20
180.72760424369946
 10
104.77867647058824
 20
180.3546405615879
 10
104.77867647058824
 20
179.9609427883708
 10
104.77867647058824
 20
179.55146190197516
 10
104.77867647058824
 20
179.13134736213374
 10
104.77867647058824
 20
178.70588235294122
  0
LWPOLYLINE
  5
50
330
17
100
AcDbEntity
  8
HIDDEN
100
AcDbPolyline
 90
2
 70
0
 10
104.77867647058824
 20
172.0
 10
109.22132352941176
 20
172.0
  0
LWPOLYLINE
  5
51
330
17
100
AcDbEntity
  8
HIDDEN
100
AcDbPolyline
 90
2
 70
0
 10
104.77867647058824
 20
248.0
 10
109.22132352941176
 20
248.0
  0
LWPOLYLINE
  5
52
330
17
100
AcDbEntity
  8
HIDDEN
100
AcDbPolyline
 90
2
 70
0
 10
109.22132352941176
 20
172.0
 10
109.22132352941176
 20
248.0
  0
LWPOLYLINE
  5
53
330
17
100
AcDbEntity
  8
HIDDEN
100
AcDbPolyline
 90
15
 70
0
 10
109.22132352941176
 20
217.8235294117647
 10
109.22132352941176
 20
217.0226541003434
 10
109.22132352941176
 20
216.2318502606419
 10
109.22132352941176
 20
215.4610627097795
 10
109.22132352941176
 20
214.7199845484297
 10
109.22132352941176
 20
214.017935264455
 10
109.22132352941176
 20
213.36374353493989
 10
109.22132352941176
 20
212.76563620045388
 10
109.22132352941176
 20
212.23113480775808
 10
109.22132352941176
 20
211.76696102199062
 10
109.22132352941176
 20
211.3789520978274
 10
109.22132352941176
 20
211.0719874726178
 10
109.22132352941176
 20
210.84992740462883
 10
109.22132352941176
 20
210.71556442805775
 10
109.22132352941176
 20
210.6705882352941
  0
LWPOLYLINE
  5
54
330
17
100
AcDbEntity
  8
HIDDEN
100
AcDbPolyline
 90
15
 70
0
 10
109.22132352941176
 20
210.6705882352941
 10
109.22132352941176
 20
210.84992740462883
 10
109.22132352941176
 20
211.3789520978274
 10
109.22132352941176
 20
212.23113480775808
 10
109.22132352941176
 20
213.36374353493989
 10
109.22132352941176
 20
214.7199845484297
 10
109.22132352941176
 20
216.2318502606419
 10
109.22132352941176
 20
217.8235294117647
 10
109.22132352941176
 20
219.41520856288753
 10
109.22132352941176
 20
220.9270742750997
 10
109.22132352941176
 20
222.28331528858953
 10
109.22132352941176
 20
223.4159240157713
 10
109.22132352941176
 20
224.268106725702
 10
109.22132352941176
 20
224.79713141890056
 10
109.22132352941176
 20
224.9764705882353
  0
LWPOLYLINE
  5
55
330
17
100
AcDbEntity
  8
HIDDEN
100
AcDbPolyline
 90
15
 70
0
 10
109.22132352941176
 20
224.9764705882353
 10
109.22132352941176
 20
224.93149439547167
 10
109.22132352941176
 20
224.79713141890056
 10
109.22132352941176
 20
224.57507135091163
 10
109.22132352941176
 20
224.268106725702
 10
109.22132352941176
 20
223.8800978015388
 10
109.22132352941176
 20
223.4159240157713
 10
109.22132352941176
 20
222.88142262307554
 10
109.22132352941176
 20
222.28331528858953
 10
109.22132352941176
 20
221.6291235590744
 10
109.22132352941176
 20
220.9270742750997
 10
109.22132352941176
 20
220.1859961137499
 10
109.22132352941176
 20
219.41520856288753
 10
109.22132352941176
 20
218.62440472318602
 10
109.22132352941176
 20
217.82352941176478
  0
LWPOLYLINE
  5
56
330
17
100
AcDbEntity
  8
HIDDEN
100
AcDbPolyline
 90
15
 70
0
 10
109.22132352941176
 20
241.29411764705884
 10
109.22132352941176
 20
240.86865263786626
 10
109.22132352941176
 20
240.44853809802484
 10
109.22132352941176
 20
240.0390572116292
 10
109.22132352941176
 20
239.6453594384121
 10
109.22132352941176
 20
239.27239575630054
 10
109.22132352941176
 20
238.92485639999563
 10
109.22132352941176
 20
238.60711187854994
 10
109.22132352941176
 20
238.3231580136803
 10
109.22132352941176
 20
238.07656568999136
 10
109.22132352941176
 20
237.87043594902963
 10
109.22132352941176
 20
237.70736099188701
 10
109.22132352941176
 20
237.58939158076788
 10
109.22132352941176
 20
237.5180112494645
 10
109.22132352941176
 20
237.49411764705883
  0
LWPOLYLINE
  5
57
330
17
100
AcDbEntity
  8
HIDDEN
100
AcDbPolyline
 90
15
 70
0
 10
109.22132352941176
 20
237.49411764705883
 10
109.22132352941176
 20
237.58939158076788
 10
109.22132352941176
 20
237.87043594902963
 10
109.22132352941176
 20
238.3231580136803
 10
109.22132352941176
 20
238.92485639999563
 10
109.22132352941176
 20
239.6453594384121
 10
109.22132352941176
 20
240.44853809802484
 10
109.22132352941176
 20
241.29411764705884
 10
109.22132352941176
 20
242.1396971960928
 10
109.22132352941176
 20
242.94287585570555
 10
109.22132352941176
 20
243.66337889412202
 10
109.22132352941176
 20
244.26507728043734
 10
109.22132352941176
 20
244.71779934508803
 10
109.22132352941176
 20
244.99884371334974
 10
109.22132352941176
 20
245.09411764705882
  0
LWPOLYLINE
  5
58
330
17
100
AcDbEntity
  8
HIDDEN
100
AcDbPolyline
 90
15
 70
0
 10
109.22132352941176
 20
245.09411764705882
 10
109.22132352941176
 20
245.07022404465314
 10
109.22132352941176
 20
244.99884371334974
 10
109.22132352941176
 20
244.8808743022306
 10
109.22132352941176
 20
244.71779934508803
 10
109.22132352941176
 20
244.5116696041263
 10
109.22132352941176
 20
244.26507728043734
 10
109.22132352941176
 20
243.9811234155677
 10
109.22132352941176
 20
243.66337889412202
 10
109.22132352941176
 20
243.3158395378171
 10
109.22132352941176
 20
242.94287585570555
 10
109.22132352941176
 20
242.54917808248845
 10
109.22132352941176
 20
242.1396971960928
 10
109.22132352941176
 20
241.7195826562514
 10
109.22132352941176
 20
241.29411764705884
  0
LWPOLYLINE
  5
59
330
17
100
AcDbEntity
  8
HIDDEN
100
AcDbPolyline
 90
15
 70
0
 10
109.22132352941176
 20
217.8235294117647
 10
109.22132352941176
 20
217.0226541003434
 10
109.22132352941176
 20
216.2318502606419
 10
109.22132352941176
 20
215.4610627097795
 10
109.22132352941176
 20
214.7199845484297
 10
109.22132352941176
 20
214.017935264455
 10
109.22132352941176
 20
213.36374353493989
 10
109.22132352941176
 20
212.76563620045388
 10
109.22132352941176
 20
212.23113480775808
 10
109.22132352941176
 20
211.76696102199062
 10
109.22132352941176
 20
211.3789520978274
 10
109.22132352941176
 20
211.0719874726178
 10
109.22132352941176
 20
210.84992740462883
 10
109.22132352941176
 20
210.71556442805775
 10
109.22132352941176
 20
210.6705882352941
  0
LWPOLYLINE
  5
5A
330
17
100
AcDbEntity
  8
HIDDEN
100
AcDbPolyline
 90
15
 70
0
 10
109.22132352941176
 20
210.6705882352941
 10
109.22132352941176
 20
210.84992740462883
 10
109.22132352941176
 20
211.3789520978274
 10
109.22132352941176
 20
212.23113480775808
 10
109.22132352941176
 20
213.36374353493989
 10
109.22132352941176
 20
214.7199845484297
 10
109.22132352941176
 20
216.2318502606419
 10
109.22132352941176
 20
217.8235294117647
 10
109.22132352941176
 20
219.41520856288753
 10
109.22132352941176
 20
220.9270742750997
 10
109.22132352941176
 20
222.28331528858953
 10
109.22132352941176
 20
223.4159240157713
 10
109.22132352941176
 20
224.268106725702
 10
109.22132352941176
 20
224.79713141890056
 10
109.22132352941176
 20
224.9764705882353
  0
LWPOLYLINE
  5
5B
330
17
100
AcDbEntity
  8
HIDDEN
100
AcDbPolyline
 90
15
 70
0
 10
109.22132352941176
 20
224.9764705882353
 10
109.22132352941176
 20
224.93149439547167
 10
109.22132352941176
 20
224.79713141890056
 10
109.22132352941176
 20
224.57507135091163
 10
109.22132352941176
 20
224.268106725702
 10
109.22132352941176
 20
223.8800978015388
 10
109.22132352941176
 20
223.4159240157713
 10
109.22132352941176
 20
222.88142262307554
 10
109.22132352941176
 20
222.28331528858953
 10
109.22132352941176
 20
221.6291235590744
 10
109.22132352941176
 20
220.9270742750997
 10
109.22132352941176
 20
220.1859961137499
 10
109.22132352941176
 20
219.41520856288753
 10
109.22132352941176
 20
218.62440472318602
 10
109.22132352941176
 20
217.82352941176478
  0
LWPOLYLINE
  5
5C
330
17
100
AcDbEntity
  8
HIDDEN
100
AcDbPolyline
 90
15
 70
0
 10
109.22132352941176
 20
202.1764705882353
 10
109.22132352941176
 20
201.37559527681398
 10
109.22132352941176
 20
200.58479143711247
 10
109.22132352941176
 20
199.8140038862501
 10
109.22132352941176
 20
199.0729257249003
 10
109.22132352941176
 20
198.3708764409256
 10
109.22132352941176
 20
197.71668471141047
 10
109.22132352941176
 20
197.11857737692446
 10
109.22132352941176
 20
196.5840759842287
 10
109.22132352941176
 20
196.1199021984612
 10
109.22132352941176
 20
195.731893274298
 10
109.22132352941176
 20
195.42492864908837
 10
109.22132352941176
 20
195.20286858109944
 10
109.22132352941176
 20
195.06850560452833
 10
109.22132352941176
 20
195.0235294117647
  0
LWPOLYLINE
  5
5D
330
17
100
AcDbEntity
  8
HIDDEN
100
AcDbPolyline
 90
15
 70
0
 10
109.22132352941176
 20
195.0235294117647
 10
109.22132352941176
 20
195.20286858109944
 10
109.22132352941176
 20
195.731893274298
 10
109.22132352941176
 20
196.5840759842287
 10
109.22132352941176
 20
197.71668471141047
 10
109.22132352941176
 20
199.0729257249003
 10
109.22132352941176
 20
200.58479143711247
 10
109.22132352941176
 20
202.1764705882353
 10
109.22132352941176
 20
203.7681497393581
 10
109.22132352941176
 20
205.2800154515703
 10
109.22132352941176
 20
206.63625646506011
 10
109.22132352941176
 20
207.76886519224192
 10
109.22132352941176
 20
208.6210479021726
 10
109.22132352941176
 20
209.15007259537117
 10
109.22132352941176
 20
209.32941176470587
  0
LWPOLYLINE
  5
5E
330
17
100
AcDbEntity
  8
HIDDEN
100
AcDbPolyline
 90
15
 70
0
 10
109.22132352941176
 20
209.3294117647059
 10
109.22132352941176
 20
209.28443557194225
 10
109.22132352941176
 20
209.15007259537117
 10
109.22132352941176
 20
208.9280125273822
 10
109.22132352941176
 20
208.6210479021726
 10
109.22132352941176
 20
208.23303897800938
 10
109.22132352941176
 20
207.76886519224192
 10
109.22132352941176
 20
207.23436379954612
 10
109.22132352941176
 20
206.63625646506011
 10
109.22132352941176
 20
205.982064735545
 10
109.22132352941176
 20
205.2800154515703
 10
109.22132352941176
 20
204.5389372902205
 10
109.22132352941176
 20
203.7681497393581
 10
109.22132352941176
 20
202.9773458996566
 10
109.22132352941176
 20
202.17647058823536
  0
LWPOLYLINE
  5
5F
330
17
100
AcDbEntity
  8
HIDDEN
100
AcDbPolyline
 90
15
 70
0
 10
108.32720588235294
 20
210.0
 10
108.32720588235294
 20
209.16784049672628
 10
108.32720588235294
 20
208.34614588203644
 10
108.32720588235294
 20
207.5452494424685
 10
108.32720588235294
 20
206.77522291544096
 10
108.32720588235294
 20
206.045749831311
 10
108.32720588235294
 20
205.3660037373617
 10
108.32720588235294
 20
204.74453283512233
 10
108.32720588235294
 20
204.18915248177439
 10
108.32720588235294
 20
203.70684690750036
 10
108.32720588235294
 20
203.30368138473702
 10
108.32720588235294
 20
202.98472595385516
 10
108.32720588235294
 20
202.7539916644604
 10
108.32720588235294
 20
202.614380134117
 10
108.32720588235294
 20
202.56764705882352
  0
LWPOLYLINE
  5
60
330
17
100
AcDbEntity
  8
HIDDEN
100
AcDbPolyline
 90
15
 70
0
 10
108.32720588235294
 20
202.56764705882352
 10
108.32720588235294
 20
202.7539916644604
 10
108.32720588235294
 20
203.30368138473702
 10
108.32720588235294
 20
204.18915248177439
 10
108.32720588235294
 20
205.3660037373617
 10
108.32720588235294
 20
206.77522291544096
 10
108.32720588235294
 20
208.34614588203644
 10
108.32720588235294
 20
210.0
 10
108.32720588235294
 20
211.65385411796356
 10
108.32720588235294
 20
213.22477708455904
 10
108.32720588235294
 20
214.6339962626383
 10
108.32720588235294
 20
215.81084751822561
 10
108.32720588235294
 20
216.69631861526298
 10
108.32720588235294
 20
217.2460083355396
 10
108.32720588235294
 20
217.43235294117648
  0
LWPOLYLINE
  5
61
330
17
100
AcDbEntity
  8
HIDDEN
100
AcDbPolyline
 90
15
 70
0
 10
108.32720588235294
 20
217.43235294117648
 10
108.32720588235294
 20
217.385619865883
 10
108.32720588235294
 20
217.2460083355396
 10
108.32720588235294
 20
217.01527404614484
 10
108.32720588235294
 20
216.69631861526298
 10
108.32720588235294
 20
216.29315309249964
 10
108.32720588235294
 20
215.81084751822561
 10
108.32720588235294
 20
215.25546716487767
 10
108.32720588235294
 20
214.6339962626383
 10
108.32720588235294
 20
213.954250168689
 10
108.32720588235294
 20
213.22477708455904
 10
108.32720588235294
 20
212.4547505575315
 10
108.32720588235294
 20
211.65385411796356
 10
108.32720588235294
 20
210.83215950327372
 10
108.32720588235294
 20
210.00000000000006
  0
LWPOLYLINE
  5
62
330
17
100
AcDbEntity
  8
HIDDEN
100
AcDbPolyline
 90
15
 70
0
 10
109.22132352941176
 20
202.1764705882353
 10
109.22132352941176
 20
201.37559527681398
 10
109.22132352941176
 20
200.58479143711247
 10
109.22132352941176
 20
199.8140038862501
 10
109.22132352941176
 20
199.0729257249003
 10
109.22132352941176
 20
198.3708764409256
 10
109.22132352941176
 20
197.71668471141047
 10
109.22132352941176
 20
197.11857737692446
 10
109.22132352941176
 20
196.5840759842287
 10
109.22132352941176
 20
196.1199021984612
 10
109.22132352941176
 20
195.731893274298
 10
109.22132352941176
 20
195.42492864908837
 10
109.22132352941176
 20
195.20286858109944
 10
109.22132352941176
 20
195.06850560452833
 10
109.22132352941176
 20
195.0235294117647
  0
LWPOLYLINE
  5
63
330
17
100
AcDbEntity
  8
HIDDEN
100
AcDbPolyline
 90
15
 70
0
 10
109.22132352941176
 20
195.0235294117647
 10
109.22132352941176
 20
195.20286858109944
 10
109.22132352941176
 20
195.731893274298
 10
109.22132352941176
 20
196.5840759842287
 10
109.22132352941176
 20
197.71668471141047
 10
109.22132352941176
 20
199.0729257249003
 10
109.22132352941176
 20
200.58479143711247
 10
109.22132352941176
 20
202.1764705882353
 10
109.22132352941176
 20
203.7681497393581
 10
109.22132352941176
 20
205.2800154515703
 10
109.22132352941176
 20
206.63625646506011
 10
109.22132352941176
 20
207.76886519224192
 10
109.22132352941176
 20
208.6210479021726
 10
109.22132352941176
 20
209.15007259537117
 10
109.22132352941176
 20
209.32941176470587
  0
LWPOLYLINE
  5
64
330
17
100
AcDbEntity
  8
HIDDEN
100
AcDbPolyline
 90
15
 70
0
 10
109.22132352941176
 20
209.3294117647059
 10
109.22132352941176
 20
209.28443557194225
 10
109.22132352941176
 20
209.15007259537117
 10
109.22132352941176
 20
208.9280125273822
 10
109.22132352941176
 20
208.6210479021726
 10
109.22132352941176
 20
208.23303897800938
 10
109.22132352941176
 20
207.76886519224192
 10
109.22132352941176
 20
207.23436379954612
 10
109.22132352941176
 20
206.63625646506011
 10
109.22132352941176
 20
205.982064735545
 10
109.22132352941176
 20
205.2800154515703
 10
109.22132352941176
 20
204.5389372902205
 10
109.22132352941176
 20
203.7681497393581
 10
109.22132352941176
 20
202.9773458996566
 10
109.22132352941176
 20
202.17647058823536
  0
LWPOLYLINE
  5
65
330
17
100
AcDbEntity
  8
HIDDEN
100
AcDbPolyline
 90
15
 70
0
 10
109.22132352941176
 20
178.70588235294116
 10
109.22132352941176
 20
178.2804173437486
 10
109.22132352941176
 20
177.8603028039072
 10
109.22132352941176
 20
177.45082191751155
 10
109.22132352941176
 20
177.05712414429445
 10
109.22132352941176
 20
176.6841604621829
 10
109.22132352941176
 20
176.33662110587798
 10
109.22132352941176
 20
176.0188765844323
 10
109.22132352941176
 20
175.73492271956266
 10
109.22132352941176
 20
175.4883303958737
 10
109.22132352941176
 20
175.28220065491197
 10
109.22132352941176
 20
175.1191256977694
 10
109.22132352941176
 20
175.00115628665026
 10
109.22132352941176
 20
174.92977595534686
 10
109.22132352941176
 20
174.90588235294118
  0
LWPOLYLINE
  5
66
330
17
100
AcDbEntity
  8
HIDDEN
100
AcDbPolyline
 90
15
 70
0
 10
109.22132352941176
 20
174.90588235294118
 10
109.22132352941176
 20
175.00115628665026
 10
109.22132352941176
 20
175.28220065491197
 10
109.22132352941176
 20
175.73492271956266
 10
109.22132352941176
 20
176.33662110587798
 10
109.22132352941176
 20
177.05712414429445
 10
109.22132352941176
 20
177.8603028039072
 10
109.22132352941176
 20
178.70588235294116
 10
109.22132352941176
 20
179.55146190197516
 10
109.22132352941176
 20
180.3546405615879
 10
109.22132352941176
 20
181.07514360000437
 10
109.22132352941176
 20
181.6768419863197
 10
109.22132352941176
 20
182.12956405097037
 10
109.22132352941176
 20
182.41060841923212
 10
109.22132352941176
 20
182.50588235294117
  0
LWPOLYLINE
  5
67
330
17
100
AcDbEntity
  8
HIDDEN
100
AcDbPolyline
 90
15
 70
0
 10
109.22132352941176
 20
182.50588235294117
 10
109.22132352941176
 20
182.4819887505355
 10
109.22132352941176
 20
182.41060841923212
 10
109.22132352941176
 20
182.29263900811299
 10
109.22132352941176
 20
182.12956405097037
 10
109.22132352941176
 20
181.92343431000864
 10
109.22132352941176
 20
181.6768419863197
 10
109.22132352941176
 20
181.39288812145006
 10
109.22132352941176
 20
181.07514360000437
 10
109.22132352941176
 20
180.72760424369946
 10
109.22132352941176
 20
180.3546405615879
 10
109.22132352941176
 20
179.9609427883708
 10
109.22132352941176
 20
179.55146190197516
 10
109.22132352941176
 20
179.13134736213374
 10
109.22132352941176
 20
178.70588235294122
  0
LWPOLYLINE
  5
68
330
17
100
AcDbEntity
  8
HIDDEN
100
AcDbPolyline
 90
15
 70
0
 10
109.22132352941176
 20
210.0
 10
109.22132352941176
 20
209.27420674902444
 10
109.22132352941176
 20
208.55754076929495
 10
109.22132352941176
 20
207.8590145513259
 10
109.22132352941176
 20
207.18741246760266
 10
109.22132352941176
 20
206.55118030400058
 10
109.22132352941176
 20
205.9583190491275
 10
109.22132352941176
 20
205.41628427724956
 10
109.22132352941176
 20
204.931892390119
 10
109.22132352941176
 20
204.51123489676723
 10
109.22132352941176
 20
204.15960180924432
 10
109.22132352941176
 20
203.88141511764812
 10
109.22132352941176
 20
203.68017318103313
 10
109.22132352941176
 20
203.55840673351557
 10
109.22132352941176
 20
203.51764705882354
  0
LWPOLYLINE
  5
69
330
17
100
AcDbEntity
  8
HIDDEN
100
AcDbPolyline
 90
15
 70
0
 10
109.22132352941176
 20
203.51764705882354
 10
109.22132352941176
 20
203.68017318103313
 10
109.22132352941176
 20
204.15960180924432
 10
109.22132352941176
 20
204.931892390119
 10
109.22132352941176
 20
205.9583190491275
 10
109.22132352941176
 20
207.18741246760266
 10
109.22132352941176
 20
208.55754076929495
 10
109.22132352941176
 20
210.0
 10
109.22132352941176
 20
211.44245923070505
 10
109.22132352941176
 20
212.81258753239734
 10
109.22132352941176
 20
214.0416809508725
 10
109.22132352941176
 20
215.068107609881
 10
109.22132352941176
 20
215.84039819075568
 10
109.22132352941176
 20
216.31982681896687
 10
109.22132352941176
 20
216.48235294117646
  0
LWPOLYLINE
  5
6A
330
17
100
AcDbEntity
  8
HIDDEN
100
AcDbPolyline
 90
15
 70
0
 10
109.22132352941176
 20
216.48235294117646
 10
109.22132352941176
 20
216.44159326648443
 10
109.22132352941176
 20
216.31982681896687
 10
109.22132352941176
 20
216.11858488235188
 10
109.22132352941176
 20
215.84039819075568
 10
109.22132352941176
 20
215.48876510323277
 10
109.22132352941176
 20
215.068107609881
 10
109.22132352941176
 20
214.58371572275044
 10
109.22132352941176
 20
214.0416809508725
 10
109.22132352941176
 20
213.44881969599942
 10
109.22132352941176
 20
212.81258753239734
 10
109.22132352941176
 20
212.1409854486741
 10
109.22132352941176
 20
211.44245923070505
 10
109.22132352941176
 20
210.72579325097556
 10
109.22132352941176
 20
210.00000000000006
  0
LWPOLYLINE
  5
6B
330
17
100
AcDbEntity
  8
HIDDEN
100
AcDbPolyline
 90
15
 70
0
 10
108.32720588235294
 20
210.0
 10
108.32720588235294
 20
209.27420674902444
 10
108.32720588235294
 20
208.55754076929495
 10
108.32720588235294
 20
207.8590145513259
 10
108.32720588235294
 20
207.18741246760266
 10
108.32720588235294
 20
206.55118030400058
 10
108.32720588235294
 20
205.9583190491275
 10
108.32720588235294
 20
205.41628427724956
 10
108.32720588235294
 20
204.931892390119
 10
108.32720588235294
 20
204.51123489676723
 10
108.32720588235294
 20
204.15960180924432
 10
108.32720588235294
 20
203.88141511764812
 10
108.32720588235294
 20
203.68017318103313
 10
108.32720588235294
 20
203.55840673351557
 10
108.32720588235294
 20
203.51764705882354
  0
LWPOLYLINE
  5
6C
330
17
100
AcDbEntity
  8
HIDDEN
100
AcDbPolyline
 90
15
 70
0
 10
108.32720588235294
 20
203.51764705882354
 10
108.32720588235294
 20
203.68017318103313
 10
108.32720588235294
 20
204.15960180924432
 10
108.32720588235294
 20
204.931892390119
 10
108.32720588235294
 20
205.9583190491275
 10
108.32720588235294
 20
207.18741246760266
 10
108.32720588235294
 20
208.55754076929495
 10
108.32720588235294
 20
210.0
 10
108.32720588235294
 20
211.44245923070505
 10
108.32720588235294
 20
212.81258753239734
 10
108.32720588235294
 20
214.0416809508725
 10
108.32720588235294
 20
215.068107609881
 10
108.32720588235294
 20
215.84039819075568
 10
108.32720588235294
 20
216.31982681896687
 10
108.32720588235294
 20
216.48235294117646
  0
LWPOLYLINE
  5
6D
330
17
100
AcDbEntity
  8
HIDDEN
100
AcDbPolyline
 90
15
 70
0
 10
108.32720588235294
 20
216.48235294117646
 10
108.32720588235294
 20
216.44159326648443
 10
108.32720588235294
 20
216.31982681896687
 10
108.32720588235294
 20
216.11858488235188
 10
108.32720588235294
 20
215.84039819075568
 10
108.32720588235294
 20
215.48876510323277
 10
108.32720588235294
 20
215.068107609881
 10
108.32720588235294
 20
214.58371572275044
 10
108.32720588235294
 20
214.0416809508725
 10
108.32720588235294
 20
213.44881969599942
 10
108.32720588235294
 20
212.81258753239734
 10
108.32720588235294
 20
212.1409854486741
 10
108.32720588235294
 20
211.44245923070505
 10
108.32720588235294
 20
210.72579325097556
 10
108.32720588235294
 20
210.00000000000006
  0
LWPOLYLINE
  5
6E
330
17
100
AcDbEntity
  8
HIDDEN
100
AcDbPolyline
 90
2
 70
0
 10
104.77867647058824
 20
210.6705882352941
 10
109.22132352941176
 20
210.6705882352941
  0
LWPOLYLINE
  5
6F
330
17
100
AcDbEntity
  8
HIDDEN
100
AcDbPolyline
 90
2
 70
0
 10
104.77867647058824
 20
224.9764705882353
 10
109.22132352941176
 20
224.9764705882353
  0
LWPOLYLINE
  5
70
330
17
100
AcDbEntity
  8
HIDDEN
100
AcDbPolyline
 90
2
 70
0
 10
104.77867647058824
 20
237.49411764705883
 10
109.22132352941176
 20
237.49411764705883
  0
LWPOLYLINE
  5
71
330
17
100
AcDbEntity
  8
HIDDEN
100
AcDbPolyline
 90
2
 70
0
 10
104.77867647058824
 20
245.09411764705882
 10
109.22132352941176
 20
245.09411764705882
  0
LWPOLYLINE
  5
72
330
17
100
AcDbEntity
  8
HIDDEN
100
AcDbPolyline
 90
2
 70
0
 10
104.77867647058824
 20
210.6705882352941
 10
109.22132352941176
 20
210.6705882352941
  0
LWPOLYLINE
  5
73
330
17
100
AcDbEntity
  8
HIDDEN
100
AcDbPolyline
 90
2
 70
0
 10
104.77867647058824
 20
224.9764705882353
 10
109.22132352941176
 20
224.9764705882353
  0
LWPOLYLINE
  5
74
330
17
100
AcDbEntity
  8
HIDDEN
100
AcDbPolyline
 90
2
 70
0
 10
104.77867647058824
 20
195.0235294117647
 10
109.22132352941176
 20
195.0235294117647
  0
LWPOLYLINE
  5
75
330
17
100
AcDbEntity
  8
HIDDEN
100
AcDbPolyline
 90
2
 70
0
 10
104.77867647058824
 20
209.3294117647059
 10
109.22132352941176
 20
209.3294117647059
  0
LWPOLYLINE
  5
76
330
17
100
AcDbEntity
  8
HIDDEN
100
AcDbPolyline
 90
2
 70
0
 10
104.77867647058824
 20
202.56764705882352
 10
108.32720588235294
 20
202.56764705882352
  0
LWPOLYLINE
  5
77
330
17
100
AcDbEntity
  8
HIDDEN
100
AcDbPolyline
 90
2
 70
0
 10
104.77867647058824
 20
217.43235294117648
 10
108.32720588235294
 20
217.43235294117648
  0
LWPOLYLINE
  5
78
330
17
100
AcDbEntity
  8
HIDDEN
100
AcDbPolyline
 90
2
 70
0
 10
104.77867647058824
 20
195.0235294117647
 10
109.22132352941176
 20
195.0235294117647
  0
LWPOLYLINE
  5
79
330
17
100
AcDbEntity
  8
HIDDEN
100
AcDbPolyline
 90
2
 70
0
 10
104.77867647058824
 20
209.3294117647059
 10
109.22132352941176
 20
209.3294117647059
  0
LWPOLYLINE
  5
7A
330
17
100
AcDbEntity
  8
HIDDEN
100
AcDbPolyline
 90
2
 70
0
 10
104.77867647058824
 20
174.90588235294118
 10
109.22132352941176
 20
174.90588235294118
  0
LWPOLYLINE
  5
7B
330
17
100
AcDbEntity
  8
HIDDEN
100
AcDbPolyline
 90
2
 70
0
 10
104.77867647058824
 20
182.50588235294117
 10
109.22132352941176
 20
182.50588235294117
  0
LWPOLYLINE
  5
7C
330
17
100
AcDbEntity
  8
HIDDEN
100
AcDbPolyline
 90
2
 70
0
 10
108.32720588235294
 20
203.51764705882354
 10
109.22132352941176
 20
203.51764705882354
  0
LWPOLYLINE
  5
7D
330
17
100
AcDbEntity
  8
HIDDEN
100
AcDbPolyline
 90
2
 70
0
 10
108.32720588235294
 20
216.48235294117646
 10
109.22132352941176
 20
216.48235294117646
  0
LWPOLYLINE
  5
7E
330
17
100
AcDbEntity
  8
OUTLINE
100
AcDbPolyline
 90
2
 70
0
 10
104.77867647058824
 20
172.0
 10
104.77867647058824
 20
248.0
  0
LWPOLYLINE
  5
7F
330
17
100
AcDbEntity
  8
OUTLINE
100
AcDbPolyline
 90
2
 70
0
 10
104.77867647058824
 20
172.0
 10
109.22132352941176
 20
172.0
  0
LWPOLYLINE
  5
80
330
17
100
AcDbEntity
  8
OUTLINE
100
AcDbPolyline
 90
2
 70
0
 10
104.77867647058824
 20
248.0
 10
109.22132352941176
 20
248.0
  0
LWPOLYLINE
  5
81
330
17
100
AcDbEntity
  8
OUTLINE
100
AcDbPolyline
 90
2
 70
0
 10
109.22132352941176
 20
172.0
 10
109.22132352941176
 20
248.0
  0
TEXT
  5
82
330
17
100
AcDbEntity
  8
TEXT
100
AcDbText
 10
22.0
 20
165.0
 30
0.0
 40
2.6
  1
TOP  (view scale 2.24:1)
100
AcDbText
  0
LWPOLYLINE
  5
83
330
17
100
AcDbEntity
  8
HIDDEN
100
AcDbPolyline
 90
2
 70
0
 10
104.515625
 20
70.0
 10
104.515625
 20
130.0
  0
LWPOLYLINE
  5
84
330
17
100
AcDbEntity
  8
HIDDEN
100
AcDbPolyline
 90
15
 70
0
 10
104.515625
 20
87.25
 10
104.515625
 20
87.04942329745458
 10
104.515625
 20
86.45775094321935
 10
104.515625
 20
85.50465185974424
 10
104.515625
 20
84.23791841486987
 10
104.515625
 20
82.72106991294046
 10
104.515625
 20
81.03016747165051
 10
104.515625
 20
79.25
 10
104.515625
 20
77.46983252834949
 10
104.515625
 20
75.77893008705954
 10
104.515625
 20
74.26208158513013
 10
104.515625
 20
72.99534814025577
 10
104.515625
 20
72.04224905678065
 10
104.515625
 20
71.4505767025454
 10
104.515625
 20
71.25
  0
LWPOLYLINE
  5
85
330
17
100
AcDbEntity
  8
HIDDEN
100
AcDbPolyline
 90
15
 70
0
 10
104.515625
 20
71.25
 10
104.515625
 20
71.4505767025454
 10
104.515625
 20
72.04224905678065
 10
104.515625
 20
72.99534814025576
 10
104.515625
 20
74.26208158513013
 10
104.515625
 20
75.77893008705954
 10
104.515625
 20
77.46983252834949
 10
104.515625
 20
79.25
 10
104.515625
 20
81.03016747165051
 10
104.515625
 20
82.72106991294046
 10
104.515625
 20
84.23791841486987
 10
104.515625
 20
85.50465185974423
 10
104.515625
 20
86.45775094321935
 10
104.515625
 20
87.04942329745458
 10
104.515625
 20
87.24999999999999
  0
LWPOLYLINE
  5
86
330
17
100
AcDbEntity
  8
HIDDEN
100
AcDbPolyline
 90
15
 70
0
 10
104.515625
 20
104.25
 10
104.515625
 20
104.14344362677275
 10
104.515625
 20
103.82911768858528
 10
104.515625
 20
103.32278380048912
 10
104.515625
 20
102.64983165789961
 10
104.515625
 20
101.84400589124962
 10
104.515625
 20
100.94571396931434
 10
104.515625
 20
100.0
 10
104.515625
 20
99.05428603068566
 10
104.515625
 20
98.15599410875038
 10
104.515625
 20
97.35016834210039
 10
104.515625
 20
96.67721619951088
 10
104.515625
 20
96.17088231141472
 10
104.515625
 20
95.85655637322725
 10
104.515625
 20
95.75
  0
LWPOLYLINE
  5
87
330
17
100
AcDbEntity
  8
HIDDEN
100
AcDbPolyline
 90
15
 70
0
 10
104.515625
 20
95.75
 10
104.515625
 20
95.85655637322725
 10
104.515625
 20
96.17088231141472
 10
104.515625
 20
96.67721619951087
 10
104.515625
 20
97.35016834210037
 10
104.515625
 20
98.15599410875038
 10
104.515625
 20
99.05428603068566
 10
104.515625
 20
100.0
 10
104.515625
 20
100.94571396931434
 10
104.515625
 20
101.84400589124962
 10
104.515625
 20
102.64983165789961
 10
104.515625
 20
103.32278380048912
 10
104.515625
 20
103.82911768858528
 10
104.515625
 20
104.14344362677275
 10
104.515625
 20
104.25
  0
LWPOLYLINE
  5
88
330
17
100
AcDbEntity
  8
HIDDEN
100
AcDbPolyline
 90
15
 70
0
 10
104.515625
 20
128.75
 10
104.515625
 20
128.54942329745458
 10
104.515625
 20
127.95775094321935
 10
104.515625
 20
127.00465185974424
 10
104.515625
 20
125.73791841486987
 10
104.515625
 20
124.22106991294046
 10
104.515625
 20
122.53016747165051
 10
104.515625
 20
120.75
 10
104.515625
 20
118.96983252834949
 10
104.515625
 20
117.27893008705954
 10
104.515625
 20
115.76208158513013
 10
104.515625
 20
114.49534814025577
 10
104.515625
 20
113.54224905678065
 10
104.515625
 20
112.95057670254542
 10
104.515625
 20
112.75
  0
LWPOLYLINE
  5
89
330
17
100
AcDbEntity
  8
HIDDEN
100
AcDbPolyline
 90
15
 70
0
 10
104.515625
 20
112.75
 10
104.515625
 20
112.95057670254542
 10
104.515625
 20
113.54224905678065
 10
104.515625
 20
114.49534814025576
 10
104.515625
 20
115.76208158513013
 10
104.515625
 20
117.27893008705954
 10
104.515625
 20
118.96983252834949
 10
104.515625
 20
120.75
 10
104.515625
 20
122.53016747165051
 10
104.515625
 20
124.22106991294046
 10
104.515625
 20
125.73791841486987
 10
104.515625
 20
127.00465185974423
 10
104.515625
 20
127.95775094321935
 10
104.515625
 20
128.54942329745458
 10
104.515625
 20
128.75
  0
LWPOLYLINE
  5
8A
330
17
100
AcDbEntity
  8
HIDDEN
100
AcDbPolyline
 90
15
 70
0
 10
104.515625
 20
87.25
 10
104.515625
 20
87.04942329745458
 10
104.515625
 20
86.45775094321935
 10
104.515625
 20
85.50465185974424
 10
104.515625
 20
84.23791841486987
 10
104.515625
 20
82.72106991294046
 10
104.515625
 20
81.03016747165051
 10
104.515625
 20
79.25
 10
104.515625
 20
77.46983252834949
 10
104.515625
 20
75.77893008705954
 10
104.515625
 20
74.26208158513013
 10
104.515625
 20
72.99534814025577
 10
104.515625
 20
72.04224905678065
 10
104.515625
 20
71.4505767025454
 10
104.515625
 20
71.25
  0
LWPOLYLINE
  5
8B
330
17
100
AcDbEntity
  8
HIDDEN
100
AcDbPolyline
 90
15
 70
0
 10
104.515625
 20
71.25
 10
104.515625
 20
71.4505767025454
 10
104.515625
 20
72.04224905678065
 10
104.515625
 20
72.99534814025576
 10
104.515625
 20
74.26208158513013
 10
104.515625
 20
75.77893008705954
 10
104.515625
 20
77.46983252834949
 10
104.515625
 20
79.25
 10
104.515625
 20
81.03016747165051
 10
104.515625
 20
82.72106991294046
 10
104.515625
 20
84.23791841486987
 10
104.515625
 20
85.50465185974423
 10
104.515625
 20
86.45775094321935
 10
104.515625
 20
87.04942329745458
 10
104.515625
 20
87.24999999999999
  0
LWPOLYLINE
  5
8C
330
17
100
AcDbEntity
  8
HIDDEN
100
AcDbPolyline
 90
15
 70
0
 10
104.515625
 20
108.3125
 10
104.515625
 20
108.1040882700114
 10
104.515625
 20
107.48930371443886
 10
104.515625
 20
106.4989741980155
 10
104.515625
 20
105.18275897795073
 10
104.515625
 20
103.6066585814147
 10
104.515625
 20
101.84970526351186
 10
104.515625
 20
100.0
 10
104.515625
 20
98.15029473648814
 10
104.515625
 20
96.3933414185853
 10
104.515625
 20
94.81724102204927
 10
104.515625
 20
93.5010258019845
 10
104.515625
 20
92.51069628556114
 10
104.515625
 20
91.8959117299886
 10
104.515625
 20
91.6875
  0
LWPOLYLINE
  5
8D
330
17
100
AcDbEntity
  8
HIDDEN
100
AcDbPolyline
 90
15
 70
0
 10
104.515625
 20
91.6875
 10
104.515625
 20
91.8959117299886
 10
104.515625
 20
92.51069628556114
 10
104.515625
 20
93.5010258019845
 10
104.515625
 20
94.81724102204927
 10
104.515625
 20
96.3933414185853
 10
104.515625
 20
98.15029473648814
 10
104.515625
 20
100.0
 10
104.515625
 20
101.84970526351186
 10
104.515625
 20
103.6066585814147
 10
104.515625
 20
105.18275897795073
 10
104.515625
 20
106.4989741980155
 10
104.515625
 20
107.48930371443886
 10
104.515625
 20
108.1040882700114
 10
104.515625
 20
108.31249999999999
  0
LWPOLYLINE
  5
8E
330
17
100
AcDbEntity
  8
HIDDEN
100
AcDbPolyline
 90
15
 70
0
 10
104.515625
 20
128.75
 10
104.515625
 20
128.54942329745458
 10
104.515625
 20
127.95775094321935
 10
104.515625
 20
127.00465185974424
 10
104.515625
 20
125.73791841486987
 10
104.515625
 20
124.22106991294046
 10
104.515625
 20
122.53016747165051
 10
104.515625
 20
120.75
 10
104.515625
 20
118.96983252834949
 10
104.515625
 20
117.27893008705954
 10
104.515625
 20
115.76208158513013
 10
104.515625
 20
114.49534814025577
 10
104.515625
 20
113.54224905678065
 10
104.515625
 20
112.95057670254542
 10
104.515625
 20
112.75
  0
LWPOLYLINE
  5
8F
330
17
100
AcDbEntity
  8
HIDDEN
100
AcDbPolyline
 90
15
 70
0
 10
104.515625
 20
112.75
 10
104.515625
 20
112.95057670254542
 10
104.515625
 20
113.54224905678065
 10
104.515625
 20
114.49534814025576
 10
104.515625
 20
115.76208158513013
 10
104.515625
 20
117.27893008705954
 10
104.515625
 20
118.96983252834949
 10
104.515625
 20
120.75
 10
104.515625
 20
122.53016747165051
 10
104.515625
 20
124.22106991294046
 10
104.515625
 20
125.73791841486987
 10
104.515625
 20
127.00465185974423
 10
104.515625
 20
127.95775094321935
 10
104.515625
 20
128.54942329745458
 10
104.515625
 20
128.75
  0
LWPOLYLINE
  5
90
330
17
100
AcDbEntity
  8
HIDDEN
100
AcDbPolyline
 90
15
 70
0
 10
104.515625
 20
104.25
 10
104.515625
 20
104.14344362677275
 10
104.515625
 20
103.82911768858528
 10
104.515625
 20
103.32278380048912
 10
104.515625
 20
102.64983165789961
 10
104.515625
 20
101.84400589124962
 10
104.515625
 20
100.94571396931434
 10
104.515625
 20
100.0
 10
104.515625
 20
99.05428603068566
 10
104.515625
 20
98.15599410875038
 10
104.515625
 20
97.35016834210039
 10
104.515625
 20
96.67721619951088
 10
104.515625
 20
96.17088231141472
 10
104.515625
 20
95.85655637322725
 10
104.515625
 20
95.75
  0
LWPOLYLINE
  5
91
330
17
100
AcDbEntity
  8
HIDDEN
100
AcDbPolyline
 90
15
 70
0
 10
104.515625
 20
95.75
 10
104.515625
 20
95.85655637322725
 10
104.515625
 20
96.17088231141472
 10
104.515625
 20
96.67721619951087
 10
104.515625
 20
97.35016834210037
 10
104.515625
 20
98.15599410875038
 10
104.515625
 20
99.05428603068566
 10
104.515625
 20
100.0
 10
104.515625
 20
100.94571396931434
 10
104.515625
 20
101.84400589124962
 10
104.515625
 20
102.64983165789961
 10
104.515625
 20
103.32278380048912
 10
104.515625
 20
103.82911768858528
 10
104.515625
 20
104.14344362677275
 10
104.515625
 20
104.25
  0
LWPOLYLINE
  5
92
330
17
100
AcDbEntity
  8
HIDDEN
100
AcDbPolyline
 90
2
 70
0
 10
104.515625
 20
130.0
 10
109.484375
 20
130.0
  0
LWPOLYLINE
  5
93
330
17
100
AcDbEntity
  8
HIDDEN
100
AcDbPolyline
 90
2
 70
0
 10
104.515625
 20
70.0
 10
109.484375
 20
70.0
  0
LWPOLYLINE
  5
94
330
17
100
AcDbEntity
  8
HIDDEN
100
AcDbPolyline
 90
2
 70
0
 10
109.484375
 20
70.0
 10
109.484375
 20
130.0
  0
LWPOLYLINE
  5
95
330
17
100
AcDbEntity
  8
HIDDEN
100
AcDbPolyline
 90
15
 70
0
 10
109.484375
 20
87.25
 10
109.484375
 20
87.04942329745458
 10
109.484375
 20
86.45775094321935
 10
109.484375
 20
85.50465185974424
 10
109.484375
 20
84.23791841486987
 10
109.484375
 20
82.72106991294046
 10
109.484375
 20
81.03016747165051
 10
109.484375
 20
79.25
 10
109.484375
 20
77.46983252834949
 10
109.484375
 20
75.77893008705954
 10
109.484375
 20
74.26208158513013
 10
109.484375
 20
72.99534814025577
 10
109.484375
 20
72.04224905678065
 10
109.484375
 20
71.4505767025454
 10
109.484375
 20
71.25
  0
LWPOLYLINE
  5
96
330
17
100
AcDbEntity
  8
HIDDEN
100
AcDbPolyline
 90
15
 70
0
 10
109.484375
 20
71.25
 10
109.484375
 20
71.4505767025454
 10
109.484375
 20
72.04224905678065
 10
109.484375
 20
72.99534814025576
 10
109.484375
 20
74.26208158513013
 10
109.484375
 20
75.77893008705954
 10
109.484375
 20
77.46983252834949
 10
109.484375
 20
79.25
 10
109.484375
 20
81.03016747165051
 10
109.484375
 20
82.72106991294046
 10
109.484375
 20
84.23791841486987
 10
109.484375
 20
85.50465185974423
 10
109.484375
 20
86.45775094321935
 10
109.484375
 20
87.04942329745458
 10
109.484375
 20
87.24999999999999
  0
LWPOLYLINE
  5
97
330
17
100
AcDbEntity
  8
HIDDEN
100
AcDbPolyline
 90
2
 70
0
 10
104.515625
 20
87.25
 10
109.484375
 20
87.25
  0
LWPOLYLINE
  5
98
330
17
100
AcDbEntity
  8
HIDDEN
100
AcDbPolyline
 90
15
 70
0
 10
109.484375
 20
104.25
 10
109.484375
 20
104.14344362677275
 10
109.484375
 20
103.82911768858528
 10
109.484375
 20
103.32278380048912
 10
109.484375
 20
102.64983165789961
 10
109.484375
 20
101.84400589124962
 10
109.484375
 20
100.94571396931434
 10
109.484375
 20
100.0
 10
109.484375
 20
99.05428603068566
 10
109.484375
 20
98.15599410875038
 10
109.484375
 20
97.35016834210039
 10
109.484375
 20
96.67721619951088
 10
109.484375
 20
96.17088231141472
 10
109.484375
 20
95.85655637322725
 10
109.484375
 20
95.75
  0
LWPOLYLINE
  5
99
330
17
100
AcDbEntity
  8
HIDDEN
100
AcDbPolyline
 90
15
 70
0
 10
109.484375
 20
95.75
 10
109.484375
 20
95.85655637322725
 10
109.484375
 20
96.17088231141472
 10
109.484375
 20
96.67721619951087
 10
109.484375
 20
97.35016834210037
 10
109.484375
 20
98.15599410875038
 10
109.484375
 20
99.05428603068566
 10
109.484375
 20
100.0
 10
109.484375
 20
100.94571396931434
 10
109.484375
 20
101.84400589124962
 10
109.484375
 20
102.64983165789961
 10
109.484375
 20
103.32278380048912
 10
109.484375
 20
103.82911768858528
 10
109.484375
 20
104.14344362677275
 10
109.484375
 20
104.25
  0
LWPOLYLINE
  5
9A
330
17
100
AcDbEntity
  8
HIDDEN
100
AcDbPolyline
 90
2
 70
0
 10
104.515625
 20
104.25
 10
109.484375
 20
104.25
  0
LWPOLYLINE
  5
9B
330
17
100
AcDbEntity
  8
HIDDEN
100
AcDbPolyline
 90
15
 70
0
 10
109.484375
 20
128.75
 10
109.484375
 20
128.54942329745458
 10
109.484375
 20
127.95775094321935
 10
109.484375
 20
127.00465185974424
 10
109.484375
 20
125.73791841486987
 10
109.484375
 20
124.22106991294046
 10
109.484375
 20
122.53016747165051
 10
109.484375
 20
120.75
 10
109.484375
 20
118.96983252834949
 10
109.484375
 20
117.27893008705954
 10
109.484375
 20
115.76208158513013
 10
109.484375
 20
114.49534814025577
 10
109.484375
 20
113.54224905678065
 10
109.484375
 20
112.95057670254542
 10
109.484375
 20
112.75
  0
LWPOLYLINE
  5
9C
330
17
100
AcDbEntity
  8
HIDDEN
100
AcDbPolyline
 90
15
 70
0
 10
109.484375
 20
112.75
 10
109.484375
 20
112.95057670254542
 10
109.484375
 20
113.54224905678065
 10
109.484375
 20
114.49534814025576
 10
109.484375
 20
115.76208158513013
 10
109.484375
 20
117.27893008705954
 10
109.484375
 20
118.96983252834949
 10
109.484375
 20
120.75
 10
109.484375
 20
122.53016747165051
 10
109.484375
 20
124.22106991294046
 10
109.484375
 20
125.73791841486987
 10
109.484375
 20
127.00465185974423
 10
109.484375
 20
127.95775094321935
 10
109.484375
 20
128.54942329745458
 10
109.484375
 20
128.75
  0
LWPOLYLINE
  5
9D
330
17
100
AcDbEntity
  8
HIDDEN
100
AcDbPolyline
 90
2
 70
0
 10
104.515625
 20
128.75
 10
109.484375
 20
128.75
  0
LWPOLYLINE
  5
9E
330
17
100
AcDbEntity
  8
HIDDEN
100
AcDbPolyline
 90
15
 70
0
 10
109.484375
 20
87.25
 10
109.484375
 20
87.04942329745458
 10
109.484375
 20
86.45775094321935
 10
109.484375
 20
85.50465185974424
 10
109.484375
 20
84.23791841486987
 10
109.484375
 20
82.72106991294046
 10
109.484375
 20
81.03016747165051
 10
109.484375
 20
79.25
 10
109.484375
 20
77.46983252834949
 10
109.484375
 20
75.77893008705954
 10
109.484375
 20
74.26208158513013
 10
109.484375
 20
72.99534814025577
 10
109.484375
 20
72.04224905678065
 10
109.484375
 20
71.4505767025454
 10
109.484375
 20
71.25
  0
LWPOLYLINE
  5
9F
330
17
100
AcDbEntity
  8
HIDDEN
100
AcDbPolyline
 90
15
 70
0
 10
109.484375
 20
71.25
 10
109.484375
 20
71.4505767025454
 10
109.484375
 20
72.04224905678065
 10
109.484375
 20
72.99534814025576
 10
109.484375
 20
74.26208158513013
 10
109.484375
 20
75.77893008705954
 10
109.484375
 20
77.46983252834949
 10
109.484375
 20
79.25
 10
109.484375
 20
81.03016747165051
 10
109.484375
 20
82.72106991294046
 10
109.484375
 20
84.23791841486987
 10
109.484375
 20
85.50465185974423
 10
109.484375
 20
86.45775094321935
 10
109.484375
 20
87.04942329745458
 10
109.484375
 20
87.24999999999999
  0
LWPOLYLINE
  5
A0
330
17
100
AcDbEntity
  8
HIDDEN
100
AcDbPolyline
 90
2
 70
0
 10
104.515625
 20
87.25
 10
109.484375
 20
87.25
  0
LWPOLYLINE
  5
A1
330
17
100
AcDbEntity
  8
HIDDEN
100
AcDbPolyline
 90
2
 70
0
 10
104.515625
 20
108.3125
 10
108.484375
 20
108.3125
  0
LWPOLYLINE
  5
A2
330
17
100
AcDbEntity
  8
HIDDEN
100
AcDbPolyline
 90
15
 70
0
 10
108.484375
 20
108.3125
 10
108.484375
 20
108.1040882700114
 10
108.484375
 20
107.48930371443886
 10
108.484375
 20
106.4989741980155
 10
108.484375
 20
105.18275897795073
 10
108.484375
 20
103.6066585814147
 10
108.484375
 20
101.84970526351186
 10
108.484375
 20
100.0
 10
108.484375
 20
98.15029473648814
 10
108.484375
 20
96.3933414185853
 10
108.484375
 20
94.81724102204927
 10
108.484375
 20
93.5010258019845
 10
108.484375
 20
92.51069628556114
 10
108.484375
 20
91.8959117299886
 10
108.484375
 20
91.6875
  0
LWPOLYLINE
  5
A3
330
17
100
AcDbEntity
  8
HIDDEN
100
AcDbPolyline
 90
15
 70
0
 10
108.484375
 20
91.6875
 10
108.484375
 20
91.8959117299886
 10
108.484375
 20
92.51069628556114
 10
108.484375
 20
93.5010258019845
 10
108.484375
 20
94.81724102204927
 10
108.484375
 20
96.3933414185853
 10
108.484375
 20
98.15029473648814
 10
108.484375
 20
100.0
 10
108.484375
 20
101.84970526351186
 10
108.484375
 20
103.6066585814147
 10
108.484375
 20
105.18275897795073
 10
108.484375
 20
106.4989741980155
 10
108.484375
 20
107.48930371443886
 10
108.484375
 20
108.1040882700114
 10
108.484375
 20
108.31249999999999
  0
LWPOLYLINE
  5
A4
330
17
100
AcDbEntity
  8
HIDDEN
100
AcDbPolyline
 90
15
 70
0
 10
109.484375
 20
128.75
 10
109.484375
 20
128.54942329745458
 10
109.484375
 20
127.95775094321935
 10
109.484375
 20
127.00465185974424
 10
109.484375
 20
125.73791841486987
 10
109.484375
 20
124.22106991294046
 10
109.484375
 20
122.53016747165051
 10
109.484375
 20
120.75
 10
109.484375
 20
118.96983252834949
 10
109.484375
 20
117.27893008705954
 10
109.484375
 20
115.76208158513013
 10
109.484375
 20
114.49534814025577
 10
109.484375
 20
113.54224905678065
 10
109.484375
 20
112.95057670254542
 10
109.484375
 20
112.75
  0
LWPOLYLINE
  5
A5
330
17
100
AcDbEntity
  8
HIDDEN
100
AcDbPolyline
 90
15
 70
0
 10
109.484375
 20
112.75
 10
109.484375
 20
112.95057670254542
 10
109.484375
 20
113.54224905678065
 10
109.484375
 20
114.49534814025576
 10
109.484375
 20
115.76208158513013
 10
109.484375
 20
117.27893008705954
 10
109.484375
 20
118.96983252834949
 10
109.484375
 20
120.75
 10
109.484375
 20
122.53016747165051
 10
109.484375
 20
124.22106991294046
 10
109.484375
 20
125.73791841486987
 10
109.484375
 20
127.00465185974423
 10
109.484375
 20
127.95775094321935
 10
109.484375
 20
128.54942329745458
 10
109.484375
 20
128.75
  0
LWPOLYLINE
  5
A6
330
17
100
AcDbEntity
  8
HIDDEN
100
AcDbPolyline
 90
2
 70
0
 10
104.515625
 20
128.75
 10
109.484375
 20
128.75
  0
LWPOLYLINE
  5
A7
330
17
100
AcDbEntity
  8
HIDDEN
100
AcDbPolyline
 90
15
 70
0
 10
109.484375
 20
104.25
 10
109.484375
 20
104.14344362677275
 10
109.484375
 20
103.82911768858528
 10
109.484375
 20
103.32278380048912
 10
109.484375
 20
102.64983165789961
 10
109.484375
 20
101.84400589124962
 10
109.484375
 20
100.94571396931434
 10
109.484375
 20
100.0
 10
109.484375
 20
99.05428603068566
 10
109.484375
 20
98.15599410875038
 10
109.484375
 20
97.35016834210039
 10
109.484375
 20
96.67721619951088
 10
109.484375
 20
96.17088231141472
 10
109.484375
 20
95.85655637322725
 10
109.484375
 20
95.75
  0
LWPOLYLINE
  5
A8
330
17
100
AcDbEntity
  8
HIDDEN
100
AcDbPolyline
 90
15
 70
0
 10
109.484375
 20
95.75
 10
109.484375
 20
95.85655637322725
 10
109.484375
 20
96.17088231141472
 10
109.484375
 20
96.67721619951087
 10
109.484375
 20
97.35016834210037
 10
109.484375
 20
98.15599410875038
 10
109.484375
 20
99.05428603068566
 10
109.484375
 20
100.0
 10
109.484375
 20
100.94571396931434
 10
109.484375
 20
101.84400589124962
 10
109.484375
 20
102.64983165789961
 10
109.484375
 20
103.32278380048912
 10
109.484375
 20
103.82911768858528
 10
109.484375
 20
104.14344362677275
 10
109.484375
 20
104.25
  0
LWPOLYLINE
  5
A9
330
17
100
AcDbEntity
  8
HIDDEN
100
AcDbPolyline
 90
2
 70
0
 10
104.515625
 20
104.25
 10
109.484375
 20
104.25
  0
LWPOLYLINE
  5
AA
330
17
100
AcDbEntity
  8
HIDDEN
100
AcDbPolyline
 90
15
 70
0
 10
109.484375
 20
107.25
 10
109.484375
 20
107.06822736331821
 10
109.484375
 20
106.53202429229253
 10
109.484375
 20
105.66827824789321
 10
109.484375
 20
104.52030106347581
 10
109.484375
 20
103.1456571086023
 10
109.484375
 20
101.61327677118328
 10
109.484375
 20
100.0
 10
109.484375
 20
98.38672322881672
 10
109.484375
 20
96.8543428913977
 10
109.484375
 20
95.47969893652419
 10
109.484375
 20
94.33172175210679
 10
109.484375
 20
93.46797570770747
 10
109.484375
 20
92.93177263668179
 10
109.484375
 20
92.75
  0
LWPOLYLINE
  5
AB
330
17
100
AcDbEntity
  8
HIDDEN
100
AcDbPolyline
 90
15
 70
0
 10
109.484375
 20
92.75
 10
109.484375
 20
92.93177263668179
 10
109.484375
 20
93.46797570770747
 10
109.484375
 20
94.33172175210679
 10
109.484375
 20
95.47969893652419
 10
109.484375
 20
96.8543428913977
 10
109.484375
 20
98.38672322881672
 10
109.484375
 20
100.0
 10
109.484375
 20
101.61327677118328
 10
109.484375
 20
103.1456571086023
 10
109.484375
 20
104.52030106347581
 10
109.484375
 20
105.66827824789321
 10
109.484375
 20
106.53202429229253
 10
109.484375
 20
107.06822736331821
 10
109.484375
 20
107.24999999999999
  0
LWPOLYLINE
  5
AC
330
17
100
AcDbEntity
  8
HIDDEN
100
AcDbPolyline
 90
15
 70
0
 10
108.484375
 20
107.25
 10
108.484375
 20
107.06822736331821
 10
108.484375
 20
106.53202429229253
 10
108.484375
 20
105.66827824789321
 10
108.484375
 20
104.52030106347581
 10
108.484375
 20
103.1456571086023
 10
108.484375
 20
101.61327677118328
 10
108.484375
 20
100.0
 10
108.484375
 20
98.38672322881672
 10
108.484375
 20
96.8543428913977
 10
108.484375
 20
95.47969893652419
 10
108.484375
 20
94.33172175210679
 10
108.484375
 20
93.46797570770747
 10
108.484375
 20
92.93177263668179
 10
108.484375
 20
92.75
  0
LWPOLYLINE
  5
AD
330
17
100
AcDbEntity
  8
HIDDEN
100
AcDbPolyline
 90
15
 70
0
 10
108.484375
 20
92.75
 10
108.484375
 20
92.93177263668179
 10
108.484375
 20
93.46797570770747
 10
108.484375
 20
94.33172175210679
 10
108.484375
 20
95.47969893652419
 10
108.484375
 20
96.8543428913977
 10
108.484375
 20
98.38672322881672
 10
108.484375
 20
100.0
 10
108.484375
 20
101.61327677118328
 10
108.484375
 20
103.1456571086023
 10
108.484375
 20
104.52030106347581
 10
108.484375
 20
105.66827824789321
 10
108.484375
 20
106.53202429229253
 10
108.484375
 20
107.06822736331821
 10
108.484375
 20
107.24999999999999
  0
LWPOLYLINE
  5
AE
330
17
100
AcDbEntity
  8
HIDDEN
100
AcDbPolyline
 90
2
 70
0
 10
108.484375
 20
107.25
 10
109.484375
 20
107.25
  0
LWPOLYLINE
  5
AF
330
17
100
AcDbEntity
  8
HIDDEN
100
AcDbPolyline
 90
2
 70
0
 10
104.515625
 20
71.25
 10
109.484375
 20
71.25
  0
LWPOLYLINE
  5
B0
330
17
100
AcDbEntity
  8
HIDDEN
100
AcDbPolyline
 90
2
 70
0
 10
104.515625
 20
95.75
 10
109.484375
 20
95.75
  0
LWPOLYLINE
  5
B1
330
17
100
AcDbEntity
  8
HIDDEN
100
AcDbPolyline
 90
2
 70
0
 10
104.515625
 20
112.75
 10
109.484375
 20
112.75
  0
LWPOLYLINE
  5
B2
330
17
100
AcDbEntity
  8
HIDDEN
100
AcDbPolyline
 90
2
 70
0
 10
104.515625
 20
71.25
 10
109.484375
 20
71.25
  0
LWPOLYLINE
  5
B3
330
17
100
AcDbEntity
  8
HIDDEN
100
AcDbPolyline
 90
2
 70
0
 10
104.515625
 20
91.6875
 10
108.484375
 20
91.6875
  0
LWPOLYLINE
  5
B4
330
17
100
AcDbEntity
  8
HIDDEN
100
AcDbPolyline
 90
2
 70
0
 10
104.515625
 20
112.75
 10
109.484375
 20
112.75
  0
LWPOLYLINE
  5
B5
330
17
100
AcDbEntity
  8
HIDDEN
100
AcDbPolyline
 90
2
 70
0
 10
104.515625
 20
95.75
 10
109.484375
 20
95.75
  0
LWPOLYLINE
  5
B6
330
17
100
AcDbEntity
  8
HIDDEN
100
AcDbPolyline
 90
2
 70
0
 10
108.484375
 20
92.75
 10
109.484375
 20
92.75
  0
LWPOLYLINE
  5
B7
330
17
100
AcDbEntity
  8
OUTLINE
100
AcDbPolyline
 90
2
 70
0
 10
104.515625
 20
70.0
 10
104.515625
 20
130.0
  0
LWPOLYLINE
  5
B8
330
17
100
AcDbEntity
  8
OUTLINE
100
AcDbPolyline
 90
2
 70
0
 10
104.515625
 20
70.0
 10
109.484375
 20
70.0
  0
LWPOLYLINE
  5
B9
330
17
100
AcDbEntity
  8
OUTLINE
100
AcDbPolyline
 90
2
 70
0
 10
109.484375
 20
70.0
 10
109.484375
 20
130.0
  0
LWPOLYLINE
  5
BA
330
17
100
AcDbEntity
  8
OUTLINE
100
AcDbPolyline
 90
2
 70
0
 10
104.515625
 20
130.0
 10
109.484375
 20
130.0
  0
TEXT
  5
BB
330
17
100
AcDbEntity
  8
TEXT
100
AcDbText
 10
22.0
 20
63.0
 30
0.0
 40
2.6
  1
FRONT  (view scale 2.50:1)
100
AcDbText
  0
LWPOLYLINE
  5
BC
330
17
100
AcDbEntity
  8
HIDDEN
100
AcDbPolyline
 90
2
 70
0
 10
356.5416666666667
 20
170.0
 10
356.5416666666667
 20
247.0
  0
LWPOLYLINE
  5
BD
330
17
100
AcDbEntity
  8
HIDDEN
100
AcDbPolyline
 90
2
 70
0
 10
356.5416666666667
 20
247.0
 10
247.45833333333331
 20
247.0
  0
LWPOLYLINE
  5
BE
330
17
100
AcDbEntity
  8
HIDDEN
100
AcDbPolyline
 90
2
 70
0
 10
356.5416666666667
 20
170.0
 10
247.45833333333331
 20
170.0
  0
LWPOLYLINE
  5
BF
330
17
100
AcDbEntity
  8
HIDDEN
100
AcDbPolyline
 90
2
 70
0
 10
247.45833333333331
 20
170.0
 10
247.45833333333331
 20
247.0
  0
LWPOLYLINE
  5
C0
330
17
100
AcDbEntity
  8
HIDDEN
100
AcDbPolyline
 90
30
 70
0
 10
290.7708333333333
 20
192.1375
 10
292.97786318616653
 20
191.89747103862356
 10
295.0816947760187
 20
191.18860764195514
 10
296.98395527598933
 20
190.04405547457793
 10
298.5956970993104
 20
188.5173325237601
 10
299.8415569896458
 20
186.67982665785118
 10
300.66327992319736
 20
184.6174576089
 10
301.02244304887154
 20
182.42665946147696
 10
300.902252298093
 20
180.20987150205826
 10
300.3083276567857
 20
178.07074827184354
 10
299.2684403810774
 20
176.10931279561288
 10
297.83121444422846
 20
174.41727961625585
 10
296.0638529336841
 20
173.0737663246794
 10
294.0489957093961
 20
172.1415941091899
 10
291.88085525581914
 20
171.66435030654856
 10
289.66081141084754
 20
171.66435030654856
 10
287.4926709572706
 20
172.1415941091899
 10
285.47781373298255
 20
173.0737663246794
 10
283.71045222243816
 20
174.41727961625585
 10
282.27322628558926
 20
176.10931279561288
 10
281.2333390098809
 20
178.07074827184354
 10
280.6394143685737
 20
180.2098715020583
 10
280.51922361779515
 20
182.42665946147696
 10
280.8783867434693
 20
184.6174576089
 10
281.7001096770208
 20
186.67982665785118
 10
282.94596956735626
 20
188.5173325237601
 10
284.55771139067735
 20
190.04405547457796
 10
286.459971890648
 20
191.18860764195517
 10
288.56380348050016
 20
191.89747103862356
 10
290.77083333333337
 20
192.1375
  0
LWPOLYLINE
  5
C1
330
17
100
AcDbEntity
  8
HIDDEN
100
AcDbPolyline
 90
22
 70
0
 10
257.0833333333333
 20
213.95416666666668
 10
258.6909771804328
 20
213.71185334489192
 10
260.1557748166887
 20
213.0064439815818
 10
261.34757254396106
 20
211.9006172943045
 10
262.1604739040636
 20
210.49263083706504
 10
262.5222490437923
 20
208.90759038543595
 10
262.40075265435837
 20
207.28633373937993
 10
261.80678022314095
 20
205.77291666666667
 10
260.7931088072589
 20
204.50181291572815
 10
259.449807560437
 20
203.5859656329822
 10
257.8962346934359
 20
203.10675186863045
 10
256.27043197323076
 20
203.10675186863045
 10
254.71685910622966
 20
203.5859656329822
 10
253.37355785940778
 20
204.50181291572815
 10
252.3598864435257
 20
205.77291666666667
 10
251.76591401230831
 20
207.28633373937993
 10
251.6444176228743
 20
208.90759038543595
 10
252.00619276260306
 20
210.49263083706504
 10
252.81909412270562
 20
211.9006172943045
 10
254.010891849978
 20
213.0064439815818
 10
255.47568948623388
 20
213.71185334489192
 10
257.0833333333333
 20
213.95416666666668
  0
LWPOLYLINE
  5
C2
330
17
100
AcDbEntity
  8
HIDDEN
100
AcDbPolyline
 90
30
 70
0
 10
290.7708333333333
 20
245.39583333333334
 10
292.97786318616653
 20
245.1558043719569
 10
295.0816947760187
 20
244.4469409752885
 10
296.98395527598933
 20
243.30238880791129
 10
298.5956970993104
 20
241.77566585709343
 10
299.8415569896458
 20
239.9381599911845
 10
300.66327992319736
 20
237.87579094223335
 10
301.02244304887154
 20
235.68499279481028
 10
300.902252298093
 20
233.46820483539162
 10
300.3083276567857
 20
231.32908160517687
 10
299.2684403810774
 20
229.3676461289462
 10
297.83121444422846
 20
227.67561294958918
 10
296.0638529336841
 20
226.33209965801274
 10
294.0489957093961
 20
225.39992744252322
 10
291.88085525581914
 20
224.9226836398819
 10
289.66081141084754
 20
224.9226836398819
 10
287.4926709572706
 20
225.39992744252322
 10
285.47781373298255
 20
226.33209965801277
 10
283.71045222243816
 20
227.6756129495892
 10
282.27322628558926
 20
229.3676461289462
 10
281.2333390098809
 20
231.3290816051769
 10
280.6394143685737
 20
233.46820483539162
 10
280.51922361779515
 20
235.68499279481028
 10
280.8783867434693
 20
237.87579094223335
 10
281.7001096770208
 20
239.93815999118453
 10
282.94596956735626
 20
241.77566585709343
 10
284.55771139067735
 20
243.30238880791129
 10
286.459971890648
 20
244.4469409752885
 10
288.56380348050016
 20
245.1558043719569
 10
290.77083333333337
 20
245.39583333333334
  0
LWPOLYLINE
  5
C3
330
17
100
AcDbEntity
  8
HIDDEN
100
AcDbPolyline
 90
30
 70
0
 10
313.2291666666667
 20
192.1375
 10
315.43619651949984
 20
191.89747103862356
 10
317.5400281093521
 20
191.18860764195514
 10
319.44228860932265
 20
190.04405547457793
 10
321.05403043264374
 20
188.5173325237601
 10
322.2998903229792
 20
186.67982665785118
 10
323.1216132565307
 20
184.6174576089
 10
323.48077638220485
 20
182.42665946147696
 10
323.3605856314263
 20
180.20987150205826
 10
322.7666609901191
 20
178.07074827184354
 10
321.72677371441074
 20
176.10931279561288
 10
320.28954777756184
 20
174.41727961625585
 10
318.52218626701745
 20
173.0737663246794
 10
316.5073290427294
 20
172.1415941091899
 10
314.33918858915246
 20
171.66435030654856
 10
312.11914474418086
 20
171.66435030654856
 10
309.9510042906039
 20
172.1415941091899
 10
307.9361470663159
 20
173.0737663246794
 10
306.16878555577154
 20
174.41727961625585
 10
304.7315596189226
 20
176.10931279561288
 10
303.6916723432143
 20
178.07074827184354
 10
303.097747701907
 20
180.2098715020583
 10
302.97755695112846
 20
182.42665946147696
 10
303.33672007680264
 20
184.6174576089
 10
304.1584430103542
 20
186.67982665785118
 10
305.40430290068963
 20
188.5173325237601
 10
307.01604472401067
 20
190.04405547457796
 10
308.9183052239813
 20
191.18860764195517
 10
311.0221368138335
 20
191.89747103862356
 10
313.2291666666667
 20
192.1375
  0
LWPOLYLINE
  5
C4
330
17
100
AcDbEntity
  8
HIDDEN
100
AcDbPolyline
 90
30
 70
0
 10
302.0
 20
219.16770833333334
 10
304.2932419564595
 20
218.91830324065313
 10
306.47925446779027
 20
218.18174986755236
 10
308.45582201854097
 20
216.99248863113698
 10
310.1305225068355
 20
215.4061280650528
 10
311.4250487991372
 20
213.49684462625683
 10
312.27887028478057
 20
211.353914286331
 10
312.6520632200514
 20
209.07753808627422
 10
312.5271775180706
 20
206.77415684719077
 10
311.91005269546224
 20
204.55147411579577
 10
310.8295448230466
 20
202.51342006627482
 10
309.33617724803946
 20
200.75529184084917
 10
307.49977817848946
 20
199.35929756132055
 10
305.4062155938777
 20
198.39071236866346
 10
303.1533821538329
 20
197.89482622998145
 10
300.8466178461671
 20
197.89482622998148
 10
298.5937844061223
 20
198.39071236866346
 10
296.50022182151054
 20
199.35929756132055
 10
294.6638227519605
 20
200.7552918408492
 10
293.1704551769534
 20
202.51342006627485
 10
292.08994730453776
 20
204.55147411579577
 10
291.4728224819294
 20
206.77415684719077
 10
291.3479367799486
 20
209.07753808627425
 10
291.72112971521943
 20
211.353914286331
 10
292.5749512008628
 20
213.49684462625683
 10
293.8694774931645
 20
215.40612806505283
 10
295.54417798145903
 20
216.99248863113698
 10
297.52074553220973
 20
218.18174986755238
 10
299.70675804354056
 20
218.91830324065313
 10
302.0
 20
219.16770833333334
  0
LWPOLYLINE
  5
C5
330
17
100
AcDbEntity
  8
HIDDEN
100
AcDbPolyline
 90
30
 70
0
 10
313.2291666666667
 20
245.39583333333334
 10
315.43619651949984
 20
245.1558043719569
 10
317.5400281093521
 20
244.4469409752885
 10
319.44228860932265
 20
243.30238880791129
 10
321.05403043264374
 20
241.77566585709343
 10
322.2998903229792
 20
239.9381599911845
 10
323.1216132565307
 20
237.87579094223335
 10
323.48077638220485
 20
235.68499279481028
 10
323.3605856314263
 20
233.46820483539162
 10
322.7666609901191
 20
231.32908160517687
 10
321.72677371441074
 20
229.3676461289462
 10
320.28954777756184
 20
227.67561294958918
 10
318.52218626701745
 20
226.33209965801274
 10
316.5073290427294
 20
225.39992744252322
 10
314.33918858915246
 20
224.9226836398819
 10
312.11914474418086
 20
224.9226836398819
 10
309.9510042906039
 20
225.39992744252322
 10
307.9361470663159
 20
226.33209965801277
 10
306.16878555577154
 20
227.6756129495892
 10
304.7315596189226
 20
229.3676461289462
 10
303.6916723432143
 20
231.3290816051769
 10
303.097747701907
 20
233.46820483539162
 10
302.97755695112846
 20
235.68499279481028
 10
303.33672007680264
 20
237.87579094223335
 10
304.1584430103542
 20
239.93815999118453
 10
305.40430290068963
 20
241.77566585709343
 10
307.01604472401067
 20
243.30238880791129
 10
308.9183052239813
 20
244.4469409752885
 10
311.0221368138335
 20
245.1558043719569
 10
313.2291666666667
 20
245.39583333333334
  0
LWPOLYLINE
  5
C6
330
17
100
AcDbEntity
  8
HIDDEN
100
AcDbPolyline
 90
22
 70
0
 10
346.9166666666667
 20
213.95416666666668
 10
348.5243105137661
 20
213.71185334489192
 10
349.989108150022
 20
213.0064439815818
 10
351.1809058772944
 20
211.9006172943045
 10
351.99380723739694
 20
210.49263083706504
 10
352.3555823771257
 20
208.90759038543595
 10
352.2340859876917
 20
207.28633373937993
 10
351.64011355647426
 20
205.77291666666667
 10
350.62644214059225
 20
204.50181291572815
 10
349.28314089377034
 20
203.5859656329822
 10
347.72956802676924
 20
203.10675186863045
 10
346.1037653065641
 20
203.10675186863045
 10
344.550192439563
 20
203.5859656329822
 10
343.2068911927411
 20
204.50181291572815
 10
342.19321977685905
 20
205.77291666666667
 10
341.59924734564163
 20
207.28633373937993
 10
341.4777509562077
 20
208.90759038543595
 10
341.83952609593644
 20
210.49263083706504
 10
342.65242745603894
 20
211.9006172943045
 10
343.8442251833113
 20
213.0064439815818
 10
345.3090228195672
 20
213.71185334489192
 10
346.9166666666667
 20
213.95416666666668
  0
LWPOLYLINE
  5
C7
330
17
100
AcDbEntity
  8
HIDDEN
100
AcDbPolyline
 90
28
 70
0
 10
302.0
 20
217.80416666666667
 10
304.1456884973661
 20
217.55337165001978
 10
306.1757023724485
 20
216.81450702434242
 10
307.98060305179183
 20
215.62740517285283
 10
309.4630878725917
 20
214.05606306363467
 10
310.54323569443187
 20
212.18519215652265
 10
311.1628154686511
 20
210.11565158637606
 10
311.28842548924894
 20
207.95901082101213
 10
310.91329408750204
 20
205.83153492231722
 10
310.0576446943777
 20
203.84791666666666
 10
308.76760559013593
 20
202.115093427663
 10
307.11272311680045
 20
200.72648215464548
 10
305.1822124168593
 20
199.7569432407711
 10
303.08014782184017
 20
199.2587447798427
 10
300.91985217815983
 20
199.2587447798427
 10
298.8177875831408
 20
199.7569432407711
 10
296.88727688319955
 20
200.72648215464548
 10
295.23239440986407
 20
202.115093427663
 10
293.9423553056223
 20
203.84791666666666
 10
293.08670591249796
 20
205.83153492231722
 10
292.71157451075106
 20
207.9590108210121
 10
292.8371845313489
 20
210.11565158637606
 10
293.45676430556813
 20
212.18519215652265
 10
294.5369121274083
 20
214.05606306363467
 10
296.01939694820817
 20
215.62740517285283
 10
297.8242976275515
 20
216.81450702434242
 10
299.8543115026339
 20
217.55337165001978
 10
302.0
 20
217.80416666666667
  0
LWPOLYLINE
  5
C8
330
17
100
AcDbEntity
  8
OUTLINE
100
AcDbPolyline
 90
2
 70
0
 10
356.5416666666667
 20
170.0
 10
356.5416666666667
 20
247.0
  0
LWPOLYLINE
  5
C9
330
17
100
AcDbEntity
  8
OUTLINE
100
AcDbPolyline
 90
2
 70
0
 10
356.5416666666667
 20
247.0
 10
247.45833333333331
 20
247.0
  0
LWPOLYLINE
  5
CA
330
17
100
AcDbEntity
  8
OUTLINE
100
AcDbPolyline
 90
2
 70
0
 10
356.5416666666667
 20
170.0
 10
247.45833333333331
 20
170.0
  0
LWPOLYLINE
  5
CB
330
17
100
AcDbEntity
  8
OUTLINE
100
AcDbPolyline
 90
2
 70
0
 10
247.45833333333331
 20
170.0
 10
247.45833333333331
 20
247.0
  0
LWPOLYLINE
  5
CC
330
17
100
AcDbEntity
  8
OUTLINE
100
AcDbPolyline
 90
30
 70
0
 10
290.7708333333333
 20
192.1375
 10
292.97786318616653
 20
191.89747103862356
 10
295.0816947760187
 20
191.18860764195514
 10
296.98395527598933
 20
190.04405547457793
 10
298.5956970993104
 20
188.5173325237601
 10
299.8415569896458
 20
186.67982665785118
 10
300.66327992319736
 20
184.6174576089
 10
301.02244304887154
 20
182.42665946147696
 10
300.902252298093
 20
180.20987150205826
 10
300.3083276567857
 20
178.07074827184354
 10
299.2684403810774
 20
176.10931279561288
 10
297.83121444422846
 20
174.41727961625585
 10
296.0638529336841
 20
173.0737663246794
 10
294.0489957093961
 20
172.1415941091899
 10
291.88085525581914
 20
171.66435030654856
 10
289.66081141084754
 20
171.66435030654856
 10
287.4926709572706
 20
172.1415941091899
 10
285.47781373298255
 20
173.0737663246794
 10
283.71045222243816
 20
174.41727961625585
 10
282.27322628558926
 20
176.10931279561288
 10
281.2333390098809
 20
178.07074827184354
 10
280.6394143685737
 20
180.2098715020583
 10
280.51922361779515
 20
182.42665946147696
 10
280.8783867434693
 20
184.6174576089
 10
281.7001096770208
 20
186.67982665785118
 10
282.94596956735626
 20
188.5173325237601
 10
284.55771139067735
 20
190.04405547457796
 10
286.459971890648
 20
191.18860764195517
 10
288.56380348050016
 20
191.89747103862356
 10
290.77083333333337
 20
192.1375
  0
LWPOLYLINE
  5
CD
330
17
100
AcDbEntity
  8
OUTLINE
100
AcDbPolyline
 90
22
 70
0
 10
257.0833333333333
 20
213.95416666666668
 10
258.6909771804328
 20
213.71185334489192
 10
260.1557748166887
 20
213.0064439815818
 10
261.34757254396106
 20
211.9006172943045
 10
262.1604739040636
 20
210.49263083706504
 10
262.5222490437923
 20
208.90759038543595
 10
262.40075265435837
 20
207.28633373937993
 10
261.80678022314095
 20
205.77291666666667
 10
260.7931088072589
 20
204.50181291572815
 10
259.449807560437
 20
203.5859656329822
 10
257.8962346934359
 20
203.10675186863045
 10
256.27043197323076
 20
203.10675186863045
 10
254.71685910622966
 20
203.5859656329822
 10
253.37355785940778
 20
204.50181291572815
 10
252.3598864435257
 20
205.77291666666667
 10
251.76591401230831
 20
207.28633373937993
 10
251.6444176228743
 20
208.90759038543595
 10
252.00619276260306
 20
210.49263083706504
 10
252.81909412270562
 20
211.9006172943045
 10
254.010891849978
 20
213.0064439815818
 10
255.47568948623388
 20
213.71185334489192
 10
257.0833333333333
 20
213.95416666666668
  0
LWPOLYLINE
  5
CE
330
17
100
AcDbEntity
  8
OUTLINE
100
AcDbPolyline
 90
30
 70
0
 10
290.7708333333333
 20
245.39583333333334
 10
292.97786318616653
 20
245.1558043719569
 10
295.0816947760187
 20
244.4469409752885
 10
296.98395527598933
 20
243.30238880791129
 10
298.5956970993104
 20
241.77566585709343
 10
299.8415569896458
 20
239.9381599911845
 10
300.66327992319736
 20
237.87579094223335
 10
301.02244304887154
 20
235.68499279481028
 10
300.902252298093
 20
233.46820483539162
 10
300.3083276567857
 20
231.32908160517687
 10
299.2684403810774
 20
229.3676461289462
 10
297.83121444422846
 20
227.67561294958918
 10
296.0638529336841
 20
226.33209965801274
 10
294.0489957093961
 20
225.39992744252322
 10
291.88085525581914
 20
224.9226836398819
 10
289.66081141084754
 20
224.9226836398819
 10
287.4926709572706
 20
225.39992744252322
 10
285.47781373298255
 20
226.33209965801277
 10
283.71045222243816
 20
227.6756129495892
 10
282.27322628558926
 20
229.3676461289462
 10
281.2333390098809
 20
231.3290816051769
 10
280.6394143685737
 20
233.46820483539162
 10
280.51922361779515
 20
235.68499279481028
 10
280.8783867434693
 20
237.87579094223335
 10
281.7001096770208
 20
239.93815999118453
 10
282.94596956735626
 20
241.77566585709343
 10
284.55771139067735
 20
243.30238880791129
 10
286.459971890648
 20
244.4469409752885
 10
288.56380348050016
 20
245.1558043719569
 10
290.77083333333337
 20
245.39583333333334
  0
LWPOLYLINE
  5
CF
330
17
100
AcDbEntity
  8
OUTLINE
100
AcDbPolyline
 90
30
 70
0
 10
313.2291666666667
 20
192.1375
 10
315.43619651949984
 20
191.89747103862356
 10
317.5400281093521
 20
191.18860764195514
 10
319.44228860932265
 20
190.04405547457793
 10
321.05403043264374
 20
188.5173325237601
 10
322.2998903229792
 20
186.67982665785118
 10
323.1216132565307
 20
184.6174576089
 10
323.48077638220485
 20
182.42665946147696
 10
323.3605856314263
 20
180.20987150205826
 10
322.7666609901191
 20
178.07074827184354
 10
321.72677371441074
 20
176.10931279561288
 10
320.28954777756184
 20
174.41727961625585
 10
318.52218626701745
 20
173.0737663246794
 10
316.5073290427294
 20
172.1415941091899
 10
314.33918858915246
 20
171.66435030654856
 10
312.11914474418086
 20
171.66435030654856
 10
309.9510042906039
 20
172.1415941091899
 10
307.9361470663159
 20
173.0737663246794
 10
306.16878555577154
 20
174.41727961625585
 10
304.7315596189226
 20
176.10931279561288
 10
303.6916723432143
 20
178.07074827184354
 10
303.097747701907
 20
180.2098715020583
 10
302.97755695112846
 20
182.42665946147696
 10
303.33672007680264
 20
184.6174576089
 10
304.1584430103542
 20
186.67982665785118
 10
305.40430290068963
 20
188.5173325237601
 10
307.01604472401067
 20
190.04405547457796
 10
308.9183052239813
 20
191.18860764195517
 10
311.0221368138335
 20
191.89747103862356
 10
313.2291666666667
 20
192.1375
  0
LWPOLYLINE
  5
D0
330
17
100
AcDbEntity
  8
OUTLINE
100
AcDbPolyline
 90
30
 70
0
 10
302.0
 20
219.16770833333334
 10
304.2932419564595
 20
218.91830324065313
 10
306.47925446779027
 20
218.18174986755236
 10
308.45582201854097
 20
216.99248863113698
 10
310.1305225068355
 20
215.4061280650528
 10
311.4250487991372
 20
213.49684462625683
 10
312.27887028478057
 20
211.353914286331
 10
312.6520632200514
 20
209.07753808627422
 10
312.5271775180706
 20
206.77415684719077
 10
311.91005269546224
 20
204.55147411579577
 10
310.8295448230466
 20
202.51342006627482
 10
309.33617724803946
 20
200.75529184084917
 10
307.49977817848946
 20
199.35929756132055
 10
305.4062155938777
 20
198.39071236866346
 10
303.1533821538329
 20
197.89482622998145
 10
300.8466178461671
 20
197.89482622998148
 10
298.5937844061223
 20
198.39071236866346
 10
296.50022182151054
 20
199.35929756132055
 10
294.6638227519605
 20
200.7552918408492
 10
293.1704551769534
 20
202.51342006627485
 10
292.08994730453776
 20
204.55147411579577
 10
291.4728224819294
 20
206.77415684719077
 10
291.3479367799486
 20
209.07753808627425
 10
291.72112971521943
 20
211.353914286331
 10
292.5749512008628
 20
213.49684462625683
 10
293.8694774931645
 20
215.40612806505283
 10
295.54417798145903
 20
216.99248863113698
 10
297.52074553220973
 20
218.18174986755238
 10
299.70675804354056
 20
218.91830324065313
 10
302.0
 20
219.16770833333334
  0
LWPOLYLINE
  5
D1
330
17
100
AcDbEntity
  8
OUTLINE
100
AcDbPolyline
 90
30
 70
0
 10
313.2291666666667
 20
245.39583333333334
 10
315.43619651949984
 20
245.1558043719569
 10
317.5400281093521
 20
244.4469409752885
 10
319.44228860932265
 20
243.30238880791129
 10
321.05403043264374
 20
241.77566585709343
 10
322.2998903229792
 20
239.9381599911845
 10
323.1216132565307
 20
237.87579094223335
 10
323.48077638220485
 20
235.68499279481028
 10
323.3605856314263
 20
233.46820483539162
 10
322.7666609901191
 20
231.32908160517687
 10
321.72677371441074
 20
229.3676461289462
 10
320.28954777756184
 20
227.67561294958918
 10
318.52218626701745
 20
226.33209965801274
 10
316.5073290427294
 20
225.39992744252322
 10
314.33918858915246
 20
224.9226836398819
 10
312.11914474418086
 20
224.9226836398819
 10
309.9510042906039
 20
225.39992744252322
 10
307.9361470663159
 20
226.33209965801277
 10
306.16878555577154
 20
227.6756129495892
 10
304.7315596189226
 20
229.3676461289462
 10
303.6916723432143
 20
231.3290816051769
 10
303.097747701907
 20
233.46820483539162
 10
302.97755695112846
 20
235.68499279481028
 10
303.33672007680264
 20
237.87579094223335
 10
304.1584430103542
 20
239.93815999118453
 10
305.40430290068963
 20
241.77566585709343
 10
307.01604472401067
 20
243.30238880791129
 10
308.9183052239813
 20
244.4469409752885
 10
311.0221368138335
 20
245.1558043719569
 10
313.2291666666667
 20
245.39583333333334
  0
LWPOLYLINE
  5
D2
330
17
100
AcDbEntity
  8
OUTLINE
100
AcDbPolyline
 90
22
 70
0
 10
346.9166666666667
 20
213.95416666666668
 10
348.5243105137661
 20
213.71185334489192
 10
349.989108150022
 20
213.0064439815818
 10
351.1809058772944
 20
211.9006172943045
 10
351.99380723739694
 20
210.49263083706504
 10
352.3555823771257
 20
208.90759038543595
 10
352.2340859876917
 20
207.28633373937993
 10
351.64011355647426
 20
205.77291666666667
 10
350.62644214059225
 20
204.50181291572815
 10
349.28314089377034
 20
203.5859656329822
 10
347.72956802676924
 20
203.10675186863045
 10
346.1037653065641
 20
203.10675186863045
 10
344.550192439563
 20
203.5859656329822
 10
343.2068911927411
 20
204.50181291572815
 10
342.19321977685905
 20
205.77291666666667
 10
341.59924734564163
 20
207.28633373937993
 10
341.4777509562077
 20
208.90759038543595
 10
341.83952609593644
 20
210.49263083706504
 10
342.65242745603894
 20
211.9006172943045
 10
343.8442251833113
 20
213.0064439815818
 10
345.3090228195672
 20
213.71185334489192
 10
346.9166666666667
 20
213.95416666666668
  0
LWPOLYLINE
  5
D3
330
17
100
AcDbEntity
  8
OUTLINE
100
AcDbPolyline
 90
28
 70
0
 10
302.0
 20
217.80416666666667
 10
304.1456884973661
 20
217.55337165001978
 10
306.1757023724485
 20
216.81450702434242
 10
307.98060305179183
 20
215.62740517285283
 10
309.4630878725917
 20
214.05606306363467
 10
310.54323569443187
 20
212.18519215652265
 10
311.1628154686511
 20
210.11565158637606
 10
311.28842548924894
 20
207.95901082101213
 10
310.91329408750204
 20
205.83153492231722
 10
310.0576446943777
 20
203.84791666666666
 10
308.76760559013593
 20
202.115093427663
 10
307.11272311680045
 20
200.72648215464548
 10
305.1822124168593
 20
199.7569432407711
 10
303.08014782184017
 20
199.2587447798427
 10
300.91985217815983
 20
199.2587447798427
 10
298.8177875831408
 20
199.7569432407711
 10
296.88727688319955
 20
200.72648215464548
 10
295.23239440986407
 20
202.115093427663
 10
293.9423553056223
 20
203.84791666666666
 10
293.08670591249796
 20
205.83153492231722
 10
292.71157451075106
 20
207.9590108210121
 10
292.8371845313489
 20
210.11565158637606
 10
293.45676430556813
 20
212.18519215652265
 10
294.5369121274083
 20
214.05606306363467
 10
296.01939694820817
 20
215.62740517285283
 10
297.8242976275515
 20
216.81450702434242
 10
299.8543115026339
 20
217.55337165001978
 10
302.0
 20
217.80416666666667
  0
TEXT
  5
D4
330
17
100
AcDbEntity
  8
TEXT
100
AcDbText
 10
217.0
 20
163.0
 30
0.0
 40
2.6
  1
END  (view scale 3.21:1)
100
AcDbText
  0
LWPOLYLINE
  5
D5
330
17
100
AcDbEntity
  8
DIM
100
AcDbPolyline
 90
2
 70
0
 10
104.77867647058824
 20
161.0
 10
109.22132352941176
 20
161.0
  0
LWPOLYLINE
  5
D6
330
17
100
AcDbEntity
  8
DIM
100
AcDbPolyline
 90
2
 70
0
 10
103.77867647058824
 20
160.0
 10
105.77867647058824
 20
162.0
  0
LWPOLYLINE
  5
D7
330
17
100
AcDbEntity
  8
DIM
100
AcDbPolyline
 90
2
 70
0
 10
108.22132352941176
 20
160.0
 10
110.22132352941176
 20
162.0
  0
TEXT
  5
D8
330
17
100
AcDbEntity
  8
DIM
100
AcDbText
 10
101.4
 20
163.0
 30
0.0
 40
2.8
  1
1.9882 X
100
AcDbText
  0
LWPOLYLINE
  5
D9
330
17
100
AcDbEntity
  8
DIM
100
AcDbPolyline
 90
2
 70
0
 10
202.0
 20
172.0
 10
202.0
 20
248.0
  0
LWPOLYLINE
  5
DA
330
17
100
AcDbEntity
  8
DIM
100
AcDbPolyline
 90
2
 70
0
 10
201.0
 20
171.0
 10
203.0
 20
173.0
  0
LWPOLYLINE
  5
DB
330
17
100
AcDbEntity
  8
DIM
100
AcDbPolyline
 90
2
 70
0
 10
201.0
 20
247.0
 10
203.0
 20
249.0
  0
TEXT
  5
DC
330
17
100
AcDbEntity
  8
DIM
100
AcDbText
 10
204.0
 20
210.0
 30
0.0
 40
2.8
  1
34.00 Y
100
AcDbText
  0
LWPOLYLINE
  5
DD
330
17
100
AcDbEntity
  8
DIM
100
AcDbPolyline
 90
2
 70
0
 10
202.0
 20
70.0
 10
202.0
 20
130.0
  0
LWPOLYLINE
  5
DE
330
17
100
AcDbEntity
  8
DIM
100
AcDbPolyline
 90
2
 70
0
 10
201.0
 20
69.0
 10
203.0
 20
71.0
  0
LWPOLYLINE
  5
DF
330
17
100
AcDbEntity
  8
DIM
100
AcDbPolyline
 90
2
 70
0
 10
201.0
 20
129.0
 10
203.0
 20
131.0
  0
TEXT
  5
E0
330
17
100
AcDbEntity
  8
DIM
100
AcDbText
 10
204.0
 20
100.0
 30
0.0
 40
2.8
  1
24.00 Z
100
AcDbText
  0
TEXT
  5
E1
330
17
100
AcDbEntity
  8
TEXT
100
AcDbText
 10
218.0
 20
128.0
 30
0.0
 40
2.8
  1
PRINT 2; outer retaining face flat, pocket upward.
100
AcDbText
  0
TEXT
  5
E2
330
17
100
AcDbEntity
  8
TEXT
100
AcDbText
 10
218.0
 20
117.0
 30
0.0
 40
2.8
  1
Envelope34 x24 x1.9875; magnet DIA6.35 x1.5875.
100
AcDbText
  0
TEXT
  5
E3
330
17
100
AcDbEntity
  8
TEXT
100
AcDbText
 10
218.0
 20
106.0
 30
0.0
 40
2.8
  1
Pocket DIA6.65, depth1.5875; aperture DIA5.80, lip0.40.
100
AcDbText
  0
TEXT
  5
E4
330
17
100
AcDbEntity
  8
TEXT
100
AcDbText
 10
218.0
 20
95.0
 30
0.0
 40
2.8
  1
2x DIA3.40 clamp holes at Y+/-14,Z0.
100
AcDbText
  0
TEXT
  5
E5
330
17
100
AcDbEntity
  8
TEXT
100
AcDbText
 10
218.0
 20
84.0
 30
0.0
 40
2.8
  1
4x DIA6.40 clearance holes atY+/-3.50,Z+/-8.30.
100
AcDbText
  0
TEXT
  5
E6
330
17
100
AcDbEntity
  8
TEXT
100
AcDbText
 10
218.0
 20
73.0
 30
0.0
 40
2.8
  1
Fit gently; adjust pocket depth to measured magnet thickness.
100
AcDbText
  0
TEXT
  5
E7
330
17
100
AcDbEntity
  8
TEXT
100
AcDbText
 10
218.0
 20
51.0
 30
0.0
 40
2.55
  1
General prototype target: +/-0.20mm unless called out.
100
AcDbText
  0
TEXT
  5
E8
330
17
100
AcDbEntity
  8
TEXT
100
AcDbText
 10
218.0
 20
41.0
 30
0.0
 40
2.55
  1
CAD is nominal. Fit, measure and qualify before calibration.
100
AcDbText
  0
ENDSEC
  0
SECTION
  2
OBJECTS
  0
DICTIONARY
  5
A
330
0
100
AcDbDictionary
281
1
  3
ACAD_COLOR
350
B
  3
ACAD_GROUP
350
C
  3
ACAD_LAYOUT
350
D
  3
ACAD_MATERIAL
350
E
  3
ACAD_MLEADERSTYLE
350
F
  3
ACAD_MLINESTYLE
350
10
  3
ACAD_PLOTSETTINGS
350
11
  3
ACAD_PLOTSTYLENAME
350
12
  3
ACAD_SCALELIST
350
14
  3
ACAD_TABLESTYLE
350
15
  3
ACAD_VISUALSTYLE
350
16
  3
EZDXF_META
350
2D
  0
DICTIONARY
  5
B
330
A
100
AcDbDictionary
281
1
  0
DICTIONARY
  5
C
330
A
100
AcDbDictionary
281
1
  0
DICTIONARY
  5
D
330
A
100
AcDbDictionary
281
1
  3
Model
350
1A
  3
Layout1
350
1E
  0
DICTIONARY
  5
E
330
A
100
AcDbDictionary
281
1
  3
ByBlock
350
1F
  3
ByLayer
350
20
  3
Global
350
21
  0
DICTIONARY
  5
F
330
A
100
AcDbDictionary
281
1
  3
Standard
350
2C
  0
DICTIONARY
  5
10
330
A
100
AcDbDictionary
281
1
  3
Standard
350
22
  0
DICTIONARY
  5
11
330
A
100
AcDbDictionary
281
1
  0
ACDBDICTIONARYWDFLT
  5
12
330
A
100
AcDbDictionary
281
1
  3
Normal
350
13
100
AcDbDictionaryWithDefault
340
13
  0
ACDBPLACEHOLDER
  5
13
330
12
  0
DICTIONARY
  5
14
330
A
100
AcDbDictionary
281
1
  0
DICTIONARY
  5
15
330
A
100
AcDbDictionary
281
1
  0
DICTIONARY
  5
16
330
A
100
AcDbDictionary
281
1
  0
LAYOUT
  5
1A
330
D
100
AcDbPlotSettings
  1

  4
A3
  6

 40
7.5
 41
20.0
 42
7.5
 43
20.0
 44
420.0
 45
297.0
 46
0.0
 47
0.0
 48
0.0
 49
0.0
140
0.0
141
0.0
142
1.0
143
1.0
 70
1024
 72
1
 73
0
 74
5
  7

 75
16
 76
0
 77
2
 78
300
147
1.0
148
0.0
149
0.0
100
AcDbLayout
  1
Model
 70
1
 71
0
 10
0.0
 20
0.0
 11
420.0
 21
297.0
 12
0.0
 22
0.0
 32
0.0
 14
1e+20
 24
1e+20
 34
1e+20
 15
-1e+20
 25
-1e+20
 35
-1e+20
146
0.0
 13
0.0
 23
0.0
 33
0.0
 16
1.0
 26
0.0
 36
0.0
 17
0.0
 27
1.0
 37
0.0
 76
1
330
17
  0
LAYOUT
  5
1E
330
D
100
AcDbPlotSettings
  1

  4
A3
  6

 40
7.5
 41
20.0
 42
7.5
 43
20.0
 44
420.0
 45
297.0
 46
0.0
 47
0.0
 48
0.0
 49
0.0
140
0.0
141
0.0
142
1.0
143
1.0
 70
0
 72
1
 73
0
 74
5
  7

 75
16
 76
0
 77
2
 78
300
147
1.0
148
0.0
149
0.0
100
AcDbLayout
  1
Layout1
 70
1
 71
1
 10
0.0
 20
0.0
 11
420.0
 21
297.0
 12
0.0
 22
0.0
 32
0.0
 14
1e+20
 24
1e+20
 34
1e+20
 15
-1e+20
 25
-1e+20
 35
-1e+20
146
0.0
 13
0.0
 23
0.0
 33
0.0
 16
1.0
 26
0.0
 36
0.0
 17
0.0
 27
1.0
 37
0.0
 76
1
330
1B
  0
MATERIAL
  5
1F
102
{ACAD_REACTORS
330
E
102
}
330
E
100
AcDbMaterial
  1
ByBlock
  2

 70
0
 40
1.0
 71
1
 41
1.0
 91
-1023410177
 42
1.0
 72
1
  3

 73
1
 74
1
 75
1
 44
0.5
 73
0
 45
1.0
 46
1.0
 77
1
  4

 78
1
 79
1
170
1
 48
1.0
171
1
  6

172
1
173
1
174
1
140
1.0
141
1.0
175
1
  7

176
1
177
1
178
1
143
1.0
179
1
  8

270
1
271
1
272
1
145
1.0
146
1.0
273
1
  9

274
1
275
1
276
1
 42
1.0
 72
1
  3

 73
1
 74
1
 75
1
 94
63
  0
MATERIAL
  5
20
102
{ACAD_REACTORS
330
E
102
}
330
E
100
AcDbMaterial
  1
ByLayer
  2

 70
0
 40
1.0
 71
1
 41
1.0
 91
-1023410177
 42
1.0
 72
1
  3

 73
1
 74
1
 75
1
 44
0.5
 73
0
 45
1.0
 46
1.0
 77
1
  4

 78
1
 79
1
170
1
 48
1.0
171
1
  6

172
1
173
1
174
1
140
1.0
141
1.0
175
1
  7

176
1
177
1
178
1
143
1.0
179
1
  8

270
1
271
1
272
1
145
1.0
146
1.0
273
1
  9

274
1
275
1
276
1
 42
1.0
 72
1
  3

 73
1
 74
1
 75
1
 94
63
  0
MATERIAL
  5
21
102
{ACAD_REACTORS
330
E
102
}
330
E
100
AcDbMaterial
  1
Global
  2

 70
0
 40
1.0
 71
1
 41
1.0
 91
-1023410177
 42
1.0
 72
1
  3

 73
1
 74
1
 75
1
 44
0.5
 73
0
 45
1.0
 46
1.0
 77
1
  4

 78
1
 79
1
170
1
 48
1.0
171
1
  6

172
1
173
1
174
1
140
1.0
141
1.0
175
1
  7

176
1
177
1
178
1
143
1.0
179
1
  8

270
1
271
1
272
1
145
1.0
146
1.0
273
1
  9

274
1
275
1
276
1
 42
1.0
 72
1
  3

 73
1
 74
1
 75
1
 94
63
  0
MLINESTYLE
  5
22
102
{ACAD_REACTORS
330
10
102
}
330
10
100
AcDbMlineStyle
  2
Standard
 70
0
  3

 62
256
 51
90.0
 52
90.0
 71
2
 49
0.5
 62
256
  6
BYLAYER
 49
-0.5
 62
256
  6
BYLAYER
  0
MLEADERSTYLE
  5
2C
102
{ACAD_REACTORS
330
F
102
}
330
F
100
AcDbMLeaderStyle
179
2
170
2
171
1
172
0
 90
2
 40
0.0
 41
0.0
173
1
 91
-1056964608
 92
-2
290
1
 42
2.0
291
1
 43
8.0
  3
Standard
 44
4.0
300

342
29
174
1
175
1
176
0
178
1
 93
-1056964608
 45
4.0
292
0
297
0
 46
4.0
 94
-1056964608
 47
1.0
 49
1.0
140
1.0
294
1
141
0.0
177
0
142
1.0
295
0
296
0
143
3.75
271
0
272
9
273
9
  0
DICTIONARY
  5
2D
330
A
100
AcDbDictionary
280
1
281
1
  3
CREATED_BY_EZDXF
350
2E
  3
WRITTEN_BY_EZDXF
350
EB
  0
DICTIONARYVAR
  5
2E
330
2D
100
DictionaryVariables
280
0
  1
1.4.4 @ 2026-09-10T02:54:36.815274+00:00
  0
DICTIONARYVAR
  5
EB
330
2D
100
DictionaryVariables
280
0
  1
1.4.4 @ 2026-09-10T02:54:36.875287+00:00
  0
ENDSEC
  0
EOF
