  0
SECTION
  2
HEADER
  9
$ACADVER
  1
AC1015
  9
$ACADMAINTVER
 70
6
  9
$DWGCODEPAGE
  3
ANSI_1252
  9
$INSBASE
 10
0.0
 20
0.0
 30
0.0
  9
$EXTMIN
 10
1e+20
 20
1e+20
 30
1e+20
  9
$EXTMAX
 10
-1e+20
 20
-1e+20
 30
-1e+20
  9
$LIMMIN
 10
0.0
 20
0.0
  9
$LIMMAX
 10
420.0
 20
297.0
  9
$ORTHOMODE
 70
0
  9
$REGENMODE
 70
1
  9
$FILLMODE
 70
1
  9
$QTEXTMODE
 70
0
  9
$MIRRTEXT
 70
1
  9
$LTSCALE
 40
1.0
  9
$ATTMODE
 70
1
  9
$TEXTSIZE
 40
2.5
  9
$TRACEWID
 40
1.0
  9
$TEXTSTYLE
  7
Standard
  9
$CLAYER
  8
0
  9
$CELTYPE
  6
ByLayer
  9
$CECOLOR
 62
256
  9
$CELTSCALE
 40
1.0
  9
$DISPSILH
 70
0
  9
$DIMSCALE
 40
1.0
  9
$DIMASZ
 40
2.5
  9
$DIMEXO
 40
0.625
  9
$DIMDLI
 40
3.75
  9
$DIMRND
 40
0.0
  9
$DIMDLE
 40
0.0
  9
$DIMEXE
 40
1.25
  9
$DIMTP
 40
0.0
  9
$DIMTM
 40
0.0
  9
$DIMTXT
 40
2.5
  9
$DIMCEN
 40
2.5
  9
$DIMTSZ
 40
0.0
  9
$DIMTOL
 70
0
  9
$DIMLIM
 70
0
  9
$DIMTIH
 70
0
  9
$DIMTOH
 70
0
  9
$DIMSE1
 70
0
  9
$DIMSE2
 70
0
  9
$DIMTAD
 70
1
  9
$DIMZIN
 70
8
  9
$DIMBLK
  1

  9
$DIMASO
 70
1
  9
$DIMSHO
 70
1
  9
$DIMPOST
  1

  9
$DIMAPOST
  1

  9
$DIMALT
 70
0
  9
$DIMALTD
 70
3
  9
$DIMALTF
 40
0.03937007874
  9
$DIMLFAC
 40
1.0
  9
$DIMTOFL
 70
1
  9
$DIMTVP
 40
0.0
  9
$DIMTIX
 70
0
  9
$DIMSOXD
 70
0
  9
$DIMSAH
 70
0
  9
$DIMBLK1
  1

  9
$DIMBLK2
  1

  9
$DIMSTYLE
  2
ISO-25
  9
$DIMCLRD
 70
0
  9
$DIMCLRE
 70
0
  9
$DIMCLRT
 70
0
  9
$DIMTFAC
 40
1.0
  9
$DIMGAP
 40
0.625
  9
$DIMJUST
 70
0
  9
$DIMSD1
 70
0
  9
$DIMSD2
 70
0
  9
$DIMTOLJ
 70
0
  9
$DIMTZIN
 70
8
  9
$DIMALTZ
 70
0
  9
$DIMALTTZ
 70
0
  9
$DIMUPT
 70
0
  9
$DIMDEC
 70
2
  9
$DIMTDEC
 70
2
  9
$DIMALTU
 70
2
  9
$DIMALTTD
 70
3
  9
$DIMTXSTY
  7
Standard
  9
$DIMAUNIT
 70
0
  9
$DIMADEC
 70
0
  9
$DIMALTRND
 40
0.0
  9
$DIMAZIN
 70
0
  9
$DIMDSEP
 70
44
  9
$DIMATFIT
 70
3
  9
$DIMFRAC
 70
0
  9
$DIMLDRBLK
  1

  9
$DIMLUNIT
 70
2
  9
$DIMLWD
 70
-2
  9
$DIMLWE
 70
-2
  9
$DIMTMOVE
 70
0
  9
$LUNITS
 70
2
  9
$LUPREC
 70
4
  9
$SKETCHINC
 40
1.0
  9
$FILLETRAD
 40
10.0
  9
$AUNITS
 70
0
  9
$AUPREC
 70
2
  9
$MENU
  1
.
  9
$ELEVATION
 40
0.0
  9
$PELEVATION
 40
0.0
  9
$THICKNESS
 40
0.0
  9
$LIMCHECK
 70
0
  9
$CHAMFERA
 40
0.0
  9
$CHAMFERB
 40
0.0
  9
$CHAMFERC
 40
0.0
  9
$CHAMFERD
 40
0.0
  9
$SKPOLY
 70
0
  9
$TDCREATE
 40
2461293.912916667
  9
$TDUCREATE
 40
2458532.153996898
  9
$TDUPDATE
 40
2461293.912916667
  9
$TDUUPDATE
 40
2458532.1544311
  9
$TDINDWG
 40
0.0
  9
$TDUSRTIMER
 40
0.0
  9
$USRTIMER
 70
1
  9
$ANGBASE
 50
0.0
  9
$ANGDIR
 70
0
  9
$PDMODE
 70
0
  9
$PDSIZE
 40
0.0
  9
$PLINEWID
 40
0.0
  9
$SPLFRAME
 70
0
  9
$SPLINETYPE
 70
6
  9
$SPLINESEGS
 70
8
  9
$HANDSEED
  5
92
  9
$SURFTAB1
 70
6
  9
$SURFTAB2
 70
6
  9
$SURFTYPE
 70
6
  9
$SURFU
 70
6
  9
$SURFV
 70
6
  9
$UCSBASE
  2

  9
$UCSNAME
  2

  9
$UCSORG
 10
0.0
 20
0.0
 30
0.0
  9
$UCSXDIR
 10
1.0
 20
0.0
 30
0.0
  9
$UCSYDIR
 10
0.0
 20
1.0
 30
0.0
  9
$UCSORTHOREF
  2

  9
$UCSORTHOVIEW
 70
0
  9
$UCSORGTOP
 10
0.0
 20
0.0
 30
0.0
  9
$UCSORGBOTTOM
 10
0.0
 20
0.0
 30
0.0
  9
$UCSORGLEFT
 10
0.0
 20
0.0
 30
0.0
  9
$UCSORGRIGHT
 10
0.0
 20
0.0
 30
0.0
  9
$UCSORGFRONT
 10
0.0
 20
0.0
 30
0.0
  9
$UCSORGBACK
 10
0.0
 20
0.0
 30
0.0
  9
$PUCSBASE
  2

  9
$PUCSNAME
  2

  9
$PUCSORG
 10
0.0
 20
0.0
 30
0.0
  9
$PUCSXDIR
 10
1.0
 20
0.0
 30
0.0
  9
$PUCSYDIR
 10
0.0
 20
1.0
 30
0.0
  9
$PUCSORTHOREF
  2

  9
$PUCSORTHOVIEW
 70
0
  9
$PUCSORGTOP
 10
0.0
 20
0.0
 30
0.0
  9
$PUCSORGBOTTOM
 10
0.0
 20
0.0
 30
0.0
  9
$PUCSORGLEFT
 10
0.0
 20
0.0
 30
0.0
  9
$PUCSORGRIGHT
 10
0.0
 20
0.0
 30
0.0
  9
$PUCSORGFRONT
 10
0.0
 20
0.0
 30
0.0
  9
$PUCSORGBACK
 10
0.0
 20
0.0
 30
0.0
  9
$USERI1
 70
0
  9
$USERI2
 70
0
  9
$USERI3
 70
0
  9
$USERI4
 70
0
  9
$USERI5
 70
0
  9
$USERR1
 40
0.0
  9
$USERR2
 40
0.0
  9
$USERR3
 40
0.0
  9
$USERR4
 40
0.0
  9
$USERR5
 40
0.0
  9
$WORLDVIEW
 70
1
  9
$SHADEDGE
 70
3
  9
$SHADEDIF
 70
70
  9
$TILEMODE
 70
1
  9
$MAXACTVP
 70
64
  9
$PINSBASE
 10
0.0
 20
0.0
 30
0.0
  9
$PLIMCHECK
 70
0
  9
$PEXTMIN
 10
1e+20
 20
1e+20
 30
1e+20
  9
$PEXTMAX
 10
-1e+20
 20
-1e+20
 30
-1e+20
  9
$PLIMMIN
 10
0.0
 20
0.0
  9
$PLIMMAX
 10
420.0
 20
297.0
  9
$UNITMODE
 70
0
  9
$VISRETAIN
 70
1
  9
$PLINEGEN
 70
0
  9
$PSLTSCALE
 70
1
  9
$TREEDEPTH
 70
3020
  9
$CMLSTYLE
  2
Standard
  9
$CMLJUST
 70
0
  9
$CMLSCALE
 40
20.0
  9
$PROXYGRAPHICS
 70
1
  9
$MEASUREMENT
 70
1
  9
$CELWEIGHT
370
-1
  9
$ENDCAPS
280
0
  9
$JOINSTYLE
280
0
  9
$LWDISPLAY
290
0
  9
$INSUNITS
 70
4
  9
$HYPERLINKBASE
  1

  9
$STYLESHEET
  1

  9
$XEDIT
290
1
  9
$CEPSNTYPE
380
0
  9
$PSTYLEMODE
290
1
  9
$FINGERPRINTGUID
  2
{D246C9D0-8B9C-4135-8501-DFC41B594CA4}
  9
$VERSIONGUID
  2
{EDB2AD0C-A225-40B7-A457-EB994D823742}
  9
$EXTNAMES
290
1
  9
$PSVPSCALE
 40
0.0
  9
$OLESTARTUP
290
0
  0
ENDSEC
  0
SECTION
  2
CLASSES
  0
CLASS
  1
ACDBDICTIONARYWDFLT
  2
AcDbDictionaryWithDefault
  3
ObjectDBX Classes
 90
0
280
0
281
0
  0
CLASS
  1
SUN
  2
AcDbSun
  3
SCENEOE
 90
1153
280
0
281
0
  0
CLASS
  1
VISUALSTYLE
  2
AcDbVisualStyle
  3
ObjectDBX Classes
 90
4095
280
0
281
0
  0
CLASS
  1
MATERIAL
  2
AcDbMaterial
  3
ObjectDBX Classes
 90
1153
280
0
281
0
  0
CLASS
  1
SCALE
  2
AcDbScale
  3
ObjectDBX Classes
 90
1153
280
0
281
0
  0
CLASS
  1
TABLESTYLE
  2
AcDbTableStyle
  3
ObjectDBX Classes
 90
4095
280
0
281
0
  0
CLASS
  1
MLEADERSTYLE
  2
AcDbMLeaderStyle
  3
ACDB_MLEADERSTYLE_CLASS
 90
4095
280
0
281
0
  0
CLASS
  1
DICTIONARYVAR
  2
AcDbDictionaryVar
  3
ObjectDBX Classes
 90
0
280
0
281
0
  0
CLASS
  1
CELLSTYLEMAP
  2
AcDbCellStyleMap
  3
ObjectDBX Classes
 90
1152
280
0
281
0
  0
CLASS
  1
MENTALRAYRENDERSETTINGS
  2
AcDbMentalRayRenderSettings
  3
SCENEOE
 90
1024
280
0
281
0
  0
CLASS
  1
ACDBDETAILVIEWSTYLE
  2
AcDbDetailViewStyle
  3
ObjectDBX Classes
 90
1025
280
0
281
0
  0
CLASS
  1
ACDBSECTIONVIEWSTYLE
  2
AcDbSectionViewStyle
  3
ObjectDBX Classes
 90
1025
280
0
281
0
  0
CLASS
  1
RASTERVARIABLES
  2
AcDbRasterVariables
  3
ISM
 90
0
280
0
281
0
  0
CLASS
  1
ACDBPLACEHOLDER
  2
AcDbPlaceHolder
  3
ObjectDBX Classes
 90
0
280
0
281
0
  0
CLASS
  1
LAYOUT
  2
AcDbLayout
  3
ObjectDBX Classes
 90
0
280
0
281
0
  0
ENDSEC
  0
SECTION
  2
TABLES
  0
TABLE
  2
VPORT
  5
8
330
0
100
AcDbSymbolTable
 70
1
  0
VPORT
  5
23
330
8
100
AcDbSymbolTableRecord
100
AcDbViewportTableRecord
  2
*Active
 70
0
 10
0.0
 20
0.0
 11
1.0
 21
1.0
 12
0.0
 22
0.0
 13
0.0
 23
0.0
 14
0.5
 24
0.5
 15
0.5
 25
0.5
 16
0.0
 26
0.0
 36
1.0
 17
0.0
 27
0.0
 37
0.0
 40
1000.0
 41
1.34
 42
50.0
 43
0.0
 44
0.0
 50
0.0
 51
0.0
 71
0
 72
1000
 73
1
 74
3
 75
0
 76
0
 77
0
 78
0
281
0
 65
0
146
0.0
  0
ENDTAB
  0
TABLE
  2
LTYPE
  5
2
330
0
100
AcDbSymbolTable
 70
3
  0
LTYPE
  5
24
330
2
100
AcDbSymbolTableRecord
100
AcDbLinetypeTableRecord
  2
ByBlock
 70
0
  3

 72
65
 73
0
 40
0.0
  0
LTYPE
  5
25
330
2
100
AcDbSymbolTableRecord
100
AcDbLinetypeTableRecord
  2
ByLayer
 70
0
  3

 72
65
 73
0
 40
0.0
  0
LTYPE
  5
26
330
2
100
AcDbSymbolTableRecord
100
AcDbLinetypeTableRecord
  2
Continuous
 70
0
  3

 72
65
 73
0
 40
0.0
  0
ENDTAB
  0
TABLE
  2
LAYER
  5
1
330
0
100
AcDbSymbolTable
 70
6
  0
LAYER
  5
27
330
1
100
AcDbSymbolTableRecord
100
AcDbLayerTableRecord
  2
0
 70
0
 62
7
  6
Continuous
370
-3
390
13
  0
LAYER
  5
28
330
1
100
AcDbSymbolTableRecord
100
AcDbLayerTableRecord
  2
Defpoints
 70
0
 62
7
  6
Continuous
290
0
370
-3
390
13
  0
LAYER
  5
2F
330
1
100
AcDbSymbolTableRecord
100
AcDbLayerTableRecord
  2
OUTLINE
 70
0
 62
7
  6
Continuous
370
-3
390
13
  0
LAYER
  5
30
330
1
100
AcDbSymbolTableRecord
100
AcDbLayerTableRecord
  2
HIDDEN
 70
0
 62
8
  6
Continuous
370
-3
390
13
  0
LAYER
  5
31
330
1
100
AcDbSymbolTableRecord
100
AcDbLayerTableRecord
  2
DIM
 70
0
 62
4
  6
Continuous
370
-3
390
13
  0
LAYER
  5
32
330
1
100
AcDbSymbolTableRecord
100
AcDbLayerTableRecord
  2
TEXT
 70
0
 62
7
  6
Continuous
370
-3
390
13
  0
ENDTAB
  0
TABLE
  2
STYLE
  5
5
330
0
100
AcDbSymbolTable
 70
1
  0
STYLE
  5
29
330
5
100
AcDbSymbolTableRecord
100
AcDbTextStyleTableRecord
  2
Standard
 70
0
 40
0.0
 41
1.0
 50
0.0
 71
0
 42
2.5
  3
txt
  4

  0
ENDTAB
  0
TABLE
  2
VIEW
  5
7
330
0
100
AcDbSymbolTable
 70
0
  0
ENDTAB
  0
TABLE
  2
UCS
  5
6
330
0
100
AcDbSymbolTable
 70
0
  0
ENDTAB
  0
TABLE
  2
APPID
  5
3
330
0
100
AcDbSymbolTable
 70
3
  0
APPID
  5
2A
330
3
100
AcDbSymbolTableRecord
100
AcDbRegAppTableRecord
  2
ACAD
 70
0
  0
APPID
  5
8F
330
3
100
AcDbSymbolTableRecord
100
AcDbRegAppTableRecord
  2
HATCHBACKGROUNDCOLOR
 70
0
  0
APPID
  5
90
330
3
100
AcDbSymbolTableRecord
100
AcDbRegAppTableRecord
  2
EZDXF
 70
0
  0
ENDTAB
  0
TABLE
  2
DIMSTYLE
  5
4
330
0
100
AcDbSymbolTable
 70
1
100
AcDbDimStyleTable
  0
DIMSTYLE
105
2B
330
4
100
AcDbSymbolTableRecord
100
AcDbDimStyleTableRecord
  2
Standard
 70
0
  3

  4

 40
1.0
 41
2.5
 42
0.625
 43
3.75
 44
1.25
 45
0.0
 46
0.0
 47
0.0
 48
0.0
140
2.5
141
2.5
142
0.0
143
0.03937007874
144
1.0
145
0.0
146
1.0
147
0.625
148
0.0
 71
0
 72
0
 73
0
 74
0
 75
0
 76
0
 77
1
 78
8
 79
3
170
0
171
3
172
1
173
0
174
0
175
0
176
0
177
0
178
0
179
2
271
2
272
2
273
2
274
3
275
0
276
0
277
2
278
44
279
0
280
0
281
0
282
0
283
0
284
8
285
0
286
0
288
0
289
3
371
-2
372
-2
  0
ENDTAB
  0
TABLE
  2
BLOCK_RECORD
  5
9
330
0
100
AcDbSymbolTable
 70
2
  0
BLOCK_RECORD
  5
17
330
9
100
AcDbSymbolTableRecord
100
AcDbBlockTableRecord
  2
*Model_Space
340
1A
  0
BLOCK_RECORD
  5
1B
330
9
100
AcDbSymbolTableRecord
100
AcDbBlockTableRecord
  2
*Paper_Space
340
1E
  0
ENDTAB
  0
ENDSEC
  0
SECTION
  2
BLOCKS
  0
BLOCK
  5
18
330
17
100
AcDbEntity
  8
0
100
AcDbBlockBegin
  2
*Model_Space
 70
0
 10
0.0
 20
0.0
 30
0.0
  3
*Model_Space
  1

  0
ENDBLK
  5
19
330
17
100
AcDbEntity
  8
0
100
AcDbBlockEnd
  0
BLOCK
  5
1C
330
1B
100
AcDbEntity
  8
0
100
AcDbBlockBegin
  2
*Paper_Space
 70
0
 10
0.0
 20
0.0
 30
0.0
  3
*Paper_Space
  1

  0
ENDBLK
  5
1D
330
1B
100
AcDbEntity
  8
0
100
AcDbBlockEnd
  0
ENDSEC
  0
SECTION
  2
ENTITIES
  0
LWPOLYLINE
  5
33
330
17
100
AcDbEntity
  8
OUTLINE
100
AcDbPolyline
 90
5
 70
0
 10
8.0
 20
8.0
 10
412.0
 20
8.0
 10
412.0
 20
289.0
 10
8.0
 20
289.0
 10
8.0
 20
8.0
  0
TEXT
  5
34
330
17
100
AcDbEntity
  8
TEXT
100
AcDbText
 10
15.0
 20
278.0
 30
0.0
 40
5.0
  1
P07  |  P07 TPU RETURN BAND
100
AcDbText
  0
TEXT
  5
35
330
17
100
AcDbEntity
  8
TEXT
100
AcDbText
 10
15.0
 20
270.0
 30
0.0
 40
2.6
  1
Prototype Rev A | Units mm | Dimensions control; do not scale printed pages
100
AcDbText
  0
LWPOLYLINE
  5
36
330
17
100
AcDbEntity
  8
OUTLINE
100
AcDbPolyline
 90
2
 70
0
 10
8.0
 20
32.0
 10
412.0
 20
32.0
  0
TEXT
  5
37
330
17
100
AcDbEntity
  8
TEXT
100
AcDbText
 10
15.0
 20
22.0
 30
0.0
 40
3.0
  1
HF-01  /  MAGNET-SENSOR CHARACTERIZATION
100
AcDbText
  0
TEXT
  5
38
330
17
100
AcDbEntity
  8
TEXT
100
AcDbText
 10
15.0
 20
15.0
 30
0.0
 40
2.4
  1
REV A  |  2026-09-09  |  Printed parts + McMaster COTS  |  Room-temperature bench prototype
100
AcDbText
  0
TEXT
  5
39
330
17
100
AcDbEntity
  8
TEXT
100
AcDbText
 10
332.0
 20
20.0
 30
0.0
 40
3.0
  1
P07  |  A3  |  MM
100
AcDbText
  0
LWPOLYLINE
  5
3A
330
17
100
AcDbEntity
  8
HIDDEN
100
AcDbPolyline
 90
2
 70
0
 10
44.368421052631575
 20
232.3684210526316
 10
169.63157894736844
 20
232.3684210526316
  0
LWPOLYLINE
  5
3B
330
17
100
AcDbEntity
  8
HIDDEN
100
AcDbPolyline
 90
19
 70
0
 10
44.368421052631575
 20
187.6315789473684
 10
40.48418549955551
 20
187.97140552472692
 10
36.717970478241625
 20
188.98055979820995
 10
33.18421052631578
 20
190.6283791258744
 10
29.990277151748472
 20
192.86479535128603
 10
27.233216403917595
 20
195.62185609911688
 10
24.99680017850598
 20
198.81578947368422
 10
23.348980850841528
 20
202.34954942561004
 10
22.339826577358494
 20
206.11576444692392
 10
22.0
 20
210.0
 10
22.339826577358494
 20
213.88423555307608
 10
23.348980850841528
 20
217.65045057438996
 10
24.996800178505964
 20
221.18421052631578
 10
27.233216403917595
 20
224.37814390088312
 10
29.990277151748458
 20
227.13520464871397
 10
33.184210526315766
 20
229.3716208741256
 10
36.7179704782416
 20
231.01944020179005
 10
40.48418549955548
 20
232.02859447527308
 10
44.36842105263155
 20
232.3684210526316
  0
LWPOLYLINE
  5
3C
330
17
100
AcDbEntity
  8
HIDDEN
100
AcDbPolyline
 90
19
 70
0
 10
169.63157894736844
 20
232.3684210526316
 10
173.5158145004445
 20
232.02859447527308
 10
177.28202952175837
 20
231.01944020179005
 10
180.81578947368422
 20
229.3716208741256
 10
184.00972284825153
 20
227.13520464871397
 10
186.7667835960824
 20
224.37814390088312
 10
189.00319982149404
 20
221.18421052631578
 10
190.65101914915846
 20
217.65045057438996
 10
191.6601734226415
 20
213.88423555307608
 10
192.0
 20
210.0
 10
191.6601734226415
 20
206.11576444692392
 10
190.65101914915846
 20
202.34954942561004
 10
189.00319982149404
 20
198.81578947368422
 10
186.7667835960824
 20
195.62185609911688
 10
184.00972284825156
 20
192.86479535128603
 10
180.81578947368422
 20
190.6283791258744
 10
177.2820295217584
 20
188.98055979820995
 10
173.51581450044452
 20
187.97140552472692
 10
169.63157894736844
 20
187.6315789473684
  0
LWPOLYLINE
  5
3D
330
17
100
AcDbEntity
  8
HIDDEN
100
AcDbPolyline
 90
2
 70
0
 10
169.63157894736844
 20
187.6315789473684
 10
44.368421052631575
 20
187.6315789473684
  0
LWPOLYLINE
  5
3E
330
17
100
AcDbEntity
  8
HIDDEN
100
AcDbPolyline
 90
2
 70
0
 10
44.368421052631575
 20
228.78947368421052
 10
169.63157894736844
 20
228.78947368421052
  0
LWPOLYLINE
  5
3F
330
17
100
AcDbEntity
  8
HIDDEN
100
AcDbPolyline
 90
18
 70
0
 10
169.63157894736844
 20
228.78947368421052
 10
173.08413567686927
 20
228.46954718879752
 10
176.4191197278323
 20
227.52066241565026
 10
179.52296221827453
 20
225.97513249765643
 10
182.28996551483266
 20
223.88558860251447
 10
184.62590263889712
 20
221.32318764144182
 10
186.45122605335564
 20
218.37518910590654
 10
187.70377655856296
 20
215.14198355030177
 10
188.34090004933302
 20
211.733673912021
 10
188.34090004933302
 20
208.26632608797902
 10
187.70377655856296
 20
204.85801644969825
 10
186.45122605335564
 20
201.62481089409349
 10
184.62590263889712
 20
198.67681235855818
 10
182.2899655148327
 20
196.11441139748553
 10
179.52296221827453
 20
194.02486750234357
 10
176.4191197278323
 20
192.47933758434974
 10
173.08413567686927
 20
191.53045281120248
 10
169.63157894736844
 20
191.21052631578948
  0
LWPOLYLINE
  5
40
330
17
100
AcDbEntity
  8
HIDDEN
100
AcDbPolyline
 90
2
 70
0
 10
169.63157894736844
 20
191.21052631578948
 10
44.368421052631575
 20
191.21052631578948
  0
LWPOLYLINE
  5
41
330
17
100
AcDbEntity
  8
HIDDEN
100
AcDbPolyline
 90
18
 70
0
 10
44.368421052631575
 20
191.21052631578948
 10
40.91586432313075
 20
191.53045281120248
 10
37.580880272167704
 20
192.47933758434974
 10
34.47703778172547
 20
194.02486750234357
 10
31.710034485167327
 20
196.11441139748553
 10
29.37409736110287
 20
198.67681235855818
 10
27.54877394664436
 20
201.62481089409346
 10
26.296223441437036
 20
204.85801644969823
 10
25.659099950666985
 20
208.266326087979
 10
25.659099950666985
 20
211.73367391202098
 10
26.296223441437036
 20
215.14198355030175
 10
27.548773946644346
 20
218.37518910590651
 10
29.37409736110287
 20
221.32318764144182
 10
31.710034485167313
 20
223.88558860251447
 10
34.47703778172547
 20
225.97513249765643
 10
37.58088027216769
 20
227.52066241565026
 10
40.915864323130734
 20
228.46954718879752
 10
44.36842105263156
 20
228.78947368421052
  0
LWPOLYLINE
  5
42
330
17
100
AcDbEntity
  8
OUTLINE
100
AcDbPolyline
 90
2
 70
0
 10
44.368421052631575
 20
232.3684210526316
 10
169.63157894736844
 20
232.3684210526316
  0
LWPOLYLINE
  5
43
330
17
100
AcDbEntity
  8
OUTLINE
100
AcDbPolyline
 90
19
 70
0
 10
44.368421052631575
 20
187.6315789473684
 10
40.48418549955551
 20
187.97140552472692
 10
36.717970478241625
 20
188.98055979820995
 10
33.18421052631578
 20
190.6283791258744
 10
29.990277151748472
 20
192.86479535128603
 10
27.233216403917595
 20
195.62185609911688
 10
24.99680017850598
 20
198.81578947368422
 10
23.348980850841528
 20
202.34954942561004
 10
22.339826577358494
 20
206.11576444692392
 10
22.0
 20
210.0
 10
22.339826577358494
 20
213.88423555307608
 10
23.348980850841528
 20
217.65045057438996
 10
24.996800178505964
 20
221.18421052631578
 10
27.233216403917595
 20
224.37814390088312
 10
29.990277151748458
 20
227.13520464871397
 10
33.184210526315766
 20
229.3716208741256
 10
36.7179704782416
 20
231.01944020179005
 10
40.48418549955548
 20
232.02859447527308
 10
44.36842105263155
 20
232.3684210526316
  0
LWPOLYLINE
  5
44
330
17
100
AcDbEntity
  8
OUTLINE
100
AcDbPolyline
 90
19
 70
0
 10
169.63157894736844
 20
232.3684210526316
 10
173.5158145004445
 20
232.02859447527308
 10
177.28202952175837
 20
231.01944020179005
 10
180.81578947368422
 20
229.3716208741256
 10
184.00972284825153
 20
227.13520464871397
 10
186.7667835960824
 20
224.37814390088312
 10
189.00319982149404
 20
221.18421052631578
 10
190.65101914915846
 20
217.65045057438996
 10
191.6601734226415
 20
213.88423555307608
 10
192.0
 20
210.0
 10
191.6601734226415
 20
206.11576444692392
 10
190.65101914915846
 20
202.34954942561004
 10
189.00319982149404
 20
198.81578947368422
 10
186.7667835960824
 20
195.62185609911688
 10
184.00972284825156
 20
192.86479535128603
 10
180.81578947368422
 20
190.6283791258744
 10
177.2820295217584
 20
188.98055979820995
 10
173.51581450044452
 20
187.97140552472692
 10
169.63157894736844
 20
187.6315789473684
  0
LWPOLYLINE
  5
45
330
17
100
AcDbEntity
  8
OUTLINE
100
AcDbPolyline
 90
2
 70
0
 10
169.63157894736844
 20
187.6315789473684
 10
44.368421052631575
 20
187.6315789473684
  0
LWPOLYLINE
  5
46
330
17
100
AcDbEntity
  8
OUTLINE
100
AcDbPolyline
 90
2
 70
0
 10
44.368421052631575
 20
228.78947368421052
 10
169.63157894736844
 20
228.78947368421052
  0
LWPOLYLINE
  5
47
330
17
100
AcDbEntity
  8
OUTLINE
100
AcDbPolyline
 90
18
 70
0
 10
169.63157894736844
 20
228.78947368421052
 10
173.08413567686927
 20
228.46954718879752
 10
176.4191197278323
 20
227.52066241565026
 10
179.52296221827453
 20
225.97513249765643
 10
182.28996551483266
 20
223.88558860251447
 10
184.62590263889712
 20
221.32318764144182
 10
186.45122605335564
 20
218.37518910590654
 10
187.70377655856296
 20
215.14198355030177
 10
188.34090004933302
 20
211.733673912021
 10
188.34090004933302
 20
208.26632608797902
 10
187.70377655856296
 20
204.85801644969825
 10
186.45122605335564
 20
201.62481089409349
 10
184.62590263889712
 20
198.67681235855818
 10
182.2899655148327
 20
196.11441139748553
 10
179.52296221827453
 20
194.02486750234357
 10
176.4191197278323
 20
192.47933758434974
 10
173.08413567686927
 20
191.53045281120248
 10
169.63157894736844
 20
191.21052631578948
  0
LWPOLYLINE
  5
48
330
17
100
AcDbEntity
  8
OUTLINE
100
AcDbPolyline
 90
2
 70
0
 10
169.63157894736844
 20
191.21052631578948
 10
44.368421052631575
 20
191.21052631578948
  0
LWPOLYLINE
  5
49
330
17
100
AcDbEntity
  8
OUTLINE
100
AcDbPolyline
 90
18
 70
0
 10
44.368421052631575
 20
191.21052631578948
 10
40.91586432313075
 20
191.53045281120248
 10
37.580880272167704
 20
192.47933758434974
 10
34.47703778172547
 20
194.02486750234357
 10
31.710034485167327
 20
196.11441139748553
 10
29.37409736110287
 20
198.67681235855818
 10
27.54877394664436
 20
201.62481089409346
 10
26.296223441437036
 20
204.85801644969823
 10
25.659099950666985
 20
208.266326087979
 10
25.659099950666985
 20
211.73367391202098
 10
26.296223441437036
 20
215.14198355030175
 10
27.548773946644346
 20
218.37518910590651
 10
29.37409736110287
 20
221.32318764144182
 10
31.710034485167313
 20
223.88558860251447
 10
34.47703778172547
 20
225.97513249765643
 10
37.58088027216769
 20
227.52066241565026
 10
40.915864323130734
 20
228.46954718879752
 10
44.36842105263156
 20
228.78947368421052
  0
TEXT
  5
4A
330
17
100
AcDbEntity
  8
TEXT
100
AcDbText
 10
22.0
 20
165.0
 30
0.0
 40
2.6
  1
TOP  (view scale 4.47:1)
100
AcDbText
  0
LWPOLYLINE
  5
4B
330
17
100
AcDbEntity
  8
HIDDEN
100
AcDbPolyline
 90
2
 70
0
 10
44.368421052631575
 20
98.21052631578948
 10
169.63157894736844
 20
98.21052631578948
  0
LWPOLYLINE
  5
4C
330
17
100
AcDbEntity
  8
HIDDEN
100
AcDbPolyline
 90
2
 70
0
 10
44.368421052631575
 20
101.78947368421053
 10
169.63157894736844
 20
101.78947368421053
  0
LWPOLYLINE
  5
4D
330
17
100
AcDbEntity
  8
HIDDEN
100
AcDbPolyline
 90
15
 70
0
 10
22.0
 20
98.21052631578948
 10
22.140647936598512
 20
98.21052631578948
 10
22.560823016985523
 20
98.21052631578948
 10
23.25524129573388
 20
98.21052631578948
 10
24.215170060077455
 20
98.21052631578948
 10
25.428537648841
 20
98.21052631578948
 10
26.88008526058354
 20
98.21052631578948
 10
28.551558841879853
 20
98.21052631578948
 10
30.42193864263359
 20
98.21052631578948
 10
32.46770355163062
 20
98.21052631578948
 10
34.66312688815988
 20
98.21052631578948
 10
36.9805999299502
 20
98.21052631578948
 10
39.39097910887192
 20
98.21052631578948
 10
41.863952508215476
 20
98.21052631578948
 10
44.36842105263148
 20
98.21052631578948
  0
LWPOLYLINE
  5
4E
330
17
100
AcDbEntity
  8
HIDDEN
100
AcDbPolyline
 90
15
 70
0
 10
22.0
 20
101.78947368421053
 10
22.140647936598512
 20
101.78947368421053
 10
22.560823016985523
 20
101.78947368421053
 10
23.25524129573388
 20
101.78947368421053
 10
24.215170060077455
 20
101.78947368421053
 10
25.428537648841
 20
101.78947368421053
 10
26.88008526058354
 20
101.78947368421053
 10
28.551558841879853
 20
101.78947368421053
 10
30.42193864263359
 20
101.78947368421053
 10
32.46770355163062
 20
101.78947368421053
 10
34.66312688815988
 20
101.78947368421053
 10
36.9805999299502
 20
101.78947368421053
 10
39.39097910887192
 20
101.78947368421053
 10
41.863952508215476
 20
101.78947368421053
 10
44.36842105263148
 20
101.78947368421053
  0
LWPOLYLINE
  5
4F
330
17
100
AcDbEntity
  8
HIDDEN
100
AcDbPolyline
 90
15
 70
0
 10
169.63157894736844
 20
98.21052631578948
 10
172.13604749178452
 20
98.21052631578948
 10
174.60902089112807
 20
98.21052631578948
 10
177.0194000700498
 20
98.21052631578948
 10
179.33687311184013
 20
98.21052631578948
 10
181.53229644836938
 20
98.21052631578948
 10
183.5780613573664
 20
98.21052631578948
 10
185.44844115812015
 20
98.21052631578948
 10
187.11991473941646
 20
98.21052631578948
 10
188.57146235115897
 20
98.21052631578948
 10
189.78482993992253
 20
98.21052631578948
 10
190.74475870426613
 20
98.21052631578948
 10
191.43917698301448
 20
98.21052631578948
 10
191.8593520634015
 20
98.21052631578948
 10
192.0
 20
98.21052631578948
  0
LWPOLYLINE
  5
50
330
17
100
AcDbEntity
  8
HIDDEN
100
AcDbPolyline
 90
15
 70
0
 10
169.63157894736844
 20
101.78947368421053
 10
172.13604749178452
 20
101.78947368421053
 10
174.60902089112807
 20
101.78947368421053
 10
177.0194000700498
 20
101.78947368421053
 10
179.33687311184013
 20
101.78947368421053
 10
181.53229644836938
 20
101.78947368421053
 10
183.5780613573664
 20
101.78947368421053
 10
185.44844115812015
 20
101.78947368421053
 10
187.11991473941646
 20
101.78947368421053
 10
188.57146235115897
 20
101.78947368421053
 10
189.78482993992253
 20
101.78947368421053
 10
190.74475870426613
 20
101.78947368421053
 10
191.43917698301448
 20
101.78947368421053
 10
191.8593520634015
 20
101.78947368421053
 10
192.0
 20
101.78947368421053
  0
LWPOLYLINE
  5
51
330
17
100
AcDbEntity
  8
HIDDEN
100
AcDbPolyline
 90
2
 70
0
 10
44.368421052631575
 20
98.21052631578948
 10
169.63157894736844
 20
98.21052631578948
  0
LWPOLYLINE
  5
52
330
17
100
AcDbEntity
  8
HIDDEN
100
AcDbPolyline
 90
15
 70
0
 10
169.63157894736844
 20
98.21052631578948
 10
171.73533252467794
 20
98.21052631578948
 10
173.81263018012655
 20
98.21052631578948
 10
175.83734869042075
 20
98.21052631578948
 10
177.78402604552463
 20
98.21052631578948
 10
179.6281816482092
 20
98.21052631578948
 10
181.34662417176673
 20
98.21052631578948
 10
182.91774320439987
 20
98.21052631578948
 10
184.32178101268875
 20
98.21052631578948
 10
185.54108100655247
 20
98.21052631578948
 10
186.56030978111386
 20
98.21052631578948
 10
187.36664994316249
 20
98.21052631578948
 10
187.94996129731112
 20
98.21052631578948
 10
188.30290836483618
 20
98.21052631578948
 10
188.42105263157896
 20
98.21052631578948
  0
LWPOLYLINE
  5
53
330
17
100
AcDbEntity
  8
HIDDEN
100
AcDbPolyline
 90
15
 70
0
 10
188.42105263157896
 20
98.21052631578948
 10
188.30290836483618
 20
98.21052631578948
 10
187.94996129731112
 20
98.21052631578948
 10
187.36664994316249
 20
98.21052631578948
 10
186.56030978111386
 20
98.21052631578948
 10
185.54108100655247
 20
98.21052631578948
 10
184.32178101268877
 20
98.21052631578948
 10
182.91774320439987
 20
98.21052631578948
 10
181.34662417176673
 20
98.21052631578948
 10
179.6281816482092
 20
98.21052631578948
 10
177.78402604552463
 20
98.21052631578948
 10
175.83734869042075
 20
98.21052631578948
 10
173.81263018012655
 20
98.21052631578948
 10
171.73533252467794
 20
98.21052631578948
 10
169.6315789473685
 20
98.21052631578948
  0
LWPOLYLINE
  5
54
330
17
100
AcDbEntity
  8
HIDDEN
100
AcDbPolyline
 90
2
 70
0
 10
169.63157894736844
 20
98.21052631578948
 10
44.368421052631575
 20
98.21052631578948
  0
LWPOLYLINE
  5
55
330
17
100
AcDbEntity
  8
HIDDEN
100
AcDbPolyline
 90
15
 70
0
 10
44.368421052631575
 20
98.21052631578948
 10
42.26466747532206
 20
98.21052631578948
 10
40.18736981987345
 20
98.21052631578948
 10
38.16265130957923
 20
98.21052631578948
 10
36.21597395447536
 20
98.21052631578948
 10
34.37181835179079
 20
98.21052631578948
 10
32.653375828233266
 20
98.21052631578948
 10
31.08225679560013
 20
98.21052631578948
 10
29.67821898731124
 20
98.21052631578948
 10
28.45891899344751
 20
98.21052631578948
 10
27.439690218886128
 20
98.21052631578948
 10
26.633350056837514
 20
98.21052631578948
 10
26.050038702688894
 20
98.21052631578948
 10
25.6970916351638
 20
98.21052631578948
 10
25.578947368421055
 20
98.21052631578948
  0
LWPOLYLINE
  5
56
330
17
100
AcDbEntity
  8
HIDDEN
100
AcDbPolyline
 90
15
 70
0
 10
25.578947368421055
 20
98.21052631578948
 10
25.6970916351638
 20
98.21052631578948
 10
26.050038702688894
 20
98.21052631578948
 10
26.633350056837514
 20
98.21052631578948
 10
27.439690218886128
 20
98.21052631578948
 10
28.45891899344751
 20
98.21052631578948
 10
29.678218987311226
 20
98.21052631578948
 10
31.08225679560013
 20
98.21052631578948
 10
32.653375828233266
 20
98.21052631578948
 10
34.37181835179079
 20
98.21052631578948
 10
36.21597395447536
 20
98.21052631578948
 10
38.16265130957923
 20
98.21052631578948
 10
40.18736981987345
 20
98.21052631578948
 10
42.26466747532206
 20
98.21052631578948
 10
44.3684210526315
 20
98.21052631578948
  0
LWPOLYLINE
  5
57
330
17
100
AcDbEntity
  8
HIDDEN
100
AcDbPolyline
 90
2
 70
0
 10
44.368421052631575
 20
101.78947368421053
 10
169.63157894736844
 20
101.78947368421053
  0
LWPOLYLINE
  5
58
330
17
100
AcDbEntity
  8
HIDDEN
100
AcDbPolyline
 90
15
 70
0
 10
169.63157894736844
 20
101.78947368421053
 10
171.73533252467794
 20
101.78947368421053
 10
173.81263018012655
 20
101.78947368421053
 10
175.83734869042075
 20
101.78947368421053
 10
177.78402604552463
 20
101.78947368421053
 10
179.6281816482092
 20
101.78947368421053
 10
181.34662417176673
 20
101.78947368421053
 10
182.91774320439987
 20
101.78947368421053
 10
184.32178101268875
 20
101.78947368421053
 10
185.54108100655247
 20
101.78947368421053
 10
186.56030978111386
 20
101.78947368421053
 10
187.36664994316249
 20
101.78947368421053
 10
187.94996129731112
 20
101.78947368421053
 10
188.30290836483618
 20
101.78947368421053
 10
188.42105263157896
 20
101.78947368421053
  0
LWPOLYLINE
  5
59
330
17
100
AcDbEntity
  8
HIDDEN
100
AcDbPolyline
 90
15
 70
0
 10
188.42105263157896
 20
101.78947368421053
 10
188.30290836483618
 20
101.78947368421053
 10
187.94996129731112
 20
101.78947368421053
 10
187.36664994316249
 20
101.78947368421053
 10
186.56030978111386
 20
101.78947368421053
 10
185.54108100655247
 20
101.78947368421053
 10
184.32178101268877
 20
101.78947368421053
 10
182.91774320439987
 20
101.78947368421053
 10
181.34662417176673
 20
101.78947368421053
 10
179.6281816482092
 20
101.78947368421053
 10
177.78402604552463
 20
101.78947368421053
 10
175.83734869042075
 20
101.78947368421053
 10
173.81263018012655
 20
101.78947368421053
 10
171.73533252467794
 20
101.78947368421053
 10
169.6315789473685
 20
101.78947368421053
  0
LWPOLYLINE
  5
5A
330
17
100
AcDbEntity
  8
HIDDEN
100
AcDbPolyline
 90
2
 70
0
 10
169.63157894736844
 20
101.78947368421053
 10
44.368421052631575
 20
101.78947368421053
  0
LWPOLYLINE
  5
5B
330
17
100
AcDbEntity
  8
HIDDEN
100
AcDbPolyline
 90
15
 70
0
 10
44.368421052631575
 20
101.78947368421053
 10
42.26466747532206
 20
101.78947368421053
 10
40.18736981987345
 20
101.78947368421053
 10
38.16265130957923
 20
101.78947368421053
 10
36.21597395447536
 20
101.78947368421053
 10
34.37181835179079
 20
101.78947368421053
 10
32.653375828233266
 20
101.78947368421053
 10
31.08225679560013
 20
101.78947368421053
 10
29.67821898731124
 20
101.78947368421053
 10
28.45891899344751
 20
101.78947368421053
 10
27.439690218886128
 20
101.78947368421053
 10
26.633350056837514
 20
101.78947368421053
 10
26.050038702688894
 20
101.78947368421053
 10
25.6970916351638
 20
101.78947368421053
 10
25.578947368421055
 20
101.78947368421053
  0
LWPOLYLINE
  5
5C
330
17
100
AcDbEntity
  8
HIDDEN
100
AcDbPolyline
 90
15
 70
0
 10
25.578947368421055
 20
101.78947368421053
 10
25.6970916351638
 20
101.78947368421053
 10
26.050038702688894
 20
101.78947368421053
 10
26.633350056837514
 20
101.78947368421053
 10
27.439690218886128
 20
101.78947368421053
 10
28.45891899344751
 20
101.78947368421053
 10
29.678218987311226
 20
101.78947368421053
 10
31.08225679560013
 20
101.78947368421053
 10
32.653375828233266
 20
101.78947368421053
 10
34.37181835179079
 20
101.78947368421053
 10
36.21597395447536
 20
101.78947368421053
 10
38.16265130957923
 20
101.78947368421053
 10
40.18736981987345
 20
101.78947368421053
 10
42.26466747532206
 20
101.78947368421053
 10
44.3684210526315
 20
101.78947368421053
  0
LWPOLYLINE
  5
5D
330
17
100
AcDbEntity
  8
HIDDEN
100
AcDbPolyline
 90
2
 70
0
 10
188.42105263157896
 20
101.78947368421053
 10
188.42105263157896
 20
98.21052631578948
  0
LWPOLYLINE
  5
5E
330
17
100
AcDbEntity
  8
HIDDEN
100
AcDbPolyline
 90
2
 70
0
 10
25.578947368421055
 20
101.78947368421053
 10
25.578947368421055
 20
98.21052631578948
  0
LWPOLYLINE
  5
5F
330
17
100
AcDbEntity
  8
OUTLINE
100
AcDbPolyline
 90
15
 70
0
 10
44.368421052631575
 20
98.21052631578948
 10
41.863952508215476
 20
98.21052631578948
 10
39.39097910887192
 20
98.21052631578948
 10
36.9805999299502
 20
98.21052631578948
 10
34.66312688815988
 20
98.21052631578948
 10
32.46770355163062
 20
98.21052631578948
 10
30.42193864263359
 20
98.21052631578948
 10
28.551558841879853
 20
98.21052631578948
 10
26.88008526058354
 20
98.21052631578948
 10
25.428537648841015
 20
98.21052631578948
 10
24.215170060077455
 20
98.21052631578948
 10
23.25524129573388
 20
98.21052631578948
 10
22.560823016985523
 20
98.21052631578948
 10
22.140647936598512
 20
98.21052631578948
 10
22.0
 20
98.21052631578948
  0
LWPOLYLINE
  5
60
330
17
100
AcDbEntity
  8
OUTLINE
100
AcDbPolyline
 90
15
 70
0
 10
44.368421052631575
 20
101.78947368421053
 10
41.863952508215476
 20
101.78947368421053
 10
39.39097910887192
 20
101.78947368421053
 10
36.9805999299502
 20
101.78947368421053
 10
34.66312688815988
 20
101.78947368421053
 10
32.46770355163062
 20
101.78947368421053
 10
30.42193864263359
 20
101.78947368421053
 10
28.551558841879853
 20
101.78947368421053
 10
26.88008526058354
 20
101.78947368421053
 10
25.428537648841015
 20
101.78947368421053
 10
24.215170060077455
 20
101.78947368421053
 10
23.25524129573388
 20
101.78947368421053
 10
22.560823016985523
 20
101.78947368421053
 10
22.140647936598512
 20
101.78947368421053
 10
22.0
 20
101.78947368421053
  0
LWPOLYLINE
  5
61
330
17
100
AcDbEntity
  8
OUTLINE
100
AcDbPolyline
 90
15
 70
0
 10
192.0
 20
98.21052631578948
 10
191.8593520634015
 20
98.21052631578948
 10
191.43917698301448
 20
98.21052631578948
 10
190.74475870426613
 20
98.21052631578948
 10
189.78482993992253
 20
98.21052631578948
 10
188.571462351159
 20
98.21052631578948
 10
187.11991473941646
 20
98.21052631578948
 10
185.44844115812015
 20
98.21052631578948
 10
183.5780613573664
 20
98.21052631578948
 10
181.53229644836938
 20
98.21052631578948
 10
179.33687311184013
 20
98.21052631578948
 10
177.0194000700498
 20
98.21052631578948
 10
174.60902089112807
 20
98.21052631578948
 10
172.13604749178452
 20
98.21052631578948
 10
169.63157894736852
 20
98.21052631578948
  0
LWPOLYLINE
  5
62
330
17
100
AcDbEntity
  8
OUTLINE
100
AcDbPolyline
 90
15
 70
0
 10
192.0
 20
101.78947368421053
 10
191.8593520634015
 20
101.78947368421053
 10
191.43917698301448
 20
101.78947368421053
 10
190.74475870426613
 20
101.78947368421053
 10
189.78482993992253
 20
101.78947368421053
 10
188.571462351159
 20
101.78947368421053
 10
187.11991473941646
 20
101.78947368421053
 10
185.44844115812015
 20
101.78947368421053
 10
183.5780613573664
 20
101.78947368421053
 10
181.53229644836938
 20
101.78947368421053
 10
179.33687311184013
 20
101.78947368421053
 10
177.0194000700498
 20
101.78947368421053
 10
174.60902089112807
 20
101.78947368421053
 10
172.13604749178452
 20
101.78947368421053
 10
169.63157894736852
 20
101.78947368421053
  0
LWPOLYLINE
  5
63
330
17
100
AcDbEntity
  8
OUTLINE
100
AcDbPolyline
 90
2
 70
0
 10
169.63157894736844
 20
98.21052631578948
 10
44.368421052631575
 20
98.21052631578948
  0
LWPOLYLINE
  5
64
330
17
100
AcDbEntity
  8
OUTLINE
100
AcDbPolyline
 90
2
 70
0
 10
169.63157894736844
 20
101.78947368421053
 10
44.368421052631575
 20
101.78947368421053
  0
LWPOLYLINE
  5
65
330
17
100
AcDbEntity
  8
OUTLINE
100
AcDbPolyline
 90
2
 70
0
 10
44.368421052631575
 20
98.21052631578948
 10
44.368421052631575
 20
101.78947368421053
  0
LWPOLYLINE
  5
66
330
17
100
AcDbEntity
  8
OUTLINE
100
AcDbPolyline
 90
2
 70
0
 10
169.63157894736844
 20
98.21052631578948
 10
169.63157894736844
 20
101.78947368421053
  0
LWPOLYLINE
  5
67
330
17
100
AcDbEntity
  8
OUTLINE
100
AcDbPolyline
 90
2
 70
0
 10
22.0
 20
101.78947368421053
 10
22.0
 20
98.21052631578948
  0
LWPOLYLINE
  5
68
330
17
100
AcDbEntity
  8
OUTLINE
100
AcDbPolyline
 90
2
 70
0
 10
192.0
 20
101.78947368421053
 10
192.0
 20
98.21052631578948
  0
TEXT
  5
69
330
17
100
AcDbEntity
  8
TEXT
100
AcDbText
 10
22.0
 20
63.0
 30
0.0
 40
2.6
  1
FRONT  (view scale 4.47:1)
100
AcDbText
  0
LWPOLYLINE
  5
6A
330
17
100
AcDbEntity
  8
HIDDEN
100
AcDbPolyline
 90
2
 70
0
 10
217.0
 20
201.7
 10
217.0
 20
215.29999999999998
  0
LWPOLYLINE
  5
6B
330
17
100
AcDbEntity
  8
HIDDEN
100
AcDbPolyline
 90
2
 70
0
 10
387.0
 20
201.7
 10
387.0
 20
215.29999999999998
  0
LWPOLYLINE
  5
6C
330
17
100
AcDbEntity
  8
HIDDEN
100
AcDbPolyline
 90
15
 70
0
 10
217.0
 20
201.7
 10
219.131127464545
 20
201.7
 10
225.4176462282944
 20
201.7
 10
235.5443239902175
 20
201.7
 10
249.00336684200767
 20
201.7
 10
265.11988217500755
 20
201.7
 10
283.0857206137133
 20
201.7
 10
302.0
 20
201.7
 10
320.91427938628675
 20
201.7
 10
338.88011782499245
 20
201.7
 10
354.99663315799233
 20
201.7
 10
368.4556760097825
 20
201.7
 10
378.5823537717056
 20
201.7
 10
384.868872535455
 20
201.7
 10
386.99999999999994
 20
201.7
  0
LWPOLYLINE
  5
6D
330
17
100
AcDbEntity
  8
HIDDEN
100
AcDbPolyline
 90
15
 70
0
 10
217.0
 20
215.29999999999998
 10
219.131127464545
 20
215.29999999999998
 10
225.4176462282944
 20
215.29999999999998
 10
235.5443239902175
 20
215.29999999999998
 10
249.00336684200767
 20
215.29999999999998
 10
265.11988217500755
 20
215.29999999999998
 10
283.0857206137133
 20
215.29999999999998
 10
302.0
 20
215.29999999999998
 10
320.91427938628675
 20
215.29999999999998
 10
338.88011782499245
 20
215.29999999999998
 10
354.99663315799233
 20
215.29999999999998
 10
368.4556760097825
 20
215.29999999999998
 10
378.5823537717056
 20
215.29999999999998
 10
384.868872535455
 20
215.29999999999998
 10
386.99999999999994
 20
215.29999999999998
  0
LWPOLYLINE
  5
6E
330
17
100
AcDbEntity
  8
HIDDEN
100
AcDbPolyline
 90
15
 70
0
 10
230.60000000000002
 20
201.7
 10
232.39014707021778
 20
201.7
 10
237.67082283176728
 20
201.7
 10
246.17723215178268
 20
201.7
 10
257.48282814728645
 20
201.7
 10
271.02070102700634
 20
201.7
 10
286.1120053155191
 20
201.7
 10
302.0
 20
201.7
 10
317.8879946844808
 20
201.7
 10
332.97929897299366
 20
201.7
 10
346.51717185271355
 20
201.7
 10
357.8227678482173
 20
201.7
 10
366.3291771682327
 20
201.7
 10
371.6098529297822
 20
201.7
 10
373.4
 20
201.7
  0
LWPOLYLINE
  5
6F
330
17
100
AcDbEntity
  8
HIDDEN
100
AcDbPolyline
 90
15
 70
0
 10
373.4
 20
201.7
 10
371.6098529297822
 20
201.7
 10
366.3291771682327
 20
201.7
 10
357.8227678482173
 20
201.7
 10
346.51717185271355
 20
201.7
 10
332.97929897299366
 20
201.7
 10
317.8879946844809
 20
201.7
 10
302.0
 20
201.7
 10
286.1120053155192
 20
201.7
 10
271.02070102700634
 20
201.7
 10
257.48282814728645
 20
201.7
 10
246.17723215178268
 20
201.7
 10
237.67082283176728
 20
201.7
 10
232.39014707021778
 20
201.7
 10
230.60000000000002
 20
201.7
  0
LWPOLYLINE
  5
70
330
17
100
AcDbEntity
  8
HIDDEN
100
AcDbPolyline
 90
15
 70
0
 10
230.60000000000002
 20
215.29999999999998
 10
232.39014707021778
 20
215.29999999999998
 10
237.67082283176728
 20
215.29999999999998
 10
246.17723215178268
 20
215.29999999999998
 10
257.48282814728645
 20
215.29999999999998
 10
271.02070102700634
 20
215.29999999999998
 10
286.1120053155191
 20
215.29999999999998
 10
302.0
 20
215.29999999999998
 10
317.8879946844808
 20
215.29999999999998
 10
332.97929897299366
 20
215.29999999999998
 10
346.51717185271355
 20
215.29999999999998
 10
357.8227678482173
 20
215.29999999999998
 10
366.3291771682327
 20
215.29999999999998
 10
371.6098529297822
 20
215.29999999999998
 10
373.4
 20
215.29999999999998
  0
LWPOLYLINE
  5
71
330
17
100
AcDbEntity
  8
HIDDEN
100
AcDbPolyline
 90
15
 70
0
 10
373.4
 20
215.29999999999998
 10
371.6098529297822
 20
215.29999999999998
 10
366.3291771682327
 20
215.29999999999998
 10
357.8227678482173
 20
215.29999999999998
 10
346.51717185271355
 20
215.29999999999998
 10
332.97929897299366
 20
215.29999999999998
 10
317.8879946844809
 20
215.29999999999998
 10
302.0
 20
215.29999999999998
 10
286.1120053155192
 20
215.29999999999998
 10
271.02070102700634
 20
215.29999999999998
 10
257.48282814728645
 20
215.29999999999998
 10
246.17723215178268
 20
215.29999999999998
 10
237.67082283176728
 20
215.29999999999998
 10
232.39014707021778
 20
215.29999999999998
 10
230.60000000000002
 20
215.29999999999998
  0
LWPOLYLINE
  5
72
330
17
100
AcDbEntity
  8
HIDDEN
100
AcDbPolyline
 90
2
 70
0
 10
230.60000000000002
 20
201.7
 10
230.60000000000002
 20
215.29999999999998
  0
LWPOLYLINE
  5
73
330
17
100
AcDbEntity
  8
HIDDEN
100
AcDbPolyline
 90
2
 70
0
 10
230.60000000000002
 20
201.7
 10
230.60000000000002
 20
215.29999999999998
  0
LWPOLYLINE
  5
74
330
17
100
AcDbEntity
  8
HIDDEN
100
AcDbPolyline
 90
2
 70
0
 10
373.4
 20
201.7
 10
373.4
 20
215.29999999999998
  0
LWPOLYLINE
  5
75
330
17
100
AcDbEntity
  8
HIDDEN
100
AcDbPolyline
 90
2
 70
0
 10
373.4
 20
201.7
 10
373.4
 20
215.29999999999998
  0
LWPOLYLINE
  5
76
330
17
100
AcDbEntity
  8
OUTLINE
100
AcDbPolyline
 90
2
 70
0
 10
217.0
 20
201.7
 10
217.0
 20
215.29999999999998
  0
LWPOLYLINE
  5
77
330
17
100
AcDbEntity
  8
OUTLINE
100
AcDbPolyline
 90
2
 70
0
 10
387.0
 20
201.7
 10
387.0
 20
215.29999999999998
  0
LWPOLYLINE
  5
78
330
17
100
AcDbEntity
  8
OUTLINE
100
AcDbPolyline
 90
15
 70
0
 10
387.0
 20
201.7
 10
384.868872535455
 20
201.7
 10
378.5823537717056
 20
201.7
 10
368.4556760097825
 20
201.7
 10
354.99663315799233
 20
201.7
 10
338.88011782499245
 20
201.7
 10
320.9142793862867
 20
201.7
 10
302.0
 20
201.7
 10
283.08572061371325
 20
201.7
 10
265.11988217500755
 20
201.7
 10
249.00336684200767
 20
201.7
 10
235.5443239902175
 20
201.7
 10
225.4176462282944
 20
201.7
 10
219.131127464545
 20
201.7
 10
217.00000000000006
 20
201.7
  0
LWPOLYLINE
  5
79
330
17
100
AcDbEntity
  8
OUTLINE
100
AcDbPolyline
 90
15
 70
0
 10
387.0
 20
215.29999999999998
 10
384.868872535455
 20
215.29999999999998
 10
378.5823537717056
 20
215.29999999999998
 10
368.4556760097825
 20
215.29999999999998
 10
354.99663315799233
 20
215.29999999999998
 10
338.88011782499245
 20
215.29999999999998
 10
320.9142793862867
 20
215.29999999999998
 10
302.0
 20
215.29999999999998
 10
283.08572061371325
 20
215.29999999999998
 10
265.11988217500755
 20
215.29999999999998
 10
249.00336684200767
 20
215.29999999999998
 10
235.5443239902175
 20
215.29999999999998
 10
225.4176462282944
 20
215.29999999999998
 10
219.131127464545
 20
215.29999999999998
 10
217.00000000000006
 20
215.29999999999998
  0
TEXT
  5
7A
330
17
100
AcDbEntity
  8
TEXT
100
AcDbText
 10
217.0
 20
163.0
 30
0.0
 40
2.6
  1
END  (view scale 17.00:1)
100
AcDbText
  0
LWPOLYLINE
  5
7B
330
17
100
AcDbEntity
  8
DIM
100
AcDbPolyline
 90
2
 70
0
 10
22.0
 20
161.0
 10
192.0
 20
161.0
  0
LWPOLYLINE
  5
7C
330
17
100
AcDbEntity
  8
DIM
100
AcDbPolyline
 90
2
 70
0
 10
21.0
 20
160.0
 10
23.0
 20
162.0
  0
LWPOLYLINE
  5
7D
330
17
100
AcDbEntity
  8
DIM
100
AcDbPolyline
 90
2
 70
0
 10
191.0
 20
160.0
 10
193.0
 20
162.0
  0
TEXT
  5
7E
330
17
100
AcDbEntity
  8
DIM
100
AcDbText
 10
100.7
 20
163.0
 30
0.0
 40
2.8
  1
38.0000 X
100
AcDbText
  0
LWPOLYLINE
  5
7F
330
17
100
AcDbEntity
  8
DIM
100
AcDbPolyline
 90
2
 70
0
 10
202.0
 20
187.6315789473684
 10
202.0
 20
232.3684210526316
  0
LWPOLYLINE
  5
80
330
17
100
AcDbEntity
  8
DIM
100
AcDbPolyline
 90
2
 70
0
 10
201.0
 20
186.6315789473684
 10
203.0
 20
188.6315789473684
  0
LWPOLYLINE
  5
81
330
17
100
AcDbEntity
  8
DIM
100
AcDbPolyline
 90
2
 70
0
 10
201.0
 20
231.3684210526316
 10
203.0
 20
233.3684210526316
  0
TEXT
  5
82
330
17
100
AcDbEntity
  8
DIM
100
AcDbText
 10
204.0
 20
210.0
 30
0.0
 40
2.8
  1
10.00 Y
100
AcDbText
  0
LWPOLYLINE
  5
83
330
17
100
AcDbEntity
  8
DIM
100
AcDbPolyline
 90
2
 70
0
 10
202.0
 20
98.21052631578948
 10
202.0
 20
101.78947368421053
  0
LWPOLYLINE
  5
84
330
17
100
AcDbEntity
  8
DIM
100
AcDbPolyline
 90
2
 70
0
 10
201.0
 20
97.21052631578948
 10
203.0
 20
99.21052631578948
  0
LWPOLYLINE
  5
85
330
17
100
AcDbEntity
  8
DIM
100
AcDbPolyline
 90
2
 70
0
 10
201.0
 20
100.78947368421053
 10
203.0
 20
102.78947368421053
  0
TEXT
  5
86
330
17
100
AcDbEntity
  8
DIM
100
AcDbText
 10
204.0
 20
100.0
 30
0.0
 40
2.8
  1
0.80 Z
100
AcDbText
  0
TEXT
  5
87
330
17
100
AcDbEntity
  8
TEXT
100
AcDbText
 10
218.0
 20
128.0
 30
0.0
 40
2.8
  1
OPTION: TPU95A; flat print,0.80 total thickness.
100
AcDbText
  0
TEXT
  5
88
330
17
100
AcDbEntity
  8
TEXT
100
AcDbText
 10
218.0
 20
117.0
 30
0.0
 40
2.8
  1
Outer capsule38 x10; inner36.40 x8.40.
100
AcDbText
  0
TEXT
  5
89
330
17
100
AcDbEntity
  8
TEXT
100
AcDbText
 10
218.0
 20
106.0
 30
0.0
 40
2.8
  1
0.80 nominal wall. Ends stretch over printed rear posts.
100
AcDbText
  0
TEXT
  5
8A
330
17
100
AcDbEntity
  8
TEXT
100
AcDbText
 10
218.0
 20
95.0
 30
0.0
 40
2.8
  1
Maintain light contact with micrometer, avoid high preload.
100
AcDbText
  0
TEXT
  5
8B
330
17
100
AcDbEntity
  8
TEXT
100
AcDbText
 10
218.0
 20
84.0
 30
0.0
 40
2.8
  1
Neutral model supplied; stretched shape is illustrative.
100
AcDbText
  0
TEXT
  5
8C
330
17
100
AcDbEntity
  8
TEXT
100
AcDbText
 10
218.0
 20
73.0
 30
0.0
 40
2.8
  1
If return sticks, use light manual preload and quantify repeatability.
100
AcDbText
  0
TEXT
  5
8D
330
17
100
AcDbEntity
  8
TEXT
100
AcDbText
 10
218.0
 20
51.0
 30
0.0
 40
2.55
  1
General prototype target: +/-0.20mm unless called out.
100
AcDbText
  0
TEXT
  5
8E
330
17
100
AcDbEntity
  8
TEXT
100
AcDbText
 10
218.0
 20
41.0
 30
0.0
 40
2.55
  1
CAD is nominal. Fit, measure and qualify before calibration.
100
AcDbText
  0
ENDSEC
  0
SECTION
  2
OBJECTS
  0
DICTIONARY
  5
A
330
0
100
AcDbDictionary
281
1
  3
ACAD_COLOR
350
B
  3
ACAD_GROUP
350
C
  3
ACAD_LAYOUT
350
D
  3
ACAD_MATERIAL
350
E
  3
ACAD_MLEADERSTYLE
350
F
  3
ACAD_MLINESTYLE
350
10
  3
ACAD_PLOTSETTINGS
350
11
  3
ACAD_PLOTSTYLENAME
350
12
  3
ACAD_SCALELIST
350
14
  3
ACAD_TABLESTYLE
350
15
  3
ACAD_VISUALSTYLE
350
16
  3
EZDXF_META
350
2D
  0
DICTIONARY
  5
B
330
A
100
AcDbDictionary
281
1
  0
DICTIONARY
  5
C
330
A
100
AcDbDictionary
281
1
  0
DICTIONARY
  5
D
330
A
100
AcDbDictionary
281
1
  3
Model
350
1A
  3
Layout1
350
1E
  0
DICTIONARY
  5
E
330
A
100
AcDbDictionary
281
1
  3
ByBlock
350
1F
  3
ByLayer
350
20
  3
Global
350
21
  0
DICTIONARY
  5
F
330
A
100
AcDbDictionary
281
1
  3
Standard
350
2C
  0
DICTIONARY
  5
10
330
A
100
AcDbDictionary
281
1
  3
Standard
350
22
  0
DICTIONARY
  5
11
330
A
100
AcDbDictionary
281
1
  0
ACDBDICTIONARYWDFLT
  5
12
330
A
100
AcDbDictionary
281
1
  3
Normal
350
13
100
AcDbDictionaryWithDefault
340
13
  0
ACDBPLACEHOLDER
  5
13
330
12
  0
DICTIONARY
  5
14
330
A
100
AcDbDictionary
281
1
  0
DICTIONARY
  5
15
330
A
100
AcDbDictionary
281
1
  0
DICTIONARY
  5
16
330
A
100
AcDbDictionary
281
1
  0
LAYOUT
  5
1A
330
D
100
AcDbPlotSettings
  1

  4
A3
  6

 40
7.5
 41
20.0
 42
7.5
 43
20.0
 44
420.0
 45
297.0
 46
0.0
 47
0.0
 48
0.0
 49
0.0
140
0.0
141
0.0
142
1.0
143
1.0
 70
1024
 72
1
 73
0
 74
5
  7

 75
16
 76
0
 77
2
 78
300
147
1.0
148
0.0
149
0.0
100
AcDbLayout
  1
Model
 70
1
 71
0
 10
0.0
 20
0.0
 11
420.0
 21
297.0
 12
0.0
 22
0.0
 32
0.0
 14
1e+20
 24
1e+20
 34
1e+20
 15
-1e+20
 25
-1e+20
 35
-1e+20
146
0.0
 13
0.0
 23
0.0
 33
0.0
 16
1.0
 26
0.0
 36
0.0
 17
0.0
 27
1.0
 37
0.0
 76
1
330
17
  0
LAYOUT
  5
1E
330
D
100
AcDbPlotSettings
  1

  4
A3
  6

 40
7.5
 41
20.0
 42
7.5
 43
20.0
 44
420.0
 45
297.0
 46
0.0
 47
0.0
 48
0.0
 49
0.0
140
0.0
141
0.0
142
1.0
143
1.0
 70
0
 72
1
 73
0
 74
5
  7

 75
16
 76
0
 77
2
 78
300
147
1.0
148
0.0
149
0.0
100
AcDbLayout
  1
Layout1
 70
1
 71
1
 10
0.0
 20
0.0
 11
420.0
 21
297.0
 12
0.0
 22
0.0
 32
0.0
 14
1e+20
 24
1e+20
 34
1e+20
 15
-1e+20
 25
-1e+20
 35
-1e+20
146
0.0
 13
0.0
 23
0.0
 33
0.0
 16
1.0
 26
0.0
 36
0.0
 17
0.0
 27
1.0
 37
0.0
 76
1
330
1B
  0
MATERIAL
  5
1F
102
{ACAD_REACTORS
330
E
102
}
330
E
100
AcDbMaterial
  1
ByBlock
  2

 70
0
 40
1.0
 71
1
 41
1.0
 91
-1023410177
 42
1.0
 72
1
  3

 73
1
 74
1
 75
1
 44
0.5
 73
0
 45
1.0
 46
1.0
 77
1
  4

 78
1
 79
1
170
1
 48
1.0
171
1
  6

172
1
173
1
174
1
140
1.0
141
1.0
175
1
  7

176
1
177
1
178
1
143
1.0
179
1
  8

270
1
271
1
272
1
145
1.0
146
1.0
273
1
  9

274
1
275
1
276
1
 42
1.0
 72
1
  3

 73
1
 74
1
 75
1
 94
63
  0
MATERIAL
  5
20
102
{ACAD_REACTORS
330
E
102
}
330
E
100
AcDbMaterial
  1
ByLayer
  2

 70
0
 40
1.0
 71
1
 41
1.0
 91
-1023410177
 42
1.0
 72
1
  3

 73
1
 74
1
 75
1
 44
0.5
 73
0
 45
1.0
 46
1.0
 77
1
  4

 78
1
 79
1
170
1
 48
1.0
171
1
  6

172
1
173
1
174
1
140
1.0
141
1.0
175
1
  7

176
1
177
1
178
1
143
1.0
179
1
  8

270
1
271
1
272
1
145
1.0
146
1.0
273
1
  9

274
1
275
1
276
1
 42
1.0
 72
1
  3

 73
1
 74
1
 75
1
 94
63
  0
MATERIAL
  5
21
102
{ACAD_REACTORS
330
E
102
}
330
E
100
AcDbMaterial
  1
Global
  2

 70
0
 40
1.0
 71
1
 41
1.0
 91
-1023410177
 42
1.0
 72
1
  3

 73
1
 74
1
 75
1
 44
0.5
 73
0
 45
1.0
 46
1.0
 77
1
  4

 78
1
 79
1
170
1
 48
1.0
171
1
  6

172
1
173
1
174
1
140
1.0
141
1.0
175
1
  7

176
1
177
1
178
1
143
1.0
179
1
  8

270
1
271
1
272
1
145
1.0
146
1.0
273
1
  9

274
1
275
1
276
1
 42
1.0
 72
1
  3

 73
1
 74
1
 75
1
 94
63
  0
MLINESTYLE
  5
22
102
{ACAD_REACTORS
330
10
102
}
330
10
100
AcDbMlineStyle
  2
Standard
 70
0
  3

 62
256
 51
90.0
 52
90.0
 71
2
 49
0.5
 62
256
  6
BYLAYER
 49
-0.5
 62
256
  6
BYLAYER
  0
MLEADERSTYLE
  5
2C
102
{ACAD_REACTORS
330
F
102
}
330
F
100
AcDbMLeaderStyle
179
2
170
2
171
1
172
0
 90
2
 40
0.0
 41
0.0
173
1
 91
-1056964608
 92
-2
290
1
 42
2.0
291
1
 43
8.0
  3
Standard
 44
4.0
300

342
29
174
1
175
1
176
0
178
1
 93
-1056964608
 45
4.0
292
0
297
0
 46
4.0
 94
-1056964608
 47
1.0
 49
1.0
140
1.0
294
1
141
0.0
177
0
142
1.0
295
0
296
0
143
3.75
271
0
272
9
273
9
  0
DICTIONARY
  5
2D
330
A
100
AcDbDictionary
280
1
281
1
  3
CREATED_BY_EZDXF
350
2E
  3
WRITTEN_BY_EZDXF
350
91
  0
DICTIONARYVAR
  5
2E
330
2D
100
DictionaryVariables
280
0
  1
1.4.4 @ 2026-09-10T02:54:36.898293+00:00
  0
DICTIONARYVAR
  5
91
330
2D
100
DictionaryVariables
280
0
  1
1.4.4 @ 2026-09-10T02:54:36.927299+00:00
  0
ENDSEC
  0
EOF
