  0
SECTION
  2
HEADER
  9
$ACADVER
  1
AC1015
  9
$ACADMAINTVER
 70
6
  9
$DWGCODEPAGE
  3
ANSI_1252
  9
$INSBASE
 10
0.0
 20
0.0
 30
0.0
  9
$EXTMIN
 10
1e+20
 20
1e+20
 30
1e+20
  9
$EXTMAX
 10
-1e+20
 20
-1e+20
 30
-1e+20
  9
$LIMMIN
 10
0.0
 20
0.0
  9
$LIMMAX
 10
420.0
 20
297.0
  9
$ORTHOMODE
 70
0
  9
$REGENMODE
 70
1
  9
$FILLMODE
 70
1
  9
$QTEXTMODE
 70
0
  9
$MIRRTEXT
 70
1
  9
$LTSCALE
 40
1.0
  9
$ATTMODE
 70
1
  9
$TEXTSIZE
 40
2.5
  9
$TRACEWID
 40
1.0
  9
$TEXTSTYLE
  7
Standard
  9
$CLAYER
  8
0
  9
$CELTYPE
  6
ByLayer
  9
$CECOLOR
 62
256
  9
$CELTSCALE
 40
1.0
  9
$DISPSILH
 70
0
  9
$DIMSCALE
 40
1.0
  9
$DIMASZ
 40
2.5
  9
$DIMEXO
 40
0.625
  9
$DIMDLI
 40
3.75
  9
$DIMRND
 40
0.0
  9
$DIMDLE
 40
0.0
  9
$DIMEXE
 40
1.25
  9
$DIMTP
 40
0.0
  9
$DIMTM
 40
0.0
  9
$DIMTXT
 40
2.5
  9
$DIMCEN
 40
2.5
  9
$DIMTSZ
 40
0.0
  9
$DIMTOL
 70
0
  9
$DIMLIM
 70
0
  9
$DIMTIH
 70
0
  9
$DIMTOH
 70
0
  9
$DIMSE1
 70
0
  9
$DIMSE2
 70
0
  9
$DIMTAD
 70
1
  9
$DIMZIN
 70
8
  9
$DIMBLK
  1

  9
$DIMASO
 70
1
  9
$DIMSHO
 70
1
  9
$DIMPOST
  1

  9
$DIMAPOST
  1

  9
$DIMALT
 70
0
  9
$DIMALTD
 70
3
  9
$DIMALTF
 40
0.03937007874
  9
$DIMLFAC
 40
1.0
  9
$DIMTOFL
 70
1
  9
$DIMTVP
 40
0.0
  9
$DIMTIX
 70
0
  9
$DIMSOXD
 70
0
  9
$DIMSAH
 70
0
  9
$DIMBLK1
  1

  9
$DIMBLK2
  1

  9
$DIMSTYLE
  2
ISO-25
  9
$DIMCLRD
 70
0
  9
$DIMCLRE
 70
0
  9
$DIMCLRT
 70
0
  9
$DIMTFAC
 40
1.0
  9
$DIMGAP
 40
0.625
  9
$DIMJUST
 70
0
  9
$DIMSD1
 70
0
  9
$DIMSD2
 70
0
  9
$DIMTOLJ
 70
0
  9
$DIMTZIN
 70
8
  9
$DIMALTZ
 70
0
  9
$DIMALTTZ
 70
0
  9
$DIMUPT
 70
0
  9
$DIMDEC
 70
2
  9
$DIMTDEC
 70
2
  9
$DIMALTU
 70
2
  9
$DIMALTTD
 70
3
  9
$DIMTXSTY
  7
Standard
  9
$DIMAUNIT
 70
0
  9
$DIMADEC
 70
0
  9
$DIMALTRND
 40
0.0
  9
$DIMAZIN
 70
0
  9
$DIMDSEP
 70
44
  9
$DIMATFIT
 70
3
  9
$DIMFRAC
 70
0
  9
$DIMLDRBLK
  1

  9
$DIMLUNIT
 70
2
  9
$DIMLWD
 70
-2
  9
$DIMLWE
 70
-2
  9
$DIMTMOVE
 70
0
  9
$LUNITS
 70
2
  9
$LUPREC
 70
4
  9
$SKETCHINC
 40
1.0
  9
$FILLETRAD
 40
10.0
  9
$AUNITS
 70
0
  9
$AUPREC
 70
2
  9
$MENU
  1
.
  9
$ELEVATION
 40
0.0
  9
$PELEVATION
 40
0.0
  9
$THICKNESS
 40
0.0
  9
$LIMCHECK
 70
0
  9
$CHAMFERA
 40
0.0
  9
$CHAMFERB
 40
0.0
  9
$CHAMFERC
 40
0.0
  9
$CHAMFERD
 40
0.0
  9
$SKPOLY
 70
0
  9
$TDCREATE
 40
2461293.912916667
  9
$TDUCREATE
 40
2458532.153996898
  9
$TDUPDATE
 40
2461293.912916667
  9
$TDUUPDATE
 40
2458532.1544311
  9
$TDINDWG
 40
0.0
  9
$TDUSRTIMER
 40
0.0
  9
$USRTIMER
 70
1
  9
$ANGBASE
 50
0.0
  9
$ANGDIR
 70
0
  9
$PDMODE
 70
0
  9
$PDSIZE
 40
0.0
  9
$PLINEWID
 40
0.0
  9
$SPLFRAME
 70
0
  9
$SPLINETYPE
 70
6
  9
$SPLINESEGS
 70
8
  9
$HANDSEED
  5
81
  9
$SURFTAB1
 70
6
  9
$SURFTAB2
 70
6
  9
$SURFTYPE
 70
6
  9
$SURFU
 70
6
  9
$SURFV
 70
6
  9
$UCSBASE
  2

  9
$UCSNAME
  2

  9
$UCSORG
 10
0.0
 20
0.0
 30
0.0
  9
$UCSXDIR
 10
1.0
 20
0.0
 30
0.0
  9
$UCSYDIR
 10
0.0
 20
1.0
 30
0.0
  9
$UCSORTHOREF
  2

  9
$UCSORTHOVIEW
 70
0
  9
$UCSORGTOP
 10
0.0
 20
0.0
 30
0.0
  9
$UCSORGBOTTOM
 10
0.0
 20
0.0
 30
0.0
  9
$UCSORGLEFT
 10
0.0
 20
0.0
 30
0.0
  9
$UCSORGRIGHT
 10
0.0
 20
0.0
 30
0.0
  9
$UCSORGFRONT
 10
0.0
 20
0.0
 30
0.0
  9
$UCSORGBACK
 10
0.0
 20
0.0
 30
0.0
  9
$PUCSBASE
  2

  9
$PUCSNAME
  2

  9
$PUCSORG
 10
0.0
 20
0.0
 30
0.0
  9
$PUCSXDIR
 10
1.0
 20
0.0
 30
0.0
  9
$PUCSYDIR
 10
0.0
 20
1.0
 30
0.0
  9
$PUCSORTHOREF
  2

  9
$PUCSORTHOVIEW
 70
0
  9
$PUCSORGTOP
 10
0.0
 20
0.0
 30
0.0
  9
$PUCSORGBOTTOM
 10
0.0
 20
0.0
 30
0.0
  9
$PUCSORGLEFT
 10
0.0
 20
0.0
 30
0.0
  9
$PUCSORGRIGHT
 10
0.0
 20
0.0
 30
0.0
  9
$PUCSORGFRONT
 10
0.0
 20
0.0
 30
0.0
  9
$PUCSORGBACK
 10
0.0
 20
0.0
 30
0.0
  9
$USERI1
 70
0
  9
$USERI2
 70
0
  9
$USERI3
 70
0
  9
$USERI4
 70
0
  9
$USERI5
 70
0
  9
$USERR1
 40
0.0
  9
$USERR2
 40
0.0
  9
$USERR3
 40
0.0
  9
$USERR4
 40
0.0
  9
$USERR5
 40
0.0
  9
$WORLDVIEW
 70
1
  9
$SHADEDGE
 70
3
  9
$SHADEDIF
 70
70
  9
$TILEMODE
 70
1
  9
$MAXACTVP
 70
64
  9
$PINSBASE
 10
0.0
 20
0.0
 30
0.0
  9
$PLIMCHECK
 70
0
  9
$PEXTMIN
 10
1e+20
 20
1e+20
 30
1e+20
  9
$PEXTMAX
 10
-1e+20
 20
-1e+20
 30
-1e+20
  9
$PLIMMIN
 10
0.0
 20
0.0
  9
$PLIMMAX
 10
420.0
 20
297.0
  9
$UNITMODE
 70
0
  9
$VISRETAIN
 70
1
  9
$PLINEGEN
 70
0
  9
$PSLTSCALE
 70
1
  9
$TREEDEPTH
 70
3020
  9
$CMLSTYLE
  2
Standard
  9
$CMLJUST
 70
0
  9
$CMLSCALE
 40
20.0
  9
$PROXYGRAPHICS
 70
1
  9
$MEASUREMENT
 70
1
  9
$CELWEIGHT
370
-1
  9
$ENDCAPS
280
0
  9
$JOINSTYLE
280
0
  9
$LWDISPLAY
290
0
  9
$INSUNITS
 70
4
  9
$HYPERLINKBASE
  1

  9
$STYLESHEET
  1

  9
$XEDIT
290
1
  9
$CEPSNTYPE
380
0
  9
$PSTYLEMODE
290
1
  9
$FINGERPRINTGUID
  2
{8368E63B-CB4A-4B4B-9223-50DD071959D0}
  9
$VERSIONGUID
  2
{B62E9AFB-CC33-4DC0-BFCD-A274A717BEB0}
  9
$EXTNAMES
290
1
  9
$PSVPSCALE
 40
0.0
  9
$OLESTARTUP
290
0
  0
ENDSEC
  0
SECTION
  2
CLASSES
  0
CLASS
  1
ACDBDICTIONARYWDFLT
  2
AcDbDictionaryWithDefault
  3
ObjectDBX Classes
 90
0
280
0
281
0
  0
CLASS
  1
SUN
  2
AcDbSun
  3
SCENEOE
 90
1153
280
0
281
0
  0
CLASS
  1
VISUALSTYLE
  2
AcDbVisualStyle
  3
ObjectDBX Classes
 90
4095
280
0
281
0
  0
CLASS
  1
MATERIAL
  2
AcDbMaterial
  3
ObjectDBX Classes
 90
1153
280
0
281
0
  0
CLASS
  1
SCALE
  2
AcDbScale
  3
ObjectDBX Classes
 90
1153
280
0
281
0
  0
CLASS
  1
TABLESTYLE
  2
AcDbTableStyle
  3
ObjectDBX Classes
 90
4095
280
0
281
0
  0
CLASS
  1
MLEADERSTYLE
  2
AcDbMLeaderStyle
  3
ACDB_MLEADERSTYLE_CLASS
 90
4095
280
0
281
0
  0
CLASS
  1
DICTIONARYVAR
  2
AcDbDictionaryVar
  3
ObjectDBX Classes
 90
0
280
0
281
0
  0
CLASS
  1
CELLSTYLEMAP
  2
AcDbCellStyleMap
  3
ObjectDBX Classes
 90
1152
280
0
281
0
  0
CLASS
  1
MENTALRAYRENDERSETTINGS
  2
AcDbMentalRayRenderSettings
  3
SCENEOE
 90
1024
280
0
281
0
  0
CLASS
  1
ACDBDETAILVIEWSTYLE
  2
AcDbDetailViewStyle
  3
ObjectDBX Classes
 90
1025
280
0
281
0
  0
CLASS
  1
ACDBSECTIONVIEWSTYLE
  2
AcDbSectionViewStyle
  3
ObjectDBX Classes
 90
1025
280
0
281
0
  0
CLASS
  1
RASTERVARIABLES
  2
AcDbRasterVariables
  3
ISM
 90
0
280
0
281
0
  0
CLASS
  1
ACDBPLACEHOLDER
  2
AcDbPlaceHolder
  3
ObjectDBX Classes
 90
0
280
0
281
0
  0
CLASS
  1
LAYOUT
  2
AcDbLayout
  3
ObjectDBX Classes
 90
0
280
0
281
0
  0
ENDSEC
  0
SECTION
  2
TABLES
  0
TABLE
  2
VPORT
  5
8
330
0
100
AcDbSymbolTable
 70
1
  0
VPORT
  5
23
330
8
100
AcDbSymbolTableRecord
100
AcDbViewportTableRecord
  2
*Active
 70
0
 10
0.0
 20
0.0
 11
1.0
 21
1.0
 12
0.0
 22
0.0
 13
0.0
 23
0.0
 14
0.5
 24
0.5
 15
0.5
 25
0.5
 16
0.0
 26
0.0
 36
1.0
 17
0.0
 27
0.0
 37
0.0
 40
1000.0
 41
1.34
 42
50.0
 43
0.0
 44
0.0
 50
0.0
 51
0.0
 71
0
 72
1000
 73
1
 74
3
 75
0
 76
0
 77
0
 78
0
281
0
 65
0
146
0.0
  0
ENDTAB
  0
TABLE
  2
LTYPE
  5
2
330
0
100
AcDbSymbolTable
 70
3
  0
LTYPE
  5
24
330
2
100
AcDbSymbolTableRecord
100
AcDbLinetypeTableRecord
  2
ByBlock
 70
0
  3

 72
65
 73
0
 40
0.0
  0
LTYPE
  5
25
330
2
100
AcDbSymbolTableRecord
100
AcDbLinetypeTableRecord
  2
ByLayer
 70
0
  3

 72
65
 73
0
 40
0.0
  0
LTYPE
  5
26
330
2
100
AcDbSymbolTableRecord
100
AcDbLinetypeTableRecord
  2
Continuous
 70
0
  3

 72
65
 73
0
 40
0.0
  0
ENDTAB
  0
TABLE
  2
LAYER
  5
1
330
0
100
AcDbSymbolTable
 70
6
  0
LAYER
  5
27
330
1
100
AcDbSymbolTableRecord
100
AcDbLayerTableRecord
  2
0
 70
0
 62
7
  6
Continuous
370
-3
390
13
  0
LAYER
  5
28
330
1
100
AcDbSymbolTableRecord
100
AcDbLayerTableRecord
  2
Defpoints
 70
0
 62
7
  6
Continuous
290
0
370
-3
390
13
  0
LAYER
  5
2F
330
1
100
AcDbSymbolTableRecord
100
AcDbLayerTableRecord
  2
OUTLINE
 70
0
 62
7
  6
Continuous
370
-3
390
13
  0
LAYER
  5
30
330
1
100
AcDbSymbolTableRecord
100
AcDbLayerTableRecord
  2
HIDDEN
 70
0
 62
8
  6
Continuous
370
-3
390
13
  0
LAYER
  5
31
330
1
100
AcDbSymbolTableRecord
100
AcDbLayerTableRecord
  2
DIM
 70
0
 62
4
  6
Continuous
370
-3
390
13
  0
LAYER
  5
32
330
1
100
AcDbSymbolTableRecord
100
AcDbLayerTableRecord
  2
TEXT
 70
0
 62
7
  6
Continuous
370
-3
390
13
  0
ENDTAB
  0
TABLE
  2
STYLE
  5
5
330
0
100
AcDbSymbolTable
 70
1
  0
STYLE
  5
29
330
5
100
AcDbSymbolTableRecord
100
AcDbTextStyleTableRecord
  2
Standard
 70
0
 40
0.0
 41
1.0
 50
0.0
 71
0
 42
2.5
  3
txt
  4

  0
ENDTAB
  0
TABLE
  2
VIEW
  5
7
330
0
100
AcDbSymbolTable
 70
0
  0
ENDTAB
  0
TABLE
  2
UCS
  5
6
330
0
100
AcDbSymbolTable
 70
0
  0
ENDTAB
  0
TABLE
  2
APPID
  5
3
330
0
100
AcDbSymbolTable
 70
3
  0
APPID
  5
2A
330
3
100
AcDbSymbolTableRecord
100
AcDbRegAppTableRecord
  2
ACAD
 70
0
  0
APPID
  5
7E
330
3
100
AcDbSymbolTableRecord
100
AcDbRegAppTableRecord
  2
HATCHBACKGROUNDCOLOR
 70
0
  0
APPID
  5
7F
330
3
100
AcDbSymbolTableRecord
100
AcDbRegAppTableRecord
  2
EZDXF
 70
0
  0
ENDTAB
  0
TABLE
  2
DIMSTYLE
  5
4
330
0
100
AcDbSymbolTable
 70
1
100
AcDbDimStyleTable
  0
DIMSTYLE
105
2B
330
4
100
AcDbSymbolTableRecord
100
AcDbDimStyleTableRecord
  2
Standard
 70
0
  3

  4

 40
1.0
 41
2.5
 42
0.625
 43
3.75
 44
1.25
 45
0.0
 46
0.0
 47
0.0
 48
0.0
140
2.5
141
2.5
142
0.0
143
0.03937007874
144
1.0
145
0.0
146
1.0
147
0.625
148
0.0
 71
0
 72
0
 73
0
 74
0
 75
0
 76
0
 77
1
 78
8
 79
3
170
0
171
3
172
1
173
0
174
0
175
0
176
0
177
0
178
0
179
2
271
2
272
2
273
2
274
3
275
0
276
0
277
2
278
44
279
0
280
0
281
0
282
0
283
0
284
8
285
0
286
0
288
0
289
3
371
-2
372
-2
  0
ENDTAB
  0
TABLE
  2
BLOCK_RECORD
  5
9
330
0
100
AcDbSymbolTable
 70
2
  0
BLOCK_RECORD
  5
17
330
9
100
AcDbSymbolTableRecord
100
AcDbBlockTableRecord
  2
*Model_Space
340
1A
  0
BLOCK_RECORD
  5
1B
330
9
100
AcDbSymbolTableRecord
100
AcDbBlockTableRecord
  2
*Paper_Space
340
1E
  0
ENDTAB
  0
ENDSEC
  0
SECTION
  2
BLOCKS
  0
BLOCK
  5
18
330
17
100
AcDbEntity
  8
0
100
AcDbBlockBegin
  2
*Model_Space
 70
0
 10
0.0
 20
0.0
 30
0.0
  3
*Model_Space
  1

  0
ENDBLK
  5
19
330
17
100
AcDbEntity
  8
0
100
AcDbBlockEnd
  0
BLOCK
  5
1C
330
1B
100
AcDbEntity
  8
0
100
AcDbBlockBegin
  2
*Paper_Space
 70
0
 10
0.0
 20
0.0
 30
0.0
  3
*Paper_Space
  1

  0
ENDBLK
  5
1D
330
1B
100
AcDbEntity
  8
0
100
AcDbBlockEnd
  0
ENDSEC
  0
SECTION
  2
ENTITIES
  0
LWPOLYLINE
  5
33
330
17
100
AcDbEntity
  8
OUTLINE
100
AcDbPolyline
 90
5
 70
0
 10
8.0
 20
8.0
 10
412.0
 20
8.0
 10
412.0
 20
289.0
 10
8.0
 20
289.0
 10
8.0
 20
8.0
  0
TEXT
  5
34
330
17
100
AcDbEntity
  8
TEXT
100
AcDbText
 10
15.0
 20
278.0
 30
0.0
 40
5.0
  1
P08  |  P08 5MM REFERENCE GAUGE
100
AcDbText
  0
TEXT
  5
35
330
17
100
AcDbEntity
  8
TEXT
100
AcDbText
 10
15.0
 20
270.0
 30
0.0
 40
2.6
  1
Prototype Rev A | Units mm | Dimensions control; do not scale printed pages
100
AcDbText
  0
LWPOLYLINE
  5
36
330
17
100
AcDbEntity
  8
OUTLINE
100
AcDbPolyline
 90
2
 70
0
 10
8.0
 20
32.0
 10
412.0
 20
32.0
  0
TEXT
  5
37
330
17
100
AcDbEntity
  8
TEXT
100
AcDbText
 10
15.0
 20
22.0
 30
0.0
 40
3.0
  1
HF-01  /  MAGNET-SENSOR CHARACTERIZATION
100
AcDbText
  0
TEXT
  5
38
330
17
100
AcDbEntity
  8
TEXT
100
AcDbText
 10
15.0
 20
15.0
 30
0.0
 40
2.4
  1
REV A  |  2026-09-09  |  Printed parts + McMaster COTS  |  Room-temperature bench prototype
100
AcDbText
  0
TEXT
  5
39
330
17
100
AcDbEntity
  8
TEXT
100
AcDbText
 10
332.0
 20
20.0
 30
0.0
 40
3.0
  1
P08  |  A3  |  MM
100
AcDbText
  0
LWPOLYLINE
  5
3A
330
17
100
AcDbEntity
  8
HIDDEN
100
AcDbPolyline
 90
15
 70
0
 10
96.44444444444444
 20
172.0
 10
96.44444444444444
 20
172.21171985268683
 10
96.44444444444444
 20
172.83626289326847
 10
96.44444444444444
 20
173.84231192582553
 10
96.44444444444444
 20
175.1794194509707
 10
96.44444444444444
 20
176.78053731411842
 10
96.44444444444444
 20
178.56537877992446
 10
96.44444444444444
 20
180.44444444444446
 10
96.44444444444444
 20
182.32351010896446
 10
96.44444444444444
 20
184.1083515747705
 10
96.44444444444444
 20
185.70946943791822
 10
96.44444444444444
 20
187.0465769630634
 10
96.44444444444444
 20
188.05262599562045
 10
96.44444444444444
 20
188.6771690362021
 10
96.44444444444444
 20
188.88888888888889
  0
LWPOLYLINE
  5
3B
330
17
100
AcDbEntity
  8
HIDDEN
100
AcDbPolyline
 90
15
 70
0
 10
117.55555555555556
 20
172.0
 10
117.55555555555556
 20
172.21171985268683
 10
117.55555555555556
 20
172.83626289326847
 10
117.55555555555556
 20
173.84231192582553
 10
117.55555555555556
 20
175.1794194509707
 10
117.55555555555556
 20
176.78053731411842
 10
117.55555555555556
 20
178.56537877992446
 10
117.55555555555556
 20
180.44444444444446
 10
117.55555555555556
 20
182.32351010896446
 10
117.55555555555556
 20
184.1083515747705
 10
117.55555555555556
 20
185.70946943791822
 10
117.55555555555556
 20
187.0465769630634
 10
117.55555555555556
 20
188.05262599562045
 10
117.55555555555556
 20
188.6771690362021
 10
117.55555555555556
 20
188.88888888888889
  0
LWPOLYLINE
  5
3C
330
17
100
AcDbEntity
  8
HIDDEN
100
AcDbPolyline
 90
15
 70
0
 10
102.77777777777777
 20
188.18390561814766
 10
102.77777777777777
 20
188.279834677197
 10
102.77777777777777
 20
188.36899436197314
 10
102.77777777777777
 20
188.45130764309297
 10
102.77777777777777
 20
188.5267034061141
 10
102.77777777777777
 20
188.59511651297402
 10
102.77777777777777
 20
188.6564878582661
 10
102.77777777777777
 20
188.71076442030372
 10
102.77777777777777
 20
188.75789930692812
 10
102.77777777777777
 20
188.79785179602084
 10
102.77777777777777
 20
188.8305873706857
 10
102.77777777777777
 20
188.85607774906933
 10
102.77777777777777
 20
188.87430090879553
 10
102.77777777777777
 20
188.88524110599135
 10
102.77777777777777
 20
188.8888888888889
  0
LWPOLYLINE
  5
3D
330
17
100
AcDbEntity
  8
HIDDEN
100
AcDbPolyline
 90
15
 70
0
 10
102.77777777777777
 20
188.8888888888889
 10
102.77777777777777
 20
188.88524110599135
 10
102.77777777777777
 20
188.87430090879553
 10
102.77777777777777
 20
188.85607774906933
 10
102.77777777777777
 20
188.8305873706857
 10
102.77777777777777
 20
188.79785179602086
 10
102.77777777777777
 20
188.75789930692812
 10
102.77777777777777
 20
188.71076442030375
 10
102.77777777777777
 20
188.6564878582661
 10
102.77777777777777
 20
188.59511651297402
 10
102.77777777777777
 20
188.5267034061141
 10
102.77777777777777
 20
188.451307643093
 10
102.77777777777777
 20
188.36899436197317
 10
102.77777777777777
 20
188.279834677197
 10
102.77777777777777
 20
188.1839056181477
  0
LWPOLYLINE
  5
3E
330
17
100
AcDbEntity
  8
HIDDEN
100
AcDbPolyline
 90
15
 70
0
 10
111.22222222222223
 20
188.18390561814766
 10
111.22222222222223
 20
188.279834677197
 10
111.22222222222223
 20
188.36899436197314
 10
111.22222222222223
 20
188.45130764309297
 10
111.22222222222223
 20
188.5267034061141
 10
111.22222222222223
 20
188.59511651297402
 10
111.22222222222223
 20
188.6564878582661
 10
111.22222222222223
 20
188.71076442030372
 10
111.22222222222223
 20
188.75789930692812
 10
111.22222222222223
 20
188.79785179602084
 10
111.22222222222223
 20
188.8305873706857
 10
111.22222222222223
 20
188.85607774906933
 10
111.22222222222223
 20
188.87430090879553
 10
111.22222222222223
 20
188.88524110599135
 10
111.22222222222223
 20
188.8888888888889
  0
LWPOLYLINE
  5
3F
330
17
100
AcDbEntity
  8
HIDDEN
100
AcDbPolyline
 90
15
 70
0
 10
111.22222222222223
 20
188.8888888888889
 10
111.22222222222223
 20
188.88524110599135
 10
111.22222222222223
 20
188.87430090879553
 10
111.22222222222223
 20
188.85607774906933
 10
111.22222222222223
 20
188.8305873706857
 10
111.22222222222223
 20
188.79785179602086
 10
111.22222222222223
 20
188.75789930692812
 10
111.22222222222223
 20
188.71076442030375
 10
111.22222222222223
 20
188.6564878582661
 10
111.22222222222223
 20
188.59511651297402
 10
111.22222222222223
 20
188.5267034061141
 10
111.22222222222223
 20
188.451307643093
 10
111.22222222222223
 20
188.36899436197317
 10
111.22222222222223
 20
188.279834677197
 10
111.22222222222223
 20
188.1839056181477
  0
LWPOLYLINE
  5
40
330
17
100
AcDbEntity
  8
HIDDEN
100
AcDbPolyline
 90
2
 70
0
 10
102.77777777777777
 20
188.18390561814766
 10
111.22222222222223
 20
188.18390561814766
  0
LWPOLYLINE
  5
41
330
17
100
AcDbEntity
  8
HIDDEN
100
AcDbPolyline
 90
2
 70
0
 10
102.77777777777777
 20
188.18390561814766
 10
102.77777777777777
 20
248.0
  0
LWPOLYLINE
  5
42
330
17
100
AcDbEntity
  8
HIDDEN
100
AcDbPolyline
 90
2
 70
0
 10
111.22222222222223
 20
188.18390561814766
 10
111.22222222222223
 20
248.0
  0
LWPOLYLINE
  5
43
330
17
100
AcDbEntity
  8
HIDDEN
100
AcDbPolyline
 90
2
 70
0
 10
102.77777777777777
 20
248.0
 10
111.22222222222223
 20
248.0
  0
LWPOLYLINE
  5
44
330
17
100
AcDbEntity
  8
OUTLINE
100
AcDbPolyline
 90
15
 70
0
 10
96.44444444444444
 20
180.44444444444446
 10
96.44444444444444
 20
179.49896664623876
 10
96.44444444444444
 20
178.56537877992446
 10
96.44444444444444
 20
177.6554212546008
 10
96.44444444444444
 20
176.78053731411842
 10
96.44444444444444
 20
175.95172913164828
 10
96.44444444444444
 20
175.1794194509707
 10
96.44444444444444
 20
174.47332051442473
 10
96.44444444444444
 20
173.84231192582553
 10
96.44444444444444
 20
173.2943289842945
 10
96.44444444444444
 20
172.83626289326847
 10
96.44444444444444
 20
172.47387409961823
 10
96.44444444444444
 20
172.21171985268683
 10
96.44444444444444
 20
172.05309689423484
 10
96.44444444444444
 20
172.0
  0
LWPOLYLINE
  5
45
330
17
100
AcDbEntity
  8
OUTLINE
100
AcDbPolyline
 90
15
 70
0
 10
96.44444444444444
 20
188.8888888888889
 10
96.44444444444444
 20
188.83579199465407
 10
96.44444444444444
 20
188.6771690362021
 10
96.44444444444444
 20
188.41501478927069
 10
96.44444444444444
 20
188.05262599562045
 10
96.44444444444444
 20
187.5945599045944
 10
96.44444444444444
 20
187.0465769630634
 10
96.44444444444444
 20
186.4155683744642
 10
96.44444444444444
 20
185.70946943791822
 10
96.44444444444444
 20
184.93715975724064
 10
96.44444444444444
 20
184.1083515747705
 10
96.44444444444444
 20
183.2334676342881
 10
96.44444444444444
 20
182.32351010896446
 10
96.44444444444444
 20
181.38992224265016
 10
96.44444444444444
 20
180.44444444444454
  0
LWPOLYLINE
  5
46
330
17
100
AcDbEntity
  8
OUTLINE
100
AcDbPolyline
 90
15
 70
0
 10
117.55555555555556
 20
180.44444444444446
 10
117.55555555555556
 20
179.49896664623876
 10
117.55555555555556
 20
178.56537877992446
 10
117.55555555555556
 20
177.6554212546008
 10
117.55555555555556
 20
176.78053731411842
 10
117.55555555555556
 20
175.95172913164828
 10
117.55555555555556
 20
175.1794194509707
 10
117.55555555555556
 20
174.47332051442473
 10
117.55555555555556
 20
173.84231192582553
 10
117.55555555555556
 20
173.2943289842945
 10
117.55555555555556
 20
172.83626289326847
 10
117.55555555555556
 20
172.47387409961823
 10
117.55555555555556
 20
172.21171985268683
 10
117.55555555555556
 20
172.05309689423484
 10
117.55555555555556
 20
172.0
  0
LWPOLYLINE
  5
47
330
17
100
AcDbEntity
  8
OUTLINE
100
AcDbPolyline
 90
15
 70
0
 10
117.55555555555556
 20
188.8888888888889
 10
117.55555555555556
 20
188.83579199465407
 10
117.55555555555556
 20
188.6771690362021
 10
117.55555555555556
 20
188.41501478927069
 10
117.55555555555556
 20
188.05262599562045
 10
117.55555555555556
 20
187.5945599045944
 10
117.55555555555556
 20
187.0465769630634
 10
117.55555555555556
 20
186.4155683744642
 10
117.55555555555556
 20
185.70946943791822
 10
117.55555555555556
 20
184.93715975724064
 10
117.55555555555556
 20
184.1083515747705
 10
117.55555555555556
 20
183.2334676342881
 10
117.55555555555556
 20
182.32351010896446
 10
117.55555555555556
 20
181.38992224265016
 10
117.55555555555556
 20
180.44444444444454
  0
LWPOLYLINE
  5
48
330
17
100
AcDbEntity
  8
OUTLINE
100
AcDbPolyline
 90
2
 70
0
 10
102.77777777777777
 20
188.18390561814766
 10
111.22222222222223
 20
188.18390561814766
  0
LWPOLYLINE
  5
49
330
17
100
AcDbEntity
  8
OUTLINE
100
AcDbPolyline
 90
2
 70
0
 10
102.77777777777777
 20
188.18390561814766
 10
102.77777777777777
 20
248.0
  0
LWPOLYLINE
  5
4A
330
17
100
AcDbEntity
  8
OUTLINE
100
AcDbPolyline
 90
2
 70
0
 10
102.77777777777777
 20
248.0
 10
111.22222222222223
 20
248.0
  0
LWPOLYLINE
  5
4B
330
17
100
AcDbEntity
  8
OUTLINE
100
AcDbPolyline
 90
2
 70
0
 10
111.22222222222223
 20
188.18390561814766
 10
111.22222222222223
 20
248.0
  0
LWPOLYLINE
  5
4C
330
17
100
AcDbEntity
  8
OUTLINE
100
AcDbPolyline
 90
2
 70
0
 10
96.44444444444444
 20
172.0
 10
117.55555555555556
 20
172.0
  0
LWPOLYLINE
  5
4D
330
17
100
AcDbEntity
  8
OUTLINE
100
AcDbPolyline
 90
2
 70
0
 10
96.44444444444444
 20
188.8888888888889
 10
102.77777777777777
 20
188.8888888888889
  0
LWPOLYLINE
  5
4E
330
17
100
AcDbEntity
  8
OUTLINE
100
AcDbPolyline
 90
2
 70
0
 10
111.22222222222223
 20
188.8888888888889
 10
117.55555555555556
 20
188.8888888888889
  0
TEXT
  5
4F
330
17
100
AcDbEntity
  8
TEXT
100
AcDbText
 10
22.0
 20
165.0
 30
0.0
 40
2.6
  1
TOP  (view scale 4.22:1)
100
AcDbText
  0
LWPOLYLINE
  5
50
330
17
100
AcDbEntity
  8
HIDDEN
100
AcDbPolyline
 90
15
 70
0
 10
69.5
 20
70.0
 10
69.5
 20
70.7521626345453
 10
69.5
 20
72.97093396292743
 10
69.5
 20
76.5450555259591
 10
69.5
 20
81.29530594423798
 10
69.5
 20
86.98348782647325
 10
69.5
 20
93.32437198131056
 10
69.5
 20
100.0
 10
69.5
 20
106.67562801868942
 10
69.5
 20
113.01651217352673
 10
69.5
 20
118.704694055762
 10
69.5
 20
123.45494447404089
 10
69.5
 20
127.02906603707257
 10
69.5
 20
129.2478373654547
 10
69.5
 20
129.99999999999997
  0
LWPOLYLINE
  5
51
330
17
100
AcDbEntity
  8
HIDDEN
100
AcDbPolyline
 90
15
 70
0
 10
144.5
 20
70.0
 10
144.5
 20
70.7521626345453
 10
144.5
 20
72.97093396292743
 10
144.5
 20
76.5450555259591
 10
144.5
 20
81.29530594423798
 10
144.5
 20
86.98348782647325
 10
144.5
 20
93.32437198131056
 10
144.5
 20
100.0
 10
144.5
 20
106.67562801868942
 10
144.5
 20
113.01651217352673
 10
144.5
 20
118.704694055762
 10
144.5
 20
123.45494447404089
 10
144.5
 20
127.02906603707257
 10
144.5
 20
129.2478373654547
 10
144.5
 20
129.99999999999997
  0
LWPOLYLINE
  5
52
330
17
100
AcDbEntity
  8
HIDDEN
100
AcDbPolyline
 90
15
 70
0
 10
92.0
 20
88.0
 10
92.0
 20
89.63620546986498
 10
92.0
 20
91.30821834643193
 10
92.0
 20
93.01026174509477
 10
92.0
 20
94.73645502435453
 10
92.0
 20
96.48083410371764
 10
92.0
 20
98.23737206987974
 10
92.0
 20
100.0
 10
92.0
 20
101.76262793012025
 10
92.0
 20
103.51916589628235
 10
92.0
 20
105.26354497564546
 10
92.0
 20
106.98973825490522
 10
92.0
 20
108.69178165356806
 10
92.0
 20
110.36379453013502
 10
92.0
 20
111.99999999999974
  0
LWPOLYLINE
  5
53
330
17
100
AcDbEntity
  8
HIDDEN
100
AcDbPolyline
 90
2
 70
0
 10
92.0
 20
112.0
 10
122.0
 20
112.0
  0
LWPOLYLINE
  5
54
330
17
100
AcDbEntity
  8
HIDDEN
100
AcDbPolyline
 90
15
 70
0
 10
122.0
 20
88.0
 10
122.0
 20
89.63620546986498
 10
122.0
 20
91.30821834643193
 10
122.0
 20
93.01026174509477
 10
122.0
 20
94.73645502435453
 10
122.0
 20
96.48083410371764
 10
122.0
 20
98.23737206987974
 10
122.0
 20
100.0
 10
122.0
 20
101.76262793012025
 10
122.0
 20
103.51916589628235
 10
122.0
 20
105.26354497564546
 10
122.0
 20
106.98973825490522
 10
122.0
 20
108.69178165356806
 10
122.0
 20
110.36379453013502
 10
122.0
 20
111.99999999999974
  0
LWPOLYLINE
  5
55
330
17
100
AcDbEntity
  8
HIDDEN
100
AcDbPolyline
 90
2
 70
0
 10
92.0
 20
88.0
 10
122.0
 20
88.0
  0
LWPOLYLINE
  5
56
330
17
100
AcDbEntity
  8
HIDDEN
100
AcDbPolyline
 90
2
 70
0
 10
92.0
 20
88.0
 10
92.0
 20
112.0
  0
LWPOLYLINE
  5
57
330
17
100
AcDbEntity
  8
HIDDEN
100
AcDbPolyline
 90
2
 70
0
 10
92.0
 20
112.0
 10
122.0
 20
112.0
  0
LWPOLYLINE
  5
58
330
17
100
AcDbEntity
  8
HIDDEN
100
AcDbPolyline
 90
2
 70
0
 10
122.0
 20
88.0
 10
122.0
 20
112.0
  0
LWPOLYLINE
  5
59
330
17
100
AcDbEntity
  8
HIDDEN
100
AcDbPolyline
 90
2
 70
0
 10
92.0
 20
88.0
 10
122.0
 20
88.0
  0
LWPOLYLINE
  5
5A
330
17
100
AcDbEntity
  8
OUTLINE
100
AcDbPolyline
 90
2
 70
0
 10
69.5
 20
130.0
 10
144.5
 20
130.0
  0
LWPOLYLINE
  5
5B
330
17
100
AcDbEntity
  8
OUTLINE
100
AcDbPolyline
 90
15
 70
0
 10
69.5
 20
130.0
 10
69.5
 20
129.2478373654547
 10
69.5
 20
127.02906603707257
 10
69.5
 20
123.4549444740409
 10
69.5
 20
118.704694055762
 10
69.5
 20
113.01651217352675
 10
69.5
 20
106.67562801868944
 10
69.5
 20
100.0
 10
69.5
 20
93.32437198131058
 10
69.5
 20
86.98348782647327
 10
69.5
 20
81.295305944238
 10
69.5
 20
76.54505552595911
 10
69.5
 20
72.97093396292743
 10
69.5
 20
70.7521626345453
 10
69.5
 20
70.00000000000001
  0
LWPOLYLINE
  5
5C
330
17
100
AcDbEntity
  8
OUTLINE
100
AcDbPolyline
 90
15
 70
0
 10
144.5
 20
130.0
 10
144.5
 20
129.2478373654547
 10
144.5
 20
127.02906603707257
 10
144.5
 20
123.4549444740409
 10
144.5
 20
118.704694055762
 10
144.5
 20
113.01651217352675
 10
144.5
 20
106.67562801868944
 10
144.5
 20
100.0
 10
144.5
 20
93.32437198131058
 10
144.5
 20
86.98348782647327
 10
144.5
 20
81.295305944238
 10
144.5
 20
76.54505552595911
 10
144.5
 20
72.97093396292743
 10
144.5
 20
70.7521626345453
 10
144.5
 20
70.00000000000001
  0
LWPOLYLINE
  5
5D
330
17
100
AcDbEntity
  8
OUTLINE
100
AcDbPolyline
 90
2
 70
0
 10
69.5
 20
70.0
 10
144.5
 20
70.0
  0
TEXT
  5
5E
330
17
100
AcDbEntity
  8
TEXT
100
AcDbText
 10
22.0
 20
63.0
 30
0.0
 40
2.6
  1
FRONT  (view scale 15.00:1)
100
AcDbText
  0
LWPOLYLINE
  5
5F
330
17
100
AcDbEntity
  8
HIDDEN
100
AcDbPolyline
 90
24
 70
0
 10
368.15026290552703
 20
227.3057940066081
 10
373.2477445169578
 20
226.6051612857793
 10
377.96716923669555
 20
224.5552258470154
 10
381.95851892320866
 20
221.30802202397888
 10
384.92577342945833
 20
217.1043800692553
 10
386.6488650630022
 20
212.2560648762442
 10
387.0
 20
207.122653803245
 10
385.95313616851
 20
202.08486846574903
 10
383.58591466983063
 20
197.51633835590394
 10
380.073901493201
 20
193.75589045232238
 10
375.6775665895405
 20
191.08241997310847
 10
370.72296600675986
 20
189.69420599339193
 10
365.57755980429425
 20
189.69420599339193
 10
360.62295922151355
 20
191.08241997310847
 10
356.2266243178531
 20
193.75589045232235
 10
352.7146111412235
 20
197.5163383559039
 10
350.34738964254404
 20
202.084868465749
 10
349.30052581105406
 20
207.12265380324496
 10
349.6516607480519
 20
212.25606487624418
 10
351.3747523815957
 20
217.10438006925528
 10
354.3420068878454
 20
221.30802202397885
 10
358.3333565743585
 20
224.55522584701538
 10
363.0527812940962
 20
226.6051612857793
 10
368.150262905527
 20
227.3057940066081
  0
LWPOLYLINE
  5
60
330
17
100
AcDbEntity
  8
HIDDEN
100
AcDbPolyline
 90
4
 70
0
 10
350.8338248786007
 20
200.85449799814086
 10
349.43395642265983
 20
205.82842787191444
 10
349.43395642265983
 20
210.99559441491996
 10
350.8338248786007
 20
215.96952428869355
  0
LWPOLYLINE
  5
61
330
17
100
AcDbEntity
  8
HIDDEN
100
AcDbPolyline
 90
4
 70
0
 10
350.8338248786007
 20
200.85449799814086
 10
349.43395642265983
 20
205.82842787191444
 10
349.43395642265983
 20
210.99559441491996
 10
350.8338248786007
 20
215.96952428869355
  0
LWPOLYLINE
  5
62
330
17
100
AcDbEntity
  8
HIDDEN
100
AcDbPolyline
 90
2
 70
0
 10
350.8338248786007
 20
215.96952428869355
 10
217.0
 20
215.96952428869355
  0
LWPOLYLINE
  5
63
330
17
100
AcDbEntity
  8
HIDDEN
100
AcDbPolyline
 90
2
 70
0
 10
217.0
 20
200.85449799814086
 10
217.0
 20
215.96952428869355
  0
LWPOLYLINE
  5
64
330
17
100
AcDbEntity
  8
HIDDEN
100
AcDbPolyline
 90
2
 70
0
 10
350.8338248786007
 20
200.85449799814086
 10
217.0
 20
200.85449799814086
  0
LWPOLYLINE
  5
65
330
17
100
AcDbEntity
  8
OUTLINE
100
AcDbPolyline
 90
24
 70
0
 10
368.15026290552703
 20
227.3057940066081
 10
373.2477445169578
 20
226.6051612857793
 10
377.96716923669555
 20
224.5552258470154
 10
381.95851892320866
 20
221.30802202397888
 10
384.92577342945833
 20
217.1043800692553
 10
386.6488650630022
 20
212.2560648762442
 10
387.0
 20
207.122653803245
 10
385.95313616851
 20
202.08486846574903
 10
383.58591466983063
 20
197.51633835590394
 10
380.073901493201
 20
193.75589045232238
 10
375.6775665895405
 20
191.08241997310847
 10
370.72296600675986
 20
189.69420599339193
 10
365.57755980429425
 20
189.69420599339193
 10
360.62295922151355
 20
191.08241997310847
 10
356.2266243178531
 20
193.75589045232235
 10
352.7146111412235
 20
197.5163383559039
 10
350.34738964254404
 20
202.084868465749
 10
349.30052581105406
 20
207.12265380324496
 10
349.6516607480519
 20
212.25606487624418
 10
351.3747523815957
 20
217.10438006925528
 10
354.3420068878454
 20
221.30802202397885
 10
358.3333565743585
 20
224.55522584701538
 10
363.0527812940962
 20
226.6051612857793
 10
368.150262905527
 20
227.3057940066081
  0
LWPOLYLINE
  5
66
330
17
100
AcDbEntity
  8
OUTLINE
100
AcDbPolyline
 90
2
 70
0
 10
350.8338248786007
 20
215.96952428869355
 10
217.0
 20
215.96952428869355
  0
LWPOLYLINE
  5
67
330
17
100
AcDbEntity
  8
OUTLINE
100
AcDbPolyline
 90
2
 70
0
 10
217.0
 20
200.85449799814086
 10
217.0
 20
215.96952428869355
  0
LWPOLYLINE
  5
68
330
17
100
AcDbEntity
  8
OUTLINE
100
AcDbPolyline
 90
2
 70
0
 10
350.8338248786007
 20
200.85449799814086
 10
217.0
 20
200.85449799814086
  0
TEXT
  5
69
330
17
100
AcDbEntity
  8
TEXT
100
AcDbText
 10
217.0
 20
163.0
 30
0.0
 40
2.6
  1
END  (view scale 9.45:1)
100
AcDbText
  0
LWPOLYLINE
  5
6A
330
17
100
AcDbEntity
  8
DIM
100
AcDbPolyline
 90
2
 70
0
 10
96.44444444444444
 20
161.0
 10
117.55555555555556
 20
161.0
  0
LWPOLYLINE
  5
6B
330
17
100
AcDbEntity
  8
DIM
100
AcDbPolyline
 90
2
 70
0
 10
95.44444444444444
 20
160.0
 10
97.44444444444444
 20
162.0
  0
LWPOLYLINE
  5
6C
330
17
100
AcDbEntity
  8
DIM
100
AcDbPolyline
 90
2
 70
0
 10
116.55555555555556
 20
160.0
 10
118.55555555555556
 20
162.0
  0
TEXT
  5
6D
330
17
100
AcDbEntity
  8
DIM
100
AcDbText
 10
101.4
 20
163.0
 30
0.0
 40
2.8
  1
5.0004 X
100
AcDbText
  0
LWPOLYLINE
  5
6E
330
17
100
AcDbEntity
  8
DIM
100
AcDbPolyline
 90
2
 70
0
 10
202.0
 20
172.0
 10
202.0
 20
248.0
  0
LWPOLYLINE
  5
6F
330
17
100
AcDbEntity
  8
DIM
100
AcDbPolyline
 90
2
 70
0
 10
201.0
 20
171.0
 10
203.0
 20
173.0
  0
LWPOLYLINE
  5
70
330
17
100
AcDbEntity
  8
DIM
100
AcDbPolyline
 90
2
 70
0
 10
201.0
 20
247.0
 10
203.0
 20
249.0
  0
TEXT
  5
71
330
17
100
AcDbEntity
  8
DIM
100
AcDbText
 10
204.0
 20
210.0
 30
0.0
 40
2.8
  1
18.00 Y
100
AcDbText
  0
LWPOLYLINE
  5
72
330
17
100
AcDbEntity
  8
DIM
100
AcDbPolyline
 90
2
 70
0
 10
202.0
 20
70.0
 10
202.0
 20
130.0
  0
LWPOLYLINE
  5
73
330
17
100
AcDbEntity
  8
DIM
100
AcDbPolyline
 90
2
 70
0
 10
201.0
 20
69.0
 10
203.0
 20
71.0
  0
LWPOLYLINE
  5
74
330
17
100
AcDbEntity
  8
DIM
100
AcDbPolyline
 90
2
 70
0
 10
201.0
 20
129.0
 10
203.0
 20
131.0
  0
TEXT
  5
75
330
17
100
AcDbEntity
  8
DIM
100
AcDbText
 10
204.0
 20
100.0
 30
0.0
 40
2.8
  1
4.00 Z
100
AcDbText
  0
TEXT
  5
76
330
17
100
AcDbEntity
  8
TEXT
100
AcDbText
 10
218.0
 20
128.0
 30
0.0
 40
2.8
  1
NOMINAL contact separation5.00 alongX; tip DIA4.00.
100
AcDbText
  0
TEXT
  5
77
330
17
100
AcDbEntity
  8
TEXT
100
AcDbText
 10
218.0
 20
117.0
 30
0.0
 40
2.8
  1
Handle2.00 thick,16 reach; print on broad handle face.
100
AcDbText
  0
TEXT
  5
78
330
17
100
AcDbEntity
  8
TEXT
100
AcDbText
 10
218.0
 20
106.0
 30
0.0
 40
2.8
  1
Measure actual tip separation with calibrated caliper.
100
AcDbText
  0
TEXT
  5
79
330
17
100
AcDbEntity
  8
TEXT
100
AcDbText
 10
218.0
 20
95.0
 30
0.0
 40
2.8
  1
Fits inside5.80 cup aperture to contact magnet face.
100
AcDbText
  0
TEXT
  5
7A
330
17
100
AcDbEntity
  8
TEXT
100
AcDbText
 10
218.0
 20
84.0
 30
0.0
 40
2.8
  1
Remove gauge and metal caliper before switching trials.
100
AcDbText
  0
TEXT
  5
7B
330
17
100
AcDbEntity
  8
TEXT
100
AcDbText
 10
218.0
 20
73.0
 30
0.0
 40
2.8
  1
Printed nominal dimension is NOT a calibrated standard.
100
AcDbText
  0
TEXT
  5
7C
330
17
100
AcDbEntity
  8
TEXT
100
AcDbText
 10
218.0
 20
51.0
 30
0.0
 40
2.55
  1
General prototype target: +/-0.20mm unless called out.
100
AcDbText
  0
TEXT
  5
7D
330
17
100
AcDbEntity
  8
TEXT
100
AcDbText
 10
218.0
 20
41.0
 30
0.0
 40
2.55
  1
CAD is nominal. Fit, measure and qualify before calibration.
100
AcDbText
  0
ENDSEC
  0
SECTION
  2
OBJECTS
  0
DICTIONARY
  5
A
330
0
100
AcDbDictionary
281
1
  3
ACAD_COLOR
350
B
  3
ACAD_GROUP
350
C
  3
ACAD_LAYOUT
350
D
  3
ACAD_MATERIAL
350
E
  3
ACAD_MLEADERSTYLE
350
F
  3
ACAD_MLINESTYLE
350
10
  3
ACAD_PLOTSETTINGS
350
11
  3
ACAD_PLOTSTYLENAME
350
12
  3
ACAD_SCALELIST
350
14
  3
ACAD_TABLESTYLE
350
15
  3
ACAD_VISUALSTYLE
350
16
  3
EZDXF_META
350
2D
  0
DICTIONARY
  5
B
330
A
100
AcDbDictionary
281
1
  0
DICTIONARY
  5
C
330
A
100
AcDbDictionary
281
1
  0
DICTIONARY
  5
D
330
A
100
AcDbDictionary
281
1
  3
Model
350
1A
  3
Layout1
350
1E
  0
DICTIONARY
  5
E
330
A
100
AcDbDictionary
281
1
  3
ByBlock
350
1F
  3
ByLayer
350
20
  3
Global
350
21
  0
DICTIONARY
  5
F
330
A
100
AcDbDictionary
281
1
  3
Standard
350
2C
  0
DICTIONARY
  5
10
330
A
100
AcDbDictionary
281
1
  3
Standard
350
22
  0
DICTIONARY
  5
11
330
A
100
AcDbDictionary
281
1
  0
ACDBDICTIONARYWDFLT
  5
12
330
A
100
AcDbDictionary
281
1
  3
Normal
350
13
100
AcDbDictionaryWithDefault
340
13
  0
ACDBPLACEHOLDER
  5
13
330
12
  0
DICTIONARY
  5
14
330
A
100
AcDbDictionary
281
1
  0
DICTIONARY
  5
15
330
A
100
AcDbDictionary
281
1
  0
DICTIONARY
  5
16
330
A
100
AcDbDictionary
281
1
  0
LAYOUT
  5
1A
330
D
100
AcDbPlotSettings
  1

  4
A3
  6

 40
7.5
 41
20.0
 42
7.5
 43
20.0
 44
420.0
 45
297.0
 46
0.0
 47
0.0
 48
0.0
 49
0.0
140
0.0
141
0.0
142
1.0
143
1.0
 70
1024
 72
1
 73
0
 74
5
  7

 75
16
 76
0
 77
2
 78
300
147
1.0
148
0.0
149
0.0
100
AcDbLayout
  1
Model
 70
1
 71
0
 10
0.0
 20
0.0
 11
420.0
 21
297.0
 12
0.0
 22
0.0
 32
0.0
 14
1e+20
 24
1e+20
 34
1e+20
 15
-1e+20
 25
-1e+20
 35
-1e+20
146
0.0
 13
0.0
 23
0.0
 33
0.0
 16
1.0
 26
0.0
 36
0.0
 17
0.0
 27
1.0
 37
0.0
 76
1
330
17
  0
LAYOUT
  5
1E
330
D
100
AcDbPlotSettings
  1

  4
A3
  6

 40
7.5
 41
20.0
 42
7.5
 43
20.0
 44
420.0
 45
297.0
 46
0.0
 47
0.0
 48
0.0
 49
0.0
140
0.0
141
0.0
142
1.0
143
1.0
 70
0
 72
1
 73
0
 74
5
  7

 75
16
 76
0
 77
2
 78
300
147
1.0
148
0.0
149
0.0
100
AcDbLayout
  1
Layout1
 70
1
 71
1
 10
0.0
 20
0.0
 11
420.0
 21
297.0
 12
0.0
 22
0.0
 32
0.0
 14
1e+20
 24
1e+20
 34
1e+20
 15
-1e+20
 25
-1e+20
 35
-1e+20
146
0.0
 13
0.0
 23
0.0
 33
0.0
 16
1.0
 26
0.0
 36
0.0
 17
0.0
 27
1.0
 37
0.0
 76
1
330
1B
  0
MATERIAL
  5
1F
102
{ACAD_REACTORS
330
E
102
}
330
E
100
AcDbMaterial
  1
ByBlock
  2

 70
0
 40
1.0
 71
1
 41
1.0
 91
-1023410177
 42
1.0
 72
1
  3

 73
1
 74
1
 75
1
 44
0.5
 73
0
 45
1.0
 46
1.0
 77
1
  4

 78
1
 79
1
170
1
 48
1.0
171
1
  6

172
1
173
1
174
1
140
1.0
141
1.0
175
1
  7

176
1
177
1
178
1
143
1.0
179
1
  8

270
1
271
1
272
1
145
1.0
146
1.0
273
1
  9

274
1
275
1
276
1
 42
1.0
 72
1
  3

 73
1
 74
1
 75
1
 94
63
  0
MATERIAL
  5
20
102
{ACAD_REACTORS
330
E
102
}
330
E
100
AcDbMaterial
  1
ByLayer
  2

 70
0
 40
1.0
 71
1
 41
1.0
 91
-1023410177
 42
1.0
 72
1
  3

 73
1
 74
1
 75
1
 44
0.5
 73
0
 45
1.0
 46
1.0
 77
1
  4

 78
1
 79
1
170
1
 48
1.0
171
1
  6

172
1
173
1
174
1
140
1.0
141
1.0
175
1
  7

176
1
177
1
178
1
143
1.0
179
1
  8

270
1
271
1
272
1
145
1.0
146
1.0
273
1
  9

274
1
275
1
276
1
 42
1.0
 72
1
  3

 73
1
 74
1
 75
1
 94
63
  0
MATERIAL
  5
21
102
{ACAD_REACTORS
330
E
102
}
330
E
100
AcDbMaterial
  1
Global
  2

 70
0
 40
1.0
 71
1
 41
1.0
 91
-1023410177
 42
1.0
 72
1
  3

 73
1
 74
1
 75
1
 44
0.5
 73
0
 45
1.0
 46
1.0
 77
1
  4

 78
1
 79
1
170
1
 48
1.0
171
1
  6

172
1
173
1
174
1
140
1.0
141
1.0
175
1
  7

176
1
177
1
178
1
143
1.0
179
1
  8

270
1
271
1
272
1
145
1.0
146
1.0
273
1
  9

274
1
275
1
276
1
 42
1.0
 72
1
  3

 73
1
 74
1
 75
1
 94
63
  0
MLINESTYLE
  5
22
102
{ACAD_REACTORS
330
10
102
}
330
10
100
AcDbMlineStyle
  2
Standard
 70
0
  3

 62
256
 51
90.0
 52
90.0
 71
2
 49
0.5
 62
256
  6
BYLAYER
 49
-0.5
 62
256
  6
BYLAYER
  0
MLEADERSTYLE
  5
2C
102
{ACAD_REACTORS
330
F
102
}
330
F
100
AcDbMLeaderStyle
179
2
170
2
171
1
172
0
 90
2
 40
0.0
 41
0.0
173
1
 91
-1056964608
 92
-2
290
1
 42
2.0
291
1
 43
8.0
  3
Standard
 44
4.0
300

342
29
174
1
175
1
176
0
178
1
 93
-1056964608
 45
4.0
292
0
297
0
 46
4.0
 94
-1056964608
 47
1.0
 49
1.0
140
1.0
294
1
141
0.0
177
0
142
1.0
295
0
296
0
143
3.75
271
0
272
9
273
9
  0
DICTIONARY
  5
2D
330
A
100
AcDbDictionary
280
1
281
1
  3
CREATED_BY_EZDXF
350
2E
  3
WRITTEN_BY_EZDXF
350
80
  0
DICTIONARYVAR
  5
2E
330
2D
100
DictionaryVariables
280
0
  1
1.4.4 @ 2026-09-10T02:54:36.939302+00:00
  0
DICTIONARYVAR
  5
80
330
2D
100
DictionaryVariables
280
0
  1
1.4.4 @ 2026-09-10T02:54:36.961307+00:00
  0
ENDSEC
  0
EOF
