  0
SECTION
  2
HEADER
  9
$ACADVER
  1
AC1009
  9
$DWGCODEPAGE
  3
ANSI_1252
  9
$INSBASE
 10
0.0
 20
0.0
 30
0.0
  9
$EXTMIN
 10
1e+20
 20
1e+20
 30
1e+20
  9
$EXTMAX
 10
-1e+20
 20
-1e+20
 30
-1e+20
  9
$LIMMIN
 10
0.0
 20
0.0
  9
$LIMMAX
 10
420.0
 20
297.0
  9
$ORTHOMODE
 70
0
  9
$REGENMODE
 70
1
  9
$FILLMODE
 70
1
  9
$DRAGMODE
 70
2
  9
$QTEXTMODE
 70
0
  9
$MIRRTEXT
 70
1
  9
$OSMODE
 70
20583
  9
$LTSCALE
 40
1.0
  9
$ATTMODE
 70
1
  9
$TEXTSIZE
 40
2.5
  9
$TRACEWID
 40
1.0
  9
$TEXTSTYLE
  7
Standard
  9
$CLAYER
  8
0
  9
$CELTYPE
  6
ByLayer
  9
$CECOLOR
 62
256
  9
$DIMSCALE
 40
1.0
  9
$DIMASZ
 40
2.5
  9
$DIMEXO
 40
0.625
  9
$DIMDLI
 40
3.75
  9
$DIMRND
 40
0.0
  9
$DIMDLE
 40
0.0
  9
$DIMEXE
 40
1.25
  9
$DIMTP
 40
0.0
  9
$DIMTM
 40
0.0
  9
$DIMTXT
 40
2.5
  9
$DIMCEN
 40
2.5
  9
$DIMTSZ
 40
0.0
  9
$DIMTOL
 70
0
  9
$DIMLIM
 70
0
  9
$DIMTIH
 70
0
  9
$DIMTOH
 70
0
  9
$DIMSE1
 70
0
  9
$DIMSE2
 70
0
  9
$DIMTAD
 70
1
  9
$DIMZIN
 70
8
  9
$DIMBLK
  1

  9
$DIMASO
 70
1
  9
$DIMSHO
 70
1
  9
$DIMPOST
  1

  9
$DIMAPOST
  1

  9
$DIMALT
 70
0
  9
$DIMALTD
 70
3
  9
$DIMALTF
 40
0.03937007874
  9
$DIMLFAC
 40
1.0
  9
$DIMTOFL
 70
1
  9
$DIMTVP
 40
0.0
  9
$DIMTIX
 70
0
  9
$DIMSOXD
 70
0
  9
$DIMSAH
 70
0
  9
$DIMBLK1
  1

  9
$DIMBLK2
  1

  9
$DIMSTYLE
  2
ISO-25
  9
$DIMCLRD
 70
0
  9
$DIMCLRE
 70
0
  9
$DIMCLRT
 70
0
  9
$DIMTFAC
 40
1.0
  9
$DIMGAP
 40
0.625
  9
$COORDS
 70
1
  9
$ATTDIA
 70
0
  9
$ATTREQ
 70
1
  9
$HANDLING
 70
1
  9
$LUNITS
 70
2
  9
$LUPREC
 70
4
  9
$SKETCHINC
 40
1.0
  9
$FILLETRAD
 40
10.0
  9
$AUNITS
 70
0
  9
$AUPREC
 70
2
  9
$MENU
  1
.
  9
$ELEVATION
 40
0.0
  9
$PELEVATION
 40
0.0
  9
$THICKNESS
 40
0.0
  9
$LIMCHECK
 70
0
  9
$CHAMFERA
 40
0.0
  9
$CHAMFERB
 40
0.0
  9
$SKPOLY
 70
0
  9
$TDCREATE
 40
2461293.913252315
  9
$TDUPDATE
 40
2461293.913252315
  9
$TDINDWG
 40
0.0
  9
$TDUSRTIMER
 40
0.0
  9
$USRTIMER
 70
1
  9
$ANGBASE
 50
0.0
  9
$ANGDIR
 70
0
  9
$PDMODE
 70
0
  9
$PDSIZE
 40
0.0
  9
$PLINEWID
 40
0.0
  9
$SPLFRAME
 70
0
  9
$SPLINETYPE
 70
6
  9
$SPLINESEGS
 70
8
  9
$HANDSEED
  5
85
  9
$SURFTAB1
 70
6
  9
$SURFTAB2
 70
6
  9
$SURFTYPE
 70
6
  9
$SURFU
 70
6
  9
$SURFV
 70
6
  9
$UCSNAME
  2

  9
$UCSORG
 10
0.0
 20
0.0
 30
0.0
  9
$UCSXDIR
 10
1.0
 20
0.0
 30
0.0
  9
$UCSYDIR
 10
0.0
 20
1.0
 30
0.0
  9
$PUCSNAME
  2

  9
$PUCSORG
 10
0.0
 20
0.0
 30
0.0
  9
$PUCSXDIR
 10
1.0
 20
0.0
 30
0.0
  9
$PUCSYDIR
 10
0.0
 20
1.0
 30
0.0
  9
$USERI1
 70
0
  9
$USERI2
 70
0
  9
$USERI3
 70
0
  9
$USERI4
 70
0
  9
$USERI5
 70
0
  9
$USERR1
 40
0.0
  9
$USERR2
 40
0.0
  9
$USERR3
 40
0.0
  9
$USERR4
 40
0.0
  9
$USERR5
 40
0.0
  9
$WORLDVIEW
 70
1
  9
$SHADEDGE
 70
3
  9
$SHADEDIF
 70
70
  9
$TILEMODE
 70
1
  9
$MAXACTVP
 70
64
  9
$PLIMCHECK
 70
0
  9
$PEXTMIN
 10
1e+20
 20
1e+20
 30
1e+20
  9
$PEXTMAX
 10
-1e+20
 20
-1e+20
 30
-1e+20
  9
$PLIMMIN
 10
0.0
 20
0.0
  9
$PLIMMAX
 10
420.0
 20
297.0
  9
$UNITMODE
 70
0
  9
$VISRETAIN
 70
1
  9
$PLINEGEN
 70
0
  9
$PSLTSCALE
 70
1
  0
ENDSEC
  0
SECTION
  2
TABLES
  0
TABLE
  2
VPORT
 70
1
  0
VPORT
  5
82
  2
*Active
 70
0
 10
0.0
 20
0.0
 11
1.0
 21
1.0
 12
139.7
 22
107.95
 13
0.0
 23
0.0
 14
0.5
 24
0.5
 15
0.5
 25
0.5
 16
0.0
 26
0.0
 36
1.0
 17
0.0
 27
0.0
 37
0.0
 40
215.9
 41
1.34
 42
50.0
 43
0.0
 44
0.0
 50
0.0
 51
0.0
 71
0
 72
1000
 73
1
 74
3
 75
0
 76
0
 77
0
 78
0
  0
ENDTAB
  0
TABLE
  2
LTYPE
 70
3
  0
LTYPE
  5
24
  2
ByBlock
 70
0
  3

 72
65
 73
0
 40
0.0
  0
LTYPE
  5
25
  2
ByLayer
 70
0
  3

 72
65
 73
0
 40
0.0
  0
LTYPE
  5
26
  2
Continuous
 70
0
  3

 72
65
 73
0
 40
0.0
  0
ENDTAB
  0
TABLE
  2
LAYER
 70
7
  0
LAYER
  5
27
  2
0
 70
0
 62
7
  6
Continuous
  0
LAYER
  5
28
  2
Defpoints
 70
0
 62
7
  6
Continuous
  0
LAYER
  5
2D
  2
SUPPLY
 70
0
 62
1
  6
Continuous
  0
LAYER
  5
2E
  2
SIGNAL
 70
0
 62
5
  6
Continuous
  0
LAYER
  5
2F
  2
ANNOTATION
 70
0
 62
4
  6
Continuous
  0
LAYER
  5
30
  2
TEXT
 70
0
 62
7
  6
Continuous
  0
LAYER
  5
31
  2
GEOMETRY
 70
0
 62
8
  6
Continuous
  0
ENDTAB
  0
TABLE
  2
STYLE
 70
1
  0
STYLE
  5
29
  2
Standard
 70
0
 40
0.0
 41
1.0
 50
0.0
 71
0
 42
2.5
  3
txt
  4

  0
ENDTAB
  0
TABLE
  2
VIEW
 70
0
  0
ENDTAB
  0
TABLE
  2
UCS
 70
0
  0
ENDTAB
  0
TABLE
  2
APPID
 70
3
  0
APPID
  5
2A
  2
ACAD
 70
0
  0
APPID
  5
83
  2
HATCHBACKGROUNDCOLOR
 70
0
  0
APPID
  5
84
  2
EZDXF
 70
0
  0
ENDTAB
  0
TABLE
  2
DIMSTYLE
 70
1
  0
DIMSTYLE
105
2B
  2
Standard
 70
0
  3

  4

  5

  6

  7

 40
1.0
 41
2.5
 42
0.625
 43
3.75
 44
1.25
 45
0.0
 46
0.0
 47
0.0
 48
0.0
140
2.5
141
2.5
142
0.0
143
0.03937007874
144
1.0
145
0.0
146
1.0
147
0.625
 71
0
 72
0
 73
0
 74
0
 75
0
 76
0
 77
1
 78
8
170
0
171
3
172
1
173
0
174
0
175
0
176
0
177
0
178
0
  0
ENDTAB
  0
ENDSEC
  0
SECTION
  2
BLOCKS
  0
BLOCK
  5
18
  8
0
  2
$Model_Space
 70
0
 10
0.0
 20
0.0
 30
0.0
  3
$Model_Space
  1

1001
EZDXF
1000
CREATED_BY_EZDXF
1000
1.4.4 @ 2026-09-10T02:55:05.755533+00:00
1000
WRITTEN_BY_EZDXF
1000
1.4.4 @ 2026-09-10T02:55:05.758533+00:00
  0
ENDBLK
  5
19
  8
0
  0
BLOCK
  5
1C
  8
0
  2
$Paper_Space
 70
0
 10
0.0
 20
0.0
 30
0.0
  3
$Paper_Space
  1

  0
ENDBLK
  5
1D
  8
0
  0
ENDSEC
  0
SECTION
  2
ENTITIES
  0
LINE
  5
32
  8
TEXT
 62
7
 10
8.466666666666665
 20
8.466666666666665
 30
0.0
 11
270.9333333333333
 21
8.466666666666665
 31
0.0
  0
LINE
  5
33
  8
TEXT
 62
7
 10
270.9333333333333
 20
8.466666666666665
 30
0.0
 11
270.9333333333333
 21
207.4333333333333
 31
0.0
  0
LINE
  5
34
  8
TEXT
 62
7
 10
270.9333333333333
 20
207.4333333333333
 30
0.0
 11
8.466666666666665
 21
207.4333333333333
 31
0.0
  0
LINE
  5
35
  8
TEXT
 62
7
 10
8.466666666666665
 20
207.4333333333333
 30
0.0
 11
8.466666666666665
 21
8.466666666666665
 31
0.0
  0
TEXT
  5
36
  8
TEXT
 62
7
 10
14.816666666666665
 20
196.4972222222222
 30
0.0
 40
7.408333333333332
  1
Sensor circuit and oscilloscope
  0
TEXT
  5
37
  8
GEOMETRY
 62
8
 10
14.816666666666665
 20
189.08888888888887
 30
0.0
 40
3.175
  1
5.00 V bench circuit | one sensor per channel | magnetic ON is a LOW voltage
  0
LINE
  5
38
  8
TEXT
 62
7
 10
8.466666666666665
 20
22.930555555555554
 30
0.0
 11
270.9333333333333
 21
22.930555555555554
 31
0.0
  0
LINE
  5
39
  8
TEXT
 62
7
 10
213.43055555555554
 20
8.466666666666665
 30
0.0
 11
213.43055555555554
 21
22.930555555555554
 31
0.0
  0
TEXT
  5
3A
  8
TEXT
 62
7
 10
13.405555555555555
 20
15.874999999999998
 30
0.0
 40
3.5277777777777777
  1
HALL SENSOR CALIBRATION | 55100-3H | Rev A
  0
TEXT
  5
3B
  8
GEOMETRY
 62
8
 10
13.405555555555555
 20
10.93611111111111
 30
0.0
 40
2.469444444444444
  1
Concept test drawing. Circuit NTS. CAD geometry in mm. Verify actual lead colors before energizing.
  0
TEXT
  5
3C
  8
ANNOTATION
 62
4
 10
218.01666666666665
 20
15.874999999999998
 30
0.0
 40
3.880555555555555
  1
E-01
  0
TEXT
  5
3D
  8
GEOMETRY
 62
8
 10
218.01666666666665
 20
10.93611111111111
 30
0.0
 40
2.822222222222222
  1
2026-09-09 | Sheet 1
  0
LINE
  5
3E
  8
TEXT
 62
7
 10
15.874999999999998
 20
73.02499999999999
 30
0.0
 11
62.44166666666666
 21
73.02499999999999
 31
0.0
  0
LINE
  5
3F
  8
TEXT
 62
7
 10
62.44166666666666
 20
73.02499999999999
 30
0.0
 11
62.44166666666666
 21
140.05277777777778
 31
0.0
  0
LINE
  5
40
  8
TEXT
 62
7
 10
62.44166666666666
 20
140.05277777777778
 30
0.0
 11
15.874999999999998
 21
140.05277777777778
 31
0.0
  0
LINE
  5
41
  8
TEXT
 62
7
 10
15.874999999999998
 20
140.05277777777778
 30
0.0
 11
15.874999999999998
 21
73.02499999999999
 31
0.0
  0
TEXT
  5
42
  8
TEXT
 62
7
 10
21.87222222222222
 20
130.88055555555553
 30
0.0
 40
3.880555555555555
  1
PS1  DC SUPPLY
  0
TEXT
  5
43
  8
TEXT
 62
7
 10
21.87222222222222
 20
121.70833333333333
 30
0.0
 40
3.880555555555555
  1
Set 5.00 V DC
  0
TEXT
  5
44
  8
TEXT
 62
7
 10
21.87222222222222
 20
113.94722222222221
 30
0.0
 40
3.175
  1
Current limit 20 mA
  0
TEXT
  5
45
  8
TEXT
 62
7
 10
21.87222222222222
 20
106.1861111111111
 30
0.0
 40
2.822222222222222
  1
Output OFF while wiring
  0
TEXT
  5
46
  8
SUPPLY
 62
1
 10
48.68333333333333
 20
134.7611111111111
 30
0.0
 40
4.2333333333333325
  1
+
  0
TEXT
  5
47
  8
GEOMETRY
 62
8
 10
48.68333333333333
 20
76.90555555555555
 30
0.0
 40
4.2333333333333325
  1
-
  0
LINE
  5
48
  8
SUPPLY
 62
1
 10
62.44166666666666
 20
135.81944444444443
 30
0.0
 11
203.90555555555554
 21
135.81944444444443
 31
0.0
  0
LINE
  5
49
  8
GEOMETRY
 62
8
 10
62.44166666666666
 20
77.6111111111111
 30
0.0
 11
246.94444444444443
 21
77.6111111111111
 31
0.0
  0
CIRCLE
  5
4A
  8
SUPPLY
 62
1
 10
123.47222222222221
 20
135.81944444444443
 30
0.0
 40
0.8113888888888887
  0
LINE
  5
4B
  8
SUPPLY
 62
1
 10
123.47222222222221
 20
135.81944444444443
 30
0.0
 11
123.47222222222221
 21
122.76666666666665
 31
0.0
  0
LINE
  5
4C
  8
TEXT
 62
7
 10
109.3611111111111
 20
91.72222222222221
 30
0.0
 11
162.27777777777777
 21
91.72222222222221
 31
0.0
  0
LINE
  5
4D
  8
TEXT
 62
7
 10
162.27777777777777
 20
91.72222222222221
 30
0.0
 11
162.27777777777777
 21
122.76666666666665
 31
0.0
  0
LINE
  5
4E
  8
TEXT
 62
7
 10
162.27777777777777
 20
122.76666666666665
 30
0.0
 11
109.3611111111111
 21
122.76666666666665
 31
0.0
  0
LINE
  5
4F
  8
TEXT
 62
7
 10
109.3611111111111
 20
122.76666666666665
 30
0.0
 11
109.3611111111111
 21
91.72222222222221
 31
0.0
  0
TEXT
  5
50
  8
TEXT
 62
7
 10
113.94722222222221
 20
113.94722222222221
 30
0.0
 40
4.2333333333333325
  1
U1  55100-3H
  0
TEXT
  5
51
  8
SUPPLY
 62
1
 10
113.94722222222221
 20
107.94999999999999
 30
0.0
 40
3.175
  1
Red = +V / pin 1
  0
TEXT
  5
52
  8
TEXT
 62
7
 10
113.94722222222221
 20
102.65833333333332
 30
0.0
 40
3.175
  1
Black = GND / pin 2
  0
TEXT
  5
53
  8
SIGNAL
 62
5
 10
113.94722222222221
 20
97.36666666666666
 30
0.0
 40
3.175
  1
Blue = OUT / pin 3
  0
LINE
  5
54
  8
GEOMETRY
 62
8
 10
123.47222222222221
 20
91.72222222222221
 30
0.0
 11
123.47222222222221
 21
77.6111111111111
 31
0.0
  0
CIRCLE
  5
55
  8
GEOMETRY
 62
8
 10
123.47222222222221
 20
77.6111111111111
 30
0.0
 40
0.8113888888888887
  0
LINE
  5
56
  8
SIGNAL
 62
5
 10
162.27777777777777
 20
103.0111111111111
 30
0.0
 11
229.6583333333333
 21
103.0111111111111
 31
0.0
  0
CIRCLE
  5
57
  8
SIGNAL
 62
5
 10
203.90555555555554
 20
103.0111111111111
 30
0.0
 40
0.8113888888888887
  0
TEXT
  5
58
  8
SIGNAL
 62
5
 10
167.56944444444443
 20
97.71944444444443
 30
0.0
 40
3.175
  1
TP1 / OUT
  0
LINE
  5
59
  8
SUPPLY
 62
1
 10
203.90555555555554
 20
135.81944444444443
 30
0.0
 11
203.90555555555554
 21
129.46944444444443
 31
0.0
  0
LINE
  5
5A
  8
GEOMETRY
 62
8
 10
201.4361111111111
 20
113.94722222222221
 30
0.0
 11
206.37499999999997
 21
113.94722222222221
 31
0.0
  0
LINE
  5
5B
  8
GEOMETRY
 62
8
 10
206.37499999999997
 20
113.94722222222221
 30
0.0
 11
206.37499999999997
 21
129.46944444444443
 31
0.0
  0
LINE
  5
5C
  8
GEOMETRY
 62
8
 10
206.37499999999997
 20
129.46944444444443
 30
0.0
 11
201.4361111111111
 21
129.46944444444443
 31
0.0
  0
LINE
  5
5D
  8
GEOMETRY
 62
8
 10
201.4361111111111
 20
129.46944444444443
 30
0.0
 11
201.4361111111111
 21
113.94722222222221
 31
0.0
  0
LINE
  5
5E
  8
SIGNAL
 62
5
 10
203.90555555555554
 20
113.94722222222221
 30
0.0
 11
203.90555555555554
 21
103.0111111111111
 31
0.0
  0
TEXT
  5
5F
  8
TEXT
 62
7
 10
208.49166666666665
 20
123.11944444444444
 30
0.0
 40
3.5277777777777777
  1
R1
  0
TEXT
  5
60
  8
TEXT
 62
7
 10
208.49166666666665
 20
117.82777777777777
 30
0.0
 40
3.175
  1
4.7 kohm
  0
TEXT
  5
61
  8
TEXT
 62
7
 10
208.49166666666665
 20
112.88888888888889
 30
0.0
 40
2.822222222222222
  1
1/4 W, 5%
  0
CIRCLE
  5
62
  8
SUPPLY
 62
1
 10
86.43055555555554
 20
135.81944444444443
 30
0.0
 40
0.8113888888888887
  0
LINE
  5
63
  8
SUPPLY
 62
1
 10
86.43055555555554
 20
135.81944444444443
 30
0.0
 11
86.43055555555554
 21
109.71388888888887
 31
0.0
  0
LINE
  5
64
  8
GEOMETRY
 62
8
 10
82.19722222222221
 20
109.71388888888887
 30
0.0
 11
90.66388888888888
 21
109.71388888888887
 31
0.0
  0
LINE
  5
65
  8
GEOMETRY
 62
8
 10
82.19722222222221
 20
106.89166666666665
 30
0.0
 11
90.66388888888888
 21
106.89166666666665
 31
0.0
  0
LINE
  5
66
  8
GEOMETRY
 62
8
 10
86.43055555555554
 20
106.89166666666665
 30
0.0
 11
86.43055555555554
 21
77.6111111111111
 31
0.0
  0
CIRCLE
  5
67
  8
GEOMETRY
 62
8
 10
86.43055555555554
 20
77.6111111111111
 30
0.0
 40
0.8113888888888887
  0
TEXT
  5
68
  8
TEXT
 62
7
 10
71.61388888888888
 20
118.53333333333332
 30
0.0
 40
3.5277777777777777
  1
C1
  0
TEXT
  5
69
  8
TEXT
 62
7
 10
69.49722222222222
 20
102.65833333333332
 30
0.0
 40
3.175
  1
0.1 uF
  0
TEXT
  5
6A
  8
TEXT
 62
7
 10
69.49722222222222
 20
97.71944444444443
 30
0.0
 40
2.822222222222222
  1
50 V ceramic
  0
TEXT
  5
6B
  8
TEXT
 62
7
 10
68.79166666666666
 20
91.36944444444444
 30
0.0
 40
2.822222222222222
  1
Optional; near U1
  0
LINE
  5
6C
  8
TEXT
 62
7
 10
229.30555555555554
 20
97.71944444444443
 30
0.0
 11
265.2888888888889
 21
97.71944444444443
 31
0.0
  0
LINE
  5
6D
  8
TEXT
 62
7
 10
265.2888888888889
 20
97.71944444444443
 30
0.0
 11
265.2888888888889
 21
142.5222222222222
 31
0.0
  0
LINE
  5
6E
  8
TEXT
 62
7
 10
265.2888888888889
 20
142.5222222222222
 30
0.0
 11
229.30555555555554
 21
142.5222222222222
 31
0.0
  0
LINE
  5
6F
  8
TEXT
 62
7
 10
229.30555555555554
 20
142.5222222222222
 30
0.0
 11
229.30555555555554
 21
97.71944444444443
 31
0.0
  0
TEXT
  5
70
  8
TEXT
 62
7
 10
233.1861111111111
 20
134.7611111111111
 30
0.0
 40
3.175
  1
OSCILLOSCOPE
  0
TEXT
  5
71
  8
TEXT
 62
7
 10
233.1861111111111
 20
127.70555555555555
 30
0.0
 40
3.175
  1
CH1 / input A
  0
TEXT
  5
72
  8
TEXT
 62
7
 10
233.1861111111111
 20
122.0611111111111
 30
0.0
 40
3.175
  1
DC coupling
  0
TEXT
  5
73
  8
TEXT
 62
7
 10
233.1861111111111
 20
116.41666666666666
 30
0.0
 40
2.822222222222222
  1
High impedance
  0
TEXT
  5
74
  8
SIGNAL
 62
5
 10
233.1861111111111
 20
110.41944444444444
 30
0.0
 40
2.822222222222222
  1
Tip to TP1
  0
TEXT
  5
75
  8
TEXT
 62
7
 10
233.1861111111111
 20
101.95277777777777
 30
0.0
 40
2.469444444444444
  1
Reference to GND
  0
LINE
  5
76
  8
GEOMETRY
 62
8
 10
246.94444444444443
 20
97.71944444444443
 30
0.0
 11
246.94444444444443
 21
77.6111111111111
 31
0.0
  0
CIRCLE
  5
77
  8
GEOMETRY
 62
8
 10
246.94444444444443
 20
77.6111111111111
 30
0.0
 40
0.8113888888888887
  0
TEXT
  5
78
  8
GEOMETRY
 62
8
 10
177.09444444444443
 20
72.67222222222222
 30
0.0
 40
3.175
  1
TP0 / common GND
  0
TEXT
  5
79
  8
ANNOTATION
 62
4
 10
14.816666666666665
 20
166.15833333333333
 30
0.0
 40
3.5277777777777777
  1
MAGNETIC AND ELECTRICAL STATES
  0
TEXT
  5
7A
  8
TEXT
 62
7
 10
14.816666666666665
 20
158.3972222222222
 30
0.0
 40
3.5277777777777777
  1
South pole presented to active face; B exceeds operate threshold: ON -> OUT LOW.
  0
TEXT
  5
7B
  8
TEXT
 62
7
 10
14.816666666666665
 20
152.04722222222222
 30
0.0
 40
3.5277777777777777
  1
Withdraw until B falls below release threshold: OFF -> OUT pulled HIGH toward +5 V.
  0
TEXT
  5
7C
  8
TEXT
 62
7
 10
14.816666666666665
 20
62.08888888888888
 30
0.0
 40
3.5277777777777777
  1
Pullup check at 5 V: I <= 5 / 4700 = 1.064 mA; P <= 25 / 4700 = 0.00532 W.
  0
TEXT
  5
7D
  8
TEXT
 62
7
 10
14.816666666666665
 20
55.386111111111106
 30
0.0
 40
3.175
  1
At +5% supply and -5% resistor: I <= 1.176 mA, P <= 0.00618 W. A 1/4 W resistor is ample.
  0
TEXT
  5
7E
  8
TEXT
 62
7
 10
14.816666666666665
 20
47.977777777777774
 30
0.0
 40
3.175
  1
Use >=1 Mohm scope input; 1x supplied Fluke leads or matched 10x probe. Do not use 50 ohm termination.
  0
TEXT
  5
7F
  8
TEXT
 62
7
 10
14.816666666666665
 20
41.275
 30
0.0
 40
3.175
  1
Start at 1 V/div, 100 ms/div, falling trigger at 2.5 V for approach; rising trigger for withdrawal.
  0
TEXT
  5
80
  8
TEXT
 62
7
 10
14.816666666666665
 20
34.572222222222216
 30
0.0
 40
3.175
  1
Connect every probe ground to TP0 only. For two sensors duplicate U1/R1/C1; keep the outputs separate.
  0
TEXT
  5
81
  8
GEOMETRY
 62
8
 10
14.816666666666665
 20
27.869444444444444
 30
0.0
 40
2.822222222222222
  1
Manufacturer basis: Littelfuse 55100 datasheet, GD.05/16/23, pp. 2-3. Connections are red/black/blue.
  0
ENDSEC
  0
EOF
