  0
SECTION
  2
HEADER
  9
$ACADVER
  1
AC1009
  9
$DWGCODEPAGE
  3
ANSI_1252
  9
$INSBASE
 10
0.0
 20
0.0
 30
0.0
  9
$EXTMIN
 10
1e+20
 20
1e+20
 30
1e+20
  9
$EXTMAX
 10
-1e+20
 20
-1e+20
 30
-1e+20
  9
$LIMMIN
 10
0.0
 20
0.0
  9
$LIMMAX
 10
420.0
 20
297.0
  9
$ORTHOMODE
 70
0
  9
$REGENMODE
 70
1
  9
$FILLMODE
 70
1
  9
$DRAGMODE
 70
2
  9
$QTEXTMODE
 70
0
  9
$MIRRTEXT
 70
1
  9
$OSMODE
 70
20583
  9
$LTSCALE
 40
1.0
  9
$ATTMODE
 70
1
  9
$TEXTSIZE
 40
2.5
  9
$TRACEWID
 40
1.0
  9
$TEXTSTYLE
  7
Standard
  9
$CLAYER
  8
0
  9
$CELTYPE
  6
ByLayer
  9
$CECOLOR
 62
256
  9
$DIMSCALE
 40
1.0
  9
$DIMASZ
 40
2.5
  9
$DIMEXO
 40
0.625
  9
$DIMDLI
 40
3.75
  9
$DIMRND
 40
0.0
  9
$DIMDLE
 40
0.0
  9
$DIMEXE
 40
1.25
  9
$DIMTP
 40
0.0
  9
$DIMTM
 40
0.0
  9
$DIMTXT
 40
2.5
  9
$DIMCEN
 40
2.5
  9
$DIMTSZ
 40
0.0
  9
$DIMTOL
 70
0
  9
$DIMLIM
 70
0
  9
$DIMTIH
 70
0
  9
$DIMTOH
 70
0
  9
$DIMSE1
 70
0
  9
$DIMSE2
 70
0
  9
$DIMTAD
 70
1
  9
$DIMZIN
 70
8
  9
$DIMBLK
  1

  9
$DIMASO
 70
1
  9
$DIMSHO
 70
1
  9
$DIMPOST
  1

  9
$DIMAPOST
  1

  9
$DIMALT
 70
0
  9
$DIMALTD
 70
3
  9
$DIMALTF
 40
0.03937007874
  9
$DIMLFAC
 40
1.0
  9
$DIMTOFL
 70
1
  9
$DIMTVP
 40
0.0
  9
$DIMTIX
 70
0
  9
$DIMSOXD
 70
0
  9
$DIMSAH
 70
0
  9
$DIMBLK1
  1

  9
$DIMBLK2
  1

  9
$DIMSTYLE
  2
ISO-25
  9
$DIMCLRD
 70
0
  9
$DIMCLRE
 70
0
  9
$DIMCLRT
 70
0
  9
$DIMTFAC
 40
1.0
  9
$DIMGAP
 40
0.625
  9
$COORDS
 70
1
  9
$ATTDIA
 70
0
  9
$ATTREQ
 70
1
  9
$HANDLING
 70
1
  9
$LUNITS
 70
2
  9
$LUPREC
 70
4
  9
$SKETCHINC
 40
1.0
  9
$FILLETRAD
 40
10.0
  9
$AUNITS
 70
0
  9
$AUPREC
 70
2
  9
$MENU
  1
.
  9
$ELEVATION
 40
0.0
  9
$PELEVATION
 40
0.0
  9
$THICKNESS
 40
0.0
  9
$LIMCHECK
 70
0
  9
$CHAMFERA
 40
0.0
  9
$CHAMFERB
 40
0.0
  9
$SKPOLY
 70
0
  9
$TDCREATE
 40
2461293.913252315
  9
$TDUPDATE
 40
2461293.913252315
  9
$TDINDWG
 40
0.0
  9
$TDUSRTIMER
 40
0.0
  9
$USRTIMER
 70
1
  9
$ANGBASE
 50
0.0
  9
$ANGDIR
 70
0
  9
$PDMODE
 70
0
  9
$PDSIZE
 40
0.0
  9
$PLINEWID
 40
0.0
  9
$SPLFRAME
 70
0
  9
$SPLINETYPE
 70
6
  9
$SPLINESEGS
 70
8
  9
$HANDSEED
  5
185
  9
$SURFTAB1
 70
6
  9
$SURFTAB2
 70
6
  9
$SURFTYPE
 70
6
  9
$SURFU
 70
6
  9
$SURFV
 70
6
  9
$UCSNAME
  2

  9
$UCSORG
 10
0.0
 20
0.0
 30
0.0
  9
$UCSXDIR
 10
1.0
 20
0.0
 30
0.0
  9
$UCSYDIR
 10
0.0
 20
1.0
 30
0.0
  9
$PUCSNAME
  2

  9
$PUCSORG
 10
0.0
 20
0.0
 30
0.0
  9
$PUCSXDIR
 10
1.0
 20
0.0
 30
0.0
  9
$PUCSYDIR
 10
0.0
 20
1.0
 30
0.0
  9
$USERI1
 70
0
  9
$USERI2
 70
0
  9
$USERI3
 70
0
  9
$USERI4
 70
0
  9
$USERI5
 70
0
  9
$USERR1
 40
0.0
  9
$USERR2
 40
0.0
  9
$USERR3
 40
0.0
  9
$USERR4
 40
0.0
  9
$USERR5
 40
0.0
  9
$WORLDVIEW
 70
1
  9
$SHADEDGE
 70
3
  9
$SHADEDIF
 70
70
  9
$TILEMODE
 70
1
  9
$MAXACTVP
 70
64
  9
$PLIMCHECK
 70
0
  9
$PEXTMIN
 10
1e+20
 20
1e+20
 30
1e+20
  9
$PEXTMAX
 10
-1e+20
 20
-1e+20
 30
-1e+20
  9
$PLIMMIN
 10
0.0
 20
0.0
  9
$PLIMMAX
 10
420.0
 20
297.0
  9
$UNITMODE
 70
0
  9
$VISRETAIN
 70
1
  9
$PLINEGEN
 70
0
  9
$PSLTSCALE
 70
1
  0
ENDSEC
  0
SECTION
  2
TABLES
  0
TABLE
  2
VPORT
 70
1
  0
VPORT
  5
182
  2
*Active
 70
0
 10
0.0
 20
0.0
 11
1.0
 21
1.0
 12
139.7
 22
107.95
 13
0.0
 23
0.0
 14
0.5
 24
0.5
 15
0.5
 25
0.5
 16
0.0
 26
0.0
 36
1.0
 17
0.0
 27
0.0
 37
0.0
 40
215.9
 41
1.34
 42
50.0
 43
0.0
 44
0.0
 50
0.0
 51
0.0
 71
0
 72
1000
 73
1
 74
3
 75
0
 76
0
 77
0
 78
0
  0
ENDTAB
  0
TABLE
  2
LTYPE
 70
3
  0
LTYPE
  5
24
  2
ByBlock
 70
0
  3

 72
65
 73
0
 40
0.0
  0
LTYPE
  5
25
  2
ByLayer
 70
0
  3

 72
65
 73
0
 40
0.0
  0
LTYPE
  5
26
  2
Continuous
 70
0
  3

 72
65
 73
0
 40
0.0
  0
ENDTAB
  0
TABLE
  2
LAYER
 70
7
  0
LAYER
  5
27
  2
0
 70
0
 62
7
  6
Continuous
  0
LAYER
  5
28
  2
Defpoints
 70
0
 62
7
  6
Continuous
  0
LAYER
  5
2D
  2
SUPPLY
 70
0
 62
1
  6
Continuous
  0
LAYER
  5
2E
  2
SIGNAL
 70
0
 62
5
  6
Continuous
  0
LAYER
  5
2F
  2
ANNOTATION
 70
0
 62
4
  6
Continuous
  0
LAYER
  5
30
  2
TEXT
 70
0
 62
7
  6
Continuous
  0
LAYER
  5
31
  2
GEOMETRY
 70
0
 62
8
  6
Continuous
  0
ENDTAB
  0
TABLE
  2
STYLE
 70
1
  0
STYLE
  5
29
  2
Standard
 70
0
 40
0.0
 41
1.0
 50
0.0
 71
0
 42
2.5
  3
txt
  4

  0
ENDTAB
  0
TABLE
  2
VIEW
 70
0
  0
ENDTAB
  0
TABLE
  2
UCS
 70
0
  0
ENDTAB
  0
TABLE
  2
APPID
 70
3
  0
APPID
  5
2A
  2
ACAD
 70
0
  0
APPID
  5
183
  2
HATCHBACKGROUNDCOLOR
 70
0
  0
APPID
  5
184
  2
EZDXF
 70
0
  0
ENDTAB
  0
TABLE
  2
DIMSTYLE
 70
1
  0
DIMSTYLE
105
2B
  2
Standard
 70
0
  3

  4

  5

  6

  7

 40
1.0
 41
2.5
 42
0.625
 43
3.75
 44
1.25
 45
0.0
 46
0.0
 47
0.0
 48
0.0
140
2.5
141
2.5
142
0.0
143
0.03937007874
144
1.0
145
0.0
146
1.0
147
0.625
 71
0
 72
0
 73
0
 74
0
 75
0
 76
0
 77
1
 78
8
170
0
171
3
172
1
173
0
174
0
175
0
176
0
177
0
178
0
  0
ENDTAB
  0
ENDSEC
  0
SECTION
  2
BLOCKS
  0
BLOCK
  5
18
  8
0
  2
$Model_Space
 70
0
 10
0.0
 20
0.0
 30
0.0
  3
$Model_Space
  1

1001
EZDXF
1000
CREATED_BY_EZDXF
1000
1.4.4 @ 2026-09-10T02:55:05.765535+00:00
1000
WRITTEN_BY_EZDXF
1000
1.4.4 @ 2026-09-10T02:55:05.772536+00:00
  0
ENDBLK
  5
19
  8
0
  0
BLOCK
  5
1C
  8
0
  2
$Paper_Space
 70
0
 10
0.0
 20
0.0
 30
0.0
  3
$Paper_Space
  1

  0
ENDBLK
  5
1D
  8
0
  0
ENDSEC
  0
SECTION
  2
ENTITIES
  0
LINE
  5
32
  8
TEXT
 62
7
 10
8.466666666666665
 20
8.466666666666665
 30
0.0
 11
270.9333333333333
 21
8.466666666666665
 31
0.0
  0
LINE
  5
33
  8
TEXT
 62
7
 10
270.9333333333333
 20
8.466666666666665
 30
0.0
 11
270.9333333333333
 21
207.4333333333333
 31
0.0
  0
LINE
  5
34
  8
TEXT
 62
7
 10
270.9333333333333
 20
207.4333333333333
 30
0.0
 11
8.466666666666665
 21
207.4333333333333
 31
0.0
  0
LINE
  5
35
  8
TEXT
 62
7
 10
8.466666666666665
 20
207.4333333333333
 30
0.0
 11
8.466666666666665
 21
8.466666666666665
 31
0.0
  0
TEXT
  5
36
  8
TEXT
 62
7
 10
14.816666666666665
 20
196.4972222222222
 30
0.0
 40
7.408333333333332
  1
Breadboard placement and node map
  0
TEXT
  5
37
  8
GEOMETRY
 62
8
 10
14.816666666666665
 20
189.08888888888887
 30
0.0
 40
3.175
  1
McMaster 1388N14, 830 contact numbered breadboard with jumpers | rows 1-22 shown | power rails unused
  0
LINE
  5
38
  8
TEXT
 62
7
 10
8.466666666666665
 20
22.930555555555554
 30
0.0
 11
270.9333333333333
 21
22.930555555555554
 31
0.0
  0
LINE
  5
39
  8
TEXT
 62
7
 10
213.43055555555554
 20
8.466666666666665
 30
0.0
 11
213.43055555555554
 21
22.930555555555554
 31
0.0
  0
TEXT
  5
3A
  8
TEXT
 62
7
 10
13.405555555555555
 20
15.874999999999998
 30
0.0
 40
3.5277777777777777
  1
HALL SENSOR CALIBRATION | 55100-3H | Rev A
  0
TEXT
  5
3B
  8
GEOMETRY
 62
8
 10
13.405555555555555
 20
10.93611111111111
 30
0.0
 40
2.469444444444444
  1
Concept test drawing. Circuit NTS. CAD geometry in mm. Verify actual lead colors before energizing.
  0
TEXT
  5
3C
  8
ANNOTATION
 62
4
 10
218.01666666666665
 20
15.874999999999998
 30
0.0
 40
3.880555555555555
  1
E-02
  0
TEXT
  5
3D
  8
GEOMETRY
 62
8
 10
218.01666666666665
 20
10.93611111111111
 30
0.0
 40
2.822222222222222
  1
2026-09-09 | Sheet 2
  0
LINE
  5
3E
  8
GEOMETRY
 62
8
 10
95.24999999999999
 20
67.02777777777777
 30
0.0
 11
180.975
 21
67.02777777777777
 31
0.0
  0
LINE
  5
3F
  8
GEOMETRY
 62
8
 10
180.975
 20
67.02777777777777
 30
0.0
 11
180.975
 21
176.74166666666665
 31
0.0
  0
LINE
  5
40
  8
GEOMETRY
 62
8
 10
180.975
 20
176.74166666666665
 30
0.0
 11
95.24999999999999
 21
176.74166666666665
 31
0.0
  0
LINE
  5
41
  8
GEOMETRY
 62
8
 10
95.24999999999999
 20
176.74166666666665
 30
0.0
 11
95.24999999999999
 21
67.02777777777777
 31
0.0
  0
TEXT
  5
42
  8
TEXT
 62
7
 10
100.43583333333332
 20
173.21388888888887
 30
0.0
 40
2.469444444444444
  1
a
  0
CIRCLE
  5
43
  8
GEOMETRY
 62
8
 10
101.24722222222222
 20
170.74444444444444
 30
0.0
 40
0.7055555555555555
  0
CIRCLE
  5
44
  8
GEOMETRY
 62
8
 10
101.24722222222222
 20
166.15833333333333
 30
0.0
 40
0.7055555555555555
  0
CIRCLE
  5
45
  8
GEOMETRY
 62
8
 10
101.24722222222222
 20
161.5722222222222
 30
0.0
 40
0.7055555555555555
  0
CIRCLE
  5
46
  8
GEOMETRY
 62
8
 10
101.24722222222222
 20
156.9861111111111
 30
0.0
 40
0.7055555555555555
  0
CIRCLE
  5
47
  8
GEOMETRY
 62
8
 10
101.24722222222222
 20
152.39999999999998
 30
0.0
 40
0.7055555555555555
  0
CIRCLE
  5
48
  8
GEOMETRY
 62
8
 10
101.24722222222222
 20
147.81388888888887
 30
0.0
 40
0.7055555555555555
  0
CIRCLE
  5
49
  8
GEOMETRY
 62
8
 10
101.24722222222222
 20
143.22777777777776
 30
0.0
 40
0.7055555555555555
  0
CIRCLE
  5
4A
  8
GEOMETRY
 62
8
 10
101.24722222222222
 20
138.64166666666665
 30
0.0
 40
0.7055555555555555
  0
CIRCLE
  5
4B
  8
GEOMETRY
 62
8
 10
101.24722222222222
 20
134.05555555555554
 30
0.0
 40
0.7055555555555555
  0
CIRCLE
  5
4C
  8
GEOMETRY
 62
8
 10
101.24722222222222
 20
129.46944444444443
 30
0.0
 40
0.7055555555555555
  0
CIRCLE
  5
4D
  8
GEOMETRY
 62
8
 10
101.24722222222222
 20
124.88333333333333
 30
0.0
 40
0.7055555555555555
  0
CIRCLE
  5
4E
  8
GEOMETRY
 62
8
 10
101.24722222222222
 20
120.29722222222222
 30
0.0
 40
0.7055555555555555
  0
CIRCLE
  5
4F
  8
GEOMETRY
 62
8
 10
101.24722222222222
 20
115.7111111111111
 30
0.0
 40
0.7055555555555555
  0
CIRCLE
  5
50
  8
GEOMETRY
 62
8
 10
101.24722222222222
 20
111.12499999999999
 30
0.0
 40
0.7055555555555555
  0
CIRCLE
  5
51
  8
GEOMETRY
 62
8
 10
101.24722222222222
 20
106.53888888888888
 30
0.0
 40
0.7055555555555555
  0
CIRCLE
  5
52
  8
GEOMETRY
 62
8
 10
101.24722222222222
 20
101.95277777777777
 30
0.0
 40
0.7055555555555555
  0
CIRCLE
  5
53
  8
GEOMETRY
 62
8
 10
101.24722222222222
 20
97.36666666666666
 30
0.0
 40
0.7055555555555555
  0
CIRCLE
  5
54
  8
GEOMETRY
 62
8
 10
101.24722222222222
 20
92.78055555555555
 30
0.0
 40
0.7055555555555555
  0
CIRCLE
  5
55
  8
GEOMETRY
 62
8
 10
101.24722222222222
 20
88.19444444444444
 30
0.0
 40
0.7055555555555555
  0
CIRCLE
  5
56
  8
GEOMETRY
 62
8
 10
101.24722222222222
 20
83.60833333333332
 30
0.0
 40
0.7055555555555555
  0
CIRCLE
  5
57
  8
GEOMETRY
 62
8
 10
101.24722222222222
 20
79.02222222222221
 30
0.0
 40
0.7055555555555555
  0
CIRCLE
  5
58
  8
GEOMETRY
 62
8
 10
101.24722222222222
 20
74.4361111111111
 30
0.0
 40
0.7055555555555555
  0
TEXT
  5
59
  8
TEXT
 62
7
 10
106.78583333333331
 20
173.21388888888887
 30
0.0
 40
2.469444444444444
  1
b
  0
CIRCLE
  5
5A
  8
GEOMETRY
 62
8
 10
107.59722222222221
 20
170.74444444444444
 30
0.0
 40
0.7055555555555555
  0
CIRCLE
  5
5B
  8
GEOMETRY
 62
8
 10
107.59722222222221
 20
166.15833333333333
 30
0.0
 40
0.7055555555555555
  0
CIRCLE
  5
5C
  8
GEOMETRY
 62
8
 10
107.59722222222221
 20
161.5722222222222
 30
0.0
 40
0.7055555555555555
  0
CIRCLE
  5
5D
  8
GEOMETRY
 62
8
 10
107.59722222222221
 20
156.9861111111111
 30
0.0
 40
0.7055555555555555
  0
CIRCLE
  5
5E
  8
GEOMETRY
 62
8
 10
107.59722222222221
 20
152.39999999999998
 30
0.0
 40
0.7055555555555555
  0
CIRCLE
  5
5F
  8
GEOMETRY
 62
8
 10
107.59722222222221
 20
147.81388888888887
 30
0.0
 40
0.7055555555555555
  0
CIRCLE
  5
60
  8
GEOMETRY
 62
8
 10
107.59722222222221
 20
143.22777777777776
 30
0.0
 40
0.7055555555555555
  0
CIRCLE
  5
61
  8
GEOMETRY
 62
8
 10
107.59722222222221
 20
138.64166666666665
 30
0.0
 40
0.7055555555555555
  0
CIRCLE
  5
62
  8
GEOMETRY
 62
8
 10
107.59722222222221
 20
134.05555555555554
 30
0.0
 40
0.7055555555555555
  0
CIRCLE
  5
63
  8
GEOMETRY
 62
8
 10
107.59722222222221
 20
129.46944444444443
 30
0.0
 40
0.7055555555555555
  0
CIRCLE
  5
64
  8
GEOMETRY
 62
8
 10
107.59722222222221
 20
124.88333333333333
 30
0.0
 40
0.7055555555555555
  0
CIRCLE
  5
65
  8
GEOMETRY
 62
8
 10
107.59722222222221
 20
120.29722222222222
 30
0.0
 40
0.7055555555555555
  0
CIRCLE
  5
66
  8
GEOMETRY
 62
8
 10
107.59722222222221
 20
115.7111111111111
 30
0.0
 40
0.7055555555555555
  0
CIRCLE
  5
67
  8
GEOMETRY
 62
8
 10
107.59722222222221
 20
111.12499999999999
 30
0.0
 40
0.7055555555555555
  0
CIRCLE
  5
68
  8
GEOMETRY
 62
8
 10
107.59722222222221
 20
106.53888888888888
 30
0.0
 40
0.7055555555555555
  0
CIRCLE
  5
69
  8
GEOMETRY
 62
8
 10
107.59722222222221
 20
101.95277777777777
 30
0.0
 40
0.7055555555555555
  0
CIRCLE
  5
6A
  8
GEOMETRY
 62
8
 10
107.59722222222221
 20
97.36666666666666
 30
0.0
 40
0.7055555555555555
  0
CIRCLE
  5
6B
  8
GEOMETRY
 62
8
 10
107.59722222222221
 20
92.78055555555555
 30
0.0
 40
0.7055555555555555
  0
CIRCLE
  5
6C
  8
GEOMETRY
 62
8
 10
107.59722222222221
 20
88.19444444444444
 30
0.0
 40
0.7055555555555555
  0
CIRCLE
  5
6D
  8
GEOMETRY
 62
8
 10
107.59722222222221
 20
83.60833333333332
 30
0.0
 40
0.7055555555555555
  0
CIRCLE
  5
6E
  8
GEOMETRY
 62
8
 10
107.59722222222221
 20
79.02222222222221
 30
0.0
 40
0.7055555555555555
  0
CIRCLE
  5
6F
  8
GEOMETRY
 62
8
 10
107.59722222222221
 20
74.4361111111111
 30
0.0
 40
0.7055555555555555
  0
TEXT
  5
70
  8
TEXT
 62
7
 10
113.13583333333332
 20
173.21388888888887
 30
0.0
 40
2.469444444444444
  1
c
  0
CIRCLE
  5
71
  8
GEOMETRY
 62
8
 10
113.94722222222221
 20
170.74444444444444
 30
0.0
 40
0.7055555555555555
  0
CIRCLE
  5
72
  8
GEOMETRY
 62
8
 10
113.94722222222221
 20
166.15833333333333
 30
0.0
 40
0.7055555555555555
  0
CIRCLE
  5
73
  8
GEOMETRY
 62
8
 10
113.94722222222221
 20
161.5722222222222
 30
0.0
 40
0.7055555555555555
  0
CIRCLE
  5
74
  8
GEOMETRY
 62
8
 10
113.94722222222221
 20
156.9861111111111
 30
0.0
 40
0.7055555555555555
  0
CIRCLE
  5
75
  8
GEOMETRY
 62
8
 10
113.94722222222221
 20
152.39999999999998
 30
0.0
 40
0.7055555555555555
  0
CIRCLE
  5
76
  8
GEOMETRY
 62
8
 10
113.94722222222221
 20
147.81388888888887
 30
0.0
 40
0.7055555555555555
  0
CIRCLE
  5
77
  8
GEOMETRY
 62
8
 10
113.94722222222221
 20
143.22777777777776
 30
0.0
 40
0.7055555555555555
  0
CIRCLE
  5
78
  8
GEOMETRY
 62
8
 10
113.94722222222221
 20
138.64166666666665
 30
0.0
 40
0.7055555555555555
  0
CIRCLE
  5
79
  8
GEOMETRY
 62
8
 10
113.94722222222221
 20
134.05555555555554
 30
0.0
 40
0.7055555555555555
  0
CIRCLE
  5
7A
  8
GEOMETRY
 62
8
 10
113.94722222222221
 20
129.46944444444443
 30
0.0
 40
0.7055555555555555
  0
CIRCLE
  5
7B
  8
GEOMETRY
 62
8
 10
113.94722222222221
 20
124.88333333333333
 30
0.0
 40
0.7055555555555555
  0
CIRCLE
  5
7C
  8
GEOMETRY
 62
8
 10
113.94722222222221
 20
120.29722222222222
 30
0.0
 40
0.7055555555555555
  0
CIRCLE
  5
7D
  8
GEOMETRY
 62
8
 10
113.94722222222221
 20
115.7111111111111
 30
0.0
 40
0.7055555555555555
  0
CIRCLE
  5
7E
  8
GEOMETRY
 62
8
 10
113.94722222222221
 20
111.12499999999999
 30
0.0
 40
0.7055555555555555
  0
CIRCLE
  5
7F
  8
GEOMETRY
 62
8
 10
113.94722222222221
 20
106.53888888888888
 30
0.0
 40
0.7055555555555555
  0
CIRCLE
  5
80
  8
GEOMETRY
 62
8
 10
113.94722222222221
 20
101.95277777777777
 30
0.0
 40
0.7055555555555555
  0
CIRCLE
  5
81
  8
GEOMETRY
 62
8
 10
113.94722222222221
 20
97.36666666666666
 30
0.0
 40
0.7055555555555555
  0
CIRCLE
  5
82
  8
GEOMETRY
 62
8
 10
113.94722222222221
 20
92.78055555555555
 30
0.0
 40
0.7055555555555555
  0
CIRCLE
  5
83
  8
GEOMETRY
 62
8
 10
113.94722222222221
 20
88.19444444444444
 30
0.0
 40
0.7055555555555555
  0
CIRCLE
  5
84
  8
GEOMETRY
 62
8
 10
113.94722222222221
 20
83.60833333333332
 30
0.0
 40
0.7055555555555555
  0
CIRCLE
  5
85
  8
GEOMETRY
 62
8
 10
113.94722222222221
 20
79.02222222222221
 30
0.0
 40
0.7055555555555555
  0
CIRCLE
  5
86
  8
GEOMETRY
 62
8
 10
113.94722222222221
 20
74.4361111111111
 30
0.0
 40
0.7055555555555555
  0
TEXT
  5
87
  8
TEXT
 62
7
 10
119.48583333333332
 20
173.21388888888887
 30
0.0
 40
2.469444444444444
  1
d
  0
CIRCLE
  5
88
  8
GEOMETRY
 62
8
 10
120.29722222222222
 20
170.74444444444444
 30
0.0
 40
0.7055555555555555
  0
CIRCLE
  5
89
  8
GEOMETRY
 62
8
 10
120.29722222222222
 20
166.15833333333333
 30
0.0
 40
0.7055555555555555
  0
CIRCLE
  5
8A
  8
GEOMETRY
 62
8
 10
120.29722222222222
 20
161.5722222222222
 30
0.0
 40
0.7055555555555555
  0
CIRCLE
  5
8B
  8
GEOMETRY
 62
8
 10
120.29722222222222
 20
156.9861111111111
 30
0.0
 40
0.7055555555555555
  0
CIRCLE
  5
8C
  8
GEOMETRY
 62
8
 10
120.29722222222222
 20
152.39999999999998
 30
0.0
 40
0.7055555555555555
  0
CIRCLE
  5
8D
  8
GEOMETRY
 62
8
 10
120.29722222222222
 20
147.81388888888887
 30
0.0
 40
0.7055555555555555
  0
CIRCLE
  5
8E
  8
GEOMETRY
 62
8
 10
120.29722222222222
 20
143.22777777777776
 30
0.0
 40
0.7055555555555555
  0
CIRCLE
  5
8F
  8
GEOMETRY
 62
8
 10
120.29722222222222
 20
138.64166666666665
 30
0.0
 40
0.7055555555555555
  0
CIRCLE
  5
90
  8
GEOMETRY
 62
8
 10
120.29722222222222
 20
134.05555555555554
 30
0.0
 40
0.7055555555555555
  0
CIRCLE
  5
91
  8
GEOMETRY
 62
8
 10
120.29722222222222
 20
129.46944444444443
 30
0.0
 40
0.7055555555555555
  0
CIRCLE
  5
92
  8
GEOMETRY
 62
8
 10
120.29722222222222
 20
124.88333333333333
 30
0.0
 40
0.7055555555555555
  0
CIRCLE
  5
93
  8
GEOMETRY
 62
8
 10
120.29722222222222
 20
120.29722222222222
 30
0.0
 40
0.7055555555555555
  0
CIRCLE
  5
94
  8
GEOMETRY
 62
8
 10
120.29722222222222
 20
115.7111111111111
 30
0.0
 40
0.7055555555555555
  0
CIRCLE
  5
95
  8
GEOMETRY
 62
8
 10
120.29722222222222
 20
111.12499999999999
 30
0.0
 40
0.7055555555555555
  0
CIRCLE
  5
96
  8
GEOMETRY
 62
8
 10
120.29722222222222
 20
106.53888888888888
 30
0.0
 40
0.7055555555555555
  0
CIRCLE
  5
97
  8
GEOMETRY
 62
8
 10
120.29722222222222
 20
101.95277777777777
 30
0.0
 40
0.7055555555555555
  0
CIRCLE
  5
98
  8
GEOMETRY
 62
8
 10
120.29722222222222
 20
97.36666666666666
 30
0.0
 40
0.7055555555555555
  0
CIRCLE
  5
99
  8
GEOMETRY
 62
8
 10
120.29722222222222
 20
92.78055555555555
 30
0.0
 40
0.7055555555555555
  0
CIRCLE
  5
9A
  8
GEOMETRY
 62
8
 10
120.29722222222222
 20
88.19444444444444
 30
0.0
 40
0.7055555555555555
  0
CIRCLE
  5
9B
  8
GEOMETRY
 62
8
 10
120.29722222222222
 20
83.60833333333332
 30
0.0
 40
0.7055555555555555
  0
CIRCLE
  5
9C
  8
GEOMETRY
 62
8
 10
120.29722222222222
 20
79.02222222222221
 30
0.0
 40
0.7055555555555555
  0
CIRCLE
  5
9D
  8
GEOMETRY
 62
8
 10
120.29722222222222
 20
74.4361111111111
 30
0.0
 40
0.7055555555555555
  0
TEXT
  5
9E
  8
TEXT
 62
7
 10
125.83583333333331
 20
173.21388888888887
 30
0.0
 40
2.469444444444444
  1
e
  0
CIRCLE
  5
9F
  8
GEOMETRY
 62
8
 10
126.64722222222221
 20
170.74444444444444
 30
0.0
 40
0.7055555555555555
  0
CIRCLE
  5
A0
  8
GEOMETRY
 62
8
 10
126.64722222222221
 20
166.15833333333333
 30
0.0
 40
0.7055555555555555
  0
CIRCLE
  5
A1
  8
GEOMETRY
 62
8
 10
126.64722222222221
 20
161.5722222222222
 30
0.0
 40
0.7055555555555555
  0
CIRCLE
  5
A2
  8
GEOMETRY
 62
8
 10
126.64722222222221
 20
156.9861111111111
 30
0.0
 40
0.7055555555555555
  0
CIRCLE
  5
A3
  8
GEOMETRY
 62
8
 10
126.64722222222221
 20
152.39999999999998
 30
0.0
 40
0.7055555555555555
  0
CIRCLE
  5
A4
  8
GEOMETRY
 62
8
 10
126.64722222222221
 20
147.81388888888887
 30
0.0
 40
0.7055555555555555
  0
CIRCLE
  5
A5
  8
GEOMETRY
 62
8
 10
126.64722222222221
 20
143.22777777777776
 30
0.0
 40
0.7055555555555555
  0
CIRCLE
  5
A6
  8
GEOMETRY
 62
8
 10
126.64722222222221
 20
138.64166666666665
 30
0.0
 40
0.7055555555555555
  0
CIRCLE
  5
A7
  8
GEOMETRY
 62
8
 10
126.64722222222221
 20
134.05555555555554
 30
0.0
 40
0.7055555555555555
  0
CIRCLE
  5
A8
  8
GEOMETRY
 62
8
 10
126.64722222222221
 20
129.46944444444443
 30
0.0
 40
0.7055555555555555
  0
CIRCLE
  5
A9
  8
GEOMETRY
 62
8
 10
126.64722222222221
 20
124.88333333333333
 30
0.0
 40
0.7055555555555555
  0
CIRCLE
  5
AA
  8
GEOMETRY
 62
8
 10
126.64722222222221
 20
120.29722222222222
 30
0.0
 40
0.7055555555555555
  0
CIRCLE
  5
AB
  8
GEOMETRY
 62
8
 10
126.64722222222221
 20
115.7111111111111
 30
0.0
 40
0.7055555555555555
  0
CIRCLE
  5
AC
  8
GEOMETRY
 62
8
 10
126.64722222222221
 20
111.12499999999999
 30
0.0
 40
0.7055555555555555
  0
CIRCLE
  5
AD
  8
GEOMETRY
 62
8
 10
126.64722222222221
 20
106.53888888888888
 30
0.0
 40
0.7055555555555555
  0
CIRCLE
  5
AE
  8
GEOMETRY
 62
8
 10
126.64722222222221
 20
101.95277777777777
 30
0.0
 40
0.7055555555555555
  0
CIRCLE
  5
AF
  8
GEOMETRY
 62
8
 10
126.64722222222221
 20
97.36666666666666
 30
0.0
 40
0.7055555555555555
  0
CIRCLE
  5
B0
  8
GEOMETRY
 62
8
 10
126.64722222222221
 20
92.78055555555555
 30
0.0
 40
0.7055555555555555
  0
CIRCLE
  5
B1
  8
GEOMETRY
 62
8
 10
126.64722222222221
 20
88.19444444444444
 30
0.0
 40
0.7055555555555555
  0
CIRCLE
  5
B2
  8
GEOMETRY
 62
8
 10
126.64722222222221
 20
83.60833333333332
 30
0.0
 40
0.7055555555555555
  0
CIRCLE
  5
B3
  8
GEOMETRY
 62
8
 10
126.64722222222221
 20
79.02222222222221
 30
0.0
 40
0.7055555555555555
  0
CIRCLE
  5
B4
  8
GEOMETRY
 62
8
 10
126.64722222222221
 20
74.4361111111111
 30
0.0
 40
0.7055555555555555
  0
TEXT
  5
B5
  8
TEXT
 62
7
 10
140.29972222222221
 20
173.21388888888887
 30
0.0
 40
2.469444444444444
  1
f
  0
CIRCLE
  5
B6
  8
GEOMETRY
 62
8
 10
141.1111111111111
 20
170.74444444444444
 30
0.0
 40
0.7055555555555555
  0
CIRCLE
  5
B7
  8
GEOMETRY
 62
8
 10
141.1111111111111
 20
166.15833333333333
 30
0.0
 40
0.7055555555555555
  0
CIRCLE
  5
B8
  8
GEOMETRY
 62
8
 10
141.1111111111111
 20
161.5722222222222
 30
0.0
 40
0.7055555555555555
  0
CIRCLE
  5
B9
  8
GEOMETRY
 62
8
 10
141.1111111111111
 20
156.9861111111111
 30
0.0
 40
0.7055555555555555
  0
CIRCLE
  5
BA
  8
GEOMETRY
 62
8
 10
141.1111111111111
 20
152.39999999999998
 30
0.0
 40
0.7055555555555555
  0
CIRCLE
  5
BB
  8
GEOMETRY
 62
8
 10
141.1111111111111
 20
147.81388888888887
 30
0.0
 40
0.7055555555555555
  0
CIRCLE
  5
BC
  8
GEOMETRY
 62
8
 10
141.1111111111111
 20
143.22777777777776
 30
0.0
 40
0.7055555555555555
  0
CIRCLE
  5
BD
  8
GEOMETRY
 62
8
 10
141.1111111111111
 20
138.64166666666665
 30
0.0
 40
0.7055555555555555
  0
CIRCLE
  5
BE
  8
GEOMETRY
 62
8
 10
141.1111111111111
 20
134.05555555555554
 30
0.0
 40
0.7055555555555555
  0
CIRCLE
  5
BF
  8
GEOMETRY
 62
8
 10
141.1111111111111
 20
129.46944444444443
 30
0.0
 40
0.7055555555555555
  0
CIRCLE
  5
C0
  8
GEOMETRY
 62
8
 10
141.1111111111111
 20
124.88333333333333
 30
0.0
 40
0.7055555555555555
  0
CIRCLE
  5
C1
  8
GEOMETRY
 62
8
 10
141.1111111111111
 20
120.29722222222222
 30
0.0
 40
0.7055555555555555
  0
CIRCLE
  5
C2
  8
GEOMETRY
 62
8
 10
141.1111111111111
 20
115.7111111111111
 30
0.0
 40
0.7055555555555555
  0
CIRCLE
  5
C3
  8
GEOMETRY
 62
8
 10
141.1111111111111
 20
111.12499999999999
 30
0.0
 40
0.7055555555555555
  0
CIRCLE
  5
C4
  8
GEOMETRY
 62
8
 10
141.1111111111111
 20
106.53888888888888
 30
0.0
 40
0.7055555555555555
  0
CIRCLE
  5
C5
  8
GEOMETRY
 62
8
 10
141.1111111111111
 20
101.95277777777777
 30
0.0
 40
0.7055555555555555
  0
CIRCLE
  5
C6
  8
GEOMETRY
 62
8
 10
141.1111111111111
 20
97.36666666666666
 30
0.0
 40
0.7055555555555555
  0
CIRCLE
  5
C7
  8
GEOMETRY
 62
8
 10
141.1111111111111
 20
92.78055555555555
 30
0.0
 40
0.7055555555555555
  0
CIRCLE
  5
C8
  8
GEOMETRY
 62
8
 10
141.1111111111111
 20
88.19444444444444
 30
0.0
 40
0.7055555555555555
  0
CIRCLE
  5
C9
  8
GEOMETRY
 62
8
 10
141.1111111111111
 20
83.60833333333332
 30
0.0
 40
0.7055555555555555
  0
CIRCLE
  5
CA
  8
GEOMETRY
 62
8
 10
141.1111111111111
 20
79.02222222222221
 30
0.0
 40
0.7055555555555555
  0
CIRCLE
  5
CB
  8
GEOMETRY
 62
8
 10
141.1111111111111
 20
74.4361111111111
 30
0.0
 40
0.7055555555555555
  0
TEXT
  5
CC
  8
TEXT
 62
7
 10
146.6497222222222
 20
173.21388888888887
 30
0.0
 40
2.469444444444444
  1
g
  0
CIRCLE
  5
CD
  8
GEOMETRY
 62
8
 10
147.4611111111111
 20
170.74444444444444
 30
0.0
 40
0.7055555555555555
  0
CIRCLE
  5
CE
  8
GEOMETRY
 62
8
 10
147.4611111111111
 20
166.15833333333333
 30
0.0
 40
0.7055555555555555
  0
CIRCLE
  5
CF
  8
GEOMETRY
 62
8
 10
147.4611111111111
 20
161.5722222222222
 30
0.0
 40
0.7055555555555555
  0
CIRCLE
  5
D0
  8
GEOMETRY
 62
8
 10
147.4611111111111
 20
156.9861111111111
 30
0.0
 40
0.7055555555555555
  0
CIRCLE
  5
D1
  8
GEOMETRY
 62
8
 10
147.4611111111111
 20
152.39999999999998
 30
0.0
 40
0.7055555555555555
  0
CIRCLE
  5
D2
  8
GEOMETRY
 62
8
 10
147.4611111111111
 20
147.81388888888887
 30
0.0
 40
0.7055555555555555
  0
CIRCLE
  5
D3
  8
GEOMETRY
 62
8
 10
147.4611111111111
 20
143.22777777777776
 30
0.0
 40
0.7055555555555555
  0
CIRCLE
  5
D4
  8
GEOMETRY
 62
8
 10
147.4611111111111
 20
138.64166666666665
 30
0.0
 40
0.7055555555555555
  0
CIRCLE
  5
D5
  8
GEOMETRY
 62
8
 10
147.4611111111111
 20
134.05555555555554
 30
0.0
 40
0.7055555555555555
  0
CIRCLE
  5
D6
  8
GEOMETRY
 62
8
 10
147.4611111111111
 20
129.46944444444443
 30
0.0
 40
0.7055555555555555
  0
CIRCLE
  5
D7
  8
GEOMETRY
 62
8
 10
147.4611111111111
 20
124.88333333333333
 30
0.0
 40
0.7055555555555555
  0
CIRCLE
  5
D8
  8
GEOMETRY
 62
8
 10
147.4611111111111
 20
120.29722222222222
 30
0.0
 40
0.7055555555555555
  0
CIRCLE
  5
D9
  8
GEOMETRY
 62
8
 10
147.4611111111111
 20
115.7111111111111
 30
0.0
 40
0.7055555555555555
  0
CIRCLE
  5
DA
  8
GEOMETRY
 62
8
 10
147.4611111111111
 20
111.12499999999999
 30
0.0
 40
0.7055555555555555
  0
CIRCLE
  5
DB
  8
GEOMETRY
 62
8
 10
147.4611111111111
 20
106.53888888888888
 30
0.0
 40
0.7055555555555555
  0
CIRCLE
  5
DC
  8
GEOMETRY
 62
8
 10
147.4611111111111
 20
101.95277777777777
 30
0.0
 40
0.7055555555555555
  0
CIRCLE
  5
DD
  8
GEOMETRY
 62
8
 10
147.4611111111111
 20
97.36666666666666
 30
0.0
 40
0.7055555555555555
  0
CIRCLE
  5
DE
  8
GEOMETRY
 62
8
 10
147.4611111111111
 20
92.78055555555555
 30
0.0
 40
0.7055555555555555
  0
CIRCLE
  5
DF
  8
GEOMETRY
 62
8
 10
147.4611111111111
 20
88.19444444444444
 30
0.0
 40
0.7055555555555555
  0
CIRCLE
  5
E0
  8
GEOMETRY
 62
8
 10
147.4611111111111
 20
83.60833333333332
 30
0.0
 40
0.7055555555555555
  0
CIRCLE
  5
E1
  8
GEOMETRY
 62
8
 10
147.4611111111111
 20
79.02222222222221
 30
0.0
 40
0.7055555555555555
  0
CIRCLE
  5
E2
  8
GEOMETRY
 62
8
 10
147.4611111111111
 20
74.4361111111111
 30
0.0
 40
0.7055555555555555
  0
TEXT
  5
E3
  8
TEXT
 62
7
 10
152.9997222222222
 20
173.21388888888887
 30
0.0
 40
2.469444444444444
  1
h
  0
CIRCLE
  5
E4
  8
GEOMETRY
 62
8
 10
153.8111111111111
 20
170.74444444444444
 30
0.0
 40
0.7055555555555555
  0
CIRCLE
  5
E5
  8
GEOMETRY
 62
8
 10
153.8111111111111
 20
166.15833333333333
 30
0.0
 40
0.7055555555555555
  0
CIRCLE
  5
E6
  8
GEOMETRY
 62
8
 10
153.8111111111111
 20
161.5722222222222
 30
0.0
 40
0.7055555555555555
  0
CIRCLE
  5
E7
  8
GEOMETRY
 62
8
 10
153.8111111111111
 20
156.9861111111111
 30
0.0
 40
0.7055555555555555
  0
CIRCLE
  5
E8
  8
GEOMETRY
 62
8
 10
153.8111111111111
 20
152.39999999999998
 30
0.0
 40
0.7055555555555555
  0
CIRCLE
  5
E9
  8
GEOMETRY
 62
8
 10
153.8111111111111
 20
147.81388888888887
 30
0.0
 40
0.7055555555555555
  0
CIRCLE
  5
EA
  8
GEOMETRY
 62
8
 10
153.8111111111111
 20
143.22777777777776
 30
0.0
 40
0.7055555555555555
  0
CIRCLE
  5
EB
  8
GEOMETRY
 62
8
 10
153.8111111111111
 20
138.64166666666665
 30
0.0
 40
0.7055555555555555
  0
CIRCLE
  5
EC
  8
GEOMETRY
 62
8
 10
153.8111111111111
 20
134.05555555555554
 30
0.0
 40
0.7055555555555555
  0
CIRCLE
  5
ED
  8
GEOMETRY
 62
8
 10
153.8111111111111
 20
129.46944444444443
 30
0.0
 40
0.7055555555555555
  0
CIRCLE
  5
EE
  8
GEOMETRY
 62
8
 10
153.8111111111111
 20
124.88333333333333
 30
0.0
 40
0.7055555555555555
  0
CIRCLE
  5
EF
  8
GEOMETRY
 62
8
 10
153.8111111111111
 20
120.29722222222222
 30
0.0
 40
0.7055555555555555
  0
CIRCLE
  5
F0
  8
GEOMETRY
 62
8
 10
153.8111111111111
 20
115.7111111111111
 30
0.0
 40
0.7055555555555555
  0
CIRCLE
  5
F1
  8
GEOMETRY
 62
8
 10
153.8111111111111
 20
111.12499999999999
 30
0.0
 40
0.7055555555555555
  0
CIRCLE
  5
F2
  8
GEOMETRY
 62
8
 10
153.8111111111111
 20
106.53888888888888
 30
0.0
 40
0.7055555555555555
  0
CIRCLE
  5
F3
  8
GEOMETRY
 62
8
 10
153.8111111111111
 20
101.95277777777777
 30
0.0
 40
0.7055555555555555
  0
CIRCLE
  5
F4
  8
GEOMETRY
 62
8
 10
153.8111111111111
 20
97.36666666666666
 30
0.0
 40
0.7055555555555555
  0
CIRCLE
  5
F5
  8
GEOMETRY
 62
8
 10
153.8111111111111
 20
92.78055555555555
 30
0.0
 40
0.7055555555555555
  0
CIRCLE
  5
F6
  8
GEOMETRY
 62
8
 10
153.8111111111111
 20
88.19444444444444
 30
0.0
 40
0.7055555555555555
  0
CIRCLE
  5
F7
  8
GEOMETRY
 62
8
 10
153.8111111111111
 20
83.60833333333332
 30
0.0
 40
0.7055555555555555
  0
CIRCLE
  5
F8
  8
GEOMETRY
 62
8
 10
153.8111111111111
 20
79.02222222222221
 30
0.0
 40
0.7055555555555555
  0
CIRCLE
  5
F9
  8
GEOMETRY
 62
8
 10
153.8111111111111
 20
74.4361111111111
 30
0.0
 40
0.7055555555555555
  0
TEXT
  5
FA
  8
TEXT
 62
7
 10
159.3497222222222
 20
173.21388888888887
 30
0.0
 40
2.469444444444444
  1
i
  0
CIRCLE
  5
FB
  8
GEOMETRY
 62
8
 10
160.1611111111111
 20
170.74444444444444
 30
0.0
 40
0.7055555555555555
  0
CIRCLE
  5
FC
  8
GEOMETRY
 62
8
 10
160.1611111111111
 20
166.15833333333333
 30
0.0
 40
0.7055555555555555
  0
CIRCLE
  5
FD
  8
GEOMETRY
 62
8
 10
160.1611111111111
 20
161.5722222222222
 30
0.0
 40
0.7055555555555555
  0
CIRCLE
  5
FE
  8
GEOMETRY
 62
8
 10
160.1611111111111
 20
156.9861111111111
 30
0.0
 40
0.7055555555555555
  0
CIRCLE
  5
FF
  8
GEOMETRY
 62
8
 10
160.1611111111111
 20
152.39999999999998
 30
0.0
 40
0.7055555555555555
  0
CIRCLE
  5
100
  8
GEOMETRY
 62
8
 10
160.1611111111111
 20
147.81388888888887
 30
0.0
 40
0.7055555555555555
  0
CIRCLE
  5
101
  8
GEOMETRY
 62
8
 10
160.1611111111111
 20
143.22777777777776
 30
0.0
 40
0.7055555555555555
  0
CIRCLE
  5
102
  8
GEOMETRY
 62
8
 10
160.1611111111111
 20
138.64166666666665
 30
0.0
 40
0.7055555555555555
  0
CIRCLE
  5
103
  8
GEOMETRY
 62
8
 10
160.1611111111111
 20
134.05555555555554
 30
0.0
 40
0.7055555555555555
  0
CIRCLE
  5
104
  8
GEOMETRY
 62
8
 10
160.1611111111111
 20
129.46944444444443
 30
0.0
 40
0.7055555555555555
  0
CIRCLE
  5
105
  8
GEOMETRY
 62
8
 10
160.1611111111111
 20
124.88333333333333
 30
0.0
 40
0.7055555555555555
  0
CIRCLE
  5
106
  8
GEOMETRY
 62
8
 10
160.1611111111111
 20
120.29722222222222
 30
0.0
 40
0.7055555555555555
  0
CIRCLE
  5
107
  8
GEOMETRY
 62
8
 10
160.1611111111111
 20
115.7111111111111
 30
0.0
 40
0.7055555555555555
  0
CIRCLE
  5
108
  8
GEOMETRY
 62
8
 10
160.1611111111111
 20
111.12499999999999
 30
0.0
 40
0.7055555555555555
  0
CIRCLE
  5
109
  8
GEOMETRY
 62
8
 10
160.1611111111111
 20
106.53888888888888
 30
0.0
 40
0.7055555555555555
  0
CIRCLE
  5
10A
  8
GEOMETRY
 62
8
 10
160.1611111111111
 20
101.95277777777777
 30
0.0
 40
0.7055555555555555
  0
CIRCLE
  5
10B
  8
GEOMETRY
 62
8
 10
160.1611111111111
 20
97.36666666666666
 30
0.0
 40
0.7055555555555555
  0
CIRCLE
  5
10C
  8
GEOMETRY
 62
8
 10
160.1611111111111
 20
92.78055555555555
 30
0.0
 40
0.7055555555555555
  0
CIRCLE
  5
10D
  8
GEOMETRY
 62
8
 10
160.1611111111111
 20
88.19444444444444
 30
0.0
 40
0.7055555555555555
  0
CIRCLE
  5
10E
  8
GEOMETRY
 62
8
 10
160.1611111111111
 20
83.60833333333332
 30
0.0
 40
0.7055555555555555
  0
CIRCLE
  5
10F
  8
GEOMETRY
 62
8
 10
160.1611111111111
 20
79.02222222222221
 30
0.0
 40
0.7055555555555555
  0
CIRCLE
  5
110
  8
GEOMETRY
 62
8
 10
160.1611111111111
 20
74.4361111111111
 30
0.0
 40
0.7055555555555555
  0
TEXT
  5
111
  8
TEXT
 62
7
 10
165.6997222222222
 20
173.21388888888887
 30
0.0
 40
2.469444444444444
  1
j
  0
CIRCLE
  5
112
  8
GEOMETRY
 62
8
 10
166.5111111111111
 20
170.74444444444444
 30
0.0
 40
0.7055555555555555
  0
CIRCLE
  5
113
  8
GEOMETRY
 62
8
 10
166.5111111111111
 20
166.15833333333333
 30
0.0
 40
0.7055555555555555
  0
CIRCLE
  5
114
  8
GEOMETRY
 62
8
 10
166.5111111111111
 20
161.5722222222222
 30
0.0
 40
0.7055555555555555
  0
CIRCLE
  5
115
  8
GEOMETRY
 62
8
 10
166.5111111111111
 20
156.9861111111111
 30
0.0
 40
0.7055555555555555
  0
CIRCLE
  5
116
  8
GEOMETRY
 62
8
 10
166.5111111111111
 20
152.39999999999998
 30
0.0
 40
0.7055555555555555
  0
CIRCLE
  5
117
  8
GEOMETRY
 62
8
 10
166.5111111111111
 20
147.81388888888887
 30
0.0
 40
0.7055555555555555
  0
CIRCLE
  5
118
  8
GEOMETRY
 62
8
 10
166.5111111111111
 20
143.22777777777776
 30
0.0
 40
0.7055555555555555
  0
CIRCLE
  5
119
  8
GEOMETRY
 62
8
 10
166.5111111111111
 20
138.64166666666665
 30
0.0
 40
0.7055555555555555
  0
CIRCLE
  5
11A
  8
GEOMETRY
 62
8
 10
166.5111111111111
 20
134.05555555555554
 30
0.0
 40
0.7055555555555555
  0
CIRCLE
  5
11B
  8
GEOMETRY
 62
8
 10
166.5111111111111
 20
129.46944444444443
 30
0.0
 40
0.7055555555555555
  0
CIRCLE
  5
11C
  8
GEOMETRY
 62
8
 10
166.5111111111111
 20
124.88333333333333
 30
0.0
 40
0.7055555555555555
  0
CIRCLE
  5
11D
  8
GEOMETRY
 62
8
 10
166.5111111111111
 20
120.29722222222222
 30
0.0
 40
0.7055555555555555
  0
CIRCLE
  5
11E
  8
GEOMETRY
 62
8
 10
166.5111111111111
 20
115.7111111111111
 30
0.0
 40
0.7055555555555555
  0
CIRCLE
  5
11F
  8
GEOMETRY
 62
8
 10
166.5111111111111
 20
111.12499999999999
 30
0.0
 40
0.7055555555555555
  0
CIRCLE
  5
120
  8
GEOMETRY
 62
8
 10
166.5111111111111
 20
106.53888888888888
 30
0.0
 40
0.7055555555555555
  0
CIRCLE
  5
121
  8
GEOMETRY
 62
8
 10
166.5111111111111
 20
101.95277777777777
 30
0.0
 40
0.7055555555555555
  0
CIRCLE
  5
122
  8
GEOMETRY
 62
8
 10
166.5111111111111
 20
97.36666666666666
 30
0.0
 40
0.7055555555555555
  0
CIRCLE
  5
123
  8
GEOMETRY
 62
8
 10
166.5111111111111
 20
92.78055555555555
 30
0.0
 40
0.7055555555555555
  0
CIRCLE
  5
124
  8
GEOMETRY
 62
8
 10
166.5111111111111
 20
88.19444444444444
 30
0.0
 40
0.7055555555555555
  0
CIRCLE
  5
125
  8
GEOMETRY
 62
8
 10
166.5111111111111
 20
83.60833333333332
 30
0.0
 40
0.7055555555555555
  0
CIRCLE
  5
126
  8
GEOMETRY
 62
8
 10
166.5111111111111
 20
79.02222222222221
 30
0.0
 40
0.7055555555555555
  0
CIRCLE
  5
127
  8
GEOMETRY
 62
8
 10
166.5111111111111
 20
74.4361111111111
 30
0.0
 40
0.7055555555555555
  0
TEXT
  5
128
  8
GEOMETRY
 62
8
 10
171.45
 20
169.6861111111111
 30
0.0
 40
2.469444444444444
  1
1
  0
TEXT
  5
129
  8
GEOMETRY
 62
8
 10
171.45
 20
165.1
 30
0.0
 40
2.469444444444444
  1
2
  0
TEXT
  5
12A
  8
GEOMETRY
 62
8
 10
171.45
 20
160.51388888888889
 30
0.0
 40
2.469444444444444
  1
3
  0
TEXT
  5
12B
  8
GEOMETRY
 62
8
 10
171.45
 20
155.92777777777778
 30
0.0
 40
2.469444444444444
  1
4
  0
TEXT
  5
12C
  8
GEOMETRY
 62
8
 10
171.45
 20
151.34166666666664
 30
0.0
 40
2.469444444444444
  1
5
  0
TEXT
  5
12D
  8
GEOMETRY
 62
8
 10
171.45
 20
146.75555555555553
 30
0.0
 40
2.469444444444444
  1
6
  0
TEXT
  5
12E
  8
GEOMETRY
 62
8
 10
171.45
 20
142.16944444444442
 30
0.0
 40
2.469444444444444
  1
7
  0
TEXT
  5
12F
  8
GEOMETRY
 62
8
 10
171.45
 20
137.58333333333331
 30
0.0
 40
2.469444444444444
  1
8
  0
TEXT
  5
130
  8
GEOMETRY
 62
8
 10
171.45
 20
132.9972222222222
 30
0.0
 40
2.469444444444444
  1
9
  0
TEXT
  5
131
  8
GEOMETRY
 62
8
 10
171.45
 20
128.4111111111111
 30
0.0
 40
2.469444444444444
  1
10
  0
TEXT
  5
132
  8
GEOMETRY
 62
8
 10
171.45
 20
123.82499999999999
 30
0.0
 40
2.469444444444444
  1
11
  0
TEXT
  5
133
  8
GEOMETRY
 62
8
 10
171.45
 20
119.23888888888888
 30
0.0
 40
2.469444444444444
  1
12
  0
TEXT
  5
134
  8
GEOMETRY
 62
8
 10
171.45
 20
114.65277777777777
 30
0.0
 40
2.469444444444444
  1
13
  0
TEXT
  5
135
  8
GEOMETRY
 62
8
 10
171.45
 20
110.06666666666666
 30
0.0
 40
2.469444444444444
  1
14
  0
TEXT
  5
136
  8
GEOMETRY
 62
8
 10
171.45
 20
105.48055555555554
 30
0.0
 40
2.469444444444444
  1
15
  0
TEXT
  5
137
  8
GEOMETRY
 62
8
 10
171.45
 20
100.89444444444443
 30
0.0
 40
2.469444444444444
  1
16
  0
TEXT
  5
138
  8
GEOMETRY
 62
8
 10
171.45
 20
96.30833333333332
 30
0.0
 40
2.469444444444444
  1
17
  0
TEXT
  5
139
  8
GEOMETRY
 62
8
 10
171.45
 20
91.72222222222221
 30
0.0
 40
2.469444444444444
  1
18
  0
TEXT
  5
13A
  8
GEOMETRY
 62
8
 10
171.45
 20
87.1361111111111
 30
0.0
 40
2.469444444444444
  1
19
  0
TEXT
  5
13B
  8
GEOMETRY
 62
8
 10
171.45
 20
82.55
 30
0.0
 40
2.469444444444444
  1
20
  0
TEXT
  5
13C
  8
GEOMETRY
 62
8
 10
171.45
 20
77.96388888888889
 30
0.0
 40
2.469444444444444
  1
21
  0
TEXT
  5
13D
  8
GEOMETRY
 62
8
 10
171.45
 20
73.37777777777777
 30
0.0
 40
2.469444444444444
  1
22
  0
LINE
  5
13E
  8
ANNOTATION
 62
4
 10
99.13055555555555
 20
150.6361111111111
 30
0.0
 11
128.76388888888889
 21
150.6361111111111
 31
0.0
  0
LINE
  5
13F
  8
ANNOTATION
 62
4
 10
128.76388888888889
 20
150.6361111111111
 30
0.0
 11
128.76388888888889
 21
154.16388888888886
 31
0.0
  0
LINE
  5
140
  8
ANNOTATION
 62
4
 10
128.76388888888889
 20
154.16388888888886
 30
0.0
 11
99.13055555555555
 21
154.16388888888886
 31
0.0
  0
LINE
  5
141
  8
ANNOTATION
 62
4
 10
99.13055555555555
 20
154.16388888888886
 30
0.0
 11
99.13055555555555
 21
150.6361111111111
 31
0.0
  0
LINE
  5
142
  8
ANNOTATION
 62
4
 10
99.13055555555555
 20
127.70555555555555
 30
0.0
 11
128.76388888888889
 21
127.70555555555555
 31
0.0
  0
LINE
  5
143
  8
ANNOTATION
 62
4
 10
128.76388888888889
 20
127.70555555555555
 30
0.0
 11
128.76388888888889
 21
131.23333333333332
 31
0.0
  0
LINE
  5
144
  8
ANNOTATION
 62
4
 10
128.76388888888889
 20
131.23333333333332
 30
0.0
 11
99.13055555555555
 21
131.23333333333332
 31
0.0
  0
LINE
  5
145
  8
ANNOTATION
 62
4
 10
99.13055555555555
 20
131.23333333333332
 30
0.0
 11
99.13055555555555
 21
127.70555555555555
 31
0.0
  0
LINE
  5
146
  8
ANNOTATION
 62
4
 10
99.13055555555555
 20
104.77499999999999
 30
0.0
 11
128.76388888888889
 21
104.77499999999999
 31
0.0
  0
LINE
  5
147
  8
ANNOTATION
 62
4
 10
128.76388888888889
 20
104.77499999999999
 30
0.0
 11
128.76388888888889
 21
108.30277777777776
 31
0.0
  0
LINE
  5
148
  8
ANNOTATION
 62
4
 10
128.76388888888889
 20
108.30277777777776
 30
0.0
 11
99.13055555555555
 21
108.30277777777776
 31
0.0
  0
LINE
  5
149
  8
ANNOTATION
 62
4
 10
99.13055555555555
 20
108.30277777777776
 30
0.0
 11
99.13055555555555
 21
104.77499999999999
 31
0.0
  0
LINE
  5
14A
  8
ANNOTATION
 62
4
 10
99.13055555555555
 20
81.84444444444443
 30
0.0
 11
128.76388888888889
 21
81.84444444444443
 31
0.0
  0
LINE
  5
14B
  8
ANNOTATION
 62
4
 10
128.76388888888889
 20
81.84444444444443
 30
0.0
 11
128.76388888888889
 21
85.37222222222222
 31
0.0
  0
LINE
  5
14C
  8
ANNOTATION
 62
4
 10
128.76388888888889
 20
85.37222222222222
 30
0.0
 11
99.13055555555555
 21
85.37222222222222
 31
0.0
  0
LINE
  5
14D
  8
ANNOTATION
 62
4
 10
99.13055555555555
 20
85.37222222222222
 30
0.0
 11
99.13055555555555
 21
81.84444444444443
 31
0.0
  0
LINE
  5
14E
  8
SUPPLY
 62
1
 10
126.64722222222221
 20
152.39999999999998
 30
0.0
 11
126.64722222222221
 21
145.52083333333331
 31
0.0
  0
LINE
  5
14F
  8
GEOMETRY
 62
8
 10
125.2361111111111
 20
136.3486111111111
 30
0.0
 11
128.0583333333333
 21
136.3486111111111
 31
0.0
  0
LINE
  5
150
  8
GEOMETRY
 62
8
 10
128.0583333333333
 20
136.3486111111111
 30
0.0
 11
128.0583333333333
 21
145.52083333333331
 31
0.0
  0
LINE
  5
151
  8
GEOMETRY
 62
8
 10
128.0583333333333
 20
145.52083333333331
 30
0.0
 11
125.2361111111111
 21
145.52083333333331
 31
0.0
  0
LINE
  5
152
  8
GEOMETRY
 62
8
 10
125.2361111111111
 20
145.52083333333331
 30
0.0
 11
125.2361111111111
 21
136.3486111111111
 31
0.0
  0
LINE
  5
153
  8
SIGNAL
 62
5
 10
126.64722222222221
 20
136.3486111111111
 30
0.0
 11
126.64722222222221
 21
129.46944444444443
 31
0.0
  0
TEXT
  5
154
  8
TEXT
 62
7
 10
128.76388888888889
 20
139.87638888888887
 30
0.0
 40
2.822222222222222
  1
R1
  0
LINE
  5
155
  8
SUPPLY
 62
1
 10
113.94722222222221
 20
152.39999999999998
 30
0.0
 11
113.94722222222221
 21
130.88055555555553
 31
0.0
  0
LINE
  5
156
  8
ANNOTATION
 62
4
 10
112.18333333333332
 20
130.88055555555553
 30
0.0
 11
115.7111111111111
 21
130.88055555555553
 31
0.0
  0
LINE
  5
157
  8
ANNOTATION
 62
4
 10
112.18333333333332
 20
128.0583333333333
 30
0.0
 11
115.7111111111111
 21
128.0583333333333
 31
0.0
  0
LINE
  5
158
  8
GEOMETRY
 62
8
 10
113.94722222222221
 20
128.0583333333333
 30
0.0
 11
113.94722222222221
 21
106.53888888888888
 31
0.0
  0
TEXT
  5
159
  8
ANNOTATION
 62
4
 10
106.53888888888888
 20
128.76388888888889
 30
0.0
 40
2.822222222222222
  1
C1
  0
TEXT
  5
15A
  8
GEOMETRY
 62
8
 10
134.7611111111111
 20
62.08888888888888
 30
0.0
 40
2.822222222222222
  1
Center trench: e and f are isolated.
  0
LINE
  5
15B
  8
SUPPLY
 62
1
 10
101.24722222222222
 20
152.39999999999998
 30
0.0
 11
83.96111111111111
 21
152.39999999999998
 31
0.0
  0
LINE
  5
15C
  8
SUPPLY
 62
1
 10
83.96111111111111
 20
152.39999999999998
 30
0.0
 11
83.96111111111111
 21
179.91666666666666
 31
0.0
  0
LINE
  5
15D
  8
SUPPLY
 62
1
 10
83.96111111111111
 20
179.91666666666666
 30
0.0
 11
17.638888888888886
 21
179.91666666666666
 31
0.0
  0
TEXT
  5
15E
  8
SUPPLY
 62
1
 10
17.638888888888886
 20
181.68055555555554
 30
0.0
 40
3.175
  1
PS1 +5 V -> a5
  0
LINE
  5
15F
  8
GEOMETRY
 62
8
 10
101.24722222222222
 20
106.53888888888888
 30
0.0
 11
88.19444444444444
 21
106.53888888888888
 31
0.0
  0
LINE
  5
160
  8
GEOMETRY
 62
8
 10
88.19444444444444
 20
106.53888888888888
 30
0.0
 11
88.19444444444444
 21
67.02777777777777
 31
0.0
  0
LINE
  5
161
  8
GEOMETRY
 62
8
 10
88.19444444444444
 20
67.02777777777777
 30
0.0
 11
17.638888888888886
 21
67.02777777777777
 31
0.0
  0
TEXT
  5
162
  8
GEOMETRY
 62
8
 10
17.638888888888886
 20
68.79166666666666
 30
0.0
 40
3.175
  1
PS1 GND -> a15
  0
TEXT
  5
163
  8
TEXT
 62
7
 10
15.169444444444443
 20
159.8083333333333
 30
0.0
 40
3.5277777777777777
  1
U1 SENSOR HARNESS
  0
TEXT
  5
164
  8
SUPPLY
 62
1
 10
15.169444444444443
 20
152.04722222222222
 30
0.0
 40
3.5277777777777777
  1
Red lead -> b5
  0
TEXT
  5
165
  8
GEOMETRY
 62
8
 10
15.169444444444443
 20
145.34444444444443
 30
0.0
 40
3.5277777777777777
  1
Black lead -> b15
  0
TEXT
  5
166
  8
SIGNAL
 62
5
 10
15.169444444444443
 20
138.64166666666665
 30
0.0
 40
3.5277777777777777
  1
Blue lead -> b10
  0
TEXT
  5
167
  8
TEXT
 62
7
 10
15.169444444444443
 20
128.76388888888889
 30
0.0
 40
3.5277777777777777
  1
U2 OPTIONAL HARNESS
  0
TEXT
  5
168
  8
SUPPLY
 62
1
 10
15.169444444444443
 20
121.70833333333333
 30
0.0
 40
2.822222222222222
  1
Red -> c25; jumper d5 to a25
  0
TEXT
  5
169
  8
GEOMETRY
 62
8
 10
15.169444444444443
 20
116.06388888888888
 30
0.0
 40
2.822222222222222
  1
Black -> b27; jumper d15 to a27
  0
TEXT
  5
16A
  8
SIGNAL
 62
5
 10
15.169444444444443
 20
110.41944444444444
 30
0.0
 40
3.175
  1
Blue -> b20
  0
TEXT
  5
16B
  8
TEXT
 62
7
 10
15.169444444444443
 20
99.13055555555555
 30
0.0
 40
2.822222222222222
  1
Optional rows 25/27 below crop.
  0
TEXT
  5
16C
  8
TEXT
 62
7
 10
15.169444444444443
 20
93.4861111111111
 30
0.0
 40
2.822222222222222
  1
C2: d25 to d27 (optional).
  0
TEXT
  5
16D
  8
TEXT
 62
7
 10
15.169444444444443
 20
87.84166666666665
 30
0.0
 40
2.822222222222222
  1
CH2 reference -> c27.
  0
TEXT
  5
16E
  8
ANNOTATION
 62
4
 10
189.44166666666666
 20
166.15833333333333
 30
0.0
 40
3.5277777777777777
  1
NODE SCHEDULE
  0
TEXT
  5
16F
  8
TEXT
 62
7
 10
189.44166666666666
 20
158.04444444444442
 30
0.0
 40
3.5277777777777777
  1
a5-e5
  0
TEXT
  5
170
  8
TEXT
 62
7
 10
220.83888888888887
 20
158.04444444444442
 30
0.0
 40
2.822222222222222
  1
+5 V
  0
TEXT
  5
171
  8
TEXT
 62
7
 10
189.44166666666666
 20
147.10833333333332
 30
0.0
 40
3.5277777777777777
  1
a10-e10
  0
TEXT
  5
172
  8
TEXT
 62
7
 10
220.83888888888887
 20
147.10833333333332
 30
0.0
 40
2.822222222222222
  1
U1 / CH1 OUT
  0
TEXT
  5
173
  8
TEXT
 62
7
 10
189.44166666666666
 20
136.17222222222222
 30
0.0
 40
3.5277777777777777
  1
a15-e15
  0
TEXT
  5
174
  8
TEXT
 62
7
 10
220.83888888888887
 20
136.17222222222222
 30
0.0
 40
2.822222222222222
  1
GND
  0
TEXT
  5
175
  8
TEXT
 62
7
 10
189.44166666666666
 20
125.2361111111111
 30
0.0
 40
3.5277777777777777
  1
a20-e20
  0
TEXT
  5
176
  8
TEXT
 62
7
 10
220.83888888888887
 20
125.2361111111111
 30
0.0
 40
2.822222222222222
  1
U2 / CH2 OUT
  0
TEXT
  5
177
  8
SIGNAL
 62
5
 10
189.44166666666666
 20
109.00833333333333
 30
0.0
 40
3.5277777777777777
  1
CH1 tip -> a10
  0
TEXT
  5
178
  8
TEXT
 62
7
 10
189.44166666666666
 20
101.6
 30
0.0
 40
3.175
  1
CH1 reference -> e15
  0
TEXT
  5
179
  8
TEXT
 62
7
 10
189.44166666666666
 20
94.19166666666666
 30
0.0
 40
3.175
  1
R1: e5 to e10
  0
TEXT
  5
17A
  8
TEXT
 62
7
 10
189.44166666666666
 20
87.48888888888888
 30
0.0
 40
3.175
  1
C1: c5 to c15
  0
TEXT
  5
17B
  8
TEXT
 62
7
 10
189.44166666666666
 20
79.02222222222221
 30
0.0
 40
3.175
  1
Optional channel 2:
  0
TEXT
  5
17C
  8
TEXT
 62
7
 10
189.44166666666666
 20
72.31944444444444
 30
0.0
 40
3.175
  1
R2: b25 to e20; tip -> a20
  0
TEXT
  5
17D
  8
TEXT
 62
7
 10
14.816666666666665
 20
54.327777777777776
 30
0.0
 40
3.5277777777777777
  1
Each a-e group on a single numbered row is connected internally. Adjacent rows are isolated.
  0
TEXT
  5
17E
  8
TEXT
 62
7
 10
14.816666666666665
 20
47.62499999999999
 30
0.0
 40
3.175
  1
Use one U1 first. R2 and all U2 connections are omitted for single-sensor calibration.
  0
TEXT
  5
17F
  8
TEXT
 62
7
 10
14.816666666666665
 20
40.92222222222222
 30
0.0
 40
3.175
  1
Sensor body stays in block2. Lead ends go to breadboard; strain-relieve the cable away from the carriage.
  0
TEXT
  5
180
  8
TEXT
 62
7
 10
14.816666666666665
 20
34.21944444444444
 30
0.0
 40
3.175
  1
Power OFF: check row continuity and supply-to-ground resistance. Power ON: verify HIGH before approach.
  0
TEXT
  5
181
  8
GEOMETRY
 62
8
 10
14.816666666666665
 20
27.516666666666666
 30
0.0
 40
2.822222222222222
  1
R1/R2 = 4.7 kohm. C1 = 0.1 uF. A breadboard capacitor at the cable end may not suppress sensor-end spikes.
  0
ENDSEC
  0
EOF
